<?xml version="1.0" encoding="UTF-8"?><svg xmlns="http://www.w3.org/2000/svg" viewBox="0 0 670.44 359.09"><g id="a"/><g id="b"/><g id="c"><g><path d="M330.99,181.6c-.63,0-1.11-.19-1.42-.56s-.47-.95-.47-1.72v-2.35h1.2v2.49c0,.41,.05,.69,.16,.86s.28,.25,.52,.25,.41-.08,.53-.25,.17-.45,.17-.86v-2.49h1.16v2.35c0,.78-.15,1.35-.45,1.72-.3,.37-.77,.56-1.41,.56Z" fill="#231f20" opacity=".5"/><path d="M334.74,181.6c-.22,0-.46-.05-.71-.14-.25-.09-.47-.21-.65-.35l.53-.74c.32,.23,.6,.35,.85,.35,.13,0,.22-.02,.27-.05s.08-.09,.08-.16c0-.09-.07-.17-.2-.22-.14-.05-.29-.12-.47-.19-.13-.06-.27-.13-.4-.21s-.24-.2-.33-.33c-.09-.13-.13-.3-.13-.49,0-.34,.13-.62,.39-.83,.26-.21,.59-.31,1-.31,.29,0,.54,.05,.75,.14s.39,.2,.54,.32l-.53,.71c-.13-.09-.25-.17-.37-.22-.12-.05-.24-.08-.34-.08-.21,0-.31,.07-.31,.2,0,.09,.06,.16,.19,.21,.13,.05,.28,.11,.45,.17,.14,.05,.28,.12,.42,.2s.25,.19,.34,.33c.09,.14,.14,.31,.14,.52,0,.33-.13,.6-.38,.83-.25,.22-.63,.34-1.12,.34Z" fill="#231f20" opacity=".5"/><path d="M338.45,181.6c-.34,0-.65-.07-.92-.22-.27-.15-.49-.35-.65-.63-.16-.27-.24-.6-.24-.99s.08-.7,.24-.98c.16-.27,.37-.48,.63-.63s.53-.22,.81-.22c.35,0,.63,.08,.86,.23,.23,.15,.39,.36,.5,.61,.11,.26,.16,.54,.16,.85,0,.1,0,.2-.02,.3s-.02,.16-.03,.21h-2c.06,.21,.16,.36,.3,.44s.32,.12,.51,.12c.22,0,.46-.07,.71-.21l.39,.71c-.19,.13-.4,.23-.63,.3s-.45,.11-.64,.11Zm-.66-2.25h1.04c0-.14-.03-.25-.1-.35-.07-.1-.19-.15-.38-.15-.13,0-.25,.04-.35,.12s-.17,.21-.21,.39Z" fill="#231f20" opacity=".5"/><path d="M340.51,181.52v-3.5h.98l.08,.6h.03c.13-.24,.29-.41,.47-.52s.36-.16,.53-.16c.11,0,.2,0,.26,.02s.12,.03,.17,.05l-.2,1.04c-.06-.01-.12-.03-.18-.04s-.13-.02-.21-.02c-.13,0-.26,.04-.4,.13-.14,.09-.25,.24-.33,.46v1.95h-1.2Z" fill="#231f20" opacity=".5"/></g><circle cx="335.82" cy="179.54" r="31.79" fill="none" stroke="#231f20" stroke-miterlimit="10" stroke-width=".25"/><rect x=".12" y=".12" width="670.19" height="358.84" fill="none" stroke="#231f20" stroke-miterlimit="10" stroke-width=".25"/><line x1="335.82" y1="211.33" x2="335.82" y2="358.96" fill="none" stroke="#231f20" stroke-miterlimit="10" stroke-width=".25"/><line x1="335.82" y1=".12" x2="335.82" y2="147.76" fill="none" stroke="#231f20" stroke-miterlimit="10" stroke-width=".25"/><line x1="367.61" y1="179.54" x2="670.32" y2="179.54" fill="none" stroke="#231f20" stroke-miterlimit="10" stroke-width=".25"/><line x1=".12" y1="179.54" x2="302.83" y2="179.54" fill="none" stroke="#231f20" stroke-miterlimit="10" stroke-width=".25"/></g><g id="d"/></svg>