<?xml version="1.0" encoding="UTF-8"?><svg xmlns="http://www.w3.org/2000/svg" viewBox="0 0 2561 2290.18"><g id="a"><rect x=".5" y="71.67" width="136" height="470" fill="none" stroke="#231f20" stroke-miterlimit="10"/><rect x="320.77" y="-53.33" width="300" height="550" transform="translate(249.11 692.44) rotate(-90)" fill="none" stroke="#231f20" stroke-miterlimit="10"/><rect x="900.05" y="-23.33" width="225" height="415" transform="translate(828.38 1196.71) rotate(-90)" fill="none" stroke="#231f20" stroke-miterlimit="10"/><rect x="1241.75" y="110.42" width="235" height="157.5" transform="translate(1548.42 -1170.08) rotate(90)" fill="none" stroke="#231f20" stroke-miterlimit="10"/><rect x="480.5" y="209.68" width="1600" height="2560" transform="translate(-209.18 2770.18) rotate(-90)" fill="none" stroke="#231f20" stroke-miterlimit="10"/></g><g id="b"><path d="M14.66,16.14h-.12l-6.78,3.66-1.02-4.02,8.52-4.56h4.5V50.22h-5.1V16.14Z" fill="#231f20"/><path d="M26.48,621.36H11.6l-1.5,10.02c.9-.12,1.74-.24,3.18-.24,3,0,6,.66,8.4,2.1,3.06,1.74,5.58,5.1,5.58,10.02,0,7.62-6.06,13.32-14.52,13.32-4.26,0-7.86-1.2-9.72-2.4l1.32-4.02c1.62,.96,4.8,2.16,8.34,2.16,4.98,0,9.24-3.24,9.24-8.46-.06-5.04-3.42-8.64-11.22-8.64-2.22,0-3.96,.24-5.4,.42l2.52-18.72H26.48v4.44Z" fill="#231f20"/><path d="M198.47,50.22v-3.24l4.14-4.02c9.96-9.48,14.46-14.52,14.52-20.4,0-3.96-1.92-7.62-7.74-7.62-3.54,0-6.48,1.8-8.28,3.3l-1.68-3.72c2.7-2.28,6.54-3.96,11.04-3.96,8.4,0,11.94,5.76,11.94,11.34,0,7.2-5.22,13.02-13.44,20.94l-3.12,2.88v.12h17.52v4.38h-24.9Z" fill="#231f20"/><g><path d="M2355.15,122.27c-.3-5.64-.66-12.42-.6-17.46h-.18c-1.38,4.74-3.06,9.78-5.1,15.36l-7.14,19.62h-3.96l-6.54-19.26c-1.92-5.7-3.54-10.92-4.68-15.72h-.12c-.12,5.04-.42,11.82-.78,17.88l-1.08,17.34h-4.98l2.82-40.44h6.66l6.9,19.56c1.68,4.98,3.06,9.42,4.08,13.62h.18c1.02-4.08,2.46-8.52,4.26-13.62l7.2-19.56h6.66l2.52,40.44h-5.1l-1.02-17.76Z" fill="#231f20"/><path d="M2385.21,140.03l-.42-3.66h-.18c-1.62,2.28-4.74,4.32-8.88,4.32-5.88,0-8.88-4.14-8.88-8.34,0-7.02,6.24-10.86,17.46-10.8v-.6c0-2.4-.66-6.72-6.6-6.72-2.7,0-5.52,.84-7.56,2.16l-1.2-3.48c2.4-1.56,5.88-2.58,9.54-2.58,8.88,0,11.04,6.06,11.04,11.88v10.86c0,2.52,.12,4.98,.48,6.96h-4.8Zm-.78-14.82c-5.76-.12-12.3,.9-12.3,6.54,0,3.42,2.28,5.04,4.98,5.04,3.78,0,6.18-2.4,7.02-4.86,.18-.54,.3-1.14,.3-1.68v-5.04Z" fill="#231f20"/><path d="M2398.05,120.06c0-3.42-.06-6.36-.24-9.06h4.62l.18,5.7h.24c1.32-3.9,4.5-6.36,8.04-6.36,.6,0,1.02,.06,1.5,.18v4.98c-.54-.12-1.08-.18-1.8-.18-3.72,0-6.36,2.82-7.08,6.78-.12,.72-.24,1.56-.24,2.46v15.48h-5.22v-19.98Z" fill="#231f20"/><path d="M2442.69,111c-.12,2.1-.24,4.44-.24,7.98v16.86c0,6.66-1.32,10.74-4.14,13.26-2.82,2.64-6.9,3.48-10.56,3.48s-7.32-.84-9.66-2.4l1.32-4.02c1.92,1.2,4.92,2.28,8.52,2.28,5.4,0,9.36-2.82,9.36-10.14v-3.24h-.12c-1.62,2.7-4.74,4.86-9.24,4.86-7.2,0-12.36-6.12-12.36-14.16,0-9.84,6.42-15.42,13.08-15.42,5.04,0,7.8,2.64,9.06,5.04h.12l.24-4.38h4.62Zm-5.46,11.46c0-.9-.06-1.68-.3-2.4-.96-3.06-3.54-5.58-7.38-5.58-5.04,0-8.64,4.26-8.64,10.98,0,5.7,2.88,10.44,8.58,10.44,3.24,0,6.18-2.04,7.32-5.4,.3-.9,.42-1.92,.42-2.82v-5.22Z" fill="#231f20"/><path d="M2457.09,102.84c.06,1.8-1.26,3.24-3.36,3.24-1.86,0-3.18-1.44-3.18-3.24s1.38-3.3,3.3-3.3,3.24,1.44,3.24,3.3Zm-5.88,37.2v-29.04h5.28v29.04h-5.28Z" fill="#231f20"/><path d="M2465.25,118.86c0-3-.06-5.46-.24-7.86h4.68l.3,4.8h.12c1.44-2.76,4.8-5.46,9.6-5.46,4.02,0,10.26,2.4,10.26,12.36v17.34h-5.28v-16.74c0-4.68-1.74-8.58-6.72-8.58-3.48,0-6.18,2.46-7.08,5.4-.24,.66-.36,1.56-.36,2.46v17.46h-5.28v-21.18Z" fill="#231f20"/></g><path d="M809.01,44.16c1.5,.96,4.98,2.46,8.64,2.46,6.78,0,8.88-4.32,8.82-7.56-.06-5.46-4.98-7.8-10.08-7.8h-2.94v-3.96h2.94c3.84,0,8.7-1.98,8.7-6.6,0-3.12-1.98-5.88-6.84-5.88-3.12,0-6.12,1.38-7.8,2.58l-1.38-3.84c2.04-1.5,6-3,10.2-3,7.68,0,11.16,4.56,11.16,9.3,0,4.02-2.4,7.44-7.2,9.18v.12c4.8,.96,8.7,4.56,8.7,10.02,0,6.24-4.86,11.7-14.22,11.7-4.38,0-8.22-1.38-10.14-2.64l1.44-4.08Z" fill="#231f20"/><path d="M1299.52,50.22v-10.62h-18.12v-3.48l17.4-24.9h5.7v24.24h5.46v4.14h-5.46v10.62h-4.98Zm0-14.76v-13.02c0-2.04,.06-4.08,.18-6.12h-.18c-1.2,2.28-2.16,3.96-3.24,5.76l-9.54,13.26v.12h12.78Z" fill="#231f20"/><path d="M.5,71.67v470H136.5V71.67H.5ZM126.5,481.67H10.5V171.67H126.5V481.67Z" fill="#e6e7e8" opacity=".3"/><path d="M727.47,71.67H195.77V371.67H745.77V71.67h-18.3ZM225.77,341.67V101.67h490v240H225.77Z" fill="#e6e7e8" opacity=".3"/><rect x="2178.13" y="71.67" width="100" height="100" fill="#e6e7e8" opacity=".3"/><g><path d="M2321.07,250.08c2.52-.42,5.82-.78,10.02-.78,5.16,0,8.94,1.2,11.34,3.36,2.22,1.92,3.54,4.86,3.54,8.46s-1.08,6.54-3.12,8.64c-2.76,2.94-7.26,4.44-12.36,4.44-1.56,0-3-.06-4.2-.36v16.2h-5.22v-39.96Zm5.22,19.5c1.14,.3,2.58,.42,4.32,.42,6.3,0,10.14-3.06,10.14-8.64s-3.78-7.92-9.54-7.92c-2.28,0-4.02,.18-4.92,.42v15.72Z" fill="#231f20"/><path d="M2368.89,290.03l-.42-3.66h-.18c-1.62,2.28-4.74,4.32-8.88,4.32-5.88,0-8.88-4.14-8.88-8.34,0-7.02,6.24-10.86,17.46-10.8v-.6c0-2.4-.66-6.72-6.6-6.72-2.7,0-5.52,.84-7.56,2.16l-1.2-3.48c2.4-1.56,5.88-2.58,9.54-2.58,8.88,0,11.04,6.06,11.04,11.88v10.86c0,2.52,.12,4.98,.48,6.96h-4.8Zm-.78-14.82c-5.76-.12-12.3,.9-12.3,6.54,0,3.42,2.28,5.04,4.98,5.04,3.78,0,6.18-2.4,7.02-4.86,.18-.54,.3-1.14,.3-1.68v-5.04Z" fill="#231f20"/><path d="M2406.81,247.44v35.1c0,2.58,.06,5.52,.24,7.5h-4.74l-.24-5.04h-.12c-1.62,3.24-5.16,5.7-9.9,5.7-7.02,0-12.42-5.94-12.42-14.76-.06-9.66,5.94-15.6,13.02-15.6,4.44,0,7.44,2.1,8.76,4.44h.12v-17.34h5.28Zm-5.28,25.38c0-.66-.06-1.56-.24-2.22-.78-3.36-3.66-6.12-7.62-6.12-5.46,0-8.7,4.8-8.7,11.22,0,5.88,2.88,10.74,8.58,10.74,3.54,0,6.78-2.34,7.74-6.3,.18-.72,.24-1.44,.24-2.28v-5.04Z" fill="#231f20"/><path d="M2440.65,247.44v35.1c0,2.58,.06,5.52,.24,7.5h-4.74l-.24-5.04h-.12c-1.62,3.24-5.16,5.7-9.9,5.7-7.02,0-12.42-5.94-12.42-14.76-.06-9.66,5.94-15.6,13.02-15.6,4.44,0,7.44,2.1,8.76,4.44h.12v-17.34h5.28Zm-5.28,25.38c0-.66-.06-1.56-.24-2.22-.78-3.36-3.66-6.12-7.62-6.12-5.46,0-8.7,4.8-8.7,11.22,0,5.88,2.88,10.74,8.58,10.74,3.54,0,6.78-2.34,7.74-6.3,.18-.72,.24-1.44,.24-2.28v-5.04Z" fill="#231f20"/><path d="M2455.29,252.84c.06,1.8-1.26,3.24-3.36,3.24-1.86,0-3.18-1.44-3.18-3.24s1.38-3.3,3.3-3.3,3.24,1.44,3.24,3.3Zm-5.88,37.2v-29.04h5.28v29.04h-5.28Z" fill="#231f20"/><path d="M2463.45,268.86c0-3-.06-5.46-.24-7.86h4.68l.3,4.8h.12c1.44-2.76,4.8-5.46,9.6-5.46,4.02,0,10.26,2.4,10.26,12.36v17.34h-5.28v-16.74c0-4.68-1.74-8.58-6.72-8.58-3.48,0-6.18,2.46-7.08,5.4-.24,.66-.36,1.56-.36,2.46v17.46h-5.28v-21.18Z" fill="#231f20"/><path d="M2521.77,261c-.12,2.1-.24,4.44-.24,7.98v16.86c0,6.66-1.32,10.74-4.14,13.26-2.82,2.64-6.9,3.48-10.56,3.48s-7.32-.84-9.66-2.4l1.32-4.02c1.92,1.2,4.92,2.28,8.52,2.28,5.4,0,9.36-2.82,9.36-10.14v-3.24h-.12c-1.62,2.7-4.74,4.86-9.24,4.86-7.2,0-12.36-6.12-12.36-14.16,0-9.84,6.42-15.42,13.08-15.42,5.04,0,7.8,2.64,9.06,5.04h.12l.24-4.38h4.62Zm-5.46,11.46c0-.9-.06-1.68-.3-2.4-.96-3.06-3.54-5.58-7.38-5.58-5.04,0-8.64,4.26-8.64,10.98,0,5.7,2.88,10.44,8.58,10.44,3.24,0,6.18-2.04,7.32-5.4,.3-.9,.42-1.92,.42-2.82v-5.22Z" fill="#231f20"/></g><rect x="2178.13" y="221.67" width="100" height="100" fill="#e6e7e8"/><g><path d="M2349.33,438.71c-1.92,.96-5.76,1.92-10.68,1.92-11.4,0-19.98-7.2-19.98-20.46s8.58-21.24,21.12-21.24c5.04,0,8.22,1.08,9.6,1.8l-1.26,4.26c-1.98-.96-4.8-1.68-8.16-1.68-9.48,0-15.78,6.06-15.78,16.68,0,9.9,5.7,16.26,15.54,16.26,3.18,0,6.42-.66,8.52-1.68l1.08,4.14Z" fill="#231f20"/><path d="M2381.97,425.27c0,10.74-7.44,15.42-14.46,15.42-7.86,0-13.92-5.76-13.92-14.94,0-9.72,6.36-15.42,14.4-15.42s13.98,6.06,13.98,14.94Zm-23.04,.3c0,6.36,3.66,11.16,8.82,11.16s8.82-4.74,8.82-11.28c0-4.92-2.46-11.16-8.7-11.16s-8.94,5.76-8.94,11.28Z" fill="#231f20"/><path d="M2388.63,418.86c0-3-.06-5.46-.24-7.86h4.68l.3,4.8h.12c1.44-2.76,4.8-5.46,9.6-5.46,4.02,0,10.26,2.4,10.26,12.36v17.34h-5.28v-16.74c0-4.68-1.74-8.58-6.72-8.58-3.48,0-6.18,2.46-7.08,5.4-.24,.66-.36,1.56-.36,2.46v17.46h-5.28v-21.18Z" fill="#231f20"/><path d="M2428.29,402.66v8.34h7.56v4.02h-7.56v15.66c0,3.6,1.02,5.64,3.96,5.64,1.38,0,2.4-.18,3.06-.36l.24,3.96c-1.02,.42-2.64,.72-4.68,.72-2.46,0-4.44-.78-5.7-2.22-1.5-1.56-2.04-4.14-2.04-7.56v-15.84h-4.5v-4.02h4.5v-6.96l5.16-1.38Z" fill="#231f20"/><path d="M2444.73,426.47c.12,7.14,4.68,10.08,9.96,10.08,3.78,0,6.06-.66,8.04-1.5l.9,3.78c-1.86,.84-5.04,1.8-9.66,1.8-8.94,0-14.28-5.88-14.28-14.64s5.16-15.66,13.62-15.66c9.48,0,12,8.34,12,13.68,0,1.08-.12,1.92-.18,2.46h-20.4Zm15.48-3.78c.06-3.36-1.38-8.58-7.32-8.58-5.34,0-7.68,4.92-8.1,8.58h15.42Z" fill="#231f20"/><path d="M2471.85,418.86c0-3-.06-5.46-.24-7.86h4.68l.3,4.8h.12c1.44-2.76,4.8-5.46,9.6-5.46,4.02,0,10.26,2.4,10.26,12.36v17.34h-5.28v-16.74c0-4.68-1.74-8.58-6.72-8.58-3.48,0-6.18,2.46-7.08,5.4-.24,.66-.36,1.56-.36,2.46v17.46h-5.28v-21.18Z" fill="#231f20"/><path d="M2511.51,402.66v8.34h7.56v4.02h-7.56v15.66c0,3.6,1.02,5.64,3.96,5.64,1.38,0,2.4-.18,3.06-.36l.24,3.96c-1.02,.42-2.64,.72-4.68,.72-2.46,0-4.44-.78-5.7-2.22-1.5-1.56-2.04-4.14-2.04-7.56v-15.84h-4.5v-4.02h4.5v-6.96l5.16-1.38Z" fill="#231f20"/></g><rect x="2178.13" y="371.67" width="100" height="100" fill="#acbbbc"/><g><path d="M2321.07,545.39c2.28-.48,5.88-.84,9.54-.84,5.22,0,8.58,.9,11.1,2.94,2.1,1.56,3.36,3.96,3.36,7.14,0,3.9-2.58,7.32-6.84,8.88v.12c3.84,.96,8.34,4.14,8.34,10.14,0,3.48-1.38,6.12-3.42,8.1-2.82,2.58-7.38,3.78-13.98,3.78-3.6,0-6.36-.24-8.1-.48v-39.78Zm5.22,16.56h4.74c5.52,0,8.76-2.88,8.76-6.78,0-4.74-3.6-6.6-8.88-6.6-2.4,0-3.78,.18-4.62,.36v13.02Zm0,19.38c1.02,.18,2.52,.24,4.38,.24,5.4,0,10.38-1.98,10.38-7.86,0-5.52-4.74-7.8-10.44-7.8h-4.32v15.42Z" fill="#231f20"/><path d="M2379.69,570.52c0,10.74-7.44,15.42-14.46,15.42-7.86,0-13.92-5.76-13.92-14.94,0-9.72,6.36-15.42,14.4-15.42s13.98,6.06,13.98,14.94Zm-23.04,.3c0,6.36,3.66,11.16,8.82,11.16s8.82-4.74,8.82-11.28c0-4.92-2.46-11.16-8.7-11.16s-8.94,5.76-8.94,11.28Z" fill="#231f20"/><path d="M2402.43,585.28l-.42-3.66h-.18c-1.62,2.28-4.74,4.32-8.88,4.32-5.88,0-8.88-4.14-8.88-8.34,0-7.02,6.24-10.86,17.46-10.8v-.6c0-2.4-.66-6.72-6.6-6.72-2.7,0-5.52,.84-7.56,2.16l-1.2-3.48c2.4-1.56,5.88-2.58,9.54-2.58,8.88,0,11.04,6.06,11.04,11.88v10.86c0,2.52,.12,4.98,.48,6.96h-4.8Zm-.78-14.82c-5.76-.12-12.3,.9-12.3,6.54,0,3.42,2.28,5.04,4.98,5.04,3.78,0,6.18-2.4,7.02-4.86,.18-.54,.3-1.14,.3-1.68v-5.04Z" fill="#231f20"/><path d="M2415.27,565.3c0-3.42-.06-6.36-.24-9.06h4.62l.18,5.7h.24c1.32-3.9,4.5-6.36,8.04-6.36,.6,0,1.02,.06,1.5,.18v4.98c-.54-.12-1.08-.18-1.8-.18-3.72,0-6.36,2.82-7.08,6.78-.12,.72-.24,1.56-.24,2.46v15.48h-5.22v-19.98Z" fill="#231f20"/><path d="M2459.97,542.69v35.1c0,2.58,.06,5.52,.24,7.5h-4.74l-.24-5.04h-.12c-1.62,3.24-5.16,5.7-9.9,5.7-7.02,0-12.42-5.94-12.42-14.76-.06-9.66,5.94-15.6,13.02-15.6,4.44,0,7.44,2.1,8.76,4.44h.12v-17.34h5.28Zm-5.28,25.38c0-.66-.06-1.56-.24-2.22-.78-3.36-3.66-6.12-7.62-6.12-5.46,0-8.7,4.8-8.7,11.22,0,5.88,2.88,10.74,8.58,10.74,3.54,0,6.78-2.34,7.74-6.3,.18-.72,.24-1.44,.24-2.28v-5.04Z" fill="#231f20"/><path d="M2471.67,571.72c.12,7.14,4.68,10.08,9.96,10.08,3.78,0,6.06-.66,8.04-1.5l.9,3.78c-1.86,.84-5.04,1.8-9.66,1.8-8.94,0-14.28-5.88-14.28-14.64s5.16-15.66,13.62-15.66c9.48,0,12,8.34,12,13.68,0,1.08-.12,1.92-.18,2.46h-20.4Zm15.48-3.78c.06-3.36-1.38-8.58-7.32-8.58-5.34,0-7.68,4.92-8.1,8.58h15.42Z" fill="#231f20"/><path d="M2498.79,565.3c0-3.42-.06-6.36-.24-9.06h4.62l.18,5.7h.24c1.32-3.9,4.5-6.36,8.04-6.36,.6,0,1.02,.06,1.5,.18v4.98c-.54-.12-1.08-.18-1.8-.18-3.72,0-6.36,2.82-7.08,6.78-.12,.72-.24,1.56-.24,2.46v15.48h-5.22v-19.98Z" fill="#231f20"/></g><rect x="16.47" y="444.97" width="30.71" height="30.71" fill="#acbbbc"/><rect x="53.14" y="444.97" width="30.71" height="30.71" fill="#acbbbc"/><rect x="89.82" y="444.97" width="30.71" height="30.71" fill="#acbbbc"/><rect x="16.47" y="408.27" width="30.71" height="30.71" fill="#acbbbc"/><rect x="53.14" y="408.27" width="30.71" height="30.71" fill="#acbbbc"/><rect x="89.82" y="408.27" width="30.71" height="30.71" fill="#acbbbc"/><rect x="16.47" y="371.56" width="30.71" height="30.71" fill="#acbbbc"/><rect x="53.14" y="371.56" width="30.71" height="30.71" fill="#acbbbc"/><rect x="89.82" y="371.56" width="30.71" height="30.71" fill="#acbbbc"/><rect x="16.47" y="334.84" width="30.71" height="30.71" fill="#acbbbc"/><rect x="16.47" y="177.63" width="104.07" height="151.2" fill="#acbbbc"/><rect x="53.14" y="334.84" width="30.71" height="30.71" fill="#acbbbc"/><rect x="89.82" y="334.84" width="30.71" height="30.71" fill="#acbbbc"/><path d="M125.78,171.67H10.5V481.67h5.97v-.02h30.71v.02h5.97v-.02h30.71v.02h5.97v-.02h30.71v.02h5.97V171.67h-.72ZM47.18,475.68H16.47v-30.71h30.71v30.71Zm0-36.7H16.47v-30.71h30.71v30.71Zm0-36.7H16.47v-30.71h30.71v30.71Zm0-36.72H16.47v-30.71h30.71v30.71Zm36.68,110.12h-30.71v-30.71h30.71v30.71Zm0-36.7h-30.71v-30.71h30.71v30.71Zm0-36.7h-30.71v-30.71h30.71v30.71Zm0-36.72h-30.71v-30.71h30.71v30.71Zm36.68,110.12h-30.71v-30.71h30.71v30.71Zm0-36.7h-30.71v-30.71h30.71v30.71Zm0-36.7h-30.71v-30.71h30.71v30.71Zm0-36.72h-30.71v-30.71h30.71v30.71Zm-104.07-36.68V177.63H120.53v151.24H16.47Z" fill="#e6e7e8"/><rect x="231.47" y="138.67" width="37.98" height="9" fill="#d7df23"/><rect x="1074.55" y="110.67" width="29.5" height="9" fill="#acbbbc"/><rect x="1113.05" y="110.67" width="29.5" height="9" fill="#acbbbc"/><rect x="1151.55" y="110.67" width="29.5" height="9" fill="#acbbbc"/><rect x="234.77" y="110.67" width="28" height="28" fill="#acbbbc"/><rect x="843.51" y="110.67" width="28" height="28" fill="#acbbbc"/><rect x="1307.5" y="98.67" width="28" height="28" fill="#acbbbc"/><rect x="1342.59" y="98.67" width="18.14" height="28" fill="#acbbbc"/><rect x="1367.73" y="98.67" width="18.14" height="28" fill="#acbbbc"/><rect x="1392.86" y="98.67" width="18.14" height="28" fill="#acbbbc"/><rect x="1307.5" y="248.96" width="28" height="30.7" fill="#acbbbc"/><rect x="1307.5" y="211.26" width="28" height="30.7" fill="#acbbbc"/><rect x="604.77" y="194.02" width="102" height="102" fill="#acbbbc"/><rect x="234.77" y="194.02" width="361" height="29.5" fill="#acbbbc"/><rect x="234.77" y="232.52" width="361" height="29.5" fill="#acbbbc"/><rect x="843.51" y="172.41" width="106.51" height="85.25" fill="#acbbbc"/><rect x="959.02" y="172.41" width="106.51" height="85.25" fill="#acbbbc"/><rect x="1074.53" y="172.41" width="106.51" height="85.25" fill="#acbbbc"/><path d="M1190.05,71.67v.03h-355v-.03h-30v225h415V71.67h-30Zm-355,195V101.7h355v164.97h-355Z" fill="#e6e7e8" opacity=".3"/><rect x="835.05" y="101.67" width="45.46" height="9" fill="#e6e7e8"/><rect x="1067.77" y="101.67" width="115.76" height="9" fill="#e6e7e8"/><rect x="1070.05" y="119.67" width="120" height="9" fill="#e6e7e8"/><rect x="835.05" y="257.67" width="355" height="9" fill="#e6e7e8"/><rect x="835.05" y="138.67" width="45.46" height="9" fill="#e6e7e8"/><rect x="835.05" y="163.41" width="355" height="9" fill="#e6e7e8"/><rect x="787.38" y="210.54" width="103.25" height="9" transform="translate(1054.04 -623.97) rotate(90)" fill="#e6e7e8"/><rect x="819.59" y="121.08" width="38.84" height="9" transform="translate(964.59 -713.42) rotate(90)" fill="#e6e7e8"/><rect x="1172.05" y="110.67" width="27" height="9" transform="translate(1300.71 -1070.38) rotate(90)" fill="#e6e7e8"/><rect x="1138.12" y="208.91" width="94.85" height="9" transform="translate(1398.96 -972.14) rotate(90)" fill="#e6e7e8"/><rect x="1284.49" y="107.67" width="39.01" height="7" transform="translate(1415.17 -1192.83) rotate(90)" fill="#e6e7e8"/><rect x="1264.86" y="244.15" width="78.28" height="7" transform="translate(1551.65 -1056.35) rotate(90)" fill="#e6e7e8"/><rect x="1297.89" y="241.96" width="82.41" height="7" transform="translate(1584.55 -1093.63) rotate(90)" fill="#e6e7e8"/><rect x="1300.51" y="91.67" width="38.58" height="7" transform="translate(2639.6 190.35) rotate(180)" fill="#e6e7e8"/><rect x="1300.51" y="126.67" width="38.58" height="7" transform="translate(2639.6 260.35) rotate(180)" fill="#e6e7e8"/><rect x="1342.59" y="126.67" width="70.27" height="7" transform="translate(2755.45 260.35) rotate(180)" fill="#e6e7e8"/><rect x="1342.59" y="91.67" width="70.27" height="7" transform="translate(2755.45 190.35) rotate(180)" fill="#e6e7e8"/><rect x="1300.51" y="204.26" width="38.58" height="7" transform="translate(2639.6 415.52) rotate(180)" fill="#e6e7e8"/><rect x="1300.51" y="241.96" width="38.58" height="7" transform="translate(2639.6 490.92) rotate(180)" fill="#e6e7e8"/><rect x="1304" y="279.79" width="112.24" height="7" transform="translate(2720.24 566.57) rotate(180)" fill="#e6e7e8"/><rect x="1337.58" y="204.26" width="78.67" height="7" transform="translate(2753.82 415.52) rotate(180)" fill="#e6e7e8"/><rect x="1373.3" y="241.96" width="82.41" height="7" transform="translate(1659.96 -1169.04) rotate(90)" fill="#e6e7e8"/><rect x="1318.09" y="109.17" width="42.01" height="7" transform="translate(1451.76 -1226.42) rotate(90)" fill="#e6e7e8"/><rect x="1393.5" y="109.17" width="42.01" height="7" transform="translate(1527.17 -1301.83) rotate(90)" fill="#e6e7e8"/><rect x="1368.36" y="109.17" width="42.01" height="7" transform="translate(1502.03 -1276.69) rotate(90)" fill="#e6e7e8"/><rect x="1343.22" y="109.17" width="42.01" height="7" transform="translate(1476.9 -1251.56) rotate(90)" fill="#e6e7e8"/><rect x="1136.68" y="108" width="20.73" height="9" transform="translate(1259.55 -1034.55) rotate(90)" fill="#e6e7e8"/><rect x="1098.18" y="113.8" width="20.73" height="9" transform="translate(1226.85 -990.24) rotate(90)" fill="#e6e7e8"/><rect x="1056.55" y="110.67" width="27" height="9" transform="translate(1185.21 -954.88) rotate(90)" fill="#e6e7e8"/><rect x="854.34" y="118.83" width="43.34" height="9" transform="translate(999.34 -752.67) rotate(90)" fill="#e6e7e8"/><path d="M1432.31,71.67h-151.81v235h157.5V71.67h-5.69Zm-131.81,215V91.67h117.5v195h-117.5Z" fill="#e6e7e8" opacity=".3"/><rect x="1342.59" y="211.26" width="68.41" height="68.41" fill="#acbbbc"/><path d="M2545.66,689.68H.5v1600H2560.5V689.68h-14.84ZM35.5,2254.68V724.68H2525.5v1530H35.5Z" fill="#e6e7e8" opacity=".3"/><rect x="234.77" y="271.02" width="83.5" height="25" fill="#acbbbc"/><rect x="327.27" y="271.02" width="83.5" height="25" fill="#acbbbc"/><rect x="419.77" y="271.02" width="83.5" height="25" fill="#acbbbc"/><rect x="512.27" y="271.02" width="83.5" height="25" fill="#acbbbc"/><rect x="234.77" y="223.52" width="370" height="9" fill="#e6e7e8"/><rect x="234.77" y="262.02" width="370" height="9" fill="#e6e7e8"/><rect x="234.77" y="296.02" width="473.56" height="9" fill="#e6e7e8"/><rect x="234.77" y="184.31" width="473.56" height="9" fill="#e6e7e8"/><rect x="595.77" y="188.81" width="9" height="107.21" fill="#e6e7e8"/><rect x="318.27" y="268.13" width="9" height="30.79" fill="#e6e7e8"/><rect x="410.77" y="268.13" width="9" height="30.79" fill="#e6e7e8"/><rect x="503.27" y="268.13" width="9" height="30.79" fill="#e6e7e8"/><rect x="950.02" y="163.41" width="9" height="98.75" fill="#e6e7e8"/><rect x="1065.55" y="163.41" width="9" height="98.75" fill="#e6e7e8"/><g><rect x="225.77" y="184.31" width="9" height="120.71" fill="#e6e7e8"/><rect x="706.77" y="184.31" width="9" height="120.71" fill="#e6e7e8"/></g><path d="M271.77,138.67v-37h-46v46h46v-9Zm-9,0h-28v-28h28v28Z" fill="#e6e7e8"/><rect x="2178.13" y="516.92" width="100" height="100" fill="none" stroke="#be1e2d" stroke-miterlimit="10" stroke-width=".5"/><rect x="10.5" y="171.67" width="116" height="309.98" fill="none" stroke="#be1e2d" stroke-miterlimit="10" stroke-width=".5"/><rect x="225.77" y="101.67" width="46" height="46" fill="none" stroke="#be1e2d" stroke-miterlimit="10" stroke-width=".5"/><rect x="225.77" y="184.31" width="490" height="120.71" fill="none" stroke="#be1e2d" stroke-miterlimit="10" stroke-width=".5"/><rect x="834.51" y="101.67" width="46" height="46" fill="none" stroke="#be1e2d" stroke-miterlimit="10" stroke-width=".5"/><rect x="1065.55" y="101.67" width="123.75" height="27" fill="none" stroke="#be1e2d" stroke-miterlimit="10" stroke-width=".5"/><rect x="834.51" y="163.41" width="355.54" height="103.25" fill="none" stroke="#be1e2d" stroke-miterlimit="10" stroke-width=".5"/><rect x="1300.5" y="91.67" width="117.5" height="42.01" fill="none" stroke="#be1e2d" stroke-miterlimit="10" stroke-width=".5"/><rect x="1300.5" y="204.26" width="117.5" height="83.41" fill="none" stroke="#be1e2d" stroke-miterlimit="10" stroke-width=".5"/></g></svg>