<?xml version="1.0" encoding="UTF-8"?><svg id="a" xmlns="http://www.w3.org/2000/svg" viewBox="0 0 781.58 108.82"><rect x="72.63" y="6.1" width="102.72" height="102.72" fill="#c1d82f"/><rect x="67.62" y=".25" width="102.72" height="102.72" fill="#fff" stroke="#231f20" stroke-miterlimit="10" stroke-width=".5"/><rect x="207.29" y="6.1" width="102.72" height="102.72" fill="#444545"/><rect x="202.27" y=".25" width="102.72" height="102.72" fill="#fff" stroke="#231f20" stroke-miterlimit="10" stroke-width=".5"/><rect x="341.94" y="6.1" width="102.72" height="102.72" fill="#444545"/><rect x="336.93" y=".25" width="102.72" height="102.72" fill="#fff" stroke="#231f20" stroke-miterlimit="10" stroke-width=".5"/><rect x="476.59" y="6.1" width="102.72" height="102.72" fill="#444545"/><rect x="471.58" y=".25" width="102.72" height="102.72" fill="#fff" stroke="#231f20" stroke-miterlimit="10" stroke-width=".5"/><rect y="61.26" width="781.58" height="23.87" fill="none"/><g><path d="M78.97,16.87c-.55,0-.97-.26-1.27-.78-.3-.52-.45-1.26-.45-2.22s.15-1.69,.45-2.2c.3-.51,.72-.76,1.27-.76s.98,.25,1.27,.76c.3,.51,.45,1.24,.45,2.2s-.15,1.7-.45,2.22c-.3,.52-.72,.78-1.27,.78Zm0-.34c.4,0,.72-.23,.96-.68,.24-.45,.36-1.11,.36-1.99s-.12-1.53-.36-1.97c-.24-.44-.56-.65-.96-.65s-.71,.22-.95,.65c-.24,.44-.36,1.09-.36,1.97s.12,1.54,.36,1.99c.24,.45,.56,.68,.95,.68Z" fill="#231f20"/><path d="M81.89,16.76v-.35h1.35v-4.77h-1.03v-.27c.23-.04,.44-.09,.63-.15s.35-.13,.48-.21h.32v5.4h1.25v.35h-3.01Z" fill="#231f20"/></g><g><path d="M77.87,33.77v-7.69h2.4c.52,0,.99,.07,1.4,.21,.41,.14,.73,.36,.96,.68,.23,.32,.35,.74,.35,1.27,0,.59-.16,1.07-.47,1.44-.31,.36-.73,.61-1.27,.74l1.96,3.35h-1.1l-1.85-3.25h-1.4v3.25h-.97Zm.97-4.05h1.29c.6,0,1.06-.12,1.38-.37,.32-.25,.48-.62,.48-1.12s-.16-.86-.48-1.07c-.32-.2-.78-.31-1.38-.31h-1.29v2.86Z" fill="#231f20"/><path d="M86.65,33.91c-.51,0-.97-.12-1.38-.36-.41-.24-.74-.58-.99-1.03-.24-.45-.36-.98-.36-1.59s.12-1.16,.37-1.61c.25-.45,.56-.79,.96-1.03,.39-.24,.8-.36,1.23-.36,.73,0,1.29,.24,1.68,.73,.4,.48,.59,1.13,.59,1.95,0,.1,0,.2,0,.3s-.01,.18-.03,.25h-3.85c.04,.6,.23,1.08,.57,1.44,.34,.36,.78,.54,1.33,.54,.27,0,.53-.04,.76-.12,.23-.08,.45-.19,.66-.32l.34,.63c-.24,.16-.52,.29-.83,.41-.31,.12-.66,.18-1.05,.18Zm-1.79-3.45h3.05c0-.58-.12-1.02-.37-1.32-.25-.3-.59-.45-1.04-.45-.4,0-.76,.15-1.07,.46-.32,.31-.51,.74-.57,1.31Z" fill="#231f20"/><path d="M91.64,33.91c-.41,0-.79-.08-1.16-.23-.37-.15-.69-.34-.96-.56l.48-.65c.25,.2,.51,.36,.77,.49,.27,.13,.57,.19,.9,.19,.38,0,.66-.09,.84-.26,.19-.18,.28-.39,.28-.63,0-.2-.06-.36-.19-.49-.13-.13-.29-.24-.49-.33-.2-.09-.4-.17-.62-.25-.27-.1-.53-.22-.79-.35-.26-.13-.47-.3-.63-.5-.16-.21-.25-.47-.25-.79,0-.46,.17-.85,.52-1.15,.35-.31,.83-.46,1.45-.46,.35,0,.68,.06,.99,.19,.3,.13,.57,.28,.79,.46l-.47,.61c-.2-.15-.4-.27-.61-.36s-.44-.14-.69-.14c-.36,0-.62,.08-.79,.25-.17,.16-.25,.36-.25,.57,0,.18,.06,.33,.18,.44s.27,.21,.46,.29c.19,.08,.39,.17,.6,.25,.27,.1,.54,.22,.81,.35,.27,.13,.49,.3,.66,.52,.18,.22,.26,.5,.26,.86,0,.3-.08,.59-.24,.84-.16,.26-.4,.47-.7,.62-.31,.16-.69,.23-1.14,.23Z" fill="#231f20"/><path d="M97.38,33.91c-.51,0-.97-.12-1.38-.36-.41-.24-.74-.58-.99-1.03-.24-.45-.36-.98-.36-1.59s.12-1.16,.37-1.61c.25-.45,.56-.79,.96-1.03,.39-.24,.8-.36,1.23-.36,.73,0,1.29,.24,1.68,.73,.4,.48,.59,1.13,.59,1.95,0,.1,0,.2,0,.3s-.01,.18-.03,.25h-3.85c.04,.6,.23,1.08,.57,1.44,.34,.36,.78,.54,1.33,.54,.27,0,.53-.04,.76-.12,.23-.08,.45-.19,.66-.32l.34,.63c-.24,.16-.52,.29-.83,.41-.31,.12-.66,.18-1.05,.18Zm-1.79-3.45h3.05c0-.58-.12-1.02-.37-1.32-.25-.3-.59-.45-1.04-.45-.4,0-.76,.15-1.07,.46-.32,.31-.51,.74-.57,1.31Z" fill="#231f20"/><path d="M102.03,33.91c-.48,0-.87-.14-1.19-.43-.32-.29-.48-.68-.48-1.19,0-.63,.28-1.1,.84-1.44,.56-.33,1.44-.56,2.66-.7,0-.24-.03-.47-.1-.69-.07-.22-.18-.4-.35-.53-.17-.14-.41-.21-.72-.21-.33,0-.64,.06-.93,.19-.29,.13-.55,.27-.77,.42l-.38-.67c.27-.17,.59-.34,.98-.5,.39-.16,.81-.24,1.26-.24,.7,0,1.2,.21,1.51,.64s.47,1,.47,1.71v3.49h-.8l-.08-.68h-.04c-.27,.22-.56,.41-.87,.57-.32,.16-.65,.25-1.01,.25Zm.28-.77c.27,0,.53-.07,.77-.2s.5-.32,.77-.56v-1.58c-.95,.12-1.61,.29-1.99,.53-.38,.23-.57,.54-.57,.9,0,.32,.1,.55,.29,.7,.2,.14,.43,.22,.72,.22Z" fill="#231f20"/><path d="M106.63,33.77v-5.7h.8l.08,1.03h.04c.2-.36,.43-.65,.72-.86,.28-.21,.58-.32,.9-.32,.23,0,.43,.04,.61,.12l-.19,.84c-.09-.03-.18-.05-.26-.07-.08-.02-.18-.02-.29-.02-.24,0-.49,.1-.76,.29-.26,.2-.49,.54-.69,1.02v3.66h-.96Z" fill="#231f20"/><path d="M112.83,33.91c-.5,0-.95-.12-1.36-.35-.41-.23-.73-.57-.96-1.02-.23-.45-.35-.98-.35-1.61s.13-1.18,.38-1.63c.25-.45,.59-.79,1.01-1.02,.42-.23,.87-.35,1.35-.35,.38,0,.7,.07,.97,.2,.27,.13,.5,.29,.7,.47l-.49,.63c-.16-.15-.34-.27-.52-.36-.18-.09-.39-.14-.62-.14-.34,0-.65,.09-.92,.28-.27,.18-.48,.44-.63,.77s-.23,.72-.23,1.16c0,.65,.16,1.17,.49,1.58,.32,.4,.75,.6,1.27,.6,.27,0,.51-.06,.74-.17s.43-.25,.6-.4l.42,.65c-.26,.23-.54,.4-.86,.53-.31,.13-.64,.19-.99,.19Z" fill="#231f20"/><path d="M115.93,33.77v-8.35h.96v2.28l-.04,1.17c.27-.26,.56-.48,.86-.66,.3-.18,.65-.28,1.04-.28,.6,0,1.04,.19,1.32,.57,.28,.38,.42,.93,.42,1.66v3.61h-.96v-3.48c0-.53-.09-.92-.26-1.16-.17-.24-.45-.36-.82-.36-.29,0-.55,.07-.78,.22s-.49,.37-.78,.66v4.13h-.96Z" fill="#231f20"/></g><g><path d="M213.62,16.87c-.55,0-.97-.26-1.27-.78-.3-.52-.45-1.26-.45-2.22s.15-1.69,.45-2.2c.3-.51,.72-.76,1.27-.76s.98,.25,1.27,.76c.3,.51,.45,1.24,.45,2.2s-.15,1.7-.45,2.22c-.3,.52-.72,.78-1.27,.78Zm0-.34c.4,0,.72-.23,.96-.68,.24-.45,.36-1.11,.36-1.99s-.12-1.53-.36-1.97c-.24-.44-.56-.65-.96-.65s-.71,.22-.95,.65c-.24,.44-.36,1.09-.36,1.97s.12,1.54,.36,1.99c.24,.45,.56,.68,.95,.68Z" fill="#231f20"/><path d="M216.15,16.76v-.25c.63-.64,1.15-1.2,1.57-1.67s.73-.89,.95-1.26c.21-.37,.31-.72,.31-1.05,0-.36-.1-.66-.3-.91s-.52-.37-.95-.37c-.26,0-.5,.07-.73,.22-.23,.14-.43,.32-.61,.54l-.26-.25c.22-.24,.46-.44,.72-.6,.26-.16,.57-.24,.92-.24,.52,0,.92,.15,1.2,.44,.28,.29,.42,.68,.42,1.17,0,.38-.11,.76-.33,1.15-.22,.39-.52,.81-.92,1.26-.39,.45-.86,.96-1.39,1.52,.16-.01,.32-.02,.48-.03,.17,0,.33-.01,.48-.01h1.96v.36h-3.53Z" fill="#231f20"/></g><g><path d="M212.53,33.77v-7.69h1.92c1.19,0,2.09,.33,2.71,.99s.93,1.6,.93,2.82-.31,2.18-.92,2.86-1.5,1.02-2.67,1.02h-1.97Zm.97-.8h.88c.9,0,1.57-.27,2.02-.82,.45-.54,.67-1.3,.67-2.27s-.23-1.71-.67-2.23c-.45-.52-1.12-.78-2.02-.78h-.88v6.1Z" fill="#231f20"/><path d="M221.96,33.91c-.51,0-.97-.12-1.38-.36-.41-.24-.74-.58-.99-1.03-.24-.45-.36-.98-.36-1.59s.12-1.16,.37-1.61c.25-.45,.56-.79,.96-1.03,.39-.24,.8-.36,1.23-.36,.73,0,1.29,.24,1.68,.73,.4,.48,.59,1.13,.59,1.95,0,.1,0,.2,0,.3s-.01,.18-.03,.25h-3.85c.04,.6,.23,1.08,.57,1.44,.34,.36,.78,.54,1.33,.54,.27,0,.53-.04,.76-.12,.23-.08,.45-.19,.66-.32l.34,.63c-.24,.16-.52,.29-.83,.41-.31,.12-.66,.18-1.05,.18Zm-1.79-3.45h3.05c0-.58-.12-1.02-.37-1.32-.25-.3-.59-.45-1.04-.45-.4,0-.76,.15-1.07,.46-.32,.31-.51,.74-.57,1.31Z" fill="#231f20"/><path d="M225.63,33.77v-4.91h-.77v-.73l.77-.06v-.9c0-.58,.13-1.04,.4-1.38,.27-.34,.69-.51,1.26-.51,.18,0,.35,.02,.52,.05s.31,.08,.43,.13l-.21,.74c-.21-.09-.43-.14-.65-.14-.53,0-.8,.37-.8,1.1v.9h1.21v.79h-1.21v4.91h-.96Z" fill="#231f20"/><path d="M229.38,26.9c-.19,0-.34-.06-.46-.17-.12-.11-.18-.27-.18-.46s.06-.34,.18-.46c.12-.12,.28-.18,.46-.18s.34,.06,.46,.18c.12,.12,.18,.27,.18,.46s-.06,.35-.18,.46-.28,.17-.46,.17Zm-.49,6.87v-5.7h.96v5.7h-.96Z" fill="#231f20"/><path d="M231.77,33.77v-5.7h.8l.08,.82h.04c.27-.27,.56-.5,.87-.69,.31-.18,.65-.28,1.04-.28,.6,0,1.04,.19,1.32,.57,.28,.38,.42,.93,.42,1.66v3.61h-.96v-3.48c0-.53-.09-.92-.26-1.16-.17-.24-.45-.36-.82-.36-.29,0-.55,.07-.78,.22s-.49,.37-.78,.66v4.13h-.96Z" fill="#231f20"/><path d="M240.5,33.91c-.51,0-.97-.12-1.38-.36-.41-.24-.74-.58-.99-1.03-.24-.45-.36-.98-.36-1.59s.12-1.16,.37-1.61c.25-.45,.56-.79,.96-1.03,.39-.24,.8-.36,1.23-.36,.73,0,1.29,.24,1.68,.73,.4,.48,.59,1.13,.59,1.95,0,.1,0,.2,0,.3s-.01,.18-.03,.25h-3.85c.04,.6,.23,1.08,.57,1.44,.34,.36,.78,.54,1.33,.54,.27,0,.53-.04,.76-.12,.23-.08,.45-.19,.66-.32l.34,.63c-.24,.16-.52,.29-.83,.41-.31,.12-.66,.18-1.05,.18Zm-1.79-3.45h3.05c0-.58-.12-1.02-.37-1.32-.25-.3-.59-.45-1.04-.45-.4,0-.76,.15-1.07,.46-.32,.31-.51,.74-.57,1.31Z" fill="#231f20"/></g><g><path d="M348.28,16.87c-.55,0-.97-.26-1.27-.78-.3-.52-.45-1.26-.45-2.22s.15-1.69,.45-2.2c.3-.51,.72-.76,1.27-.76s.98,.25,1.27,.76c.3,.51,.45,1.24,.45,2.2s-.15,1.7-.45,2.22c-.3,.52-.72,.78-1.27,.78Zm0-.34c.4,0,.72-.23,.96-.68,.24-.45,.36-1.11,.36-1.99s-.12-1.53-.36-1.97c-.24-.44-.56-.65-.96-.65s-.71,.22-.95,.65c-.24,.44-.36,1.09-.36,1.97s.12,1.54,.36,1.99c.24,.45,.56,.68,.95,.68Z" fill="#231f20"/><path d="M352.53,16.87c-.31,0-.57-.04-.8-.12s-.42-.18-.59-.31-.31-.25-.44-.38l.23-.28c.17,.19,.38,.36,.63,.51,.25,.15,.57,.23,.96,.23s.71-.12,.96-.35c.25-.23,.38-.54,.38-.92s-.15-.72-.46-.96-.82-.37-1.54-.37v-.35c.44,0,.8-.06,1.06-.17,.26-.11,.45-.26,.57-.45,.11-.19,.17-.4,.17-.63,0-.32-.1-.58-.31-.78-.21-.19-.49-.29-.85-.29-.26,0-.51,.06-.73,.18s-.42,.27-.59,.45l-.23-.27c.2-.19,.42-.36,.68-.49,.25-.14,.55-.21,.88-.21,.3,0,.57,.05,.81,.16,.24,.11,.42,.27,.56,.47,.14,.21,.21,.46,.21,.75,0,.38-.1,.68-.31,.91s-.47,.4-.79,.51v.04c.24,.05,.46,.14,.65,.27,.19,.14,.35,.3,.47,.51,.12,.2,.18,.44,.18,.71,0,.33-.08,.62-.23,.86-.16,.25-.37,.44-.63,.57s-.56,.2-.89,.2Z" fill="#231f20"/></g><g><path d="M347.18,33.77v-7.69h.97v7.69h-.97Z" fill="#231f20"/><path d="M352.12,33.91c-.71,0-1.28-.26-1.71-.78-.43-.52-.65-1.25-.65-2.2,0-.62,.12-1.15,.35-1.6,.23-.45,.54-.8,.92-1.04,.38-.24,.78-.36,1.21-.36,.33,0,.61,.06,.86,.18s.49,.28,.74,.48l-.05-.97v-2.19h.97v8.35h-.8l-.08-.67h-.04c-.22,.22-.48,.41-.77,.57-.3,.16-.61,.24-.95,.24Zm.21-.81c.5,0,.98-.26,1.45-.79v-2.98c-.24-.22-.48-.37-.7-.46-.22-.09-.45-.13-.69-.13-.31,0-.58,.09-.83,.28-.25,.18-.44,.44-.59,.76-.15,.32-.22,.71-.22,1.14,0,.68,.14,1.21,.41,1.6,.27,.39,.66,.58,1.16,.58Z" fill="#231f20"/><path d="M358.99,33.91c-.51,0-.97-.12-1.38-.36-.41-.24-.74-.58-.99-1.03-.24-.45-.36-.98-.36-1.59s.12-1.16,.37-1.61c.25-.45,.56-.79,.96-1.03,.39-.24,.8-.36,1.23-.36,.73,0,1.29,.24,1.68,.73,.4,.48,.59,1.13,.59,1.95,0,.1,0,.2,0,.3s-.01,.18-.03,.25h-3.85c.04,.6,.23,1.08,.57,1.44,.34,.36,.78,.54,1.33,.54,.27,0,.53-.04,.76-.12,.23-.08,.45-.19,.66-.32l.34,.63c-.24,.16-.52,.29-.83,.41-.31,.12-.66,.18-1.05,.18Zm-1.79-3.45h3.05c0-.58-.12-1.02-.37-1.32-.25-.3-.59-.45-1.04-.45-.4,0-.76,.15-1.07,.46-.32,.31-.51,.74-.57,1.31Z" fill="#231f20"/><path d="M363.65,33.91c-.48,0-.87-.14-1.19-.43-.32-.29-.48-.68-.48-1.19,0-.63,.28-1.1,.84-1.44,.56-.33,1.44-.56,2.66-.7,0-.24-.03-.47-.1-.69-.07-.22-.18-.4-.35-.53-.17-.14-.41-.21-.72-.21-.33,0-.64,.06-.93,.19-.29,.13-.55,.27-.77,.42l-.38-.67c.27-.17,.59-.34,.98-.5,.39-.16,.81-.24,1.26-.24,.7,0,1.2,.21,1.51,.64s.47,1,.47,1.71v3.49h-.8l-.08-.68h-.04c-.27,.22-.56,.41-.87,.57-.32,.16-.65,.25-1.01,.25Zm.28-.77c.27,0,.53-.07,.77-.2s.5-.32,.77-.56v-1.58c-.95,.12-1.61,.29-1.99,.53-.38,.23-.57,.54-.57,.9,0,.32,.1,.55,.29,.7,.2,.14,.43,.22,.72,.22Z" fill="#231f20"/><path d="M369.88,33.91c-.61,0-1.03-.18-1.27-.53-.24-.35-.36-.81-.36-1.37v-3.15h-.84v-.73l.89-.06,.12-1.59h.81v1.59h1.54v.79h-1.54v3.17c0,.35,.06,.62,.19,.82,.13,.19,.36,.29,.69,.29,.1,0,.21-.02,.33-.05s.22-.07,.32-.1l.19,.73c-.16,.05-.33,.1-.51,.15s-.37,.06-.55,.06Z" fill="#231f20"/><path d="M374.19,33.91c-.51,0-.97-.12-1.38-.36-.41-.24-.74-.58-.99-1.03-.24-.45-.36-.98-.36-1.59s.12-1.16,.37-1.61c.25-.45,.56-.79,.96-1.03,.39-.24,.8-.36,1.23-.36,.73,0,1.29,.24,1.68,.73,.4,.48,.59,1.13,.59,1.95,0,.1,0,.2,0,.3s-.01,.18-.03,.25h-3.85c.04,.6,.23,1.08,.57,1.44,.34,.36,.78,.54,1.33,.54,.27,0,.53-.04,.76-.12,.23-.08,.45-.19,.66-.32l.34,.63c-.24,.16-.52,.29-.83,.41-.31,.12-.66,.18-1.05,.18Zm-1.79-3.45h3.05c0-.58-.12-1.02-.37-1.32-.25-.3-.59-.45-1.04-.45-.4,0-.76,.15-1.07,.46-.32,.31-.51,.74-.57,1.31Z" fill="#231f20"/></g><g><path d="M482.93,16.87c-.55,0-.97-.26-1.27-.78s-.45-1.26-.45-2.22,.15-1.69,.45-2.2c.3-.51,.72-.76,1.27-.76s.98,.25,1.27,.76c.3,.51,.45,1.24,.45,2.2s-.15,1.7-.45,2.22-.72,.78-1.27,.78Zm0-.34c.4,0,.72-.23,.96-.68,.24-.45,.36-1.11,.36-1.99s-.12-1.53-.36-1.97-.56-.65-.96-.65-.71,.22-.95,.65c-.24,.44-.36,1.09-.36,1.97s.12,1.54,.36,1.99c.24,.45,.56,.68,.95,.68Z" fill="#231f20"/><path d="M487.88,16.76v-1.72h-2.65v-.23l2.67-3.8h.36v3.69h.86v.34h-.86v1.72h-.39Zm-2.16-2.06h2.16v-2.11c0-.13,0-.3,.01-.5,0-.2,.02-.36,.02-.5h-.04c-.07,.12-.15,.24-.22,.35-.08,.11-.16,.24-.24,.37l-1.69,2.38Z" fill="#231f20"/></g><g><path d="M481.84,33.77v-7.69h1.92c1.19,0,2.09,.33,2.71,.99,.62,.66,.93,1.6,.93,2.82s-.31,2.18-.92,2.86c-.61,.68-1.5,1.02-2.67,1.02h-1.97Zm.97-.8h.88c.9,0,1.57-.27,2.02-.82,.45-.54,.67-1.3,.67-2.27s-.22-1.71-.67-2.23c-.45-.52-1.12-.78-2.02-.78h-.88v6.1Z" fill="#231f20"/><path d="M491.27,33.91c-.51,0-.97-.12-1.38-.36-.41-.24-.74-.58-.98-1.03-.24-.45-.36-.98-.36-1.59s.12-1.16,.37-1.61,.56-.79,.96-1.03c.39-.24,.8-.36,1.23-.36,.73,0,1.29,.24,1.68,.73,.39,.48,.59,1.13,.59,1.95,0,.1,0,.2,0,.3s-.01,.18-.03,.25h-3.85c.04,.6,.23,1.08,.57,1.44,.34,.36,.78,.54,1.33,.54,.27,0,.53-.04,.76-.12s.45-.19,.66-.32l.34,.63c-.24,.16-.52,.29-.83,.41-.31,.12-.66,.18-1.05,.18Zm-1.79-3.45h3.05c0-.58-.12-1.02-.37-1.32s-.59-.45-1.04-.45c-.4,0-.76,.15-1.07,.46-.32,.31-.51,.74-.57,1.31Z" fill="#231f20"/><path d="M496.26,33.91c-.41,0-.79-.08-1.16-.23s-.69-.34-.96-.56l.48-.65c.25,.2,.51,.36,.77,.49s.57,.19,.9,.19c.38,0,.66-.09,.84-.26,.19-.18,.28-.39,.28-.63,0-.2-.06-.36-.19-.49s-.29-.24-.49-.33c-.2-.09-.4-.17-.62-.25-.27-.1-.53-.22-.79-.35-.26-.13-.47-.3-.63-.5s-.25-.47-.25-.79c0-.46,.17-.85,.52-1.15,.35-.31,.83-.46,1.45-.46,.35,0,.68,.06,.99,.19,.3,.13,.57,.28,.79,.46l-.47,.61c-.2-.15-.4-.27-.61-.36-.21-.09-.44-.14-.69-.14-.36,0-.62,.08-.79,.25-.17,.16-.25,.36-.25,.57,0,.18,.06,.33,.18,.44s.27,.21,.46,.29c.19,.08,.39,.17,.6,.25,.27,.1,.54,.22,.81,.35,.27,.13,.49,.3,.66,.52,.18,.22,.26,.5,.26,.86,0,.3-.08,.59-.24,.84-.16,.26-.39,.47-.7,.62-.31,.16-.69,.23-1.14,.23Z" fill="#231f20"/><path d="M500.18,26.9c-.19,0-.34-.06-.46-.17s-.18-.27-.18-.46,.06-.34,.18-.46c.12-.12,.28-.18,.46-.18s.34,.06,.46,.18c.12,.12,.18,.27,.18,.46s-.06,.35-.18,.46c-.12,.11-.28,.17-.46,.17Zm-.49,6.87v-5.7h.96v5.7h-.96Z" fill="#231f20"/><path d="M504.5,36.4c-.7,0-1.26-.13-1.7-.4-.44-.27-.66-.65-.66-1.14,0-.24,.07-.48,.22-.7,.15-.22,.35-.42,.61-.59v-.05c-.14-.09-.26-.21-.36-.36-.1-.16-.15-.34-.15-.56,0-.24,.07-.45,.2-.63,.13-.18,.27-.32,.42-.42v-.05c-.19-.16-.36-.37-.51-.63-.15-.27-.23-.57-.23-.9,0-.41,.1-.77,.29-1.08,.2-.3,.46-.54,.79-.7,.33-.16,.68-.25,1.07-.25,.16,0,.3,.01,.45,.04,.14,.03,.26,.06,.36,.1h1.98v.74h-1.17c.13,.13,.25,.29,.33,.5,.09,.21,.13,.43,.13,.67,0,.41-.09,.76-.28,1.06-.19,.3-.44,.53-.75,.69s-.67,.24-1.06,.24c-.3,0-.59-.07-.86-.2-.1,.09-.19,.18-.26,.29s-.11,.24-.11,.39c0,.18,.07,.33,.22,.45,.15,.12,.41,.18,.79,.18h1.1c.66,0,1.16,.11,1.5,.32,.33,.22,.5,.56,.5,1.04,0,.35-.12,.68-.35,.97-.23,.3-.57,.54-1,.72-.43,.18-.94,.28-1.54,.28Zm.14-.67c.55,0,.99-.12,1.31-.36,.33-.24,.49-.51,.49-.8,0-.27-.1-.45-.3-.55-.2-.1-.48-.15-.85-.15h-.99c-.11,0-.23,0-.36-.02s-.26-.04-.38-.07c-.2,.15-.35,.3-.45,.47-.09,.16-.14,.33-.14,.49,0,.31,.15,.55,.44,.73,.29,.18,.7,.27,1.21,.27Zm-.14-4.41c.33,0,.61-.12,.85-.37,.24-.25,.36-.58,.36-.99s-.12-.74-.35-.97c-.23-.23-.52-.35-.86-.35s-.62,.12-.86,.35c-.24,.23-.35,.56-.35,.97s.12,.74,.36,.99c.24,.25,.52,.37,.85,.37Z" fill="#231f20"/><path d="M508.48,33.77v-5.7h.8l.08,.82h.04c.27-.27,.56-.5,.87-.69,.3-.18,.65-.28,1.04-.28,.6,0,1.04,.19,1.32,.57s.42,.93,.42,1.66v3.61h-.96v-3.48c0-.53-.09-.92-.26-1.16s-.45-.36-.82-.36c-.29,0-.55,.07-.78,.22s-.49,.37-.78,.66v4.13h-.96Z" fill="#231f20"/></g><rect x="611.25" y="6.1" width="102.72" height="102.72" fill="#444545"/><rect x="606.24" y=".25" width="102.72" height="102.72" fill="#fff" stroke="#231f20" stroke-miterlimit="10" stroke-width=".5"/><g><path d="M617.59,16.87c-.55,0-.97-.26-1.27-.78s-.45-1.26-.45-2.22,.15-1.69,.45-2.2c.3-.51,.72-.76,1.27-.76s.98,.25,1.27,.76c.3,.51,.45,1.24,.45,2.2s-.15,1.7-.45,2.22-.72,.78-1.27,.78Zm0-.34c.4,0,.72-.23,.96-.68,.24-.45,.36-1.11,.36-1.99s-.12-1.53-.36-1.97-.56-.65-.96-.65-.71,.22-.95,.65c-.24,.44-.36,1.09-.36,1.97s.12,1.54,.36,1.99c.24,.45,.56,.68,.95,.68Z" fill="#231f20"/><path d="M621.79,16.87c-.31,0-.57-.04-.8-.12-.22-.08-.42-.18-.58-.3-.16-.12-.31-.24-.43-.36l.22-.28c.17,.17,.38,.33,.63,.48,.24,.15,.56,.22,.95,.22,.26,0,.5-.06,.71-.19s.39-.31,.52-.54,.2-.5,.2-.81c0-.46-.13-.82-.38-1.09-.25-.26-.59-.4-1.02-.4-.22,0-.41,.03-.57,.1s-.33,.16-.5,.28l-.28-.17,.21-2.69h2.66v.35h-2.29l-.18,2.08c.15-.09,.31-.16,.47-.22,.16-.06,.35-.09,.56-.09,.32,0,.62,.06,.89,.19,.27,.13,.48,.33,.63,.59,.16,.27,.23,.61,.23,1.03s-.09,.75-.27,1.04c-.18,.29-.4,.5-.68,.65s-.58,.23-.89,.23Z" fill="#231f20"/></g><g><path d="M616.49,33.77v-7.69h2.4c.52,0,.99,.07,1.4,.21,.41,.14,.72,.36,.96,.68,.23,.32,.35,.74,.35,1.27,0,.59-.16,1.07-.47,1.44-.31,.36-.73,.61-1.27,.74l1.96,3.35h-1.1l-1.85-3.25h-1.4v3.25h-.97Zm.97-4.05h1.29c.6,0,1.06-.12,1.38-.37,.32-.25,.48-.62,.48-1.12s-.16-.86-.48-1.07c-.32-.2-.78-.31-1.38-.31h-1.29v2.86Z" fill="#231f20"/><path d="M625.27,33.91c-.51,0-.97-.12-1.38-.36-.41-.24-.74-.58-.98-1.03-.24-.45-.36-.98-.36-1.59s.12-1.16,.37-1.61,.56-.79,.96-1.03c.39-.24,.8-.36,1.23-.36,.73,0,1.29,.24,1.68,.73,.39,.48,.59,1.13,.59,1.95,0,.1,0,.2,0,.3s-.01,.18-.03,.25h-3.85c.04,.6,.23,1.08,.57,1.44,.34,.36,.78,.54,1.33,.54,.27,0,.53-.04,.76-.12s.45-.19,.66-.32l.34,.63c-.24,.16-.52,.29-.83,.41-.31,.12-.66,.18-1.05,.18Zm-1.79-3.45h3.05c0-.58-.12-1.02-.37-1.32s-.59-.45-1.04-.45c-.4,0-.76,.15-1.07,.46-.32,.31-.51,.74-.57,1.31Z" fill="#231f20"/><path d="M628.94,33.77v-4.91h-.77v-.73l.77-.06v-.9c0-.58,.13-1.04,.4-1.38,.27-.34,.69-.51,1.26-.51,.18,0,.35,.02,.52,.05,.16,.04,.31,.08,.43,.13l-.21,.74c-.21-.09-.43-.14-.65-.14-.53,0-.8,.37-.8,1.1v.9h1.21v.79h-1.21v4.91h-.96Z" fill="#231f20"/><path d="M633.22,33.91c-.36,0-.62-.11-.78-.33-.16-.22-.24-.54-.24-.96v-7.2h.96v7.27c0,.15,.03,.26,.08,.32,.05,.07,.12,.1,.19,.1,.03,0,.06,0,.09,0l.12-.02,.13,.73c-.06,.03-.14,.05-.22,.07s-.2,.02-.33,.02Z" fill="#231f20"/><path d="M637.5,33.91c-.51,0-.97-.12-1.38-.36-.41-.24-.74-.58-.98-1.03-.24-.45-.36-.98-.36-1.59s.12-1.16,.37-1.61,.56-.79,.96-1.03c.39-.24,.8-.36,1.23-.36,.73,0,1.29,.24,1.68,.73,.39,.48,.59,1.13,.59,1.95,0,.1,0,.2,0,.3s-.01,.18-.03,.25h-3.85c.04,.6,.23,1.08,.57,1.44,.34,.36,.78,.54,1.33,.54,.27,0,.53-.04,.76-.12s.45-.19,.66-.32l.34,.63c-.24,.16-.52,.29-.83,.41-.31,.12-.66,.18-1.05,.18Zm-1.79-3.45h3.05c0-.58-.12-1.02-.37-1.32s-.59-.45-1.04-.45c-.4,0-.76,.15-1.07,.46-.32,.31-.51,.74-.57,1.31Z" fill="#231f20"/><path d="M643.25,33.91c-.5,0-.95-.12-1.36-.35-.41-.23-.73-.57-.96-1.02s-.35-.98-.35-1.61,.13-1.18,.38-1.63c.25-.45,.59-.79,1.01-1.02,.42-.23,.87-.35,1.36-.35,.38,0,.7,.07,.97,.2,.27,.13,.5,.29,.7,.47l-.49,.63c-.16-.15-.34-.27-.52-.36-.18-.09-.39-.14-.62-.14-.34,0-.65,.09-.92,.28s-.48,.44-.63,.77-.23,.72-.23,1.16c0,.65,.16,1.17,.49,1.58,.32,.4,.75,.6,1.27,.6,.27,0,.51-.06,.74-.17s.43-.25,.6-.4l.42,.65c-.26,.23-.54,.4-.86,.53s-.64,.19-.99,.19Z" fill="#231f20"/><path d="M648.03,33.91c-.61,0-1.03-.18-1.27-.53-.24-.35-.36-.81-.36-1.37v-3.15h-.84v-.73l.89-.06,.12-1.59h.81v1.59h1.54v.79h-1.54v3.17c0,.35,.06,.62,.19,.82,.13,.19,.36,.29,.69,.29,.1,0,.21-.02,.33-.05,.12-.04,.22-.07,.32-.1l.19,.73c-.16,.05-.33,.1-.51,.15-.18,.04-.37,.06-.55,.06Z" fill="#231f20"/><path d="M650.69,26.9c-.19,0-.34-.06-.46-.17s-.18-.27-.18-.46,.06-.34,.18-.46c.12-.12,.28-.18,.46-.18s.34,.06,.46,.18c.12,.12,.18,.27,.18,.46s-.06,.35-.18,.46c-.12,.11-.28,.17-.46,.17Zm-.49,6.87v-5.7h.96v5.7h-.96Z" fill="#231f20"/><path d="M655.3,33.91c-.46,0-.89-.12-1.3-.35-.4-.23-.73-.57-.97-1.02s-.37-.98-.37-1.61,.12-1.18,.37-1.63,.57-.79,.97-1.02c.4-.23,.83-.35,1.3-.35s.9,.12,1.3,.35c.4,.23,.72,.57,.97,1.02s.37,.99,.37,1.63-.12,1.16-.37,1.61-.57,.79-.97,1.02c-.4,.23-.83,.35-1.3,.35Zm0-.8c.49,0,.89-.2,1.19-.6,.3-.4,.45-.93,.45-1.58s-.15-1.19-.45-1.6c-.3-.41-.7-.61-1.19-.61s-.88,.2-1.18,.61c-.31,.41-.46,.94-.46,1.6s.15,1.17,.46,1.58c.3,.4,.7,.6,1.18,.6Z" fill="#231f20"/><path d="M659.44,33.77v-5.7h.8l.08,.82h.04c.27-.27,.56-.5,.87-.69,.3-.18,.65-.28,1.04-.28,.6,0,1.04,.19,1.32,.57s.42,.93,.42,1.66v3.61h-.96v-3.48c0-.53-.09-.92-.26-1.16s-.45-.36-.82-.36c-.29,0-.55,.07-.78,.22s-.49,.37-.78,.66v4.13h-.96Z" fill="#231f20"/></g></svg>