<?xml version="1.0" encoding="utf-8"?>
<!-- Generator: Adobe Illustrator 26.2.1, SVG Export Plug-In . SVG Version: 6.00 Build 0)  -->
<svg version="1.1" id="a" xmlns="http://www.w3.org/2000/svg" xmlns:xlink="http://www.w3.org/1999/xlink" x="0px" y="0px"
	 viewBox="0 0 2561 2290.2" style="enable-background:new 0 0 2561 2290.2;" xml:space="preserve">
<style type="text/css">
	.st0{fill:#231F20;}
	.st1{fill:none;stroke:#231F20;stroke-miterlimit:10;}
</style>
<path class="st0" d="M14.7,16.1h-0.1l-6.8,3.7l-1-4l8.5-4.6h4.5v39h-5.1V16.1z"/>
<path class="st0" d="M26.5,621.4H11.6l-1.5,10c0.9-0.1,1.7-0.2,3.2-0.2c3,0,6,0.7,8.4,2.1c3.1,1.7,5.6,5.1,5.6,10
	c0,7.6-6.1,13.3-14.5,13.3c-4.3,0-7.9-1.2-9.7-2.4l1.3-4c1.6,1,4.8,2.2,8.3,2.2c5,0,9.2-3.2,9.2-8.5c-0.1-5-3.4-8.6-11.2-8.6
	c-2.2,0-4,0.2-5.4,0.4l2.5-18.7h18.7V621.4L26.5,621.4z"/>
<path class="st0" d="M198.5,50.2V47l4.1-4c10-9.5,14.5-14.5,14.5-20.4c0-4-1.9-7.6-7.7-7.6c-3.5,0-6.5,1.8-8.3,3.3l-1.7-3.7
	c2.7-2.3,6.5-4,11-4c8.4,0,11.9,5.8,11.9,11.3c0,7.2-5.2,13-13.4,20.9l-3.1,2.9v0.1h17.5v4.4H198.5L198.5,50.2z"/>
<path class="st0" d="M809,44.2c1.5,1,5,2.5,8.6,2.5c6.8,0,8.9-4.3,8.8-7.6c-0.1-5.5-5-7.8-10.1-7.8h-2.9v-4h2.9c3.8,0,8.7-2,8.7-6.6
	c0-3.1-2-5.9-6.8-5.9c-3.1,0-6.1,1.4-7.8,2.6l-1.4-3.8c2-1.5,6-3,10.2-3c7.7,0,11.2,4.6,11.2,9.3c0,4-2.4,7.4-7.2,9.2v0.1
	c4.8,1,8.7,4.6,8.7,10c0,6.2-4.9,11.7-14.2,11.7c-4.4,0-8.2-1.4-10.1-2.6C807.6,48.2,809,44.2,809,44.2z"/>
<path class="st0" d="M1299.5,50.2V39.6h-18.1v-3.5l17.4-24.9h5.7v24.2h5.5v4.1h-5.5v10.6H1299.5z M1299.5,35.5v-13
	c0-2,0.1-4.1,0.2-6.1h-0.2c-1.2,2.3-2.2,4-3.2,5.8l-9.5,13.3v0.1H1299.5z"/>
<rect x="0.5" y="71.7" class="st1" width="136" height="470"/>
<rect x="195.8" y="71.7" class="st1" width="550" height="300"/>
<rect x="805" y="71.7" class="st1" width="415" height="225"/>
<rect x="1280.5" y="71.7" class="st1" width="157.5" height="245"/>
<rect x="0.5" y="689.7" class="st1" width="2560" height="1600"/>
<line class="st1" x1="0.5" y1="71.7" x2="136.5" y2="541.7"/>
<line class="st1" x1="136.5" y1="71.7" x2="0.5" y2="541.7"/>
<line class="st1" x1="195.8" y1="371.7" x2="745.8" y2="71.7"/>
<line class="st1" x1="195.8" y1="71.7" x2="745.8" y2="371.7"/>
<line class="st1" x1="805" y1="71.7" x2="1220.1" y2="296.7"/>
<line class="st1" x1="805" y1="296.7" x2="1220.1" y2="71.7"/>
<line class="st1" x1="1438" y1="71.7" x2="1280.5" y2="316.7"/>
<line class="st1" x1="1438" y1="316.7" x2="1280.5" y2="71.7"/>
<line class="st1" x1="0.5" y1="689.7" x2="2560.5" y2="2289.7"/>
<line class="st1" x1="0.5" y1="2289.7" x2="2560.5" y2="689.7"/>
</svg>
