<?xml version="1.0" encoding="utf-8"?>
<!-- Generator: Adobe Illustrator 26.2.1, SVG Export Plug-In . SVG Version: 6.00 Build 0)  -->
<svg version="1.1" id="Layer_1" xmlns="http://www.w3.org/2000/svg" xmlns:xlink="http://www.w3.org/1999/xlink" x="0px" y="0px"
	 viewBox="0 0 503.4 287.4" style="enable-background:new 0 0 503.4 287.4;" xml:space="preserve">
<style type="text/css">
	.st0{fill:#232323;}
	.st1{fill:#FFFFFF;}
	.st2{font-family:'SourceSansPro-Regular';}
	.st3{font-size:7px;}
	.st4{font-family:'SourceSansPro-ExtraLight';}
	.st5{fill:none;stroke:#FFFFFF;stroke-width:0.5;stroke-miterlimit:10;}
	.st6{fill:none;stroke:#FFFFFF;stroke-width:0.5;stroke-miterlimit:10;stroke-dasharray:0,0,0.5,1.98;}
	.st7{fill:none;stroke:#FFFFFF;stroke-width:0.5;stroke-miterlimit:10;stroke-dasharray:0,0,0.54,2.15;}
	.st8{fill:none;stroke:#FFFFFF;stroke-width:0.5;stroke-miterlimit:10;stroke-dasharray:0,0,0.5,2.01;}
	.st9{fill:none;stroke:#FFFFFF;stroke-width:0.5;stroke-miterlimit:10;stroke-dasharray:0,0,0.5,1.99;}
	.st10{fill:none;stroke:#FFFFFF;stroke-width:0.5;stroke-miterlimit:10;stroke-dasharray:0,0,0.48,1.92;}
	.st11{fill:none;stroke:#FFFFFF;stroke-width:0.5;stroke-miterlimit:10;stroke-dasharray:0,0,0.51,2.04;}
	.st12{fill:none;stroke:#FFFFFF;stroke-width:0.5;stroke-miterlimit:10;stroke-dasharray:0,0,0.51,2.05;}
	.st13{fill:none;stroke:#FFFFFF;stroke-width:0.5;stroke-miterlimit:10;stroke-dasharray:0,0,0.49,1.94;}
	.st14{fill:none;stroke:#FFFFFF;stroke-width:0.5;stroke-miterlimit:10;stroke-dasharray:0,0,0.48,1.94;}
</style>
<g id="a">
</g>
<g id="b">
</g>
<rect x="146.6" class="st0" width="63.6" height="19.9"/>
<text transform="matrix(1 0 0 1 169.59 12.03)" class="st1 st2 st3">Home</text>
<rect x="293.2" y="114.1" class="st0" width="63.6" height="19.9"/>
<text transform="matrix(1 0 0 1 313.38 126.13)" class="st1 st2 st3">P</text>
<text transform="matrix(1 0 0 1 317.34 126.13)" class="st1 st2 st3">r</text>
<text transform="matrix(1 0 0 1 319.7 126.13)" class="st1 st2 st3">odu</text>
<text transform="matrix(1 0 0 1 331.19 126.13)" class="st1 st2 st3">c</text>
<text transform="matrix(1 0 0 1 334.31 126.13)" class="st1 st2 st3">t</text>
<rect x="439.9" y="114.1" class="st0" width="63.6" height="19.9"/>
<text transform="matrix(1 0 0 1 451.5 126.13)" class="st1 st2 st3">Skintype Quiz</text>
<text transform="matrix(1 0 0 1 347.14 12.1)" class="st1 st4 st3">F</text>
<text transform="matrix(1 0 0 1 350.18 12.1)" class="st1 st4 st3">A</text>
<text transform="matrix(1 0 0 1 353.75 12.1)" class="st1 st4 st3">Q</text>
<text transform="matrix(1 0 0 1 54.76 158.03)" class="st1 st4 st3">L</text>
<text transform="matrix(1 0 0 1 57.91 158.03)" class="st1 st4 st3">ogin</text>
<text transform="matrix(1 0 0 1 54.76 189.86)" class="st1 st4 st3">Re</text>
<text transform="matrix(1 0 0 1 61.7 189.86)" class="st1 st4 st3">gi</text>
<text transform="matrix(1 0 0 1 66.62 189.86)" class="st1 st4 st3">s</text>
<text transform="matrix(1 0 0 1 69.28 189.86)" class="st1 st4 st3">t</text>
<text transform="matrix(1 0 0 1 71.39 189.86)" class="st1 st4 st3">r</text>
<text transform="matrix(1 0 0 1 73.39 189.86)" class="st1 st4 st3">a</text>
<text transform="matrix(1 0 0 1 76.73 189.86)" class="st1 st4 st3">tion</text>
<text transform="matrix(1 0 0 1 347.14 43.93)" class="st1 st4 st3">Shipping &amp; </text>
<text transform="matrix(1 0 0 1 378.85 43.93)" class="st1 st4 st3">Re</text>
<text transform="matrix(1 0 0 1 385.79 43.93)" class="st1 st4 st3">turns</text>
<text transform="matrix(1 0 0 1 347.14 75.75)" class="st1 st4 st3">Con</text>
<text transform="matrix(1 0 0 1 358.48 75.75)" class="st1 st4 st3">t</text>
<text transform="matrix(1 0 0 1 360.44 75.75)" class="st1 st4 st3">a</text>
<text transform="matrix(1 0 0 1 363.84 75.75)" class="st1 st4 st3">c</text>
<text transform="matrix(1 0 0 1 366.89 75.75)" class="st1 st4 st3">t Us</text>
<rect x="146.6" y="114.1" class="st0" width="63.6" height="19.9"/>
<text transform="matrix(1 0 0 1 163.94 126.13)" class="st1 st2 st3">Shop Cart</text>
<rect x="0" y="114.1" class="st0" width="63.6" height="19.9"/>
<text transform="matrix(1 0 0 1 19.94 126.13)" class="st1 st2 st3">A</text>
<text transform="matrix(1 0 0 1 23.75 126.13)" class="st1 st2 st3">cc</text>
<text transform="matrix(1 0 0 1 29.84 126.13)" class="st1 st2 st3">ount</text>
<g>
	<line class="st5" x1="178.4" y1="19.9" x2="178.4" y2="20.1"/>
	<line class="st6" x1="178.4" y1="22.1" x2="178.4" y2="112.9"/>
	<line class="st5" x1="178.4" y1="113.9" x2="178.4" y2="114.1"/>
</g>
<g>
	<line class="st5" x1="31.8" y1="114.1" x2="31.8" y2="113.9"/>
	<line class="st7" x1="31.8" y1="111.7" x2="31.8" y2="99.4"/>
	<polyline class="st5" points="31.8,98.3 31.8,98 32,98 	"/>
	<line class="st8" x1="34" y1="98" x2="323.8" y2="98"/>
	<polyline class="st5" points="324.8,98 325,98 325,98.3 	"/>
	<line class="st7" x1="325" y1="100.4" x2="325" y2="112.8"/>
	<line class="st5" x1="325" y1="113.9" x2="325" y2="114.1"/>
</g>
<g>
	<line class="st5" x1="210.2" y1="9.9" x2="210.4" y2="9.9"/>
	<line class="st9" x1="212.4" y1="9.9" x2="340.6" y2="9.9"/>
	<line class="st5" x1="341.6" y1="9.9" x2="341.8" y2="9.9"/>
</g>
<g>
	<line class="st5" x1="341.8" y1="41.8" x2="341.6" y2="41.8"/>
	<line class="st10" x1="339.7" y1="41.8" x2="326.2" y2="41.8"/>
	<line class="st5" x1="325.3" y1="41.8" x2="325" y2="41.8"/>
</g>
<g>
	<line class="st5" x1="341.8" y1="73.6" x2="341.6" y2="73.6"/>
	<line class="st10" x1="339.7" y1="73.6" x2="326.2" y2="73.6"/>
	<polyline class="st5" points="325.3,73.6 325,73.6 325,73.3 	"/>
	<line class="st11" x1="325" y1="71.3" x2="325" y2="11.2"/>
	<line class="st5" x1="325" y1="10.2" x2="325" y2="9.9"/>
</g>
<g>
	<line class="st5" x1="337.9" y1="283.2" x2="337.6" y2="283.2"/>
	<line class="st10" x1="335.7" y1="283.2" x2="322.3" y2="283.2"/>
	<polyline class="st5" points="321.3,283.2 321.1,283.2 321.1,282.9 	"/>
	<line class="st9" x1="321.1" y1="281" x2="321.1" y2="135.2"/>
	<line class="st5" x1="321.1" y1="134.2" x2="321.1" y2="134"/>
</g>
<g>
	<line class="st5" x1="48.6" y1="187.7" x2="48.3" y2="187.7"/>
	<line class="st10" x1="46.4" y1="187.7" x2="33" y2="187.7"/>
	<polyline class="st5" points="32,187.7 31.8,187.7 31.8,187.4 	"/>
	<line class="st12" x1="31.8" y1="185.4" x2="31.8" y2="135.3"/>
	<line class="st5" x1="31.8" y1="134.2" x2="31.8" y2="134"/>
</g>
<g>
	<line class="st5" x1="193.2" y1="155.9" x2="193" y2="155.9"/>
	<line class="st10" x1="191.1" y1="155.9" x2="177.6" y2="155.9"/>
	<polyline class="st5" points="176.7,155.9 176.4,155.9 176.4,155.6 	"/>
	<line class="st13" x1="176.4" y1="153.7" x2="176.4" y2="135.2"/>
	<line class="st5" x1="176.4" y1="134.2" x2="176.4" y2="134"/>
</g>
<text transform="matrix(1 0 0 1 199.4 158.03)" class="st1 st4 st3">Chec</text>
<text transform="matrix(1 0 0 1 213.46 158.03)" class="st1 st4 st3">k</text>
<text transform="matrix(1 0 0 1 216.55 158.03)" class="st1 st4 st3">out P</text>
<text transform="matrix(1 0 0 1 231.25 158.03)" class="st1 st4 st3">r</text>
<text transform="matrix(1 0 0 1 233.32 158.03)" class="st1 st4 st3">o</text>
<text transform="matrix(1 0 0 1 237.05 158.03)" class="st1 st4 st3">c</text>
<text transform="matrix(1 0 0 1 240.06 158.03)" class="st1 st4 st3">ess</text>
<text transform="matrix(1 0 0 1 344.05 158.03)" class="st1 st4 st3">B</text>
<text transform="matrix(1 0 0 1 348.07 158.03)" class="st1 st4 st3">r</text>
<text transform="matrix(1 0 0 1 350.07 158.03)" class="st1 st4 st3">ands</text>
<text transform="matrix(1 0 0 1 344.05 189.86)" class="st1 st4 st3">N</text>
<text transform="matrix(1 0 0 1 348.47 189.86)" class="st1 st4 st3">e</text>
<text transform="matrix(1 0 0 1 351.92 189.86)" class="st1 st4 st3">w In</text>
<text transform="matrix(1 0 0 1 344.05 221.69)" class="st1 st4 st3">P</text>
<text transform="matrix(1 0 0 1 347.66 221.69)" class="st1 st4 st3">opular</text>
<text transform="matrix(1 0 0 1 344.05 253.52)" class="st1 st4 st3">Subscri</text>
<text transform="matrix(1 0 0 1 364.71 253.52)" class="st1 st4 st3">p</text>
<text transform="matrix(1 0 0 1 368.42 253.52)" class="st1 st4 st3">tion</text>
<text transform="matrix(1 0 0 1 344.05 285.35)" class="st1 st4 st3">Sale</text>
<g>
	<line class="st5" x1="337.9" y1="251.4" x2="337.6" y2="251.4"/>
	<line class="st10" x1="335.7" y1="251.4" x2="322.3" y2="251.4"/>
	<line class="st5" x1="321.3" y1="251.4" x2="321.1" y2="251.4"/>
</g>
<g>
	<line class="st5" x1="337.9" y1="219.5" x2="337.6" y2="219.5"/>
	<line class="st10" x1="335.7" y1="219.5" x2="322.3" y2="219.5"/>
	<line class="st5" x1="321.3" y1="219.5" x2="321.1" y2="219.5"/>
</g>
<g>
	<line class="st5" x1="337.9" y1="187.7" x2="337.6" y2="187.7"/>
	<line class="st10" x1="335.7" y1="187.7" x2="322.3" y2="187.7"/>
	<line class="st5" x1="321.3" y1="187.7" x2="321.1" y2="187.7"/>
</g>
<g>
	<line class="st5" x1="337.9" y1="155.9" x2="337.6" y2="155.9"/>
	<line class="st10" x1="335.7" y1="155.9" x2="322.3" y2="155.9"/>
	<line class="st5" x1="321.3" y1="155.9" x2="321.1" y2="155.9"/>
</g>
<g>
	<line class="st5" x1="325" y1="98" x2="325.3" y2="98"/>
	<line class="st9" x1="327.3" y1="98" x2="470.4" y2="98"/>
	<polyline class="st5" points="471.4,98 471.6,98 471.6,98.3 	"/>
	<line class="st7" x1="471.6" y1="100.4" x2="471.6" y2="112.8"/>
	<line class="st5" x1="471.6" y1="113.9" x2="471.6" y2="114.1"/>
</g>
<g>
	<line class="st5" x1="48.6" y1="155.9" x2="48.3" y2="155.9"/>
	<line class="st14" x1="46.4" y1="155.9" x2="32.8" y2="155.9"/>
	<line class="st5" x1="31.9" y1="155.9" x2="31.6" y2="155.9"/>
</g>
<g id="d">
</g>
</svg>
