<?xml version="1.0" encoding="UTF-8"?><svg xmlns="http://www.w3.org/2000/svg" viewBox="0 0 503.44 287.37"><defs><style>.e{stroke-dasharray:0 0 .51 2.04;}.e,.f,.g,.h,.i,.j,.k,.l,.m,.n,.o,.p,.q,.r{fill:none;stroke:#6d6d6d;stroke-miterlimit:10;stroke-width:.5px;}.f{stroke-dasharray:0 0 .5 1.99;}.g{stroke-dasharray:0 0 .49 1.94;}.h{stroke-dasharray:0 0 .5 1.98;}.s{fill:#231f20;font-family:SourceSansPro-ExtraLight, Source Sans Pro;}.s,.t{font-size:7px;}.u{letter-spacing:-.04em;}.v{letter-spacing:-.02em;}.j{stroke-dasharray:0 0 .5 2.01;}.w{letter-spacing:0em;}.k{stroke-dasharray:0 0 .48 1.92;}.x{letter-spacing:-.01em;}.l{stroke-dasharray:0 0 .54 2.15;}.y{letter-spacing:.01em;}.m{stroke-dasharray:0 0 .48 1.92;}.a`{letter-spacing:-.02em;}.n{stroke-dasharray:0 0 .51 2.05;}.aa{letter-spacing:-.03em;}.t{fill:#fff;font-family:SourceSansPro-Regular, Source Sans Pro;}.ab{letter-spacing:-.02em;}.o{stroke-dasharray:0 0 .48 1.94;}.ac{letter-spacing:0em;}.p{stroke-dasharray:0 0 .48 1.92;}.ad{letter-spacing:-.02em;}.ae{fill:#1e1e1e;}.af{letter-spacing:-.02em;}.q{stroke-dasharray:0 0 .5 1.99;}.r{stroke-dasharray:0 0 .5 1.99;}</style></defs><g id="a"/><g id="b"/><g id="c"><rect class="ae" x="168.47" y="-21.85" width="19.88" height="63.58" transform="translate(188.35 -168.47) rotate(90)"/><text class="t" transform="translate(169.59 12.03)"><tspan x="0" y="0">Home</tspan></text><rect class="ae" x="315.09" y="92.26" width="19.88" height="63.58" transform="translate(449.08 -200.98) rotate(90)"/><text class="t" transform="translate(313.38 126.13)"><tspan x="0" y="0">P</tspan><tspan class="w" x="3.96" y="0">r</tspan><tspan x="6.32" y="0">odu</tspan><tspan class="x" x="17.81" y="0">c</tspan><tspan x="20.93" y="0">t</tspan></text><rect class="ae" x="461.71" y="92.26" width="19.88" height="63.58" transform="translate(595.7 -347.6) rotate(90)"/><text class="t" transform="translate(451.5 126.13)"><tspan x="0" y="0">Skintype Quiz</tspan></text><text class="s" transform="translate(347.14 12.1)"><tspan class="u" x="0" y="0">F</tspan><tspan class="w" x="3.04" y="0">A</tspan><tspan x="6.61" y="0">Q</tspan></text><text class="s" transform="translate(54.76 158.03)"><tspan class="w" x="0" y="0">L</tspan><tspan x="3.15" y="0">ogin</tspan></text><text class="s" transform="translate(54.76 189.86)"><tspan class="w" x="0" y="0">Re</tspan><tspan x="6.94" y="0">gi</tspan><tspan class="ab" x="11.86" y="0">s</tspan><tspan x="14.52" y="0">t</tspan><tspan class="ad" x="16.63" y="0">r</tspan><tspan class="w" x="18.63" y="0">a</tspan><tspan x="21.97" y="0">tion</tspan></text><text class="s" transform="translate(347.14 43.93)"><tspan x="0" y="0">Shipping &amp; </tspan><tspan class="w" x="31.71" y="0">Re</tspan><tspan x="38.65" y="0">turns</tspan></text><text class="s" transform="translate(347.14 75.75)"><tspan x="0" y="0">Con</tspan><tspan class="af" x="11.34" y="0">t</tspan><tspan x="13.3" y="0">a</tspan><tspan class="w" x="16.7" y="0">c</tspan><tspan class="ac" x="19.75" y="0">t Us</tspan></text><rect class="ae" x="168.47" y="92.26" width="19.88" height="63.58" transform="translate(302.45 -54.36) rotate(90)"/><text class="t" transform="translate(163.94 126.13)"><tspan x="0" y="0">Shop Cart</tspan></text><rect class="ae" x="21.85" y="92.26" width="19.88" height="63.58" transform="translate(155.83 92.26) rotate(90)"/><text class="t" transform="translate(19.94 126.13)"><tspan x="0" y="0">A</tspan><tspan class="a`" x="3.81" y="0">cc</tspan><tspan x="9.9" y="0">ount</tspan></text><g><line class="i" x1="178.41" y1="19.88" x2="178.41" y2="20.13"/><line class="h" x1="178.41" y1="22.11" x2="178.41" y2="112.87"/><line class="i" x1="178.41" y1="113.86" x2="178.41" y2="114.11"/></g><g><line class="i" x1="31.79" y1="114.11" x2="31.79" y2="113.86"/><line class="l" x1="31.79" y1="111.71" x2="31.79" y2="99.36"/><polyline class="i" points="31.79 98.29 31.79 98.04 32.04 98.04"/><line class="j" x1="34.04" y1="98.04" x2="323.78" y2="98.04"/><polyline class="i" points="324.78 98.04 325.03 98.04 325.03 98.29"/><line class="l" x1="325.03" y1="100.44" x2="325.03" y2="112.78"/><line class="i" x1="325.03" y1="113.86" x2="325.03" y2="114.11"/></g><g><line class="i" x1="210.2" y1="9.94" x2="210.45" y2="9.94"/><line class="q" x1="212.43" y1="9.94" x2="340.59" y2="9.94"/><line class="i" x1="341.58" y1="9.94" x2="341.83" y2="9.94"/></g><g><line class="i" x1="341.83" y1="41.77" x2="341.58" y2="41.77"/><line class="p" x1="339.66" y1="41.77" x2="326.24" y2="41.77"/><line class="i" x1="325.28" y1="41.77" x2="325.03" y2="41.77"/></g><g><line class="i" x1="341.83" y1="73.6" x2="341.58" y2="73.6"/><line class="k" x1="339.66" y1="73.6" x2="326.24" y2="73.6"/><polyline class="i" points="325.28 73.6 325.03 73.6 325.03 73.35"/><line class="e" x1="325.03" y1="71.31" x2="325.03" y2="11.21"/><line class="i" x1="325.03" y1="10.19" x2="325.03" y2="9.94"/></g><g><line class="i" x1="337.87" y1="283.19" x2="337.62" y2="283.19"/><line class="k" x1="335.7" y1="283.19" x2="322.28" y2="283.19"/><polyline class="i" points="321.32 283.19 321.07 283.19 321.07 282.94"/><line class="f" x1="321.07" y1="280.95" x2="321.07" y2="135.23"/><line class="i" x1="321.07" y1="134.23" x2="321.07" y2="133.98"/></g><g><line class="i" x1="48.59" y1="187.7" x2="48.34" y2="187.7"/><line class="k" x1="46.42" y1="187.7" x2="33" y2="187.7"/><polyline class="i" points="32.04 187.7 31.79 187.7 31.79 187.45"/><line class="n" x1="31.79" y1="185.41" x2="31.79" y2="135.26"/><line class="i" x1="31.79" y1="134.23" x2="31.79" y2="133.98"/></g><g><line class="i" x1="193.23" y1="155.88" x2="192.98" y2="155.88"/><line class="k" x1="191.06" y1="155.88" x2="177.64" y2="155.88"/><polyline class="i" points="176.68 155.88 176.43 155.88 176.43 155.63"/><line class="g" x1="176.43" y1="153.68" x2="176.43" y2="135.21"/><line class="i" x1="176.43" y1="134.23" x2="176.43" y2="133.98"/></g><text class="s" transform="translate(199.4 158.03)"><tspan x="0" y="0">Chec</tspan><tspan class="w" x="14.06" y="0">k</tspan><tspan x="17.15" y="0">out P</tspan><tspan class="x" x="31.85" y="0">r</tspan><tspan x="33.92" y="0">o</tspan><tspan class="v" x="37.65" y="0">c</tspan><tspan x="40.66" y="0">ess</tspan></text><text class="s" transform="translate(344.05 158.03)"><tspan x="0" y="0">B</tspan><tspan class="ad" x="4.02" y="0">r</tspan><tspan x="6.02" y="0">ands</tspan></text><text class="s" transform="translate(344.05 189.86)"><tspan x="0" y="0">N</tspan><tspan class="y" x="4.42" y="0">e</tspan><tspan x="7.87" y="0">w In</tspan></text><text class="s" transform="translate(344.05 221.69)"><tspan class="aa" x="0" y="0">P</tspan><tspan x="3.61" y="0">opular</tspan></text><text class="s" transform="translate(344.05 253.52)"><tspan x="0" y="0">Subscri</tspan><tspan class="w" x="20.66" y="0">p</tspan><tspan x="24.37" y="0">tion</tspan></text><text class="s" transform="translate(344.05 285.35)"><tspan x="0" y="0">Sale</tspan></text><g><line class="i" x1="337.88" y1="251.36" x2="337.63" y2="251.36"/><line class="m" x1="335.71" y1="251.36" x2="322.28" y2="251.36"/><line class="i" x1="321.32" y1="251.36" x2="321.07" y2="251.36"/></g><g><line class="i" x1="337.88" y1="219.53" x2="337.63" y2="219.53"/><line class="m" x1="335.71" y1="219.53" x2="322.28" y2="219.53"/><line class="i" x1="321.32" y1="219.53" x2="321.07" y2="219.53"/></g><g><line class="i" x1="337.88" y1="187.7" x2="337.63" y2="187.7"/><line class="m" x1="335.71" y1="187.7" x2="322.28" y2="187.7"/><line class="i" x1="321.32" y1="187.7" x2="321.07" y2="187.7"/></g><g><line class="i" x1="337.88" y1="155.88" x2="337.63" y2="155.88"/><line class="m" x1="335.71" y1="155.88" x2="322.28" y2="155.88"/><line class="i" x1="321.32" y1="155.88" x2="321.07" y2="155.88"/></g><g><line class="i" x1="325.03" y1="98.04" x2="325.28" y2="98.04"/><line class="r" x1="327.27" y1="98.04" x2="470.41" y2="98.04"/><polyline class="i" points="471.4 98.04 471.65 98.04 471.65 98.29"/><line class="l" x1="471.65" y1="100.44" x2="471.65" y2="112.78"/><line class="i" x1="471.65" y1="113.86" x2="471.65" y2="114.11"/></g><g><line class="i" x1="48.59" y1="155.88" x2="48.34" y2="155.88"/><line class="o" x1="46.4" y1="155.88" x2="32.82" y2="155.88"/><line class="i" x1="31.85" y1="155.88" x2="31.6" y2="155.88"/></g></g><g id="d"/></svg>