<?xml version="1.0" encoding="utf-8"?>
<!-- Generator: Adobe Illustrator 26.2.1, SVG Export Plug-In . SVG Version: 6.00 Build 0)  -->
<svg version="1.1" id="a" xmlns="http://www.w3.org/2000/svg" xmlns:xlink="http://www.w3.org/1999/xlink" x="0px" y="0px"
	 viewBox="0 0 663 136.9" style="enable-background:new 0 0 663 136.9;" xml:space="preserve">
<style type="text/css">
	.st0{fill:#C1D82F;}
	.st1{fill:#FFFFFF;}
	.st2{fill:none;stroke:#FFFFFF;stroke-width:0.4;}
	.st3{fill:none;stroke:#FFFFFF;stroke-width:0.25;stroke-dasharray:0,0,0.75,0.5;}
	.st4{opacity:0.75;}
	.st5{fill:none;stroke:#2BB673;stroke-width:0.25;}
</style>
<path class="st0" d="M83.9,106.7c3.1,0,5.7-2.5,5.7-5.7s-2.5-5.7-5.7-5.7s-5.7,2.5-5.7,5.7S80.8,106.7,83.9,106.7"/>
<path class="st0" d="M627.8,106.7c3.1,0,5.7-2.5,5.7-5.7s-2.5-5.7-5.7-5.7s-5.7,2.5-5.7,5.7S624.6,106.7,627.8,106.7"/>
<path class="st0" d="M411.2,106.7c3.1,0,5.7-2.5,5.7-5.7s-2.5-5.7-5.7-5.7s-5.7,2.5-5.7,5.7S408.1,106.7,411.2,106.7"/>
<g>
	<path class="st1" d="M0.5,85.2c0.3,0,0.6-0.1,1-0.1c0.5,0,0.9,0.1,1.1,0.3c0.2,0.2,0.3,0.5,0.3,0.8S2.8,87,2.6,87.2
		c-0.3,0.3-0.7,0.4-1.2,0.4c-0.2,0-0.3,0-0.4,0v1.6H0.5V85.2L0.5,85.2z M1,87.2c0.1,0,0.3,0,0.4,0c0.6,0,1-0.3,1-0.9s-0.4-0.8-1-0.8
		c-0.2,0-0.4,0-0.5,0V87.2z"/>
	<path class="st1" d="M4.2,85.2v2.4c0,0.9,0.4,1.3,0.9,1.3c0.6,0,1-0.4,1-1.3v-2.4h0.5v2.4c0,1.2-0.7,1.8-1.5,1.8
		c-0.8,0-1.5-0.5-1.5-1.7v-2.4H4.2z"/>
	<path class="st1" d="M7.5,85.2c0.2-0.1,0.6-0.1,1-0.1c0.5,0,0.9,0.1,1.1,0.3c0.2,0.2,0.3,0.4,0.3,0.7c0,0.4-0.3,0.7-0.7,0.9l0,0
		c0.4,0.1,0.8,0.4,0.8,1c0,0.3-0.1,0.6-0.3,0.8c-0.3,0.3-0.7,0.4-1.4,0.4c-0.4,0-0.6,0-0.8-0.1V85.2L7.5,85.2z M8.1,86.9h0.5
		c0.6,0,0.9-0.3,0.9-0.7c0-0.5-0.4-0.7-0.9-0.7c-0.2,0-0.4,0-0.5,0V86.9z M8.1,88.8c0.1,0,0.2,0,0.4,0c0.5,0,1-0.2,1-0.8
		c0-0.6-0.5-0.8-1-0.8H8.1L8.1,88.8L8.1,88.8z"/>
	<path class="st1" d="M10.8,85.2h0.5v3.6H13v0.4h-2.2C10.8,89.2,10.8,85.2,10.8,85.2z"/>
	<path class="st1" d="M14.1,85.2v4h-0.5v-4C13.6,85.2,14.1,85.2,14.1,85.2z"/>
	<path class="st1" d="M17.9,89.1c-0.2,0.1-0.6,0.2-1.1,0.2c-1.1,0-2-0.7-2-2s0.9-2.1,2.1-2.1c0.5,0,0.8,0.1,1,0.2l-0.1,0.4
		c-0.2-0.1-0.5-0.2-0.8-0.2c-0.9,0-1.6,0.6-1.6,1.7c0,1,0.6,1.6,1.5,1.6c0.3,0,0.6-0.1,0.9-0.2L17.9,89.1L17.9,89.1z"/>
</g>
<g>
	<path class="st1" d="M643.4,85.2c0.2,0,0.6-0.1,1-0.1c0.5,0,0.9,0.1,1.1,0.3c0.2,0.2,0.3,0.5,0.3,0.8s-0.1,0.7-0.3,0.9
		c-0.3,0.3-0.7,0.4-1.2,0.4c-0.2,0-0.3,0-0.4,0v1.6h-0.5L643.4,85.2L643.4,85.2z M643.9,87.2c0.1,0,0.3,0,0.4,0c0.6,0,1-0.3,1-0.9
		s-0.4-0.8-1-0.8c-0.2,0-0.4,0-0.5,0V87.2z"/>
	<path class="st1" d="M646.6,85.2c0.3-0.1,0.6-0.1,1-0.1c0.6,0,0.9,0.1,1.2,0.3c0.2,0.2,0.3,0.5,0.3,0.8c0,0.5-0.3,0.9-0.8,1v0
		c0.3,0.1,0.5,0.4,0.6,0.8c0.1,0.6,0.2,0.9,0.3,1.1h-0.5c-0.1-0.1-0.2-0.5-0.3-1c-0.1-0.6-0.3-0.8-0.8-0.8h-0.5v1.8h-0.5
		C646.6,89.2,646.6,85.2,646.6,85.2z M647.1,87h0.5c0.6,0,0.9-0.3,0.9-0.8c0-0.5-0.4-0.8-0.9-0.8c-0.2,0-0.4,0-0.5,0.1L647.1,87
		L647.1,87z"/>
	<path class="st1" d="M650.3,85.2v4h-0.5v-4H650.3z"/>
	<path class="st1" d="M652.1,89.2l-1.3-4h0.6l0.6,2c0.2,0.6,0.3,1,0.4,1.5h0c0.1-0.5,0.3-1,0.5-1.5l0.7-2h0.6l-1.5,4H652.1
		L652.1,89.2z"/>
	<path class="st1" d="M654.9,87.9l-0.4,1.3H654l1.4-4h0.6l1.4,4h-0.6l-0.4-1.3H654.9L654.9,87.9z M656.2,87.5l-0.4-1.2
		c-0.1-0.3-0.2-0.5-0.2-0.7h0c-0.1,0.2-0.1,0.5-0.2,0.7l-0.4,1.2H656.2L656.2,87.5z"/>
	<path class="st1" d="M658.2,85.6H657v-0.4h3v0.4h-1.2v3.6h-0.5L658.2,85.6L658.2,85.6z"/>
	<path class="st1" d="M662.5,87.3H661v1.5h1.8v0.4h-2.3v-4h2.2v0.4H661v1.3h1.6V87.3L662.5,87.3z"/>
</g>
<line class="st2" x1="9" y1="101" x2="653" y2="101"/>
<line class="st3" x1="78.2" y1="50.5" x2="78.2" y2="136.9"/>
<line class="st3" x1="89.3" y1="50.5" x2="89.3" y2="136.9"/>
<g>
	<path class="st1" d="M69.9,63.9v-2.2h0.4v1.7h1.3v-1.5h0.4v1.5h1.8v0.5L69.9,63.9L69.9,63.9z"/>
	<path class="st1" d="M71.9,57.5c1.4,0,2.1,0.8,2.1,1.9s-0.8,1.8-2.1,1.8s-2.1-0.8-2.1-1.9S70.7,57.5,71.9,57.5z M71.9,60.7
		c0.9,0,1.6-0.5,1.6-1.3s-0.8-1.3-1.7-1.3c-0.8,0-1.6,0.4-1.6,1.3S71.1,60.7,71.9,60.7L71.9,60.7z"/>
	<path class="st1" d="M69.9,56.8v-0.5h3.6v-1.7h0.4v2.2H69.9z"/>
	<path class="st1" d="M69.9,54c-0.1-0.3-0.1-0.7-0.1-1.1c0-0.8,0.2-1.3,0.5-1.6s0.8-0.6,1.4-0.6s1.2,0.2,1.6,0.6
		c0.4,0.4,0.6,1,0.6,1.8c0,0.4,0,0.7-0.1,1L69.9,54L69.9,54z M73.5,53.5c0-0.1,0-0.3,0-0.5c0-1.1-0.6-1.7-1.7-1.7
		c-0.9,0-1.6,0.5-1.6,1.6c0,0.3,0,0.5,0.1,0.6C70.3,53.5,73.5,53.5,73.5,53.5z"/>
</g>
<g>
	<path class="st1" d="M461.5,114.7h0.7v4.8h2.3v0.6h-3V114.7L461.5,114.7z"/>
	<path class="st1" d="M466,115.1c0,0.2-0.2,0.4-0.5,0.4c-0.2,0-0.4-0.2-0.4-0.4s0.2-0.4,0.4-0.4S466,114.9,466,115.1L466,115.1z
		 M465.2,120.1v-3.9h0.7v3.9H465.2z"/>
	<path class="st1" d="M467.4,116.2l0.8,2.2c0.1,0.3,0.2,0.7,0.3,1h0c0.1-0.3,0.2-0.6,0.3-1l0.8-2.2h0.7l-1.5,3.9h-0.7l-1.5-3.9
		H467.4L467.4,116.2z"/>
	<path class="st1" d="M471.7,115.1c0,0.2-0.2,0.4-0.5,0.4c-0.2,0-0.4-0.2-0.4-0.4s0.2-0.4,0.4-0.4S471.7,114.9,471.7,115.1
		L471.7,115.1z M471,120.1v-3.9h0.7v3.9H471z"/>
	<path class="st1" d="M472.8,117.3c0-0.4,0-0.7,0-1.1h0.6l0,0.6h0c0.2-0.4,0.6-0.7,1.3-0.7c0.5,0,1.4,0.3,1.4,1.7v2.3h-0.7v-2.2
		c0-0.6-0.2-1.1-0.9-1.1c-0.5,0-0.8,0.3-0.9,0.7c0,0.1,0,0.2,0,0.3v2.3h-0.7L472.8,117.3L472.8,117.3z"/>
	<path class="st1" d="M480.6,116.2c0,0.3,0,0.6,0,1.1v2.2c0,0.9-0.2,1.4-0.5,1.8c-0.4,0.3-0.9,0.5-1.4,0.5s-1-0.1-1.3-0.3l0.2-0.5
		c0.3,0.2,0.7,0.3,1.1,0.3c0.7,0,1.2-0.4,1.2-1.3v-0.4h0c-0.2,0.4-0.6,0.7-1.2,0.7c-1,0-1.6-0.8-1.6-1.9c0-1.3,0.9-2.1,1.7-2.1
		c0.7,0,1,0.3,1.2,0.7h0l0-0.6L480.6,116.2L480.6,116.2z M479.9,117.8c0-0.1,0-0.2,0-0.3c-0.1-0.4-0.5-0.7-1-0.7
		c-0.7,0-1.1,0.6-1.1,1.5c0,0.8,0.4,1.4,1.1,1.4c0.4,0,0.8-0.3,1-0.7c0-0.1,0.1-0.3,0.1-0.4L479.9,117.8L479.9,117.8z"/>
	<path class="st1" d="M483.4,119.2c0.3,0.2,0.8,0.3,1.2,0.3c0.7,0,1.1-0.4,1.1-0.9c0-0.5-0.3-0.8-1-1.1c-0.9-0.3-1.4-0.8-1.4-1.5
		c0-0.8,0.7-1.5,1.7-1.5c0.5,0,1,0.1,1.2,0.3l-0.2,0.6c-0.2-0.1-0.5-0.3-1-0.3c-0.7,0-1,0.4-1,0.8c0,0.5,0.3,0.8,1.1,1
		c0.9,0.3,1.4,0.8,1.4,1.6c0,0.8-0.6,1.6-1.9,1.6c-0.5,0-1.1-0.2-1.4-0.3C483.2,119.8,483.4,119.3,483.4,119.2z"/>
	<path class="st1" d="M487.4,117.5c0-0.5,0-0.9,0-1.3h0.6l0,0.7h0c0.3-0.5,0.7-0.8,1.4-0.8c0.9,0,1.6,0.8,1.6,2
		c0,1.4-0.9,2.1-1.8,2.1c-0.5,0-1-0.2-1.2-0.6h0v2.1h-0.7V117.5z M488.1,118.5c0,0.1,0,0.2,0,0.3c0.1,0.5,0.5,0.8,1.1,0.8
		c0.7,0,1.2-0.6,1.2-1.5c0-0.8-0.4-1.4-1.1-1.4c-0.5,0-0.9,0.3-1.1,0.9c0,0.1,0,0.2,0,0.3L488.1,118.5L488.1,118.5z"/>
	<path class="st1" d="M494.1,120.1l-0.1-0.5h0c-0.2,0.3-0.6,0.6-1.2,0.6c-0.8,0-1.2-0.6-1.2-1.1c0-0.9,0.8-1.4,2.3-1.4v-0.1
		c0-0.3-0.1-0.9-0.9-0.9c-0.4,0-0.7,0.1-1,0.3l-0.2-0.5c0.3-0.2,0.8-0.3,1.3-0.3c1.2,0,1.5,0.8,1.5,1.6v1.4c0,0.3,0,0.7,0.1,0.9
		L494.1,120.1L494.1,120.1z M494,118.1c-0.8,0-1.6,0.1-1.6,0.9c0,0.5,0.3,0.7,0.7,0.7c0.5,0,0.8-0.3,0.9-0.7c0-0.1,0-0.2,0-0.2
		V118.1z"/>
	<path class="st1" d="M498.5,119.9c-0.2,0.1-0.6,0.2-1.1,0.2c-1.2,0-1.9-0.8-1.9-2s0.8-2.1,2.1-2.1c0.4,0,0.8,0.1,1,0.2l-0.2,0.5
		c-0.2-0.1-0.4-0.2-0.8-0.2c-0.9,0-1.4,0.7-1.4,1.5c0,0.9,0.6,1.4,1.3,1.4c0.4,0,0.7-0.1,0.9-0.2L498.5,119.9L498.5,119.9z"/>
	<path class="st1" d="M499.7,118.3c0,0.9,0.6,1.3,1.3,1.3c0.5,0,0.8-0.1,1.1-0.2l0.1,0.5c-0.2,0.1-0.7,0.2-1.3,0.2
		c-1.2,0-1.9-0.8-1.9-1.9s0.7-2.1,1.8-2.1c1.3,0,1.6,1.1,1.6,1.8c0,0.1,0,0.3,0,0.3L499.7,118.3L499.7,118.3z M501.8,117.8
		c0-0.4-0.2-1.1-1-1.1c-0.7,0-1,0.7-1.1,1.1H501.8L501.8,117.8z"/>
</g>
<g class="st4">
	<g>
		<g>
			<path class="st1" d="M521.4,118.6c0.3,0.2,0.7,0.3,1.1,0.3c0.6,0,1-0.3,1-0.8c0-0.4-0.2-0.7-0.9-0.9c-0.8-0.3-1.2-0.7-1.2-1.3
				c0-0.7,0.6-1.3,1.5-1.3c0.5,0,0.8,0.1,1,0.2l-0.2,0.5c-0.2-0.1-0.5-0.2-0.9-0.2c-0.6,0-0.9,0.4-0.9,0.7c0,0.4,0.3,0.7,0.9,0.9
				c0.8,0.3,1.2,0.7,1.2,1.4c0,0.7-0.5,1.4-1.7,1.4c-0.5,0-1-0.1-1.2-0.3L521.4,118.6L521.4,118.6z"/>
			<path class="st1" d="M524.9,114.4h0.6v5h-0.6V114.4z"/>
			<path class="st1" d="M526.9,117.8c0,0.8,0.5,1.2,1.2,1.2c0.4,0,0.7-0.1,0.9-0.2l0.1,0.4c-0.2,0.1-0.6,0.2-1.1,0.2
				c-1,0-1.7-0.7-1.7-1.7s0.6-1.8,1.6-1.8c1.1,0,1.4,1,1.4,1.6c0,0.1,0,0.2,0,0.3L526.9,117.8L526.9,117.8z M528.7,117.3
				c0-0.4-0.2-1-0.8-1c-0.6,0-0.9,0.6-1,1H528.7z"/>
			<path class="st1" d="M530.4,117.8c0,0.8,0.5,1.2,1.2,1.2c0.4,0,0.7-0.1,0.9-0.2l0.1,0.4c-0.2,0.1-0.6,0.2-1.1,0.2
				c-1,0-1.7-0.7-1.7-1.7s0.6-1.8,1.6-1.8c1.1,0,1.4,1,1.4,1.6c0,0.1,0,0.2,0,0.3L530.4,117.8L530.4,117.8z M532.2,117.3
				c0-0.4-0.2-1-0.8-1c-0.6,0-0.9,0.6-1,1H532.2z"/>
			<path class="st1" d="M533.5,117.1c0-0.4,0-0.8,0-1.1h0.5l0,0.6h0c0.2-0.4,0.7-0.7,1.2-0.7c0.8,0,1.4,0.7,1.4,1.7
				c0,1.2-0.7,1.8-1.5,1.8c-0.5,0-0.8-0.2-1-0.5h0v1.8h-0.6L533.5,117.1L533.5,117.1z M534.2,118c0,0.1,0,0.2,0,0.2
				c0.1,0.4,0.5,0.7,0.9,0.7c0.7,0,1-0.5,1-1.3c0-0.7-0.4-1.3-1-1.3c-0.4,0-0.8,0.3-0.9,0.8c0,0.1,0,0.2,0,0.2L534.2,118L534.2,118z
				"/>
			<path class="st1" d="M538.2,115c0,0.2-0.2,0.4-0.4,0.4c-0.2,0-0.4-0.2-0.4-0.4s0.2-0.4,0.4-0.4S538.2,114.8,538.2,115z
				 M537.5,119.3v-3.4h0.6v3.4H537.5z"/>
			<path class="st1" d="M539.2,116.9c0-0.3,0-0.6,0-0.9h0.5l0,0.6h0c0.2-0.3,0.6-0.6,1.1-0.6c0.5,0,1.2,0.3,1.2,1.4v2h-0.6v-1.9
				c0-0.6-0.2-1-0.8-1c-0.4,0-0.7,0.3-0.8,0.6c0,0.1,0,0.2,0,0.3v2h-0.6L539.2,116.9L539.2,116.9z"/>
			<path class="st1" d="M546,115.9c0,0.2,0,0.5,0,0.9v2c0,0.8-0.2,1.2-0.5,1.6c-0.3,0.3-0.8,0.4-1.2,0.4s-0.8-0.1-1.1-0.3l0.2-0.5
				c0.2,0.1,0.6,0.3,1,0.3c0.6,0,1.1-0.3,1.1-1.2v-0.4h0c-0.2,0.3-0.5,0.6-1.1,0.6c-0.8,0-1.4-0.7-1.4-1.7c0-1.2,0.8-1.8,1.5-1.8
				c0.6,0,0.9,0.3,1.1,0.6h0l0-0.5L546,115.9L546,115.9z M545.3,117.3c0-0.1,0-0.2,0-0.3c-0.1-0.4-0.4-0.7-0.9-0.7
				c-0.6,0-1,0.5-1,1.3c0,0.7,0.3,1.2,1,1.2c0.4,0,0.7-0.2,0.8-0.6c0-0.1,0-0.2,0-0.3L545.3,117.3L545.3,117.3z"/>
			<path class="st1" d="M548.4,118.6c0.3,0.2,0.7,0.3,1.1,0.3c0.6,0,1-0.3,1-0.8c0-0.4-0.2-0.7-0.9-0.9c-0.8-0.3-1.2-0.7-1.2-1.3
				c0-0.7,0.6-1.3,1.5-1.3c0.5,0,0.8,0.1,1,0.2l-0.2,0.5c-0.2-0.1-0.5-0.2-0.9-0.2c-0.6,0-0.9,0.4-0.9,0.7c0,0.4,0.3,0.7,0.9,0.9
				c0.8,0.3,1.2,0.7,1.2,1.4c0,0.7-0.5,1.4-1.7,1.4c-0.5,0-1-0.1-1.2-0.3L548.4,118.6L548.4,118.6z"/>
			<path class="st1" d="M551.9,117.1c0-0.4,0-0.8,0-1.1h0.5l0,0.6h0c0.2-0.4,0.7-0.7,1.2-0.7c0.8,0,1.4,0.7,1.4,1.7
				c0,1.2-0.7,1.8-1.5,1.8c-0.5,0-0.8-0.2-1-0.5h0v1.8h-0.6L551.9,117.1L551.9,117.1z M552.5,118c0,0.1,0,0.2,0,0.2
				c0.1,0.4,0.5,0.7,0.9,0.7c0.7,0,1-0.5,1-1.3c0-0.7-0.4-1.3-1-1.3c-0.4,0-0.8,0.3-0.9,0.8c0,0.1,0,0.2,0,0.2L552.5,118L552.5,118z
				"/>
			<path class="st1" d="M557.8,119.3l0-0.4h0c-0.2,0.3-0.5,0.5-1,0.5c-0.7,0-1-0.5-1-1c0-0.8,0.7-1.3,2-1.3v-0.1
				c0-0.3-0.1-0.8-0.8-0.8c-0.3,0-0.6,0.1-0.9,0.2l-0.1-0.4c0.3-0.2,0.7-0.3,1.1-0.3c1,0,1.3,0.7,1.3,1.4v1.3c0,0.3,0,0.6,0.1,0.8
				L557.8,119.3L557.8,119.3z M557.7,117.6c-0.7,0-1.4,0.1-1.4,0.8c0,0.4,0.3,0.6,0.6,0.6c0.4,0,0.7-0.3,0.8-0.6c0-0.1,0-0.1,0-0.2
				L557.7,117.6L557.7,117.6z"/>
			<path class="st1" d="M561.7,119.2c-0.2,0.1-0.5,0.2-1,0.2c-1,0-1.7-0.7-1.7-1.7s0.7-1.8,1.8-1.8c0.4,0,0.7,0.1,0.8,0.2l-0.1,0.5
				c-0.2-0.1-0.4-0.2-0.7-0.2c-0.8,0-1.2,0.6-1.2,1.3c0,0.8,0.5,1.3,1.2,1.3c0.3,0,0.6-0.1,0.8-0.2L561.7,119.2L561.7,119.2z"/>
			<path class="st1" d="M562.7,117.8c0,0.8,0.5,1.2,1.2,1.2c0.4,0,0.7-0.1,0.9-0.2l0.1,0.4c-0.2,0.1-0.6,0.2-1.1,0.2
				c-1,0-1.7-0.7-1.7-1.7s0.6-1.8,1.6-1.8c1.1,0,1.4,1,1.4,1.6c0,0.1,0,0.2,0,0.3L562.7,117.8L562.7,117.8z M564.5,117.3
				c0-0.4-0.2-1-0.8-1c-0.6,0-0.9,0.6-1,1H564.5z"/>
		</g>
	</g>
</g>
<g>
	<path class="st1" d="M579.7,120.1l-1.4-5.4h0.7l0.6,2.7c0.2,0.7,0.3,1.3,0.4,1.9h0c0.1-0.5,0.3-1.2,0.4-1.9l0.7-2.7h0.7l0.7,2.7
		c0.2,0.6,0.3,1.3,0.4,1.8h0c0.1-0.6,0.3-1.2,0.4-1.9l0.7-2.7h0.7l-1.5,5.4h-0.7l-0.7-2.8c-0.2-0.7-0.3-1.2-0.3-1.8h0
		c-0.1,0.5-0.2,1.1-0.4,1.8l-0.8,2.8H579.7L579.7,120.1z"/>
	<path class="st1" d="M588.8,118.1c0,1.4-1,2.1-1.9,2.1c-1,0-1.9-0.8-1.9-2c0-1.3,0.8-2.1,1.9-2.1S588.8,116.9,588.8,118.1
		L588.8,118.1z M585.8,118.2c0,0.8,0.5,1.5,1.2,1.5s1.2-0.6,1.2-1.5c0-0.7-0.3-1.5-1.2-1.5S585.8,117.4,585.8,118.2z"/>
	<path class="st1" d="M589.7,117.4c0-0.5,0-0.8,0-1.2h0.6l0,0.8h0c0.2-0.5,0.6-0.8,1.1-0.8c0.1,0,0.1,0,0.2,0v0.7
		c-0.1,0-0.1,0-0.2,0c-0.5,0-0.8,0.4-0.9,0.9c0,0.1,0,0.2,0,0.3v2.1h-0.7V117.4L589.7,117.4z"/>
	<path class="st1" d="M593.1,118L593.1,118c0.1-0.1,0.2-0.3,0.4-0.4l1.1-1.3h0.8l-1.5,1.6l1.7,2.3h-0.9l-1.3-1.9l-0.4,0.4v1.5h-0.7
		v-5.7h0.7L593.1,118L593.1,118z"/>
	<path class="st1" d="M597,115.1c0,0.2-0.2,0.4-0.5,0.4c-0.2,0-0.4-0.2-0.4-0.4s0.2-0.4,0.4-0.4S597,114.9,597,115.1z M596.3,120.1
		v-3.9h0.7v3.9H596.3z"/>
	<path class="st1" d="M598.1,117.3c0-0.4,0-0.7,0-1.1h0.6l0,0.6h0c0.2-0.4,0.6-0.7,1.3-0.7c0.5,0,1.4,0.3,1.4,1.7v2.3h-0.7v-2.2
		c0-0.6-0.2-1.1-0.9-1.1c-0.5,0-0.8,0.3-0.9,0.7c0,0.1,0,0.2,0,0.3v2.3h-0.7L598.1,117.3L598.1,117.3z"/>
	<path class="st1" d="M605.9,116.2c0,0.3,0,0.6,0,1.1v2.2c0,0.9-0.2,1.4-0.5,1.8c-0.4,0.3-0.9,0.5-1.4,0.5s-1-0.1-1.3-0.3l0.2-0.5
		c0.3,0.2,0.7,0.3,1.1,0.3c0.7,0,1.2-0.4,1.2-1.3v-0.4h0c-0.2,0.4-0.6,0.7-1.2,0.7c-1,0-1.7-0.8-1.7-1.9c0-1.3,0.9-2.1,1.7-2.1
		c0.7,0,1,0.3,1.2,0.7h0l0-0.6L605.9,116.2L605.9,116.2z M605.2,117.8c0-0.1,0-0.2,0-0.3c-0.1-0.4-0.5-0.7-1-0.7
		c-0.7,0-1.2,0.6-1.2,1.5c0,0.8,0.4,1.4,1.1,1.4c0.4,0,0.8-0.3,1-0.7c0-0.1,0.1-0.3,0.1-0.4V117.8L605.2,117.8z"/>
	<path class="st1" d="M608.7,119.2c0.3,0.2,0.8,0.3,1.2,0.3c0.7,0,1.1-0.4,1.1-0.9c0-0.5-0.3-0.8-1-1.1c-0.9-0.3-1.4-0.8-1.4-1.5
		c0-0.8,0.7-1.5,1.7-1.5c0.5,0,1,0.1,1.2,0.3l-0.2,0.6c-0.2-0.1-0.5-0.3-1-0.3c-0.7,0-1,0.4-1,0.8c0,0.5,0.3,0.8,1.1,1
		c0.9,0.3,1.4,0.8,1.4,1.6c0,0.8-0.6,1.6-1.9,1.6c-0.5,0-1.1-0.2-1.4-0.3L608.7,119.2L608.7,119.2z"/>
	<path class="st1" d="M612.7,117.5c0-0.5,0-0.9,0-1.3h0.6l0,0.7h0c0.3-0.5,0.7-0.8,1.4-0.8c0.9,0,1.6,0.8,1.6,2
		c0,1.4-0.8,2.1-1.8,2.1c-0.5,0-1-0.2-1.2-0.6h0v2.1h-0.7V117.5z M613.4,118.5c0,0.1,0,0.2,0,0.3c0.1,0.5,0.5,0.8,1.1,0.8
		c0.7,0,1.2-0.6,1.2-1.5c0-0.8-0.4-1.4-1.2-1.4c-0.5,0-0.9,0.3-1.1,0.9c0,0.1,0,0.2,0,0.3V118.5L613.4,118.5z"/>
	<path class="st1" d="M619.4,120.1l-0.1-0.5h0c-0.2,0.3-0.6,0.6-1.2,0.6c-0.8,0-1.2-0.6-1.2-1.1c0-0.9,0.8-1.4,2.3-1.4v-0.1
		c0-0.3-0.1-0.9-0.9-0.9c-0.4,0-0.7,0.1-1,0.3l-0.2-0.5c0.3-0.2,0.8-0.3,1.3-0.3c1.2,0,1.5,0.8,1.5,1.6v1.4c0,0.3,0,0.7,0.1,0.9
		L619.4,120.1L619.4,120.1z M619.3,118.1c-0.8,0-1.6,0.1-1.6,0.9c0,0.5,0.3,0.7,0.7,0.7c0.5,0,0.8-0.3,0.9-0.7c0-0.1,0-0.2,0-0.2
		L619.3,118.1L619.3,118.1z"/>
	<path class="st1" d="M623.8,119.9c-0.2,0.1-0.6,0.2-1.1,0.2c-1.2,0-1.9-0.8-1.9-2s0.8-2.1,2.1-2.1c0.4,0,0.8,0.1,1,0.2l-0.2,0.5
		c-0.2-0.1-0.4-0.2-0.8-0.2c-0.9,0-1.4,0.7-1.4,1.5c0,0.9,0.6,1.4,1.3,1.4c0.4,0,0.7-0.1,0.9-0.2L623.8,119.9L623.8,119.9z"/>
	<path class="st1" d="M625,118.3c0,0.9,0.6,1.3,1.3,1.3c0.5,0,0.8-0.1,1.1-0.2l0.1,0.5c-0.2,0.1-0.7,0.2-1.3,0.2
		c-1.2,0-1.9-0.8-1.9-1.9s0.7-2.1,1.8-2.1c1.3,0,1.6,1.1,1.6,1.8c0,0.1,0,0.3,0,0.3L625,118.3L625,118.3z M627.1,117.8
		c0-0.4-0.2-1.1-1-1.1c-0.7,0-1,0.7-1.1,1.1H627.1L627.1,117.8z"/>
</g>
<g class="st4">
	<g>
		<g>
			<path class="st1" d="M377.6,114.7c0.3-0.1,0.7-0.1,1.2-0.1c0.6,0,1,0.1,1.3,0.4c0.3,0.2,0.4,0.6,0.4,1s-0.1,0.8-0.4,1
				c-0.3,0.3-0.9,0.5-1.4,0.5c-0.2,0-0.4,0-0.5,0v1.9h-0.6L377.6,114.7L377.6,114.7z M378.2,117c0.1,0,0.3,0.1,0.5,0.1
				c0.7,0,1.2-0.4,1.2-1s-0.4-0.9-1.1-0.9c-0.3,0-0.5,0-0.6,0.1C378.2,115.1,378.2,117,378.2,117z"/>
			<path class="st1" d="M381.1,117c0-0.4,0-0.7,0-1.1h0.5l0,0.7h0c0.1-0.5,0.5-0.7,0.9-0.7c0.1,0,0.1,0,0.2,0v0.6
				c-0.1,0-0.1,0-0.2,0c-0.4,0-0.7,0.3-0.8,0.8c0,0.1,0,0.2,0,0.3v1.8h-0.6L381.1,117L381.1,117z"/>
			<path class="st1" d="M384.2,115c0,0.2-0.1,0.4-0.4,0.4c-0.2,0-0.4-0.2-0.4-0.4s0.2-0.4,0.4-0.4S384.2,114.8,384.2,115z
				 M383.5,119.3v-3.4h0.6v3.4H383.5z"/>
			<path class="st1" d="M385.4,115.9l0.7,1.9c0.1,0.3,0.2,0.6,0.3,0.9h0c0.1-0.3,0.2-0.6,0.3-0.9l0.7-1.9h0.6l-1.3,3.4H386l-1.3-3.4
				H385.4L385.4,115.9z"/>
			<path class="st1" d="M390.3,119.3l0-0.4h0c-0.2,0.3-0.5,0.5-1,0.5c-0.7,0-1-0.5-1-1c0-0.8,0.7-1.3,2-1.3v-0.1
				c0-0.3-0.1-0.8-0.8-0.8c-0.3,0-0.6,0.1-0.9,0.2l-0.1-0.4c0.3-0.2,0.7-0.3,1.1-0.3c1,0,1.3,0.7,1.3,1.4v1.3c0,0.3,0,0.6,0.1,0.8
				L390.3,119.3L390.3,119.3z M390.2,117.6c-0.7,0-1.4,0.1-1.4,0.8c0,0.4,0.3,0.6,0.6,0.6c0.4,0,0.7-0.3,0.8-0.6c0-0.1,0-0.1,0-0.2
				L390.2,117.6L390.2,117.6z"/>
			<path class="st1" d="M392.5,115v1h0.9v0.5h-0.9v1.8c0,0.4,0.1,0.7,0.5,0.7c0.2,0,0.3,0,0.4,0l0,0.5c-0.1,0.1-0.3,0.1-0.5,0.1
				c-0.3,0-0.5-0.1-0.7-0.3c-0.2-0.2-0.2-0.5-0.2-0.9v-1.8h-0.5V116h0.5v-0.8L392.5,115L392.5,115z"/>
			<path class="st1" d="M394.4,117.8c0,0.8,0.5,1.2,1.2,1.2c0.4,0,0.7-0.1,0.9-0.2l0.1,0.4c-0.2,0.1-0.6,0.2-1.1,0.2
				c-1,0-1.7-0.7-1.7-1.7s0.6-1.8,1.6-1.8c1.1,0,1.4,1,1.4,1.6c0,0.1,0,0.2,0,0.3L394.4,117.8L394.4,117.8z M396.2,117.3
				c0-0.4-0.2-1-0.9-1c-0.6,0-0.9,0.6-1,1H396.2L396.2,117.3z"/>
			<path class="st1" d="M399.6,119.3l-1.2-4.7h0.6l0.6,2.4c0.1,0.6,0.3,1.2,0.4,1.6h0c0.1-0.5,0.2-1,0.4-1.6l0.6-2.4h0.6l0.6,2.4
				c0.1,0.6,0.3,1.1,0.3,1.6h0c0.1-0.5,0.2-1,0.4-1.6l0.6-2.4h0.6l-1.3,4.7h-0.6l-0.6-2.5c-0.1-0.6-0.2-1.1-0.3-1.5h0
				c-0.1,0.5-0.2,0.9-0.4,1.5l-0.7,2.5L399.6,119.3L399.6,119.3z"/>
			<path class="st1" d="M406.4,119.3l0-0.4h0c-0.2,0.3-0.5,0.5-1,0.5c-0.7,0-1-0.5-1-1c0-0.8,0.7-1.3,2-1.3v-0.1
				c0-0.3-0.1-0.8-0.8-0.8c-0.3,0-0.6,0.1-0.9,0.2l-0.1-0.4c0.3-0.2,0.7-0.3,1.1-0.3c1,0,1.3,0.7,1.3,1.4v1.3c0,0.3,0,0.6,0.1,0.8
				L406.4,119.3L406.4,119.3z M406.3,117.6c-0.7,0-1.4,0.1-1.4,0.8c0,0.4,0.3,0.6,0.6,0.6c0.4,0,0.7-0.3,0.8-0.6c0-0.1,0-0.1,0-0.2
				L406.3,117.6L406.3,117.6z"/>
			<path class="st1" d="M407.8,118.7c0.2,0.1,0.5,0.2,0.8,0.2c0.5,0,0.7-0.2,0.7-0.5s-0.2-0.5-0.6-0.6c-0.6-0.2-0.9-0.6-0.9-1
				c0-0.6,0.4-1,1.2-1c0.3,0,0.6,0.1,0.8,0.2l-0.1,0.4c-0.1-0.1-0.4-0.2-0.7-0.2c-0.4,0-0.6,0.2-0.6,0.5c0,0.3,0.2,0.4,0.6,0.6
				c0.6,0.2,0.9,0.5,0.9,1c0,0.6-0.5,1-1.3,1c-0.4,0-0.7-0.1-1-0.2L407.8,118.7L407.8,118.7z"/>
			<path class="st1" d="M410.7,114.4h0.6v2.1h0c0.1-0.2,0.2-0.3,0.4-0.4c0.2-0.1,0.4-0.2,0.6-0.2c0.5,0,1.2,0.3,1.2,1.4v2h-0.6v-1.9
				c0-0.6-0.2-1-0.8-1c-0.4,0-0.7,0.3-0.8,0.6c0,0.1,0,0.2,0,0.3v2h-0.6L410.7,114.4L410.7,114.4z"/>
			<path class="st1" d="M415.2,115c0,0.2-0.1,0.4-0.4,0.4c-0.2,0-0.4-0.2-0.4-0.4s0.2-0.4,0.4-0.4S415.2,114.8,415.2,115z
				 M414.5,119.3v-3.4h0.6v3.4H414.5z"/>
			<path class="st1" d="M416.2,116.9c0-0.3,0-0.6,0-0.9h0.5l0,0.6h0c0.2-0.3,0.6-0.6,1.1-0.6c0.5,0,1.2,0.3,1.2,1.4v2h-0.6v-1.9
				c0-0.6-0.2-1-0.8-1c-0.4,0-0.7,0.3-0.8,0.6c0,0.1,0,0.2,0,0.3v2h-0.6L416.2,116.9L416.2,116.9z"/>
			<path class="st1" d="M423,115.9c0,0.2,0,0.5,0,0.9v2c0,0.8-0.1,1.2-0.5,1.6c-0.3,0.3-0.8,0.4-1.2,0.4s-0.9-0.1-1.1-0.3l0.1-0.5
				c0.2,0.1,0.6,0.3,1,0.3c0.6,0,1.1-0.3,1.1-1.2v-0.4h0c-0.2,0.3-0.5,0.6-1.1,0.6c-0.8,0-1.4-0.7-1.4-1.7c0-1.2,0.8-1.8,1.5-1.8
				c0.6,0,0.9,0.3,1.1,0.6h0l0-0.5L423,115.9L423,115.9z M422.4,117.3c0-0.1,0-0.2,0-0.3c-0.1-0.4-0.4-0.7-0.9-0.7
				c-0.6,0-1,0.5-1,1.3c0,0.7,0.3,1.2,1,1.2c0.4,0,0.7-0.2,0.9-0.6c0-0.1,0-0.2,0-0.3L422.4,117.3L422.4,117.3z"/>
			<path class="st1" d="M425.4,118.6c0.3,0.2,0.7,0.3,1.1,0.3c0.6,0,1-0.3,1-0.8c0-0.4-0.2-0.7-0.9-0.9c-0.8-0.3-1.2-0.7-1.2-1.3
				c0-0.7,0.6-1.3,1.5-1.3c0.5,0,0.8,0.1,1,0.2l-0.2,0.5c-0.1-0.1-0.5-0.2-0.9-0.2c-0.6,0-0.9,0.4-0.9,0.7c0,0.4,0.3,0.7,0.9,0.9
				c0.8,0.3,1.2,0.7,1.2,1.4c0,0.7-0.5,1.4-1.6,1.4c-0.5,0-1-0.1-1.2-0.3L425.4,118.6L425.4,118.6z"/>
			<path class="st1" d="M428.9,117.1c0-0.4,0-0.8,0-1.1h0.5l0,0.6h0c0.2-0.4,0.6-0.7,1.2-0.7c0.8,0,1.4,0.7,1.4,1.7
				c0,1.2-0.7,1.8-1.5,1.8c-0.5,0-0.8-0.2-1-0.5h0v1.8h-0.6L428.9,117.1L428.9,117.1z M429.5,118c0,0.1,0,0.2,0,0.2
				c0.1,0.4,0.5,0.7,0.9,0.7c0.6,0,1-0.5,1-1.3c0-0.7-0.4-1.3-1-1.3c-0.4,0-0.8,0.3-0.9,0.8c0,0.1,0,0.2,0,0.2V118L429.5,118z"/>
			<path class="st1" d="M434.8,119.3l0-0.4h0c-0.2,0.3-0.5,0.5-1,0.5c-0.7,0-1-0.5-1-1c0-0.8,0.7-1.3,2-1.3v-0.1
				c0-0.3-0.1-0.8-0.8-0.8c-0.3,0-0.6,0.1-0.9,0.2l-0.1-0.4c0.3-0.2,0.7-0.3,1.1-0.3c1,0,1.3,0.7,1.3,1.4v1.3c0,0.3,0,0.6,0.1,0.8
				L434.8,119.3L434.8,119.3z M434.7,117.6c-0.7,0-1.4,0.1-1.4,0.8c0,0.4,0.3,0.6,0.6,0.6c0.4,0,0.7-0.3,0.8-0.6c0-0.1,0-0.1,0-0.2
				L434.7,117.6L434.7,117.6z"/>
			<path class="st1" d="M438.7,119.2c-0.2,0.1-0.5,0.2-1,0.2c-1,0-1.7-0.7-1.7-1.7s0.7-1.8,1.8-1.8c0.4,0,0.7,0.1,0.9,0.2l-0.1,0.5
				c-0.1-0.1-0.4-0.2-0.7-0.2c-0.8,0-1.2,0.6-1.2,1.3c0,0.8,0.5,1.3,1.2,1.3c0.4,0,0.6-0.1,0.8-0.2L438.7,119.2L438.7,119.2z"/>
			<path class="st1" d="M439.7,117.8c0,0.8,0.5,1.2,1.2,1.2c0.4,0,0.7-0.1,0.9-0.2l0.1,0.4c-0.2,0.1-0.6,0.2-1.1,0.2
				c-1,0-1.7-0.7-1.7-1.7s0.6-1.8,1.6-1.8c1.1,0,1.4,1,1.4,1.6c0,0.1,0,0.2,0,0.3L439.7,117.8L439.7,117.8z M441.5,117.3
				c0-0.4-0.2-1-0.9-1c-0.6,0-0.9,0.6-1,1H441.5L441.5,117.3z"/>
		</g>
	</g>
</g>
<g class="st4">
	<g>
		<g>
			<path class="st1" d="M22.6,119.3l-1.5-4.7h0.7l0.7,2.3c0.2,0.6,0.4,1.2,0.5,1.8h0c0.1-0.6,0.3-1.1,0.5-1.8l0.8-2.3H25l-1.7,4.7
				L22.6,119.3L22.6,119.3z"/>
			<path class="st1" d="M25.6,117.8c0,0.8,0.5,1.2,1.2,1.2c0.4,0,0.7-0.1,0.9-0.2l0.1,0.4c-0.2,0.1-0.6,0.2-1.1,0.2
				c-1,0-1.7-0.7-1.7-1.7s0.6-1.8,1.6-1.8c1.1,0,1.4,1,1.4,1.6c0,0.1,0,0.2,0,0.3L25.6,117.8L25.6,117.8z M27.4,117.3
				c0-0.4-0.2-1-0.9-1c-0.6,0-0.9,0.6-1,1C25.6,117.3,27.4,117.3,27.4,117.3z"/>
			<path class="st1" d="M31.1,119.2c-0.2,0.1-0.5,0.2-1,0.2c-1,0-1.7-0.7-1.7-1.7s0.7-1.8,1.8-1.8c0.4,0,0.7,0.1,0.9,0.2l-0.1,0.5
				c-0.1-0.1-0.4-0.2-0.7-0.2c-0.8,0-1.2,0.6-1.2,1.3c0,0.8,0.5,1.3,1.2,1.3c0.4,0,0.6-0.1,0.8-0.2L31.1,119.2L31.1,119.2z"/>
			<path class="st1" d="M31.9,114.4h0.6v2.1h0c0.1-0.2,0.2-0.3,0.4-0.4c0.2-0.1,0.4-0.2,0.6-0.2c0.5,0,1.2,0.3,1.2,1.4v2h-0.6v-1.9
				c0-0.6-0.2-1-0.8-1c-0.4,0-0.7,0.3-0.8,0.6c0,0.1,0,0.2,0,0.3v2h-0.6L31.9,114.4L31.9,114.4z"/>
			<path class="st1" d="M36.4,115c0,0.2-0.2,0.4-0.4,0.4c-0.2,0-0.4-0.2-0.4-0.4s0.2-0.4,0.4-0.4S36.5,114.8,36.4,115L36.4,115z
				 M35.8,119.3v-3.4h0.6v3.4H35.8z"/>
			<path class="st1" d="M39.8,119.2c-0.2,0.1-0.5,0.2-1,0.2c-1,0-1.7-0.7-1.7-1.7s0.7-1.8,1.8-1.8c0.4,0,0.7,0.1,0.8,0.2l-0.1,0.5
				c-0.2-0.1-0.4-0.2-0.7-0.2c-0.8,0-1.2,0.6-1.2,1.3c0,0.8,0.5,1.3,1.2,1.3c0.3,0,0.6-0.1,0.8-0.2L39.8,119.2L39.8,119.2z"/>
			<path class="st1" d="M40.5,114.4h0.6v5h-0.6V114.4z"/>
			<path class="st1" d="M42.5,117.8c0,0.8,0.5,1.2,1.2,1.2c0.4,0,0.7-0.1,0.9-0.2l0.1,0.4c-0.2,0.1-0.6,0.2-1.1,0.2
				c-1,0-1.7-0.7-1.7-1.7s0.6-1.8,1.6-1.8c1.1,0,1.4,1,1.4,1.6c0,0.1,0,0.2,0,0.3L42.5,117.8L42.5,117.8z M44.3,117.3
				c0-0.4-0.2-1-0.8-1c-0.6,0-0.9,0.6-1,1H44.3z"/>
			<path class="st1" d="M47.1,118.7c0.2,0.1,0.5,0.2,0.8,0.2c0.5,0,0.7-0.2,0.7-0.5s-0.2-0.5-0.6-0.6c-0.6-0.2-0.9-0.6-0.9-1
				c0-0.6,0.4-1,1.2-1c0.3,0,0.6,0.1,0.8,0.2l-0.2,0.4c-0.1-0.1-0.4-0.2-0.7-0.2c-0.4,0-0.6,0.2-0.6,0.5c0,0.3,0.2,0.4,0.6,0.6
				c0.6,0.2,0.9,0.5,0.9,1c0,0.6-0.5,1-1.3,1c-0.4,0-0.7-0.1-1-0.2L47.1,118.7L47.1,118.7z"/>
			<path class="st1" d="M49.9,117.1c0-0.4,0-0.8,0-1.1h0.5l0,0.6h0c0.2-0.4,0.7-0.7,1.2-0.7c0.8,0,1.4,0.7,1.4,1.7
				c0,1.2-0.7,1.8-1.5,1.8c-0.5,0-0.8-0.2-1-0.5h0v1.8h-0.6L49.9,117.1L49.9,117.1z M50.5,118c0,0.1,0,0.2,0,0.2
				c0.1,0.4,0.5,0.7,0.9,0.7c0.7,0,1-0.5,1-1.3c0-0.7-0.4-1.3-1-1.3c-0.4,0-0.8,0.3-0.9,0.8c0,0.1,0,0.2,0,0.2L50.5,118L50.5,118z"
				/>
			<path class="st1" d="M55.8,119.3l0-0.4h0c-0.2,0.3-0.5,0.5-1,0.5c-0.7,0-1-0.5-1-1c0-0.8,0.7-1.3,2-1.3v-0.1
				c0-0.3-0.1-0.8-0.8-0.8c-0.3,0-0.6,0.1-0.9,0.2l-0.1-0.4c0.3-0.2,0.7-0.3,1.1-0.3c1,0,1.3,0.7,1.3,1.4v1.3c0,0.3,0,0.6,0.1,0.8
				L55.8,119.3L55.8,119.3z M55.7,117.6c-0.7,0-1.4,0.1-1.4,0.8c0,0.4,0.3,0.6,0.6,0.6c0.4,0,0.7-0.3,0.8-0.6c0-0.1,0-0.1,0-0.2
				L55.7,117.6L55.7,117.6z"/>
			<path class="st1" d="M59.7,119.2c-0.2,0.1-0.5,0.2-1,0.2c-1,0-1.7-0.7-1.7-1.7s0.7-1.8,1.8-1.8c0.4,0,0.7,0.1,0.8,0.2l-0.1,0.5
				c-0.2-0.1-0.4-0.2-0.7-0.2c-0.8,0-1.2,0.6-1.2,1.3c0,0.8,0.5,1.3,1.2,1.3c0.3,0,0.6-0.1,0.8-0.2L59.7,119.2L59.7,119.2z"/>
			<path class="st1" d="M60.7,117.8c0,0.8,0.5,1.2,1.2,1.2c0.4,0,0.7-0.1,0.9-0.2l0.1,0.4c-0.2,0.1-0.6,0.2-1.1,0.2
				c-1,0-1.7-0.7-1.7-1.7s0.6-1.8,1.6-1.8c1.1,0,1.4,1,1.4,1.6c0,0.1,0,0.2,0,0.3L60.7,117.8L60.7,117.8z M62.6,117.3
				c0-0.4-0.2-1-0.8-1c-0.6,0-0.9,0.6-1,1H62.6z"/>
		</g>
	</g>
</g>
<g>
	<path class="st1" d="M237.4,119.8c-0.3,0.1-0.9,0.3-1.7,0.3c-0.8,0-1.5-0.2-2-0.7c-0.5-0.4-0.8-1.2-0.8-2c0-1.6,1.1-2.8,2.9-2.8
		c0.6,0,1.1,0.1,1.3,0.2l-0.2,0.6c-0.3-0.1-0.6-0.2-1.2-0.2c-1.3,0-2.2,0.8-2.2,2.2s0.8,2.2,2.1,2.2c0.5,0,0.8-0.1,0.9-0.1v-1.6
		h-1.1v-0.6h1.8L237.4,119.8L237.4,119.8z"/>
	<path class="st1" d="M241.7,119c0,0.4,0,0.8,0,1.1h-0.6l0-0.6h0c-0.2,0.3-0.6,0.7-1.3,0.7c-0.6,0-1.3-0.3-1.3-1.7v-2.3h0.7v2.1
		c0,0.7,0.2,1.2,0.9,1.2c0.5,0,0.8-0.3,0.9-0.6c0-0.1,0.1-0.2,0.1-0.4v-2.4h0.7L241.7,119L241.7,119z"/>
	<path class="st1" d="M243.3,118.3c0,0.9,0.6,1.3,1.3,1.3c0.5,0,0.8-0.1,1.1-0.2l0.1,0.5c-0.2,0.1-0.7,0.2-1.3,0.2
		c-1.2,0-1.9-0.8-1.9-1.9s0.7-2.1,1.8-2.1c1.3,0,1.6,1.1,1.6,1.8c0,0.1,0,0.3,0,0.3L243.3,118.3L243.3,118.3z M245.3,117.8
		c0-0.4-0.2-1.1-1-1.1c-0.7,0-1,0.7-1.1,1.1H245.3L245.3,117.8z"/>
	<path class="st1" d="M246.8,119.4c0.2,0.1,0.6,0.3,0.9,0.3c0.5,0,0.8-0.3,0.8-0.6s-0.2-0.5-0.7-0.7c-0.7-0.2-1-0.6-1-1.1
		c0-0.6,0.5-1.1,1.3-1.1c0.4,0,0.7,0.1,0.9,0.2l-0.2,0.5c-0.1-0.1-0.4-0.2-0.8-0.2c-0.4,0-0.6,0.2-0.6,0.5c0,0.3,0.2,0.5,0.7,0.7
		c0.7,0.3,1,0.6,1,1.2c0,0.7-0.5,1.2-1.4,1.2c-0.4,0-0.8-0.1-1.1-0.3L246.8,119.4L246.8,119.4z"/>
	<path class="st1" d="M250.9,115.1v1.1h1v0.5h-1v2.1c0,0.5,0.1,0.8,0.5,0.8c0.2,0,0.3,0,0.4-0.1l0,0.5c-0.1,0.1-0.4,0.1-0.6,0.1
		c-0.3,0-0.6-0.1-0.8-0.3c-0.2-0.2-0.3-0.6-0.3-1v-2.1h-0.6v-0.5h0.6v-0.9L250.9,115.1L250.9,115.1z"/>
	<path class="st1" d="M254.3,119.2c0.3,0.2,0.8,0.3,1.2,0.3c0.7,0,1.1-0.4,1.1-0.9c0-0.5-0.3-0.8-1-1.1c-0.9-0.3-1.4-0.8-1.4-1.5
		c0-0.8,0.7-1.5,1.7-1.5c0.5,0,1,0.1,1.2,0.3l-0.2,0.6c-0.2-0.1-0.5-0.3-1-0.3c-0.7,0-1,0.4-1,0.8c0,0.5,0.3,0.8,1.1,1
		c0.9,0.3,1.4,0.8,1.4,1.6c0,0.8-0.6,1.6-1.9,1.6c-0.5,0-1.1-0.2-1.4-0.3L254.3,119.2L254.3,119.2z"/>
	<path class="st1" d="M258.3,117.5c0-0.5,0-0.9,0-1.3h0.6l0,0.7h0c0.3-0.5,0.7-0.8,1.4-0.8c0.9,0,1.6,0.8,1.6,2
		c0,1.4-0.9,2.1-1.8,2.1c-0.5,0-1-0.2-1.2-0.6h0v2.1h-0.7V117.5z M259,118.5c0,0.1,0,0.2,0,0.3c0.1,0.5,0.5,0.8,1.1,0.8
		c0.7,0,1.2-0.6,1.2-1.5c0-0.8-0.4-1.4-1.1-1.4c-0.5,0-0.9,0.3-1.1,0.9c0,0.1,0,0.2,0,0.3L259,118.5L259,118.5z"/>
	<path class="st1" d="M265,120.1l-0.1-0.5h0c-0.2,0.3-0.6,0.6-1.2,0.6c-0.8,0-1.2-0.6-1.2-1.1c0-0.9,0.8-1.4,2.3-1.4v-0.1
		c0-0.3-0.1-0.9-0.9-0.9c-0.4,0-0.7,0.1-1,0.3l-0.2-0.5c0.3-0.2,0.8-0.3,1.3-0.3c1.2,0,1.5,0.8,1.5,1.6v1.4c0,0.3,0,0.7,0.1,0.9
		L265,120.1L265,120.1z M264.9,118.1c-0.8,0-1.6,0.1-1.6,0.9c0,0.5,0.3,0.7,0.7,0.7c0.5,0,0.8-0.3,0.9-0.7c0-0.1,0-0.2,0-0.2V118.1z
		"/>
	<path class="st1" d="M269.5,119.9c-0.2,0.1-0.6,0.2-1.1,0.2c-1.2,0-1.9-0.8-1.9-2s0.8-2.1,2.1-2.1c0.4,0,0.8,0.1,1,0.2l-0.2,0.5
		c-0.2-0.1-0.4-0.2-0.8-0.2c-0.9,0-1.4,0.7-1.4,1.5c0,0.9,0.6,1.4,1.3,1.4c0.4,0,0.7-0.1,0.9-0.2L269.5,119.9L269.5,119.9z"/>
	<path class="st1" d="M270.7,118.3c0,0.9,0.6,1.3,1.3,1.3c0.5,0,0.8-0.1,1.1-0.2l0.1,0.5c-0.2,0.1-0.7,0.2-1.3,0.2
		c-1.2,0-1.9-0.8-1.9-1.9s0.7-2.1,1.8-2.1c1.3,0,1.6,1.1,1.6,1.8c0,0.1,0,0.3,0,0.3L270.7,118.3L270.7,118.3z M272.7,117.8
		c0-0.4-0.2-1.1-1-1.1c-0.7,0-1,0.7-1.1,1.1H272.7L272.7,117.8z"/>
</g>
<g class="st4">
	<g>
		<g>
			<path class="st1" d="M159.6,119.2c-0.2,0.1-0.7,0.2-1.2,0.2c-1.3,0-2.3-0.8-2.3-2.4s1-2.5,2.5-2.5c0.6,0,1,0.1,1.1,0.2l-0.1,0.5
				c-0.2-0.1-0.6-0.2-0.9-0.2c-1.1,0-1.8,0.7-1.8,1.9c0,1.2,0.7,1.9,1.8,1.9c0.4,0,0.8-0.1,1-0.2L159.6,119.2L159.6,119.2z"/>
			<path class="st1" d="M163.4,117.6c0,1.2-0.9,1.8-1.7,1.8c-0.9,0-1.6-0.7-1.6-1.7c0-1.1,0.7-1.8,1.7-1.8S163.4,116.6,163.4,117.6z
				 M160.7,117.7c0,0.7,0.4,1.3,1,1.3s1-0.6,1-1.3c0-0.6-0.3-1.3-1-1.3S160.7,117,160.7,117.7z"/>
			<path class="st1" d="M164.1,116.9c0-0.3,0-0.6,0-0.9h0.5l0,0.6h0c0.2-0.3,0.5-0.6,1.1-0.6c0.5,0,0.8,0.3,1,0.7h0
				c0.1-0.2,0.2-0.3,0.4-0.4c0.2-0.2,0.4-0.2,0.8-0.2c0.4,0,1.1,0.3,1.1,1.5v2h-0.6v-1.9c0-0.7-0.2-1-0.7-1c-0.4,0-0.6,0.3-0.7,0.6
				c0,0.1-0.1,0.2-0.1,0.3v2.1h-0.6v-2c0-0.5-0.2-0.9-0.7-0.9c-0.4,0-0.7,0.3-0.8,0.6c0,0.1-0.1,0.2-0.1,0.3v2h-0.6L164.1,116.9
				L164.1,116.9z"/>
			<path class="st1" d="M170,116.9c0-0.3,0-0.6,0-0.9h0.5l0,0.6h0c0.2-0.3,0.5-0.6,1.1-0.6c0.5,0,0.8,0.3,1,0.7h0
				c0.1-0.2,0.2-0.3,0.4-0.4c0.2-0.2,0.4-0.2,0.8-0.2c0.4,0,1.1,0.3,1.1,1.5v2h-0.6v-1.9c0-0.7-0.2-1-0.7-1c-0.4,0-0.6,0.3-0.7,0.6
				c0,0.1-0.1,0.2-0.1,0.3v2.1h-0.6v-2c0-0.5-0.2-0.9-0.7-0.9c-0.4,0-0.7,0.3-0.8,0.6c0,0.1-0.1,0.2-0.1,0.3v2H170L170,116.9
				L170,116.9z"/>
			<path class="st1" d="M178.7,118.4c0,0.3,0,0.7,0,0.9h-0.6l0-0.6h0c-0.2,0.3-0.5,0.6-1.1,0.6c-0.5,0-1.2-0.3-1.2-1.5v-2h0.6v1.9
				c0,0.6,0.2,1.1,0.8,1.1c0.4,0,0.7-0.3,0.8-0.6c0-0.1,0.1-0.2,0.1-0.3v-2.1h0.6L178.7,118.4L178.7,118.4z"/>
			<path class="st1" d="M179.7,116.9c0-0.3,0-0.6,0-0.9h0.6l0,0.6h0c0.2-0.3,0.6-0.6,1.1-0.6c0.5,0,1.2,0.3,1.2,1.4v2h-0.6v-1.9
				c0-0.6-0.2-1-0.8-1c-0.4,0-0.7,0.3-0.8,0.6c0,0.1,0,0.2,0,0.3v2h-0.6L179.7,116.9L179.7,116.9z"/>
			<path class="st1" d="M185.4,119.3l-0.1-0.4h0c-0.2,0.3-0.6,0.5-1,0.5c-0.7,0-1-0.5-1-1c0-0.8,0.7-1.3,2-1.3v-0.1
				c0-0.3-0.1-0.8-0.8-0.8c-0.3,0-0.6,0.1-0.9,0.2l-0.1-0.4c0.3-0.2,0.7-0.3,1.1-0.3c1,0,1.3,0.7,1.3,1.4v1.3c0,0.3,0,0.6,0.1,0.8
				L185.4,119.3L185.4,119.3z M185.4,117.6c-0.7,0-1.4,0.1-1.4,0.8c0,0.4,0.3,0.6,0.6,0.6c0.4,0,0.7-0.3,0.8-0.6c0-0.1,0-0.1,0-0.2
				V117.6L185.4,117.6z"/>
			<path class="st1" d="M186.9,114.4h0.6v5h-0.6V114.4z"/>
			<path class="st1" d="M190.6,119.3l-1.2-4.7h0.6l0.6,2.4c0.1,0.6,0.3,1.2,0.4,1.6h0c0.1-0.5,0.2-1,0.4-1.6l0.6-2.4h0.6l0.6,2.4
				c0.1,0.6,0.3,1.1,0.3,1.6h0c0.1-0.5,0.2-1,0.4-1.6l0.6-2.4h0.6l-1.3,4.7h-0.6l-0.6-2.5c-0.1-0.6-0.2-1.1-0.3-1.5h0
				c-0.1,0.5-0.2,0.9-0.4,1.5l-0.7,2.5L190.6,119.3L190.6,119.3z"/>
			<path class="st1" d="M197.4,119.3l-0.1-0.4h0c-0.2,0.3-0.6,0.5-1,0.5c-0.7,0-1-0.5-1-1c0-0.8,0.7-1.3,2-1.3v-0.1
				c0-0.3-0.1-0.8-0.8-0.8c-0.3,0-0.6,0.1-0.9,0.2l-0.1-0.4c0.3-0.2,0.7-0.3,1.1-0.3c1,0,1.3,0.7,1.3,1.4v1.3c0,0.3,0,0.6,0.1,0.8
				L197.4,119.3L197.4,119.3z M197.3,117.6c-0.7,0-1.4,0.1-1.4,0.8c0,0.4,0.3,0.6,0.6,0.6c0.4,0,0.7-0.3,0.8-0.6c0-0.1,0-0.1,0-0.2
				V117.6L197.3,117.6z"/>
			<path class="st1" d="M198.8,118.7c0.2,0.1,0.5,0.2,0.8,0.2c0.4,0,0.7-0.2,0.7-0.5s-0.2-0.5-0.6-0.6c-0.6-0.2-0.9-0.6-0.9-1
				c0-0.6,0.4-1,1.2-1c0.3,0,0.6,0.1,0.8,0.2l-0.1,0.4c-0.1-0.1-0.4-0.2-0.7-0.2c-0.4,0-0.6,0.2-0.6,0.5c0,0.3,0.2,0.4,0.6,0.6
				c0.6,0.2,0.9,0.5,0.9,1c0,0.6-0.5,1-1.3,1c-0.4,0-0.7-0.1-0.9-0.2L198.8,118.7L198.8,118.7z"/>
			<path class="st1" d="M201.7,114.4h0.6v2.1h0c0.1-0.2,0.2-0.3,0.4-0.4c0.2-0.1,0.4-0.2,0.6-0.2c0.5,0,1.2,0.3,1.2,1.4v2h-0.6v-1.9
				c0-0.6-0.2-1-0.8-1c-0.4,0-0.7,0.3-0.8,0.6c0,0.1,0,0.2,0,0.3v2h-0.6L201.7,114.4L201.7,114.4z"/>
			<path class="st1" d="M207,118.6c0.3,0.2,0.7,0.3,1.1,0.3c0.6,0,1-0.3,1-0.8c0-0.4-0.2-0.7-0.9-0.9c-0.8-0.3-1.2-0.7-1.2-1.3
				c0-0.7,0.6-1.3,1.5-1.3c0.5,0,0.8,0.1,1,0.2l-0.2,0.5c-0.1-0.1-0.5-0.2-0.9-0.2c-0.6,0-0.9,0.4-0.9,0.7c0,0.4,0.3,0.7,0.9,0.9
				c0.8,0.3,1.2,0.7,1.2,1.4c0,0.7-0.5,1.4-1.6,1.4c-0.5,0-0.9-0.1-1.2-0.3L207,118.6L207,118.6z"/>
			<path class="st1" d="M210.5,117.1c0-0.4,0-0.8,0-1.1h0.6l0,0.6h0c0.2-0.4,0.6-0.7,1.2-0.7c0.8,0,1.4,0.7,1.4,1.7
				c0,1.2-0.7,1.8-1.5,1.8c-0.4,0-0.8-0.2-1-0.5h0v1.8h-0.6L210.5,117.1L210.5,117.1z M211.1,118c0,0.1,0,0.2,0,0.2
				c0.1,0.4,0.5,0.7,0.9,0.7c0.6,0,1-0.5,1-1.3c0-0.7-0.4-1.3-1-1.3c-0.4,0-0.8,0.3-0.9,0.8c0,0.1,0,0.2,0,0.2L211.1,118L211.1,118z
				"/>
			<path class="st1" d="M216.4,119.3l-0.1-0.4h0c-0.2,0.3-0.6,0.5-1,0.5c-0.7,0-1-0.5-1-1c0-0.8,0.7-1.3,2-1.3v-0.1
				c0-0.3-0.1-0.8-0.8-0.8c-0.3,0-0.6,0.1-0.9,0.2l-0.1-0.4c0.3-0.2,0.7-0.3,1.1-0.3c1,0,1.3,0.7,1.3,1.4v1.3c0,0.3,0,0.6,0.1,0.8
				L216.4,119.3L216.4,119.3z M216.3,117.6c-0.7,0-1.4,0.1-1.4,0.8c0,0.4,0.3,0.6,0.6,0.6c0.4,0,0.7-0.3,0.8-0.6c0-0.1,0-0.1,0-0.2
				V117.6L216.3,117.6z"/>
			<path class="st1" d="M220.3,119.2c-0.2,0.1-0.5,0.2-1,0.2c-1,0-1.7-0.7-1.7-1.7s0.7-1.8,1.8-1.8c0.4,0,0.7,0.1,0.9,0.2l-0.1,0.5
				c-0.1-0.1-0.4-0.2-0.7-0.2c-0.8,0-1.2,0.6-1.2,1.3c0,0.8,0.5,1.3,1.2,1.3c0.4,0,0.6-0.1,0.8-0.2L220.3,119.2L220.3,119.2z"/>
			<path class="st1" d="M221.3,117.8c0,0.8,0.6,1.2,1.2,1.2c0.4,0,0.7-0.1,0.9-0.2l0.1,0.4c-0.2,0.1-0.6,0.2-1.1,0.2
				c-1,0-1.7-0.7-1.7-1.7s0.6-1.8,1.6-1.8c1.1,0,1.4,1,1.4,1.6c0,0.1,0,0.2,0,0.3L221.3,117.8L221.3,117.8z M223.1,117.3
				c0-0.4-0.2-1-0.9-1c-0.6,0-0.9,0.6-0.9,1H223.1z"/>
		</g>
	</g>
</g>
<g>
	<path class="st1" d="M102.1,117.6H100v1.9h2.3v0.6h-3v-5.4h2.9v0.6H100v1.7h2.1L102.1,117.6L102.1,117.6z"/>
	<path class="st1" d="M105.3,120.1l-0.1-0.5h0c-0.2,0.3-0.6,0.6-1.2,0.6c-0.8,0-1.2-0.6-1.2-1.1c0-0.9,0.8-1.4,2.3-1.4v-0.1
		c0-0.3-0.1-0.9-0.9-0.9c-0.4,0-0.7,0.1-1,0.3l-0.2-0.5c0.3-0.2,0.8-0.3,1.3-0.3c1.2,0,1.5,0.8,1.5,1.6v1.4c0,0.3,0,0.7,0.1,0.9
		L105.3,120.1L105.3,120.1z M105.2,118.1c-0.8,0-1.6,0.1-1.6,0.9c0,0.5,0.3,0.7,0.7,0.7c0.5,0,0.8-0.3,0.9-0.7c0-0.1,0-0.2,0-0.2
		C105.3,118.8,105.3,118.1,105.2,118.1z"/>
	<path class="st1" d="M107.9,115.1v1.1h1v0.5h-1v2.1c0,0.5,0.1,0.8,0.5,0.8c0.2,0,0.3,0,0.4-0.1l0,0.5c-0.1,0.1-0.3,0.1-0.6,0.1
		c-0.3,0-0.6-0.1-0.8-0.3c-0.2-0.2-0.3-0.6-0.3-1v-2.1h-0.6v-0.5h0.6v-0.9L107.9,115.1L107.9,115.1z"/>
	<path class="st1" d="M110.5,115.1c0,0.2-0.2,0.4-0.4,0.4c-0.2,0-0.4-0.2-0.4-0.4s0.2-0.4,0.4-0.4S110.5,114.9,110.5,115.1z
		 M109.7,120.1v-3.9h0.7v3.9H109.7z"/>
	<path class="st1" d="M111.6,117.3c0-0.4,0-0.7,0-1.1h0.6l0,0.6h0c0.2-0.4,0.6-0.7,1.3-0.7c0.5,0,1.4,0.3,1.4,1.7v2.3h-0.7v-2.2
		c0-0.6-0.2-1.1-0.9-1.1c-0.5,0-0.8,0.3-0.9,0.7c0,0.1-0.1,0.2-0.1,0.3v2.3h-0.7L111.6,117.3L111.6,117.3z"/>
	<path class="st1" d="M119.3,116.2c0,0.3,0,0.6,0,1.1v2.2c0,0.9-0.2,1.4-0.6,1.8c-0.4,0.3-0.9,0.5-1.4,0.5s-1-0.1-1.3-0.3l0.2-0.5
		c0.3,0.2,0.7,0.3,1.1,0.3c0.7,0,1.2-0.4,1.2-1.3v-0.4h0c-0.2,0.4-0.6,0.7-1.2,0.7c-1,0-1.7-0.8-1.7-1.9c0-1.3,0.9-2.1,1.7-2.1
		c0.7,0,1,0.3,1.2,0.7h0l0-0.6L119.3,116.2L119.3,116.2z M118.6,117.8c0-0.1,0-0.2,0-0.3c-0.1-0.4-0.5-0.7-1-0.7
		c-0.7,0-1.2,0.6-1.2,1.5c0,0.8,0.4,1.4,1.1,1.4c0.4,0,0.8-0.3,1-0.7c0-0.1,0.1-0.3,0.1-0.4L118.6,117.8L118.6,117.8z"/>
	<path class="st1" d="M122.1,119.2c0.3,0.2,0.8,0.3,1.2,0.3c0.7,0,1.1-0.4,1.1-0.9c0-0.5-0.3-0.8-1-1.1c-0.9-0.3-1.4-0.8-1.4-1.5
		c0-0.8,0.7-1.5,1.7-1.5c0.6,0,0.9,0.1,1.2,0.3l-0.2,0.6c-0.2-0.1-0.5-0.3-1-0.3c-0.7,0-1,0.4-1,0.8c0,0.5,0.3,0.8,1.1,1
		c0.9,0.3,1.4,0.8,1.4,1.6c0,0.8-0.6,1.6-1.9,1.6c-0.5,0-1.1-0.2-1.4-0.3C121.9,119.8,122.1,119.3,122.1,119.2z"/>
	<path class="st1" d="M126.1,117.5c0-0.5,0-0.9,0-1.3h0.6l0,0.7h0c0.3-0.5,0.7-0.8,1.4-0.8c0.9,0,1.6,0.8,1.6,2
		c0,1.4-0.9,2.1-1.8,2.1c-0.5,0-1-0.2-1.2-0.6h0v2.1h-0.7V117.5z M126.8,118.5c0,0.1,0,0.2,0,0.3c0.1,0.5,0.6,0.8,1.1,0.8
		c0.7,0,1.2-0.6,1.2-1.5c0-0.8-0.4-1.4-1.2-1.4c-0.5,0-0.9,0.3-1.1,0.9c0,0.1-0.1,0.2-0.1,0.3L126.8,118.5L126.8,118.5z"/>
	<path class="st1" d="M132.8,120.1l-0.1-0.5h0c-0.2,0.3-0.6,0.6-1.2,0.6c-0.8,0-1.2-0.6-1.2-1.1c0-0.9,0.8-1.4,2.3-1.4v-0.1
		c0-0.3-0.1-0.9-0.9-0.9c-0.4,0-0.7,0.1-1,0.3l-0.2-0.5c0.3-0.2,0.8-0.3,1.3-0.3c1.2,0,1.5,0.8,1.5,1.6v1.4c0,0.3,0,0.7,0.1,0.9
		L132.8,120.1L132.8,120.1z M132.7,118.1c-0.8,0-1.6,0.1-1.6,0.9c0,0.5,0.3,0.7,0.7,0.7c0.5,0,0.8-0.3,0.9-0.7c0-0.1,0-0.2,0-0.2
		V118.1z"/>
	<path class="st1" d="M137.3,119.9c-0.2,0.1-0.6,0.2-1.1,0.2c-1.2,0-1.9-0.8-1.9-2s0.8-2.1,2.1-2.1c0.4,0,0.8,0.1,1,0.2l-0.2,0.5
		c-0.2-0.1-0.4-0.2-0.8-0.2c-0.9,0-1.4,0.7-1.4,1.5c0,0.9,0.6,1.4,1.3,1.4c0.4,0,0.7-0.1,0.9-0.2L137.3,119.9L137.3,119.9z"/>
	<path class="st1" d="M138.4,118.3c0,0.9,0.6,1.3,1.3,1.3c0.5,0,0.8-0.1,1.1-0.2l0.1,0.5c-0.2,0.1-0.7,0.2-1.3,0.2
		c-1.2,0-1.9-0.8-1.9-1.9s0.7-2.1,1.8-2.1c1.3,0,1.6,1.1,1.6,1.8c0,0.1,0,0.3,0,0.3L138.4,118.3L138.4,118.3z M140.5,117.8
		c0-0.4-0.2-1.1-1-1.1c-0.7,0-1,0.7-1.1,1.1H140.5L140.5,117.8z"/>
</g>
<path class="st1" d="M78.1,86L78.1,86l-0.9,0.5L77,85.9l1.1-0.6h0.6v5.2h-0.7C78.1,90.5,78.1,86,78.1,86z"/>
<path class="st1" d="M187.5,90.5v-0.4l0.6-0.5c1.3-1.3,1.9-1.9,1.9-2.7c0-0.5-0.3-1-1-1c-0.5,0-0.9,0.2-1.1,0.4l-0.2-0.5
	c0.4-0.3,0.9-0.5,1.5-0.5c1.1,0,1.6,0.8,1.6,1.5c0,1-0.7,1.7-1.8,2.8l-0.4,0.4v0h2.3v0.6L187.5,90.5L187.5,90.5z"/>
<path class="st1" d="M253.8,89.7c0.2,0.1,0.7,0.3,1.1,0.3c0.9,0,1.2-0.6,1.2-1c0-0.7-0.7-1-1.3-1h-0.4v-0.5h0.4
	c0.5,0,1.2-0.3,1.2-0.9c0-0.4-0.3-0.8-0.9-0.8c-0.4,0-0.8,0.2-1,0.3l-0.2-0.5c0.3-0.2,0.8-0.4,1.4-0.4c1,0,1.5,0.6,1.5,1.2
	c0,0.5-0.3,1-1,1.2v0c0.6,0.1,1.2,0.6,1.2,1.3c0,0.8-0.6,1.6-1.9,1.6c-0.6,0-1.1-0.2-1.4-0.3L253.8,89.7L253.8,89.7z"/>
<path class="st1" d="M314.5,90.5v-1.4h-2.4v-0.5l2.3-3.3h0.8v3.2h0.7v0.6h-0.7v1.4L314.5,90.5L314.5,90.5z M314.5,88.6v-1.7
	c0-0.3,0-0.5,0-0.8h0c-0.2,0.3-0.3,0.5-0.4,0.8l-1.3,1.8v0L314.5,88.6L314.5,88.6z"/>
<path class="st1" d="M412.8,90.5c0-0.3,0-0.7,0-1v-4.7h0.7v2.4h0c0.2-0.4,0.7-0.7,1.3-0.7c1,0,1.6,0.8,1.6,2c0,1.4-0.9,2.1-1.7,2.1
	c-0.6,0-1-0.2-1.3-0.7h0l0,0.6H412.8L412.8,90.5z M413.5,89c0,0.1,0,0.2,0,0.3c0.1,0.5,0.5,0.8,1,0.8c0.7,0,1.2-0.6,1.2-1.5
	c0-0.8-0.4-1.4-1.1-1.4c-0.5,0-0.9,0.3-1.1,0.9c0,0.1,0,0.2,0,0.3L413.5,89L413.5,89z"/>
<path class="st1" d="M409,85.9h-2l-0.2,1.3c0.1,0,0.2,0,0.4,0c0.4,0,0.8,0.1,1.1,0.3c0.4,0.2,0.7,0.7,0.7,1.3c0,1-0.8,1.8-1.9,1.8
	c-0.6,0-1-0.2-1.3-0.3l0.2-0.5c0.2,0.1,0.6,0.3,1.1,0.3c0.7,0,1.2-0.4,1.2-1.1c0-0.7-0.5-1.2-1.5-1.2c-0.3,0-0.5,0-0.7,0.1l0.3-2.5
	h2.5L409,85.9L409,85.9z"/>
<path class="st1" d="M482.9,85.8c-0.1,0-0.3,0-0.5,0c-1.1,0.2-1.7,1-1.8,1.8h0c0.2-0.3,0.7-0.6,1.2-0.6c0.9,0,1.6,0.7,1.6,1.7
	c0,0.9-0.6,1.8-1.7,1.8s-1.8-0.9-1.8-2.2c0-1,0.4-1.8,0.9-2.3c0.4-0.4,1-0.7,1.7-0.8c0.2,0,0.4,0,0.5,0L482.9,85.8L482.9,85.8z
	 M482.7,88.8c0-0.7-0.4-1.2-1.1-1.2c-0.4,0-0.8,0.3-1,0.6c0,0.1-0.1,0.2-0.1,0.3c0,0.9,0.4,1.5,1.1,1.5
	C482.3,90.1,482.7,89.6,482.7,88.8z"/>
<path class="st1" d="M545.1,85.3v0.5l-2.3,4.7h-0.7l2.2-4.6v0h-2.5v-0.6L545.1,85.3L545.1,85.3z"/>
<path class="st1" d="M629.5,90.4c-0.2,0.1-0.6,0.2-1.1,0.2c-1.2,0-1.9-0.8-1.9-2s0.8-2.1,2.1-2.1c0.4,0,0.8,0.1,1,0.2l-0.2,0.5
	c-0.2-0.1-0.4-0.2-0.8-0.2c-0.9,0-1.4,0.7-1.4,1.5c0,0.9,0.6,1.4,1.3,1.4c0.4,0,0.7-0.1,0.9-0.2L629.5,90.4L629.5,90.4z"/>
<path class="st1" d="M633.2,90c0.2,0,0.3,0,0.6,0c0.4-0.1,0.8-0.2,1.1-0.5c0.3-0.3,0.6-0.8,0.7-1.4h0c-0.3,0.3-0.7,0.6-1.2,0.6
	c-0.9,0-1.5-0.7-1.5-1.6c0-1,0.7-1.8,1.8-1.8s1.7,0.9,1.7,2.2c0,1.1-0.4,1.9-0.9,2.4c-0.4,0.4-1,0.6-1.5,0.7c-0.3,0-0.5,0.1-0.7,0
	L633.2,90L633.2,90z M633.5,87.1c0,0.7,0.4,1.1,1,1.1c0.5,0,0.8-0.2,1-0.5c0-0.1,0.1-0.1,0.1-0.3c0-0.9-0.3-1.6-1.1-1.6
	C633.9,85.8,633.5,86.3,633.5,87.1L633.5,87.1z"/>
<path class="st1" d="M619.5,89.2c0-0.7,0.4-1.1,1-1.4v0c-0.6-0.3-0.8-0.7-0.8-1.2c0-0.8,0.7-1.4,1.6-1.4c1,0,1.5,0.6,1.5,1.3
	c0,0.4-0.2,0.9-0.9,1.2v0c0.7,0.3,1,0.7,1,1.3c0,0.9-0.8,1.5-1.8,1.5C620.1,90.6,619.5,90,619.5,89.2z M622.3,89.2
	c0-0.6-0.4-0.9-1.1-1.1c-0.6,0.2-0.9,0.6-0.9,1.1c0,0.5,0.4,1,1,1S622.3,89.7,622.3,89.2L622.3,89.2z M620.3,86.6c0,0.5,0.4,0.8,1,1
	c0.5-0.2,0.8-0.5,0.8-0.9c0-0.4-0.2-0.8-0.9-0.8C620.6,85.8,620.3,86.1,620.3,86.6L620.3,86.6z"/>
<path class="st1" d="M85.6,90.5L85.5,90h0c-0.2,0.3-0.6,0.6-1.2,0.6c-0.8,0-1.2-0.6-1.2-1.1c0-0.9,0.8-1.4,2.3-1.4V88
	c0-0.3-0.1-0.9-0.9-0.9c-0.4,0-0.7,0.1-1,0.3l-0.2-0.5c0.3-0.2,0.8-0.3,1.3-0.3c1.2,0,1.5,0.8,1.5,1.6v1.4c0,0.3,0,0.7,0.1,0.9
	L85.6,90.5L85.6,90.5z M85.5,88.6c-0.8,0-1.6,0.1-1.6,0.9c0,0.5,0.3,0.7,0.7,0.7c0.5,0,0.8-0.3,0.9-0.7c0-0.1,0-0.2,0-0.2
	C85.5,89.2,85.5,88.6,85.5,88.6z"/>
<g>
	<path class="st1" d="M293.2,119.9c-0.3,0.1-0.8,0.3-1.4,0.3c-1.5,0-2.7-1-2.7-2.7s1.1-2.8,2.8-2.8c0.7,0,1.1,0.1,1.3,0.2l-0.2,0.6
		c-0.3-0.1-0.6-0.2-1.1-0.2c-1.3,0-2.1,0.8-2.1,2.2c0,1.3,0.8,2.2,2.1,2.2c0.4,0,0.9-0.1,1.1-0.2L293.2,119.9L293.2,119.9z"/>
	<path class="st1" d="M297.5,118.1c0,1.4-1,2.1-1.9,2.1c-1,0-1.9-0.8-1.9-2c0-1.3,0.9-2.1,1.9-2.1S297.5,116.9,297.5,118.1z
		 M294.4,118.2c0,0.8,0.5,1.5,1.2,1.5s1.2-0.6,1.2-1.5c0-0.7-0.3-1.5-1.2-1.5S294.4,117.4,294.4,118.2L294.4,118.2z"/>
	<path class="st1" d="M301.9,118.1c0,1.4-1,2.1-1.9,2.1c-1,0-1.9-0.8-1.9-2c0-1.3,0.9-2.1,1.9-2.1S301.9,116.9,301.9,118.1z
		 M298.8,118.2c0,0.8,0.5,1.5,1.2,1.5s1.2-0.6,1.2-1.5c0-0.7-0.3-1.5-1.2-1.5S298.8,117.4,298.8,118.2L298.8,118.2z"/>
	<path class="st1" d="M303.5,118L303.5,118c0.1-0.1,0.2-0.3,0.4-0.4l1.1-1.3h0.9l-1.5,1.6l1.7,2.3h-0.9l-1.3-1.9l-0.4,0.4v1.5h-0.7
		v-5.7h0.7L303.5,118L303.5,118z"/>
	<path class="st1" d="M307.4,115.1c0,0.2-0.2,0.4-0.5,0.4c-0.2,0-0.4-0.2-0.4-0.4s0.2-0.4,0.4-0.4S307.4,114.9,307.4,115.1
		L307.4,115.1z M306.7,120.1v-3.9h0.7v3.9H306.7z"/>
	<path class="st1" d="M308.5,117.3c0-0.4,0-0.7,0-1.1h0.6l0,0.6h0c0.2-0.4,0.6-0.7,1.3-0.7c0.5,0,1.4,0.3,1.4,1.7v2.3h-0.7v-2.2
		c0-0.6-0.2-1.1-0.9-1.1c-0.5,0-0.8,0.3-0.9,0.7c0,0.1,0,0.2,0,0.3v2.3h-0.7L308.5,117.3L308.5,117.3z"/>
	<path class="st1" d="M316.3,116.2c0,0.3,0,0.6,0,1.1v2.2c0,0.9-0.2,1.4-0.5,1.8c-0.4,0.3-0.9,0.5-1.4,0.5s-1-0.1-1.3-0.3l0.2-0.5
		c0.3,0.2,0.7,0.3,1.1,0.3c0.7,0,1.2-0.4,1.2-1.3v-0.4h0c-0.2,0.4-0.6,0.7-1.2,0.7c-1,0-1.6-0.8-1.6-1.9c0-1.3,0.9-2.1,1.7-2.1
		c0.7,0,1,0.3,1.2,0.7h0l0-0.6L316.3,116.2L316.3,116.2z M315.6,117.8c0-0.1,0-0.2,0-0.3c-0.1-0.4-0.5-0.7-1-0.7
		c-0.7,0-1.1,0.6-1.1,1.5c0,0.8,0.4,1.4,1.1,1.4c0.4,0,0.8-0.3,1-0.7c0-0.1,0.1-0.3,0.1-0.4L315.6,117.8L315.6,117.8z"/>
	<path class="st1" d="M319.1,119.2c0.3,0.2,0.8,0.3,1.2,0.3c0.7,0,1.1-0.4,1.1-0.9c0-0.5-0.3-0.8-1-1.1c-0.9-0.3-1.4-0.8-1.4-1.5
		c0-0.8,0.7-1.5,1.7-1.5c0.5,0,1,0.1,1.2,0.3l-0.2,0.6c-0.2-0.1-0.5-0.3-1-0.3c-0.7,0-1,0.4-1,0.8c0,0.5,0.3,0.8,1.1,1
		c0.9,0.3,1.4,0.8,1.4,1.6c0,0.8-0.6,1.6-1.9,1.6c-0.5,0-1.1-0.2-1.4-0.3C318.9,119.8,319.1,119.3,319.1,119.2z"/>
	<path class="st1" d="M323.1,117.5c0-0.5,0-0.9,0-1.3h0.6l0,0.7h0c0.3-0.5,0.7-0.8,1.4-0.8c0.9,0,1.6,0.8,1.6,2
		c0,1.4-0.9,2.1-1.8,2.1c-0.5,0-1-0.2-1.2-0.6h0v2.1h-0.7V117.5z M323.8,118.5c0,0.1,0,0.2,0,0.3c0.1,0.5,0.5,0.8,1.1,0.8
		c0.7,0,1.2-0.6,1.2-1.5c0-0.8-0.4-1.4-1.1-1.4c-0.5,0-0.9,0.3-1.1,0.9c0,0.1,0,0.2,0,0.3L323.8,118.5L323.8,118.5z"/>
	<path class="st1" d="M329.8,120.1l-0.1-0.5h0c-0.2,0.3-0.6,0.6-1.2,0.6c-0.8,0-1.2-0.6-1.2-1.1c0-0.9,0.8-1.4,2.3-1.4v-0.1
		c0-0.3-0.1-0.9-0.9-0.9c-0.4,0-0.7,0.1-1,0.3l-0.2-0.5c0.3-0.2,0.8-0.3,1.3-0.3c1.2,0,1.5,0.8,1.5,1.6v1.4c0,0.3,0,0.7,0.1,0.9
		L329.8,120.1L329.8,120.1z M329.7,118.1c-0.8,0-1.6,0.1-1.6,0.9c0,0.5,0.3,0.7,0.7,0.7c0.5,0,0.8-0.3,0.9-0.7c0-0.1,0-0.2,0-0.2
		V118.1z"/>
	<path class="st1" d="M334.2,119.9c-0.2,0.1-0.6,0.2-1.1,0.2c-1.2,0-1.9-0.8-1.9-2s0.8-2.1,2.1-2.1c0.4,0,0.8,0.1,1,0.2l-0.2,0.5
		c-0.2-0.1-0.4-0.2-0.8-0.2c-0.9,0-1.4,0.7-1.4,1.5c0,0.9,0.6,1.4,1.3,1.4c0.4,0,0.7-0.1,0.9-0.2L334.2,119.9L334.2,119.9z"/>
	<path class="st1" d="M335.4,118.3c0,0.9,0.6,1.3,1.3,1.3c0.5,0,0.8-0.1,1.1-0.2l0.1,0.5c-0.2,0.1-0.7,0.2-1.3,0.2
		c-1.2,0-1.9-0.8-1.9-1.9s0.7-2.1,1.8-2.1c1.3,0,1.6,1.1,1.6,1.8c0,0.1,0,0.3,0,0.3L335.4,118.3L335.4,118.3z M337.5,117.8
		c0-0.4-0.2-1.1-1-1.1c-0.7,0-1,0.7-1.1,1.1H337.5L337.5,117.8z"/>
</g>
<line class="st3" x1="354.6" y1="50.5" x2="354.6" y2="136.9"/>
<line class="st3" x1="365.7" y1="50.5" x2="365.7" y2="136.9"/>
<g>
	<path class="st1" d="M346.3,63.9v-2.2h0.4v1.7h1.3v-1.5h0.4v1.5h1.8v0.5L346.3,63.9L346.3,63.9z"/>
	<path class="st1" d="M348.3,57.5c1.4,0,2.1,0.8,2.1,1.9s-0.8,1.8-2,1.8s-2.1-0.8-2.1-1.9S347.1,57.5,348.3,57.5L348.3,57.5z
		 M348.4,60.7c0.9,0,1.6-0.5,1.6-1.3s-0.8-1.3-1.7-1.3c-0.8,0-1.6,0.4-1.6,1.3S347.5,60.7,348.4,60.7z"/>
	<path class="st1" d="M346.3,56.8v-0.5h3.6v-1.7h0.4v2.2H346.3z"/>
	<path class="st1" d="M346.4,54c0-0.3-0.1-0.7-0.1-1.1c0-0.8,0.2-1.3,0.5-1.6s0.8-0.6,1.5-0.6s1.2,0.2,1.6,0.6
		c0.4,0.4,0.6,1,0.6,1.8c0,0.4,0,0.7,0,1L346.4,54L346.4,54z M349.9,53.5c0-0.1,0-0.3,0-0.5c0-1.1-0.6-1.7-1.7-1.7
		c-1,0-1.6,0.5-1.6,1.6c0,0.3,0,0.5,0,0.6H349.9z"/>
</g>
<g>
	<path class="st1" d="M621,3.7c0.2,0,0.6-0.1,1-0.1c0.5,0,0.9,0.1,1.1,0.3c0.2,0.2,0.3,0.5,0.3,0.9s-0.1,0.7-0.3,0.9
		c-0.3,0.3-0.7,0.4-1.2,0.4c-0.2,0-0.3,0-0.4,0v1.6H621L621,3.7L621,3.7z M621.6,5.6c0.1,0,0.3,0,0.4,0c0.6,0,1-0.3,1-0.9
		S622.6,4,622,4c-0.2,0-0.4,0-0.5,0V5.6z"/>
	<path class="st1" d="M624.9,6.4l-0.4,1.3h-0.5l1.4-4h0.6l1.4,4h-0.6l-0.4-1.3H624.9L624.9,6.4z M626.2,6l-0.4-1.2
		c-0.1-0.3-0.2-0.5-0.2-0.7h0c-0.1,0.2-0.1,0.5-0.2,0.7L625,6H626.2L626.2,6z"/>
	<path class="st1" d="M628.4,3.6v4h-0.5v-4H628.4z"/>
	<path class="st1" d="M629.3,7.7v-4h0.6l1.3,2c0.3,0.5,0.5,0.9,0.7,1.3h0c0-0.6-0.1-1-0.1-1.7V3.6h0.5v4.1h-0.5l-1.3-2.1
		c-0.3-0.4-0.5-0.9-0.8-1.3h0c0,0.5,0,1,0,1.7v1.7H629.3L629.3,7.7z"/>
	<path class="st1" d="M634.5,3.7c0.2,0,0.6-0.1,1-0.1c0.5,0,0.9,0.1,1.1,0.3c0.2,0.2,0.3,0.5,0.3,0.9s-0.1,0.7-0.3,0.9
		c-0.3,0.3-0.7,0.4-1.2,0.4c-0.2,0-0.3,0-0.4,0v1.6h-0.5L634.5,3.7L634.5,3.7z M635.1,5.6c0.1,0,0.3,0,0.4,0c0.6,0,1-0.3,1-0.9
		s-0.4-0.8-1-0.8c-0.2,0-0.4,0-0.5,0V5.6z"/>
	<path class="st1" d="M641.2,5.6c0,1.4-0.8,2.1-1.9,2.1s-1.8-0.8-1.8-2c0-1.3,0.8-2.1,1.9-2.1S641.2,4.4,641.2,5.6z M638.1,5.7
		c0,0.9,0.5,1.6,1.3,1.6s1.3-0.8,1.3-1.7c0-0.8-0.4-1.6-1.3-1.6S638.1,4.8,638.1,5.7L638.1,5.7z"/>
	<path class="st1" d="M642.4,3.6v4h-0.5v-4H642.4z"/>
	<path class="st1" d="M643.3,7.7v-4h0.6l1.3,2c0.3,0.5,0.5,0.9,0.7,1.3h0c0-0.6-0.1-1-0.1-1.7V3.6h0.5v4.1h-0.5l-1.3-2.1
		c-0.3-0.4-0.5-0.9-0.8-1.3h0c0,0.5,0,1,0,1.7v1.7H643.3L643.3,7.7z"/>
	<path class="st1" d="M648,4.1h-1.2V3.6h3v0.4h-1.2v3.6H648L648,4.1L648,4.1z"/>
	<path class="st1" d="M650.2,7c0.2,0.1,0.6,0.3,0.9,0.3c0.5,0,0.8-0.3,0.8-0.7c0-0.4-0.2-0.6-0.8-0.8c-0.7-0.2-1.1-0.6-1.1-1.2
		c0-0.6,0.5-1.1,1.3-1.1c0.4,0,0.7,0.1,0.9,0.2l-0.1,0.4c-0.1-0.1-0.4-0.2-0.8-0.2c-0.5,0-0.8,0.3-0.8,0.6c0,0.4,0.2,0.6,0.8,0.8
		c0.7,0.3,1,0.6,1,1.2c0,0.6-0.5,1.2-1.4,1.2c-0.4,0-0.8-0.1-1-0.3L650.2,7L650.2,7z"/>
</g>
<g>
	<path class="st1" d="M621.8,18.1h-1.2v-0.4h3v0.4h-1.2v3.6h-0.5L621.8,18.1L621.8,18.1z"/>
	<path class="st1" d="M627.5,19.6c0,1.4-0.8,2.1-1.9,2.1s-1.8-0.8-1.8-2c0-1.3,0.8-2.1,1.9-2.1S627.5,18.4,627.5,19.6z M624.3,19.7
		c0,0.9,0.5,1.6,1.3,1.6s1.3-0.8,1.3-1.7c0-0.8-0.4-1.6-1.3-1.6S624.3,18.8,624.3,19.7L624.3,19.7z"/>
	<path class="st1" d="M628.7,17.6V20c0,0.9,0.4,1.3,0.9,1.3c0.6,0,1-0.4,1-1.3v-2.4h0.5V20c0,1.2-0.7,1.8-1.5,1.8
		c-0.8,0-1.5-0.5-1.5-1.7v-2.4C628.1,17.6,628.7,17.6,628.7,17.6z"/>
	<path class="st1" d="M634.9,21.5c-0.2,0.1-0.6,0.2-1.1,0.2c-1.1,0-2-0.7-2-2s0.9-2.1,2.1-2.1c0.5,0,0.8,0.1,1,0.2l-0.1,0.4
		c-0.2-0.1-0.5-0.2-0.8-0.2c-1,0-1.6,0.6-1.6,1.7c0,1,0.6,1.6,1.5,1.6c0.3,0,0.6-0.1,0.8-0.2L634.9,21.5L634.9,21.5z"/>
	<path class="st1" d="M636,17.6v1.7h2v-1.7h0.5v4H638v-1.9h-2v1.9h-0.5v-4C635.5,17.6,636,17.6,636,17.6z"/>
	<path class="st1" d="M639.4,17.7c0.2,0,0.6-0.1,1-0.1c0.5,0,0.9,0.1,1.1,0.3c0.2,0.2,0.3,0.5,0.3,0.9s-0.1,0.6-0.3,0.9
		c-0.3,0.3-0.7,0.4-1.2,0.4c-0.2,0-0.3,0-0.4,0v1.6h-0.5L639.4,17.7L639.4,17.7z M640,19.6c0.1,0,0.3,0,0.4,0c0.6,0,1-0.3,1-0.9
		s-0.4-0.8-1-0.8c-0.2,0-0.4,0-0.5,0V19.6z"/>
	<path class="st1" d="M646.1,19.6c0,1.4-0.8,2.1-1.9,2.1s-1.8-0.8-1.8-2c0-1.3,0.8-2.1,1.9-2.1S646.1,18.4,646.1,19.6z M642.9,19.7
		c0,0.9,0.5,1.6,1.3,1.6s1.3-0.8,1.3-1.7c0-0.8-0.4-1.6-1.3-1.6S642.9,18.8,642.9,19.7L642.9,19.7z"/>
	<path class="st1" d="M647.3,17.6v4h-0.5v-4C646.8,17.6,647.3,17.6,647.3,17.6z"/>
	<path class="st1" d="M648.2,21.7v-4h0.6l1.3,2c0.3,0.5,0.5,0.9,0.7,1.3h0c0-0.5-0.1-1-0.1-1.7v-1.7h0.5v4h-0.5l-1.3-2
		c-0.3-0.5-0.5-0.9-0.8-1.4h0c0,0.5,0,1,0,1.7v1.7L648.2,21.7L648.2,21.7z"/>
	<path class="st1" d="M652.9,18.1h-1.2v-0.4h3v0.4h-1.2v3.6h-0.5L652.9,18.1L652.9,18.1z"/>
	<path class="st1" d="M655,21c0.2,0.1,0.6,0.3,0.9,0.3c0.5,0,0.8-0.3,0.8-0.7c0-0.4-0.2-0.6-0.8-0.8c-0.7-0.2-1.1-0.6-1.1-1.1
		c0-0.6,0.5-1.1,1.3-1.1c0.4,0,0.7,0.1,0.9,0.2l-0.1,0.4c-0.1-0.1-0.4-0.2-0.8-0.2c-0.5,0-0.8,0.3-0.8,0.6c0,0.4,0.2,0.6,0.8,0.8
		c0.7,0.3,1,0.6,1,1.2c0,0.6-0.5,1.2-1.4,1.2c-0.4,0-0.8-0.1-1-0.3L655,21L655,21z"/>
</g>
<path class="st0" d="M601.3,11.3c3.1,0,5.7-2.5,5.7-5.7S604.4,0,601.3,0s-5.7,2.5-5.7,5.7S598.1,11.3,601.3,11.3"/>
<path class="st5" d="M601.3,25.5c3.1,0,5.7-2.5,5.7-5.7s-2.5-5.7-5.7-5.7s-5.7,2.5-5.7,5.7S598.1,25.5,601.3,25.5z"/>
<path class="st5" d="M78.2,106.6c3.1,0,5.7-2.5,5.7-5.7s-2.5-5.7-5.7-5.7s-5.7,2.5-5.7,5.7S75.1,106.6,78.2,106.6z"/>
<path class="st5" d="M189.1,106.6c3.1,0,5.7-2.5,5.7-5.7s-2.5-5.7-5.7-5.7s-5.7,2.5-5.7,5.7S185.9,106.6,189.1,106.6z"/>
<path class="st5" d="M254.9,106.6c3.1,0,5.7-2.5,5.7-5.7s-2.5-5.7-5.7-5.7s-5.7,2.5-5.7,5.7S251.8,106.6,254.9,106.6L254.9,106.6z"
	/>
<path class="st5" d="M481.8,106.6c3.1,0,5.7-2.5,5.7-5.7s-2.5-5.7-5.7-5.7s-5.7,2.5-5.7,5.7S478.7,106.6,481.8,106.6z"/>
<path class="st5" d="M543.4,106.6c3.1,0,5.7-2.5,5.7-5.7s-2.5-5.7-5.7-5.7s-5.7,2.5-5.7,5.7S540.3,106.6,543.4,106.6z"/>
<path class="st5" d="M622.1,106.6c3.1,0,5.7-2.5,5.7-5.7s-2.5-5.7-5.7-5.7s-5.7,2.5-5.7,5.7S619,106.6,622.1,106.6z"/>
<path class="st5" d="M633.4,106.6c3.1,0,5.7-2.5,5.7-5.7s-2.5-5.7-5.7-5.7s-5.7,2.5-5.7,5.7S630.3,106.6,633.4,106.6z"/>
<path class="st5" d="M314.3,106.6c3.1,0,5.7-2.5,5.7-5.7s-2.5-5.7-5.7-5.7s-5.7,2.5-5.7,5.7S311.2,106.6,314.3,106.6z"/>
</svg>
