<?xml version="1.0" encoding="utf-8"?>
<!-- Generator: Adobe Illustrator 26.2.1, SVG Export Plug-In . SVG Version: 6.00 Build 0)  -->
<svg version="1.1" id="Layer_1" xmlns="http://www.w3.org/2000/svg" xmlns:xlink="http://www.w3.org/1999/xlink" x="0px" y="0px"
	 viewBox="0 0 791 473.3" style="enable-background:new 0 0 791 473.3;" xml:space="preserve">
<style type="text/css">
	.st0{fill:#C1D82F;}
	.st1{fill:none;stroke:#FFFFFF;stroke-width:0.25;}
	.st2{opacity:0.3;}
	.st3{fill:#FFFFFF;}
	.st4{opacity:5.000000e-02;}
	.st5{fill:none;stroke:#FFFFFF;stroke-width:0.1;}
	.st6{fill:none;stroke:#FFFFFF;stroke-width:2.000000e-02;}
	.st7{fill:none;stroke:#FFFFFF;stroke-width:4.000000e-02;}
	.st8{fill:none;stroke:#FFFFFF;stroke-width:8.000000e-02;}
	.st9{fill:none;stroke:#FFFFFF;stroke-width:3.000000e-02;}
	.st10{fill:none;}
	.st11{fill:none;stroke:#FFFFFF;stroke-width:1.000000e-02;stroke-miterlimit:4;}
	.st12{fill:none;stroke:#FFFFFF;stroke-width:1.000000e-02;}
	.st13{display:none;opacity:5.000000e-02;}
	.st14{display:inline;}
	.st15{fill:none;stroke:#FFFFFF;stroke-width:0.75;}
	.st16{opacity:0.5;}
	.st17{fill:none;stroke:#FFFFFF;stroke-width:0.25;stroke-linecap:round;stroke-linejoin:round;stroke-dasharray:0,0,0,0.5;}
	.st18{fill:none;stroke:#FFFFFF;stroke-width:0.25;stroke-linecap:round;stroke-linejoin:round;}
</style>
<rect x="663" y="47.8" class="st0" width="11.3" height="11.3"/>
<rect x="118.4" y="154.8" class="st0" width="16.8" height="5"/>
<rect x="118.4" y="270.2" class="st0" width="16.8" height="5"/>
<rect x="154.3" y="154.8" class="st0" width="4.2" height="5"/>
<rect x="154.3" y="270.2" class="st0" width="4.2" height="5"/>
<rect x="500.9" y="154.8" class="st0" width="4.2" height="5"/>
<rect x="530.4" y="270.2" class="st0" width="4.2" height="5"/>
<rect x="271.1" y="385.8" class="st0" width="20.1" height="5"/>
<rect x="323" y="385.8" class="st0" width="11.2" height="5"/>
<rect x="414" y="385.8" class="st0" width="28" height="5"/>
<rect x="289.7" y="154.8" class="st0" width="3.1" height="5"/>
<rect x="517.6" y="154.8" class="st0" width="44.6" height="5"/>
<rect x="544.6" y="270.2" class="st0" width="44.6" height="5"/>
<rect x="620.6" y="270.2" class="st0" width="4.7" height="5"/>
<line class="st1" x1="9" y1="157" x2="750.1" y2="157"/>
<polyline class="st1" points="746.9,154.1 750.1,157 746.9,160 "/>
<g class="st2">
	<g>
		<path class="st3" d="M675.2,215.9L675.2,215.9l-0.9,0.5l-0.1-0.5l1.1-0.6h0.6v5.2h-0.7L675.2,215.9L675.2,215.9z"/>
	</g>
</g>
<g class="st2">
	<g>
		<path class="st3" d="M698.7,220.5v-0.4l0.5-0.5c1.3-1.3,1.9-1.9,1.9-2.7c0-0.5-0.3-1-1-1c-0.5,0-0.9,0.2-1.1,0.4l-0.2-0.5
			c0.4-0.3,0.9-0.5,1.5-0.5c1.1,0,1.6,0.8,1.6,1.5c0,1-0.7,1.7-1.8,2.8l-0.4,0.4v0h2.3v0.6L698.7,220.5L698.7,220.5z"/>
	</g>
</g>
<g class="st2">
	<g>
		<path class="st3" d="M37.9,219.7c0.2,0.1,0.7,0.3,1.2,0.3c0.9,0,1.2-0.6,1.2-1c0-0.7-0.7-1-1.3-1h-0.4v-0.5h0.4
			c0.5,0,1.2-0.3,1.2-0.9c0-0.4-0.3-0.8-0.9-0.8c-0.4,0-0.8,0.2-1,0.3l-0.2-0.5c0.3-0.2,0.8-0.4,1.4-0.4c1,0,1.5,0.6,1.5,1.2
			c0,0.5-0.3,1-1,1.2v0c0.6,0.1,1.2,0.6,1.2,1.3c0,0.8-0.7,1.6-1.9,1.6c-0.6,0-1.1-0.2-1.3-0.4L37.9,219.7L37.9,219.7z"/>
	</g>
</g>
<g class="st2">
	<g>
		<path class="st3" d="M66.6,220.5v-1.4h-2.4v-0.5l2.3-3.3h0.8v3.2H68v0.6h-0.7v1.4L66.6,220.5L66.6,220.5z M66.6,218.5v-1.7
			c0-0.3,0-0.5,0-0.8h0c-0.2,0.3-0.3,0.5-0.4,0.8l-1.3,1.8v0H66.6z"/>
	</g>
</g>
<g class="st2">
	<g>
		<path class="st3" d="M94.2,215.9h-2l-0.2,1.3c0.1,0,0.2,0,0.4,0c0.4,0,0.8,0.1,1.1,0.3c0.4,0.2,0.7,0.7,0.7,1.3
			c0,1-0.8,1.8-1.9,1.8c-0.6,0-1.1-0.2-1.3-0.3l0.2-0.5c0.2,0.1,0.6,0.3,1.1,0.3c0.7,0,1.2-0.4,1.2-1.1c0-0.7-0.5-1.1-1.5-1.1
			c-0.3,0-0.5,0-0.7,0.1l0.3-2.5h2.5L94.2,215.9L94.2,215.9z"/>
	</g>
</g>
<g class="st2">
	<g>
		<path class="st3" d="M120.8,215.8c-0.1,0-0.3,0-0.5,0c-1.1,0.2-1.7,1-1.8,1.9h0c0.2-0.3,0.7-0.6,1.3-0.6c0.9,0,1.6,0.7,1.6,1.7
			c0,0.9-0.7,1.8-1.7,1.8s-1.8-0.9-1.8-2.2c0-1,0.4-1.8,0.9-2.3c0.4-0.4,1-0.7,1.7-0.8c0.2,0,0.4,0,0.5,0L120.8,215.8L120.8,215.8z
			 M120.6,218.8c0-0.7-0.4-1.2-1.1-1.2c-0.4,0-0.8,0.3-1,0.6c-0.1,0.1-0.1,0.2-0.1,0.3c0,0.9,0.4,1.5,1.1,1.5
			C120.2,220,120.6,219.5,120.6,218.8z"/>
	</g>
</g>
<g class="st2">
	<g>
		<path class="st3" d="M147.9,215.3v0.5l-2.3,4.7h-0.7l2.2-4.6v0h-2.5v-0.6L147.9,215.3L147.9,215.3z"/>
	</g>
</g>
<g class="st2">
	<g>
		<path class="st3" d="M171.1,219.2c0-0.7,0.4-1.1,1-1.4v0c-0.6-0.3-0.8-0.7-0.8-1.2c0-0.8,0.7-1.4,1.6-1.4c1,0,1.5,0.6,1.5,1.3
			c0,0.4-0.2,0.9-0.9,1.2v0c0.6,0.3,1.1,0.7,1.1,1.3c0,0.9-0.8,1.5-1.8,1.5C171.8,220.6,171.1,219.9,171.1,219.2L171.1,219.2z
			 M173.9,219.1c0-0.6-0.4-0.9-1.1-1.1c-0.6,0.2-0.9,0.6-0.9,1.1c0,0.5,0.4,1,1,1S173.9,219.7,173.9,219.1L173.9,219.1z M172,216.5
			c0,0.5,0.4,0.8,1,1c0.4-0.1,0.8-0.5,0.8-0.9c0-0.4-0.2-0.9-0.9-0.9C172.3,215.7,172,216.1,172,216.5z"/>
	</g>
</g>
<g class="st2">
	<g>
		<path class="st3" d="M198.3,220c0.1,0,0.3,0,0.6,0c0.4-0.1,0.8-0.2,1.1-0.5c0.3-0.3,0.6-0.8,0.7-1.4h0c-0.3,0.4-0.7,0.6-1.2,0.6
			c-0.9,0-1.5-0.7-1.5-1.6c0-1,0.7-1.9,1.8-1.9s1.7,0.9,1.7,2.2c0,1.1-0.4,1.9-0.9,2.4c-0.4,0.4-0.9,0.6-1.5,0.7
			c-0.3,0-0.5,0.1-0.6,0L198.3,220L198.3,220z M198.6,217c0,0.6,0.4,1.1,1,1.1c0.5,0,0.8-0.2,1-0.5c0-0.1,0.1-0.1,0.1-0.3
			c0-0.9-0.3-1.6-1.1-1.6C199,215.7,198.6,216.3,198.6,217L198.6,217z"/>
	</g>
</g>
<g class="st2">
	<g>
		<g>
			<path class="st3" d="M226.1,215.9L226.1,215.9l-0.9,0.5l-0.1-0.5l1.1-0.6h0.6v5.2h-0.7L226.1,215.9L226.1,215.9z"/>
			<path class="st3" d="M232.2,217.8c0,1.8-0.7,2.7-1.8,2.7c-1,0-1.7-0.9-1.7-2.7c0-1.7,0.8-2.7,1.8-2.7S232.2,216.2,232.2,217.8
				L232.2,217.8z M229.3,217.9c0,1.4,0.4,2.1,1.1,2.1c0.7,0,1.1-0.8,1.1-2.2s-0.3-2.1-1.1-2.1C229.8,215.7,229.3,216.5,229.3,217.9z
				"/>
		</g>
	</g>
</g>
<g class="st2">
	<g>
		<g>
			<path class="st3" d="M257.3,215.9L257.3,215.9l-0.9,0.5l-0.1-0.5l1.1-0.6h0.6v5.2h-0.7L257.3,215.9L257.3,215.9z"/>
			<path class="st3" d="M261.4,215.9L261.4,215.9l-0.9,0.5l-0.1-0.5l1.1-0.6h0.6v5.2h-0.7L261.4,215.9L261.4,215.9z"/>
		</g>
	</g>
</g>
<g class="st2">
	<g>
		<g>
			<path class="st3" d="M288.5,215.9L288.5,215.9l-0.9,0.5l-0.1-0.5l1.1-0.6h0.6v5.2h-0.7L288.5,215.9L288.5,215.9z"/>
			<path class="st3" d="M291.1,220.5v-0.4l0.5-0.5c1.3-1.3,1.9-1.9,1.9-2.7c0-0.5-0.3-1-1-1c-0.5,0-0.9,0.2-1.1,0.4l-0.2-0.5
				c0.4-0.3,0.9-0.5,1.5-0.5c1.1,0,1.6,0.8,1.6,1.5c0,1-0.7,1.7-1.8,2.8l-0.4,0.4v0h2.3v0.6L291.1,220.5L291.1,220.5z"/>
		</g>
	</g>
</g>
<g class="st2">
	<g>
		<g>
			<path class="st3" d="M319.7,215.9L319.7,215.9l-0.9,0.5l-0.1-0.5l1.1-0.6h0.6v5.2h-0.7L319.7,215.9L319.7,215.9z"/>
			<path class="st3" d="M322.4,219.7c0.2,0.1,0.7,0.3,1.1,0.3c0.9,0,1.2-0.6,1.2-1c0-0.7-0.7-1-1.3-1H323v-0.5h0.4
				c0.5,0,1.2-0.3,1.2-0.9c0-0.4-0.3-0.8-0.9-0.8c-0.4,0-0.8,0.2-1,0.3l-0.2-0.5c0.3-0.2,0.8-0.4,1.4-0.4c1,0,1.5,0.6,1.5,1.2
				c0,0.5-0.3,1-1,1.2v0c0.6,0.1,1.2,0.6,1.2,1.3c0,0.8-0.6,1.6-1.9,1.6c-0.6,0-1.1-0.2-1.4-0.4L322.4,219.7L322.4,219.7z"/>
		</g>
	</g>
</g>
<g class="st2">
	<g>
		<g>
			<path class="st3" d="M350.9,215.9L350.9,215.9l-0.9,0.5l-0.1-0.5l1.1-0.6h0.6v5.2h-0.7L350.9,215.9L350.9,215.9z"/>
			<path class="st3" d="M355.6,220.5v-1.4h-2.4v-0.5l2.3-3.3h0.8v3.2h0.7v0.6h-0.7v1.4L355.6,220.5L355.6,220.5z M355.6,218.5v-1.7
				c0-0.3,0-0.5,0-0.8h0c-0.2,0.3-0.3,0.5-0.4,0.8l-1.3,1.8v0H355.6L355.6,218.5z"/>
		</g>
	</g>
</g>
<g class="st2">
	<g>
		<g>
			<path class="st3" d="M380.4,215.9L380.4,215.9l-0.9,0.5l-0.1-0.5l1.1-0.6h0.6v5.2h-0.7L380.4,215.9L380.4,215.9z"/>
			<path class="st3" d="M386,215.9h-2l-0.2,1.3c0.1,0,0.2,0,0.4,0c0.4,0,0.8,0.1,1.1,0.3c0.4,0.2,0.7,0.7,0.7,1.3
				c0,1-0.8,1.8-1.9,1.8c-0.6,0-1-0.2-1.3-0.3l0.2-0.5c0.2,0.1,0.6,0.3,1.1,0.3c0.7,0,1.2-0.4,1.2-1.1c0-0.7-0.5-1.1-1.5-1.1
				c-0.3,0-0.5,0-0.7,0.1l0.3-2.5h2.5L386,215.9L386,215.9z"/>
		</g>
	</g>
</g>
<g class="st2">
	<g>
		<g>
			<path class="st3" d="M409.8,215.9L409.8,215.9l-0.9,0.5l-0.1-0.5l1.1-0.6h0.6v5.2h-0.7L409.8,215.9L409.8,215.9z"/>
			<path class="st3" d="M415.4,215.8c-0.1,0-0.3,0-0.5,0c-1.1,0.2-1.7,1-1.8,1.9h0c0.2-0.3,0.7-0.6,1.2-0.6c0.9,0,1.6,0.7,1.6,1.7
				c0,0.9-0.6,1.8-1.7,1.8s-1.8-0.9-1.8-2.2c0-1,0.4-1.8,0.9-2.3c0.4-0.4,1-0.7,1.7-0.8c0.2,0,0.4,0,0.5,0L415.4,215.8L415.4,215.8z
				 M415.2,218.8c0-0.7-0.4-1.2-1.1-1.2c-0.4,0-0.8,0.3-1,0.6c0,0.1-0.1,0.2-0.1,0.3c0,0.9,0.4,1.5,1.1,1.5
				C414.8,220,415.2,219.5,415.2,218.8z"/>
		</g>
	</g>
</g>
<g class="st2">
	<g>
		<g>
			<path class="st3" d="M439.3,215.9L439.3,215.9l-0.9,0.5l-0.1-0.5l1.1-0.6h0.6v5.2h-0.7L439.3,215.9L439.3,215.9z"/>
			<path class="st3" d="M445.3,215.3v0.5l-2.3,4.7h-0.7l2.2-4.6v0H442v-0.6L445.3,215.3L445.3,215.3z"/>
		</g>
	</g>
</g>
<g class="st2">
	<g>
		<g>
			<path class="st3" d="M468.8,215.9L468.8,215.9l-0.9,0.5l-0.1-0.5l1.1-0.6h0.6v5.2h-0.7L468.8,215.9L468.8,215.9z"/>
			<path class="st3" d="M471.3,219.2c0-0.7,0.4-1.1,1-1.4v0c-0.6-0.3-0.8-0.7-0.8-1.2c0-0.8,0.7-1.4,1.6-1.4c1,0,1.5,0.6,1.5,1.3
				c0,0.4-0.2,0.9-0.9,1.2v0c0.6,0.3,1,0.7,1,1.3c0,0.9-0.8,1.5-1.8,1.5C472,220.6,471.3,219.9,471.3,219.2L471.3,219.2z
				 M474.1,219.1c0-0.6-0.4-0.9-1.1-1.1c-0.6,0.2-0.9,0.6-0.9,1.1c0,0.5,0.4,1,1,1S474.1,219.7,474.1,219.1L474.1,219.1z
				 M472.2,216.5c0,0.5,0.4,0.8,1,1c0.5-0.1,0.8-0.5,0.8-0.9c0-0.4-0.2-0.9-0.9-0.9C472.5,215.7,472.2,216.1,472.2,216.5z"/>
		</g>
	</g>
</g>
<g class="st2">
	<g>
		<g>
			<path class="st3" d="M498.3,215.9L498.3,215.9l-0.9,0.5l-0.1-0.5l1.1-0.6h0.6v5.2h-0.7L498.3,215.9L498.3,215.9z"/>
			<path class="st3" d="M501.3,220c0.1,0,0.3,0,0.6,0c0.4-0.1,0.8-0.2,1.1-0.5c0.3-0.3,0.6-0.8,0.7-1.4h0c-0.3,0.4-0.7,0.6-1.2,0.6
				c-0.9,0-1.5-0.7-1.5-1.6c0-1,0.7-1.9,1.8-1.9s1.7,0.9,1.7,2.2c0,1.1-0.4,1.9-0.9,2.4c-0.4,0.4-1,0.6-1.5,0.7
				c-0.3,0-0.5,0.1-0.6,0V220L501.3,220z M501.5,217c0,0.6,0.4,1.1,1,1.1c0.5,0,0.8-0.2,1-0.5c0-0.1,0.1-0.1,0.1-0.3
				c0-0.9-0.3-1.6-1.1-1.6C502,215.7,501.5,216.3,501.5,217L501.5,217z"/>
		</g>
	</g>
</g>
<g class="st2">
	<g>
		<g>
			<path class="st3" d="M526.3,220.5v-0.4l0.5-0.5c1.3-1.3,1.9-1.9,1.9-2.7c0-0.5-0.3-1-1-1c-0.5,0-0.9,0.2-1.1,0.4l-0.2-0.5
				c0.4-0.3,0.9-0.5,1.5-0.5c1.1,0,1.6,0.8,1.6,1.5c0,1-0.7,1.7-1.8,2.8l-0.4,0.4v0h2.3v0.6L526.3,220.5L526.3,220.5z"/>
			<path class="st3" d="M533.8,217.8c0,1.8-0.7,2.7-1.8,2.7c-1,0-1.7-0.9-1.7-2.7c0-1.7,0.8-2.7,1.8-2.7S533.8,216.2,533.8,217.8
				L533.8,217.8z M531,217.9c0,1.4,0.4,2.1,1.1,2.1c0.7,0,1.1-0.8,1.1-2.2s-0.3-2.1-1.1-2.1C531.4,215.7,531,216.5,531,217.9z"/>
		</g>
	</g>
</g>
<g class="st2">
	<g>
		<g>
			<path class="st3" d="M555.7,220.5v-0.4l0.5-0.5c1.3-1.3,1.9-1.9,1.9-2.7c0-0.5-0.3-1-1-1c-0.5,0-0.9,0.2-1.1,0.4l-0.2-0.5
				c0.4-0.3,0.9-0.5,1.5-0.5c1.1,0,1.6,0.8,1.6,1.5c0,1-0.7,1.7-1.8,2.8l-0.4,0.4v0h2.3v0.6L555.7,220.5L555.7,220.5z"/>
			<path class="st3" d="M561.4,215.9L561.4,215.9l-0.9,0.5l-0.1-0.5l1.1-0.6h0.6v5.2h-0.7L561.4,215.9L561.4,215.9z"/>
		</g>
	</g>
</g>
<g class="st2">
	<g>
		<g>
			<path class="st3" d="M585.2,220.5v-0.4l0.5-0.5c1.3-1.3,1.9-1.9,1.9-2.7c0-0.5-0.3-1-1-1c-0.5,0-0.9,0.2-1.1,0.4l-0.2-0.5
				c0.4-0.3,0.9-0.5,1.5-0.5c1.1,0,1.6,0.8,1.6,1.5c0,1-0.7,1.7-1.8,2.8l-0.4,0.4v0h2.3v0.6L585.2,220.5L585.2,220.5z"/>
			<path class="st3" d="M589.3,220.5v-0.4l0.5-0.5c1.3-1.3,1.9-1.9,1.9-2.7c0-0.5-0.3-1-1-1c-0.5,0-0.9,0.2-1.1,0.4l-0.2-0.5
				c0.4-0.3,0.9-0.5,1.5-0.5c1.1,0,1.6,0.8,1.6,1.5c0,1-0.7,1.7-1.8,2.8l-0.4,0.4v0h2.3v0.6L589.3,220.5L589.3,220.5z"/>
		</g>
	</g>
</g>
<g class="st2">
	<g>
		<g>
			<path class="st3" d="M614.7,220.5v-0.4l0.5-0.5c1.3-1.3,1.9-1.9,1.9-2.7c0-0.5-0.3-1-1-1c-0.5,0-0.9,0.2-1.1,0.4l-0.2-0.5
				c0.4-0.3,0.9-0.5,1.5-0.5c1.1,0,1.6,0.8,1.6,1.5c0,1-0.7,1.7-1.8,2.8l-0.4,0.4v0h2.3v0.6L614.7,220.5L614.7,220.5z"/>
			<path class="st3" d="M619,219.7c0.2,0.1,0.7,0.3,1.2,0.3c0.9,0,1.2-0.6,1.2-1c0-0.7-0.7-1-1.3-1h-0.4v-0.5h0.4
				c0.5,0,1.2-0.3,1.2-0.9c0-0.4-0.3-0.8-0.9-0.8c-0.4,0-0.8,0.2-1,0.3l-0.2-0.5c0.3-0.2,0.8-0.4,1.4-0.4c1,0,1.5,0.6,1.5,1.2
				c0,0.5-0.3,1-1,1.2v0c0.6,0.1,1.2,0.6,1.2,1.3c0,0.8-0.7,1.6-1.9,1.6c-0.6,0-1.1-0.2-1.3-0.4L619,219.7L619,219.7z"/>
		</g>
	</g>
</g>
<g class="st2">
	<g>
		<g>
			<path class="st3" d="M644.2,220.5v-0.4l0.5-0.5c1.3-1.3,1.9-1.9,1.9-2.7c0-0.5-0.3-1-1-1c-0.5,0-0.9,0.2-1.1,0.4l-0.2-0.5
				c0.4-0.3,0.9-0.5,1.5-0.5c1.1,0,1.6,0.8,1.6,1.5c0,1-0.7,1.7-1.8,2.8l-0.4,0.4v0h2.3v0.6L644.2,220.5L644.2,220.5z"/>
			<path class="st3" d="M650.5,220.5v-1.4h-2.4v-0.5l2.3-3.3h0.8v3.2h0.7v0.6h-0.7v1.4L650.5,220.5L650.5,220.5z M650.5,218.5v-1.7
				c0-0.3,0-0.5,0-0.8h0c-0.2,0.3-0.3,0.5-0.4,0.8l-1.3,1.8v0H650.5z"/>
		</g>
	</g>
</g>
<g class="st4">
	<g>
		<path class="st3" d="M253.9,237.7c29.6,0,53.6-36.1,53.6-80.7s-24-80.7-53.6-80.7s-53.6,36.1-53.6,80.7S224.3,237.7,253.9,237.7"
			/>
	</g>
</g>
<g class="st4">
	<g>
		<path class="st3" d="M390.6,237.7c28.3,0,51.2-36.1,51.2-80.7s-22.9-80.7-51.2-80.7s-51.2,36.1-51.2,80.7S362.3,237.7,390.6,237.7
			"/>
	</g>
</g>
<g class="st4">
	<g>
		<path class="st3" d="M645,237.7c30.6,0,55.5-36.1,55.5-80.7S675.6,76.4,645,76.4s-55.5,36.1-55.5,80.7S614.3,237.7,645,237.7"/>
	</g>
</g>
<line class="st1" x1="9" y1="272.8" x2="750.1" y2="272.8"/>
<polyline class="st1" points="746.9,269.9 750.1,272.8 746.9,275.8 "/>
<g class="st2">
	<g>
		<path class="st3" d="M675.2,331.8L675.2,331.8l-0.9,0.5l-0.1-0.5l1.1-0.6h0.6v5.2h-0.7L675.2,331.8L675.2,331.8z"/>
	</g>
</g>
<g class="st2">
	<g>
		<path class="st3" d="M698.7,336.3v-0.4l0.5-0.5c1.3-1.3,1.9-1.9,1.9-2.7c0-0.5-0.3-1-1-1c-0.5,0-0.9,0.2-1.1,0.4l-0.2-0.5
			c0.4-0.3,0.9-0.5,1.5-0.5c1.1,0,1.6,0.8,1.6,1.5c0,1-0.7,1.7-1.8,2.8l-0.4,0.4v0h2.3v0.6L698.7,336.3L698.7,336.3z"/>
	</g>
</g>
<g class="st2">
	<g>
		<path class="st3" d="M37.9,335.5c0.2,0.1,0.7,0.3,1.2,0.3c0.9,0,1.2-0.6,1.2-1c0-0.7-0.7-1-1.3-1h-0.4v-0.5h0.4
			c0.5,0,1.2-0.3,1.2-0.9c0-0.4-0.3-0.8-0.9-0.8c-0.4,0-0.8,0.2-1,0.3l-0.2-0.5c0.3-0.2,0.8-0.4,1.4-0.4c1,0,1.5,0.6,1.5,1.2
			c0,0.5-0.3,1-1,1.2v0c0.6,0.1,1.2,0.6,1.2,1.3c0,0.8-0.7,1.6-1.9,1.6c-0.6,0-1.1-0.2-1.3-0.4L37.9,335.5L37.9,335.5z"/>
	</g>
</g>
<g class="st2">
	<g>
		<path class="st3" d="M66.6,336.3v-1.4h-2.4v-0.5l2.3-3.3h0.8v3.2H68v0.5h-0.7v1.4H66.6L66.6,336.3z M66.6,334.3v-1.7
			c0-0.3,0-0.5,0-0.8h0c-0.2,0.3-0.3,0.5-0.4,0.8l-1.3,1.8v0L66.6,334.3L66.6,334.3z"/>
	</g>
</g>
<g class="st2">
	<g>
		<path class="st3" d="M94.2,331.7h-2L92,333c0.1,0,0.2,0,0.4,0c0.4,0,0.8,0.1,1.1,0.3c0.4,0.2,0.7,0.7,0.7,1.3c0,1-0.8,1.8-1.9,1.8
			c-0.6,0-1.1-0.2-1.3-0.3l0.2-0.5c0.2,0.1,0.6,0.3,1.1,0.3c0.7,0,1.2-0.4,1.2-1.1c0-0.7-0.5-1.1-1.5-1.1c-0.3,0-0.5,0-0.7,0.1
			l0.3-2.5h2.5L94.2,331.7L94.2,331.7z"/>
	</g>
</g>
<g class="st2">
	<g>
		<path class="st3" d="M120.8,331.6c-0.1,0-0.3,0-0.5,0c-1.1,0.2-1.7,1-1.8,1.9h0c0.2-0.3,0.7-0.6,1.3-0.6c0.9,0,1.6,0.7,1.6,1.7
			c0,1-0.7,1.8-1.7,1.8s-1.8-0.9-1.8-2.2c0-1,0.4-1.8,0.9-2.3c0.4-0.4,1-0.7,1.7-0.8c0.2,0,0.4,0,0.5,0L120.8,331.6L120.8,331.6z
			 M120.6,334.6c0-0.7-0.4-1.2-1.1-1.2c-0.4,0-0.8,0.3-1,0.6c-0.1,0.1-0.1,0.2-0.1,0.3c0,0.9,0.4,1.5,1.1,1.5
			C120.2,335.8,120.6,335.3,120.6,334.6z"/>
	</g>
</g>
<g class="st2">
	<g>
		<path class="st3" d="M147.9,331.1v0.5l-2.3,4.7h-0.7l2.2-4.6v0h-2.5v-0.6L147.9,331.1L147.9,331.1z"/>
	</g>
</g>
<g class="st2">
	<g>
		<path class="st3" d="M171.1,335c0-0.7,0.4-1.1,1-1.4v0c-0.6-0.3-0.8-0.7-0.8-1.2c0-0.8,0.7-1.4,1.6-1.4c1,0,1.5,0.6,1.5,1.3
			c0,0.4-0.2,0.9-0.9,1.2v0c0.6,0.3,1.1,0.7,1.1,1.3c0,0.9-0.8,1.5-1.8,1.5C171.8,336.4,171.1,335.7,171.1,335L171.1,335z
			 M173.9,334.9c0-0.6-0.4-0.9-1.1-1.1c-0.6,0.2-0.9,0.6-0.9,1.1c0,0.5,0.4,1,1,1S173.9,335.5,173.9,334.9L173.9,334.9z M172,332.3
			c0,0.5,0.4,0.8,1,1c0.4-0.1,0.8-0.5,0.8-0.9c0-0.4-0.2-0.9-0.9-0.9C172.3,331.5,172,331.9,172,332.3L172,332.3z"/>
	</g>
</g>
<g class="st2">
	<g>
		<path class="st3" d="M198.3,335.8c0.1,0,0.3,0,0.6,0c0.4-0.1,0.8-0.2,1.1-0.5c0.3-0.3,0.6-0.8,0.7-1.4h0c-0.3,0.4-0.7,0.6-1.2,0.6
			c-0.9,0-1.5-0.7-1.5-1.6c0-1,0.7-1.9,1.8-1.9s1.7,0.9,1.7,2.2c0,1.1-0.4,1.9-0.9,2.4c-0.4,0.4-0.9,0.6-1.5,0.7c-0.3,0-0.5,0-0.6,0
			L198.3,335.8L198.3,335.8z M198.6,332.8c0,0.6,0.4,1.1,1,1.1c0.5,0,0.8-0.2,1-0.5c0-0.1,0.1-0.1,0.1-0.3c0-0.9-0.3-1.6-1.1-1.6
			C199,331.5,198.6,332.1,198.6,332.8L198.6,332.8z"/>
	</g>
</g>
<g class="st2">
	<g>
		<g>
			<path class="st3" d="M226.1,331.8L226.1,331.8l-0.9,0.5l-0.1-0.5l1.1-0.6h0.6v5.2h-0.7L226.1,331.8L226.1,331.8z"/>
			<path class="st3" d="M232.2,333.6c0,1.8-0.7,2.7-1.8,2.7c-1,0-1.7-1-1.7-2.7c0-1.7,0.8-2.7,1.8-2.7S232.2,332,232.2,333.6
				L232.2,333.6z M229.3,333.7c0,1.4,0.4,2.1,1.1,2.1c0.7,0,1.1-0.8,1.1-2.2s-0.3-2.1-1.1-2.1C229.8,331.5,229.3,332.3,229.3,333.7z
				"/>
		</g>
	</g>
</g>
<g class="st2">
	<g>
		<g>
			<path class="st3" d="M257.3,331.8L257.3,331.8l-0.9,0.5l-0.1-0.5l1.1-0.6h0.6v5.2h-0.7L257.3,331.8L257.3,331.8z"/>
			<path class="st3" d="M261.4,331.8L261.4,331.8l-0.9,0.5l-0.1-0.5l1.1-0.6h0.6v5.2h-0.7L261.4,331.8L261.4,331.8z"/>
		</g>
	</g>
</g>
<g class="st2">
	<g>
		<g>
			<path class="st3" d="M288.5,331.8L288.5,331.8l-0.9,0.5l-0.1-0.5l1.1-0.6h0.6v5.2h-0.7L288.5,331.8L288.5,331.8z"/>
			<path class="st3" d="M291.1,336.3v-0.4l0.5-0.5c1.3-1.3,1.9-1.9,1.9-2.7c0-0.5-0.3-1-1-1c-0.5,0-0.9,0.2-1.1,0.4l-0.2-0.5
				c0.4-0.3,0.9-0.5,1.5-0.5c1.1,0,1.6,0.8,1.6,1.5c0,1-0.7,1.7-1.8,2.8l-0.4,0.4v0h2.3v0.6L291.1,336.3L291.1,336.3z"/>
		</g>
	</g>
</g>
<g class="st2">
	<g>
		<g>
			<path class="st3" d="M319.7,331.8L319.7,331.8l-0.9,0.5l-0.1-0.5l1.1-0.6h0.6v5.2h-0.7L319.7,331.8L319.7,331.8z"/>
			<path class="st3" d="M322.4,335.5c0.2,0.1,0.7,0.3,1.1,0.3c0.9,0,1.2-0.6,1.2-1c0-0.7-0.7-1-1.3-1H323v-0.5h0.4
				c0.5,0,1.2-0.3,1.2-0.9c0-0.4-0.3-0.8-0.9-0.8c-0.4,0-0.8,0.2-1,0.3l-0.2-0.5c0.3-0.2,0.8-0.4,1.4-0.4c1,0,1.5,0.6,1.5,1.2
				c0,0.5-0.3,1-1,1.2v0c0.6,0.1,1.2,0.6,1.2,1.3c0,0.8-0.6,1.6-1.9,1.6c-0.6,0-1.1-0.2-1.4-0.4L322.4,335.5L322.4,335.5z"/>
		</g>
	</g>
</g>
<g class="st2">
	<g>
		<g>
			<path class="st3" d="M350.9,331.8L350.9,331.8l-0.9,0.5l-0.1-0.5l1.1-0.6h0.6v5.2h-0.7L350.9,331.8L350.9,331.8z"/>
			<path class="st3" d="M355.6,336.3v-1.4h-2.4v-0.5l2.3-3.3h0.8v3.2h0.7v0.5h-0.7v1.4H355.6L355.6,336.3z M355.6,334.3v-1.7
				c0-0.3,0-0.5,0-0.8h0c-0.2,0.3-0.3,0.5-0.4,0.8l-1.3,1.8v0L355.6,334.3L355.6,334.3z"/>
		</g>
	</g>
</g>
<g class="st2">
	<g>
		<g>
			<path class="st3" d="M380.4,331.8L380.4,331.8l-0.9,0.5l-0.1-0.5l1.1-0.6h0.6v5.2h-0.7L380.4,331.8L380.4,331.8z"/>
			<path class="st3" d="M386,331.7h-2l-0.2,1.3c0.1,0,0.2,0,0.4,0c0.4,0,0.8,0.1,1.1,0.3c0.4,0.2,0.7,0.7,0.7,1.3
				c0,1-0.8,1.8-1.9,1.8c-0.6,0-1-0.2-1.3-0.3l0.2-0.5c0.2,0.1,0.6,0.3,1.1,0.3c0.7,0,1.2-0.4,1.2-1.1c0-0.7-0.5-1.1-1.5-1.1
				c-0.3,0-0.5,0-0.7,0.1l0.3-2.5h2.5L386,331.7L386,331.7z"/>
		</g>
	</g>
</g>
<g class="st2">
	<g>
		<g>
			<path class="st3" d="M409.8,331.8L409.8,331.8l-0.9,0.5l-0.1-0.5l1.1-0.6h0.6v5.2h-0.7L409.8,331.8L409.8,331.8z"/>
			<path class="st3" d="M415.4,331.6c-0.1,0-0.3,0-0.5,0c-1.1,0.2-1.7,1-1.8,1.9h0c0.2-0.3,0.7-0.6,1.2-0.6c0.9,0,1.6,0.7,1.6,1.7
				c0,1-0.6,1.8-1.7,1.8s-1.8-0.9-1.8-2.2c0-1,0.4-1.8,0.9-2.3c0.4-0.4,1-0.7,1.7-0.8c0.2,0,0.4,0,0.5,0L415.4,331.6L415.4,331.6z
				 M415.2,334.6c0-0.7-0.4-1.2-1.1-1.2c-0.4,0-0.8,0.3-1,0.6c0,0.1-0.1,0.2-0.1,0.3c0,0.9,0.4,1.5,1.1,1.5
				C414.8,335.8,415.2,335.3,415.2,334.6z"/>
		</g>
	</g>
</g>
<g class="st2">
	<g>
		<g>
			<path class="st3" d="M439.3,331.8L439.3,331.8l-0.9,0.5l-0.1-0.5l1.1-0.6h0.6v5.2h-0.7L439.3,331.8L439.3,331.8z"/>
			<path class="st3" d="M445.3,331.1v0.5l-2.3,4.7h-0.7l2.2-4.6v0H442v-0.6L445.3,331.1L445.3,331.1z"/>
		</g>
	</g>
</g>
<g class="st2">
	<g>
		<g>
			<path class="st3" d="M468.8,331.8L468.8,331.8l-0.9,0.5l-0.1-0.5l1.1-0.6h0.6v5.2h-0.7L468.8,331.8L468.8,331.8z"/>
			<path class="st3" d="M471.3,335c0-0.7,0.4-1.1,1-1.4v0c-0.6-0.3-0.8-0.7-0.8-1.2c0-0.8,0.7-1.4,1.6-1.4c1,0,1.5,0.6,1.5,1.3
				c0,0.4-0.2,0.9-0.9,1.2v0c0.6,0.3,1,0.7,1,1.3c0,0.9-0.8,1.5-1.8,1.5C472,336.4,471.3,335.7,471.3,335L471.3,335z M474.1,334.9
				c0-0.6-0.4-0.9-1.1-1.1c-0.6,0.2-0.9,0.6-0.9,1.1c0,0.5,0.4,1,1,1S474.1,335.5,474.1,334.9z M472.2,332.3c0,0.5,0.4,0.8,1,1
				c0.5-0.1,0.8-0.5,0.8-0.9c0-0.4-0.2-0.9-0.9-0.9C472.5,331.5,472.2,331.9,472.2,332.3L472.2,332.3z"/>
		</g>
	</g>
</g>
<g class="st2">
	<g>
		<g>
			<path class="st3" d="M498.3,331.8L498.3,331.8l-0.9,0.5l-0.1-0.5l1.1-0.6h0.6v5.2h-0.7L498.3,331.8L498.3,331.8z"/>
			<path class="st3" d="M501.3,335.8c0.1,0,0.3,0,0.6,0c0.4-0.1,0.8-0.2,1.1-0.5c0.3-0.3,0.6-0.8,0.7-1.4h0
				c-0.3,0.4-0.7,0.6-1.2,0.6c-0.9,0-1.5-0.7-1.5-1.6c0-1,0.7-1.9,1.8-1.9s1.7,0.9,1.7,2.2c0,1.1-0.4,1.9-0.9,2.4
				c-0.4,0.4-1,0.6-1.5,0.7c-0.3,0-0.5,0-0.6,0V335.8L501.3,335.8z M501.5,332.8c0,0.6,0.4,1.1,1,1.1c0.5,0,0.8-0.2,1-0.5
				c0-0.1,0.1-0.1,0.1-0.3c0-0.9-0.3-1.6-1.1-1.6C502,331.5,501.5,332.1,501.5,332.8L501.5,332.8z"/>
		</g>
	</g>
</g>
<g class="st2">
	<g>
		<g>
			<path class="st3" d="M526.3,336.3v-0.4l0.5-0.5c1.3-1.3,1.9-1.9,1.9-2.7c0-0.5-0.3-1-1-1c-0.5,0-0.9,0.2-1.1,0.4l-0.2-0.5
				c0.4-0.3,0.9-0.5,1.5-0.5c1.1,0,1.6,0.8,1.6,1.5c0,1-0.7,1.7-1.8,2.8l-0.4,0.4v0h2.3v0.6L526.3,336.3L526.3,336.3z"/>
			<path class="st3" d="M533.8,333.6c0,1.8-0.7,2.7-1.8,2.7c-1,0-1.7-1-1.7-2.7c0-1.7,0.8-2.7,1.8-2.7S533.8,332,533.8,333.6
				L533.8,333.6z M531,333.7c0,1.4,0.4,2.1,1.1,2.1c0.7,0,1.1-0.8,1.1-2.2s-0.3-2.1-1.1-2.1C531.4,331.5,531,332.3,531,333.7z"/>
		</g>
	</g>
</g>
<g class="st2">
	<g>
		<g>
			<path class="st3" d="M555.7,336.3v-0.4l0.5-0.5c1.3-1.3,1.9-1.9,1.9-2.7c0-0.5-0.3-1-1-1c-0.5,0-0.9,0.2-1.1,0.4l-0.2-0.5
				c0.4-0.3,0.9-0.5,1.5-0.5c1.1,0,1.6,0.8,1.6,1.5c0,1-0.7,1.7-1.8,2.8l-0.4,0.4v0h2.3v0.6L555.7,336.3L555.7,336.3z"/>
			<path class="st3" d="M561.4,331.8L561.4,331.8l-0.9,0.5l-0.1-0.5l1.1-0.6h0.6v5.2h-0.7L561.4,331.8L561.4,331.8z"/>
		</g>
	</g>
</g>
<g class="st2">
	<g>
		<g>
			<path class="st3" d="M585.2,336.3v-0.4l0.5-0.5c1.3-1.3,1.9-1.9,1.9-2.7c0-0.5-0.3-1-1-1c-0.5,0-0.9,0.2-1.1,0.4l-0.2-0.5
				c0.4-0.3,0.9-0.5,1.5-0.5c1.1,0,1.6,0.8,1.6,1.5c0,1-0.7,1.7-1.8,2.8l-0.4,0.4v0h2.3v0.6L585.2,336.3L585.2,336.3z"/>
			<path class="st3" d="M589.3,336.3v-0.4l0.5-0.5c1.3-1.3,1.9-1.9,1.9-2.7c0-0.5-0.3-1-1-1c-0.5,0-0.9,0.2-1.1,0.4l-0.2-0.5
				c0.4-0.3,0.9-0.5,1.5-0.5c1.1,0,1.6,0.8,1.6,1.5c0,1-0.7,1.7-1.8,2.8l-0.4,0.4v0h2.3v0.6L589.3,336.3L589.3,336.3z"/>
		</g>
	</g>
</g>
<g class="st2">
	<g>
		<g>
			<path class="st3" d="M614.7,336.3v-0.4l0.5-0.5c1.3-1.3,1.9-1.9,1.9-2.7c0-0.5-0.3-1-1-1c-0.5,0-0.9,0.2-1.1,0.4l-0.2-0.5
				c0.4-0.3,0.9-0.5,1.5-0.5c1.1,0,1.6,0.8,1.6,1.5c0,1-0.7,1.7-1.8,2.8l-0.4,0.4v0h2.3v0.6L614.7,336.3L614.7,336.3z"/>
			<path class="st3" d="M619,335.5c0.2,0.1,0.7,0.3,1.2,0.3c0.9,0,1.2-0.6,1.2-1c0-0.7-0.7-1-1.3-1h-0.4v-0.5h0.4
				c0.5,0,1.2-0.3,1.2-0.9c0-0.4-0.3-0.8-0.9-0.8c-0.4,0-0.8,0.2-1,0.3l-0.2-0.5c0.3-0.2,0.8-0.4,1.4-0.4c1,0,1.5,0.6,1.5,1.2
				c0,0.5-0.3,1-1,1.2v0c0.6,0.1,1.2,0.6,1.2,1.3c0,0.8-0.7,1.6-1.9,1.6c-0.6,0-1.1-0.2-1.3-0.4L619,335.5L619,335.5z"/>
		</g>
	</g>
</g>
<g class="st2">
	<g>
		<g>
			<path class="st3" d="M644.2,336.3v-0.4l0.5-0.5c1.3-1.3,1.9-1.9,1.9-2.7c0-0.5-0.3-1-1-1c-0.5,0-0.9,0.2-1.1,0.4l-0.2-0.5
				c0.4-0.3,0.9-0.5,1.5-0.5c1.1,0,1.6,0.8,1.6,1.5c0,1-0.7,1.7-1.8,2.8l-0.4,0.4v0h2.3v0.6L644.2,336.3L644.2,336.3z"/>
			<path class="st3" d="M650.5,336.3v-1.4h-2.4v-0.5l2.3-3.3h0.8v3.2h0.7v0.5h-0.7v1.4H650.5L650.5,336.3z M650.5,334.3v-1.7
				c0-0.3,0-0.5,0-0.8h0c-0.2,0.3-0.3,0.5-0.4,0.8l-1.3,1.8v0L650.5,334.3L650.5,334.3z"/>
		</g>
	</g>
</g>
<circle class="st5" cx="208.8" cy="272.8" r="6.7"/>
<path class="st5" d="M322.3,284.5c6.4,0,11.6-5.2,11.6-11.6s-5.2-11.6-11.6-11.6s-11.6,5.2-11.6,11.6S315.9,284.5,322.3,284.5z"/>
<circle class="st6" cx="274.3" cy="273.4" r="8.7"/>
<path class="st7" d="M547.2,289.6c9.3,0,16.8-7.5,16.8-16.8s-7.5-16.8-16.8-16.8s-16.8,7.5-16.8,16.8S537.9,289.6,547.2,289.6z"/>
<circle class="st8" cx="355.4" cy="272.8" r="35.1"/>
<path class="st7" d="M530.4,290.7c9.9,0,17.9-8,17.9-17.9s-8-17.9-17.9-17.9s-17.9,8-17.9,17.9S520.5,290.7,530.4,290.7z"/>
<circle class="st6" cx="521.6" cy="273.4" r="8.7"/>
<path class="st9" d="M500.2,285.4c6.8,0,12.3-5.5,12.3-12.3s-5.5-12.3-12.3-12.3s-12.3,5.5-12.3,12.3S493.4,285.4,500.2,285.4
	L500.2,285.4z"/>
<circle class="st7" cx="307.6" cy="272.8" r="19"/>
<ellipse transform="matrix(0.6154 -0.7882 0.7882 0.6154 17.8986 585.5728)" class="st9" cx="609" cy="274.4" rx="15.2" ry="15.1"/>
<circle class="st6" cx="593.8" cy="273.1" r="8.7"/>
<path class="st9" d="M616.1,286.4c7.5,0,13.5-6.1,13.5-13.5s-6.1-13.5-13.5-13.5s-13.5,6.1-13.5,13.5S608.7,286.4,616.1,286.4z"/>
<path class="st6" d="M648.3,280c4,0,7.2-3.2,7.2-7.2s-3.2-7.2-7.2-7.2s-7.2,3.2-7.2,7.2S644.4,280,648.3,280z"/>
<circle class="st6" cx="173.1" cy="272.8" r="7"/>
<circle class="st10" cx="227.7" cy="273.1" r="4.4"/>
<circle class="st10" cx="197.6" cy="273.1" r="4.4"/>
<path class="st10" d="M564.3,277.5c2.4,0,4.4-2,4.4-4.4s-2-4.4-4.4-4.4s-4.4,2-4.4,4.4S561.9,277.5,564.3,277.5z"/>
<circle class="st10" cx="441.8" cy="273.1" r="4.4"/>
<line class="st1" x1="9" y1="388.6" x2="750.1" y2="388.6"/>
<polyline class="st1" points="746.9,385.6 750.1,388.6 746.9,391.6 "/>
<g class="st2">
	<g>
		<path class="st3" d="M675.2,447.5L675.2,447.5l-0.9,0.5l-0.1-0.5l1.1-0.6h0.6v5.2h-0.7L675.2,447.5L675.2,447.5z"/>
	</g>
</g>
<g class="st2">
	<g>
		<path class="st3" d="M698.7,452.1v-0.4l0.5-0.5c1.3-1.3,1.9-1.9,1.9-2.7c0-0.5-0.3-1-1-1c-0.5,0-0.9,0.2-1.1,0.4l-0.2-0.5
			c0.4-0.3,0.9-0.5,1.5-0.5c1.1,0,1.6,0.8,1.6,1.5c0,1-0.7,1.7-1.8,2.8l-0.4,0.4v0h2.3v0.6L698.7,452.1L698.7,452.1z"/>
	</g>
</g>
<g class="st2">
	<g>
		<path class="st3" d="M37.9,451.3c0.2,0.1,0.7,0.3,1.2,0.3c0.9,0,1.2-0.6,1.2-1c0-0.7-0.7-1-1.3-1h-0.4V449h0.4
			c0.5,0,1.2-0.3,1.2-0.9c0-0.4-0.3-0.8-0.9-0.8c-0.4,0-0.8,0.2-1,0.3l-0.2-0.5c0.3-0.2,0.8-0.4,1.4-0.4c1,0,1.5,0.6,1.5,1.2
			c0,0.5-0.3,1-1,1.2v0c0.6,0.1,1.2,0.6,1.2,1.3c0,0.8-0.7,1.6-1.9,1.6c-0.6,0-1.1-0.2-1.3-0.4L37.9,451.3L37.9,451.3z"/>
	</g>
</g>
<g class="st2">
	<g>
		<path class="st3" d="M66.6,452.1v-1.4h-2.4v-0.5l2.3-3.3h0.8v3.2H68v0.5h-0.7v1.4H66.6L66.6,452.1z M66.6,450.1v-1.7
			c0-0.3,0-0.5,0-0.8h0c-0.2,0.3-0.3,0.5-0.4,0.8l-1.3,1.8v0L66.6,450.1L66.6,450.1z"/>
	</g>
</g>
<g class="st2">
	<g>
		<path class="st3" d="M94.2,447.5h-2l-0.2,1.3c0.1,0,0.2,0,0.4,0c0.4,0,0.8,0.1,1.1,0.3c0.4,0.2,0.7,0.7,0.7,1.3
			c0,1-0.8,1.8-1.9,1.8c-0.6,0-1.1-0.2-1.3-0.3l0.2-0.5c0.2,0.1,0.6,0.3,1.1,0.3c0.7,0,1.2-0.4,1.2-1.1c0-0.7-0.5-1.1-1.5-1.1
			c-0.3,0-0.5,0-0.7,0.1l0.3-2.5h2.5L94.2,447.5L94.2,447.5z"/>
	</g>
</g>
<g class="st2">
	<g>
		<path class="st3" d="M120.8,447.4c-0.1,0-0.3,0-0.5,0c-1.1,0.2-1.7,1-1.8,1.9h0c0.2-0.3,0.7-0.6,1.3-0.6c0.9,0,1.6,0.7,1.6,1.7
			c0,1-0.7,1.8-1.7,1.8s-1.8-0.9-1.8-2.2c0-1,0.4-1.8,0.9-2.3c0.4-0.4,1-0.7,1.7-0.8c0.2,0,0.4,0,0.5,0L120.8,447.4L120.8,447.4z
			 M120.6,450.4c0-0.7-0.4-1.2-1.1-1.2c-0.4,0-0.8,0.3-1,0.6c-0.1,0.1-0.1,0.2-0.1,0.3c0,0.9,0.4,1.5,1.1,1.5
			C120.2,451.6,120.6,451.1,120.6,450.4z"/>
	</g>
</g>
<g class="st2">
	<g>
		<path class="st3" d="M147.9,446.9v0.5l-2.3,4.7h-0.7l2.2-4.6v0h-2.5v-0.6L147.9,446.9L147.9,446.9z"/>
	</g>
</g>
<g class="st2">
	<g>
		<path class="st3" d="M171.1,450.8c0-0.7,0.4-1.1,1-1.4v0c-0.6-0.3-0.8-0.7-0.8-1.2c0-0.8,0.7-1.4,1.6-1.4c1,0,1.5,0.6,1.5,1.3
			c0,0.4-0.2,0.9-0.9,1.2v0c0.6,0.3,1.1,0.7,1.1,1.3c0,0.9-0.8,1.5-1.8,1.5C171.8,452.2,171.1,451.5,171.1,450.8L171.1,450.8z
			 M173.9,450.7c0-0.6-0.4-0.9-1.1-1.1c-0.6,0.2-0.9,0.6-0.9,1.1c0,0.5,0.4,1,1,1S173.9,451.3,173.9,450.7L173.9,450.7z M172,448.1
			c0,0.5,0.4,0.8,1,1c0.4-0.1,0.8-0.5,0.8-0.9c0-0.4-0.2-0.9-0.9-0.9C172.3,447.3,172,447.7,172,448.1L172,448.1z"/>
	</g>
</g>
<g class="st2">
	<g>
		<path class="st3" d="M198.3,451.6c0.1,0,0.3,0,0.6,0c0.4-0.1,0.8-0.2,1.1-0.5c0.3-0.3,0.6-0.8,0.7-1.4h0c-0.3,0.4-0.7,0.6-1.2,0.6
			c-0.9,0-1.5-0.7-1.5-1.6c0-1,0.7-1.9,1.8-1.9s1.7,0.9,1.7,2.2c0,1.1-0.4,1.9-0.9,2.4c-0.4,0.4-0.9,0.6-1.5,0.7c-0.3,0-0.5,0-0.6,0
			L198.3,451.6L198.3,451.6z M198.6,448.6c0,0.6,0.4,1.1,1,1.1c0.5,0,0.8-0.2,1-0.5c0-0.1,0.1-0.1,0.1-0.3c0-0.9-0.3-1.6-1.1-1.6
			C199,447.3,198.6,447.8,198.6,448.6L198.6,448.6z"/>
	</g>
</g>
<g class="st2">
	<g>
		<g>
			<path class="st3" d="M226.1,447.5L226.1,447.5l-0.9,0.5l-0.1-0.5l1.1-0.6h0.6v5.2h-0.7L226.1,447.5L226.1,447.5z"/>
			<path class="st3" d="M232.2,449.4c0,1.8-0.7,2.7-1.8,2.7c-1,0-1.7-1-1.7-2.7c0-1.7,0.8-2.7,1.8-2.7S232.2,447.8,232.2,449.4
				L232.2,449.4z M229.3,449.5c0,1.4,0.4,2.1,1.1,2.1c0.7,0,1.1-0.8,1.1-2.2s-0.3-2.1-1.1-2.1C229.8,447.3,229.3,448.1,229.3,449.5z
				"/>
		</g>
	</g>
</g>
<g class="st2">
	<g>
		<g>
			<path class="st3" d="M257.3,447.5L257.3,447.5l-0.9,0.5l-0.1-0.5l1.1-0.6h0.6v5.2h-0.7L257.3,447.5L257.3,447.5z"/>
			<path class="st3" d="M261.4,447.5L261.4,447.5l-0.9,0.5l-0.1-0.5l1.1-0.6h0.6v5.2h-0.7L261.4,447.5L261.4,447.5z"/>
		</g>
	</g>
</g>
<g class="st2">
	<g>
		<g>
			<path class="st3" d="M288.5,447.5L288.5,447.5l-0.9,0.5l-0.1-0.5l1.1-0.6h0.6v5.2h-0.7L288.5,447.5L288.5,447.5z"/>
			<path class="st3" d="M291.1,452.1v-0.4l0.5-0.5c1.3-1.3,1.9-1.9,1.9-2.7c0-0.5-0.3-1-1-1c-0.5,0-0.9,0.2-1.1,0.4l-0.2-0.5
				c0.4-0.3,0.9-0.5,1.5-0.5c1.1,0,1.6,0.8,1.6,1.5c0,1-0.7,1.7-1.8,2.8l-0.4,0.4v0h2.3v0.6L291.1,452.1L291.1,452.1z"/>
		</g>
	</g>
</g>
<g class="st2">
	<g>
		<g>
			<path class="st3" d="M319.7,447.5L319.7,447.5l-0.9,0.5l-0.1-0.5l1.1-0.6h0.6v5.2h-0.7L319.7,447.5L319.7,447.5z"/>
			<path class="st3" d="M322.4,451.3c0.2,0.1,0.7,0.3,1.1,0.3c0.9,0,1.2-0.6,1.2-1c0-0.7-0.7-1-1.3-1H323V449h0.4
				c0.5,0,1.2-0.3,1.2-0.9c0-0.4-0.3-0.8-0.9-0.8c-0.4,0-0.8,0.2-1,0.3l-0.2-0.5c0.3-0.2,0.8-0.4,1.4-0.4c1,0,1.5,0.6,1.5,1.2
				c0,0.5-0.3,1-1,1.2v0c0.6,0.1,1.2,0.6,1.2,1.3c0,0.8-0.6,1.6-1.9,1.6c-0.6,0-1.1-0.2-1.4-0.4L322.4,451.3L322.4,451.3z"/>
		</g>
	</g>
</g>
<g class="st2">
	<g>
		<g>
			<path class="st3" d="M350.9,447.5L350.9,447.5L350,448l-0.1-0.5l1.1-0.6h0.6v5.2h-0.7L350.9,447.5L350.9,447.5z"/>
			<path class="st3" d="M355.6,452.1v-1.4h-2.4v-0.5l2.3-3.3h0.8v3.2h0.7v0.5h-0.7v1.4H355.6L355.6,452.1z M355.6,450.1v-1.7
				c0-0.3,0-0.5,0-0.8h0c-0.2,0.3-0.3,0.5-0.4,0.8l-1.3,1.8v0L355.6,450.1L355.6,450.1z"/>
		</g>
	</g>
</g>
<g class="st2">
	<g>
		<g>
			<path class="st3" d="M380.4,447.5L380.4,447.5l-0.9,0.5l-0.1-0.5l1.1-0.6h0.6v5.2h-0.7L380.4,447.5L380.4,447.5z"/>
			<path class="st3" d="M386,447.5h-2l-0.2,1.3c0.1,0,0.2,0,0.4,0c0.4,0,0.8,0.1,1.1,0.3c0.4,0.2,0.7,0.7,0.7,1.3
				c0,1-0.8,1.8-1.9,1.8c-0.6,0-1-0.2-1.3-0.3l0.2-0.5c0.2,0.1,0.6,0.3,1.1,0.3c0.7,0,1.2-0.4,1.2-1.1c0-0.7-0.5-1.1-1.5-1.1
				c-0.3,0-0.5,0-0.7,0.1l0.3-2.5h2.5L386,447.5L386,447.5z"/>
		</g>
	</g>
</g>
<g class="st2">
	<g>
		<g>
			<path class="st3" d="M409.8,447.5L409.8,447.5l-0.9,0.5l-0.1-0.5l1.1-0.6h0.6v5.2h-0.7L409.8,447.5L409.8,447.5z"/>
			<path class="st3" d="M415.4,447.4c-0.1,0-0.3,0-0.5,0c-1.1,0.2-1.7,1-1.8,1.9h0c0.2-0.3,0.7-0.6,1.2-0.6c0.9,0,1.6,0.7,1.6,1.7
				c0,1-0.6,1.8-1.7,1.8s-1.8-0.9-1.8-2.2c0-1,0.4-1.8,0.9-2.3c0.4-0.4,1-0.7,1.7-0.8c0.2,0,0.4,0,0.5,0L415.4,447.4L415.4,447.4z
				 M415.2,450.4c0-0.7-0.4-1.2-1.1-1.2c-0.4,0-0.8,0.3-1,0.6c0,0.1-0.1,0.2-0.1,0.3c0,0.9,0.4,1.5,1.1,1.5
				C414.8,451.6,415.2,451.1,415.2,450.4z"/>
		</g>
	</g>
</g>
<g class="st2">
	<g>
		<g>
			<path class="st3" d="M439.3,447.5L439.3,447.5l-0.9,0.5l-0.1-0.5l1.1-0.6h0.6v5.2h-0.7L439.3,447.5L439.3,447.5z"/>
			<path class="st3" d="M445.3,446.9v0.5l-2.3,4.7h-0.7l2.2-4.6v0H442v-0.6L445.3,446.9L445.3,446.9z"/>
		</g>
	</g>
</g>
<g class="st2">
	<g>
		<g>
			<path class="st3" d="M468.8,447.5L468.8,447.5l-0.9,0.5l-0.1-0.5l1.1-0.6h0.6v5.2h-0.7L468.8,447.5L468.8,447.5z"/>
			<path class="st3" d="M471.3,450.8c0-0.7,0.4-1.1,1-1.4v0c-0.6-0.3-0.8-0.7-0.8-1.2c0-0.8,0.7-1.4,1.6-1.4c1,0,1.5,0.6,1.5,1.3
				c0,0.4-0.2,0.9-0.9,1.2v0c0.6,0.3,1,0.7,1,1.3c0,0.9-0.8,1.5-1.8,1.5C472,452.2,471.3,451.5,471.3,450.8L471.3,450.8z
				 M474.1,450.7c0-0.6-0.4-0.9-1.1-1.1c-0.6,0.2-0.9,0.6-0.9,1.1c0,0.5,0.4,1,1,1S474.1,451.3,474.1,450.7z M472.2,448.1
				c0,0.5,0.4,0.8,1,1c0.5-0.1,0.8-0.5,0.8-0.9c0-0.4-0.2-0.9-0.9-0.9C472.5,447.3,472.2,447.7,472.2,448.1L472.2,448.1z"/>
		</g>
	</g>
</g>
<g class="st2">
	<g>
		<g>
			<path class="st3" d="M498.3,447.5L498.3,447.5l-0.9,0.5l-0.1-0.5l1.1-0.6h0.6v5.2h-0.7L498.3,447.5L498.3,447.5z"/>
			<path class="st3" d="M501.3,451.6c0.1,0,0.3,0,0.6,0c0.4-0.1,0.8-0.2,1.1-0.5c0.3-0.3,0.6-0.8,0.7-1.4h0
				c-0.3,0.4-0.7,0.6-1.2,0.6c-0.9,0-1.5-0.7-1.5-1.6c0-1,0.7-1.9,1.8-1.9s1.7,0.9,1.7,2.2c0,1.1-0.4,1.9-0.9,2.4
				c-0.4,0.4-1,0.6-1.5,0.7c-0.3,0-0.5,0-0.6,0V451.6L501.3,451.6z M501.5,448.6c0,0.6,0.4,1.1,1,1.1c0.5,0,0.8-0.2,1-0.5
				c0-0.1,0.1-0.1,0.1-0.3c0-0.9-0.3-1.6-1.1-1.6C502,447.3,501.5,447.8,501.5,448.6L501.5,448.6z"/>
		</g>
	</g>
</g>
<g class="st2">
	<g>
		<g>
			<path class="st3" d="M526.3,452.1v-0.4l0.5-0.5c1.3-1.3,1.9-1.9,1.9-2.7c0-0.5-0.3-1-1-1c-0.5,0-0.9,0.2-1.1,0.4l-0.2-0.5
				c0.4-0.3,0.9-0.5,1.5-0.5c1.1,0,1.6,0.8,1.6,1.5c0,1-0.7,1.7-1.8,2.8l-0.4,0.4v0h2.3v0.6L526.3,452.1L526.3,452.1z"/>
			<path class="st3" d="M533.8,449.4c0,1.8-0.7,2.7-1.8,2.7c-1,0-1.7-1-1.7-2.7c0-1.7,0.8-2.7,1.8-2.7S533.8,447.8,533.8,449.4
				L533.8,449.4z M531,449.5c0,1.4,0.4,2.1,1.1,2.1c0.7,0,1.1-0.8,1.1-2.2s-0.3-2.1-1.1-2.1C531.4,447.3,531,448.1,531,449.5z"/>
		</g>
	</g>
</g>
<g class="st2">
	<g>
		<g>
			<path class="st3" d="M555.7,452.1v-0.4l0.5-0.5c1.3-1.3,1.9-1.9,1.9-2.7c0-0.5-0.3-1-1-1c-0.5,0-0.9,0.2-1.1,0.4l-0.2-0.5
				c0.4-0.3,0.9-0.5,1.5-0.5c1.1,0,1.6,0.8,1.6,1.5c0,1-0.7,1.7-1.8,2.8l-0.4,0.4v0h2.3v0.6L555.7,452.1L555.7,452.1z"/>
			<path class="st3" d="M561.4,447.5L561.4,447.5l-0.9,0.5l-0.1-0.5l1.1-0.6h0.6v5.2h-0.7L561.4,447.5L561.4,447.5z"/>
		</g>
	</g>
</g>
<g class="st2">
	<g>
		<g>
			<path class="st3" d="M585.2,452.1v-0.4l0.5-0.5c1.3-1.3,1.9-1.9,1.9-2.7c0-0.5-0.3-1-1-1c-0.5,0-0.9,0.2-1.1,0.4l-0.2-0.5
				c0.4-0.3,0.9-0.5,1.5-0.5c1.1,0,1.6,0.8,1.6,1.5c0,1-0.7,1.7-1.8,2.8l-0.4,0.4v0h2.3v0.6L585.2,452.1L585.2,452.1z"/>
			<path class="st3" d="M589.3,452.1v-0.4l0.5-0.5c1.3-1.3,1.9-1.9,1.9-2.7c0-0.5-0.3-1-1-1c-0.5,0-0.9,0.2-1.1,0.4l-0.2-0.5
				c0.4-0.3,0.9-0.5,1.5-0.5c1.1,0,1.6,0.8,1.6,1.5c0,1-0.7,1.7-1.8,2.8l-0.4,0.4v0h2.3v0.6L589.3,452.1L589.3,452.1z"/>
		</g>
	</g>
</g>
<g class="st2">
	<g>
		<g>
			<path class="st3" d="M614.7,452.1v-0.4l0.5-0.5c1.3-1.3,1.9-1.9,1.9-2.7c0-0.5-0.3-1-1-1c-0.5,0-0.9,0.2-1.1,0.4l-0.2-0.5
				c0.4-0.3,0.9-0.5,1.5-0.5c1.1,0,1.6,0.8,1.6,1.5c0,1-0.7,1.7-1.8,2.8l-0.4,0.4v0h2.3v0.6L614.7,452.1L614.7,452.1z"/>
			<path class="st3" d="M619,451.3c0.2,0.1,0.7,0.3,1.2,0.3c0.9,0,1.2-0.6,1.2-1c0-0.7-0.7-1-1.3-1h-0.4V449h0.4
				c0.5,0,1.2-0.3,1.2-0.9c0-0.4-0.3-0.8-0.9-0.8c-0.4,0-0.8,0.2-1,0.3l-0.2-0.5c0.3-0.2,0.8-0.4,1.4-0.4c1,0,1.5,0.6,1.5,1.2
				c0,0.5-0.3,1-1,1.2v0c0.6,0.1,1.2,0.6,1.2,1.3c0,0.8-0.7,1.6-1.9,1.6c-0.6,0-1.1-0.2-1.3-0.4L619,451.3L619,451.3z"/>
		</g>
	</g>
</g>
<g class="st2">
	<g>
		<g>
			<path class="st3" d="M644.2,452.1v-0.4l0.5-0.5c1.3-1.3,1.9-1.9,1.9-2.7c0-0.5-0.3-1-1-1c-0.5,0-0.9,0.2-1.1,0.4l-0.2-0.5
				c0.4-0.3,0.9-0.5,1.5-0.5c1.1,0,1.6,0.8,1.6,1.5c0,1-0.7,1.7-1.8,2.8l-0.4,0.4v0h2.3v0.6L644.2,452.1L644.2,452.1z"/>
			<path class="st3" d="M650.5,452.1v-1.4h-2.4v-0.5l2.3-3.3h0.8v3.2h0.7v0.5h-0.7v1.4H650.5L650.5,452.1z M650.5,450.1v-1.7
				c0-0.3,0-0.5,0-0.8h0c-0.2,0.3-0.3,0.5-0.4,0.8l-1.3,1.8v0L650.5,450.1L650.5,450.1z"/>
		</g>
	</g>
</g>
<g class="st4">
	<g>
		<path class="st3" d="M362.2,469.3c4.8,0,8.8-36.1,8.8-80.7S367,308,362.2,308s-8.8,36.1-8.8,80.7S357.4,469.3,362.2,469.3"/>
	</g>
</g>
<path class="st5" d="M322.3,400.2c6.4,0,11.6-5.2,11.6-11.6s-5.2-11.6-11.6-11.6s-11.6,5.2-11.6,11.6S315.9,400.2,322.3,400.2z"/>
<circle class="st6" cx="335.5" cy="389.1" r="8.7"/>
<path class="st7" d="M546.1,406.5c9.9,0,17.9-8,17.9-17.9s-8-17.9-17.9-17.9s-17.9,8-17.9,17.9S536.2,406.5,546.1,406.5z"/>
<circle class="st11" cx="515.2" cy="388.9" r="6.5"/>
<circle class="st9" cx="339.2" cy="388.6" r="12.5"/>
<path class="st9" d="M585.5,402.2c7.5,0,13.5-6.1,13.5-13.5s-6.1-13.5-13.5-13.5s-13.5,6.1-13.5,13.5S578,402.2,585.5,402.2z"/>
<circle class="st6" cx="648.3" cy="388.8" r="8.7"/>
<path class="st9" d="M600.8,402.2c7.5,0,13.5-6.1,13.5-13.5s-6.1-13.5-13.5-13.5s-13.5,6.1-13.5,13.5S593.3,402.2,600.8,402.2z"/>
<circle class="st10" cx="278.7" cy="388.9" r="4.4"/>
<circle class="st10" cx="441.8" cy="388.9" r="4.4"/>
<g>
	<path class="st3" d="M9.5,149h2.2v0.4H10v1.3h1.5v0.4H10v1.8H9.5L9.5,149L9.5,149z"/>
	<path class="st3" d="M12.9,149v2.4c0,0.9,0.4,1.3,0.9,1.3c0.6,0,1-0.4,1-1.3V149h0.5v2.4c0,1.2-0.6,1.8-1.5,1.8
		c-0.8,0-1.4-0.5-1.4-1.7V149H12.9z"/>
	<path class="st3" d="M16.3,149h0.5v3.6h1.7v0.4h-2.2V149L16.3,149z"/>
	<path class="st3" d="M19.1,149h0.5v3.6h1.7v0.4h-2.2V149L19.1,149z"/>
	<path class="st3" d="M23.6,153l-1-4h0.5l0.5,2c0.1,0.5,0.2,1,0.3,1.4h0c0.1-0.4,0.2-0.9,0.3-1.4l0.5-2h0.5l0.5,2.1
		c0.1,0.5,0.2,1,0.3,1.4h0c0.1-0.4,0.2-0.9,0.3-1.4l0.5-2h0.5l-1.1,4h-0.5l-0.5-2.1c-0.1-0.5-0.2-0.9-0.3-1.3h0
		c-0.1,0.4-0.2,0.8-0.3,1.3l-0.6,2.1L23.6,153L23.6,153z"/>
	<path class="st3" d="M31.5,151c0,1.4-0.9,2.1-1.9,2.1s-1.8-0.8-1.8-2.1s0.8-2.1,1.9-2.1S31.5,149.8,31.5,151z M28.4,151
		c0,0.9,0.5,1.6,1.3,1.6s1.3-0.8,1.3-1.7c0-0.8-0.4-1.6-1.3-1.6S28.4,150.2,28.4,151L28.4,151z"/>
	<path class="st3" d="M32.2,149c0.3-0.1,0.6-0.1,1-0.1c0.6,0,0.9,0.1,1.2,0.3c0.2,0.2,0.3,0.5,0.3,0.8c0,0.5-0.3,0.9-0.8,1v0
		c0.3,0.1,0.5,0.4,0.6,0.8c0.1,0.6,0.2,0.9,0.3,1.1h-0.5c-0.1-0.1-0.2-0.5-0.3-1c-0.1-0.6-0.3-0.8-0.8-0.8h-0.5v1.8h-0.5L32.2,149
		L32.2,149z M32.7,150.9h0.5c0.6,0,0.9-0.3,0.9-0.8c0-0.5-0.4-0.8-0.9-0.8c-0.2,0-0.4,0-0.5,0.1L32.7,150.9L32.7,150.9z"/>
	<path class="st3" d="M35.4,149h0.5v1.9h0c0.1-0.2,0.2-0.3,0.3-0.4l1.2-1.5h0.7l-1.5,1.7l1.6,2.3h-0.6l-1.3-2l-0.4,0.4v1.5h-0.5
		L35.4,149L35.4,149z"/>
	<path class="st3" d="M40,149c0.3-0.1,0.7-0.1,1.1-0.1c0.8,0,1.3,0.2,1.6,0.5s0.6,0.8,0.6,1.4s-0.2,1.2-0.6,1.6
		c-0.4,0.4-1,0.6-1.8,0.6c-0.4,0-0.7,0-1-0.1L40,149L40,149z M40.5,152.6c0.1,0,0.3,0,0.5,0c1.1,0,1.7-0.6,1.7-1.7
		c0-0.9-0.5-1.6-1.6-1.6c-0.3,0-0.5,0-0.6,0.1V152.6z"/>
	<path class="st3" d="M44.5,151.8l-0.4,1.3h-0.5l1.4-4h0.6l1.4,4h-0.6l-0.4-1.3H44.5z M45.9,151.3l-0.4-1.2
		c-0.1-0.3-0.2-0.5-0.2-0.7h0c-0.1,0.2-0.1,0.5-0.2,0.7l-0.4,1.2L45.9,151.3L45.9,151.3z"/>
	<path class="st3" d="M48,153v-1.7l-1.3-2.3h0.6l0.6,1.1c0.2,0.3,0.3,0.6,0.4,0.8h0c0.1-0.3,0.2-0.5,0.4-0.8l0.6-1.1h0.6l-1.4,2.3
		v1.7H48L48,153z"/>
	<path class="st3" d="M50.2,152.4c0.2,0.1,0.6,0.3,0.9,0.3c0.5,0,0.8-0.3,0.8-0.7c0-0.4-0.2-0.6-0.8-0.8c-0.7-0.2-1.1-0.6-1.1-1.1
		c0-0.6,0.5-1.1,1.3-1.1c0.4,0,0.7,0.1,0.9,0.2l-0.1,0.4c-0.1-0.1-0.4-0.2-0.8-0.2c-0.5,0-0.8,0.3-0.8,0.6c0,0.4,0.2,0.6,0.8,0.8
		c0.7,0.3,1,0.6,1,1.2c0,0.6-0.5,1.2-1.4,1.2c-0.4,0-0.8-0.1-1-0.3L50.2,152.4L50.2,152.4z"/>
</g>
<g>
	<path class="st3" d="M10,263.6v2.4c0,0.9,0.4,1.3,0.9,1.3c0.6,0,1-0.4,1-1.3v-2.4h0.5v2.4c0,1.2-0.6,1.8-1.5,1.8
		c-0.8,0-1.4-0.5-1.4-1.7v-2.4L10,263.6L10,263.6z"/>
	<path class="st3" d="M13.3,267.7v-4h0.6l1.3,2c0.3,0.5,0.5,0.9,0.7,1.3h0c-0.1-0.5-0.1-1-0.1-1.7v-1.7h0.5v4h-0.5l-1.3-2
		c-0.3-0.5-0.6-0.9-0.8-1.4h0c0,0.5,0,1,0,1.7v1.7L13.3,267.7L13.3,267.7z"/>
	<path class="st3" d="M17.8,263.6v4h-0.5v-4H17.8z"/>
	<path class="st3" d="M19.6,267.7l-1.3-4h0.6l0.6,2c0.2,0.5,0.3,1,0.4,1.5h0c0.1-0.5,0.3-1,0.5-1.5l0.7-2h0.6l-1.5,4H19.6
		L19.6,267.7z"/>
	<path class="st3" d="M24.2,265.8h-1.6v1.5h1.8v0.4h-2.3v-4h2.2v0.4h-1.7v1.3h1.6V265.8L24.2,265.8z"/>
	<path class="st3" d="M25,263.7c0.3,0,0.6-0.1,1-0.1c0.6,0,0.9,0.1,1.2,0.3c0.2,0.2,0.3,0.5,0.3,0.8c0,0.5-0.3,0.9-0.8,1v0
		c0.3,0.1,0.5,0.4,0.6,0.8c0.1,0.6,0.2,1,0.3,1.1h-0.5c-0.1-0.1-0.2-0.5-0.3-1c-0.1-0.6-0.3-0.8-0.8-0.8h-0.5v1.8H25L25,263.7
		L25,263.7z M25.5,265.5h0.5c0.6,0,0.9-0.3,0.9-0.8c0-0.5-0.4-0.8-0.9-0.8c-0.2,0-0.4,0-0.5,0L25.5,265.5L25.5,265.5z"/>
	<path class="st3" d="M28.2,267c0.2,0.1,0.6,0.3,0.9,0.3c0.5,0,0.9-0.3,0.9-0.7c0-0.4-0.2-0.6-0.8-0.8c-0.7-0.2-1.1-0.6-1.1-1.1
		c0-0.6,0.5-1.1,1.3-1.1c0.4,0,0.7,0.1,0.9,0.2l-0.1,0.4c-0.1-0.1-0.4-0.2-0.8-0.2c-0.5,0-0.8,0.3-0.8,0.6c0,0.4,0.2,0.6,0.8,0.8
		c0.7,0.3,1,0.6,1,1.2c0,0.6-0.5,1.2-1.4,1.2c-0.4,0-0.8-0.1-1-0.3C28,267.5,28.2,267,28.2,267z"/>
	<path class="st3" d="M31.7,263.6v4h-0.5v-4H31.7z"/>
	<path class="st3" d="M33.4,264.1h-1.2v-0.4h3v0.4h-1.2v3.6h-0.5L33.4,264.1L33.4,264.1z"/>
	<path class="st3" d="M36.7,267.7V266l-1.3-2.3H36l0.6,1.1c0.2,0.3,0.3,0.5,0.4,0.8h0c0.1-0.3,0.2-0.5,0.4-0.8l0.6-1.1h0.6l-1.4,2.3
		v1.7L36.7,267.7L36.7,267.7z"/>
	<path class="st3" d="M40.3,263.7c0.3,0,0.7-0.1,1.1-0.1c0.8,0,1.3,0.2,1.6,0.5s0.6,0.8,0.6,1.5s-0.2,1.2-0.6,1.6
		c-0.4,0.4-1,0.6-1.8,0.6c-0.4,0-0.7,0-1,0L40.3,263.7L40.3,263.7z M40.8,267.2c0.1,0,0.3,0,0.5,0c1.1,0,1.7-0.6,1.7-1.7
		c0-1-0.5-1.6-1.6-1.6c-0.3,0-0.5,0-0.6,0V267.2z"/>
	<path class="st3" d="M44.9,266.4l-0.4,1.3h-0.5l1.4-4h0.6l1.4,4h-0.6l-0.4-1.3H44.9z M46.2,266l-0.4-1.2c-0.1-0.3-0.2-0.5-0.2-0.7
		h0c-0.1,0.2-0.1,0.5-0.2,0.7L45,266L46.2,266L46.2,266z"/>
	<path class="st3" d="M48.3,267.7V266l-1.3-2.3h0.6l0.6,1.1c0.2,0.3,0.3,0.5,0.4,0.8h0c0.1-0.3,0.2-0.5,0.4-0.8l0.6-1.1h0.6
		l-1.4,2.3v1.7L48.3,267.7L48.3,267.7z"/>
	<path class="st3" d="M50.5,267c0.2,0.1,0.6,0.3,0.9,0.3c0.5,0,0.8-0.3,0.8-0.7c0-0.4-0.2-0.6-0.8-0.8c-0.7-0.2-1.1-0.6-1.1-1.1
		c0-0.6,0.5-1.1,1.3-1.1c0.4,0,0.7,0.1,0.9,0.2l-0.1,0.4c-0.1-0.1-0.4-0.2-0.8-0.2c-0.5,0-0.8,0.3-0.8,0.6c0,0.4,0.2,0.6,0.8,0.8
		c0.7,0.3,1,0.6,1,1.2c0,0.6-0.5,1.2-1.4,1.2c-0.4,0-0.8-0.1-1-0.3C50.4,267.5,50.5,267,50.5,267z"/>
</g>
<g>
	<path class="st3" d="M10.1,383.4l-1-4h0.6l0.5,2c0.1,0.5,0.2,1,0.3,1.4h0c0.1-0.4,0.2-0.9,0.3-1.4l0.5-2h0.6l0.5,2
		c0.1,0.5,0.2,1,0.3,1.4h0c0.1-0.4,0.2-0.9,0.3-1.4l0.5-2H14l-1.1,4h-0.6l-0.5-2.1c-0.1-0.5-0.2-0.9-0.3-1.3h0
		c-0.1,0.4-0.2,0.8-0.3,1.3l-0.6,2.1H10.1L10.1,383.4z"/>
	<path class="st3" d="M16.6,381.5h-1.6v1.5h1.8v0.4h-2.3v-4h2.2v0.4h-1.7v1.3h1.6V381.5L16.6,381.5z"/>
	<path class="st3" d="M19.6,381.5H18v1.5h1.8v0.4h-2.3v-4h2.2v0.4H18v1.3h1.6V381.5L19.6,381.5z"/>
	<path class="st3" d="M20.4,379.4H21v2h0c0.1-0.2,0.2-0.3,0.3-0.4l1.2-1.5h0.6l-1.5,1.7l1.6,2.3h-0.6l-1.3-2l-0.4,0.4v1.5h-0.5
		L20.4,379.4L20.4,379.4z"/>
	<path class="st3" d="M25.8,381.5h-1.6v1.5H26v0.4h-2.3v-4h2.2v0.4h-1.7v1.3h1.6V381.5L25.8,381.5z"/>
	<path class="st3" d="M26.6,383.4v-4h0.6l1.3,2c0.3,0.5,0.5,0.9,0.7,1.3h0c0-0.5-0.1-1-0.1-1.7v-1.7h0.5v4h-0.5l-1.3-2
		c-0.3-0.5-0.5-0.9-0.8-1.4h0c0,0.5,0,1,0,1.7v1.7L26.6,383.4L26.6,383.4z"/>
	<path class="st3" d="M30.6,379.5c0.3,0,0.7-0.1,1.1-0.1c0.8,0,1.3,0.2,1.6,0.5s0.6,0.8,0.6,1.5s-0.2,1.2-0.6,1.6
		c-0.4,0.4-1,0.6-1.8,0.6c-0.4,0-0.7,0-1,0L30.6,379.5L30.6,379.5z M31.1,383c0.1,0,0.3,0,0.5,0c1.1,0,1.7-0.6,1.7-1.7
		c0-1-0.5-1.6-1.6-1.6c-0.3,0-0.5,0-0.6,0V383z"/>
	<path class="st3" d="M34.5,382.8c0.2,0.1,0.6,0.3,0.9,0.3c0.5,0,0.8-0.3,0.8-0.7c0-0.4-0.2-0.6-0.8-0.8c-0.7-0.2-1.1-0.6-1.1-1.1
		c0-0.6,0.5-1.1,1.3-1.1c0.4,0,0.7,0.1,0.9,0.2l-0.1,0.4c-0.1-0.1-0.4-0.2-0.8-0.2c-0.5,0-0.8,0.3-0.8,0.6c0,0.4,0.2,0.6,0.8,0.8
		c0.7,0.3,1,0.6,1,1.2c0,0.6-0.5,1.2-1.4,1.2c-0.4,0-0.8-0.1-1-0.3C34.4,383.2,34.5,382.8,34.5,382.8z"/>
</g>
<ellipse transform="matrix(0.8112 -0.5847 0.5847 0.8112 -58.4862 364.5002)" class="st8" cx="535.3" cy="272.8" rx="35.1" ry="35.1"/>
<path class="st5" d="M146.4,175.5c10.2,0,18.5-8.3,18.5-18.5s-8.3-18.5-18.5-18.5s-18.5,8.3-18.5,18.5S136.2,175.5,146.4,175.5z"/>
<path class="st5" d="M135.9,170.9c7.7,0,13.9-6.2,13.9-13.9s-6.2-13.9-13.9-13.9S122,149.4,122,157S128.2,170.9,135.9,170.9z"/>
<circle class="st5" cx="193.2" cy="157" r="22.2"/>
<circle class="st5" cx="208.8" cy="157" r="6.7"/>
<path class="st5" d="M223.4,172c8,0,14.4-6.5,14.4-14.4s-6.5-14.4-14.4-14.4s-14.4,6.5-14.4,14.4S215.4,172,223.4,172L223.4,172z"/>
<path class="st5" d="M322.3,168.6c6.4,0,11.6-5.2,11.6-11.6s-5.2-11.6-11.6-11.6s-11.6,5.2-11.6,11.6S315.9,168.6,322.3,168.6z"/>
<path class="st9" d="M475.9,201.2c0,0,0.1-0.1,0.2,0c0,0.1,0.1,0.1,0.2,0c0-0.1,0.1-0.1,0.2,0c0,0.1,0.1,0.1,0.2,0
	c0-0.1,0.1-0.1,0.2,0c0,0.1,0.1,0.1,0.2,0c0-0.1,0.1-0.1,0.2,0c0,0.1,0.1,0,0.2,0s0.1-0.1,0.2,0s0.1,0,0.2,0c0-0.1,0.1-0.1,0.2,0
	s0.1,0,0.2,0c0-0.1,0.1-0.1,0.2,0c0,0,0.1,0,0.2,0c0-0.1,0.1-0.1,0.2,0c0,0.1,0.1,0,0.2,0c0-0.1,0.1-0.1,0.2,0c0,0.1,0.1,0,0.2,0
	c0-0.1,0.1-0.1,0.2,0s0.1,0,0.2,0c0-0.1,0.1-0.1,0.2,0c0,0,0.1,0,0.2,0c0-0.1,0.1-0.1,0.2,0c0,0,0.1,0,0.2,0c0-0.1,0.1-0.1,0.2,0
	s0.1,0,0.2,0c0-0.1,0.1-0.1,0.2,0c0,0,0.1,0,0.2,0c0-0.1,0.1-0.1,0.2,0c0,0,0.1,0,0.2,0s0.1-0.1,0.2,0c0,0,0.1,0,0.2,0
	s0.1-0.1,0.2,0c0.1,0,0.1,0,0.2,0c0-0.1,0.1-0.1,0.2,0c0.1,0,0.1,0,0.2,0c0-0.1,0.1-0.1,0.2,0c0.1,0,0.1,0,0.2,0
	c0-0.1,0.1-0.1,0.2,0c0.1,0,0.1,0,0.2,0c0-0.1,0.1-0.1,0.2,0c0.1,0,0.1,0,0.2,0s0.1-0.1,0.2,0c0.1,0,0.1,0,0.2,0s0.1-0.1,0.2,0
	c0.1,0,0.1,0,0.2,0s0.1-0.1,0.2,0c0.1,0,0.1,0,0.2,0s0.1-0.1,0.2,0c0.1,0,0.1,0,0.2,0s0.1-0.1,0.2,0c0.1,0,0.1,0,0.2-0.1
	s0.1-0.1,0.2-0.1c0.1,0,0.1,0,0.2-0.1s0.1-0.1,0.2-0.1c0.1,0,0.1,0,0.2-0.1s0.1-0.1,0.2-0.1s0.1,0,0.2-0.1c0-0.1,0.1-0.1,0.2-0.1
	s0.1,0,0.2-0.1c0-0.1,0.1-0.1,0.2-0.1c0.1,0,0.1,0,0.2-0.1s0.1-0.1,0.2-0.1c0.1,0,0.1,0,0.2-0.1c0-0.1,0.1-0.1,0.2-0.1
	s0.1,0,0.2-0.1c0-0.1,0.1-0.1,0.2-0.1s0.2,0,0.2-0.1s0.1-0.1,0.2-0.1c0.1,0,0.2,0,0.2-0.1s0.1-0.1,0.2-0.1c0.1,0,0.1,0,0.2-0.1
	c0-0.1,0.1-0.1,0.2-0.1c0.1,0,0.2,0,0.2-0.1s0.1-0.1,0.2-0.1s0.2,0,0.2-0.1c0-0.1,0.1-0.1,0.2-0.1s0.1,0,0.2-0.1
	c0-0.1,0.1-0.1,0.2-0.1s0.2,0,0.2-0.1c0-0.1,0.1-0.1,0.2-0.1s0.1,0,0.2-0.1c0-0.1,0.1-0.1,0.2-0.1s0.1,0,0.2-0.1
	c0-0.1,0.1-0.1,0.2-0.1s0.1,0,0.2-0.1c0-0.1,0.1-0.1,0.2-0.1s0.1,0,0.2-0.1c0-0.1,0.1-0.1,0.2-0.1c0.1,0,0.1,0,0.2-0.1
	c0-0.1,0.1-0.1,0.2-0.1s0.1,0,0.2-0.1c0-0.1,0.1-0.1,0.2-0.1s0.1,0,0.2-0.1c0-0.1,0.1-0.1,0.2-0.1s0.1,0,0.2-0.1
	c0-0.1,0.1-0.1,0.2-0.1c0.1,0,0.1,0,0.2-0.1c0-0.1,0.1-0.1,0.2-0.1s0.1,0,0.2-0.1s0.1-0.1,0.2-0.1c0.1,0,0.1,0,0.2-0.1
	c0-0.1,0.1-0.1,0.2-0.1s0.1,0,0.2-0.1c0-0.1,0.1-0.1,0.2-0.1s0.1,0,0.2-0.1c0-0.1,0.1-0.1,0.2-0.1c0.1,0,0.1,0,0.2-0.1
	c0-0.1,0.1-0.1,0.2-0.1c0.1,0,0.1,0,0.2-0.1c0-0.1,0.1-0.1,0.2-0.1c0.1,0,0.1,0,0.2-0.1c0-0.1,0.1-0.1,0.2-0.1c0.1,0,0.1,0,0.2-0.1
	c0-0.1,0.1-0.1,0.2-0.1c0.1,0,0.1,0,0.2-0.1c0-0.1,0.1-0.1,0.2-0.1c0.1,0,0.1,0,0.2-0.1c0-0.1,0.1-0.1,0.2-0.1c0.1,0,0.1,0,0.2-0.1
	c0-0.1,0.1-0.1,0.2-0.1c0.1,0,0.1,0,0.2-0.1c0-0.1,0.1-0.1,0.2-0.1c0.1,0,0.1,0,0.2-0.1c0-0.1,0.1-0.1,0.2-0.1c0.1,0,0.1,0,0.2-0.1
	c0-0.1,0.1-0.1,0.2-0.1c0.1,0,0.1,0,0.2-0.1c0-0.1,0.1-0.1,0.2-0.1c0.1,0,0.1,0,0.2-0.1s0.1-0.1,0.2-0.1s0.1,0,0.2-0.1
	c0-0.1,0.1-0.1,0.2-0.1s0.1,0,0.2-0.1s0.1-0.1,0.2-0.1s0.1,0,0.2-0.1s0.1-0.1,0.2-0.1s0.1,0,0.2-0.1s0.1-0.1,0.2-0.1
	c0.1,0,0.1-0.1,0.2-0.1c0-0.1,0.1-0.1,0.2-0.1c0.1,0,0.1-0.1,0.2-0.1c0-0.1,0.1-0.1,0.2-0.1c0.1,0,0.1-0.1,0.2-0.1
	c0-0.1,0.1-0.1,0.2-0.1c0.1,0,0.1-0.1,0.2-0.1s0.1-0.1,0.2-0.1c0.1,0,0.1-0.1,0.2-0.1s0.1-0.1,0.2-0.1s0.1-0.1,0.1-0.1
	c0-0.1,0.1-0.1,0.1-0.1c0.1,0,0.1-0.1,0.1-0.1c0-0.1,0.1-0.1,0.1-0.1c0.1,0,0.1-0.1,0.1-0.1c0-0.1,0.1-0.1,0.1-0.1
	c0.1,0,0.1-0.1,0.1-0.1c0-0.1,0.1-0.1,0.1-0.1s0.1-0.1,0.1-0.1s0.1-0.1,0.1-0.1s0.1-0.1,0.1-0.1c0-0.1,0.1-0.1,0.1-0.1
	s0.1-0.1,0.1-0.1s0.1-0.1,0.1-0.1s0.1-0.1,0.1-0.1c0-0.1,0.1-0.1,0.1-0.1s0.1-0.1,0.1-0.1c0-0.1,0.1-0.1,0.1-0.1
	c0.1,0,0.1-0.1,0.1-0.1c0-0.1,0.1-0.1,0.1-0.1c0.1,0,0.1-0.1,0.1-0.1c0-0.1,0.1-0.1,0.1-0.1c0.1,0,0.1-0.1,0.1-0.1s0.1-0.1,0.1-0.1
	s0.1-0.1,0.1-0.1c0-0.1,0.1-0.1,0.1-0.1s0.1-0.1,0.1-0.1c0-0.1,0.1-0.1,0.1-0.1s0.1-0.1,0.1-0.1c0-0.1,0.1-0.1,0.1-0.1
	s0.1-0.1,0.1-0.1c0-0.1,0.1-0.1,0.1-0.1s0.1-0.1,0.1-0.1c0-0.1,0.1-0.1,0.1-0.1s0.1-0.1,0.1-0.1c0-0.1,0.1-0.1,0.1-0.1
	c0.1,0,0.1-0.1,0.1-0.1c0-0.1,0.1-0.1,0.1-0.1c0.1,0,0.1-0.1,0.1-0.1c0-0.1,0.1-0.1,0.1-0.1c0.1,0,0.1-0.1,0.1-0.1s0.1-0.1,0.1-0.1
	c0.1,0,0.1-0.1,0.1-0.1c0-0.1,0.1-0.1,0.1-0.1c0.1,0,0.1-0.1,0.1-0.1c0-0.1,0.1-0.1,0.1-0.1c0.1,0,0.1-0.1,0.1-0.1
	c0-0.1,0.1-0.1,0.1-0.1c0.1,0,0.1-0.1,0.1-0.1c0-0.1,0-0.1,0.1-0.1c0.1,0,0.1-0.1,0.1-0.1c0-0.1,0-0.1,0.1-0.1s0.1-0.1,0.1-0.1
	c0-0.1,0-0.1,0.1-0.1s0.1-0.1,0.1-0.1c0-0.1,0-0.1,0.1-0.2c0.1,0,0.1-0.1,0.1-0.2c0-0.1,0-0.1,0.1-0.2c0.1,0,0.1-0.1,0.1-0.2
	c0-0.1,0-0.1,0.1-0.2c0.1,0,0.1-0.1,0.1-0.2s0-0.1,0.1-0.2c0.1,0,0.1-0.1,0.1-0.2s0-0.1,0.1-0.2c0.1,0,0.1-0.1,0.1-0.2
	c0-0.1,0-0.1,0.1-0.2c0.1,0,0.1-0.1,0.1-0.2s0-0.1,0.1-0.2c0.1,0,0.1-0.1,0.1-0.2s0-0.1,0.1-0.2c0.1,0,0.1-0.1,0.1-0.2
	s0-0.1,0.1-0.2c0.1,0,0.1-0.1,0.1-0.2c0-0.1,0-0.1,0.1-0.2c0.1,0,0.1-0.1,0.1-0.2c0-0.1,0-0.1,0.1-0.2c0.1,0,0.1-0.1,0.1-0.2
	c0-0.1,0-0.1,0.1-0.2c0.1,0,0.1-0.1,0.1-0.2c0-0.1,0-0.1,0.1-0.2c0.1,0,0.1-0.1,0.1-0.2c0-0.1,0-0.1,0.1-0.2s0.1-0.1,0.1-0.2
	c0-0.1,0-0.1,0.1-0.2c0.1,0,0.1-0.1,0.1-0.2c0-0.1,0-0.1,0.1-0.2c0.1,0,0.1-0.1,0.1-0.2c0-0.1,0-0.1,0.1-0.2c0.1,0,0.1-0.1,0.1-0.2
	c0-0.1,0-0.1,0.1-0.2c0.1,0,0.1-0.1,0.1-0.2c0-0.1,0-0.1,0.1-0.2c0.1,0,0.1-0.1,0.1-0.2c0-0.1,0-0.1,0.1-0.2c0.1,0,0.1-0.1,0.1-0.2
	c0-0.1,0-0.1,0.1-0.2c0.1,0,0.1-0.1,0.1-0.2c0-0.1,0-0.1,0.1-0.2c0.1,0,0.1-0.1,0.1-0.2c0-0.1,0-0.1,0.1-0.2c0.1,0,0.1-0.1,0.1-0.2
	c0-0.1,0-0.1,0.1-0.2c0.1,0,0.1-0.1,0.1-0.2c0-0.1,0-0.1,0.1-0.2c0.1,0,0.1-0.1,0.1-0.2c0-0.1,0-0.1,0.1-0.2c0.1,0,0.1-0.1,0.1-0.2
	c0-0.1,0-0.1,0.1-0.2s0.1-0.1,0.1-0.2c0-0.1,0-0.1,0.1-0.2c0.1,0,0.1-0.1,0.1-0.2c0-0.1,0-0.1,0.1-0.2c0.1,0,0.1-0.1,0.1-0.2
	c0-0.1,0-0.1,0.1-0.2c0.1,0,0.1-0.1,0.1-0.2c0-0.1,0-0.1,0.1-0.2s0.1-0.1,0.1-0.2c0-0.1,0-0.1,0.1-0.2c0.1,0,0.1-0.1,0.1-0.2
	s0-0.1,0.1-0.2s0.1-0.1,0.1-0.2c0-0.1,0-0.1,0.1-0.2c0.1,0,0.1-0.1,0.1-0.2c0-0.1,0-0.1,0.1-0.2c0.1,0,0.1-0.1,0.1-0.2
	c0-0.1,0-0.1,0.1-0.2c0.1,0,0.1-0.1,0.1-0.2c0-0.1,0-0.1,0.1-0.2c0.1,0,0.1-0.1,0.1-0.2c0-0.1,0-0.2,0.1-0.2c0.1,0,0.1-0.1,0.1-0.2
	c0-0.1,0-0.1,0.1-0.2c0.1,0,0.1-0.1,0.1-0.2s0-0.2,0.1-0.2s0.1-0.1,0.1-0.2c0-0.1,0-0.2,0.1-0.2s0.1-0.1,0.1-0.2s0-0.1,0.1-0.2
	c0.1,0,0.1-0.1,0.1-0.2s0-0.1,0.1-0.2c0.1,0,0.1-0.1,0.1-0.2s0-0.1,0-0.2c0.1,0,0.1-0.1,0-0.2s0-0.1,0-0.2s0.1-0.1,0-0.2
	c0-0.1,0-0.1,0-0.2c0.1,0,0.1-0.1,0-0.2c0-0.1,0-0.1,0-0.2c0.1,0,0.1-0.1,0-0.2c0-0.1,0-0.1,0-0.2c0.1,0,0.1-0.1,0-0.2
	c0-0.1,0-0.1,0-0.2c0.1,0,0.1-0.1,0-0.2c0-0.1,0-0.1,0-0.2c0.1,0,0.1-0.1,0-0.2c0-0.1,0-0.1,0-0.2c0.1,0,0.1-0.1,0-0.2
	c0-0.1,0-0.1,0-0.2c0.1,0,0.1-0.1,0-0.2c0-0.1,0-0.1,0-0.2s0.1-0.1,0-0.2c0-0.1,0-0.1,0-0.2s0.1-0.1,0-0.2c0-0.1,0-0.1,0-0.2
	c0.1,0,0.1-0.1,0-0.2c0-0.1,0-0.1,0-0.2c0.1,0,0.1-0.1,0-0.2c0-0.1,0-0.1,0-0.2c0.1,0,0.1-0.1,0-0.2c0-0.1,0-0.1,0-0.2
	s0.1-0.1,0-0.2c0-0.1,0-0.1,0-0.2s0.1-0.1,0-0.2c0-0.1,0-0.1,0-0.2c0,0,0.1-0.1,0-0.2c0-0.1,0-0.1,0-0.2c0,0,0.1-0.1,0-0.2
	c0-0.1,0-0.1,0-0.2c0,0,0.1-0.1,0-0.2c0-0.1,0-0.1,0-0.2c0,0,0.1-0.1,0-0.2c0-0.1,0-0.1,0-0.2c0,0,0.1-0.1,0-0.2c0-0.1,0-0.1,0-0.2
	c0,0,0.1-0.1,0-0.2c0-0.1,0-0.1,0-0.2c0,0,0.1-0.1,0-0.2c0-0.1,0-0.1,0-0.2s0.1-0.1,0-0.2c0-0.1,0-0.1,0-0.2s0.1-0.1,0-0.2
	c0-0.1,0-0.1,0-0.2s0.1-0.1,0-0.2s0-0.1,0-0.2c0-0.1,0-0.1,0-0.2s0-0.1,0-0.2c0-0.1,0-0.1,0-0.2s0-0.1,0-0.2c0-0.1,0-0.1,0-0.2
	s0-0.1,0-0.2s0-0.1,0-0.2s0-0.1,0-0.2s0-0.1,0-0.2s0-0.1,0-0.2s0-0.1,0-0.2s0-0.1,0-0.2s0-0.1,0-0.2s0-0.1,0-0.2s0-0.1,0-0.2
	s0-0.1,0-0.2s0-0.1,0-0.2c0-0.1,0-0.1,0-0.2s0-0.1,0-0.2c0-0.1,0-0.1,0-0.2s0-0.1,0-0.2c0-0.1,0-0.1,0-0.2c0-0.1,0-0.1,0-0.2
	s-0.1-0.1,0-0.2c0-0.1,0-0.1,0-0.2s-0.1-0.1,0-0.2c0-0.1,0-0.1,0-0.2s-0.1-0.1,0-0.2c0-0.1,0-0.1,0-0.2c0,0-0.1-0.1,0-0.2
	c0-0.1,0-0.1,0-0.2c0,0-0.1-0.1,0-0.2s0-0.1,0-0.2c0,0-0.1-0.1,0-0.2c0-0.1,0-0.1,0-0.2c0,0-0.1-0.1,0-0.2c0-0.1,0-0.1,0-0.2
	c0,0-0.1-0.1,0-0.2c0-0.1,0-0.1,0-0.2c0,0-0.1-0.1,0-0.2c0-0.1,0-0.1,0-0.2c-0.1,0-0.1-0.1,0-0.2c0-0.1,0-0.1,0-0.2
	c0,0-0.1-0.1,0-0.2c0-0.1,0-0.1,0-0.2c-0.1,0-0.1-0.1,0-0.2c0-0.1,0-0.1,0-0.2c-0.1,0-0.1-0.1,0-0.2c0-0.1,0-0.1,0-0.2
	c-0.1,0-0.1-0.1,0-0.2c0-0.1,0-0.1,0-0.2c-0.1,0-0.1-0.1,0-0.2s0-0.1,0-0.2s-0.1-0.1,0-0.2c0-0.1,0-0.1,0-0.2s-0.1-0.1,0-0.2
	c0-0.1,0-0.1,0-0.2c-0.1,0-0.1-0.1,0-0.2c0-0.1,0-0.1,0-0.2c-0.1,0-0.1-0.1,0-0.2c0-0.1,0-0.1,0-0.2c-0.1,0-0.1-0.1,0-0.2
	c0-0.1,0-0.1,0-0.2c-0.1,0-0.1-0.1,0-0.2c0-0.1,0-0.1,0-0.2c-0.1,0-0.1-0.1,0-0.2c0-0.1,0-0.2,0-0.2c-0.1,0-0.1-0.1,0-0.2
	s0-0.1,0-0.2c-0.1,0-0.1-0.1,0-0.2c0-0.1,0-0.1,0-0.2s-0.1-0.1,0-0.2c0-0.1,0-0.1,0-0.2c-0.1,0-0.1-0.1-0.1-0.2s0-0.1-0.1-0.2
	c-0.1,0-0.1-0.1-0.1-0.2s0-0.2-0.1-0.2s-0.1-0.1-0.1-0.2s0-0.1-0.1-0.2c-0.1,0-0.1-0.1-0.1-0.2c0-0.1,0-0.1-0.1-0.2
	c-0.1,0-0.1-0.1-0.1-0.2c0-0.1,0-0.1-0.1-0.2c-0.1,0-0.1-0.1-0.1-0.2s0-0.2-0.1-0.2c-0.1,0-0.1-0.1-0.1-0.2c0-0.1,0-0.1-0.1-0.2
	c-0.1,0-0.1-0.1-0.1-0.2c0-0.1,0-0.1-0.1-0.2c-0.1,0-0.1-0.1-0.1-0.2c0-0.1,0-0.2-0.1-0.2c-0.1,0-0.1-0.1-0.1-0.2
	c0-0.1,0-0.1-0.1-0.2c-0.1,0-0.1-0.1-0.1-0.2c0-0.1,0-0.1-0.1-0.2c-0.1,0-0.1-0.1-0.1-0.2c0-0.1,0-0.1-0.1-0.2
	c-0.1,0-0.1-0.1-0.1-0.2c0-0.1,0-0.1-0.1-0.2s-0.1-0.1-0.1-0.2c0-0.1,0-0.1-0.1-0.2c-0.1,0-0.1-0.1-0.1-0.2c0-0.1,0-0.1-0.1-0.2
	c-0.1,0-0.1-0.1-0.1-0.2c0-0.1,0-0.1-0.1-0.2c-0.1,0-0.1-0.1-0.1-0.2c0-0.1,0-0.1-0.1-0.2c-0.1,0-0.1-0.1-0.1-0.2
	c0-0.1,0-0.1-0.1-0.2c-0.1,0-0.1-0.1-0.1-0.2c0-0.1,0-0.1-0.1-0.2c-0.1,0-0.1-0.1-0.1-0.2c0-0.1,0-0.1-0.1-0.2
	c-0.1,0-0.1-0.1-0.1-0.2c0-0.1,0-0.1-0.1-0.2c-0.1,0-0.1-0.1-0.1-0.2c0-0.1,0-0.1-0.1-0.2c-0.1,0-0.1-0.1-0.1-0.2
	c0-0.1,0-0.1-0.1-0.2s-0.1-0.1-0.1-0.2c0-0.1,0-0.1-0.1-0.2c-0.1,0-0.1-0.1-0.1-0.2c0-0.1,0-0.1-0.1-0.2c-0.1,0-0.1-0.1-0.1-0.2
	c0-0.1,0-0.1-0.1-0.2c-0.1,0-0.1-0.1-0.1-0.2c0-0.1,0-0.1-0.1-0.2c-0.1,0-0.1-0.1-0.1-0.2c0-0.1,0-0.1-0.1-0.2
	c-0.1,0-0.1-0.1-0.1-0.2c0-0.1,0-0.1-0.1-0.2c-0.1,0-0.1-0.1-0.1-0.2c0-0.1,0-0.1-0.1-0.2c-0.1,0-0.1-0.1-0.1-0.2
	c0-0.1,0-0.1-0.1-0.2c-0.1,0-0.1-0.1-0.1-0.2c0-0.1,0-0.1-0.1-0.2c-0.1,0-0.1-0.1-0.1-0.2c0-0.1,0-0.1-0.1-0.2
	c-0.1,0-0.1-0.1-0.1-0.2c0-0.1,0-0.1-0.1-0.2c-0.1,0-0.1-0.1-0.1-0.2c0-0.1,0-0.1-0.1-0.2c-0.1,0-0.1-0.1-0.1-0.2s0-0.1-0.1-0.2
	s-0.1-0.1-0.1-0.2s0-0.1-0.1-0.2c-0.1,0-0.1-0.1-0.1-0.2s0-0.1-0.1-0.2c-0.1,0-0.1-0.1-0.1-0.2s0-0.1-0.1-0.2
	c-0.1,0-0.1-0.1-0.1-0.2c0-0.1,0-0.1-0.1-0.2c-0.1,0-0.1-0.1-0.1-0.2c0-0.1,0-0.1-0.1-0.2c-0.1,0-0.1-0.1-0.1-0.2
	c0-0.1,0-0.1-0.1-0.1s-0.1-0.1-0.1-0.2c0-0.1,0-0.1-0.1-0.2c-0.1,0-0.1-0.1-0.1-0.1c0-0.1,0-0.1-0.1-0.1s-0.1-0.1-0.1-0.1
	c0-0.1,0-0.1-0.1-0.1s-0.1-0.1-0.1-0.1c0-0.1,0-0.1-0.1-0.1s-0.1-0.1-0.1-0.1c0-0.1-0.1-0.1-0.1-0.1c-0.1,0-0.1-0.1-0.1-0.1
	c0-0.1-0.1-0.1-0.1-0.1c-0.1,0-0.1-0.1-0.1-0.1c0-0.1-0.1-0.1-0.1-0.1c-0.1,0-0.1-0.1-0.1-0.2s-0.1-0.1-0.1-0.2
	c-0.1,0-0.1-0.1-0.1-0.2s-0.1-0.1-0.1-0.2c-0.1,0-0.1-0.1-0.1-0.2s-0.1-0.1-0.1-0.1c-0.1,0-0.1-0.1-0.1-0.1c0-0.1-0.1-0.1-0.1-0.1
	s-0.1-0.1-0.1-0.1c0-0.1-0.1-0.1-0.1-0.1s-0.1-0.1-0.1-0.1s-0.1-0.1-0.1-0.1s-0.1-0.1-0.1-0.1s-0.1-0.1-0.1-0.1s-0.1-0.1-0.1-0.1
	s-0.1-0.1-0.1-0.1s-0.1-0.1-0.1-0.1s-0.1-0.1-0.1-0.1s-0.1-0.1-0.1-0.1s-0.1-0.1-0.1-0.1s-0.1-0.1-0.1-0.1s-0.1-0.1-0.1-0.1
	c-0.1,0-0.1-0.1-0.1-0.1s-0.1-0.1-0.1-0.1c-0.1,0-0.1-0.1-0.1-0.1s-0.1-0.1-0.1-0.1c-0.1,0-0.1-0.1-0.1-0.1c0-0.1-0.1-0.1-0.1-0.1
	s-0.1-0.1-0.1-0.1c0-0.1-0.1-0.1-0.1-0.1s-0.1-0.1-0.1-0.1c0-0.1-0.1-0.1-0.1-0.1s-0.1-0.1-0.1-0.1c0-0.1-0.1-0.1-0.1-0.1
	s-0.1-0.1-0.1-0.1c0-0.1-0.1-0.1-0.1-0.1s-0.1-0.1-0.1-0.1s-0.1-0.1-0.1-0.1s-0.1-0.1-0.1-0.1s-0.1-0.1-0.1-0.1
	c-0.1,0-0.1-0.1-0.1-0.1s-0.1-0.1-0.1-0.1c-0.1,0-0.1-0.1-0.1-0.1c0-0.1-0.1-0.1-0.2-0.1s-0.1-0.1-0.2-0.1c0-0.1-0.1-0.1-0.2-0.1
	s-0.1-0.1-0.2-0.1c0-0.1-0.1-0.1-0.2-0.1c-0.1,0-0.1-0.1-0.2-0.1s-0.1-0.1-0.2-0.1c-0.1,0-0.1-0.1-0.2-0.1s-0.1-0.1-0.2-0.1
	c-0.1,0-0.1-0.1-0.2-0.1s-0.1-0.1-0.2-0.1s-0.1,0-0.2-0.1s-0.1-0.1-0.2-0.1s-0.1,0-0.2-0.1s-0.1-0.1-0.2-0.1s-0.1,0-0.2-0.1
	c0-0.1-0.1-0.1-0.2-0.1s-0.1,0-0.2-0.1s-0.1-0.1-0.2-0.1c-0.1,0-0.1,0-0.2-0.1s-0.1-0.1-0.2-0.1c-0.1,0-0.1,0-0.2-0.1
	c0-0.1-0.1-0.1-0.2-0.1c-0.1,0-0.1,0-0.2-0.1c0-0.1-0.1-0.1-0.2-0.1c-0.1,0-0.1,0-0.2-0.1c0-0.1-0.1-0.1-0.2-0.1
	c-0.1,0-0.1,0-0.2-0.1c0-0.1-0.1-0.1-0.2-0.1c-0.1,0-0.1,0-0.2-0.1c0-0.1-0.1-0.1-0.2-0.1c-0.1,0-0.1,0-0.2-0.1
	c0-0.1-0.1-0.1-0.2-0.1c-0.1,0-0.1,0-0.2-0.1c0-0.1-0.1-0.1-0.2-0.1c-0.1,0-0.1,0-0.2-0.1c0-0.1-0.1-0.1-0.2-0.1
	c-0.1,0-0.1,0-0.2-0.1s-0.1-0.1-0.2-0.1c-0.1,0-0.1,0-0.2-0.1c0-0.1-0.1-0.1-0.2-0.1c-0.1,0-0.1,0-0.2-0.1c0-0.1-0.1-0.1-0.2-0.1
	c-0.1,0-0.1,0-0.2-0.1c0-0.1-0.1-0.1-0.2-0.1c-0.1,0-0.1,0-0.2-0.1c0-0.1-0.1-0.1-0.2-0.1c-0.1,0-0.1,0-0.2-0.1
	c0-0.1-0.1-0.1-0.2-0.1c-0.1,0-0.1,0-0.2-0.1c0-0.1-0.1-0.1-0.2-0.1c-0.1,0-0.1,0-0.2-0.1c0-0.1-0.1-0.1-0.2-0.1
	c-0.1,0-0.1,0-0.2-0.1c0-0.1-0.1-0.1-0.2-0.1s-0.1,0-0.2-0.1c0-0.1-0.1-0.1-0.2-0.1c-0.1,0-0.1,0-0.2-0.1s-0.1-0.1-0.2-0.1
	c-0.1,0-0.1,0-0.2-0.1c0-0.1-0.1-0.1-0.2-0.1c-0.1,0-0.1,0-0.2-0.1c0-0.1-0.1-0.1-0.2-0.1s-0.1,0-0.2-0.1c0-0.1-0.1-0.1-0.2-0.1
	s-0.1,0-0.2-0.1c0-0.1-0.1-0.1-0.2-0.1s-0.2,0-0.2-0.1c0-0.1-0.1-0.1-0.2-0.1s-0.1,0-0.2-0.1c0-0.1-0.1-0.1-0.2-0.1s-0.1,0-0.2-0.1
	c0-0.1-0.1-0.1-0.2-0.1s-0.2,0-0.2-0.1c0-0.1-0.1-0.1-0.2-0.1s-0.1,0-0.2-0.1c0-0.1-0.1-0.1-0.2-0.1c-0.1,0-0.1,0-0.2-0.1
	c0-0.1-0.1-0.1-0.2-0.1c-0.1,0-0.1,0-0.2-0.1c0-0.1-0.1-0.1-0.2-0.1c-0.1,0-0.1,0-0.2-0.1c0-0.1-0.1-0.1-0.2-0.1s-0.1,0-0.2-0.1
	c0-0.1-0.1-0.1-0.2-0.1s-0.1,0-0.2-0.1c0-0.1-0.1-0.1-0.2-0.1c-0.1,0-0.1,0-0.2-0.1c0-0.1-0.1-0.1-0.2-0.1s-0.1,0-0.2-0.1
	c0-0.1-0.1-0.1-0.2-0.1c-0.1,0-0.1,0-0.2-0.1c0-0.1-0.1-0.1-0.2-0.1c-0.1,0-0.1,0-0.2-0.1c0-0.1-0.1-0.1-0.2-0.1s-0.1,0-0.2-0.1
	c0-0.1-0.1-0.1-0.2-0.1c-0.1,0-0.1,0-0.2-0.1c0-0.1-0.1-0.1-0.2,0s-0.1,0-0.2,0s-0.1-0.1-0.2,0s-0.1,0-0.2,0s-0.1-0.1-0.2,0
	s-0.1,0-0.2,0s-0.1-0.1-0.2,0s-0.1,0-0.2,0s-0.1-0.1-0.2,0c-0.1,0-0.1,0-0.2,0s-0.1-0.1-0.2,0c-0.1,0-0.1,0-0.2,0
	c0-0.1-0.1-0.1-0.2,0c-0.1,0-0.1,0-0.2,0c0-0.1-0.1-0.1-0.2,0c-0.1,0-0.1,0-0.2,0c0-0.1-0.1-0.1-0.2,0c-0.1,0-0.1,0-0.2,0
	c0-0.1-0.1-0.1-0.2,0c-0.1,0-0.1,0-0.2,0c0-0.1-0.1-0.1-0.2,0c0,0-0.1,0-0.2,0s-0.1-0.1-0.2,0c0,0-0.1,0-0.2,0c0-0.1-0.1-0.1-0.2,0
	c0,0-0.1,0-0.2,0c0-0.1-0.1-0.1-0.2,0c0,0-0.1,0-0.2,0c0-0.1-0.1-0.1-0.2,0c0,0.1-0.1,0-0.2,0c0-0.1-0.1-0.1-0.2,0c0,0-0.1,0-0.2,0
	c0-0.1-0.1-0.1-0.2,0s-0.1,0-0.2,0s-0.1-0.1-0.2,0c0,0.1-0.1,0-0.2,0s-0.1-0.1-0.2,0c0,0-0.1,0-0.2,0c0-0.1-0.1-0.1-0.2,0
	c0,0.1-0.1,0-0.2,0c0-0.1-0.1-0.1-0.2,0c0,0.1-0.1,0-0.2,0c0-0.1-0.1-0.1-0.2,0s-0.1,0-0.2,0c0-0.1-0.1-0.1-0.2,0
	c0,0.1-0.1,0.1-0.2,0c0-0.1-0.1-0.1-0.2,0c0,0.1-0.1,0.1-0.2,0c0-0.1-0.1-0.1-0.2,0c0,0.1-0.1,0.1-0.2,0c0-0.1-0.1-0.1-0.2,0
	c0,0.1-0.1,0.1-0.2,0c0-0.1-0.1-0.1-0.2,0c0,0.1-0.1,0.1-0.2,0c0-0.1-0.1-0.1-0.2,0c0,0.1-0.1,0.1-0.2,0c0-0.1-0.1-0.1-0.2,0
	c0,0.1-0.1,0.1-0.2,0c0-0.1-0.1,0-0.2,0c0,0.1-0.1,0.1-0.2,0s-0.1,0-0.2,0c0,0.1-0.1,0.1-0.2,0s-0.1,0-0.2,0c0,0.1-0.1,0.1-0.2,0
	c0-0.1-0.1,0-0.2,0c0,0.1-0.1,0.1-0.2,0c0-0.1-0.1,0-0.2,0c0,0.1-0.1,0.1-0.2,0s-0.1,0-0.2,0c0,0.1-0.1,0.1-0.2,0s-0.1,0-0.2,0
	c0,0.1-0.1,0.1-0.2,0c0,0-0.1,0-0.2,0c0,0.1-0.1,0.1-0.2,0c0,0-0.1,0-0.2,0c0,0.1-0.1,0.1-0.2,0s-0.1,0-0.2,0c0,0.1-0.1,0.1-0.2,0
	c0,0-0.1,0-0.2,0c0,0.1-0.1,0.1-0.2,0c0,0-0.1,0-0.2,0s-0.1,0.1-0.2,0c0,0-0.1,0-0.2,0c0,0.1-0.1,0.1-0.2,0c-0.1,0-0.1,0-0.2,0
	s-0.1,0.1-0.2,0c-0.1,0-0.1,0-0.2,0c0,0.1-0.1,0.1-0.2,0c-0.1,0-0.1,0-0.2,0c0,0.1-0.1,0.1-0.2,0c-0.1,0-0.1,0-0.2,0
	c0,0.1-0.1,0.1-0.2,0c-0.1,0-0.1,0-0.2,0s-0.1,0.1-0.2,0c-0.1,0-0.1,0-0.2,0s-0.1,0.1-0.2,0c-0.1,0-0.1,0-0.2,0s-0.1,0.1-0.2,0
	s-0.1,0-0.2,0s-0.1,0.1-0.2,0s-0.1,0-0.2,0s-0.1,0.1-0.2,0s-0.1,0-0.2,0.1c0,0.1-0.1,0.1-0.2,0.1c-0.1,0-0.1,0-0.2,0.1
	s-0.1,0.1-0.2,0.1c-0.1,0-0.1,0-0.2,0.1c0,0.1-0.1,0.1-0.2,0.1s-0.1,0-0.2,0.1c0,0.1-0.1,0.1-0.2,0.1c-0.1,0-0.1,0-0.2,0.1
	c0,0.1-0.1,0.1-0.2,0.1c-0.1,0-0.1,0-0.2,0.1s-0.1,0.1-0.2,0.1c-0.1,0-0.1,0-0.2,0.1c0,0.1-0.1,0.1-0.2,0.1s-0.1,0-0.2,0.1
	c0,0.1-0.1,0.1-0.2,0.1s-0.2,0-0.2,0.1s-0.1,0.1-0.2,0.1s-0.2,0-0.2,0.1s-0.1,0.1-0.2,0.1c-0.1,0-0.1,0-0.2,0.1
	c0,0.1-0.1,0.1-0.2,0.1c-0.1,0-0.2,0-0.2,0.1s-0.1,0.1-0.2,0.1s-0.2,0-0.2,0.1c0,0.1-0.1,0.1-0.2,0.1c-0.1,0-0.1,0-0.2,0.1
	c0,0.1-0.1,0.1-0.2,0.1s-0.2,0-0.2,0.1c0,0.1-0.1,0.1-0.2,0.1s-0.1,0-0.2,0.1c0,0.1-0.1,0.1-0.2,0.1s-0.2,0-0.2,0.1
	c0,0.1-0.1,0.1-0.2,0.1s-0.1,0-0.2,0.1c0,0.1-0.1,0.1-0.2,0.1s-0.1,0-0.2,0.1s-0.1,0.1-0.2,0.1c-0.1,0-0.1,0-0.2,0.1
	c0,0.1-0.1,0.1-0.2,0.1c-0.1,0-0.1,0-0.2,0.1c0,0.1-0.1,0.1-0.2,0.1s-0.1,0-0.2,0.1c0,0.1-0.1,0.1-0.2,0.1s-0.1,0-0.2,0.1
	c0,0.1-0.1,0.1-0.2,0.1c-0.1,0-0.1,0-0.2,0.1c0,0.1-0.1,0.1-0.2,0.1c-0.1,0-0.1,0-0.2,0.1c0,0.1-0.1,0.1-0.2,0.1
	c-0.1,0-0.1,0-0.2,0.1c0,0.1-0.1,0.1-0.2,0.1c-0.1,0-0.1,0-0.2,0.1c0,0.1-0.1,0.1-0.2,0.1c-0.1,0-0.1,0-0.2,0.1
	c0,0.1-0.1,0.1-0.2,0.1c-0.1,0-0.1,0-0.2,0.1c0,0.1-0.1,0.1-0.2,0.1c-0.1,0-0.1,0-0.2,0.1c0,0.1-0.1,0.1-0.2,0.1
	c-0.1,0-0.1,0-0.2,0.1c0,0.1-0.1,0.1-0.2,0.1c-0.1,0-0.1,0-0.2,0.1c0,0.1-0.1,0.1-0.2,0.1c-0.1,0-0.1,0-0.2,0.1
	c0,0.1-0.1,0.1-0.2,0.1c-0.1,0-0.1,0-0.2,0.1c0,0.1-0.1,0.1-0.2,0.1c-0.1,0-0.1,0-0.2,0.1c0,0.1-0.1,0.1-0.2,0.1
	c-0.1,0-0.1,0-0.2,0.1c0,0.1-0.1,0.1-0.2,0.1c-0.1,0-0.1,0-0.2,0.1c0,0.1-0.1,0.1-0.2,0.1c-0.1,0-0.1,0-0.2,0.1
	c0,0.1-0.1,0.1-0.2,0.1c-0.1,0-0.1,0-0.2,0.1c0,0.1-0.1,0.1-0.2,0.1c-0.1,0-0.1,0-0.2,0.1s-0.1,0.1-0.2,0.1c-0.1,0-0.1,0-0.2,0.1
	s-0.1,0.1-0.2,0.1s-0.1,0-0.2,0.1s-0.1,0.1-0.2,0.1s-0.1,0-0.2,0.1s-0.1,0.1-0.2,0.1s-0.1,0-0.2,0.1s-0.1,0.1-0.2,0.1
	s-0.1,0.1-0.2,0.1s-0.1,0.1-0.2,0.1c-0.1,0-0.1,0.1-0.2,0.1s-0.1,0.1-0.2,0.1c-0.1,0-0.1,0.1-0.2,0.1c0,0.1-0.1,0.1-0.2,0.1
	s-0.1,0.1-0.2,0.1S449,122,449,122c-0.1,0-0.1,0.1-0.2,0.1s-0.1,0.1-0.2,0.1c-0.1,0-0.1,0.1-0.1,0.1s-0.1,0.1-0.1,0.1
	c-0.1,0-0.1,0.1-0.1,0.1s-0.1,0.1-0.1,0.1c-0.1,0-0.1,0.1-0.1,0.1s-0.1,0.1-0.1,0.1c-0.1,0-0.1,0.1-0.1,0.1c0,0.1-0.1,0.1-0.1,0.1
	s-0.1,0.1-0.1,0.1c0,0.1-0.1,0.1-0.1,0.1s-0.1,0.1-0.1,0.1c0,0.1-0.1,0.1-0.1,0.1s-0.1,0.1-0.1,0.1c0,0.1-0.1,0.1-0.1,0.1
	s-0.1,0.1-0.1,0.1c0,0.1-0.1,0.1-0.1,0.1s-0.1,0.1-0.1,0.1c0,0.1-0.1,0.1-0.1,0.1c-0.1,0-0.1,0.1-0.1,0.1c0,0.1-0.1,0.1-0.1,0.1
	c-0.1,0-0.1,0.1-0.1,0.1s-0.1,0.1-0.1,0.1c-0.1,0-0.1,0.1-0.1,0.1s-0.1,0.1-0.1,0.1s-0.1,0.1-0.1,0.1s-0.1,0.1-0.1,0.1
	s-0.1,0.1-0.1,0.1s-0.1,0.1-0.1,0.1s-0.1,0.1-0.1,0.1s-0.1,0.1-0.1,0.1s-0.1,0.1-0.1,0.1s-0.1,0.1-0.1,0.1s-0.1,0.1-0.1,0.1
	s-0.1,0.1-0.1,0.1s-0.1,0.1-0.1,0.1c0,0.1-0.1,0.1-0.1,0.1c-0.1,0-0.1,0.1-0.1,0.1c0,0.1-0.1,0.1-0.1,0.1c-0.1,0-0.1,0.1-0.1,0.2
	c0,0.1-0.1,0.1-0.1,0.2c-0.1,0-0.1,0.1-0.1,0.2s-0.1,0.1-0.1,0.2c-0.1,0-0.1,0.1-0.1,0.2c0,0.1-0.1,0.1-0.1,0.1
	c-0.1,0-0.1,0.1-0.1,0.1c0,0.1-0.1,0.1-0.1,0.1c-0.1,0-0.1,0.1-0.1,0.1c0,0.1-0.1,0.1-0.1,0.1s-0.1,0.1-0.1,0.1c0,0.1,0,0.1-0.1,0.1
	s-0.1,0.1-0.1,0.1c0,0.1,0,0.1-0.1,0.1s-0.1,0.1-0.1,0.1c0,0.1,0,0.1-0.1,0.1s-0.1,0.1-0.1,0.1c0,0.1,0,0.1-0.1,0.2
	c-0.1,0-0.1,0.1-0.1,0.2c0,0.1,0,0.1-0.1,0.1c-0.1,0-0.1,0.1-0.1,0.2c0,0.1,0,0.1-0.1,0.2c-0.1,0-0.1,0.1-0.1,0.2s0,0.1-0.1,0.2
	c-0.1,0-0.1,0.1-0.1,0.2s0,0.1-0.1,0.2c-0.1,0-0.1,0.1-0.1,0.2s0,0.1-0.1,0.2c-0.1,0-0.1,0.1-0.1,0.2s0,0.1-0.1,0.2
	c-0.1,0-0.1,0.1-0.1,0.2s0,0.1-0.1,0.2c-0.1,0-0.1,0.1-0.1,0.2s0,0.1-0.1,0.2s-0.1,0.1-0.1,0.2c0,0.1,0,0.1-0.1,0.2
	c-0.1,0-0.1,0.1-0.1,0.2c0,0.1,0,0.1-0.1,0.2c-0.1,0-0.1,0.1-0.1,0.2c0,0.1,0,0.1-0.1,0.2c-0.1,0-0.1,0.1-0.1,0.2
	c0,0.1,0,0.1-0.1,0.2c-0.1,0-0.1,0.1-0.1,0.2c0,0.1,0,0.1-0.1,0.2c-0.1,0-0.1,0.1-0.1,0.2c0,0.1,0,0.1-0.1,0.2s-0.1,0.1-0.1,0.2
	c0,0.1,0,0.1-0.1,0.2s-0.1,0.1-0.1,0.2c0,0.1,0,0.1-0.1,0.2s-0.1,0.1-0.1,0.2c0,0.1,0,0.1-0.1,0.2s-0.1,0.1-0.1,0.2
	c0,0.1,0,0.1-0.1,0.2s-0.1,0.1-0.1,0.2c0,0.1,0,0.1-0.1,0.2c-0.1,0-0.1,0.1-0.1,0.2c0,0.1,0,0.1-0.1,0.2s-0.1,0.1-0.1,0.2
	c0,0.1,0,0.1-0.1,0.2c-0.1,0-0.1,0.1-0.1,0.2c0,0.1,0,0.1-0.1,0.2c-0.1,0-0.1,0.1-0.1,0.2c0,0.1,0,0.1-0.1,0.2
	c-0.1,0-0.1,0.1-0.1,0.2c0,0.1,0,0.1-0.1,0.2c-0.1,0-0.1,0.1-0.1,0.2c0,0.1,0,0.1-0.1,0.2c-0.1,0-0.1,0.1-0.1,0.2
	c0,0.1,0,0.1-0.1,0.2c-0.1,0-0.1,0.1-0.1,0.2c0,0.1,0,0.1-0.1,0.2c-0.1,0-0.1,0.1-0.1,0.2c0,0.1,0,0.1-0.1,0.2
	c-0.1,0-0.1,0.1-0.1,0.2c0,0.1,0,0.1-0.1,0.2c-0.1,0-0.1,0.1-0.1,0.2s0,0.1-0.1,0.2s-0.1,0.1-0.1,0.2s0,0.1-0.1,0.2
	c-0.1,0-0.1,0.1-0.1,0.2s0,0.1-0.1,0.2c-0.1,0-0.1,0.1-0.1,0.2s0,0.1-0.1,0.2c-0.1,0-0.1,0.1-0.1,0.2s0,0.1-0.1,0.2
	c-0.1,0-0.1,0.1-0.1,0.2s0,0.1-0.1,0.2c-0.1,0-0.1,0.1-0.1,0.2s0,0.2-0.1,0.2c-0.1,0-0.1,0.1-0.1,0.2s0,0.1-0.1,0.2
	c-0.1,0-0.1,0.1-0.1,0.2c0,0.1,0,0.2-0.1,0.2s-0.1,0.1-0.1,0.2s0,0.2-0.1,0.2s-0.1,0.1-0.1,0.2c0,0.1,0,0.1-0.1,0.2
	c-0.1,0-0.1,0.1-0.1,0.2s0,0.1-0.1,0.2c-0.1,0-0.1,0.1-0.1,0.2s0,0.1-0.1,0.2c-0.1,0-0.1,0.1-0.1,0.2s0,0.1-0.1,0.2
	c-0.1,0-0.1,0.1,0,0.2s0,0.1,0,0.2c-0.1,0-0.1,0.1,0,0.2s0,0.2,0,0.2c-0.1,0-0.1,0.1,0,0.2c0,0.1,0,0.1,0,0.2c-0.1,0-0.1,0.1,0,0.2
	c0,0.1,0,0.1,0,0.2c-0.1,0-0.1,0.1,0,0.2c0,0.1,0,0.1,0,0.2c-0.1,0-0.1,0.1,0,0.2c0,0.1,0,0.1,0,0.2c-0.1,0-0.1,0.1,0,0.2
	c0,0.1,0,0.1,0,0.2c-0.1,0-0.1,0.1,0,0.2c0,0.1,0,0.1,0,0.2c-0.1,0-0.1,0.1,0,0.2c0,0.1,0,0.1,0,0.2c-0.1,0-0.1,0.1,0,0.2
	s0,0.1,0,0.2s-0.1,0.1,0,0.2c0,0.1,0,0.1,0,0.2c-0.1,0-0.1,0.1,0,0.2c0,0.1,0,0.1,0,0.2c-0.1,0-0.1,0.1,0,0.2c0,0.1,0,0.1,0,0.2
	c-0.1,0-0.1,0.1,0,0.2c0,0.1,0,0.1,0,0.2c0,0-0.1,0.1,0,0.2c0,0.1,0,0.1,0,0.2c0,0-0.1,0.1,0,0.2c0,0.1,0,0.1,0,0.2
	c-0.1,0-0.1,0.1,0,0.2c0,0.1,0,0.1,0,0.2c0,0-0.1,0.1,0,0.2c0,0.1,0,0.1,0,0.2c0,0-0.1,0.1,0,0.2c0,0.1,0,0.1,0,0.2
	c0,0-0.1,0.1,0,0.2c0,0.1,0,0.1,0,0.2c0,0-0.1,0.1,0,0.2s0,0.1,0,0.2c0,0-0.1,0.1,0,0.2c0,0.1,0,0.1,0,0.2c0,0-0.1,0.1,0,0.2
	c0,0.1,0,0.1,0,0.2s-0.1,0.1,0,0.2c0,0.1,0,0.1,0,0.2s-0.1,0.1,0,0.2c0,0.1,0,0.1,0,0.2s-0.1,0.1,0,0.2c0,0.1,0,0.1,0,0.2
	s0,0.1,0,0.2c0,0.1,0,0.1,0,0.2c0,0.1,0,0.1,0,0.2s0,0.1,0,0.2c0,0.1,0,0.1,0,0.2s0,0.1,0,0.2s0,0.1,0,0.2s0,0.1,0,0.2s0,0.1,0,0.2
	s0,0.1,0,0.2s0,0.1,0,0.2s0,0.1,0,0.2s0,0.1,0,0.2s0,0.1,0,0.2s0,0.1,0,0.2s0,0.1,0,0.2s0,0.1,0,0.2s0,0.1,0,0.2c0,0.1,0,0.1,0,0.2
	c0,0.1,0,0.1,0,0.2c0,0.1,0,0.1,0,0.2c0,0.1,0,0.1,0,0.2c0,0.1,0,0.1,0,0.2c0,0.1,0.1,0.1,0,0.2s0,0.1,0,0.2c0,0.1,0.1,0.1,0,0.2
	c0,0.1,0,0.1,0,0.2c0,0.1,0.1,0.1,0,0.2c0,0.1,0,0.1,0,0.2c0,0.1,0.1,0.1,0,0.2c0,0.1,0,0.1,0,0.2c0,0.1,0.1,0.1,0,0.2
	c0,0.1,0,0.1,0,0.2c0,0,0.1,0.1,0,0.2c0,0.1,0,0.1,0,0.2c0,0,0.1,0.1,0,0.2c0,0.1,0,0.1,0,0.2c0,0,0.1,0.1,0,0.2c0,0.1,0,0.1,0,0.2
	c0,0,0.1,0.1,0,0.2c0,0.1,0,0.1,0,0.2c0.1,0,0.1,0.1,0,0.2s0,0.1,0,0.2c0.1,0,0.1,0.1,0,0.2c0,0.1,0,0.1,0,0.2c0.1,0,0.1,0.1,0,0.2
	c0,0.1,0,0.1,0,0.2c0.1,0,0.1,0.1,0,0.2c0,0.1,0,0.1,0,0.2c0.1,0,0.1,0.1,0,0.2c0,0.1,0,0.1,0,0.2c0.1,0,0.1,0.1,0,0.2
	c0,0.1,0,0.1,0,0.2c0.1,0,0.1,0.1,0,0.2c0,0.1,0,0.1,0,0.2c0.1,0,0.1,0.1,0,0.2c0,0.1,0,0.1,0,0.2c0.1,0,0.1,0.1,0,0.2
	c0,0.1,0,0.1,0,0.2c0.1,0,0.1,0.1,0,0.2c0,0.1,0,0.1,0,0.2c0.1,0,0.1,0.1,0,0.2c0,0.1,0,0.1,0,0.2c0.1,0,0.1,0.1,0,0.2
	c0,0.1,0,0.1,0,0.2c0.1,0,0.1,0.1,0,0.2c0,0.1,0,0.2,0,0.2s0.1,0.1,0,0.2s0,0.1,0,0.2c0.1,0,0.1,0.1,0,0.2s0,0.1,0,0.2
	c0.1,0,0.1,0.1,0,0.2c0,0.1,0,0.1,0.1,0.2c0.1,0,0.1,0.1,0.1,0.2s0,0.1,0.1,0.2c0.1,0,0.1,0.1,0.1,0.2s0,0.2,0.1,0.2
	s0.1,0.1,0.1,0.2s0,0.1,0.1,0.2c0.1,0,0.1,0.1,0.1,0.2c0,0.1,0,0.1,0.1,0.2c0.1,0,0.1,0.1,0.1,0.2c0,0.1,0,0.1,0.1,0.2
	c0.1,0,0.1,0.1,0.1,0.2c0,0.1,0,0.2,0.1,0.2c0.1,0,0.1,0.1,0.1,0.2s0,0.1,0.1,0.2c0.1,0,0.1,0.1,0.1,0.2c0,0.1,0,0.1,0.1,0.2
	c0.1,0,0.1,0.1,0.1,0.2s0,0.1,0.1,0.2c0.1,0,0.1,0.1,0.1,0.2s0,0.1,0.1,0.2c0.1,0,0.1,0.1,0.1,0.2s0,0.2,0.1,0.2
	c0.1,0,0.1,0.1,0.1,0.2s0,0.1,0.1,0.2c0.1,0,0.1,0.1,0.1,0.2s0,0.1,0.1,0.2c0.1,0,0.1,0.1,0.1,0.2c0,0.1,0,0.1,0.1,0.2
	c0.1,0,0.1,0.1,0.1,0.2c0,0.1,0,0.1,0.1,0.2c0.1,0,0.1,0.1,0.1,0.2c0,0.1,0,0.1,0.1,0.2c0.1,0,0.1,0.1,0.1,0.2c0,0.1,0,0.1,0.1,0.2
	c0.1,0,0.1,0.1,0.1,0.2c0,0.1,0,0.1,0.1,0.2c0.1,0,0.1,0.1,0.1,0.2c0,0.1,0,0.1,0.1,0.2c0.1,0,0.1,0.1,0.1,0.2c0,0.1,0,0.1,0.1,0.2
	c0.1,0,0.1,0.1,0.1,0.2s0,0.1,0.1,0.2c0.1,0,0.1,0.1,0.1,0.2c0,0.1,0,0.1,0.1,0.2s0.1,0.1,0.1,0.2c0,0.1,0,0.1,0.1,0.2
	s0.1,0.1,0.1,0.2c0,0.1,0,0.1,0.1,0.2c0.1,0,0.1,0.1,0.1,0.2c0,0.1,0,0.1,0.1,0.2s0.1,0.1,0.1,0.2c0,0.1,0,0.1,0.1,0.2
	s0.1,0.1,0.1,0.2c0,0.1,0,0.1,0.1,0.2s0.1,0.1,0.1,0.2c0,0.1,0,0.1,0.1,0.2s0.1,0.1,0.1,0.2c0,0.1,0,0.1,0.1,0.2s0.1,0.1,0.1,0.2
	c0,0.1,0,0.1,0.1,0.2c0.1,0,0.1,0.1,0.1,0.2c0,0.1,0,0.1,0.1,0.2c0.1,0,0.1,0.1,0.1,0.2c0,0.1,0,0.1,0.1,0.2c0.1,0,0.1,0.1,0.1,0.2
	c0,0.1,0,0.1,0.1,0.2c0.1,0,0.1,0.1,0.1,0.2c0,0.1,0,0.1,0.1,0.2c0.1,0,0.1,0.1,0.1,0.2c0,0.1,0,0.1,0.1,0.2c0.1,0,0.1,0.1,0.1,0.2
	s0,0.1,0.1,0.2c0.1,0,0.1,0.1,0.1,0.2s0,0.1,0.1,0.2c0.1,0,0.1,0.1,0.1,0.2s0,0.1,0.1,0.2c0.1,0,0.1,0.1,0.1,0.2s0,0.1,0.1,0.2
	c0.1,0,0.1,0.1,0.1,0.2c0,0.1,0,0.1,0.1,0.2c0.1,0,0.1,0.1,0.1,0.2s0,0.1,0.1,0.2c0.1,0,0.1,0.1,0.1,0.2c0,0.1,0,0.1,0.1,0.2
	c0.1,0,0.1,0.1,0.1,0.2c0,0.1,0,0.1,0.1,0.2c0.1,0,0.1,0.1,0.1,0.1c0,0.1,0,0.1,0.1,0.1s0.1,0.1,0.1,0.1c0,0.1,0,0.1,0.1,0.1
	s0.1,0.1,0.1,0.1c0,0.1,0,0.1,0.1,0.1s0.1,0.1,0.1,0.1c0,0.1,0.1,0.1,0.1,0.1c0.1,0,0.1,0.1,0.1,0.1c0,0.1,0.1,0.1,0.1,0.1
	s0.1,0.1,0.1,0.1c0,0.1,0.1,0.1,0.1,0.1c0.1,0,0.1,0.1,0.1,0.1c0,0.1,0.1,0.1,0.1,0.1c0.1,0,0.1,0.1,0.1,0.1s0.1,0.1,0.1,0.1
	c0.1,0,0.1,0.1,0.1,0.1c0,0.1,0.1,0.1,0.1,0.1c0.1,0,0.1,0.1,0.1,0.1c0,0.1,0.1,0.1,0.1,0.1s0.1,0.1,0.1,0.1c0,0.1,0.1,0.1,0.1,0.1
	s0.1,0.1,0.1,0.1c0,0.1,0.1,0.1,0.1,0.1s0.1,0.1,0.1,0.1c0,0.1,0.1,0.1,0.1,0.1s0.1,0.1,0.1,0.1c0,0.1,0.1,0.1,0.1,0.1
	s0.1,0.1,0.1,0.1s0.1,0.1,0.1,0.1s0.1,0.1,0.1,0.1c0,0.1,0.1,0.1,0.1,0.1s0.1,0.1,0.1,0.1c0,0.1,0.1,0.1,0.1,0.1
	c0.1,0,0.1,0.1,0.1,0.1c0,0.1,0.1,0.1,0.1,0.1c0.1,0,0.1,0.1,0.1,0.1s0.1,0.1,0.1,0.1c0.1,0,0.1,0.1,0.1,0.1c0,0.1,0.1,0.1,0.1,0.1
	s0.1,0.1,0.1,0.1s0.1,0.1,0.1,0.1s0.1,0.1,0.1,0.1c0,0.1,0.1,0.1,0.1,0.1c0.1,0,0.1,0.1,0.1,0.1s0.1,0.1,0.1,0.1s0.1,0.1,0.1,0.1
	c0,0.1,0.1,0.1,0.1,0.1s0.1,0.1,0.1,0.1c0,0.1,0.1,0.1,0.1,0.1c0.1,0,0.1,0.1,0.1,0.1c0,0.1,0.1,0.1,0.1,0.1c0.1,0,0.1,0.1,0.1,0.1
	c0,0.1,0.1,0.1,0.1,0.1c0.1,0,0.1,0.1,0.1,0.1c0,0.1,0.1,0.1,0.2,0.1s0.1,0.1,0.2,0.1c0,0.1,0.1,0.1,0.2,0.1c0.1,0,0.1,0.1,0.2,0.1
	c0,0.1,0.1,0.1,0.2,0.1c0.1,0,0.1,0.1,0.2,0.1c0,0.1,0.1,0.1,0.2,0.1c0.1,0,0.1,0.1,0.2,0.1c0,0.1,0.1,0.1,0.2,0.1
	c0.1,0,0.1,0.1,0.2,0.1c0,0.1,0.1,0.1,0.2,0.1s0.1,0,0.2,0.1s0.1,0.1,0.2,0.1s0.1,0,0.2,0.1s0.1,0.1,0.2,0.1s0.1,0,0.2,0.1
	c0,0.1,0.1,0.1,0.2,0.1s0.1,0,0.2,0.1s0.1,0.1,0.2,0.1c0.1,0,0.1,0,0.2,0.1s0.1,0.1,0.2,0.1c0.1,0,0.1,0,0.2,0.1
	c0,0.1,0.1,0.1,0.2,0.1c0.1,0,0.1,0,0.2,0.1c0,0.1,0.1,0.1,0.2,0.1c0.1,0,0.1,0,0.2,0.1c0,0.1,0.1,0.1,0.2,0.1c0.1,0,0.1,0,0.2,0.1
	c0,0.1,0.1,0.1,0.2,0.1s0.1,0,0.2,0.1c0,0.1,0.1,0.1,0.2,0.1c0.1,0,0.1,0,0.2,0.1c0,0.1,0.1,0.1,0.2,0.1c0.1,0,0.1,0,0.2,0.1
	c0,0.1,0.1,0.1,0.2,0.1c0.1,0,0.1,0,0.2,0.1c0,0.1,0.1,0.1,0.2,0.1c0.1,0,0.1,0,0.2,0.1c0,0.1,0.1,0.1,0.2,0.1c0.1,0,0.1,0,0.2,0.1
	c0,0.1,0.1,0.1,0.2,0.1c0.1,0,0.1,0,0.2,0.1c0,0.1,0.1,0.1,0.2,0.1c0.1,0,0.1,0,0.2,0.1c0,0.1,0.1,0.1,0.2,0.1s0.1,0,0.2,0.1
	c0,0.1,0.1,0.1,0.2,0.1c0.1,0,0.1,0,0.2,0.1c0,0.1,0.1,0.1,0.2,0.1c0.1,0,0.1,0,0.2,0.1c0,0.1,0.1,0.1,0.2,0.1c0.1,0,0.1,0,0.2,0.1
	c0,0.1,0.1,0.1,0.2,0.1c0.1,0,0.1,0,0.2,0.1c0,0.1,0.1,0.1,0.2,0.1s0.1,0,0.2,0.1c0,0.1,0.1,0.1,0.2,0.1c0.1,0,0.1,0,0.2,0.1
	s0.1,0.1,0.2,0.1c0.1,0,0.1,0,0.2,0.1c0,0.1,0.1,0.1,0.2,0.1c0.1,0,0.1,0,0.2,0.1s0.1,0.1,0.2,0.1s0.1,0,0.2,0.1
	c0,0.1,0.1,0.1,0.2,0.1s0.1,0,0.2,0.1c0,0.1,0.1,0.1,0.2,0.1s0.2,0,0.2,0.1c0,0.1,0.1,0.1,0.2,0.1s0.1,0,0.2,0.1
	c0,0.1,0.1,0.1,0.2,0.1s0.1,0,0.2,0.1c0,0.1,0.1,0.1,0.2,0.1s0.2,0,0.2,0.1c0,0.1,0.1,0.1,0.2,0.1s0.1,0,0.2,0.1
	c0,0.1,0.1,0.1,0.2,0.1c0.1,0,0.1,0,0.2,0.1c0,0.1,0.1,0.1,0.2,0.1c0.1,0,0.1,0,0.2,0.1c0,0.1,0.1,0.1,0.2,0.1c0.1,0,0.1,0,0.2,0.1
	c0,0.1,0.1,0.1,0.2,0.1s0.1,0,0.2,0.1c0,0.1,0.1,0.1,0.2,0.1s0.1,0,0.2,0.1c0,0.1,0.1,0.1,0.2,0.1c0.1,0,0.1,0,0.2,0.1
	c0,0.1,0.1,0.1,0.2,0.1s0.1,0,0.2,0.1s0.1,0.1,0.2,0.1s0.1,0,0.2,0.1c0,0.1,0.1,0.1,0.2,0.1c0.1,0,0.1,0,0.2,0.1s0.1,0.1,0.2,0.1
	c0.1,0,0.1,0,0.2,0.1s0.1,0.1,0.2,0.1c0.1,0,0.1,0,0.2,0.1s0.1,0.1,0.2,0c0.1,0,0.1,0,0.2,0s0.1,0.1,0.2,0c0.1,0,0.1,0,0.2,0
	s0.1,0.1,0.2,0c0.1,0,0.1,0,0.2,0s0.1,0.1,0.2,0c0.1,0,0.1,0,0.2,0s0.1,0.1,0.2,0c0.1,0,0.1,0,0.2,0s0.1,0.1,0.2,0
	c0.1,0,0.1,0,0.2,0c0,0.1,0.1,0.1,0.2,0c0.1,0,0.1,0,0.2,0c0,0.1,0.1,0.1,0.2,0c0.1,0,0.1,0,0.2,0c0,0.1,0.1,0.1,0.2,0
	c0.1,0,0.1,0,0.2,0c0,0.1,0.1,0.1,0.2,0c0.1,0,0.1,0,0.2,0s0.1,0.1,0.2,0c0,0,0.1,0,0.2,0c0,0.1,0.1,0.1,0.2,0c0,0,0.1,0,0.2,0
	c0,0.1,0.1,0.1,0.2,0c0,0,0.1,0,0.2,0c0,0.1,0.1,0.1,0.2,0c0,0,0.1,0,0.2,0c0,0.1,0.1,0.1,0.2,0c0,0,0.1,0,0.2,0
	c0,0.1,0.1,0.1,0.2,0c0,0,0.1,0,0.2,0c0,0.1,0.1,0.1,0.2,0s0.1,0,0.2,0c0,0.1,0.1,0.1,0.2,0c0-0.1,0.1,0,0.2,0s0.1,0.1,0.2,0
	c0-0.1,0.1,0,0.2,0c0,0.1,0.1,0.1,0.2,0s0.1,0,0.2,0c0,0.1,0.1,0.1,0.2,0c0-0.1,0.1,0,0.2,0c0,0.1,0.1,0.1,0.2,0s0.1,0,0.2,0
	c0,0.1,0.1,0.1,0.2,0c0-0.1,0.1-0.1,0.2,0c0,0.1,0.1,0.1,0.2,0c0-0.1,0.1-0.1,0.2,0c0,0.1,0.1,0.1,0.2,0c0-0.1,0.1-0.1,0.2,0
	C475.7,201.2,475.8,201.2,475.9,201.2"/>
<ellipse transform="matrix(0.3827 -0.9239 0.9239 0.3827 61.5281 407.2482)" class="st6" cx="335.5" cy="157.6" rx="8.7" ry="8.7"/>
<circle class="st7" cx="441.9" cy="157" r="16.8"/>
<circle class="st8" cx="313.8" cy="157" r="35.1"/>
<path class="st7" d="M530.4,174.9c9.9,0,17.9-8,17.9-17.9s-8-17.9-17.9-17.9s-17.9,8-17.9,17.9S520.5,174.9,530.4,174.9z"/>
<ellipse transform="matrix(0.9239 -0.3827 0.3827 0.9239 -20.5974 211.6093)" class="st6" cx="521.6" cy="157.6" rx="8.7" ry="8.7"/>
<ellipse transform="matrix(0.9239 -0.3827 0.3827 0.9239 -20.9757 209.1174)" class="st12" cx="515.2" cy="157.3" rx="6.5" ry="6.4"/>
<path class="st9" d="M500.2,169.6c6.8,0,12.3-5.5,12.3-12.3S507,145,500.2,145s-12.3,5.5-12.3,12.3S493.4,169.6,500.2,169.6
	L500.2,169.6z"/>
<ellipse transform="matrix(0.9733 -0.2297 0.2297 0.9733 -27.0037 82.1309)" class="st9" cx="339.3" cy="157" rx="12.5" ry="12.5"/>
<ellipse transform="matrix(0.3827 -0.9239 0.9239 0.3827 217.2327 642.4282)" class="st9" cx="589.3" cy="158.7" rx="15.2" ry="15.1"/>
<ellipse transform="matrix(0.9239 -0.3827 0.3827 0.9239 -14.0917 243.7256)" class="st6" cx="605.6" cy="157.3" rx="8.7" ry="8.7"/>
<path class="st9" d="M600.8,170.6c7.5,0,13.5-6.1,13.5-13.5s-6.1-13.5-13.5-13.5s-13.5,6.1-13.5,13.5S593.3,170.6,600.8,170.6z"/>
<path class="st6" d="M666.2,164.2c4,0,7.2-3.2,7.2-7.2s-3.2-7.2-7.2-7.2s-7.2,3.2-7.2,7.2S662.2,164.2,666.2,164.2z"/>
<circle class="st6" cx="182.2" cy="156.6" r="6.9"/>
<circle class="st6" cx="173.1" cy="157" r="7"/>
<circle class="st10" cx="260" cy="157.3" r="4.4"/>
<circle class="st10" cx="278.7" cy="157.3" r="4.4"/>
<path class="st10" d="M564.3,161.6c2.4,0,4.4-2,4.4-4.4s-2-4.4-4.4-4.4s-4.4,2-4.4,4.4S561.9,161.6,564.3,161.6z"/>
<circle class="st10" cx="441.8" cy="157.3" r="4.4"/>
<g class="st4">
	<g>
		<path class="st3" d="M429.2,353.4c40.7,0,73.7-36.1,73.7-80.7s-33-80.7-73.7-80.7s-73.7,36.1-73.7,80.7S388.5,353.4,429.2,353.4"
			/>
	</g>
</g>
<g class="st4">
	<g>
		<path class="st3" d="M438.4,358.4c24.2,0,43.9-36.1,43.9-80.7S462.6,197,438.4,197s-43.9,36.1-43.9,80.7S414.1,358.4,438.4,358.4"
			/>
	</g>
</g>
<g class="st13">
	<g class="st14">
		<path class="st3" d="M611.9,469.5c35.2,0,63.6-36.1,63.6-80.7s-28.5-80.7-63.6-80.7s-63.6,36.1-63.6,80.7S576.8,469.5,611.9,469.5
			"/>
	</g>
</g>
<g class="st13">
	<g class="st14">
		<path class="st3" d="M458.7,353.4c40.7,0,73.7-36.1,73.7-80.7s-33-80.7-73.7-80.7s-73.7,36.1-73.7,80.7S417.9,353.4,458.7,353.4"
			/>
	</g>
</g>
<line class="st15" x1="39.6" y1="157.3" x2="158.5" y2="157.3"/>
<line class="st15" x1="500.9" y1="157.3" x2="700.5" y2="157.3"/>
<line class="st15" x1="530.4" y1="272.7" x2="700.5" y2="272.7"/>
<line class="st15" x1="39.6" y1="272.7" x2="158.5" y2="272.7"/>
<g class="st13">
	<g class="st14">
		<path class="st3" d="M276,353.4c41.8,0,75.7-36.1,75.7-80.7s-33.9-80.7-75.7-80.7s-75.7,36.1-75.7,80.7S234.2,353.4,276,353.4"/>
	</g>
</g>
<path class="st5" d="M146.4,290.9c10.2,0,18.5-8.3,18.5-18.5s-8.3-18.5-18.5-18.5s-18.5,8.3-18.5,18.5S136.2,290.9,146.4,290.9z"/>
<path class="st5" d="M135.9,286.2c7.7,0,13.9-6.2,13.9-13.9s-6.2-13.9-13.9-13.9s-13.9,6.2-13.9,13.9S128.2,286.2,135.9,286.2z"/>
<circle class="st5" cx="193.2" cy="272.3" r="22.2"/>
<line class="st15" x1="39.6" y1="388.2" x2="532.4" y2="388.2"/>
<line class="st15" x1="648.3" y1="388.2" x2="700.6" y2="388.2"/>
<g>
	<path class="st3" d="M691.8,12.9c0-0.6-0.1-1.2-0.1-1.8h0c-0.1,0.5-0.3,1-0.5,1.5l-0.7,2h-0.4l-0.7-1.9c-0.2-0.6-0.3-1.1-0.5-1.6h0
		c0,0.5,0,1.2-0.1,1.8l-0.1,1.7h-0.5l0.3-4h0.7l0.7,2c0.2,0.5,0.3,0.9,0.4,1.4h0c0.1-0.4,0.2-0.9,0.4-1.4l0.7-2h0.7l0.2,4h-0.5
		L691.8,12.9L691.8,12.9z"/>
	<path class="st3" d="M695.3,12.8h-1.6v1.5h1.8v0.4h-2.3v-4h2.2v0.4h-1.7v1.3h1.6V12.8L695.3,12.8z"/>
	<path class="st3" d="M696.2,14.7v-4h0.6l1.3,2c0.3,0.5,0.5,0.9,0.7,1.3h0c0-0.6-0.1-1-0.1-1.7v-1.7h0.5v4h-0.5l-1.3-2.1
		c-0.3-0.4-0.5-0.9-0.8-1.4h0c0,0.5,0,1,0,1.7v1.7L696.2,14.7L696.2,14.7z"/>
	<path class="st3" d="M700.9,11.1h-1.2v-0.4h3v0.4h-1.2v3.6h-0.5L700.9,11.1L700.9,11.1z"/>
	<path class="st3" d="M703.3,13.4l-0.4,1.3h-0.5l1.4-4h0.6l1.4,4h-0.6l-0.4-1.3L703.3,13.4L703.3,13.4z M704.7,13l-0.4-1.2
		c-0.1-0.3-0.2-0.5-0.2-0.7h0c-0.1,0.2-0.1,0.5-0.2,0.7l-0.4,1.2L704.7,13L704.7,13z"/>
	<path class="st3" d="M706.3,10.6h0.5v3.6h1.7v0.4h-2.2C706.3,14.7,706.3,10.6,706.3,10.6z"/>
	<path class="st3" d="M712.5,12.8H711v1.5h1.8v0.4h-2.3v-4h2.2v0.4H711v1.3h1.6V12.8L712.5,12.8z"/>
	<path class="st3" d="M713.4,14.7v-4h0.6l1.3,2c0.3,0.5,0.5,0.9,0.7,1.3h0c0-0.6-0.1-1-0.1-1.7v-1.7h0.5v4h-0.5l-1.3-2.1
		c-0.3-0.4-0.5-0.9-0.8-1.4h0c0,0.5,0,1,0,1.7v1.7L713.4,14.7L713.4,14.7z"/>
	<path class="st3" d="M719.4,12.8h-1.6v1.5h1.8v0.4h-2.3v-4h2.2v0.4h-1.7v1.3h1.6V12.8L719.4,12.8z"/>
	<path class="st3" d="M720.3,10.7c0.3-0.1,0.6-0.1,1-0.1c0.6,0,0.9,0.1,1.2,0.3c0.2,0.2,0.3,0.5,0.3,0.8c0,0.5-0.3,0.9-0.8,1v0
		c0.3,0.1,0.5,0.4,0.6,0.8c0.1,0.6,0.2,0.9,0.3,1.1h-0.5c-0.1-0.1-0.2-0.5-0.3-1c-0.1-0.6-0.3-0.8-0.8-0.8h-0.5v1.8h-0.5V10.7z
		 M720.8,12.5h0.5c0.6,0,0.9-0.3,0.9-0.8c0-0.5-0.4-0.8-0.9-0.8c-0.2,0-0.4,0-0.5,0.1L720.8,12.5L720.8,12.5z"/>
	<path class="st3" d="M726.6,14.5c-0.2,0.1-0.7,0.2-1.2,0.2c-0.6,0-1.1-0.2-1.5-0.5c-0.3-0.3-0.6-0.9-0.6-1.5c0-1.2,0.8-2.1,2.2-2.1
		c0.5,0,0.8,0.1,1,0.2l-0.1,0.4c-0.2-0.1-0.5-0.2-0.9-0.2c-1,0-1.6,0.6-1.6,1.6s0.6,1.6,1.6,1.6c0.3,0,0.6-0.1,0.7-0.1v-1.2h-0.8
		v-0.4h1.3L726.6,14.5L726.6,14.5z"/>
	<path class="st3" d="M728.3,14.7v-1.7l-1.3-2.3h0.6l0.6,1.1c0.2,0.3,0.3,0.6,0.4,0.8h0c0.1-0.3,0.2-0.5,0.4-0.8l0.6-1.1h0.6
		l-1.4,2.3v1.7H728.3L728.3,14.7z"/>
	<path class="st3" d="M731.9,14c0.2,0.1,0.6,0.3,0.9,0.3c0.5,0,0.8-0.3,0.8-0.7c0-0.4-0.2-0.6-0.8-0.8c-0.7-0.2-1.1-0.6-1.1-1.1
		c0-0.6,0.5-1.1,1.3-1.1c0.4,0,0.7,0.1,0.9,0.2l-0.1,0.4c-0.1-0.1-0.4-0.2-0.8-0.2c-0.5,0-0.8,0.3-0.8,0.6c0,0.4,0.2,0.6,0.8,0.8
		c0.7,0.3,1,0.6,1,1.2c0,0.6-0.5,1.2-1.4,1.2c-0.4,0-0.8-0.1-1-0.3L731.9,14L731.9,14z"/>
	<path class="st3" d="M734.9,10.7c0.2,0,0.6-0.1,1-0.1c0.5,0,0.9,0.1,1.1,0.3c0.2,0.2,0.3,0.5,0.3,0.9s-0.1,0.6-0.3,0.9
		c-0.3,0.3-0.7,0.4-1.2,0.4c-0.2,0-0.3,0-0.4,0v1.6h-0.5L734.9,10.7L734.9,10.7z M735.4,12.6c0.1,0,0.3,0,0.4,0c0.6,0,1-0.3,1-0.9
		s-0.4-0.8-1-0.8c-0.2,0-0.4,0-0.5,0V12.6z"/>
	<path class="st3" d="M740.2,12.8h-1.6v1.5h1.8v0.4h-2.3v-4h2.2v0.4h-1.7v1.3h1.6V12.8L740.2,12.8z"/>
	<path class="st3" d="M741,14.7v-4h0.6l1.3,2c0.3,0.5,0.5,0.9,0.7,1.3h0c0-0.6-0.1-1-0.1-1.7v-1.7h0.5v4h-0.5l-1.3-2.1
		c-0.3-0.4-0.5-0.9-0.8-1.4h0c0,0.5,0,1,0,1.7v1.7L741,14.7L741,14.7z"/>
	<path class="st3" d="M745.8,11.1h-1.2v-0.4h3v0.4h-1.2v3.6h-0.5L745.8,11.1L745.8,11.1z"/>
</g>
<g>
	<path class="st3" d="M688.4,24.7c0.2,0,0.6-0.1,1-0.1c0.5,0,0.9,0.1,1.1,0.3c0.2,0.2,0.3,0.5,0.3,0.9s-0.1,0.6-0.3,0.9
		c-0.3,0.3-0.7,0.4-1.2,0.4c-0.2,0-0.3,0-0.4,0v1.6h-0.5L688.4,24.7L688.4,24.7z M688.9,26.6c0.1,0,0.3,0,0.4,0c0.6,0,1-0.3,1-0.9
		s-0.4-0.8-1-0.8c-0.2,0-0.4,0-0.5,0V26.6z"/>
	<path class="st3" d="M692.1,24.6v1.7h2v-1.7h0.5v4h-0.5v-1.9h-2v1.9h-0.5v-4C691.6,24.6,692.1,24.6,692.1,24.6z"/>
	<path class="st3" d="M696.4,28.7V27l-1.3-2.3h0.6l0.6,1.1c0.2,0.3,0.3,0.5,0.4,0.8h0c0.1-0.3,0.2-0.5,0.4-0.8l0.6-1.1h0.6l-1.4,2.3
		v1.7H696.4L696.4,28.7z"/>
	<path class="st3" d="M698.6,28c0.2,0.1,0.6,0.3,0.9,0.3c0.5,0,0.8-0.3,0.8-0.7c0-0.4-0.2-0.6-0.8-0.8c-0.7-0.2-1.1-0.6-1.1-1.1
		c0-0.6,0.5-1.1,1.3-1.1c0.4,0,0.7,0.1,0.9,0.2l-0.1,0.4c-0.1-0.1-0.4-0.2-0.8-0.2c-0.5,0-0.8,0.3-0.8,0.6c0,0.4,0.2,0.6,0.8,0.8
		c0.7,0.3,1,0.6,1,1.2c0,0.6-0.5,1.2-1.4,1.2c-0.4,0-0.8-0.1-1-0.3L698.6,28L698.6,28z"/>
	<path class="st3" d="M702.1,24.6v4h-0.5v-4C701.6,24.6,702.1,24.6,702.1,24.6z"/>
	<path class="st3" d="M705.9,28.5c-0.2,0.1-0.6,0.2-1.1,0.2c-1.1,0-2-0.7-2-2s0.9-2.1,2.1-2.1c0.5,0,0.8,0.1,1,0.2l-0.1,0.4
		c-0.2-0.1-0.5-0.2-0.8-0.2c-1,0-1.6,0.6-1.6,1.7c0,1,0.6,1.6,1.5,1.6c0.3,0,0.6-0.1,0.8-0.2L705.9,28.5L705.9,28.5z"/>
	<path class="st3" d="M707.2,27.4l-0.4,1.3h-0.5l1.4-4h0.6l1.4,4h-0.6l-0.4-1.3H707.2L707.2,27.4z M708.5,27l-0.4-1.2
		c-0.1-0.3-0.2-0.5-0.2-0.7h0c-0.1,0.2-0.1,0.5-0.2,0.7l-0.4,1.2H708.5L708.5,27z"/>
	<path class="st3" d="M710.2,24.6h0.5v3.6h1.7v0.4h-2.2C710.2,28.7,710.2,24.6,710.2,24.6z"/>
	<path class="st3" d="M716.4,26.8h-1.6v1.5h1.8v0.4h-2.3v-4h2.2v0.4h-1.7v1.3h1.6V26.8L716.4,26.8z"/>
	<path class="st3" d="M717.3,28.7v-4h0.6l1.3,2c0.3,0.5,0.5,0.9,0.7,1.3h0c0-0.5-0.1-1-0.1-1.7v-1.7h0.5v4h-0.5l-1.3-2
		c-0.3-0.5-0.5-0.9-0.8-1.4h0c0,0.5,0,1,0,1.7v1.7L717.3,28.7L717.3,28.7z"/>
	<path class="st3" d="M723.3,26.8h-1.6v1.5h1.8v0.4h-2.3v-4h2.2v0.4h-1.7v1.3h1.6V26.8L723.3,26.8z"/>
	<path class="st3" d="M724.2,24.7c0.3,0,0.6-0.1,1-0.1c0.6,0,0.9,0.1,1.2,0.3c0.2,0.2,0.3,0.5,0.3,0.8c0,0.5-0.3,0.9-0.8,1v0
		c0.3,0.1,0.5,0.4,0.6,0.8c0.1,0.6,0.2,1,0.3,1.1h-0.5c-0.1-0.1-0.2-0.5-0.3-1c-0.1-0.6-0.3-0.8-0.8-0.8h-0.5v1.8h-0.5
		C724.2,28.7,724.2,24.7,724.2,24.7z M724.7,26.5h0.5c0.6,0,0.9-0.3,0.9-0.8c0-0.5-0.4-0.8-0.9-0.8c-0.2,0-0.4,0-0.5,0L724.7,26.5
		L724.7,26.5z"/>
	<path class="st3" d="M730.5,28.5c-0.2,0.1-0.7,0.2-1.2,0.2c-0.6,0-1.1-0.2-1.5-0.5c-0.3-0.3-0.6-0.9-0.6-1.5c0-1.2,0.8-2.1,2.2-2.1
		c0.5,0,0.8,0.1,1,0.2l-0.1,0.4c-0.2-0.1-0.5-0.2-0.9-0.2c-1,0-1.6,0.6-1.6,1.6s0.6,1.6,1.6,1.6c0.3,0,0.6,0,0.7-0.1v-1.2h-0.8v-0.4
		h1.3L730.5,28.5L730.5,28.5z"/>
	<path class="st3" d="M732.2,28.7V27l-1.3-2.3h0.6l0.6,1.1c0.2,0.3,0.3,0.5,0.4,0.8h0c0.1-0.3,0.2-0.5,0.4-0.8l0.6-1.1h0.6l-1.4,2.3
		v1.7H732.2L732.2,28.7z"/>
	<path class="st3" d="M735.7,28c0.2,0.1,0.6,0.3,0.9,0.3c0.5,0,0.8-0.3,0.8-0.7c0-0.4-0.2-0.6-0.8-0.8c-0.7-0.2-1.1-0.6-1.1-1.1
		c0-0.6,0.5-1.1,1.3-1.1c0.4,0,0.7,0.1,0.9,0.2l-0.1,0.4c-0.1-0.1-0.4-0.2-0.8-0.2c-0.5,0-0.8,0.3-0.8,0.6c0,0.4,0.2,0.6,0.8,0.8
		c0.7,0.3,1,0.6,1,1.2c0,0.6-0.5,1.2-1.4,1.2c-0.4,0-0.8-0.1-1-0.3L735.7,28L735.7,28z"/>
	<path class="st3" d="M738.8,24.7c0.2,0,0.6-0.1,1-0.1c0.5,0,0.9,0.1,1.1,0.3c0.2,0.2,0.3,0.5,0.3,0.9s-0.1,0.6-0.3,0.9
		c-0.3,0.3-0.7,0.4-1.2,0.4c-0.2,0-0.3,0-0.4,0v1.6h-0.5L738.8,24.7L738.8,24.7z M739.3,26.6c0.1,0,0.3,0,0.4,0c0.6,0,1-0.3,1-0.9
		s-0.4-0.8-1-0.8c-0.2,0-0.4,0-0.5,0V26.6z"/>
	<path class="st3" d="M744,26.8h-1.6v1.5h1.8v0.4h-2.3v-4h2.2v0.4h-1.7v1.3h1.6V26.8L744,26.8z"/>
	<path class="st3" d="M744.9,28.7v-4h0.6l1.3,2c0.3,0.5,0.5,0.9,0.7,1.3h0c0-0.5-0.1-1-0.1-1.7v-1.7h0.5v4h-0.5l-1.3-2
		c-0.3-0.5-0.5-0.9-0.8-1.4h0c0,0.5,0,1,0,1.7v1.7L744.9,28.7L744.9,28.7z"/>
	<path class="st3" d="M749.6,25.1h-1.2v-0.4h3v0.4h-1.2v3.6h-0.5L749.6,25.1L749.6,25.1z"/>
</g>
<g>
	<path class="st3" d="M689.2,39.1h-1.2v-0.4h3v0.4h-1.2v3.6h-0.5L689.2,39.1L689.2,39.1z"/>
	<path class="st3" d="M691.9,38.6v4h-0.5v-4H691.9z"/>
	<path class="st3" d="M696.2,40.9c0-0.6-0.1-1.2-0.1-1.8h0c-0.1,0.5-0.3,1-0.5,1.5l-0.7,2h-0.4l-0.7-1.9c-0.2-0.6-0.3-1.1-0.5-1.6h0
		c0,0.5,0,1.2-0.1,1.8l-0.1,1.7h-0.5l0.3-4h0.7l0.7,2c0.2,0.5,0.3,0.9,0.4,1.4h0c0.1-0.4,0.2-0.8,0.4-1.4l0.7-2h0.7l0.2,4h-0.5
		L696.2,40.9L696.2,40.9z"/>
	<path class="st3" d="M699.7,40.8h-1.6v1.5h1.8v0.4h-2.3v-4h2.2v0.4h-1.7v1.3h1.6V40.8L699.7,40.8z"/>
	<path class="st3" d="M701.8,42c0.2,0.1,0.6,0.3,0.9,0.3c0.5,0,0.8-0.3,0.8-0.7c0-0.4-0.2-0.6-0.8-0.8c-0.7-0.2-1.1-0.6-1.1-1.2
		c0-0.6,0.5-1.1,1.3-1.1c0.4,0,0.7,0.1,0.9,0.2l-0.1,0.4c-0.1-0.1-0.4-0.2-0.8-0.2c-0.5,0-0.8,0.3-0.8,0.6c0,0.4,0.2,0.6,0.8,0.8
		c0.7,0.3,1,0.6,1,1.2c0,0.6-0.5,1.2-1.4,1.2c-0.4,0-0.8-0.1-1-0.3L701.8,42L701.8,42z"/>
	<path class="st3" d="M704.8,38.7c0.2,0,0.6-0.1,1-0.1c0.5,0,0.9,0.1,1.1,0.3c0.2,0.2,0.3,0.5,0.3,0.8s-0.1,0.7-0.3,0.9
		c-0.3,0.3-0.7,0.4-1.2,0.4c-0.2,0-0.3,0-0.4,0v1.6h-0.5L704.8,38.7L704.8,38.7z M705.4,40.6c0.1,0,0.3,0,0.4,0c0.6,0,1-0.3,1-0.9
		s-0.4-0.8-1-0.8c-0.2,0-0.4,0-0.5,0V40.6z"/>
	<path class="st3" d="M710.1,40.8h-1.6v1.5h1.8v0.4H708v-4h2.2v0.4h-1.7v1.3h1.6V40.8L710.1,40.8z"/>
	<path class="st3" d="M711,42.7v-4h0.6l1.3,2c0.3,0.5,0.5,0.9,0.7,1.3h0c0-0.5-0.1-1-0.1-1.7v-1.7h0.5v4h-0.5l-1.3-2
		c-0.3-0.5-0.5-0.9-0.8-1.3h0c0,0.5,0,1,0,1.7v1.7L711,42.7L711,42.7z"/>
	<path class="st3" d="M715.7,39.1h-1.2v-0.4h3v0.4h-1.2v3.6h-0.5L715.7,39.1L715.7,39.1z"/>
	<path class="st3" d="M719.8,41.4l-0.4,1.3h-0.5l1.4-4h0.6l1.4,4h-0.6l-0.4-1.3H719.8L719.8,41.4z M721.2,41l-0.4-1.2
		c-0.1-0.3-0.2-0.5-0.2-0.7h0c-0.1,0.2-0.1,0.5-0.2,0.7l-0.4,1.2L721.2,41L721.2,41z"/>
	<path class="st3" d="M723.2,39.1h-1.2v-0.4h3v0.4h-1.2v3.6h-0.5L723.2,39.1L723.2,39.1z"/>
	<path class="st3" d="M727.2,38.6v1.7h2v-1.7h0.5v4h-0.5v-1.9h-2v1.9h-0.5v-4H727.2z"/>
	<path class="st3" d="M734,40.6c0,1.4-0.8,2.1-1.9,2.1s-1.8-0.8-1.8-2c0-1.3,0.8-2.1,1.9-2.1S734,39.4,734,40.6z M730.9,40.7
		c0,0.9,0.5,1.6,1.3,1.6s1.3-0.8,1.3-1.7c0-0.8-0.4-1.6-1.3-1.6S730.9,39.8,730.9,40.7L730.9,40.7z"/>
	<path class="st3" d="M738.1,40.9c0-0.6-0.1-1.2-0.1-1.8h0c-0.1,0.5-0.3,1-0.5,1.5l-0.7,2h-0.4l-0.7-1.9c-0.2-0.6-0.3-1.1-0.5-1.6h0
		c0,0.5,0,1.2-0.1,1.8l-0.1,1.7h-0.5l0.3-4h0.7l0.7,2c0.2,0.5,0.3,0.9,0.4,1.4h0c0.1-0.4,0.2-0.8,0.4-1.4l0.7-2h0.7l0.2,4h-0.5
		L738.1,40.9L738.1,40.9z"/>
	<path class="st3" d="M741.6,40.8H740v1.5h1.8v0.4h-2.3v-4h2.2v0.4H740v1.3h1.6V40.8L741.6,40.8z"/>
</g>
<g>
	<path class="st3" d="M689.2,51.7h-1.2v-0.4h3v0.4h-1.2v3.6h-0.5L689.2,51.7L689.2,51.7z"/>
	<path class="st3" d="M691.9,51.3v4h-0.5v-4H691.9z"/>
	<path class="st3" d="M696.2,53.5c0-0.6-0.1-1.2-0.1-1.8h0c-0.1,0.5-0.3,1-0.5,1.5l-0.7,2h-0.4l-0.7-1.9c-0.2-0.6-0.3-1.1-0.5-1.6h0
		c0,0.5,0,1.2-0.1,1.8l-0.1,1.7h-0.5l0.3-4h0.7l0.7,2c0.2,0.5,0.3,0.9,0.4,1.4h0c0.1-0.4,0.2-0.8,0.4-1.4l0.7-2h0.7l0.2,4h-0.5
		L696.2,53.5L696.2,53.5z"/>
	<path class="st3" d="M699.7,53.4h-1.6v1.5h1.8v0.4h-2.3v-4h2.2v0.4h-1.7V53h1.6V53.4L699.7,53.4z"/>
	<path class="st3" d="M705.3,53.2c0,1.4-0.8,2.1-1.9,2.1s-1.8-0.8-1.8-2s0.8-2.1,1.9-2.1S705.3,52.1,705.3,53.2z M702.2,53.3
		c0,0.9,0.5,1.6,1.3,1.6s1.3-0.8,1.3-1.7c0-0.8-0.4-1.6-1.3-1.6S702.2,52.4,702.2,53.3L702.2,53.3z"/>
	<path class="st3" d="M706,51.3h2.2v0.4h-1.7V53h1.5v0.4h-1.5v1.8H706V51.3z"/>
	<path class="st3" d="M710.7,51.3v2.4c0,0.9,0.4,1.3,0.9,1.3c0.6,0,1-0.4,1-1.3v-2.4h0.5v2.4c0,1.2-0.7,1.8-1.5,1.8
		c-0.8,0-1.5-0.5-1.5-1.7v-2.4H710.7z"/>
	<path class="st3" d="M714,54.7c0.2,0.1,0.6,0.3,0.9,0.3c0.5,0,0.8-0.3,0.8-0.7c0-0.4-0.2-0.6-0.8-0.8c-0.7-0.2-1.1-0.6-1.1-1.2
		c0-0.6,0.5-1.1,1.3-1.1c0.4,0,0.7,0.1,0.9,0.2l-0.1,0.4c-0.1-0.1-0.4-0.2-0.8-0.2c-0.5,0-0.8,0.3-0.8,0.6c0,0.4,0.2,0.6,0.8,0.8
		c0.7,0.3,1,0.6,1,1.2c0,0.6-0.5,1.2-1.4,1.2c-0.4,0-0.8-0.1-1-0.3L714,54.7L714,54.7z"/>
	<path class="st3" d="M719.1,53.4h-1.6v1.5h1.8v0.4H717v-4h2.2v0.4h-1.7V53h1.6V53.4L719.1,53.4z"/>
</g>
<g class="st4">
	<g>
		<path class="st3" d="M668.6,18.3c3.1,0,5.7-2.5,5.7-5.7S671.8,7,668.6,7s-5.7,2.5-5.7,5.7S665.5,18.3,668.6,18.3"/>
	</g>
</g>
<rect y="7" class="st10" width="791" height="465.3"/>
<line class="st15" x1="663" y1="40.1" x2="674.3" y2="40.1"/>
<path class="st6" d="M668.6,32.5c3.1,0,5.7-2.5,5.7-5.7s-2.5-5.7-5.7-5.7s-5.7,2.5-5.7,5.7S665.5,32.5,668.6,32.5z"/>
<g class="st16">
	<g>
		<line class="st17" x1="291.2" y1="45.1" x2="291.2" y2="471.9"/>
		<path class="st18" d="M291.2,472.2L291.2,472.2 M291.2,44.6L291.2,44.6"/>
	</g>
</g>
<g class="st16">
	<g>
		<line class="st17" x1="146.3" y1="45.1" x2="146.3" y2="471.9"/>
		<path class="st18" d="M146.3,472.2L146.3,472.2 M146.3,44.6L146.3,44.6"/>
	</g>
</g>
<g class="st16">
	<g>
		<line class="st17" x1="471.9" y1="45.1" x2="471.9" y2="471.9"/>
		<path class="st18" d="M471.9,472.2L471.9,472.2 M471.9,44.6L471.9,44.6"/>
	</g>
</g>
<g class="st2">
	<g>
		<g>
			<path class="st3" d="M138.4,66.2c-0.6,0-1.2,0.1-1.8,0.1v0c0.5,0.1,1,0.3,1.5,0.5l2,0.7v0.4l-1.9,0.7c-0.6,0.2-1.1,0.3-1.6,0.5
				l0,0c0.5,0,1.2,0.1,1.8,0.1l1.7,0.1v0.5l-4-0.3v-0.7l2-0.7c0.5-0.2,0.9-0.3,1.4-0.4v0c-0.4-0.1-0.9-0.2-1.4-0.4l-2-0.7v-0.7
				l4-0.2V66L138.4,66.2L138.4,66.2z"/>
			<path class="st3" d="M138.2,61.3c1.4,0,2.1,0.8,2.1,1.9c0,1-0.8,1.8-2.1,1.8c-1.3,0-2.1-0.8-2.1-1.9S137,61.3,138.2,61.3z
				 M138.2,64.4c0.9,0,1.6-0.5,1.6-1.3s-0.8-1.3-1.7-1.3c-0.8,0-1.6,0.4-1.6,1.3C136.6,64,137.4,64.4,138.2,64.4L138.2,64.4z"/>
			<path class="st3" d="M136.2,60.6c-0.1-0.3-0.1-0.6-0.1-1c0-0.6,0.1-0.9,0.3-1.2c0.2-0.2,0.5-0.3,0.8-0.3c0.5,0,0.9,0.3,1,0.8h0
				c0.1-0.3,0.4-0.5,0.8-0.6c0.6-0.1,0.9-0.2,1.1-0.3v0.5c-0.1,0.1-0.5,0.2-1,0.3c-0.6,0.1-0.8,0.3-0.8,0.8v0.5h1.8v0.5L136.2,60.6
				L136.2,60.6z M138.1,60.1v-0.5c0-0.6-0.3-0.9-0.8-0.9c-0.5,0-0.8,0.4-0.8,0.9c0,0.2,0,0.4,0.1,0.5L138.1,60.1L138.1,60.1z"/>
			<path class="st3" d="M140.2,57.4h-4v-0.6l2-1.3c0.5-0.3,0.9-0.5,1.3-0.7l0,0c-0.5,0-1,0-1.7,0h-1.7v-0.5h4v0.5l-2.1,1.3
				c-0.4,0.3-0.9,0.5-1.4,0.8v0c0.5,0,1,0,1.7,0h1.7L140.2,57.4L140.2,57.4z"/>
			<path class="st3" d="M136.2,52.9h4v0.5h-4V52.9z"/>
			<path class="st3" d="M140.2,52h-4v-0.6l2-1.3c0.5-0.3,0.9-0.5,1.3-0.7l0,0c-0.5,0-1,0-1.7,0h-1.7V49h4v0.5l-2.1,1.3
				c-0.4,0.3-0.9,0.5-1.4,0.8v0c0.5,0,1,0,1.7,0h1.7L140.2,52L140.2,52z"/>
			<path class="st3" d="M140,45c0.1,0.2,0.2,0.7,0.2,1.2c0,0.6-0.2,1.1-0.5,1.5c-0.3,0.3-0.9,0.6-1.5,0.6c-1.2,0-2.1-0.8-2.1-2.2
				c0-0.5,0.1-0.8,0.2-1l0.4,0.1c-0.1,0.2-0.2,0.5-0.2,0.9c0,1,0.6,1.6,1.6,1.6s1.6-0.6,1.6-1.6c0-0.3-0.1-0.6-0.1-0.7h-1.2v0.8
				h-0.4V45L140,45L140,45z"/>
		</g>
	</g>
</g>
<g class="st2">
	<g>
		<g>
			<path class="st3" d="M284.7,75.4l1.3,0.4v0.5l-4-1.4v-0.6l4-1.4v0.6l-1.3,0.4V75.4z M284.3,74.1l-1.2,0.4
				c-0.3,0.1-0.5,0.2-0.7,0.2l0,0c0.2,0.1,0.5,0.1,0.7,0.2l1.2,0.4L284.3,74.1L284.3,74.1z"/>
			<path class="st3" d="M281.9,72.4v-2.2h0.4v1.7h1.3v-1.5h0.4v1.5h1.8v0.5L281.9,72.4L281.9,72.4z"/>
			<path class="st3" d="M282.4,68.8V70H282v-3h0.4v1.2h3.6v0.5L282.4,68.8L282.4,68.8z"/>
			<path class="st3" d="M284.1,64.4V66h1.5v-1.8h0.4v2.3h-4v-2.2h0.4V66h1.3v-1.6H284.1L284.1,64.4z"/>
			<path class="st3" d="M282,63.6c0-0.3-0.1-0.6-0.1-1c0-0.6,0.1-0.9,0.3-1.2c0.2-0.2,0.5-0.3,0.8-0.3c0.5,0,0.9,0.3,1,0.8h0
				c0.1-0.3,0.4-0.5,0.8-0.6c0.6-0.1,1-0.2,1.1-0.3v0.5c-0.1,0.1-0.5,0.2-1,0.3c-0.6,0.1-0.8,0.3-0.8,0.8v0.5h1.8v0.5L282,63.6
				L282,63.6z M283.8,63.1v-0.5c0-0.6-0.3-0.9-0.8-0.9c-0.5,0-0.8,0.4-0.8,0.9c0,0.2,0,0.4,0,0.5L283.8,63.1L283.8,63.1z"/>
			<path class="st3" d="M286,60.3h-4v-0.6l2-1.3c0.5-0.3,0.9-0.5,1.3-0.7l0,0c-0.5,0-1,0-1.7,0h-1.7v-0.5h4v0.5l-2,1.3
				c-0.5,0.3-0.9,0.5-1.4,0.8v0c0.5,0,1,0,1.7,0h1.7L286,60.3L286,60.3z"/>
			<path class="st3" d="M283.9,53c1.4,0,2.1,0.8,2.1,1.9s-0.8,1.8-2,1.8c-1.3,0-2.1-0.8-2.1-1.9S282.7,53,283.9,53L283.9,53z
				 M284,56.1c0.9,0,1.6-0.5,1.6-1.3s-0.8-1.3-1.7-1.3c-0.8,0-1.6,0.4-1.6,1.3S283.1,56.1,284,56.1L284,56.1z"/>
			<path class="st3" d="M283.9,48.8c1.4,0,2.1,0.8,2.1,1.9s-0.8,1.8-2,1.8c-1.3,0-2.1-0.8-2.1-1.9S282.7,48.8,283.9,48.8L283.9,48.8
				z M284,52c0.9,0,1.6-0.5,1.6-1.3s-0.8-1.3-1.7-1.3c-0.8,0-1.6,0.4-1.6,1.3S283.1,52,284,52L284,52z"/>
			<path class="st3" d="M286,48.1h-4v-0.6l2-1.3c0.5-0.3,0.9-0.5,1.3-0.7l0,0c-0.5,0-1,0-1.7,0h-1.7v-0.5h4v0.5l-2,1.3
				c-0.5,0.3-0.9,0.5-1.4,0.8v0c0.5,0,1,0,1.7,0h1.7L286,48.1L286,48.1z"/>
		</g>
	</g>
</g>
<g class="st2">
	<g>
		<g>
			<path class="st3" d="M466.6,60.3h-4v-0.6l2-1.3c0.5-0.3,0.9-0.5,1.3-0.7l0,0c-0.5,0-1,0-1.7,0h-1.7v-0.5h4v0.5l-2,1.3
				c-0.5,0.3-0.9,0.5-1.4,0.8v0c0.5,0,1,0,1.7,0h1.7L466.6,60.3L466.6,60.3z"/>
			<path class="st3" d="M462.6,55.9h4v0.5h-4V55.9z"/>
			<path class="st3" d="M466.4,51.9c0.1,0.2,0.2,0.7,0.2,1.2c0,0.6-0.2,1.1-0.5,1.5c-0.3,0.3-0.9,0.6-1.5,0.6
				c-1.2,0-2.1-0.8-2.1-2.2c0-0.5,0.1-0.8,0.2-1l0.4,0.1c-0.1,0.2-0.2,0.5-0.2,0.9c0,1,0.6,1.6,1.6,1.6s1.6-0.6,1.6-1.6
				c0-0.3,0-0.6-0.1-0.7h-1.2v0.8h-0.4v-1.3L466.4,51.9L466.4,51.9z"/>
			<path class="st3" d="M462.6,50.6h1.7v-2h-1.7v-0.5h4v0.5h-1.9v2h1.9v0.5h-4V50.6z"/>
			<path class="st3" d="M463,46.4v1.2h-0.4v-3h0.4v1.2h3.6v0.5L463,46.4L463,46.4z"/>
		</g>
	</g>
</g>
<g class="st4">
	<g>
		<path class="st3" d="M626.4,353.4c12.1,0,21.9-36.1,21.9-80.7s-9.8-80.7-21.9-80.7s-21.9,36.1-21.9,80.7S614.3,353.4,626.4,353.4"
			/>
	</g>
</g>
<rect y="7" class="st10" width="791" height="465.3"/>
<rect y="7" class="st10" width="791" height="465.3"/>
</svg>
