<?xml version="1.0" encoding="UTF-8"?><svg id="a" xmlns="http://www.w3.org/2000/svg" xmlns:xlink="http://www.w3.org/1999/xlink" viewBox="0 0 662.96 136.93"><defs><style>.f{stroke:#2bb673;}.f,.g,.h,.i{fill:none;}.f,.i{stroke-width:.25px;}.j{fill:#c1d82f;}.k{opacity:.75;}.l{clip-path:url(#b);}.m{clip-path:url(#c);}.n{clip-path:url(#e);}.o{clip-path:url(#d);}.g{stroke-width:.4px;}.g,.i{stroke:#231f20;}.i{stroke-dasharray:0 0 .75 .5;}.p{fill:#231f20;}</style><clipPath id="b"><rect x="511.92" y="105.09" width="68.78" height="17" fill="none"/></clipPath><clipPath id="c"><rect x="368.03" y="105.09" width="92.65" height="17" fill="none"/></clipPath><clipPath id="d"><rect x="12.04" y="105.09" width="66.4" height="17" fill="none"/></clipPath><clipPath id="e"><rect x="146.81" y="105.09" width="95.85" height="17" fill="none"/></clipPath></defs><path d="M83.88,106.65c3.13,0,5.67-2.54,5.67-5.67s-2.54-5.67-5.67-5.67-5.67,2.54-5.67,5.67,2.54,5.67,5.67,5.67" fill="#c1d82f"/><path d="M627.76,106.65c3.13,0,5.67-2.54,5.67-5.67s-2.54-5.67-5.67-5.67-5.67,2.54-5.67,5.67,2.54,5.67,5.67,5.67" fill="#c1d82f"/><path d="M411.25,106.65c3.13,0,5.67-2.54,5.67-5.67s-2.54-5.67-5.67-5.67-5.67,2.54-5.67,5.67,2.54,5.67,5.67,5.67" fill="#c1d82f"/><g><path d="M.46,85.21c.25-.04,.58-.08,1-.08,.52,0,.89,.12,1.13,.33,.22,.19,.35,.49,.35,.85s-.11,.65-.31,.86c-.28,.29-.73,.44-1.23,.44-.16,0-.3,0-.42-.04v1.62H.46v-3.99Zm.52,1.95c.11,.03,.26,.04,.43,.04,.63,0,1.01-.31,1.01-.86s-.38-.79-.95-.79c-.23,0-.4,.02-.49,.04v1.57Z" fill="#231f20"/><path d="M4.17,85.16v2.39c0,.91,.4,1.29,.94,1.29,.6,0,.98-.4,.98-1.29v-2.39h.53v2.36c0,1.24-.65,1.75-1.53,1.75-.83,0-1.45-.47-1.45-1.73v-2.38h.53Z" fill="#231f20"/><path d="M7.53,85.21c.23-.05,.59-.08,.95-.08,.52,0,.86,.09,1.11,.29,.21,.16,.34,.4,.34,.71,0,.39-.26,.73-.68,.89h0c.38,.11,.83,.43,.83,1.03,0,.35-.14,.61-.34,.81-.28,.26-.74,.38-1.4,.38-.36,0-.64-.02-.81-.05v-3.98Zm.52,1.66h.47c.55,0,.88-.29,.88-.68,0-.47-.36-.66-.89-.66-.24,0-.38,.02-.46,.04v1.3Zm0,1.94c.1,.02,.25,.02,.44,.02,.54,0,1.04-.2,1.04-.79,0-.55-.47-.78-1.04-.78h-.43v1.54Z" fill="#231f20"/><path d="M10.78,85.16h.52v3.6h1.73v.44h-2.25v-4.04Z" fill="#231f20"/><path d="M14.14,85.16v4.04h-.52v-4.04h.52Z" fill="#231f20"/><path d="M17.87,89.07c-.19,.1-.58,.19-1.07,.19-1.14,0-2-.72-2-2.04s.86-2.12,2.11-2.12c.5,0,.82,.11,.96,.18l-.13,.43c-.2-.1-.48-.17-.82-.17-.95,0-1.58,.61-1.58,1.67,0,.99,.57,1.62,1.55,1.62,.32,0,.64-.07,.85-.17l.11,.41Z" fill="#231f20"/></g><g><path d="M643.4,85.21c.25-.04,.58-.08,1-.08,.52,0,.89,.12,1.13,.33,.22,.19,.35,.49,.35,.85s-.11,.65-.31,.86c-.28,.29-.73,.44-1.24,.44-.16,0-.3,0-.42-.04v1.62h-.52v-3.99Zm.52,1.95c.11,.03,.26,.04,.43,.04,.63,0,1.01-.31,1.01-.86s-.38-.79-.95-.79c-.23,0-.4,.02-.49,.04v1.57Z" fill="#231f20"/><path d="M646.6,85.21c.26-.05,.64-.08,1-.08,.56,0,.92,.1,1.17,.33,.2,.18,.32,.46,.32,.77,0,.53-.34,.89-.76,1.03v.02c.31,.11,.5,.4,.59,.82,.13,.56,.23,.95,.31,1.11h-.54c-.07-.11-.16-.46-.27-.97-.12-.56-.33-.77-.81-.79h-.49v1.75h-.52v-3.99Zm.52,1.84h.53c.56,0,.91-.31,.91-.77,0-.52-.38-.75-.93-.76-.25,0-.43,.02-.52,.05v1.48Z" fill="#231f20"/><path d="M650.35,85.16v4.04h-.52v-4.04h.52Z" fill="#231f20"/><path d="M652.14,89.2l-1.32-4.04h.56l.63,1.99c.17,.55,.32,1.04,.43,1.51h.01c.11-.47,.28-.98,.46-1.5l.68-2h.56l-1.45,4.04h-.58Z" fill="#231f20"/><path d="M654.92,87.93l-.42,1.27h-.54l1.37-4.04h.63l1.38,4.04h-.56l-.43-1.27h-1.43Zm1.33-.41l-.4-1.16c-.09-.26-.15-.5-.21-.74h-.01c-.06,.24-.13,.49-.2,.73l-.4,1.17h1.22Z" fill="#231f20"/><path d="M658.25,85.6h-1.23v-.44h2.99v.44h-1.24v3.6h-.53v-3.6Z" fill="#231f20"/><path d="M662.55,87.31h-1.57v1.46h1.75v.44h-2.27v-4.04h2.18v.44h-1.66v1.28h1.57v.43Z" fill="#231f20"/></g><line x1="9.04" y1="100.98" x2="652.95" y2="100.98" fill="none" stroke="#231f20" stroke-width=".4"/><line x1="78.21" y1="50.47" x2="78.21" y2="136.93" fill="none" stroke="#231f20" stroke-dasharray="0 0 .75 .5" stroke-width=".25"/><line x1="89.26" y1="50.47" x2="89.26" y2="136.93" fill="none" stroke="#231f20" stroke-dasharray="0 0 .75 .5" stroke-width=".25"/><g><path d="M69.9,63.9v-2.18h.44v1.65h1.34v-1.53h.43v1.53h1.83v.52h-4.04Z" fill="#231f20"/><path d="M71.88,57.53c1.39,0,2.13,.85,2.13,1.88s-.83,1.82-2.05,1.82-2.12-.8-2.12-1.88,.84-1.82,2.04-1.82Zm.07,3.14c.86,0,1.64-.47,1.64-1.29s-.76-1.29-1.68-1.29c-.8,0-1.64,.42-1.64,1.29s.8,1.3,1.68,1.3Z" fill="#231f20"/><path d="M69.9,56.85v-.52h3.6v-1.73h.44v2.25h-4.04Z" fill="#231f20"/><path d="M69.95,54.01c-.05-.32-.08-.7-.08-1.11,0-.75,.17-1.28,.5-1.64,.33-.36,.8-.57,1.45-.57s1.2,.2,1.57,.58c.38,.38,.58,1,.58,1.79,0,.37-.02,.68-.05,.95h-3.98Zm3.57-.52c.02-.13,.03-.32,.03-.53,0-1.12-.62-1.72-1.71-1.72-.95,0-1.56,.53-1.56,1.64,0,.27,.02,.47,.05,.61h3.19Z" fill="#231f20"/></g><g><path d="M461.49,114.71h.7v4.8h2.3v.58h-3v-5.39Z" fill="#231f20"/><path d="M466.02,115.14c0,.24-.17,.43-.45,.43-.25,0-.42-.19-.42-.43s.18-.44,.44-.44,.43,.19,.43,.44Zm-.78,4.96v-3.87h.7v3.87h-.7Z" fill="#231f20"/><path d="M467.38,116.22l.76,2.17c.13,.35,.23,.67,.31,.99h.02c.09-.32,.2-.64,.33-.99l.75-2.17h.74l-1.52,3.87h-.67l-1.47-3.87h.75Z" fill="#231f20"/><path d="M471.74,115.14c0,.24-.17,.43-.45,.43-.25,0-.42-.19-.42-.43s.18-.44,.44-.44,.43,.19,.43,.44Zm-.78,4.96v-3.87h.7v3.87h-.7Z" fill="#231f20"/><path d="M472.83,117.27c0-.4,0-.73-.03-1.05h.62l.04,.64h.02c.19-.37,.64-.73,1.28-.73,.54,0,1.37,.32,1.37,1.65v2.31h-.7v-2.23c0-.62-.23-1.14-.9-1.14-.46,0-.82,.33-.94,.72-.03,.09-.05,.21-.05,.33v2.33h-.7v-2.82Z" fill="#231f20"/><path d="M480.61,116.22c-.02,.28-.03,.59-.03,1.06v2.25c0,.89-.18,1.43-.55,1.77-.38,.35-.92,.46-1.41,.46s-.98-.11-1.29-.32l.18-.54c.26,.16,.66,.3,1.14,.3,.72,0,1.25-.38,1.25-1.35v-.43h-.02c-.22,.36-.63,.65-1.23,.65-.96,0-1.65-.82-1.65-1.89,0-1.31,.86-2.05,1.74-2.05,.67,0,1.04,.35,1.21,.67h.02l.03-.58h.62Zm-.73,1.53c0-.12,0-.22-.04-.32-.13-.41-.47-.74-.98-.74-.67,0-1.15,.57-1.15,1.46,0,.76,.38,1.39,1.14,1.39,.43,0,.82-.27,.98-.72,.04-.12,.06-.26,.06-.38v-.7Z" fill="#231f20"/><path d="M483.37,119.25c.31,.19,.77,.35,1.25,.35,.71,0,1.13-.38,1.13-.92,0-.5-.29-.79-1.02-1.07-.88-.31-1.42-.77-1.42-1.53,0-.84,.7-1.46,1.74-1.46,.55,0,.95,.13,1.19,.26l-.19,.57c-.18-.1-.54-.26-1.02-.26-.74,0-1.02,.44-1.02,.81,0,.5,.33,.75,1.07,1.04,.91,.35,1.38,.79,1.38,1.58,0,.83-.62,1.55-1.89,1.55-.52,0-1.09-.15-1.38-.34l.18-.58Z" fill="#231f20"/><path d="M487.38,117.49c0-.5-.02-.9-.03-1.26h.63l.03,.66h.02c.29-.47,.74-.75,1.38-.75,.94,0,1.64,.79,1.64,1.97,0,1.39-.85,2.08-1.76,2.08-.51,0-.96-.22-1.19-.61h-.02v2.1h-.7v-4.19Zm.7,1.03c0,.1,.02,.2,.03,.29,.13,.49,.55,.82,1.06,.82,.74,0,1.17-.61,1.17-1.5,0-.78-.41-1.44-1.15-1.44-.48,0-.93,.34-1.06,.87-.02,.09-.05,.19-.05,.29v.66Z" fill="#231f20"/><path d="M494.08,120.09l-.06-.49h-.02c-.22,.3-.63,.58-1.18,.58-.78,0-1.18-.55-1.18-1.11,0-.94,.83-1.45,2.33-1.44v-.08c0-.32-.09-.9-.88-.9-.36,0-.74,.11-1.01,.29l-.16-.46c.32-.21,.78-.34,1.27-.34,1.18,0,1.47,.81,1.47,1.58v1.45c0,.34,.02,.66,.06,.93h-.64Zm-.1-1.97c-.77-.02-1.64,.12-1.64,.87,0,.46,.3,.67,.66,.67,.5,0,.82-.32,.94-.65,.02-.07,.04-.15,.04-.22v-.67Z" fill="#231f20"/><path d="M498.55,119.95c-.18,.1-.59,.22-1.11,.22-1.17,0-1.93-.79-1.93-1.97s.82-2.06,2.08-2.06c.42,0,.78,.1,.98,.2l-.16,.54c-.17-.1-.43-.18-.82-.18-.89,0-1.37,.66-1.37,1.46,0,.9,.58,1.45,1.34,1.45,.4,0,.66-.1,.86-.19l.12,.53Z" fill="#231f20"/><path d="M499.72,118.29c.02,.95,.62,1.34,1.33,1.34,.5,0,.81-.09,1.07-.2l.12,.5c-.25,.11-.67,.24-1.29,.24-1.19,0-1.9-.78-1.9-1.95s.69-2.09,1.82-2.09c1.26,0,1.6,1.11,1.6,1.82,0,.14-.02,.26-.02,.33h-2.72Zm2.06-.5c0-.45-.18-1.14-.98-1.14-.71,0-1.02,.66-1.08,1.14h2.05Z" fill="#231f20"/></g><g opacity=".75"><g clip-path="#b"><g><path d="M521.37,118.6c.27,.17,.67,.31,1.09,.31,.62,0,.99-.33,.99-.8,0-.44-.25-.69-.89-.94-.77-.27-1.25-.67-1.25-1.34,0-.74,.61-1.28,1.53-1.28,.48,0,.83,.11,1.04,.23l-.17,.5c-.15-.08-.47-.22-.9-.22-.64,0-.89,.38-.89,.71,0,.44,.29,.66,.94,.91,.8,.31,1.2,.69,1.2,1.39,0,.73-.54,1.36-1.65,1.36-.46,0-.95-.13-1.21-.3l.15-.51Z" fill="#231f20"/><path d="M524.88,114.37h.62v4.97h-.62v-4.97Z" fill="#231f20"/><path d="M526.88,117.76c.01,.83,.55,1.18,1.16,1.18,.44,0,.71-.08,.94-.17l.1,.44c-.22,.1-.59,.21-1.13,.21-1.04,0-1.67-.69-1.67-1.71s.6-1.83,1.59-1.83c1.11,0,1.4,.97,1.4,1.6,0,.13-.01,.22-.02,.29h-2.38Zm1.81-.44c0-.39-.16-1-.85-1-.62,0-.9,.57-.95,1h1.8Z" fill="#231f20"/><path d="M530.39,117.76c.01,.83,.55,1.18,1.16,1.18,.44,0,.71-.08,.94-.17l.1,.44c-.22,.1-.59,.21-1.13,.21-1.04,0-1.67-.69-1.67-1.71s.6-1.83,1.59-1.83c1.11,0,1.4,.97,1.4,1.6,0,.13-.01,.22-.02,.29h-2.38Zm1.81-.44c0-.39-.16-1-.85-1-.62,0-.9,.57-.95,1h1.8Z" fill="#231f20"/><path d="M533.55,117.06c0-.43-.01-.78-.03-1.11h.55l.03,.58h.01c.25-.41,.65-.66,1.21-.66,.82,0,1.44,.69,1.44,1.72,0,1.22-.74,1.82-1.54,1.82-.45,0-.84-.2-1.04-.53h-.01v1.84h-.61v-3.67Zm.61,.9c0,.09,.01,.17,.03,.25,.11,.43,.48,.72,.92,.72,.65,0,1.03-.53,1.03-1.31,0-.68-.36-1.26-1.01-1.26-.42,0-.81,.3-.93,.76-.02,.08-.04,.17-.04,.25v.58Z" fill="#231f20"/><path d="M538.22,115c0,.21-.15,.38-.39,.38-.22,0-.37-.17-.37-.38s.16-.38,.38-.38,.38,.17,.38,.38Zm-.69,4.34v-3.39h.62v3.39h-.62Z" fill="#231f20"/><path d="M539.17,116.87c0-.35,0-.64-.03-.92h.55l.04,.56h.01c.17-.32,.56-.64,1.12-.64,.47,0,1.2,.28,1.2,1.44v2.02h-.62v-1.95c0-.55-.2-1-.78-1-.41,0-.72,.29-.83,.63-.03,.08-.04,.18-.04,.29v2.04h-.62v-2.47Z" fill="#231f20"/><path d="M545.98,115.95c-.01,.25-.03,.52-.03,.93v1.97c0,.78-.15,1.25-.48,1.55-.33,.31-.81,.41-1.23,.41s-.85-.1-1.13-.28l.15-.47c.22,.14,.57,.27,.99,.27,.63,0,1.09-.33,1.09-1.18v-.38h-.01c-.19,.31-.55,.57-1.08,.57-.84,0-1.44-.71-1.44-1.65,0-1.15,.75-1.8,1.53-1.8,.59,0,.91,.31,1.06,.59h.01l.03-.51h.54Zm-.64,1.34c0-.11,0-.2-.04-.28-.11-.36-.41-.65-.86-.65-.59,0-1.01,.5-1.01,1.28,0,.67,.34,1.22,1,1.22,.38,0,.72-.24,.85-.63,.04-.11,.05-.22,.05-.33v-.61Z" fill="#231f20"/><path d="M548.39,118.6c.27,.17,.67,.31,1.09,.31,.62,0,.99-.33,.99-.8,0-.44-.25-.69-.89-.94-.77-.27-1.25-.67-1.25-1.34,0-.74,.61-1.28,1.53-1.28,.48,0,.83,.11,1.04,.23l-.17,.5c-.15-.08-.47-.22-.9-.22-.64,0-.89,.38-.89,.71,0,.44,.29,.66,.94,.91,.8,.31,1.2,.69,1.2,1.39,0,.73-.54,1.36-1.65,1.36-.46,0-.95-.13-1.21-.3l.15-.51Z" fill="#231f20"/><path d="M551.9,117.06c0-.43-.01-.78-.03-1.11h.55l.03,.58h.01c.25-.41,.65-.66,1.21-.66,.82,0,1.44,.69,1.44,1.72,0,1.22-.74,1.82-1.54,1.82-.45,0-.84-.2-1.04-.53h-.01v1.84h-.61v-3.67Zm.61,.9c0,.09,.01,.17,.03,.25,.11,.43,.48,.72,.92,.72,.65,0,1.03-.53,1.03-1.31,0-.68-.36-1.26-1.01-1.26-.42,0-.81,.3-.93,.76-.02,.08-.04,.17-.04,.25v.58Z" fill="#231f20"/><path d="M557.76,119.34l-.05-.43h-.02c-.19,.27-.55,.5-1.04,.5-.69,0-1.04-.48-1.04-.97,0-.82,.73-1.27,2.04-1.26v-.07c0-.28-.08-.78-.77-.78-.32,0-.64,.1-.88,.25l-.14-.41c.28-.18,.69-.3,1.11-.3,1.04,0,1.29,.71,1.29,1.39v1.27c0,.29,.01,.58,.06,.81h-.56Zm-.09-1.73c-.67-.01-1.44,.1-1.44,.76,0,.4,.27,.59,.58,.59,.44,0,.72-.28,.82-.57,.02-.06,.03-.13,.03-.2v-.59Z" fill="#231f20"/><path d="M561.68,119.22c-.16,.08-.52,.2-.97,.2-1.02,0-1.69-.69-1.69-1.73s.71-1.8,1.82-1.8c.36,0,.69,.09,.85,.17l-.14,.48c-.15-.08-.38-.16-.71-.16-.78,0-1.2,.57-1.2,1.28,0,.78,.5,1.27,1.18,1.27,.35,0,.58-.09,.76-.17l.11,.46Z" fill="#231f20"/><path d="M562.7,117.76c.01,.83,.55,1.18,1.16,1.18,.44,0,.71-.08,.94-.17l.1,.44c-.22,.1-.59,.21-1.13,.21-1.04,0-1.67-.69-1.67-1.71s.6-1.83,1.59-1.83c1.11,0,1.4,.97,1.4,1.6,0,.13-.01,.22-.02,.29h-2.38Zm1.81-.44c0-.39-.16-1-.85-1-.62,0-.9,.57-.95,1h1.8Z" fill="#231f20"/></g></g></g><g><path d="M579.74,120.09l-1.37-5.39h.74l.64,2.73c.16,.67,.3,1.34,.4,1.86h.02c.09-.54,.26-1.17,.44-1.87l.72-2.72h.73l.66,2.73c.15,.64,.3,1.28,.38,1.85h.02c.11-.59,.26-1.19,.43-1.86l.71-2.72h.71l-1.53,5.39h-.73l-.68-2.81c-.17-.69-.28-1.21-.35-1.76h-.02c-.1,.54-.22,1.06-.42,1.76l-.77,2.81h-.73Z" fill="#231f20"/><path d="M588.85,118.13c0,1.43-.99,2.05-1.93,2.05-1.05,0-1.86-.77-1.86-1.99,0-1.29,.85-2.05,1.92-2.05s1.86,.81,1.86,1.99Zm-3.07,.04c0,.85,.49,1.49,1.17,1.49s1.18-.63,1.18-1.5c0-.66-.33-1.49-1.16-1.49s-1.19,.77-1.19,1.5Z" fill="#231f20"/><path d="M589.74,117.43c0-.46,0-.85-.03-1.21h.62l.02,.76h.03c.18-.52,.6-.85,1.07-.85,.08,0,.14,0,.2,.02v.66c-.07-.02-.14-.02-.24-.02-.5,0-.85,.38-.94,.9-.02,.1-.03,.21-.03,.33v2.06h-.7v-2.66Z" fill="#231f20"/><path d="M593.07,118h.02c.1-.14,.23-.3,.34-.44l1.14-1.34h.85l-1.5,1.59,1.7,2.28h-.86l-1.34-1.86-.36,.4v1.46h-.7v-5.68h.7v3.58Z" fill="#231f20"/><path d="M597.04,115.14c0,.24-.17,.43-.45,.43-.25,0-.42-.19-.42-.43s.18-.44,.44-.44,.43,.19,.43,.44Zm-.78,4.96v-3.87h.7v3.87h-.7Z" fill="#231f20"/><path d="M598.13,117.27c0-.4,0-.73-.03-1.05h.62l.04,.64h.02c.19-.37,.64-.73,1.28-.73,.54,0,1.37,.32,1.37,1.65v2.31h-.7v-2.23c0-.62-.23-1.14-.9-1.14-.46,0-.82,.33-.94,.72-.03,.09-.05,.21-.05,.33v2.33h-.7v-2.82Z" fill="#231f20"/><path d="M605.9,116.22c-.02,.28-.03,.59-.03,1.06v2.25c0,.89-.18,1.43-.55,1.77-.38,.35-.92,.46-1.41,.46s-.98-.11-1.29-.32l.18-.54c.26,.16,.66,.3,1.14,.3,.72,0,1.25-.38,1.25-1.35v-.43h-.02c-.22,.36-.63,.65-1.23,.65-.96,0-1.65-.82-1.65-1.89,0-1.31,.86-2.05,1.74-2.05,.67,0,1.04,.35,1.21,.67h.02l.03-.58h.62Zm-.73,1.53c0-.12,0-.22-.04-.32-.13-.41-.47-.74-.98-.74-.67,0-1.15,.57-1.15,1.46,0,.76,.38,1.39,1.14,1.39,.43,0,.82-.27,.97-.72,.04-.12,.06-.26,.06-.38v-.7Z" fill="#231f20"/><path d="M608.67,119.25c.31,.19,.77,.35,1.25,.35,.71,0,1.13-.38,1.13-.92,0-.5-.29-.79-1.02-1.07-.88-.31-1.42-.77-1.42-1.53,0-.84,.7-1.46,1.74-1.46,.55,0,.95,.13,1.19,.26l-.19,.57c-.18-.1-.54-.26-1.02-.26-.74,0-1.02,.44-1.02,.81,0,.5,.33,.75,1.07,1.04,.91,.35,1.38,.79,1.38,1.58,0,.83-.62,1.55-1.89,1.55-.52,0-1.09-.15-1.38-.34l.18-.58Z" fill="#231f20"/><path d="M612.68,117.49c0-.5-.02-.9-.03-1.26h.63l.03,.66h.02c.29-.47,.74-.75,1.38-.75,.94,0,1.64,.79,1.64,1.97,0,1.39-.85,2.08-1.76,2.08-.51,0-.96-.22-1.19-.61h-.02v2.1h-.7v-4.19Zm.7,1.03c0,.1,.02,.2,.03,.29,.13,.49,.55,.82,1.06,.82,.74,0,1.17-.61,1.17-1.5,0-.78-.41-1.44-1.15-1.44-.48,0-.93,.34-1.06,.87-.02,.09-.05,.19-.05,.29v.66Z" fill="#231f20"/><path d="M619.38,120.09l-.06-.49h-.02c-.22,.3-.63,.58-1.18,.58-.78,0-1.18-.55-1.18-1.11,0-.94,.83-1.45,2.33-1.44v-.08c0-.32-.09-.9-.88-.9-.36,0-.74,.11-1.01,.29l-.16-.46c.32-.21,.78-.34,1.27-.34,1.18,0,1.47,.81,1.47,1.58v1.45c0,.34,.02,.66,.06,.93h-.64Zm-.1-1.97c-.77-.02-1.64,.12-1.64,.87,0,.46,.3,.67,.66,.67,.5,0,.82-.32,.94-.65,.02-.07,.04-.15,.04-.22v-.67Z" fill="#231f20"/><path d="M623.85,119.95c-.18,.1-.59,.22-1.11,.22-1.17,0-1.93-.79-1.93-1.97s.82-2.06,2.08-2.06c.42,0,.78,.1,.98,.2l-.16,.54c-.17-.1-.43-.18-.82-.18-.89,0-1.37,.66-1.37,1.46,0,.9,.58,1.45,1.34,1.45,.4,0,.66-.1,.86-.19l.12,.53Z" fill="#231f20"/><path d="M625.02,118.29c.02,.95,.62,1.34,1.33,1.34,.5,0,.81-.09,1.07-.2l.12,.5c-.25,.11-.67,.24-1.29,.24-1.19,0-1.9-.78-1.9-1.95s.69-2.09,1.82-2.09c1.26,0,1.6,1.11,1.6,1.82,0,.14-.02,.26-.02,.33h-2.72Zm2.06-.5c0-.45-.18-1.14-.98-1.14-.71,0-1.02,.66-1.08,1.14h2.05Z" fill="#231f20"/></g><g opacity=".75"><g clip-path="#c"><g><path d="M377.56,114.68c.29-.05,.68-.09,1.17-.09,.6,0,1.04,.14,1.32,.39,.26,.22,.41,.57,.41,.99s-.13,.76-.36,1.01c-.32,.34-.85,.52-1.44,.52-.18,0-.35,0-.49-.04v1.89h-.61v-4.66Zm.61,2.28c.13,.04,.3,.05,.5,.05,.74,0,1.18-.36,1.18-1.01s-.44-.92-1.11-.92c-.27,0-.47,.02-.57,.05v1.83Z" fill="#231f20"/><path d="M381.15,117.01c0-.4,0-.74-.03-1.06h.54l.02,.67h.03c.15-.46,.53-.74,.94-.74,.07,0,.12,0,.18,.02v.58c-.06-.01-.13-.02-.21-.02-.43,0-.74,.33-.83,.79-.01,.08-.03,.18-.03,.29v1.81h-.61v-2.33Z" fill="#231f20"/><path d="M384.16,115c0,.21-.15,.38-.39,.38-.22,0-.37-.17-.37-.38s.16-.38,.38-.38,.38,.17,.38,.38Zm-.69,4.34v-3.39h.62v3.39h-.62Z" fill="#231f20"/><path d="M385.35,115.95l.67,1.91c.11,.31,.2,.59,.27,.87h.02c.08-.28,.17-.56,.29-.87l.66-1.91h.64l-1.33,3.39h-.59l-1.29-3.39h.66Z" fill="#231f20"/><path d="M390.33,119.34l-.05-.43h-.02c-.19,.27-.55,.5-1.04,.5-.69,0-1.04-.48-1.04-.97,0-.82,.73-1.27,2.04-1.26v-.07c0-.28-.08-.78-.77-.78-.32,0-.64,.1-.88,.25l-.14-.41c.28-.18,.69-.3,1.11-.3,1.04,0,1.29,.71,1.29,1.39v1.27c0,.29,.01,.58,.06,.81h-.56Zm-.09-1.73c-.67-.01-1.44,.1-1.44,.76,0,.4,.27,.59,.58,.59,.44,0,.72-.28,.82-.57,.02-.06,.03-.13,.03-.2v-.59Z" fill="#231f20"/><path d="M392.55,114.98v.97h.88v.47h-.88v1.83c0,.42,.12,.66,.46,.66,.16,0,.28-.02,.36-.04l.03,.46c-.12,.05-.31,.08-.55,.08-.29,0-.52-.09-.67-.26-.17-.18-.24-.48-.24-.88v-1.85h-.53v-.47h.53v-.81l.6-.16Z" fill="#231f20"/><path d="M394.43,117.76c.01,.83,.55,1.18,1.16,1.18,.44,0,.71-.08,.94-.17l.1,.44c-.22,.1-.59,.21-1.13,.21-1.04,0-1.67-.69-1.67-1.71s.6-1.83,1.59-1.83c1.11,0,1.4,.97,1.4,1.6,0,.13-.01,.22-.02,.29h-2.38Zm1.81-.44c0-.39-.16-1-.85-1-.62,0-.9,.57-.95,1h1.8Z" fill="#231f20"/><path d="M399.63,119.34l-1.2-4.72h.64l.56,2.39c.14,.59,.27,1.18,.35,1.63h.01c.08-.47,.22-1.03,.39-1.64l.63-2.38h.64l.57,2.4c.13,.56,.26,1.12,.33,1.62h.01c.1-.52,.23-1.04,.38-1.63l.62-2.38h.62l-1.34,4.72h-.64l-.6-2.46c-.15-.6-.25-1.06-.31-1.54h-.01c-.08,.47-.19,.93-.36,1.54l-.67,2.46h-.64Z" fill="#231f20"/><path d="M406.4,119.34l-.05-.43h-.02c-.19,.27-.55,.5-1.04,.5-.69,0-1.04-.48-1.04-.97,0-.82,.73-1.27,2.04-1.26v-.07c0-.28-.08-.78-.77-.78-.32,0-.64,.1-.88,.25l-.14-.41c.28-.18,.69-.3,1.11-.3,1.04,0,1.29,.71,1.29,1.39v1.27c0,.29,.01,.58,.06,.81h-.56Zm-.09-1.73c-.67-.01-1.44,.1-1.44,.76,0,.4,.27,.59,.58,.59,.44,0,.72-.28,.82-.57,.02-.06,.03-.13,.03-.2v-.59Z" fill="#231f20"/><path d="M407.82,118.71c.18,.12,.5,.25,.81,.25,.45,0,.66-.22,.66-.5s-.18-.46-.63-.62c-.61-.22-.9-.55-.9-.96,0-.55,.44-.99,1.17-.99,.34,0,.64,.1,.83,.21l-.15,.45c-.13-.08-.38-.2-.69-.2-.36,0-.57,.21-.57,.46,0,.28,.2,.41,.64,.57,.59,.22,.89,.52,.89,1.02,0,.59-.46,1.02-1.27,1.02-.37,0-.71-.09-.95-.23l.15-.47Z" fill="#231f20"/><path d="M410.67,114.37h.62v2.12h.01c.1-.17,.25-.33,.44-.43,.18-.1,.4-.17,.63-.17,.46,0,1.18,.28,1.18,1.45v2.02h-.62v-1.95c0-.55-.2-1.01-.78-1.01-.4,0-.71,.28-.83,.62-.04,.08-.04,.17-.04,.29v2.04h-.62v-4.97Z" fill="#231f20"/><path d="M415.24,115c0,.21-.15,.38-.39,.38-.22,0-.37-.17-.37-.38s.16-.38,.38-.38,.38,.17,.38,.38Zm-.69,4.34v-3.39h.62v3.39h-.62Z" fill="#231f20"/><path d="M416.2,116.87c0-.35,0-.64-.03-.92h.55l.04,.56h.01c.17-.32,.56-.64,1.12-.64,.47,0,1.2,.28,1.2,1.44v2.02h-.62v-1.95c0-.55-.2-1-.78-1-.41,0-.72,.29-.83,.63-.03,.08-.04,.18-.04,.29v2.04h-.62v-2.47Z" fill="#231f20"/><path d="M423,115.95c-.01,.25-.03,.52-.03,.93v1.97c0,.78-.15,1.25-.48,1.55-.33,.31-.81,.41-1.23,.41s-.85-.1-1.13-.28l.15-.47c.22,.14,.57,.27,.99,.27,.63,0,1.09-.33,1.09-1.18v-.38h-.01c-.19,.31-.55,.57-1.08,.57-.84,0-1.44-.71-1.44-1.65,0-1.15,.75-1.8,1.53-1.8,.59,0,.91,.31,1.06,.59h.01l.03-.51h.54Zm-.64,1.34c0-.11,0-.2-.04-.28-.11-.36-.41-.65-.86-.65-.59,0-1.01,.5-1.01,1.28,0,.67,.34,1.22,1,1.22,.38,0,.72-.24,.85-.63,.04-.11,.05-.22,.05-.33v-.61Z" fill="#231f20"/><path d="M425.41,118.6c.27,.17,.67,.31,1.09,.31,.62,0,.99-.33,.99-.8,0-.44-.25-.69-.89-.94-.77-.27-1.25-.67-1.25-1.34,0-.74,.61-1.28,1.53-1.28,.48,0,.83,.11,1.04,.23l-.17,.5c-.15-.08-.47-.22-.9-.22-.64,0-.89,.38-.89,.71,0,.44,.29,.66,.94,.91,.8,.31,1.2,.69,1.2,1.39,0,.73-.54,1.36-1.65,1.36-.46,0-.95-.13-1.21-.3l.15-.51Z" fill="#231f20"/><path d="M428.93,117.06c0-.43-.01-.78-.03-1.11h.55l.03,.58h.01c.25-.41,.65-.66,1.21-.66,.82,0,1.44,.69,1.44,1.72,0,1.22-.74,1.82-1.54,1.82-.45,0-.84-.2-1.04-.53h-.01v1.84h-.61v-3.67Zm.61,.9c0,.09,.01,.17,.03,.25,.11,.43,.48,.72,.92,.72,.65,0,1.03-.53,1.03-1.31,0-.68-.36-1.26-1.01-1.26-.42,0-.81,.3-.93,.76-.02,.08-.04,.17-.04,.25v.58Z" fill="#231f20"/><path d="M434.79,119.34l-.05-.43h-.02c-.19,.27-.55,.5-1.04,.5-.69,0-1.04-.48-1.04-.97,0-.82,.73-1.27,2.04-1.26v-.07c0-.28-.08-.78-.77-.78-.32,0-.64,.1-.88,.25l-.14-.41c.28-.18,.69-.3,1.11-.3,1.04,0,1.29,.71,1.29,1.39v1.27c0,.29,.01,.58,.06,.81h-.56Zm-.09-1.73c-.67-.01-1.44,.1-1.44,.76,0,.4,.27,.59,.58,.59,.44,0,.72-.28,.82-.57,.02-.06,.03-.13,.03-.2v-.59Z" fill="#231f20"/><path d="M438.7,119.22c-.16,.08-.52,.2-.97,.2-1.02,0-1.69-.69-1.69-1.73s.71-1.8,1.82-1.8c.36,0,.69,.09,.85,.17l-.14,.48c-.15-.08-.38-.16-.71-.16-.78,0-1.2,.57-1.2,1.28,0,.78,.5,1.27,1.18,1.27,.35,0,.58-.09,.76-.17l.11,.46Z" fill="#231f20"/><path d="M439.73,117.76c.01,.83,.55,1.18,1.16,1.18,.44,0,.71-.08,.94-.17l.1,.44c-.22,.1-.59,.21-1.13,.21-1.04,0-1.67-.69-1.67-1.71s.6-1.83,1.59-1.83c1.11,0,1.4,.97,1.4,1.6,0,.13-.01,.22-.02,.29h-2.38Zm1.81-.44c0-.39-.16-1-.85-1-.62,0-.9,.57-.95,1h1.8Z" fill="#231f20"/></g></g></g><g opacity=".75"><g clip-path="#d"><g><path d="M22.61,119.34l-1.54-4.72h.66l.74,2.33c.2,.64,.38,1.21,.5,1.77h.01c.13-.55,.33-1.14,.54-1.76l.8-2.33h.65l-1.69,4.72h-.67Z" fill="#231f20"/><path d="M25.57,117.76c.01,.83,.55,1.18,1.16,1.18,.44,0,.71-.08,.94-.17l.1,.44c-.22,.1-.59,.21-1.13,.21-1.04,0-1.67-.69-1.67-1.71s.6-1.83,1.59-1.83c1.11,0,1.4,.97,1.4,1.6,0,.13-.01,.22-.02,.29h-2.38Zm1.81-.44c0-.39-.16-1-.85-1-.62,0-.9,.57-.95,1h1.8Z" fill="#231f20"/><path d="M31.15,119.22c-.16,.08-.52,.2-.97,.2-1.02,0-1.69-.69-1.69-1.73s.71-1.8,1.82-1.8c.36,0,.69,.09,.85,.17l-.14,.48c-.15-.08-.38-.16-.71-.16-.78,0-1.2,.57-1.2,1.28,0,.78,.5,1.27,1.18,1.27,.35,0,.58-.09,.76-.17l.1,.46Z" fill="#231f20"/><path d="M31.87,114.37h.62v2.12h.01c.1-.17,.25-.33,.44-.43,.18-.1,.4-.17,.63-.17,.46,0,1.18,.28,1.18,1.45v2.02h-.62v-1.95c0-.55-.2-1.01-.78-1.01-.4,0-.71,.28-.83,.62-.03,.08-.04,.17-.04,.29v2.04h-.62v-4.97Z" fill="#231f20"/><path d="M36.44,115c0,.21-.15,.38-.39,.38-.22,0-.37-.17-.37-.38s.16-.38,.39-.38,.38,.17,.38,.38Zm-.69,4.34v-3.39h.62v3.39h-.62Z" fill="#231f20"/><path d="M39.81,119.22c-.16,.08-.52,.2-.97,.2-1.02,0-1.69-.69-1.69-1.73s.71-1.8,1.82-1.8c.36,0,.69,.09,.85,.17l-.14,.48c-.15-.08-.38-.16-.71-.16-.78,0-1.2,.57-1.2,1.28,0,.78,.5,1.27,1.18,1.27,.35,0,.58-.09,.76-.17l.1,.46Z" fill="#231f20"/><path d="M40.53,114.37h.62v4.97h-.62v-4.97Z" fill="#231f20"/><path d="M42.52,117.76c.01,.83,.55,1.18,1.16,1.18,.44,0,.71-.08,.94-.17l.1,.44c-.22,.1-.59,.21-1.13,.21-1.04,0-1.67-.69-1.67-1.71s.6-1.83,1.59-1.83c1.11,0,1.4,.97,1.4,1.6,0,.13-.01,.22-.02,.29h-2.38Zm1.81-.44c0-.39-.16-1-.85-1-.62,0-.9,.57-.95,1h1.8Z" fill="#231f20"/><path d="M47.09,118.71c.18,.12,.5,.25,.81,.25,.45,0,.66-.22,.66-.5s-.17-.46-.63-.62c-.61-.22-.9-.55-.9-.96,0-.55,.44-.99,1.17-.99,.34,0,.64,.1,.83,.21l-.15,.45c-.13-.08-.38-.2-.69-.2-.36,0-.57,.21-.57,.46,0,.28,.2,.41,.64,.57,.59,.22,.89,.52,.89,1.02,0,.59-.46,1.02-1.27,1.02-.37,0-.71-.09-.95-.23l.15-.47Z" fill="#231f20"/><path d="M49.94,117.06c0-.43-.01-.78-.03-1.11h.55l.03,.58h.01c.25-.41,.65-.66,1.2-.66,.82,0,1.44,.69,1.44,1.72,0,1.22-.74,1.82-1.54,1.82-.45,0-.84-.2-1.04-.53h-.01v1.84h-.61v-3.67Zm.61,.9c0,.09,.01,.17,.03,.25,.11,.43,.48,.72,.92,.72,.65,0,1.03-.53,1.03-1.31,0-.68-.36-1.26-1.01-1.26-.42,0-.81,.3-.93,.76-.02,.08-.04,.17-.04,.25v.58Z" fill="#231f20"/><path d="M55.8,119.34l-.05-.43h-.02c-.19,.27-.55,.5-1.04,.5-.69,0-1.04-.48-1.04-.97,0-.82,.73-1.27,2.04-1.26v-.07c0-.28-.08-.78-.77-.78-.31,0-.64,.1-.88,.25l-.14-.41c.28-.18,.69-.3,1.11-.3,1.04,0,1.29,.71,1.29,1.39v1.27c0,.29,.01,.58,.06,.81h-.56Zm-.09-1.73c-.67-.01-1.44,.1-1.44,.76,0,.4,.27,.59,.58,.59,.44,0,.72-.28,.82-.57,.02-.06,.04-.13,.04-.2v-.59Z" fill="#231f20"/><path d="M59.72,119.22c-.16,.08-.52,.2-.97,.2-1.02,0-1.69-.69-1.69-1.73s.71-1.8,1.82-1.8c.36,0,.69,.09,.85,.17l-.14,.48c-.15-.08-.38-.16-.71-.16-.78,0-1.2,.57-1.2,1.28,0,.78,.5,1.27,1.18,1.27,.35,0,.58-.09,.76-.17l.1,.46Z" fill="#231f20"/><path d="M60.74,117.76c.01,.83,.55,1.18,1.16,1.18,.44,0,.71-.08,.94-.17l.1,.44c-.22,.1-.59,.21-1.13,.21-1.04,0-1.67-.69-1.67-1.71s.6-1.83,1.59-1.83c1.11,0,1.4,.97,1.4,1.6,0,.13-.01,.22-.02,.29h-2.38Zm1.81-.44c0-.39-.16-1-.85-1-.62,0-.9,.57-.95,1h1.8Z" fill="#231f20"/></g></g></g><g><path d="M237.42,119.85c-.31,.11-.93,.3-1.66,.3-.82,0-1.49-.21-2.01-.71-.46-.45-.75-1.17-.75-2.01,0-1.61,1.11-2.78,2.92-2.78,.62,0,1.11,.14,1.34,.25l-.17,.57c-.29-.13-.65-.23-1.19-.23-1.31,0-2.17,.82-2.17,2.17s.82,2.17,2.08,2.17c.46,0,.77-.06,.93-.14v-1.61h-1.1v-.56h1.77v2.59Z" fill="#231f20"/><path d="M241.7,119.04c0,.4,0,.75,.03,1.06h-.62l-.04-.63h-.02c-.18,.31-.59,.72-1.28,.72-.61,0-1.34-.34-1.34-1.7v-2.26h.7v2.14c0,.74,.22,1.23,.86,1.23,.47,0,.8-.33,.93-.64,.04-.1,.06-.23,.06-.36v-2.38h.7v2.81Z" fill="#231f20"/><path d="M243.26,118.29c.02,.95,.62,1.34,1.33,1.34,.5,0,.81-.09,1.07-.2l.12,.5c-.25,.11-.67,.24-1.29,.24-1.19,0-1.9-.78-1.9-1.95s.69-2.09,1.81-2.09c1.26,0,1.6,1.11,1.6,1.82,0,.14-.02,.26-.02,.33h-2.72Zm2.06-.5c0-.45-.18-1.14-.98-1.14-.71,0-1.02,.66-1.08,1.14h2.05Z" fill="#231f20"/><path d="M246.78,119.37c.21,.14,.58,.28,.93,.28,.51,0,.75-.26,.75-.58s-.2-.52-.72-.71c-.7-.25-1.02-.63-1.02-1.1,0-.62,.5-1.14,1.33-1.14,.39,0,.74,.11,.95,.24l-.18,.51c-.15-.1-.43-.22-.79-.22-.42,0-.65,.24-.65,.53,0,.32,.23,.46,.74,.66,.67,.26,1.02,.59,1.02,1.17,0,.68-.53,1.16-1.45,1.16-.42,0-.82-.1-1.09-.26l.18-.54Z" fill="#231f20"/><path d="M250.9,115.11v1.11h1.01v.54h-1.01v2.09c0,.48,.14,.75,.53,.75,.18,0,.32-.02,.41-.05l.03,.53c-.14,.06-.35,.1-.62,.1-.33,0-.59-.1-.76-.3-.2-.21-.27-.55-.27-1.01v-2.11h-.6v-.54h.6v-.93l.69-.18Z" fill="#231f20"/><path d="M254.32,119.25c.31,.19,.77,.35,1.25,.35,.71,0,1.13-.38,1.13-.92,0-.5-.29-.79-1.02-1.07-.88-.31-1.42-.77-1.42-1.53,0-.84,.7-1.46,1.74-1.46,.55,0,.95,.13,1.19,.26l-.19,.57c-.18-.1-.54-.26-1.02-.26-.74,0-1.02,.44-1.02,.81,0,.5,.33,.75,1.07,1.04,.91,.35,1.38,.79,1.38,1.58,0,.83-.62,1.55-1.89,1.55-.52,0-1.09-.15-1.38-.34l.18-.58Z" fill="#231f20"/><path d="M258.33,117.49c0-.5-.02-.9-.03-1.26h.63l.03,.66h.02c.29-.47,.74-.75,1.38-.75,.94,0,1.64,.79,1.64,1.97,0,1.39-.85,2.08-1.76,2.08-.51,0-.96-.22-1.19-.61h-.02v2.1h-.7v-4.19Zm.7,1.03c0,.1,.02,.2,.03,.29,.13,.49,.55,.82,1.06,.82,.74,0,1.18-.61,1.18-1.5,0-.78-.41-1.44-1.15-1.44-.48,0-.93,.34-1.06,.87-.02,.09-.05,.19-.05,.29v.66Z" fill="#231f20"/><path d="M265.03,120.09l-.06-.49h-.02c-.22,.3-.63,.58-1.18,.58-.78,0-1.18-.55-1.18-1.11,0-.94,.83-1.45,2.33-1.44v-.08c0-.32-.09-.9-.88-.9-.36,0-.74,.11-1.01,.29l-.16-.46c.32-.21,.78-.34,1.27-.34,1.18,0,1.47,.81,1.47,1.58v1.45c0,.34,.02,.66,.06,.93h-.64Zm-.1-1.97c-.77-.02-1.64,.12-1.64,.87,0,.46,.3,.67,.66,.67,.5,0,.82-.32,.94-.65,.02-.07,.04-.15,.04-.22v-.67Z" fill="#231f20"/><path d="M269.5,119.95c-.18,.1-.59,.22-1.11,.22-1.17,0-1.93-.79-1.93-1.97s.82-2.06,2.08-2.06c.42,0,.78,.1,.98,.2l-.16,.54c-.17-.1-.43-.18-.82-.18-.89,0-1.37,.66-1.37,1.46,0,.9,.58,1.45,1.34,1.45,.4,0,.66-.1,.86-.19l.12,.53Z" fill="#231f20"/><path d="M270.67,118.29c.02,.95,.62,1.34,1.33,1.34,.5,0,.81-.09,1.07-.2l.12,.5c-.25,.11-.67,.24-1.29,.24-1.19,0-1.9-.78-1.9-1.95s.69-2.09,1.81-2.09c1.26,0,1.6,1.11,1.6,1.82,0,.14-.02,.26-.02,.33h-2.72Zm2.06-.5c0-.45-.18-1.14-.98-1.14-.71,0-1.02,.66-1.08,1.14h2.05Z" fill="#231f20"/></g><g opacity=".75"><g clip-path="#e"><g><path d="M159.64,119.19c-.22,.11-.67,.22-1.25,.22-1.33,0-2.33-.84-2.33-2.39s1-2.48,2.47-2.48c.59,0,.96,.13,1.12,.21l-.15,.5c-.23-.11-.56-.2-.95-.2-1.11,0-1.84,.71-1.84,1.95,0,1.16,.67,1.9,1.81,1.9,.37,0,.75-.08,.99-.2l.13,.48Z" fill="#231f20"/><path d="M163.38,117.62c0,1.25-.87,1.8-1.69,1.8-.92,0-1.62-.67-1.62-1.74,0-1.13,.74-1.8,1.68-1.8s1.63,.71,1.63,1.74Zm-2.69,.04c0,.74,.43,1.3,1.03,1.3s1.03-.55,1.03-1.32c0-.57-.29-1.3-1.02-1.3s-1.04,.67-1.04,1.32Z" fill="#231f20"/><path d="M164.15,116.87c0-.35,0-.64-.03-.92h.54l.03,.55h.02c.19-.32,.5-.62,1.06-.62,.46,0,.81,.28,.96,.68h.01c.1-.19,.24-.34,.38-.44,.2-.15,.43-.24,.75-.24,.45,0,1.11,.29,1.11,1.47v2h-.6v-1.92c0-.65-.24-1.04-.74-1.04-.35,0-.62,.26-.73,.56-.03,.08-.05,.2-.05,.31v2.09h-.6v-2.03c0-.54-.24-.93-.71-.93-.39,0-.67,.31-.76,.62-.04,.09-.05,.2-.05,.3v2.04h-.6v-2.47Z" fill="#231f20"/><path d="M169.99,116.87c0-.35,0-.64-.03-.92h.54l.03,.55h.02c.19-.32,.5-.62,1.06-.62,.46,0,.81,.28,.96,.68h.01c.1-.19,.24-.34,.38-.44,.2-.15,.43-.24,.75-.24,.45,0,1.11,.29,1.11,1.47v2h-.6v-1.92c0-.65-.24-1.04-.74-1.04-.35,0-.62,.26-.73,.56-.03,.08-.05,.2-.05,.31v2.09h-.6v-2.03c0-.54-.24-.93-.71-.93-.39,0-.67,.31-.76,.62-.04,.09-.05,.2-.05,.3v2.04h-.6v-2.47Z" fill="#231f20"/><path d="M178.67,118.42c0,.35,0,.66,.03,.92h-.55l-.04-.55h-.01c-.16,.27-.52,.63-1.12,.63-.53,0-1.17-.29-1.17-1.49v-1.98h.62v1.88c0,.64,.2,1.08,.76,1.08,.41,0,.7-.29,.81-.56,.04-.09,.06-.2,.06-.32v-2.08h.62v2.46Z" fill="#231f20"/><path d="M179.69,116.87c0-.35,0-.64-.03-.92h.55l.03,.56h.01c.17-.32,.56-.64,1.12-.64,.47,0,1.2,.28,1.2,1.44v2.02h-.62v-1.95c0-.55-.2-1-.78-1-.41,0-.72,.29-.83,.63-.03,.08-.04,.18-.04,.29v2.04h-.62v-2.47Z" fill="#231f20"/><path d="M185.45,119.34l-.05-.43h-.02c-.19,.27-.55,.5-1.04,.5-.69,0-1.04-.48-1.04-.97,0-.82,.73-1.27,2.04-1.26v-.07c0-.28-.08-.78-.77-.78-.31,0-.64,.1-.88,.25l-.14-.41c.28-.18,.69-.3,1.11-.3,1.04,0,1.29,.71,1.29,1.39v1.27c0,.29,.01,.58,.06,.81h-.56Zm-.09-1.73c-.67-.01-1.44,.1-1.44,.76,0,.4,.27,.59,.58,.59,.44,0,.72-.28,.82-.57,.02-.06,.04-.13,.04-.2v-.59Z" fill="#231f20"/><path d="M186.95,114.37h.62v4.97h-.62v-4.97Z" fill="#231f20"/><path d="M190.63,119.34l-1.2-4.72h.64l.56,2.39c.14,.59,.27,1.18,.35,1.63h.01c.08-.47,.22-1.03,.39-1.64l.63-2.38h.64l.57,2.4c.13,.56,.26,1.12,.33,1.62h.01c.1-.52,.23-1.04,.38-1.63l.62-2.38h.62l-1.34,4.72h-.64l-.6-2.46c-.15-.6-.25-1.06-.31-1.54h-.01c-.08,.47-.19,.93-.36,1.54l-.67,2.46h-.64Z" fill="#231f20"/><path d="M197.4,119.34l-.05-.43h-.02c-.19,.27-.55,.5-1.04,.5-.69,0-1.04-.48-1.04-.97,0-.82,.73-1.27,2.04-1.26v-.07c0-.28-.08-.78-.77-.78-.31,0-.64,.1-.88,.25l-.14-.41c.28-.18,.69-.3,1.11-.3,1.04,0,1.29,.71,1.29,1.39v1.27c0,.29,.01,.58,.06,.81h-.56Zm-.09-1.73c-.67-.01-1.44,.1-1.44,.76,0,.4,.27,.59,.58,.59,.44,0,.72-.28,.82-.57,.02-.06,.04-.13,.04-.2v-.59Z" fill="#231f20"/><path d="M198.82,118.71c.18,.12,.5,.25,.81,.25,.45,0,.66-.22,.66-.5s-.17-.46-.63-.62c-.61-.22-.9-.55-.9-.96,0-.55,.44-.99,1.17-.99,.34,0,.64,.1,.83,.21l-.15,.45c-.13-.08-.38-.2-.69-.2-.36,0-.57,.21-.57,.46,0,.28,.2,.41,.64,.57,.59,.22,.89,.52,.89,1.02,0,.59-.46,1.02-1.27,1.02-.37,0-.71-.09-.95-.23l.15-.47Z" fill="#231f20"/><path d="M201.67,114.37h.62v2.12h.01c.1-.17,.25-.33,.44-.43,.18-.1,.4-.17,.63-.17,.46,0,1.18,.28,1.18,1.45v2.02h-.62v-1.95c0-.55-.2-1.01-.78-1.01-.4,0-.71,.28-.83,.62-.03,.08-.04,.17-.04,.29v2.04h-.62v-4.97Z" fill="#231f20"/><path d="M206.98,118.6c.27,.17,.67,.31,1.09,.31,.62,0,.99-.33,.99-.8,0-.44-.25-.69-.89-.94-.77-.27-1.25-.67-1.25-1.34,0-.74,.61-1.28,1.53-1.28,.48,0,.83,.11,1.04,.23l-.17,.5c-.15-.08-.47-.22-.9-.22-.64,0-.89,.38-.89,.71,0,.44,.29,.66,.94,.91,.8,.31,1.2,.69,1.2,1.39,0,.73-.54,1.36-1.65,1.36-.46,0-.95-.13-1.21-.3l.15-.51Z" fill="#231f20"/><path d="M210.49,117.06c0-.43-.01-.78-.03-1.11h.55l.03,.58h.01c.25-.41,.65-.66,1.2-.66,.82,0,1.44,.69,1.44,1.72,0,1.22-.74,1.82-1.54,1.82-.45,0-.84-.2-1.04-.53h-.01v1.84h-.61v-3.67Zm.61,.9c0,.09,.01,.17,.03,.25,.11,.43,.48,.72,.92,.72,.65,0,1.03-.53,1.03-1.31,0-.68-.36-1.26-1.01-1.26-.42,0-.81,.3-.93,.76-.02,.08-.04,.17-.04,.25v.58Z" fill="#231f20"/><path d="M216.35,119.34l-.05-.43h-.02c-.19,.27-.55,.5-1.04,.5-.69,0-1.04-.48-1.04-.97,0-.82,.73-1.27,2.04-1.26v-.07c0-.28-.08-.78-.77-.78-.31,0-.64,.1-.88,.25l-.14-.41c.28-.18,.69-.3,1.11-.3,1.04,0,1.29,.71,1.29,1.39v1.27c0,.29,.01,.58,.06,.81h-.56Zm-.09-1.73c-.67-.01-1.44,.1-1.44,.76,0,.4,.27,.59,.58,.59,.44,0,.72-.28,.82-.57,.02-.06,.04-.13,.04-.2v-.59Z" fill="#231f20"/><path d="M220.27,119.22c-.16,.08-.52,.2-.97,.2-1.02,0-1.69-.69-1.69-1.73s.71-1.8,1.82-1.8c.36,0,.69,.09,.85,.17l-.14,.48c-.15-.08-.38-.16-.71-.16-.78,0-1.2,.57-1.2,1.28,0,.78,.5,1.27,1.18,1.27,.35,0,.58-.09,.76-.17l.1,.46Z" fill="#231f20"/><path d="M221.29,117.76c.01,.83,.55,1.18,1.16,1.18,.44,0,.71-.08,.94-.17l.1,.44c-.22,.1-.59,.21-1.13,.21-1.04,0-1.67-.69-1.67-1.71s.6-1.83,1.59-1.83c1.11,0,1.4,.97,1.4,1.6,0,.13-.01,.22-.02,.29h-2.38Zm1.81-.44c0-.39-.16-1-.85-1-.62,0-.9,.57-.95,1h1.8Z" fill="#231f20"/></g></g></g><g><path d="M102.09,117.57h-2.09v1.94h2.33v.58h-3.03v-5.39h2.91v.58h-2.21v1.7h2.09v.58Z" fill="#231f20"/><path d="M105.35,120.09l-.06-.49h-.02c-.22,.3-.63,.58-1.18,.58-.78,0-1.18-.55-1.18-1.11,0-.94,.83-1.45,2.33-1.44v-.08c0-.32-.09-.9-.88-.9-.36,0-.74,.11-1.01,.29l-.16-.46c.32-.21,.78-.34,1.27-.34,1.18,0,1.47,.81,1.47,1.58v1.45c0,.34,.02,.66,.06,.93h-.64Zm-.1-1.97c-.77-.02-1.64,.12-1.64,.87,0,.46,.3,.67,.66,.67,.5,0,.82-.32,.94-.65,.02-.07,.04-.15,.04-.22v-.67Z" fill="#231f20"/><path d="M107.89,115.11v1.11h1.01v.54h-1.01v2.09c0,.48,.14,.75,.53,.75,.18,0,.32-.02,.41-.05l.03,.53c-.14,.06-.35,.1-.62,.1-.33,0-.59-.1-.76-.3-.2-.21-.27-.55-.27-1.01v-2.11h-.6v-.54h.6v-.93l.69-.18Z" fill="#231f20"/><path d="M110.48,115.14c0,.24-.17,.43-.45,.43-.25,0-.42-.19-.42-.43s.18-.44,.44-.44,.43,.19,.43,.44Zm-.78,4.96v-3.87h.7v3.87h-.7Z" fill="#231f20"/><path d="M111.56,117.27c0-.4,0-.73-.03-1.05h.62l.04,.64h.02c.19-.37,.64-.73,1.28-.73,.54,0,1.37,.32,1.37,1.65v2.31h-.7v-2.23c0-.62-.23-1.14-.9-1.14-.46,0-.82,.33-.94,.72-.03,.09-.05,.21-.05,.33v2.33h-.7v-2.82Z" fill="#231f20"/><path d="M119.34,116.22c-.02,.28-.03,.59-.03,1.06v2.25c0,.89-.18,1.43-.55,1.77-.38,.35-.92,.46-1.41,.46s-.98-.11-1.29-.32l.18-.54c.26,.16,.66,.3,1.14,.3,.72,0,1.25-.38,1.25-1.35v-.43h-.02c-.22,.36-.63,.65-1.23,.65-.96,0-1.65-.82-1.65-1.89,0-1.31,.86-2.05,1.74-2.05,.67,0,1.04,.35,1.21,.67h.02l.03-.58h.62Zm-.73,1.53c0-.12,0-.22-.04-.32-.13-.41-.47-.74-.98-.74-.67,0-1.15,.57-1.15,1.46,0,.76,.38,1.39,1.14,1.39,.43,0,.82-.27,.98-.72,.04-.12,.06-.26,.06-.38v-.7Z" fill="#231f20"/><path d="M122.1,119.25c.31,.19,.77,.35,1.25,.35,.71,0,1.13-.38,1.13-.92,0-.5-.29-.79-1.02-1.07-.88-.31-1.42-.77-1.42-1.53,0-.84,.7-1.46,1.74-1.46,.55,0,.95,.13,1.19,.26l-.19,.57c-.18-.1-.54-.26-1.02-.26-.74,0-1.02,.44-1.02,.81,0,.5,.33,.75,1.07,1.04,.91,.35,1.38,.79,1.38,1.58,0,.83-.62,1.55-1.89,1.55-.52,0-1.09-.15-1.38-.34l.18-.58Z" fill="#231f20"/><path d="M126.12,117.49c0-.5-.02-.9-.03-1.26h.63l.03,.66h.02c.29-.47,.74-.75,1.38-.75,.94,0,1.64,.79,1.64,1.97,0,1.39-.85,2.08-1.76,2.08-.51,0-.96-.22-1.19-.61h-.02v2.1h-.7v-4.19Zm.7,1.03c0,.1,.02,.2,.03,.29,.13,.49,.55,.82,1.06,.82,.74,0,1.18-.61,1.18-1.5,0-.78-.41-1.44-1.15-1.44-.48,0-.93,.34-1.06,.87-.02,.09-.05,.19-.05,.29v.66Z" fill="#231f20"/><path d="M132.81,120.09l-.06-.49h-.02c-.22,.3-.63,.58-1.18,.58-.78,0-1.18-.55-1.18-1.11,0-.94,.83-1.45,2.33-1.44v-.08c0-.32-.09-.9-.88-.9-.36,0-.74,.11-1.01,.29l-.16-.46c.32-.21,.78-.34,1.27-.34,1.18,0,1.47,.81,1.47,1.58v1.45c0,.34,.02,.66,.06,.93h-.64Zm-.1-1.97c-.77-.02-1.64,.12-1.64,.87,0,.46,.3,.67,.66,.67,.5,0,.82-.32,.94-.65,.02-.07,.04-.15,.04-.22v-.67Z" fill="#231f20"/><path d="M137.28,119.95c-.18,.1-.59,.22-1.11,.22-1.17,0-1.93-.79-1.93-1.97s.82-2.06,2.08-2.06c.42,0,.78,.1,.98,.2l-.16,.54c-.17-.1-.43-.18-.82-.18-.89,0-1.37,.66-1.37,1.46,0,.9,.58,1.45,1.34,1.45,.4,0,.66-.1,.86-.19l.12,.53Z" fill="#231f20"/><path d="M138.45,118.29c.02,.95,.62,1.34,1.33,1.34,.5,0,.81-.09,1.07-.2l.12,.5c-.25,.11-.67,.24-1.29,.24-1.19,0-1.9-.78-1.9-1.95s.69-2.09,1.81-2.09c1.26,0,1.6,1.11,1.6,1.82,0,.14-.02,.26-.02,.33h-2.72Zm2.06-.5c0-.45-.18-1.14-.98-1.14-.71,0-1.02,.66-1.08,1.14h2.05Z" fill="#231f20"/></g><path d="M78.07,85.99h-.02l-.9,.49-.14-.54,1.14-.61h.6v5.2h-.68v-4.54Z" fill="#231f20"/><path d="M187.46,90.53v-.43l.55-.54c1.33-1.26,1.93-1.93,1.94-2.72,0-.53-.26-1.02-1.03-1.02-.47,0-.86,.24-1.1,.44l-.22-.5c.36-.3,.87-.53,1.47-.53,1.12,0,1.59,.77,1.59,1.51,0,.96-.7,1.73-1.79,2.79l-.42,.38v.02h2.33v.58h-3.32Z" fill="#231f20"/><path d="M253.81,89.73c.2,.13,.66,.33,1.15,.33,.9,0,1.18-.58,1.18-1.01,0-.73-.66-1.04-1.34-1.04h-.39v-.53h.39c.51,0,1.16-.26,1.16-.88,0-.42-.26-.78-.91-.78-.42,0-.82,.18-1.04,.34l-.18-.51c.27-.2,.8-.4,1.36-.4,1.02,0,1.49,.61,1.49,1.24,0,.54-.32,.99-.96,1.22v.02c.64,.13,1.16,.61,1.16,1.34,0,.83-.65,1.56-1.9,1.56-.58,0-1.1-.18-1.35-.35l.19-.54Z" fill="#231f20"/><path d="M314.51,90.53v-1.42h-2.41v-.46l2.32-3.32h.76v3.23h.73v.55h-.73v1.42h-.66Zm0-1.97v-1.74c0-.27,0-.54,.02-.82h-.02c-.16,.3-.29,.53-.43,.77l-1.27,1.77v.02h1.7Z" fill="#231f20"/><path d="M412.8,90.53c.02-.26,.03-.66,.03-1v-4.68h.7v2.43h.02c.25-.43,.7-.71,1.32-.71,.96,0,1.64,.8,1.63,1.98,0,1.38-.87,2.07-1.73,2.07-.56,0-1.01-.22-1.3-.73h-.02l-.03,.64h-.61Zm.73-1.55c0,.09,.02,.18,.03,.26,.14,.49,.54,.82,1.05,.82,.74,0,1.18-.6,1.18-1.49,0-.78-.4-1.44-1.15-1.44-.48,0-.93,.33-1.07,.86-.02,.08-.04,.18-.04,.29v.7Z" fill="#231f20"/><path d="M409.04,85.93h-1.98l-.2,1.33c.12-.02,.23-.03,.42-.03,.4,0,.8,.09,1.12,.28,.41,.23,.74,.68,.74,1.33,0,1.02-.81,1.78-1.93,1.78-.57,0-1.05-.16-1.29-.32l.18-.54c.22,.13,.64,.29,1.11,.29,.66,0,1.23-.43,1.23-1.13,0-.67-.46-1.15-1.5-1.15-.3,0-.53,.03-.72,.06l.34-2.5h2.49v.59Z" fill="#231f20"/><path d="M482.94,85.83c-.14,0-.33,0-.53,.03-1.1,.18-1.69,.99-1.81,1.85h.02c.25-.33,.68-.6,1.25-.6,.92,0,1.57,.66,1.57,1.68,0,.95-.65,1.83-1.73,1.83s-1.84-.86-1.84-2.21c0-1.02,.37-1.83,.88-2.34,.43-.42,1.01-.69,1.66-.77,.21-.03,.38-.04,.51-.04v.58Zm-.2,3c0-.74-.42-1.19-1.07-1.19-.42,0-.82,.26-1.01,.64-.05,.08-.08,.18-.08,.31,.02,.86,.41,1.49,1.14,1.49,.61,0,1.02-.5,1.02-1.25Z" fill="#231f20"/><path d="M545.12,85.34v.46l-2.26,4.73h-.73l2.25-4.6v-.02h-2.54v-.58h3.28Z" fill="#231f20"/><path d="M629.49,90.39c-.18,.1-.59,.22-1.11,.22-1.17,0-1.93-.79-1.93-1.97s.82-2.06,2.08-2.06c.42,0,.78,.1,.98,.2l-.16,.54c-.17-.1-.43-.18-.82-.18-.89,0-1.37,.66-1.37,1.46,0,.9,.58,1.45,1.34,1.45,.4,0,.66-.1,.86-.19l.12,.53Z" fill="#231f20"/><path d="M633.21,90.04c.15,.02,.33,0,.57-.02,.41-.06,.79-.22,1.09-.5,.34-.31,.59-.77,.69-1.38h-.02c-.29,.35-.7,.56-1.22,.56-.93,0-1.54-.7-1.54-1.59,0-.98,.71-1.85,1.78-1.85s1.72,.86,1.72,2.19c0,1.14-.38,1.94-.9,2.44-.4,.39-.95,.63-1.51,.7-.26,.04-.48,.05-.65,.04v-.58Zm.26-2.99c0,.65,.39,1.1,1,1.1,.47,0,.84-.23,1.02-.54,.04-.06,.06-.14,.06-.26,0-.89-.33-1.57-1.06-1.57-.6,0-1.02,.53-1.02,1.26Z" fill="#231f20"/><path d="M619.47,89.21c0-.66,.39-1.12,1.03-1.39v-.02c-.58-.27-.83-.72-.83-1.17,0-.82,.7-1.38,1.61-1.38,1.01,0,1.51,.63,1.51,1.28,0,.44-.22,.91-.86,1.22v.02c.65,.26,1.05,.71,1.05,1.34,0,.9-.78,1.51-1.77,1.51-1.09,0-1.74-.65-1.74-1.41Zm2.8-.03c0-.63-.44-.94-1.14-1.13-.61,.18-.94,.58-.94,1.07-.02,.53,.38,.99,1.04,.99s1.04-.39,1.04-.93Zm-1.94-2.6c0,.52,.39,.8,.99,.96,.45-.15,.79-.47,.79-.94,0-.42-.25-.85-.88-.85-.58,0-.9,.38-.9,.83Z" fill="#231f20"/><path d="M85.57,90.53l-.06-.49h-.02c-.22,.3-.63,.58-1.18,.58-.78,0-1.18-.55-1.18-1.11,0-.94,.83-1.45,2.33-1.44v-.08c0-.32-.09-.9-.88-.9-.36,0-.74,.11-1.01,.29l-.16-.46c.32-.21,.78-.34,1.27-.34,1.18,0,1.47,.81,1.47,1.58v1.45c0,.34,.02,.66,.06,.93h-.64Zm-.1-1.97c-.77-.02-1.64,.12-1.64,.87,0,.46,.3,.67,.66,.67,.5,0,.82-.32,.94-.65,.02-.07,.04-.15,.04-.22v-.67Z" fill="#231f20"/><g><path d="M293.22,119.92c-.26,.13-.77,.26-1.42,.26-1.52,0-2.66-.96-2.66-2.73s1.14-2.83,2.81-2.83c.67,0,1.1,.14,1.28,.24l-.17,.57c-.26-.13-.64-.22-1.09-.22-1.26,0-2.1,.81-2.1,2.22,0,1.32,.76,2.17,2.07,2.17,.42,0,.86-.09,1.14-.22l.14,.55Z" fill="#231f20"/><path d="M297.49,118.13c0,1.43-.99,2.05-1.93,2.05-1.05,0-1.85-.77-1.85-1.99,0-1.29,.85-2.05,1.92-2.05s1.86,.81,1.86,1.99Zm-3.07,.04c0,.85,.49,1.49,1.18,1.49s1.18-.63,1.18-1.5c0-.66-.33-1.49-1.16-1.49s-1.19,.77-1.19,1.5Z" fill="#231f20"/><path d="M301.88,118.13c0,1.43-.99,2.05-1.93,2.05-1.05,0-1.85-.77-1.85-1.99,0-1.29,.85-2.05,1.92-2.05s1.86,.81,1.86,1.99Zm-3.07,.04c0,.85,.49,1.49,1.18,1.49s1.18-.63,1.18-1.5c0-.66-.33-1.49-1.16-1.49s-1.19,.77-1.19,1.5Z" fill="#231f20"/><path d="M303.47,118h.02c.1-.14,.23-.3,.34-.44l1.14-1.34h.85l-1.5,1.59,1.7,2.28h-.86l-1.33-1.86-.36,.4v1.46h-.7v-5.68h.7v3.58Z" fill="#231f20"/><path d="M307.44,115.14c0,.24-.17,.43-.45,.43-.25,0-.42-.19-.42-.43s.18-.44,.44-.44,.43,.19,.43,.44Zm-.78,4.96v-3.87h.7v3.87h-.7Z" fill="#231f20"/><path d="M308.53,117.27c0-.4,0-.73-.03-1.05h.62l.04,.64h.02c.19-.37,.64-.73,1.28-.73,.54,0,1.37,.32,1.37,1.65v2.31h-.7v-2.23c0-.62-.23-1.14-.9-1.14-.46,0-.82,.33-.94,.72-.03,.09-.05,.21-.05,.33v2.33h-.7v-2.82Z" fill="#231f20"/><path d="M316.31,116.22c-.02,.28-.03,.59-.03,1.06v2.25c0,.89-.18,1.43-.55,1.77-.38,.35-.92,.46-1.41,.46s-.98-.11-1.29-.32l.18-.54c.26,.16,.66,.3,1.14,.3,.72,0,1.25-.38,1.25-1.35v-.43h-.02c-.22,.36-.63,.65-1.23,.65-.96,0-1.65-.82-1.65-1.89,0-1.31,.86-2.05,1.74-2.05,.67,0,1.04,.35,1.21,.67h.02l.03-.58h.62Zm-.73,1.53c0-.12,0-.22-.04-.32-.13-.41-.47-.74-.98-.74-.67,0-1.15,.57-1.15,1.46,0,.76,.38,1.39,1.14,1.39,.43,0,.82-.27,.98-.72,.04-.12,.06-.26,.06-.38v-.7Z" fill="#231f20"/><path d="M319.07,119.25c.31,.19,.77,.35,1.25,.35,.71,0,1.13-.38,1.13-.92,0-.5-.29-.79-1.02-1.07-.88-.31-1.42-.77-1.42-1.53,0-.84,.7-1.46,1.74-1.46,.55,0,.95,.13,1.19,.26l-.19,.57c-.18-.1-.54-.26-1.02-.26-.74,0-1.02,.44-1.02,.81,0,.5,.33,.75,1.07,1.04,.91,.35,1.38,.79,1.38,1.58,0,.83-.62,1.55-1.89,1.55-.52,0-1.09-.15-1.38-.34l.18-.58Z" fill="#231f20"/><path d="M323.08,117.49c0-.5-.02-.9-.03-1.26h.63l.03,.66h.02c.29-.47,.74-.75,1.38-.75,.94,0,1.64,.79,1.64,1.97,0,1.39-.85,2.08-1.76,2.08-.51,0-.96-.22-1.19-.61h-.02v2.1h-.7v-4.19Zm.7,1.03c0,.1,.02,.2,.03,.29,.13,.49,.55,.82,1.06,.82,.74,0,1.18-.61,1.18-1.5,0-.78-.41-1.44-1.15-1.44-.48,0-.93,.34-1.06,.87-.02,.09-.05,.19-.05,.29v.66Z" fill="#231f20"/><path d="M329.78,120.09l-.06-.49h-.02c-.22,.3-.63,.58-1.18,.58-.78,0-1.18-.55-1.18-1.11,0-.94,.83-1.45,2.33-1.44v-.08c0-.32-.09-.9-.88-.9-.36,0-.74,.11-1.01,.29l-.16-.46c.32-.21,.78-.34,1.27-.34,1.18,0,1.47,.81,1.47,1.58v1.45c0,.34,.02,.66,.06,.93h-.64Zm-.1-1.97c-.77-.02-1.64,.12-1.64,.87,0,.46,.3,.67,.66,.67,.5,0,.82-.32,.94-.65,.02-.07,.04-.15,.04-.22v-.67Z" fill="#231f20"/><path d="M334.25,119.95c-.18,.1-.59,.22-1.11,.22-1.17,0-1.93-.79-1.93-1.97s.82-2.06,2.08-2.06c.42,0,.78,.1,.98,.2l-.16,.54c-.17-.1-.43-.18-.82-.18-.89,0-1.37,.66-1.37,1.46,0,.9,.58,1.45,1.34,1.45,.4,0,.66-.1,.86-.19l.12,.53Z" fill="#231f20"/><path d="M335.42,118.29c.02,.95,.62,1.34,1.33,1.34,.5,0,.81-.09,1.07-.2l.12,.5c-.25,.11-.67,.24-1.29,.24-1.19,0-1.9-.78-1.9-1.95s.69-2.09,1.81-2.09c1.26,0,1.6,1.11,1.6,1.82,0,.14-.02,.26-.02,.33h-2.72Zm2.06-.5c0-.45-.18-1.14-.98-1.14-.71,0-1.02,.66-1.08,1.14h2.05Z" fill="#231f20"/></g><line x1="354.62" y1="50.47" x2="354.62" y2="136.93" fill="none" stroke="#231f20" stroke-dasharray="0 0 .75 .5" stroke-width=".25"/><line x1="365.67" y1="50.47" x2="365.67" y2="136.93" fill="none" stroke="#231f20" stroke-dasharray="0 0 .75 .5" stroke-width=".25"/><g><path d="M346.31,63.9v-2.18h.44v1.65h1.34v-1.53h.43v1.53h1.83v.52h-4.04Z" fill="#231f20"/><path d="M348.29,57.53c1.39,0,2.13,.85,2.13,1.88s-.83,1.82-2.05,1.82-2.12-.8-2.12-1.88,.84-1.82,2.04-1.82Zm.07,3.14c.86,0,1.64-.47,1.64-1.29s-.76-1.3-1.68-1.3c-.8,0-1.64,.42-1.64,1.29s.8,1.3,1.68,1.3Z" fill="#231f20"/><path d="M346.31,56.85v-.52h3.6v-1.73h.44v2.25h-4.04Z" fill="#231f20"/><path d="M346.36,54.01c-.05-.32-.08-.7-.08-1.11,0-.75,.17-1.28,.5-1.64,.33-.36,.8-.57,1.45-.57s1.2,.2,1.57,.58c.38,.38,.58,1,.58,1.79,0,.37-.02,.68-.05,.95h-3.98Zm3.57-.52c.02-.13,.03-.32,.03-.53,0-1.12-.62-1.72-1.71-1.72-.95,0-1.56,.53-1.56,1.64,0,.27,.02,.47,.05,.61h3.19Z" fill="#231f20"/></g><g><path d="M621.04,3.67c.25-.04,.58-.08,1-.08,.52,0,.89,.12,1.13,.34,.22,.19,.35,.49,.35,.85s-.11,.65-.31,.86c-.28,.29-.73,.44-1.24,.44-.16,0-.3,0-.42-.04v1.62h-.52V3.67Zm.52,1.95c.11,.03,.26,.04,.43,.04,.63,0,1.01-.31,1.01-.86s-.38-.79-.95-.79c-.23,0-.4,.02-.49,.04v1.57Z" fill="#231f20"/><path d="M624.88,6.39l-.42,1.27h-.54l1.37-4.04h.63l1.38,4.04h-.56l-.43-1.27h-1.43Zm1.33-.41l-.4-1.16c-.09-.26-.15-.5-.21-.74h-.01c-.06,.24-.13,.49-.2,.73l-.4,1.17h1.22Z" fill="#231f20"/><path d="M628.42,3.62V7.66h-.52V3.62h.52Z" fill="#231f20"/><path d="M629.33,7.66V3.62h.57l1.29,2.04c.3,.47,.53,.9,.73,1.31h.01c-.05-.55-.06-1.04-.06-1.67v-1.69h.49V7.66h-.53l-1.28-2.05c-.28-.45-.55-.91-.75-1.35h-.02c.03,.52,.04,1,.04,1.67v1.73h-.49Z" fill="#231f20"/><path d="M634.55,3.67c.25-.04,.58-.08,1-.08,.52,0,.89,.12,1.13,.34,.22,.19,.35,.49,.35,.85s-.11,.65-.31,.86c-.28,.29-.73,.44-1.24,.44-.16,0-.3,0-.42-.04v1.62h-.52V3.67Zm.52,1.95c.11,.03,.26,.04,.43,.04,.63,0,1.01-.31,1.01-.86s-.38-.79-.95-.79c-.23,0-.4,.02-.49,.04v1.57Z" fill="#231f20"/><path d="M641.2,5.6c0,1.39-.85,2.13-1.88,2.13s-1.82-.83-1.82-2.05c0-1.28,.8-2.12,1.88-2.12s1.82,.85,1.82,2.04Zm-3.14,.07c0,.86,.47,1.64,1.29,1.64s1.3-.76,1.3-1.68c0-.8-.42-1.64-1.29-1.64s-1.3,.8-1.3,1.69Z" fill="#231f20"/><path d="M642.4,3.62V7.66h-.52V3.62h.52Z" fill="#231f20"/><path d="M643.31,7.66V3.62h.57l1.29,2.04c.3,.47,.53,.9,.73,1.31h.01c-.05-.55-.06-1.04-.06-1.67v-1.69h.49V7.66h-.53l-1.28-2.05c-.28-.45-.55-.91-.75-1.35h-.02c.03,.52,.04,1,.04,1.67v1.73h-.49Z" fill="#231f20"/><path d="M648.03,4.07h-1.23v-.44h2.99v.44h-1.24v3.6h-.53v-3.6Z" fill="#231f20"/><path d="M650.17,7.03c.23,.14,.58,.26,.94,.26,.53,0,.85-.28,.85-.69,0-.38-.22-.59-.76-.8-.66-.23-1.07-.58-1.07-1.15,0-.63,.52-1.1,1.31-1.1,.41,0,.71,.1,.89,.2l-.14,.43c-.13-.07-.4-.19-.77-.19-.55,0-.76,.33-.76,.61,0,.38,.25,.56,.8,.78,.68,.26,1.03,.59,1.03,1.19,0,.62-.46,1.16-1.42,1.16-.39,0-.82-.11-1.03-.26l.13-.44Z" fill="#231f20"/></g><g><path d="M621.8,18.06h-1.23v-.44h2.99v.44h-1.24v3.6h-.53v-3.6Z" fill="#231f20"/><path d="M627.47,19.6c0,1.39-.85,2.13-1.88,2.13s-1.82-.83-1.82-2.05c0-1.28,.8-2.12,1.88-2.12s1.82,.85,1.82,2.04Zm-3.14,.07c0,.86,.47,1.64,1.29,1.64s1.3-.76,1.3-1.68c0-.8-.42-1.64-1.29-1.64s-1.3,.8-1.3,1.69Z" fill="#231f20"/><path d="M628.67,17.62v2.39c0,.91,.4,1.29,.94,1.29,.6,0,.98-.4,.98-1.29v-2.39h.53v2.36c0,1.24-.65,1.75-1.53,1.75-.83,0-1.45-.47-1.45-1.73v-2.38h.53Z" fill="#231f20"/><path d="M634.86,21.53c-.19,.1-.58,.19-1.07,.19-1.14,0-2-.72-2-2.04s.86-2.12,2.11-2.12c.5,0,.82,.11,.96,.18l-.13,.43c-.2-.1-.48-.17-.82-.17-.95,0-1.58,.61-1.58,1.67,0,.99,.57,1.62,1.55,1.62,.32,0,.64-.07,.85-.17l.11,.41Z" fill="#231f20"/><path d="M636.04,17.62v1.69h1.96v-1.69h.53v4.04h-.53v-1.9h-1.96v1.9h-.52v-4.04h.52Z" fill="#231f20"/><path d="M639.43,17.67c.25-.04,.58-.08,1-.08,.52,0,.89,.12,1.13,.34,.22,.19,.35,.49,.35,.85s-.11,.65-.31,.86c-.28,.29-.73,.44-1.24,.44-.16,0-.3,0-.42-.04v1.62h-.52v-3.99Zm.52,1.95c.11,.03,.26,.04,.43,.04,.63,0,1.01-.31,1.01-.86s-.38-.79-.95-.79c-.23,0-.4,.02-.49,.04v1.57Z" fill="#231f20"/><path d="M646.07,19.6c0,1.39-.85,2.13-1.88,2.13s-1.82-.83-1.82-2.05c0-1.28,.8-2.12,1.88-2.12s1.82,.85,1.82,2.04Zm-3.14,.07c0,.86,.47,1.64,1.29,1.64s1.3-.76,1.3-1.68c0-.8-.42-1.64-1.29-1.64s-1.3,.8-1.3,1.69Z" fill="#231f20"/><path d="M647.27,17.62v4.04h-.52v-4.04h.52Z" fill="#231f20"/><path d="M648.19,21.66v-4.04h.57l1.29,2.04c.3,.47,.53,.9,.73,1.31h.01c-.05-.55-.06-1.04-.06-1.67v-1.69h.49v4.04h-.53l-1.28-2.05c-.28-.45-.55-.91-.75-1.35h-.02c.03,.52,.04,1,.04,1.67v1.73h-.49Z" fill="#231f20"/><path d="M652.9,18.06h-1.23v-.44h2.99v.44h-1.24v3.6h-.53v-3.6Z" fill="#231f20"/><path d="M655.04,21.03c.23,.14,.58,.26,.94,.26,.53,0,.85-.28,.85-.69,0-.38-.22-.59-.76-.8-.66-.23-1.07-.58-1.07-1.15,0-.63,.52-1.1,1.31-1.1,.41,0,.71,.1,.89,.2l-.14,.43c-.13-.07-.4-.19-.77-.19-.55,0-.76,.33-.76,.61,0,.38,.25,.56,.8,.78,.68,.26,1.03,.59,1.03,1.19,0,.62-.46,1.16-1.42,1.16-.39,0-.82-.11-1.03-.26l.13-.44Z" fill="#231f20"/></g><path d="M601.26,11.34c3.13,0,5.67-2.54,5.67-5.67s-2.54-5.67-5.67-5.67-5.67,2.54-5.67,5.67,2.54,5.67,5.67,5.67" fill="#c1d82f"/><path d="M601.26,25.46c3.13,0,5.66-2.53,5.66-5.66s-2.53-5.66-5.66-5.66-5.66,2.54-5.66,5.66,2.53,5.66,5.66,5.66Z" fill="none" stroke="#2bb673" stroke-width=".25"/><path d="M78.21,106.64c3.13,0,5.66-2.53,5.66-5.66s-2.53-5.66-5.66-5.66-5.66,2.54-5.66,5.66,2.53,5.66,5.66,5.66Z" fill="none" stroke="#2bb673" stroke-width=".25"/><path d="M189.07,106.64c3.13,0,5.66-2.53,5.66-5.66s-2.53-5.66-5.66-5.66-5.66,2.54-5.66,5.66,2.53,5.66,5.66,5.66Z" fill="none" stroke="#2bb673" stroke-width=".25"/><path d="M254.92,106.64c3.13,0,5.66-2.53,5.66-5.66s-2.53-5.66-5.66-5.66-5.66,2.54-5.66,5.66,2.53,5.66,5.66,5.66Z" fill="none" stroke="#2bb673" stroke-width=".25"/><path d="M481.79,106.64c3.13,0,5.66-2.53,5.66-5.66s-2.53-5.66-5.66-5.66-5.66,2.54-5.66,5.66,2.53,5.66,5.66,5.66Z" fill="none" stroke="#2bb673" stroke-width=".25"/><path d="M543.43,106.64c3.13,0,5.66-2.53,5.66-5.66s-2.53-5.66-5.66-5.66-5.66,2.54-5.66,5.66,2.53,5.66,5.66,5.66Z" fill="none" stroke="#2bb673" stroke-width=".25"/><path d="M622.09,106.64c3.13,0,5.66-2.53,5.66-5.66s-2.53-5.66-5.66-5.66-5.66,2.54-5.66,5.66,2.53,5.66,5.66,5.66Z" fill="none" stroke="#2bb673" stroke-width=".25"/><path d="M633.43,106.64c3.13,0,5.66-2.53,5.66-5.66s-2.53-5.66-5.66-5.66-5.66,2.54-5.66,5.66,2.53,5.66,5.66,5.66Z" fill="none" stroke="#2bb673" stroke-width=".25"/><path d="M314.31,106.64c3.13,0,5.66-2.53,5.66-5.66s-2.53-5.66-5.66-5.66-5.66,2.54-5.66,5.66,2.53,5.66,5.66,5.66Z" fill="none" stroke="#2bb673" stroke-width=".25"/></svg>