<?xml version="1.0" encoding="UTF-8"?><svg xmlns="http://www.w3.org/2000/svg" viewBox="0 0 312.69 79.97"><g id="a"><rect x="169.61" y="-23.22" width="24.52" height="71.06" rx="2.79" ry="2.79" transform="translate(194.18 -169.56) rotate(90)" fill="#f0efef" stroke="#8dd1c5" stroke-miterlimit="10" stroke-width=".1"/><rect x="264.85" y="6.35" width="24.52" height="71.06" rx="2.79" ry="2.79" transform="translate(318.98 -235.23) rotate(90)" fill="#f0efef" stroke="#8dd1c5" stroke-miterlimit="10" stroke-width=".1"/><rect x="158.88" y="50.42" width="16.97" height="42.04" rx="2.79" ry="2.79" transform="translate(238.8 -95.93) rotate(90)" fill="#f0efef" stroke="#8dd1c5" stroke-miterlimit="10" stroke-width=".1"/></g><g id="b"><polygon points="8.45 13.33 .25 5.13 .25 16.33 2.81 13.85 5.18 19.5 7.02 18.72 4.76 13.33 8.45 13.33" fill="none" stroke="#010101" stroke-linecap="round" stroke-linejoin="round" stroke-width=".5"/><g><line x1="24.06" y1="12.31" x2="24.31" y2="12.31" fill="none" stroke="#000" stroke-linecap="round" stroke-linejoin="round"/><line x1="28.36" y1="12.31" x2="135.7" y2="12.31" fill="none" stroke="#000" stroke-dasharray="0 0 .51 4.05" stroke-linecap="round" stroke-linejoin="round"/><line x1="137.72" y1="12.31" x2="137.97" y2="12.31" fill="none" stroke="#000" stroke-linecap="round" stroke-linejoin="round"/><path d="M28.16,15.19c.09-.14,.05-.33-.09-.41l-3.87-2.47,3.87-2.47c.14-.09,.18-.27,.09-.41-.09-.14-.28-.18-.41-.09l-4.27,2.72c-.09,.06-.14,.15-.14,.25s.05,.2,.14,.25l4.27,2.72s.11,.05,.16,.05c.1,0,.2-.05,.25-.14Z"/><path d="M133.87,15.19c-.09-.14-.05-.33,.09-.41l3.87-2.47-3.87-2.47c-.14-.09-.18-.27-.09-.41,.09-.14,.28-.18,.41-.09l4.27,2.72c.09,.06,.14,.15,.14,.25s-.05,.2-.14,.25l-4.27,2.72s-.11,.05-.16,.05c-.1,0-.2-.05-.25-.14Z"/></g><polygon points="8.45 42.89 .25 34.69 .25 45.89 2.81 43.42 5.18 49.06 7.02 48.28 4.76 42.89 8.45 42.89" fill="none" stroke="#010101" stroke-linecap="round" stroke-linejoin="round" stroke-width=".5"/><g><line x1="24.06" y1="41.87" x2="24.31" y2="41.87" fill="none" stroke="#000" stroke-linecap="round" stroke-linejoin="round"/><line x1="28.3" y1="41.87" x2="223.73" y2="41.87" fill="none" stroke="#000" stroke-dasharray="0 0 .5 3.99" stroke-linecap="round" stroke-linejoin="round"/><line x1="225.72" y1="41.87" x2="225.97" y2="41.87" fill="none" stroke="#000" stroke-linecap="round" stroke-linejoin="round"/><path d="M28.16,44.75c.09-.14,.05-.33-.09-.41l-3.87-2.47,3.87-2.47c.14-.09,.18-.27,.09-.41s-.28-.18-.41-.09l-4.27,2.72c-.09,.06-.14,.15-.14,.25s.05,.2,.14,.25l4.27,2.72s.11,.05,.16,.05c.1,0,.2-.05,.25-.14Z"/><path d="M221.87,44.75c-.09-.14-.05-.33,.09-.41l3.87-2.47-3.87-2.47c-.14-.09-.18-.27-.09-.41,.09-.14,.28-.18,.41-.09l4.27,2.72c.09,.06,.14,.15,.14,.25s-.05,.2-.14,.25l-4.27,2.72s-.11,.05-.16,.05c-.1,0-.2-.05-.25-.14Z"/></g><polygon points="8.45 72.45 .25 64.25 .25 75.45 2.81 72.98 5.18 78.62 7.02 77.85 4.76 72.45 8.45 72.45" fill="none" stroke="#010101" stroke-linecap="round" stroke-linejoin="round" stroke-width=".5"/><g><line x1="24.06" y1="71.44" x2="24.31" y2="71.44" fill="none" stroke="#000" stroke-linecap="round" stroke-linejoin="round"/><line x1="28.36" y1="71.44" x2="135.7" y2="71.44" fill="none" stroke="#000" stroke-dasharray="0 0 .51 4.05" stroke-linecap="round" stroke-linejoin="round"/><line x1="137.72" y1="71.44" x2="137.97" y2="71.44" fill="none" stroke="#000" stroke-linecap="round" stroke-linejoin="round"/><path d="M28.16,74.32c.09-.14,.05-.33-.09-.41l-3.87-2.47,3.87-2.47c.14-.09,.18-.27,.09-.41s-.28-.18-.41-.09l-4.27,2.72c-.09,.06-.14,.15-.14,.25s.05,.2,.14,.25l4.27,2.72s.11,.05,.16,.05c.1,0,.2-.05,.25-.14Z"/><path d="M133.87,74.32c-.09-.14-.05-.33,.09-.41l3.87-2.47-3.87-2.47c-.14-.09-.18-.27-.09-.41,.09-.14,.28-.18,.41-.09l4.27,2.72c.09,.06,.14,.15,.14,.25s-.05,.2-.14,.25l-4.27,2.72s-.11,.05-.16,.05c-.1,0-.2-.05-.25-.14Z"/></g><g><path d="M164.41,15.34v-7.03h-2.38v-.84h5.76v.84h-2.38v7.03h-1.01Z" fill="#231f20"/><path d="M169.59,15.48c-.49,0-.89-.15-1.22-.44-.32-.29-.49-.7-.49-1.22,0-.64,.29-1.13,.86-1.47,.57-.34,1.48-.58,2.72-.71,0-.25-.03-.48-.1-.71-.07-.22-.19-.41-.36-.55-.17-.14-.42-.21-.74-.21s-.65,.06-.95,.19-.56,.27-.79,.43l-.38-.68c.27-.18,.61-.35,1-.51,.4-.16,.83-.25,1.29-.25,.71,0,1.23,.22,1.55,.65s.48,1.02,.48,1.75v3.58h-.82l-.08-.7h-.04c-.27,.22-.57,.42-.89,.59s-.67,.25-1.04,.25Zm.29-.79c.28,0,.54-.07,.79-.2,.25-.14,.51-.33,.79-.58v-1.62c-.97,.12-1.65,.3-2.03,.54-.39,.24-.58,.55-.58,.92,0,.33,.1,.57,.3,.71,.2,.15,.44,.22,.73,.22Z" fill="#231f20"/><path d="M174.29,15.34v-5.83h.82l.08,1.06h.04c.2-.37,.44-.66,.73-.88,.29-.22,.6-.32,.92-.32,.23,0,.44,.04,.62,.12l-.19,.86c-.1-.03-.18-.06-.26-.07s-.18-.02-.3-.02c-.25,0-.51,.1-.77,.3-.27,.2-.5,.55-.7,1.04v3.74h-.98Z" fill="#231f20"/><path d="M180.3,18.03c-.71,0-1.29-.14-1.74-.41s-.67-.66-.67-1.16c0-.25,.08-.49,.23-.71,.15-.23,.36-.43,.62-.61v-.05c-.14-.09-.27-.21-.37-.37-.1-.16-.15-.35-.15-.58,0-.25,.07-.46,.2-.65,.14-.18,.28-.33,.43-.43v-.05c-.19-.16-.37-.38-.52-.65s-.23-.58-.23-.92c0-.42,.1-.79,.3-1.1s.47-.55,.8-.72,.7-.25,1.09-.25c.16,0,.31,.01,.46,.04,.14,.03,.27,.06,.37,.1h2.03v.76h-1.2c.14,.13,.25,.3,.34,.51s.14,.44,.14,.69c0,.42-.1,.78-.29,1.08-.19,.3-.45,.54-.77,.7-.32,.16-.68,.25-1.08,.25-.31,0-.6-.07-.88-.2-.1,.09-.19,.19-.26,.29-.07,.11-.11,.24-.11,.4,0,.18,.07,.34,.22,.46,.15,.12,.42,.18,.81,.18h1.13c.68,0,1.19,.11,1.53,.33,.34,.22,.51,.57,.51,1.06,0,.36-.12,.69-.36,1s-.58,.55-1.02,.74c-.44,.19-.96,.28-1.57,.28Zm.14-.68c.56,0,1.01-.12,1.34-.37,.34-.24,.5-.52,.5-.82,0-.27-.1-.46-.31-.56s-.49-.16-.87-.16h-1.01c-.11,0-.23,0-.37-.02-.13-.02-.26-.04-.39-.07-.21,.15-.36,.31-.46,.48s-.14,.34-.14,.5c0,.31,.15,.56,.45,.74,.3,.18,.71,.28,1.24,.28Zm-.14-4.51c.34,0,.63-.13,.87-.38,.24-.25,.37-.59,.37-1.01s-.12-.76-.36-1-.53-.36-.88-.36-.64,.12-.88,.36-.36,.57-.36,1,.12,.76,.37,1.01c.24,.25,.53,.38,.87,.38Z" fill="#231f20"/><path d="M186.58,15.48c-.52,0-.99-.12-1.42-.37-.42-.24-.76-.59-1.01-1.05s-.37-1-.37-1.63,.13-1.19,.38-1.64,.58-.81,.98-1.06c.4-.25,.82-.37,1.26-.37,.74,0,1.32,.25,1.72,.74,.4,.5,.61,1.16,.61,1.99,0,.1,0,.21,0,.31s-.01,.19-.03,.26h-3.94c.04,.62,.23,1.11,.58,1.48,.35,.37,.8,.55,1.36,.55,.28,0,.54-.04,.77-.13,.24-.08,.46-.19,.68-.33l.35,.65c-.25,.16-.53,.3-.85,.42-.32,.12-.67,.18-1.07,.18Zm-1.84-3.53h3.12c0-.59-.13-1.04-.38-1.35s-.61-.46-1.06-.46c-.41,0-.77,.16-1.1,.47-.32,.32-.52,.76-.58,1.34Z" fill="#231f20"/><path d="M191.88,15.48c-.62,0-1.06-.18-1.3-.54s-.37-.83-.37-1.4v-3.23h-.86v-.74l.91-.06,.12-1.63h.83v1.63h1.57v.8h-1.57v3.24c0,.36,.07,.64,.2,.83,.13,.2,.37,.29,.7,.29,.1,0,.22-.02,.34-.05,.12-.04,.23-.07,.32-.1l.19,.74c-.16,.06-.33,.11-.52,.15-.19,.04-.37,.07-.56,.07Z" fill="#231f20"/><path d="M195.55,15.34l2.66-7.87h1.13l2.66,7.87h-1.07l-.74-2.4h-2.87l-.76,2.4h-1.02Zm2.4-4.4l-.37,1.2h2.36l-.37-1.2c-.14-.44-.28-.88-.41-1.31-.13-.44-.26-.88-.38-1.34h-.05c-.12,.46-.24,.9-.37,1.34s-.26,.87-.41,1.31Z" fill="#231f20"/></g><g><path d="M259.38,44.9v-7.03h-2.38v-.84h5.76v.84h-2.38v7.03h-1.01Z" fill="#231f20"/><path d="M264.55,45.05c-.49,0-.89-.15-1.22-.44-.32-.29-.49-.7-.49-1.22,0-.64,.29-1.13,.86-1.47,.57-.34,1.48-.58,2.72-.71,0-.25-.03-.48-.1-.71-.07-.22-.19-.41-.36-.55-.17-.14-.42-.21-.74-.21s-.65,.06-.95,.19-.56,.27-.79,.43l-.38-.68c.27-.18,.61-.35,1-.51,.4-.16,.83-.25,1.29-.25,.71,0,1.23,.22,1.55,.65s.48,1.02,.48,1.75v3.58h-.82l-.08-.7h-.04c-.27,.22-.57,.42-.89,.59s-.67,.25-1.04,.25Zm.29-.79c.28,0,.54-.07,.79-.2,.25-.14,.51-.33,.79-.58v-1.62c-.97,.12-1.65,.3-2.03,.54-.39,.24-.58,.55-.58,.92,0,.33,.1,.57,.3,.71,.2,.15,.44,.22,.73,.22Z" fill="#231f20"/><path d="M269.26,44.9v-5.83h.82l.08,1.06h.04c.2-.37,.44-.66,.73-.88,.29-.22,.6-.32,.92-.32,.23,0,.44,.04,.62,.12l-.19,.86c-.1-.03-.18-.06-.26-.07s-.18-.02-.3-.02c-.25,0-.51,.1-.77,.3-.27,.2-.5,.55-.7,1.04v3.74h-.98Z" fill="#231f20"/><path d="M275.27,47.59c-.71,0-1.29-.14-1.74-.41s-.67-.66-.67-1.16c0-.25,.08-.49,.23-.71,.15-.23,.36-.43,.62-.61v-.05c-.14-.09-.27-.21-.37-.37-.1-.16-.15-.35-.15-.58,0-.25,.07-.46,.2-.65,.14-.18,.28-.33,.43-.43v-.05c-.19-.16-.37-.38-.52-.65s-.23-.58-.23-.92c0-.42,.1-.79,.3-1.1s.47-.55,.8-.72,.7-.25,1.09-.25c.16,0,.31,.01,.46,.04,.14,.03,.27,.06,.37,.1h2.03v.76h-1.2c.14,.13,.25,.3,.34,.51s.14,.44,.14,.69c0,.42-.1,.78-.29,1.08-.19,.3-.45,.54-.77,.7-.32,.16-.68,.25-1.08,.25-.31,0-.6-.07-.88-.2-.1,.09-.19,.19-.26,.29-.07,.11-.11,.24-.11,.4,0,.18,.07,.34,.22,.46,.15,.12,.42,.18,.81,.18h1.13c.68,0,1.19,.11,1.53,.33,.34,.22,.51,.57,.51,1.06,0,.36-.12,.69-.36,1s-.58,.55-1.02,.74c-.44,.19-.96,.28-1.57,.28Zm.14-.68c.56,0,1.01-.12,1.34-.37,.34-.24,.5-.52,.5-.82,0-.27-.1-.46-.31-.56s-.49-.16-.87-.16h-1.01c-.11,0-.23,0-.37-.02-.13-.02-.26-.04-.39-.07-.21,.15-.36,.31-.46,.48s-.14,.34-.14,.5c0,.31,.15,.56,.45,.74,.3,.18,.71,.28,1.24,.28Zm-.14-4.51c.34,0,.63-.13,.87-.38,.24-.25,.37-.59,.37-1.01s-.12-.76-.36-1-.53-.36-.88-.36-.64,.12-.88,.36-.36,.57-.36,1,.12,.76,.37,1.01c.24,.25,.53,.38,.87,.38Z" fill="#231f20"/><path d="M281.55,45.05c-.52,0-.99-.12-1.42-.37-.42-.24-.76-.59-1.01-1.05s-.37-1-.37-1.63,.13-1.19,.38-1.64,.58-.81,.98-1.06c.4-.25,.82-.37,1.26-.37,.74,0,1.32,.25,1.72,.74,.4,.5,.61,1.16,.61,1.99,0,.1,0,.21,0,.31s-.01,.19-.03,.26h-3.94c.04,.62,.23,1.11,.58,1.48,.35,.37,.8,.55,1.36,.55,.28,0,.54-.04,.77-.13,.24-.08,.46-.19,.68-.33l.35,.65c-.25,.16-.53,.3-.85,.42-.32,.12-.67,.18-1.07,.18Zm-1.84-3.53h3.12c0-.59-.13-1.04-.38-1.35s-.61-.46-1.06-.46c-.41,0-.77,.16-1.1,.47-.32,.32-.52,.76-.58,1.34Z" fill="#231f20"/><path d="M286.85,45.05c-.62,0-1.06-.18-1.3-.54s-.37-.83-.37-1.4v-3.23h-.86v-.74l.91-.06,.12-1.63h.83v1.63h1.57v.8h-1.57v3.24c0,.36,.07,.64,.2,.83,.13,.2,.37,.29,.7,.29,.1,0,.22-.02,.34-.05,.12-.04,.23-.07,.32-.1l.19,.74c-.16,.06-.33,.11-.52,.15-.19,.04-.37,.07-.56,.07Z" fill="#231f20"/><path d="M291.57,44.9v-7.87h2.34c.54,0,1.01,.06,1.41,.19,.4,.13,.72,.33,.95,.61,.23,.28,.34,.65,.34,1.12,0,.39-.1,.75-.29,1.06-.2,.32-.48,.53-.86,.65v.05c.47,.09,.86,.29,1.16,.6s.45,.74,.45,1.28c0,.51-.13,.94-.38,1.28-.25,.34-.6,.6-1.05,.77-.45,.17-.97,.25-1.56,.25h-2.51Zm1-4.52h1.16c.67,0,1.16-.12,1.45-.35,.3-.23,.44-.55,.44-.95,0-.46-.15-.78-.46-.97s-.77-.29-1.39-.29h-1.21v2.56Zm0,3.73h1.37c.68,0,1.21-.13,1.58-.38s.56-.64,.56-1.17c0-.49-.19-.85-.56-1.07s-.9-.34-1.59-.34h-1.37v2.96Z" fill="#231f20"/></g><g><path d="M155.62,73.2v-4.69h-1.58v-.56h3.84v.56h-1.58v4.69h-.67Z" fill="#231f20"/><path d="M159.06,73.3c-.33,0-.6-.1-.81-.29-.22-.19-.32-.47-.32-.81,0-.43,.19-.75,.57-.98,.38-.23,.99-.39,1.81-.48,0-.17-.02-.32-.07-.47-.05-.15-.13-.27-.24-.36-.12-.09-.28-.14-.49-.14-.22,0-.43,.04-.63,.13s-.37,.18-.53,.29l-.26-.46c.18-.12,.4-.23,.67-.34s.55-.16,.86-.16c.47,0,.82,.15,1.03,.44,.21,.29,.32,.68,.32,1.16v2.38h-.54l-.06-.46h-.02c-.18,.15-.38,.28-.6,.39-.22,.11-.45,.17-.69,.17Zm.19-.53c.19,0,.36-.04,.53-.14,.17-.09,.34-.22,.53-.38v-1.08c-.65,.08-1.1,.2-1.36,.36-.26,.16-.39,.37-.39,.62,0,.22,.07,.38,.2,.48,.13,.1,.3,.15,.49,.15Z" fill="#231f20"/><path d="M162.2,73.2v-3.89h.54l.06,.7h.02c.13-.25,.3-.44,.49-.58,.19-.14,.4-.22,.62-.22,.16,0,.29,.03,.42,.08l-.13,.58c-.06-.02-.12-.04-.18-.05-.05-.01-.12-.02-.2-.02-.17,0-.34,.07-.52,.2s-.33,.37-.47,.7v2.5h-.66Z" fill="#231f20"/><path d="M166.21,75c-.47,0-.86-.09-1.16-.27s-.45-.44-.45-.78c0-.17,.05-.32,.15-.48s.24-.29,.42-.4v-.03c-.1-.06-.18-.14-.24-.25-.07-.11-.1-.23-.1-.38,0-.17,.04-.31,.14-.43s.19-.22,.29-.29v-.03c-.13-.11-.24-.25-.35-.43-.1-.18-.16-.39-.16-.62,0-.28,.07-.53,.2-.74,.13-.21,.31-.37,.54-.48,.22-.11,.47-.17,.73-.17,.11,0,.21,0,.3,.03,.1,.02,.18,.04,.25,.07h1.35v.5h-.8c.09,.08,.17,.2,.23,.34s.09,.29,.09,.46c0,.28-.06,.52-.19,.72s-.3,.36-.51,.47c-.21,.11-.45,.16-.72,.16-.21,0-.4-.05-.58-.14-.07,.06-.13,.12-.18,.2-.05,.07-.07,.16-.07,.27,0,.12,.05,.22,.15,.3s.28,.12,.54,.12h.75c.45,0,.79,.07,1.02,.22,.23,.15,.34,.38,.34,.71,0,.24-.08,.46-.24,.66s-.39,.37-.68,.49c-.29,.13-.64,.19-1.05,.19Zm.1-.46c.37,0,.67-.08,.9-.24s.34-.35,.34-.55c0-.18-.07-.31-.2-.38s-.33-.1-.58-.1h-.67c-.07,0-.16,0-.24-.02s-.17-.03-.26-.05c-.14,.1-.24,.21-.3,.32-.06,.11-.1,.22-.1,.34,0,.21,.1,.37,.3,.5,.2,.12,.48,.18,.83,.18Zm-.1-3.01c.22,0,.42-.08,.58-.25s.24-.39,.24-.68-.08-.5-.24-.66c-.16-.16-.35-.24-.58-.24s-.42,.08-.58,.24c-.16,.16-.24,.38-.24,.66s.08,.51,.24,.68c.16,.17,.36,.25,.58,.25Z" fill="#231f20"/><path d="M170.39,73.3c-.35,0-.66-.08-.94-.24-.28-.16-.51-.4-.67-.7-.17-.3-.25-.67-.25-1.09s.08-.79,.25-1.1c.17-.3,.38-.54,.65-.7,.27-.17,.55-.25,.84-.25,.5,0,.88,.17,1.15,.5,.27,.33,.4,.77,.4,1.33,0,.07,0,.14,0,.2,0,.07,0,.12-.02,.17h-2.62c.03,.41,.16,.74,.39,.98,.23,.25,.53,.37,.91,.37,.19,0,.36-.03,.52-.08,.16-.06,.31-.13,.45-.22l.23,.43c-.17,.11-.35,.2-.56,.28-.21,.08-.45,.12-.72,.12Zm-1.22-2.35h2.08c0-.39-.08-.69-.25-.9-.17-.21-.4-.31-.71-.31-.27,0-.52,.11-.73,.32-.22,.21-.35,.51-.39,.89Z" fill="#231f20"/><path d="M173.93,73.3c-.42,0-.71-.12-.87-.36-.16-.24-.24-.55-.24-.94v-2.15h-.58v-.5l.61-.04,.08-1.09h.55v1.09h1.05v.54h-1.05v2.16c0,.24,.04,.43,.13,.56,.09,.13,.24,.2,.47,.2,.07,0,.14-.01,.22-.04s.15-.05,.22-.07l.13,.5c-.11,.04-.22,.07-.35,.1s-.25,.04-.37,.04Z" fill="#231f20"/><path d="M179.06,73.3c-.44,0-.83-.11-1.17-.32s-.62-.53-.82-.93c-.2-.41-.3-.89-.3-1.46s.1-1.05,.3-1.46c.2-.41,.48-.72,.83-.94,.35-.22,.75-.33,1.19-.33,.32,0,.6,.07,.85,.2s.44,.28,.59,.45l-.36,.43c-.14-.15-.3-.27-.47-.36-.18-.09-.38-.14-.6-.14-.33,0-.62,.09-.87,.26s-.44,.42-.58,.73c-.14,.31-.2,.69-.2,1.13s.07,.82,.2,1.14c.13,.32,.32,.57,.56,.75,.24,.18,.53,.26,.86,.26,.25,0,.47-.05,.67-.16,.2-.11,.38-.25,.54-.43l.37,.42c-.21,.24-.44,.43-.7,.56-.26,.13-.56,.2-.9,.2Z" fill="#231f20"/></g></g></svg>