<?xml version="1.0" encoding="utf-8"?>
<!-- Generator: Adobe Illustrator 26.2.1, SVG Export Plug-In . SVG Version: 6.00 Build 0)  -->
<svg version="1.1" id="Layer_1" xmlns="http://www.w3.org/2000/svg" xmlns:xlink="http://www.w3.org/1999/xlink" x="0px" y="0px"
	 viewBox="0 0 312.7 80" style="enable-background:new 0 0 312.7 80;" xml:space="preserve">
<style type="text/css">
	.st0{fill:#F0EFEF;stroke:#8DD1C5;stroke-width:0.1;stroke-miterlimit:10;}
	.st1{fill:#FFFFFF;}
	.st2{fill:none;stroke:#FFFFFF;stroke-linecap:round;stroke-linejoin:round;}
	.st3{fill:none;stroke:#FFFFFF;stroke-linecap:round;stroke-linejoin:round;stroke-dasharray:0,0,0.51,4.05;}
	.st4{stroke:#FFFFFF;stroke-miterlimit:10;}
	.st5{fill:none;stroke:#FFFFFF;stroke-linecap:round;stroke-linejoin:round;stroke-dasharray:0,0,0.5,3.99;}
	.st6{fill:#231F20;}
</style>
<g id="a">
	<path class="st0" d="M217.4,2.8v18.9c0,1.5-1.2,2.8-2.8,2.8h-65.5c-1.5,0-2.8-1.2-2.8-2.8V2.8c0-1.5,1.2-2.8,2.8-2.8h65.5
		C216.2,0.1,217.4,1.3,217.4,2.8z"/>
	<path class="st0" d="M312.6,32.4v18.9c0,1.5-1.2,2.8-2.8,2.8h-65.5c-1.5,0-2.8-1.2-2.8-2.8V32.4c0-1.5,1.2-2.8,2.8-2.8h65.5
		C311.4,29.6,312.6,30.9,312.6,32.4z"/>
	<path class="st0" d="M188.4,65.7v11.4c0,1.5-1.2,2.8-2.8,2.8h-36.5c-1.5,0-2.8-1.2-2.8-2.8V65.7c0-1.5,1.2-2.8,2.8-2.8h36.5
		C187.1,63,188.4,64.2,188.4,65.7z"/>
</g>
<polygon class="st1" points="8.4,13.3 0.2,5.1 0.2,16.3 2.8,13.9 5.2,19.5 7,18.7 4.8,13.3 "/>
<g>
	<line class="st2" x1="24.1" y1="12.3" x2="24.3" y2="12.3"/>
	<line class="st3" x1="28.4" y1="12.3" x2="135.7" y2="12.3"/>
	<line class="st2" x1="137.7" y1="12.3" x2="138" y2="12.3"/>
	<path class="st4" d="M28.2,15.2c0.1-0.1,0-0.3-0.1-0.4l-3.9-2.5l3.9-2.5c0.1-0.1,0.2-0.3,0.1-0.4c-0.1-0.1-0.3-0.2-0.4-0.1
		l-4.3,2.7c-0.1,0.1-0.1,0.1-0.1,0.2s0,0.2,0.1,0.2l4.3,2.7c0,0,0.1,0.1,0.2,0.1C28,15.3,28.1,15.3,28.2,15.2z"/>
	<path class="st4" d="M133.9,15.2c-0.1-0.1-0.1-0.3,0.1-0.4l3.9-2.5L134,9.8c-0.1-0.1-0.2-0.3-0.1-0.4c0.1-0.1,0.3-0.2,0.4-0.1
		l4.3,2.7c0.1,0.1,0.1,0.1,0.1,0.2s-0.1,0.2-0.1,0.2l-4.3,2.7c0,0-0.1,0.1-0.2,0.1C134,15.3,133.9,15.3,133.9,15.2z"/>
</g>
<polygon class="st1" points="8.4,42.9 0.2,34.7 0.2,45.9 2.8,43.4 5.2,49.1 7,48.3 4.8,42.9 "/>
<g>
	<line class="st2" x1="24.1" y1="41.9" x2="24.3" y2="41.9"/>
	<line class="st5" x1="28.3" y1="41.9" x2="223.7" y2="41.9"/>
	<line class="st2" x1="225.7" y1="41.9" x2="226" y2="41.9"/>
	<path class="st4" d="M28.2,44.8c0.1-0.1,0-0.3-0.1-0.4l-3.9-2.5l3.9-2.5c0.1-0.1,0.2-0.3,0.1-0.4s-0.3-0.2-0.4-0.1l-4.3,2.7
		c-0.1,0.1-0.1,0.2-0.1,0.2s0,0.2,0.1,0.2l4.3,2.7c0,0,0.1,0,0.2,0C28,44.9,28.1,44.8,28.2,44.8z"/>
	<path class="st4" d="M221.9,44.8c-0.1-0.1-0.1-0.3,0.1-0.4l3.9-2.5l-3.9-2.5c-0.1-0.1-0.2-0.3-0.1-0.4s0.3-0.2,0.4-0.1l4.3,2.7
		c0.1,0.1,0.1,0.2,0.1,0.2s-0.1,0.2-0.1,0.2l-4.3,2.7c0,0-0.1,0-0.2,0C222,44.9,221.9,44.8,221.9,44.8z"/>
</g>
<polygon class="st1" points="8.4,72.4 0.2,64.2 0.2,75.4 2.8,73 5.2,78.6 7,77.8 4.8,72.4 "/>
<g>
	<line class="st2" x1="24.1" y1="71.4" x2="24.3" y2="71.4"/>
	<line class="st3" x1="28.4" y1="71.4" x2="135.7" y2="71.4"/>
	<line class="st2" x1="137.7" y1="71.4" x2="138" y2="71.4"/>
	<path class="st4" d="M28.2,74.3c0.1-0.1,0-0.3-0.1-0.4l-3.9-2.5l3.9-2.5c0.1-0.1,0.2-0.3,0.1-0.4s-0.3-0.2-0.4-0.1l-4.3,2.7
		c-0.1,0.1-0.1,0.2-0.1,0.2s0,0.2,0.1,0.2l4.3,2.7c0,0,0.1,0.1,0.2,0.1C28,74.5,28.1,74.4,28.2,74.3z"/>
	<path class="st4" d="M133.9,74.3c-0.1-0.1-0.1-0.3,0.1-0.4l3.9-2.5L134,69c-0.1-0.1-0.2-0.3-0.1-0.4c0.1-0.1,0.3-0.2,0.4-0.1
		l4.3,2.7c0.1,0.1,0.1,0.2,0.1,0.2s-0.1,0.2-0.1,0.2l-4.3,2.7c0,0-0.1,0.1-0.2,0.1C134,74.5,133.9,74.4,133.9,74.3z"/>
</g>
<g>
	<path class="st6" d="M164.4,15.3v-7H162V7.5h5.8v0.8h-2.4v7H164.4L164.4,15.3z"/>
	<path class="st6" d="M169.6,15.5c-0.5,0-0.9-0.1-1.2-0.4c-0.3-0.3-0.5-0.7-0.5-1.2c0-0.6,0.3-1.1,0.9-1.5s1.5-0.6,2.7-0.7
		c0-0.2,0-0.5-0.1-0.7c-0.1-0.2-0.2-0.4-0.4-0.6s-0.4-0.2-0.7-0.2s-0.6,0.1-0.9,0.2s-0.6,0.3-0.8,0.4l-0.4-0.7
		c0.3-0.2,0.6-0.4,1-0.5c0.4-0.2,0.8-0.2,1.3-0.2c0.7,0,1.2,0.2,1.6,0.6s0.5,1,0.5,1.8v3.6h-0.8l-0.1-0.7h0
		c-0.3,0.2-0.6,0.4-0.9,0.6S170,15.5,169.6,15.5L169.6,15.5z M169.9,14.7c0.3,0,0.5-0.1,0.8-0.2c0.2-0.1,0.5-0.3,0.8-0.6v-1.6
		c-1,0.1-1.6,0.3-2,0.5c-0.4,0.2-0.6,0.6-0.6,0.9c0,0.3,0.1,0.6,0.3,0.7C169.3,14.6,169.6,14.7,169.9,14.7L169.9,14.7z"/>
	<path class="st6" d="M174.3,15.3V9.5h0.8l0.1,1.1h0c0.2-0.4,0.4-0.7,0.7-0.9s0.6-0.3,0.9-0.3c0.2,0,0.4,0,0.6,0.1l-0.2,0.9
		c-0.1,0-0.2-0.1-0.3-0.1s-0.2,0-0.3,0c-0.2,0-0.5,0.1-0.8,0.3c-0.3,0.2-0.5,0.6-0.7,1v3.7L174.3,15.3L174.3,15.3z"/>
	<path class="st6" d="M180.3,18c-0.7,0-1.3-0.1-1.7-0.4s-0.7-0.7-0.7-1.2c0-0.2,0.1-0.5,0.2-0.7c0.1-0.2,0.4-0.4,0.6-0.6v-0.1
		c-0.1-0.1-0.3-0.2-0.4-0.4c-0.1-0.2-0.1-0.4-0.1-0.6c0-0.2,0.1-0.5,0.2-0.6c0.1-0.2,0.3-0.3,0.4-0.4V13c-0.2-0.2-0.4-0.4-0.5-0.6
		s-0.2-0.6-0.2-0.9c0-0.4,0.1-0.8,0.3-1.1s0.5-0.6,0.8-0.7s0.7-0.2,1.1-0.2c0.2,0,0.3,0,0.5,0c0.1,0,0.3,0.1,0.4,0.1h2v0.8h-1.2
		c0.1,0.1,0.2,0.3,0.3,0.5s0.1,0.4,0.1,0.7c0,0.4-0.1,0.8-0.3,1.1c-0.2,0.3-0.4,0.5-0.8,0.7s-0.7,0.2-1.1,0.2
		c-0.3,0-0.6-0.1-0.9-0.2c-0.1,0.1-0.2,0.2-0.3,0.3c-0.1,0.1-0.1,0.2-0.1,0.4c0,0.2,0.1,0.3,0.2,0.5s0.4,0.2,0.8,0.2h1.1
		c0.7,0,1.2,0.1,1.5,0.3s0.5,0.6,0.5,1.1c0,0.4-0.1,0.7-0.4,1s-0.6,0.5-1,0.7S180.9,18,180.3,18L180.3,18z M180.4,17.4
		c0.6,0,1-0.1,1.3-0.4c0.3-0.2,0.5-0.5,0.5-0.8c0-0.3-0.1-0.5-0.3-0.6s-0.5-0.2-0.9-0.2h-1c-0.1,0-0.2,0-0.4,0c-0.1,0-0.3,0-0.4-0.1
		c-0.2,0.1-0.4,0.3-0.5,0.5s-0.1,0.3-0.1,0.5c0,0.3,0.1,0.6,0.4,0.7S179.9,17.3,180.4,17.4L180.4,17.4z M180.3,12.8
		c0.3,0,0.6-0.1,0.9-0.4c0.2-0.2,0.4-0.6,0.4-1s-0.1-0.8-0.4-1s-0.5-0.4-0.9-0.4s-0.6,0.1-0.9,0.4s-0.4,0.6-0.4,1s0.1,0.8,0.4,1
		C179.7,12.7,180,12.8,180.3,12.8L180.3,12.8z"/>
	<path class="st6" d="M186.6,15.5c-0.5,0-1-0.1-1.4-0.4c-0.4-0.2-0.8-0.6-1-1.1s-0.4-1-0.4-1.6s0.1-1.2,0.4-1.6s0.6-0.8,1-1.1
		c0.4-0.2,0.8-0.4,1.3-0.4c0.7,0,1.3,0.2,1.7,0.7c0.4,0.5,0.6,1.2,0.6,2c0,0.1,0,0.2,0,0.3s0,0.2,0,0.3h-3.9c0,0.6,0.2,1.1,0.6,1.5
		s0.8,0.6,1.4,0.6c0.3,0,0.5,0,0.8-0.1c0.2-0.1,0.5-0.2,0.7-0.3l0.4,0.6c-0.2,0.2-0.5,0.3-0.9,0.4S187,15.5,186.6,15.5z M184.7,11.9
		h3.1c0-0.6-0.1-1-0.4-1.4s-0.6-0.5-1.1-0.5c-0.4,0-0.8,0.2-1.1,0.5C185,10.9,184.8,11.4,184.7,11.9L184.7,11.9z"/>
	<path class="st6" d="M191.9,15.5c-0.6,0-1.1-0.2-1.3-0.5s-0.4-0.8-0.4-1.4v-3.2h-0.9V9.6l0.9-0.1l0.1-1.6h0.8v1.6h1.6v0.8h-1.6v3.2
		c0,0.4,0.1,0.6,0.2,0.8c0.1,0.2,0.4,0.3,0.7,0.3c0.1,0,0.2,0,0.3-0.1c0.1,0,0.2-0.1,0.3-0.1l0.2,0.7c-0.2,0.1-0.3,0.1-0.5,0.1
		S192.1,15.5,191.9,15.5z"/>
	<path class="st6" d="M195.6,15.3l2.7-7.9h1.1l2.7,7.9h-1.1l-0.7-2.4h-2.9l-0.8,2.4H195.6L195.6,15.3z M197.9,10.9l-0.4,1.2h2.4
		l-0.4-1.2c-0.1-0.4-0.3-0.9-0.4-1.3c-0.1-0.4-0.3-0.9-0.4-1.3h-0.1c-0.1,0.5-0.2,0.9-0.4,1.3S198.1,10.5,197.9,10.9z"/>
</g>
<g>
	<path class="st6" d="M259.4,44.9v-7H257V37h5.8v0.8h-2.4v7H259.4L259.4,44.9z"/>
	<path class="st6" d="M264.5,45c-0.5,0-0.9-0.2-1.2-0.4c-0.3-0.3-0.5-0.7-0.5-1.2c0-0.6,0.3-1.1,0.9-1.5c0.6-0.3,1.5-0.6,2.7-0.7
		c0-0.2,0-0.5-0.1-0.7c-0.1-0.2-0.2-0.4-0.4-0.5c-0.2-0.1-0.4-0.2-0.7-0.2s-0.6,0.1-1,0.2s-0.6,0.3-0.8,0.4l-0.4-0.7
		c0.3-0.2,0.6-0.3,1-0.5c0.4-0.2,0.8-0.2,1.3-0.2c0.7,0,1.2,0.2,1.5,0.7s0.5,1,0.5,1.8v3.6h-0.8l-0.1-0.7h0
		c-0.3,0.2-0.6,0.4-0.9,0.6S264.9,45,264.5,45L264.5,45z M264.8,44.3c0.3,0,0.5-0.1,0.8-0.2c0.2-0.1,0.5-0.3,0.8-0.6v-1.6
		c-1,0.1-1.6,0.3-2,0.5c-0.4,0.2-0.6,0.5-0.6,0.9c0,0.3,0.1,0.6,0.3,0.7C264.3,44.2,264.6,44.2,264.8,44.3L264.8,44.3z"/>
	<path class="st6" d="M269.3,44.9v-5.8h0.8l0.1,1.1h0c0.2-0.4,0.4-0.7,0.7-0.9s0.6-0.3,0.9-0.3c0.2,0,0.4,0,0.6,0.1l-0.2,0.9
		c-0.1,0-0.2-0.1-0.3-0.1s-0.2,0-0.3,0c-0.2,0-0.5,0.1-0.8,0.3c-0.3,0.2-0.5,0.5-0.7,1v3.7H269.3L269.3,44.9z"/>
	<path class="st6" d="M275.3,47.6c-0.7,0-1.3-0.1-1.7-0.4s-0.7-0.7-0.7-1.2c0-0.2,0.1-0.5,0.2-0.7c0.1-0.2,0.4-0.4,0.6-0.6v0
		c-0.1-0.1-0.3-0.2-0.4-0.4s-0.1-0.3-0.1-0.6c0-0.2,0.1-0.5,0.2-0.7c0.1-0.2,0.3-0.3,0.4-0.4v0c-0.2-0.2-0.4-0.4-0.5-0.7
		s-0.2-0.6-0.2-0.9c0-0.4,0.1-0.8,0.3-1.1s0.5-0.5,0.8-0.7s0.7-0.2,1.1-0.2c0.2,0,0.3,0,0.5,0c0.1,0,0.3,0.1,0.4,0.1h2v0.8h-1.2
		c0.1,0.1,0.2,0.3,0.3,0.5s0.1,0.4,0.1,0.7c0,0.4-0.1,0.8-0.3,1.1c-0.2,0.3-0.5,0.5-0.8,0.7c-0.3,0.2-0.7,0.2-1.1,0.2
		c-0.3,0-0.6-0.1-0.9-0.2c-0.1,0.1-0.2,0.2-0.3,0.3c-0.1,0.1-0.1,0.2-0.1,0.4c0,0.2,0.1,0.3,0.2,0.5s0.4,0.2,0.8,0.2h1.1
		c0.7,0,1.2,0.1,1.5,0.3s0.5,0.6,0.5,1.1c0,0.4-0.1,0.7-0.4,1s-0.6,0.5-1,0.7C276.4,47.5,275.9,47.6,275.3,47.6L275.3,47.6z
		 M275.4,46.9c0.6,0,1-0.1,1.3-0.4c0.3-0.2,0.5-0.5,0.5-0.8c0-0.3-0.1-0.5-0.3-0.6s-0.5-0.2-0.9-0.2h-1c-0.1,0-0.2,0-0.4,0
		c-0.1,0-0.3,0-0.4-0.1c-0.2,0.2-0.4,0.3-0.5,0.5s-0.1,0.3-0.1,0.5c0,0.3,0.1,0.6,0.5,0.7C274.4,46.8,274.9,46.9,275.4,46.9
		L275.4,46.9z M275.3,42.4c0.3,0,0.6-0.1,0.9-0.4s0.4-0.6,0.4-1s-0.1-0.8-0.4-1s-0.5-0.4-0.9-0.4s-0.6,0.1-0.9,0.4s-0.4,0.6-0.4,1
		s0.1,0.8,0.4,1C274.6,42.3,274.9,42.4,275.3,42.4z"/>
	<path class="st6" d="M281.5,45c-0.5,0-1-0.1-1.4-0.4c-0.4-0.2-0.8-0.6-1-1s-0.4-1-0.4-1.6s0.1-1.2,0.4-1.6s0.6-0.8,1-1.1
		c0.4-0.2,0.8-0.4,1.3-0.4c0.7,0,1.3,0.2,1.7,0.7c0.4,0.5,0.6,1.2,0.6,2c0,0.1,0,0.2,0,0.3s0,0.2,0,0.3h-3.9c0,0.6,0.2,1.1,0.6,1.5
		c0.4,0.4,0.8,0.5,1.4,0.5c0.3,0,0.5,0,0.8-0.1c0.2-0.1,0.5-0.2,0.7-0.3l0.4,0.7c-0.2,0.2-0.5,0.3-0.9,0.4S281.9,45,281.5,45
		L281.5,45z M279.7,41.5h3.1c0-0.6-0.1-1-0.4-1.3s-0.6-0.5-1.1-0.5c-0.4,0-0.8,0.2-1.1,0.5C280,40.5,279.8,40.9,279.7,41.5z"/>
	<path class="st6" d="M286.9,45c-0.6,0-1.1-0.2-1.3-0.5s-0.4-0.8-0.4-1.4v-3.2h-0.9v-0.7l0.9-0.1l0.1-1.6h0.8v1.6h1.6v0.8h-1.6v3.2
		c0,0.4,0.1,0.6,0.2,0.8c0.1,0.2,0.4,0.3,0.7,0.3c0.1,0,0.2,0,0.3,0c0.1,0,0.2-0.1,0.3-0.1l0.2,0.7c-0.2,0.1-0.3,0.1-0.5,0.2
		S287,45.1,286.9,45L286.9,45z"/>
	<path class="st6" d="M291.6,44.9V37h2.3c0.5,0,1,0.1,1.4,0.2c0.4,0.1,0.7,0.3,1,0.6s0.3,0.7,0.3,1.1c0,0.4-0.1,0.8-0.3,1.1
		c-0.2,0.3-0.5,0.5-0.9,0.7v0c0.5,0.1,0.9,0.3,1.2,0.6s0.5,0.7,0.5,1.3c0,0.5-0.1,0.9-0.4,1.3s-0.6,0.6-1,0.8
		c-0.5,0.2-1,0.2-1.6,0.2L291.6,44.9L291.6,44.9z M292.6,40.4h1.2c0.7,0,1.2-0.1,1.5-0.3c0.3-0.2,0.4-0.5,0.4-1c0-0.5-0.1-0.8-0.5-1
		s-0.8-0.3-1.4-0.3h-1.2L292.6,40.4L292.6,40.4z M292.6,44.1h1.4c0.7,0,1.2-0.1,1.6-0.4s0.6-0.6,0.6-1.2c0-0.5-0.2-0.8-0.6-1.1
		s-0.9-0.3-1.6-0.3h-1.4L292.6,44.1L292.6,44.1z"/>
</g>
<g>
	<path class="st6" d="M155.6,73.2v-4.7H154v-0.6h3.8v0.6h-1.6v4.7H155.6L155.6,73.2z"/>
	<path class="st6" d="M159.1,73.3c-0.3,0-0.6-0.1-0.8-0.3c-0.2-0.2-0.3-0.5-0.3-0.8c0-0.4,0.2-0.8,0.6-1s1-0.4,1.8-0.5
		c0-0.2,0-0.3-0.1-0.5s-0.1-0.3-0.2-0.4c-0.1-0.1-0.3-0.1-0.5-0.1c-0.2,0-0.4,0-0.6,0.1s-0.4,0.2-0.5,0.3l-0.3-0.5
		c0.2-0.1,0.4-0.2,0.7-0.3s0.6-0.2,0.9-0.2c0.5,0,0.8,0.2,1,0.4c0.2,0.3,0.3,0.7,0.3,1.2v2.4h-0.5l-0.1-0.5h0
		c-0.2,0.2-0.4,0.3-0.6,0.4S159.3,73.3,159.1,73.3L159.1,73.3z M159.2,72.8c0.2,0,0.4,0,0.5-0.1c0.2-0.1,0.3-0.2,0.5-0.4v-1.1
		c-0.6,0.1-1.1,0.2-1.4,0.4s-0.4,0.4-0.4,0.6c0,0.2,0.1,0.4,0.2,0.5C158.9,72.7,159.1,72.8,159.2,72.8L159.2,72.8z"/>
	<path class="st6" d="M162.2,73.2v-3.9h0.5l0.1,0.7h0c0.1-0.2,0.3-0.4,0.5-0.6s0.4-0.2,0.6-0.2c0.2,0,0.3,0,0.4,0.1l-0.1,0.6
		c-0.1,0-0.1,0-0.2-0.1c-0.1,0-0.1,0-0.2,0c-0.2,0-0.3,0.1-0.5,0.2s-0.3,0.4-0.5,0.7v2.5L162.2,73.2L162.2,73.2z"/>
	<path class="st6" d="M166.2,75c-0.5,0-0.9-0.1-1.2-0.3s-0.4-0.4-0.4-0.8c0-0.2,0.1-0.3,0.1-0.5s0.2-0.3,0.4-0.4v0
		c-0.1-0.1-0.2-0.1-0.2-0.2c-0.1-0.1-0.1-0.2-0.1-0.4c0-0.2,0-0.3,0.1-0.4s0.2-0.2,0.3-0.3v0c-0.1-0.1-0.2-0.2-0.4-0.4
		c-0.1-0.2-0.2-0.4-0.2-0.6c0-0.3,0.1-0.5,0.2-0.7c0.1-0.2,0.3-0.4,0.5-0.5c0.2-0.1,0.5-0.2,0.7-0.2c0.1,0,0.2,0,0.3,0
		c0.1,0,0.2,0,0.2,0.1h1.4v0.5h-0.8c0.1,0.1,0.2,0.2,0.2,0.3s0.1,0.3,0.1,0.5c0,0.3-0.1,0.5-0.2,0.7s-0.3,0.4-0.5,0.5
		c-0.2,0.1-0.4,0.2-0.7,0.2c-0.2,0-0.4-0.1-0.6-0.1c-0.1,0.1-0.1,0.1-0.2,0.2c-0.1,0.1-0.1,0.2-0.1,0.3c0,0.1,0.1,0.2,0.1,0.3
		s0.3,0.1,0.5,0.1h0.8c0.4,0,0.8,0.1,1,0.2c0.2,0.2,0.3,0.4,0.3,0.7c0,0.2-0.1,0.5-0.2,0.7s-0.4,0.4-0.7,0.5
		C167,74.9,166.6,75,166.2,75L166.2,75z M166.3,74.5c0.4,0,0.7-0.1,0.9-0.2s0.3-0.3,0.3-0.6c0-0.2-0.1-0.3-0.2-0.4s-0.3-0.1-0.6-0.1
		h-0.7c-0.1,0-0.2,0-0.2,0s-0.2,0-0.3-0.1c-0.1,0.1-0.2,0.2-0.3,0.3s-0.1,0.2-0.1,0.3c0,0.2,0.1,0.4,0.3,0.5
		C165.7,74.5,166,74.5,166.3,74.5L166.3,74.5z M166.2,71.5c0.2,0,0.4-0.1,0.6-0.2s0.2-0.4,0.2-0.7s-0.1-0.5-0.2-0.7
		s-0.4-0.2-0.6-0.2s-0.4,0.1-0.6,0.2c-0.2,0.2-0.2,0.4-0.2,0.7s0.1,0.5,0.2,0.7S166,71.5,166.2,71.5z"/>
	<path class="st6" d="M170.4,73.3c-0.4,0-0.7-0.1-0.9-0.2c-0.3-0.2-0.5-0.4-0.7-0.7c-0.2-0.3-0.2-0.7-0.2-1.1s0.1-0.8,0.2-1.1
		c0.2-0.3,0.4-0.5,0.6-0.7c0.3-0.2,0.6-0.2,0.8-0.2c0.5,0,0.9,0.2,1.1,0.5c0.3,0.3,0.4,0.8,0.4,1.3c0,0.1,0,0.1,0,0.2
		c0,0.1,0,0.1,0,0.2h-2.6c0,0.4,0.2,0.7,0.4,1c0.2,0.2,0.5,0.4,0.9,0.4c0.2,0,0.4,0,0.5-0.1c0.2-0.1,0.3-0.1,0.4-0.2l0.2,0.4
		c-0.2,0.1-0.4,0.2-0.6,0.3C170.9,73.3,170.7,73.3,170.4,73.3L170.4,73.3z M169.2,71h2.1c0-0.4-0.1-0.7-0.2-0.9s-0.4-0.3-0.7-0.3
		c-0.3,0-0.5,0.1-0.7,0.3C169.3,70.3,169.2,70.6,169.2,71z"/>
	<path class="st6" d="M173.9,73.3c-0.4,0-0.7-0.1-0.9-0.4c-0.2-0.2-0.2-0.6-0.2-0.9v-2.2h-0.6v-0.5l0.6,0l0.1-1.1h0.6v1.1h1.1v0.5
		h-1.1V72c0,0.2,0,0.4,0.1,0.6c0.1,0.1,0.2,0.2,0.5,0.2c0.1,0,0.1,0,0.2,0s0.1-0.1,0.2-0.1l0.1,0.5c-0.1,0-0.2,0.1-0.4,0.1
		S174.1,73.3,173.9,73.3L173.9,73.3z"/>
	<path class="st6" d="M179.1,73.3c-0.4,0-0.8-0.1-1.2-0.3s-0.6-0.5-0.8-0.9c-0.2-0.4-0.3-0.9-0.3-1.5s0.1-1.1,0.3-1.5
		c0.2-0.4,0.5-0.7,0.8-0.9s0.8-0.3,1.2-0.3c0.3,0,0.6,0.1,0.9,0.2s0.4,0.3,0.6,0.4l-0.4,0.4c-0.1-0.2-0.3-0.3-0.5-0.4
		c-0.2-0.1-0.4-0.1-0.6-0.1c-0.3,0-0.6,0.1-0.9,0.3s-0.4,0.4-0.6,0.7c-0.1,0.3-0.2,0.7-0.2,1.1s0.1,0.8,0.2,1.1
		c0.1,0.3,0.3,0.6,0.6,0.8c0.2,0.2,0.5,0.3,0.9,0.3c0.2,0,0.5-0.1,0.7-0.2s0.4-0.2,0.5-0.4l0.4,0.4c-0.2,0.2-0.4,0.4-0.7,0.6
		S179.4,73.3,179.1,73.3L179.1,73.3z"/>
</g>
</svg>
