<?xml version="1.0" encoding="UTF-8"?><svg xmlns="http://www.w3.org/2000/svg" viewBox="0 0 503.44 287.37"><g id="a"/><g id="b"/><g id="c"><rect x="168.47" y="-21.85" width="19.88" height="63.58" transform="translate(188.35 -168.47) rotate(90)" fill="#1e1e1e"/><g><path d="M170.22,12.03V7.43h.58v1.92h2.14v-1.92h.59v4.59h-.59v-2.16h-2.14v2.16h-.58Z" fill="#fff"/><path d="M176.05,12.11c-.28,0-.53-.07-.77-.21s-.43-.34-.58-.61c-.15-.27-.22-.59-.22-.96s.07-.71,.22-.97,.34-.47,.58-.61c.24-.14,.5-.21,.77-.21s.54,.07,.78,.21c.24,.14,.43,.34,.58,.61s.22,.59,.22,.97-.07,.69-.22,.96c-.15,.27-.34,.47-.58,.61-.24,.14-.5,.21-.78,.21Zm0-.48c.29,0,.53-.12,.71-.36s.27-.55,.27-.94-.09-.71-.27-.95-.42-.36-.71-.36-.52,.12-.71,.36-.27,.56-.27,.95,.09,.7,.27,.94,.42,.36,.71,.36Z" fill="#fff"/><path d="M178.52,12.03v-3.4h.48l.05,.49h.02c.15-.16,.31-.3,.49-.41,.18-.11,.37-.16,.57-.16,.26,0,.47,.06,.61,.17s.26,.27,.33,.48c.18-.19,.36-.35,.54-.47,.18-.12,.38-.18,.58-.18,.35,0,.61,.11,.78,.34,.17,.23,.26,.56,.26,.99v2.16h-.57v-2.08c0-.32-.05-.55-.15-.69s-.26-.22-.48-.22c-.25,0-.54,.17-.85,.52v2.46h-.57v-2.08c0-.32-.05-.55-.15-.69s-.26-.22-.48-.22c-.25,0-.54,.17-.85,.52v2.46h-.57Z" fill="#fff"/><path d="M185.71,12.11c-.3,0-.58-.07-.83-.21-.25-.14-.44-.35-.59-.61-.14-.27-.22-.58-.22-.95s.07-.69,.22-.96c.15-.27,.34-.47,.57-.62s.48-.22,.74-.22c.43,0,.77,.14,1,.43,.24,.29,.35,.68,.35,1.16,0,.06,0,.12,0,.18,0,.06,0,.11-.02,.15h-2.3c.02,.36,.14,.65,.34,.86,.2,.21,.47,.32,.79,.32,.16,0,.31-.02,.45-.07,.14-.05,.27-.11,.4-.19l.2,.38c-.15,.09-.31,.18-.49,.25-.18,.07-.39,.1-.63,.1Zm-1.07-2.06h1.82c0-.35-.07-.61-.22-.79-.15-.18-.35-.27-.62-.27-.24,0-.45,.09-.64,.28-.19,.18-.3,.44-.34,.78Z" fill="#fff"/></g><rect x="315.09" y="92.26" width="19.88" height="63.58" transform="translate(449.08 -200.98) rotate(90)" fill="#1e1e1e"/><g><path d="M314.01,126.13v-4.59h1.31c.34,0,.65,.04,.9,.13,.26,.08,.46,.22,.6,.42s.22,.47,.22,.8c0,.48-.16,.84-.47,1.07s-.72,.35-1.23,.35h-.76v1.82h-.58Zm.58-2.3h.69c.4,0,.7-.08,.89-.23,.19-.15,.29-.39,.29-.72s-.1-.56-.3-.69-.5-.19-.91-.19h-.66v1.83Z" fill="#fff"/><path d="M317.92,126.13v-3.4h.48l.05,.62h.02c.12-.21,.26-.38,.43-.51s.35-.19,.54-.19c.14,0,.26,.02,.36,.07l-.11,.5c-.06-.02-.11-.03-.15-.04-.05,0-.11-.01-.18-.01-.14,0-.29,.06-.45,.17-.16,.12-.29,.32-.41,.61v2.18h-.57Z" fill="#fff"/><path d="M321.6,126.22c-.28,0-.53-.07-.77-.21-.24-.14-.43-.34-.58-.61-.15-.27-.22-.59-.22-.96s.07-.71,.22-.97c.15-.27,.34-.47,.58-.61s.5-.21,.77-.21,.54,.07,.78,.21,.43,.34,.58,.61c.15,.27,.22,.59,.22,.97s-.07,.69-.22,.96c-.15,.27-.34,.47-.58,.61-.24,.14-.5,.21-.78,.21Zm0-.48c.29,0,.53-.12,.71-.36s.27-.55,.27-.94-.09-.71-.27-.95c-.18-.24-.42-.36-.71-.36s-.52,.12-.71,.36c-.18,.24-.27,.56-.27,.95s.09,.7,.27,.94c.18,.24,.42,.36,.71,.36Z" fill="#fff"/><path d="M325.23,126.22c-.42,0-.76-.16-1.02-.47s-.38-.75-.38-1.31c0-.37,.07-.69,.21-.96s.32-.48,.55-.62,.47-.22,.72-.22c.2,0,.37,.04,.51,.11,.14,.07,.29,.17,.44,.29l-.03-.58v-1.31h.58v4.98h-.48l-.05-.4h-.02c-.13,.13-.28,.24-.46,.34s-.37,.14-.57,.14Zm.13-.48c.3,0,.59-.16,.87-.47v-1.78c-.14-.13-.28-.22-.42-.28s-.27-.08-.41-.08c-.18,0-.35,.05-.49,.16-.15,.11-.26,.26-.35,.46s-.13,.42-.13,.68c0,.41,.08,.72,.25,.96,.16,.23,.39,.35,.69,.35Z" fill="#fff"/><path d="M328.95,126.22c-.36,0-.62-.11-.79-.34s-.25-.56-.25-.99v-2.16h.58v2.08c0,.32,.05,.55,.15,.69,.1,.14,.26,.22,.49,.22,.18,0,.33-.05,.47-.14s.29-.24,.45-.44v-2.42h.57v3.4h-.48l-.05-.53h-.02c-.16,.19-.33,.34-.5,.45-.18,.11-.38,.17-.62,.17Z" fill="#fff"/><path d="M333.11,126.22c-.3,0-.57-.07-.81-.21-.24-.14-.43-.34-.57-.61s-.21-.59-.21-.96,.08-.71,.23-.97c.15-.27,.35-.47,.6-.61,.25-.14,.52-.21,.81-.21,.22,0,.42,.04,.58,.12s.3,.17,.42,.28l-.29,.38c-.1-.09-.2-.16-.31-.22-.11-.06-.23-.08-.37-.08-.21,0-.39,.05-.55,.16s-.29,.26-.38,.46-.14,.43-.14,.69c0,.39,.1,.7,.29,.94,.19,.24,.45,.36,.76,.36,.16,0,.31-.03,.44-.1,.14-.07,.25-.15,.36-.24l.25,.38c-.15,.14-.33,.24-.51,.32-.19,.08-.38,.12-.59,.12Z" fill="#fff"/><path d="M335.96,126.22c-.36,0-.62-.11-.76-.32-.14-.21-.21-.48-.21-.82v-1.88h-.5v-.43l.53-.04,.07-.95h.48v.95h.92v.47h-.92v1.89c0,.21,.04,.37,.12,.49s.21,.17,.41,.17c.06,0,.13-.01,.2-.03,.07-.02,.13-.04,.19-.06l.11,.43c-.09,.03-.19,.06-.3,.09-.11,.03-.22,.04-.33,.04Z" fill="#fff"/></g><rect x="461.71" y="92.26" width="19.88" height="63.58" transform="translate(595.7 -347.6) rotate(90)" fill="#1e1e1e"/><g><path d="M453.41,126.22c-.32,0-.62-.06-.9-.19-.28-.12-.51-.29-.71-.49l.35-.41c.16,.17,.36,.31,.58,.42,.22,.11,.45,.16,.69,.16,.3,0,.54-.07,.71-.21s.25-.32,.25-.54c0-.16-.03-.29-.1-.38-.07-.09-.16-.17-.27-.24-.12-.07-.24-.13-.39-.2l-.66-.29c-.14-.06-.29-.14-.43-.24-.14-.1-.26-.22-.36-.38-.1-.15-.14-.34-.14-.57s.06-.44,.19-.63c.12-.18,.29-.33,.51-.43,.22-.11,.47-.16,.74-.16s.53,.05,.76,.16c.23,.1,.43,.24,.59,.41l-.32,.38c-.14-.13-.29-.24-.46-.32-.17-.08-.36-.12-.58-.12-.26,0-.46,.06-.62,.18s-.23,.29-.23,.49c0,.14,.04,.26,.12,.36s.17,.17,.29,.23c.12,.06,.24,.12,.36,.17l.65,.28c.18,.07,.34,.16,.48,.27,.14,.1,.25,.23,.34,.38,.08,.15,.13,.34,.13,.57,0,.24-.06,.46-.19,.66s-.31,.36-.54,.47c-.23,.12-.51,.17-.83,.17Z" fill="#fff"/><path d="M455.81,126.13v-4.98h.57v3.37h.02l1.45-1.79h.64l-1.14,1.37,1.29,2.04h-.63l-.99-1.64-.64,.74v.9h-.57Z" fill="#fff"/><path d="M459.57,122.03c-.11,0-.21-.03-.28-.1-.07-.07-.11-.16-.11-.28s.04-.2,.11-.27c.07-.07,.17-.11,.28-.11s.2,.04,.28,.11c.07,.07,.11,.16,.11,.27,0,.12-.04,.21-.11,.28-.07,.07-.17,.1-.28,.1Zm-.29,4.1v-3.4h.57v3.4h-.57Z" fill="#fff"/><path d="M461,126.13v-3.4h.48l.05,.49h.02c.16-.16,.34-.3,.52-.41,.18-.11,.39-.17,.62-.17,.36,0,.62,.11,.79,.34,.17,.23,.25,.56,.25,.99v2.16h-.57v-2.08c0-.32-.05-.55-.15-.69s-.27-.22-.49-.22c-.17,0-.33,.04-.47,.13s-.29,.22-.47,.39v2.46h-.57Z" fill="#fff"/><path d="M465.9,126.22c-.36,0-.62-.11-.76-.32-.14-.21-.21-.48-.21-.82v-1.88h-.5v-.43l.53-.04,.07-.95h.48v.95h.92v.47h-.92v1.89c0,.21,.04,.37,.12,.49s.21,.17,.41,.17c.06,0,.13-.01,.2-.03,.07-.02,.13-.04,.19-.06l.11,.43c-.09,.03-.19,.06-.3,.09-.11,.03-.22,.04-.33,.04Z" fill="#fff"/><path d="M467.25,127.6c-.08,0-.15,0-.21-.02-.07-.01-.13-.03-.19-.05l.11-.46s.08,.02,.13,.03c.05,.01,.09,.02,.13,.02,.19,0,.35-.07,.48-.21s.22-.31,.29-.52l.08-.25-1.37-3.41h.59l.69,1.88c.05,.14,.11,.3,.16,.47s.11,.33,.17,.49h.03c.05-.15,.1-.31,.15-.48,.05-.17,.09-.33,.14-.48l.61-1.88h.56l-1.28,3.68c-.08,.22-.17,.42-.28,.6-.11,.18-.25,.32-.41,.42-.16,.1-.36,.16-.58,.16Z" fill="#fff"/><path d="M470.46,127.57v-4.84h.48l.05,.39h.02c.15-.13,.32-.24,.51-.34,.18-.09,.38-.14,.58-.14,.44,0,.77,.16,1,.47,.23,.31,.34,.74,.34,1.26,0,.38-.07,.71-.21,.99-.14,.28-.32,.49-.54,.63-.22,.14-.46,.22-.72,.22-.16,0-.32-.04-.47-.11-.16-.07-.31-.17-.47-.29v1.74h-.56Zm1.41-1.83c.28,0,.51-.12,.7-.36s.28-.57,.28-.99c0-.37-.07-.68-.21-.91-.14-.23-.37-.35-.69-.35-.15,0-.29,.04-.44,.12-.15,.08-.3,.19-.47,.34v1.79c.15,.13,.3,.22,.45,.28,.14,.05,.27,.08,.38,.08Z" fill="#fff"/><path d="M475.73,126.22c-.3,0-.58-.07-.83-.21-.25-.14-.44-.35-.59-.61s-.22-.58-.22-.95,.07-.69,.22-.96c.15-.27,.34-.47,.57-.62s.48-.22,.74-.22c.43,0,.77,.14,1,.43,.24,.29,.35,.68,.35,1.16,0,.06,0,.12,0,.18,0,.06,0,.11-.02,.15h-2.3c.02,.36,.14,.65,.34,.86s.47,.32,.79,.32c.16,0,.31-.02,.45-.07,.14-.05,.27-.11,.4-.19l.2,.38c-.14,.09-.31,.18-.49,.25-.18,.07-.39,.11-.63,.11Zm-1.07-2.06h1.82c0-.34-.07-.61-.22-.79-.15-.18-.35-.27-.62-.27-.24,0-.45,.09-.64,.28-.19,.18-.3,.44-.34,.78Z" fill="#fff"/><path d="M482.38,127.29c-.42,0-.78-.1-1.06-.31-.29-.21-.5-.47-.63-.78-.33-.05-.62-.17-.88-.38-.25-.21-.45-.48-.59-.82-.14-.34-.21-.74-.21-1.18,0-.49,.08-.91,.25-1.26,.17-.35,.4-.62,.69-.81,.3-.19,.64-.28,1.02-.28s.73,.09,1.02,.28c.29,.19,.53,.46,.69,.81,.17,.35,.25,.77,.25,1.26,0,.44-.07,.83-.2,1.16-.14,.34-.32,.61-.57,.82-.24,.21-.53,.34-.85,.4,.11,.2,.26,.35,.46,.46s.42,.15,.67,.15c.1,0,.19,0,.27-.02,.08-.01,.15-.03,.21-.05l.11,.45c-.07,.03-.16,.05-.28,.07-.12,.02-.24,.03-.38,.03Zm-1.41-1.55c.27,0,.51-.08,.72-.23s.36-.38,.47-.67,.17-.63,.17-1.02c0-.57-.12-1.02-.37-1.35-.25-.33-.58-.5-.99-.5s-.74,.17-.99,.5c-.25,.33-.37,.78-.37,1.35,0,.39,.06,.73,.17,1.02s.27,.51,.48,.67c.21,.16,.44,.23,.71,.23Z" fill="#fff"/><path d="M484.86,126.22c-.36,0-.62-.11-.79-.34s-.25-.56-.25-.99v-2.16h.58v2.08c0,.32,.05,.55,.15,.69s.26,.22,.49,.22c.18,0,.33-.05,.47-.14s.29-.24,.44-.44v-2.42h.57v3.4h-.48l-.05-.53h-.02c-.16,.19-.33,.34-.5,.45-.18,.11-.38,.17-.62,.17Z" fill="#fff"/><path d="M487.97,122.03c-.11,0-.21-.03-.28-.1-.07-.07-.11-.16-.11-.28s.04-.2,.11-.27c.07-.07,.17-.11,.28-.11s.2,.04,.28,.11c.07,.07,.11,.16,.11,.27,0,.12-.04,.21-.11,.28-.07,.07-.17,.1-.28,.1Zm-.29,4.1v-3.4h.57v3.4h-.57Z" fill="#fff"/><path d="M489.04,126.13v-.31l1.79-2.62h-1.6v-.47h2.32v.31l-1.79,2.62h1.85v.47h-2.58Z" fill="#fff"/></g><g><path d="M347.84,12.09V7.47h2.46v.2h-2.24v1.95h1.89v.2h-1.89v2.28h-.22Z" fill="#231f20"/><path d="M350.25,12.09l1.65-4.62h.2l1.65,4.62h-.24l-.57-1.65h-1.88l-.58,1.65h-.22Zm1.2-2.77l-.33,.92h1.74l-.32-.92c-.1-.28-.19-.55-.28-.8-.09-.25-.17-.52-.25-.81h-.03c-.08,.28-.17,.55-.26,.81-.09,.25-.18,.52-.28,.8Z" fill="#231f20"/><path d="M357.35,13.16c-.37,0-.68-.09-.93-.28-.25-.19-.43-.42-.54-.71-.34-.03-.63-.14-.9-.35-.26-.2-.47-.48-.62-.83-.15-.35-.22-.76-.22-1.22s.08-.91,.24-1.26c.16-.36,.38-.63,.67-.83,.28-.19,.61-.29,.97-.29s.69,.1,.97,.29c.28,.19,.5,.47,.67,.83s.24,.78,.24,1.26-.07,.88-.22,1.23c-.15,.35-.36,.63-.62,.83-.26,.2-.57,.32-.91,.34,.1,.24,.26,.43,.47,.56,.21,.13,.46,.2,.76,.2,.11,0,.2,0,.27-.02,.07-.01,.14-.02,.19-.04l.06,.21c-.06,.01-.13,.03-.23,.05-.1,.02-.2,.02-.3,.02Zm-1.33-1.18c.33,0,.61-.09,.86-.28,.25-.18,.44-.44,.57-.77,.14-.33,.21-.72,.21-1.16s-.07-.83-.21-1.15c-.14-.32-.33-.58-.57-.75s-.53-.27-.86-.27-.61,.09-.86,.27-.44,.43-.57,.75c-.14,.32-.21,.71-.21,1.15s.07,.83,.21,1.16c.14,.33,.33,.59,.57,.77,.25,.18,.53,.28,.86,.28Z" fill="#231f20"/></g><g><path d="M55.46,158.03v-4.62h.22v4.42h2.17v.2h-2.39Z" fill="#231f20"/><path d="M59.77,158.12c-.27,0-.51-.07-.74-.21-.23-.14-.41-.34-.54-.6-.14-.26-.2-.58-.2-.94s.07-.69,.2-.96,.32-.46,.54-.6c.23-.14,.47-.21,.74-.21s.51,.07,.74,.21c.22,.14,.4,.34,.54,.6,.14,.26,.21,.58,.21,.96s-.07,.68-.21,.94c-.14,.26-.32,.46-.54,.6-.22,.14-.47,.21-.74,.21Zm0-.2c.24,0,.45-.07,.64-.2,.19-.13,.34-.31,.45-.55,.11-.23,.16-.5,.16-.81s-.06-.58-.16-.82c-.11-.24-.26-.42-.45-.55-.19-.13-.41-.2-.64-.2s-.45,.07-.64,.2c-.19,.13-.34,.32-.45,.55s-.17,.51-.17,.82,.06,.58,.17,.81,.26,.42,.45,.55c.19,.13,.4,.2,.64,.2Z" fill="#231f20"/><path d="M63.38,159.67c-.42,0-.76-.09-1-.26s-.37-.4-.37-.68c0-.15,.05-.3,.14-.44,.09-.14,.21-.27,.37-.38v-.03c-.08-.05-.15-.12-.21-.21-.06-.09-.08-.2-.08-.32,0-.15,.04-.28,.13-.39s.16-.18,.23-.23v-.03c-.1-.09-.2-.22-.29-.38-.09-.16-.13-.34-.13-.54,0-.22,.05-.42,.15-.6s.24-.32,.41-.42c.17-.1,.37-.15,.58-.15,.09,0,.18,0,.25,.02,.07,.02,.14,.04,.18,.06h1.12v.2h-.81c.12,.1,.22,.22,.29,.38s.11,.33,.11,.52c0,.22-.05,.43-.15,.61s-.24,.32-.41,.43c-.17,.1-.37,.16-.58,.16-.1,0-.2-.01-.3-.04s-.19-.07-.27-.11c-.07,.06-.14,.13-.2,.21s-.09,.18-.09,.3,.05,.23,.14,.33c.09,.09,.26,.14,.52,.14h.74c.37,0,.65,.06,.82,.18,.17,.12,.26,.31,.26,.57,0,.19-.06,.37-.19,.54-.13,.17-.3,.31-.54,.42-.23,.11-.5,.16-.82,.16Zm.01-.2c.27,0,.5-.04,.69-.13,.19-.09,.34-.2,.45-.34,.11-.14,.16-.28,.16-.43,0-.2-.07-.34-.21-.42s-.34-.13-.61-.13h-.77s-.07,0-.15-.01c-.08,0-.17-.02-.26-.04-.17,.11-.29,.23-.36,.37-.07,.13-.11,.26-.11,.39,0,.22,.1,.41,.3,.55,.2,.14,.49,.21,.86,.21Zm-.08-2.7c.16,0,.31-.04,.45-.13,.14-.08,.25-.2,.34-.35s.13-.32,.13-.52-.04-.37-.13-.52-.2-.26-.34-.34-.29-.12-.46-.12c-.25,0-.47,.09-.65,.26-.18,.18-.27,.41-.27,.72,0,.2,.04,.37,.13,.52,.09,.15,.2,.27,.34,.35,.14,.08,.29,.13,.46,.13Z" fill="#231f20"/><path d="M65.78,153.83c-.06,0-.11-.02-.16-.07-.04-.05-.07-.11-.07-.18,0-.07,.02-.13,.07-.17s.1-.07,.16-.07c.06,0,.12,.02,.16,.07s.06,.1,.06,.17c0,.07-.02,.14-.06,.18-.04,.05-.1,.07-.16,.07Zm-.11,4.2v-3.35h.21v3.35h-.21Z" fill="#231f20"/><path d="M67.22,158.03v-3.35h.18l.03,.53h.01c.18-.18,.36-.32,.54-.44,.18-.12,.39-.18,.62-.18,.35,0,.6,.1,.76,.31,.16,.21,.25,.53,.25,.96v2.16h-.21v-2.13c0-.37-.06-.65-.19-.83s-.33-.27-.62-.27c-.21,0-.4,.06-.57,.17-.17,.11-.37,.28-.59,.5v2.56h-.21Z" fill="#231f20"/></g><g><path d="M55.46,189.86v-4.62h1.27c.46,0,.82,.09,1.08,.27,.27,.18,.4,.49,.4,.92,0,.37-.11,.66-.33,.86-.22,.21-.53,.33-.91,.37l1.32,2.2h-.27l-1.3-2.18h-1.04v2.18h-.22Zm.22-2.38h.97c.43,0,.76-.09,.99-.26s.34-.44,.34-.79-.11-.62-.34-.77c-.23-.15-.56-.22-.99-.22h-.97v2.04Z" fill="#231f20"/><path d="M60.33,189.95c-.28,0-.54-.07-.77-.21-.23-.14-.42-.34-.55-.6-.14-.26-.21-.57-.21-.94s.07-.68,.21-.94,.32-.47,.54-.61c.22-.14,.45-.21,.7-.21,.39,0,.69,.13,.92,.4,.23,.26,.34,.65,.34,1.14v.1s0,.08-.01,.12h-2.46c0,.3,.05,.57,.16,.8,.11,.23,.26,.42,.46,.55,.2,.13,.43,.2,.69,.2,.19,0,.36-.03,.51-.09,.15-.06,.29-.13,.41-.22l.1,.18c-.13,.07-.27,.15-.42,.22-.16,.07-.36,.1-.61,.1Zm-1.3-1.95h2.27c0-.46-.1-.81-.29-1.03-.19-.23-.45-.34-.76-.34-.2,0-.39,.05-.57,.16s-.32,.27-.44,.47-.19,.45-.21,.74Z" fill="#231f20"/><path d="M63.45,191.5c-.42,0-.76-.09-1-.26s-.37-.4-.37-.68c0-.15,.05-.3,.14-.44,.09-.14,.21-.27,.37-.38v-.03c-.08-.05-.15-.12-.21-.21-.06-.09-.08-.2-.08-.32,0-.15,.04-.28,.13-.39,.09-.11,.16-.18,.23-.23v-.03c-.1-.09-.2-.22-.29-.38-.09-.16-.13-.34-.13-.54,0-.22,.05-.42,.15-.6,.1-.18,.24-.32,.41-.42,.17-.1,.37-.15,.58-.15,.09,0,.18,0,.25,.02s.14,.04,.18,.06h1.12v.2h-.81c.12,.1,.22,.22,.29,.38,.07,.15,.11,.33,.11,.52,0,.22-.05,.43-.15,.61s-.24,.32-.41,.43c-.17,.11-.37,.16-.58,.16-.1,0-.2-.01-.3-.04-.1-.03-.19-.07-.27-.11-.07,.06-.14,.13-.2,.21-.06,.08-.09,.18-.09,.3s.05,.24,.14,.33c.09,.09,.26,.14,.52,.14h.74c.37,0,.65,.06,.82,.18,.17,.12,.26,.31,.26,.57,0,.19-.06,.37-.19,.54s-.3,.31-.54,.42-.5,.17-.82,.17Zm.01-.2c.27,0,.5-.04,.69-.13,.19-.09,.34-.2,.45-.34,.11-.14,.16-.28,.16-.43,0-.2-.07-.34-.21-.42s-.34-.13-.61-.13h-.77s-.07,0-.15-.01c-.08,0-.17-.02-.26-.04-.17,.11-.29,.23-.36,.37s-.11,.26-.11,.39c0,.22,.1,.41,.3,.55,.2,.14,.49,.21,.86,.21Zm-.08-2.7c.16,0,.31-.04,.45-.13,.14-.08,.25-.2,.34-.35s.13-.32,.13-.52-.04-.37-.13-.52-.2-.26-.34-.34c-.14-.08-.29-.12-.46-.12-.25,0-.47,.09-.65,.26-.18,.18-.27,.42-.27,.72,0,.2,.04,.37,.13,.52,.09,.15,.2,.27,.34,.35s.29,.13,.46,.13Z" fill="#231f20"/><path d="M65.85,185.66c-.06,0-.11-.02-.16-.07s-.07-.11-.07-.18c0-.07,.02-.13,.07-.17s.1-.07,.16-.07c.06,0,.12,.02,.16,.07s.06,.1,.06,.17c0,.07-.02,.14-.06,.18s-.1,.07-.16,.07Zm-.11,4.2v-3.35h.21v3.35h-.21Z" fill="#231f20"/><path d="M68.07,189.95c-.25,0-.48-.04-.69-.14-.21-.09-.38-.2-.53-.33l.14-.17c.14,.12,.29,.22,.46,.3s.38,.13,.63,.13c.28,0,.49-.07,.64-.22,.14-.14,.22-.31,.22-.5,0-.15-.04-.27-.13-.37-.09-.1-.19-.18-.32-.25s-.26-.12-.39-.17c-.17-.06-.34-.13-.5-.2-.16-.08-.3-.17-.4-.29-.1-.12-.16-.27-.16-.46,0-.23,.09-.44,.27-.61s.44-.26,.78-.26c.17,0,.33,.03,.5,.09,.17,.06,.31,.14,.42,.24l-.13,.17c-.11-.08-.23-.16-.36-.22s-.28-.09-.46-.09c-.28,0-.49,.07-.62,.21-.13,.14-.2,.29-.2,.45,0,.14,.04,.25,.11,.33s.17,.16,.29,.22c.12,.06,.25,.11,.38,.17,.18,.07,.35,.14,.52,.21,.17,.07,.31,.17,.43,.29,.11,.12,.17,.3,.17,.51,0,.16-.04,.32-.13,.46s-.21,.25-.37,.34c-.16,.09-.36,.13-.59,.13Z" fill="#231f20"/><path d="M70.8,189.95c-.31,0-.52-.09-.62-.27s-.16-.41-.16-.7v-2.27h-.53v-.17l.53-.03,.03-.98h.18v.98h.99v.2h-.99v2.3c0,.21,.04,.39,.11,.53,.07,.14,.23,.21,.48,.21,.07,0,.14-.01,.22-.04,.08-.02,.15-.05,.21-.08l.07,.18c-.1,.03-.19,.06-.29,.09s-.17,.04-.23,.04Z" fill="#231f20"/><path d="M72.06,189.86v-3.35h.18l.03,.63h.01c.11-.21,.25-.38,.41-.51,.16-.14,.34-.2,.54-.2,.06,0,.11,0,.16,.01,.05,0,.1,.03,.16,.06l-.06,.2c-.06-.02-.1-.04-.14-.04-.04,0-.09-.01-.15-.01-.15,0-.31,.07-.48,.2s-.32,.37-.46,.7v2.32h-.21Z" fill="#231f20"/><path d="M74.78,189.95c-.17,0-.33-.03-.48-.09-.15-.06-.27-.16-.35-.29-.09-.13-.13-.3-.13-.51,0-.37,.18-.66,.53-.85,.35-.19,.91-.33,1.67-.42,0-.18-.01-.36-.05-.54-.04-.18-.12-.32-.24-.44-.12-.11-.3-.17-.53-.17s-.45,.05-.64,.14-.34,.18-.45,.27l-.11-.17c.07-.05,.17-.11,.29-.18,.12-.07,.26-.13,.42-.18,.16-.05,.33-.08,.51-.08,.26,0,.47,.06,.62,.17,.15,.12,.25,.27,.31,.46s.09,.4,.09,.62v2.17h-.18l-.03-.45h-.01c-.17,.14-.36,.26-.57,.37-.21,.11-.42,.16-.65,.16Zm.01-.2c.21,0,.4-.05,.6-.15s.4-.24,.62-.43v-1.22c-.49,.06-.88,.13-1.17,.23-.29,.1-.49,.21-.62,.35-.13,.14-.19,.31-.19,.5,0,.26,.08,.44,.23,.55,.15,.11,.33,.17,.53,.17Z" fill="#231f20"/><path d="M78.25,189.95c-.31,0-.52-.09-.62-.27s-.16-.41-.16-.7v-2.27h-.53v-.17l.53-.03,.03-.98h.18v.98h.99v.2h-.99v2.3c0,.21,.04,.39,.11,.53,.07,.14,.23,.21,.48,.21,.07,0,.14-.01,.22-.04,.08-.02,.15-.05,.21-.08l.07,.18c-.1,.03-.19,.06-.29,.09s-.17,.04-.23,.04Z" fill="#231f20"/><path d="M79.62,185.66c-.06,0-.11-.02-.16-.07s-.07-.11-.07-.18c0-.07,.02-.13,.07-.17s.1-.07,.16-.07c.06,0,.12,.02,.16,.07s.06,.1,.06,.17c0,.07-.02,.14-.06,.18s-.1,.07-.16,.07Zm-.11,4.2v-3.35h.21v3.35h-.21Z" fill="#231f20"/><path d="M82.25,189.95c-.27,0-.51-.07-.74-.21-.23-.14-.41-.34-.54-.6s-.2-.58-.2-.95,.07-.69,.2-.96,.32-.46,.54-.6c.23-.14,.47-.21,.74-.21s.51,.07,.74,.21c.22,.14,.4,.34,.54,.6,.14,.26,.21,.58,.21,.96s-.07,.68-.21,.95c-.14,.26-.32,.46-.54,.6-.22,.14-.47,.21-.74,.21Zm0-.2c.24,0,.45-.07,.64-.2s.34-.31,.45-.55c.11-.23,.16-.5,.16-.81s-.06-.58-.16-.82c-.11-.24-.26-.42-.45-.55s-.41-.2-.64-.2-.45,.07-.64,.2-.34,.32-.45,.55c-.11,.24-.17,.51-.17,.82s.06,.58,.17,.81,.26,.42,.45,.55,.4,.2,.64,.2Z" fill="#231f20"/><path d="M84.79,189.86v-3.35h.18l.03,.53h.01c.18-.18,.36-.32,.54-.44,.18-.12,.39-.17,.62-.17,.35,0,.6,.1,.76,.31,.16,.21,.25,.53,.25,.96v2.16h-.21v-2.13c0-.37-.06-.65-.19-.83-.13-.18-.33-.27-.62-.27-.21,0-.4,.06-.57,.17-.17,.11-.37,.28-.59,.5v2.56h-.21Z" fill="#231f20"/></g><g><path d="M349.02,44.01c-.34,0-.64-.07-.89-.2-.25-.13-.47-.3-.65-.5l.15-.15c.17,.2,.37,.35,.61,.47s.5,.17,.78,.17c.37,0,.67-.09,.89-.28,.22-.18,.33-.42,.33-.72,0-.21-.04-.37-.12-.49-.08-.12-.18-.23-.31-.3-.13-.08-.27-.15-.42-.22l-.71-.32c-.13-.06-.27-.14-.41-.22-.14-.09-.27-.21-.37-.35-.1-.14-.15-.33-.15-.56s.06-.41,.17-.58c.12-.17,.27-.3,.47-.39s.42-.14,.67-.14c.28,0,.53,.06,.74,.16,.21,.11,.39,.24,.52,.38l-.14,.15c-.13-.15-.29-.27-.48-.36-.19-.09-.4-.13-.64-.13-.32,0-.58,.08-.78,.24s-.3,.37-.3,.64c0,.19,.04,.35,.13,.47,.09,.12,.2,.21,.33,.29,.13,.07,.25,.13,.35,.19l.71,.32c.17,.07,.33,.16,.48,.26,.15,.1,.27,.22,.36,.37,.09,.15,.14,.35,.14,.58s-.06,.44-.18,.63c-.12,.18-.29,.33-.5,.43-.22,.11-.47,.16-.76,.16Z" fill="#231f20"/><path d="M351.42,43.93v-5.05h.21v2.25c.18-.18,.37-.33,.55-.45s.39-.18,.62-.18c.34,0,.6,.1,.76,.31,.16,.21,.25,.53,.25,.96v2.16h-.21v-2.13c0-.37-.06-.65-.19-.83s-.33-.27-.62-.27c-.21,0-.4,.06-.57,.17-.17,.11-.37,.28-.59,.5v2.56h-.21Z" fill="#231f20"/><path d="M355.19,39.72c-.06,0-.11-.02-.16-.07-.04-.05-.07-.11-.07-.18,0-.07,.02-.13,.07-.17,.04-.04,.1-.07,.16-.07s.12,.02,.16,.07,.06,.1,.06,.17c0,.07-.02,.14-.06,.18-.04,.05-.1,.07-.16,.07Zm-.11,4.2v-3.35h.21v3.35h-.21Z" fill="#231f20"/><path d="M356.63,45.48v-4.9h.18l.03,.43h.01c.17-.14,.35-.26,.55-.36s.4-.16,.61-.16c.46,0,.8,.16,1.02,.47,.22,.31,.33,.72,.33,1.24,0,.38-.07,.7-.21,.97s-.32,.47-.54,.62c-.22,.14-.47,.22-.73,.22-.16,0-.33-.04-.5-.11-.17-.07-.35-.18-.54-.31v1.89h-.21Zm1.26-1.67c.24,0,.46-.07,.64-.21,.19-.14,.33-.33,.44-.57s.16-.52,.16-.83c0-.28-.04-.54-.11-.77-.07-.23-.19-.41-.36-.54-.17-.13-.39-.2-.66-.2-.17,0-.35,.05-.55,.15-.19,.1-.4,.25-.62,.44v2.07c.21,.17,.4,.29,.58,.36,.18,.07,.34,.1,.47,.1Z" fill="#231f20"/><path d="M360.41,45.48v-4.9h.18l.03,.43h.01c.17-.14,.35-.26,.55-.36s.4-.16,.61-.16c.46,0,.79,.16,1.01,.47,.22,.31,.33,.72,.33,1.24,0,.38-.07,.7-.21,.97s-.32,.47-.54,.62c-.22,.14-.47,.22-.74,.22-.16,0-.33-.04-.5-.11-.17-.07-.35-.18-.54-.31v1.89h-.21Zm1.26-1.67c.24,0,.46-.07,.64-.21s.33-.33,.44-.57,.16-.52,.16-.83c0-.28-.04-.54-.11-.77-.08-.23-.2-.41-.36-.54-.17-.13-.39-.2-.66-.2-.17,0-.35,.05-.55,.15-.19,.1-.4,.25-.62,.44v2.07c.21,.17,.4,.29,.58,.36,.18,.07,.34,.1,.47,.1Z" fill="#231f20"/><path d="M364.3,39.72c-.06,0-.11-.02-.16-.07-.04-.05-.07-.11-.07-.18,0-.07,.02-.13,.07-.17,.04-.04,.1-.07,.16-.07s.12,.02,.16,.07,.06,.1,.06,.17c0,.07-.02,.14-.06,.18-.04,.05-.1,.07-.16,.07Zm-.11,4.2v-3.35h.21v3.35h-.21Z" fill="#231f20"/><path d="M365.75,43.93v-3.35h.18l.03,.53h.01c.18-.18,.36-.32,.54-.44,.18-.12,.39-.18,.62-.18,.35,0,.6,.1,.76,.31,.16,.21,.25,.53,.25,.96v2.16h-.21v-2.13c0-.37-.06-.65-.19-.83s-.33-.27-.62-.27c-.21,0-.4,.06-.57,.17-.17,.11-.37,.28-.59,.5v2.56h-.21Z" fill="#231f20"/><path d="M370.51,45.56c-.42,0-.76-.09-1-.26s-.37-.4-.37-.68c0-.15,.05-.3,.14-.44,.09-.14,.21-.27,.37-.38v-.03c-.08-.05-.15-.12-.21-.21-.06-.09-.08-.2-.08-.32,0-.15,.04-.28,.13-.39,.09-.1,.16-.18,.23-.23v-.03c-.1-.09-.2-.22-.29-.38s-.13-.34-.13-.54c0-.22,.05-.42,.15-.6s.24-.32,.41-.42c.17-.1,.37-.15,.58-.15,.09,0,.18,0,.25,.02,.07,.02,.13,.04,.18,.06h1.12v.2h-.81c.12,.1,.22,.22,.29,.38,.08,.15,.11,.33,.11,.52,0,.22-.05,.43-.15,.61s-.24,.32-.41,.43c-.17,.1-.37,.16-.58,.16-.1,0-.2-.01-.3-.04s-.19-.07-.27-.11c-.08,.06-.14,.13-.2,.21s-.09,.18-.09,.3,.04,.23,.14,.33c.09,.09,.26,.14,.52,.14h.74c.37,0,.65,.06,.82,.18,.17,.12,.26,.31,.26,.57,0,.19-.06,.37-.19,.54-.13,.17-.3,.31-.54,.42-.23,.11-.5,.16-.82,.16Zm.01-.2c.27,0,.5-.04,.69-.13,.19-.09,.34-.2,.45-.34,.11-.14,.16-.28,.16-.43,0-.2-.07-.34-.21-.42s-.34-.13-.61-.13h-.77s-.07,0-.15-.01c-.08,0-.17-.02-.26-.04-.17,.11-.29,.23-.36,.37-.07,.13-.11,.26-.11,.39,0,.22,.1,.41,.3,.55,.2,.14,.49,.21,.86,.21Zm-.08-2.7c.16,0,.31-.04,.45-.13,.14-.08,.25-.2,.34-.35,.09-.15,.13-.32,.13-.52s-.04-.37-.13-.52-.2-.26-.34-.34c-.14-.08-.29-.12-.46-.12-.25,0-.47,.09-.65,.26-.18,.18-.27,.41-.27,.72,0,.2,.04,.37,.13,.52s.2,.27,.34,.35c.14,.08,.29,.13,.46,.13Z" fill="#231f20"/><path d="M375.08,44.01c-.23,0-.45-.05-.65-.15-.2-.1-.36-.24-.48-.43-.12-.19-.18-.41-.18-.67,0-.2,.04-.38,.14-.54,.09-.16,.21-.31,.36-.44s.3-.27,.47-.39c-.1-.2-.18-.4-.23-.59-.06-.2-.08-.39-.08-.57,0-.29,.08-.54,.26-.72,.17-.19,.39-.28,.65-.28,.24,0,.42,.08,.54,.23,.12,.15,.19,.35,.19,.58,0,.2-.05,.37-.16,.53-.1,.16-.24,.31-.41,.45-.17,.14-.34,.28-.51,.41,.16,.31,.36,.62,.6,.91s.48,.56,.72,.78c.18-.22,.33-.46,.45-.73,.12-.27,.23-.55,.31-.86h.21c-.09,.32-.2,.63-.34,.92-.14,.29-.3,.56-.49,.79,.33,.27,.63,.46,.91,.57l-.08,.2c-.14-.05-.29-.13-.45-.23-.16-.1-.33-.23-.51-.37-.17,.18-.35,.32-.55,.43-.2,.11-.43,.17-.69,.17Zm-1.08-1.26c0,.21,.05,.4,.15,.56,.1,.16,.23,.28,.4,.37,.17,.09,.35,.13,.54,.13,.21,0,.4-.05,.58-.15,.18-.1,.35-.23,.5-.39-.25-.23-.5-.5-.74-.8-.24-.3-.44-.61-.61-.92-.22,.17-.41,.35-.57,.54s-.25,.41-.25,.65Zm.63-2.53c0,.16,.02,.33,.07,.51,.05,.18,.12,.36,.2,.54,.16-.12,.32-.24,.46-.37s.26-.25,.35-.39c.09-.14,.14-.29,.14-.46,0-.15-.04-.3-.12-.43-.08-.13-.22-.2-.41-.2-.21,0-.38,.08-.5,.23-.12,.16-.18,.34-.18,.56Z" fill="#231f20"/><path d="M379.55,43.93v-4.62h1.27c.46,0,.82,.09,1.08,.27,.27,.18,.4,.49,.4,.92,0,.37-.11,.66-.33,.86s-.53,.33-.91,.37l1.32,2.2h-.27l-1.3-2.18h-1.04v2.18h-.22Zm.22-2.38h.97c.43,0,.76-.09,.99-.26,.23-.17,.34-.44,.34-.79s-.12-.62-.34-.77c-.23-.15-.56-.22-.99-.22h-.97v2.04Z" fill="#231f20"/><path d="M384.42,44.01c-.28,0-.54-.07-.77-.21-.23-.14-.42-.34-.55-.6s-.21-.57-.21-.94,.07-.68,.21-.94,.32-.47,.54-.61c.22-.14,.45-.21,.7-.21,.39,0,.69,.13,.92,.4,.23,.26,.34,.65,.34,1.14v.1s0,.08-.01,.12h-2.46c0,.3,.05,.56,.16,.8,.11,.23,.26,.42,.46,.55,.2,.14,.43,.2,.69,.2,.19,0,.36-.03,.51-.09,.15-.06,.29-.13,.41-.22l.1,.18c-.13,.07-.27,.15-.42,.22s-.36,.1-.61,.1Zm-1.3-1.95h2.27c0-.46-.1-.81-.29-1.03-.19-.23-.45-.34-.76-.34-.2,0-.39,.05-.57,.16-.18,.11-.32,.27-.44,.47-.12,.21-.19,.45-.21,.74Z" fill="#231f20"/><path d="M387.32,44.01c-.31,0-.52-.09-.62-.27s-.16-.41-.16-.7v-2.27h-.53v-.17l.53-.03,.03-.98h.18v.98h.99v.2h-.99v2.3c0,.21,.04,.39,.11,.53,.08,.14,.23,.21,.48,.21,.07,0,.14-.01,.22-.04,.08-.02,.15-.05,.21-.08l.07,.18c-.1,.03-.2,.06-.29,.09-.1,.03-.17,.04-.23,.04Z" fill="#231f20"/><path d="M389.53,44.01c-.34,0-.59-.1-.76-.31-.17-.21-.25-.53-.25-.96v-2.16h.21v2.13c0,.37,.06,.65,.19,.83,.13,.18,.33,.28,.62,.28,.21,0,.4-.06,.57-.18s.36-.3,.57-.55v-2.51h.21v3.35h-.18l-.03-.57h-.01c-.17,.2-.34,.35-.53,.48-.18,.12-.39,.18-.62,.18Z" fill="#231f20"/><path d="M392.25,43.93v-3.35h.18l.03,.63h.01c.11-.21,.25-.38,.41-.51s.34-.2,.54-.2c.06,0,.11,0,.16,.01,.05,0,.11,.03,.16,.06l-.06,.2c-.06-.02-.1-.04-.14-.05-.04,0-.09-.01-.15-.01-.15,0-.32,.07-.48,.2s-.32,.37-.46,.7v2.32h-.21Z" fill="#231f20"/><path d="M394.39,43.93v-3.35h.18l.03,.53h.01c.18-.18,.36-.32,.54-.44,.18-.12,.39-.18,.62-.18,.35,0,.6,.1,.76,.31,.16,.21,.25,.53,.25,.96v2.16h-.21v-2.13c0-.37-.06-.65-.19-.83s-.33-.27-.62-.27c-.21,0-.4,.06-.57,.17-.17,.11-.37,.28-.59,.5v2.56h-.21Z" fill="#231f20"/><path d="M398.86,44.01c-.25,0-.48-.05-.69-.14-.21-.09-.38-.2-.53-.33l.14-.17c.14,.12,.29,.22,.46,.3,.17,.09,.38,.13,.63,.13,.28,0,.49-.07,.64-.22,.14-.14,.22-.31,.22-.5,0-.15-.04-.27-.13-.37-.09-.1-.19-.18-.32-.25-.13-.07-.26-.12-.39-.17-.17-.06-.34-.13-.5-.2-.16-.07-.3-.17-.4-.29-.11-.12-.16-.27-.16-.46,0-.23,.09-.44,.27-.61,.18-.17,.44-.26,.78-.26,.17,0,.33,.03,.5,.09s.31,.14,.42,.24l-.13,.17c-.11-.08-.23-.16-.36-.22s-.28-.09-.46-.09c-.28,0-.49,.07-.62,.21-.13,.14-.2,.29-.2,.45,0,.14,.04,.25,.11,.33,.08,.09,.17,.16,.29,.22,.12,.06,.25,.11,.38,.16,.18,.07,.35,.14,.52,.21s.32,.17,.43,.29c.11,.12,.17,.3,.17,.51,0,.16-.04,.31-.13,.46-.08,.14-.21,.25-.37,.34-.16,.09-.36,.13-.59,.13Z" fill="#231f20"/></g><g><path d="M349.44,75.84c-.38,0-.71-.1-1-.3-.29-.2-.51-.48-.67-.84-.16-.36-.24-.78-.24-1.27s.08-.91,.24-1.26c.16-.36,.39-.63,.68-.83,.29-.19,.63-.29,1.03-.29,.27,0,.5,.06,.7,.17,.2,.11,.36,.24,.48,.38l-.14,.15c-.13-.15-.28-.27-.45-.36-.17-.09-.37-.13-.59-.13-.35,0-.66,.09-.91,.27-.25,.18-.45,.43-.59,.75-.14,.32-.21,.71-.21,1.15s.07,.83,.2,1.16c.13,.33,.33,.58,.58,.77s.55,.27,.9,.27c.25,0,.47-.05,.66-.15s.37-.25,.55-.44l.14,.14c-.17,.2-.37,.36-.58,.48-.21,.12-.47,.18-.78,.18Z" fill="#231f20"/><path d="M352.94,75.84c-.27,0-.51-.07-.74-.21-.23-.14-.41-.34-.54-.6-.13-.26-.2-.58-.2-.94s.07-.69,.2-.96c.14-.26,.32-.46,.54-.6,.23-.14,.47-.21,.74-.21s.51,.07,.74,.21c.22,.14,.4,.34,.54,.6s.21,.58,.21,.96-.07,.68-.21,.94c-.14,.26-.32,.46-.54,.6-.22,.14-.47,.21-.74,.21Zm0-.2c.24,0,.45-.07,.64-.2,.19-.13,.34-.31,.45-.55,.11-.23,.16-.5,.16-.81s-.05-.58-.16-.82c-.11-.24-.26-.42-.45-.55-.19-.13-.41-.2-.64-.2s-.45,.07-.64,.2c-.19,.13-.34,.32-.45,.55-.11,.24-.17,.51-.17,.82s.06,.58,.17,.81c.11,.23,.26,.42,.45,.55,.19,.13,.4,.2,.64,.2Z" fill="#231f20"/><path d="M355.47,75.75v-3.35h.18l.03,.53h.01c.18-.18,.36-.32,.54-.44,.18-.12,.39-.18,.62-.18,.35,0,.6,.1,.76,.31,.16,.21,.25,.53,.25,.96v2.16h-.21v-2.13c0-.37-.06-.65-.19-.83s-.33-.27-.62-.27c-.21,0-.4,.06-.57,.17-.17,.11-.37,.28-.59,.5v2.56h-.21Z" fill="#231f20"/><path d="M360.01,75.84c-.31,0-.52-.09-.62-.27s-.16-.41-.16-.7v-2.27h-.53v-.17l.53-.03,.03-.98h.18v.98h.99v.2h-.99v2.3c0,.21,.04,.39,.11,.53,.07,.14,.23,.21,.48,.21,.07,0,.14-.01,.22-.04s.15-.05,.21-.08l.07,.18c-.1,.03-.19,.06-.29,.09-.1,.03-.17,.04-.23,.04Z" fill="#231f20"/><path d="M361.83,75.84c-.17,0-.33-.03-.48-.09-.15-.06-.27-.16-.35-.29-.09-.13-.13-.3-.13-.51,0-.37,.18-.66,.53-.85s.91-.33,1.67-.42c0-.18-.01-.36-.05-.54-.04-.18-.12-.32-.24-.44s-.3-.17-.53-.17-.45,.05-.64,.14c-.19,.09-.34,.18-.45,.27l-.11-.17c.07-.05,.17-.11,.29-.18,.12-.07,.26-.13,.42-.18,.16-.05,.33-.08,.51-.08,.26,0,.47,.06,.62,.18s.25,.27,.32,.46,.09,.4,.09,.62v2.17h-.18l-.03-.45h-.01c-.17,.14-.36,.26-.57,.37-.21,.11-.42,.16-.65,.16Zm.01-.2c.21,0,.4-.05,.59-.15,.19-.1,.4-.24,.62-.43v-1.22c-.49,.06-.88,.13-1.17,.23-.29,.1-.49,.21-.62,.35-.13,.14-.19,.31-.19,.5,0,.26,.08,.44,.23,.55,.15,.11,.33,.16,.53,.16Z" fill="#231f20"/><path d="M365.72,75.84c-.29,0-.54-.07-.77-.21s-.41-.34-.54-.6c-.13-.26-.2-.58-.2-.94s.07-.69,.21-.96,.32-.46,.55-.6c.23-.14,.47-.21,.74-.21,.23,0,.43,.04,.58,.13,.15,.09,.29,.18,.4,.29l-.14,.15c-.11-.11-.24-.2-.37-.27s-.29-.11-.47-.11c-.24,0-.45,.07-.64,.2-.19,.13-.34,.32-.46,.55s-.17,.51-.17,.82,.05,.58,.16,.81c.11,.23,.25,.42,.45,.55,.19,.13,.42,.2,.67,.2,.19,0,.37-.04,.52-.12,.16-.08,.3-.17,.41-.29l.13,.15c-.14,.13-.3,.23-.47,.32-.17,.09-.37,.13-.59,.13Z" fill="#231f20"/><path d="M368.42,75.84c-.31,0-.52-.09-.62-.27s-.16-.41-.16-.7v-2.27h-.53v-.17l.53-.03,.03-.98h.18v.98h.99v.2h-.99v2.3c0,.21,.04,.39,.11,.53,.07,.14,.23,.21,.48,.21,.07,0,.14-.01,.22-.04s.15-.05,.21-.08l.07,.18c-.1,.03-.19,.06-.29,.09-.1,.03-.17,.04-.23,.04Z" fill="#231f20"/><path d="M372.61,75.84c-.19,0-.37-.03-.55-.08s-.34-.15-.49-.28c-.14-.13-.26-.32-.35-.55-.09-.24-.13-.53-.13-.89v-2.9h.22v2.84c0,.42,.06,.76,.18,1,.12,.24,.28,.41,.48,.51s.41,.15,.63,.15,.44-.05,.64-.15c.2-.1,.36-.27,.49-.51,.12-.24,.19-.57,.19-1v-2.84h.21v2.9c0,.35-.04,.65-.13,.89-.09,.24-.21,.42-.35,.55-.15,.13-.31,.23-.49,.28s-.36,.08-.55,.08Z" fill="#231f20"/><path d="M376.28,75.84c-.25,0-.48-.05-.69-.14-.21-.09-.38-.2-.53-.33l.14-.17c.14,.12,.29,.22,.46,.3,.17,.09,.38,.13,.63,.13,.28,0,.49-.07,.64-.22,.14-.14,.22-.31,.22-.5,0-.15-.04-.27-.13-.37-.09-.1-.19-.18-.32-.25-.13-.07-.26-.12-.39-.17-.17-.06-.34-.13-.5-.2-.16-.07-.3-.17-.4-.29-.11-.12-.16-.27-.16-.46,0-.23,.09-.44,.27-.61,.18-.17,.44-.26,.78-.26,.17,0,.33,.03,.5,.09s.31,.14,.42,.24l-.13,.17c-.11-.08-.23-.16-.36-.22s-.28-.09-.46-.09c-.28,0-.49,.07-.62,.21-.13,.14-.2,.29-.2,.45,0,.14,.04,.25,.11,.33,.08,.09,.17,.16,.29,.22,.12,.06,.25,.11,.38,.16,.18,.07,.35,.14,.52,.21s.32,.17,.43,.29c.11,.12,.17,.3,.17,.51,0,.16-.04,.31-.13,.46-.08,.14-.21,.25-.37,.34-.16,.09-.36,.13-.59,.13Z" fill="#231f20"/></g><rect x="168.47" y="92.26" width="19.88" height="63.58" transform="translate(302.45 -54.36) rotate(90)" fill="#1e1e1e"/><g><path d="M165.84,126.22c-.32,0-.62-.06-.9-.19-.28-.12-.51-.29-.71-.49l.35-.41c.16,.17,.36,.31,.58,.42,.22,.11,.45,.16,.69,.16,.3,0,.54-.07,.71-.21s.25-.32,.25-.54c0-.16-.03-.29-.1-.38-.07-.09-.16-.17-.27-.24-.11-.07-.24-.13-.39-.2l-.66-.29c-.15-.06-.29-.14-.43-.24-.14-.1-.26-.22-.36-.38-.1-.15-.14-.34-.14-.57s.06-.44,.19-.63c.12-.18,.29-.33,.51-.43,.22-.11,.47-.16,.74-.16s.53,.05,.76,.16c.23,.1,.43,.24,.59,.41l-.31,.38c-.14-.13-.29-.24-.47-.32s-.36-.12-.58-.12c-.26,0-.46,.06-.62,.18s-.23,.29-.23,.49c0,.14,.04,.26,.12,.36,.08,.1,.17,.17,.29,.23,.12,.06,.24,.12,.36,.17l.65,.28c.18,.07,.34,.16,.48,.27,.14,.1,.26,.23,.34,.38,.08,.15,.13,.34,.13,.57,0,.24-.06,.46-.19,.66s-.31,.36-.54,.47c-.23,.12-.51,.17-.83,.17Z" fill="#fff"/><path d="M168.25,126.13v-4.98h.57v1.36l-.02,.7c.16-.15,.33-.29,.51-.4,.18-.11,.39-.17,.62-.17,.36,0,.62,.11,.79,.34s.25,.56,.25,.99v2.16h-.57v-2.08c0-.32-.05-.55-.15-.69s-.27-.22-.49-.22c-.17,0-.33,.04-.47,.13s-.29,.22-.47,.39v2.46h-.57Z" fill="#fff"/><path d="M173.38,126.22c-.28,0-.53-.07-.77-.21-.24-.14-.43-.34-.58-.61s-.22-.59-.22-.96,.07-.71,.22-.97c.15-.27,.34-.47,.58-.61s.5-.21,.77-.21,.54,.07,.78,.21c.24,.14,.43,.34,.58,.61,.15,.27,.22,.59,.22,.97s-.07,.69-.22,.96-.34,.47-.58,.61c-.24,.14-.5,.21-.78,.21Zm0-.48c.29,0,.53-.12,.71-.36s.27-.55,.27-.94-.09-.71-.27-.95c-.18-.24-.42-.36-.71-.36s-.52,.12-.71,.36c-.18,.24-.27,.56-.27,.95s.09,.7,.27,.94,.42,.36,.71,.36Z" fill="#fff"/><path d="M175.85,127.57v-4.84h.48l.05,.39h.02c.15-.13,.32-.24,.51-.34,.18-.09,.38-.14,.58-.14,.44,0,.77,.16,1,.47,.23,.31,.34,.74,.34,1.26,0,.38-.07,.71-.21,.99-.14,.28-.32,.49-.54,.63-.22,.14-.46,.22-.72,.22-.16,0-.32-.04-.47-.11-.16-.07-.31-.17-.47-.29v1.74h-.56Zm1.41-1.83c.28,0,.51-.12,.7-.36,.18-.24,.28-.57,.28-.99,0-.37-.07-.68-.21-.91-.14-.23-.37-.35-.69-.35-.15,0-.29,.04-.44,.12-.15,.08-.3,.19-.47,.34v1.79c.15,.13,.3,.22,.45,.28,.14,.05,.27,.08,.38,.08Z" fill="#fff"/><path d="M182.93,126.22c-.38,0-.72-.09-1.03-.28-.3-.19-.54-.46-.71-.82-.17-.35-.26-.78-.26-1.28s.09-.92,.27-1.27,.42-.63,.73-.82c.31-.19,.66-.29,1.04-.29,.28,0,.53,.06,.74,.17,.21,.11,.39,.25,.52,.4l-.31,.38c-.12-.13-.26-.24-.41-.31-.15-.08-.33-.12-.52-.12-.29,0-.54,.08-.76,.23-.22,.15-.38,.37-.5,.64s-.18,.6-.18,.99,.06,.72,.18,1,.28,.5,.49,.65,.46,.23,.75,.23c.22,0,.42-.05,.59-.14,.17-.09,.33-.22,.48-.38l.32,.36c-.18,.21-.39,.37-.62,.49-.23,.12-.49,.17-.79,.17Z" fill="#fff"/><path d="M185.92,126.22c-.28,0-.52-.08-.71-.26-.19-.17-.28-.41-.28-.71,0-.37,.17-.66,.5-.86,.33-.2,.86-.34,1.59-.42,0-.14-.02-.28-.06-.41-.04-.13-.11-.24-.21-.32-.1-.08-.24-.12-.43-.12-.2,0-.38,.04-.55,.11-.17,.08-.33,.16-.46,.25l-.22-.4c.16-.1,.35-.2,.58-.3,.23-.1,.48-.14,.75-.14,.42,0,.72,.13,.9,.38,.19,.25,.28,.59,.28,1.02v2.09h-.48l-.05-.41h-.02c-.16,.13-.33,.25-.52,.34-.19,.1-.39,.15-.61,.15Zm.17-.46c.16,0,.32-.04,.46-.12,.15-.08,.3-.19,.46-.34v-.95c-.56,.07-.96,.17-1.19,.32-.23,.14-.34,.32-.34,.54,0,.19,.06,.33,.18,.42,.12,.09,.26,.13,.43,.13Z" fill="#fff"/><path d="M188.66,126.13v-3.4h.48l.05,.62h.02c.12-.21,.26-.38,.43-.51s.35-.19,.54-.19c.14,0,.26,.02,.36,.07l-.11,.5c-.06-.02-.11-.03-.15-.04-.05,0-.1-.01-.18-.01-.14,0-.29,.06-.45,.17-.16,.12-.29,.32-.41,.61v2.18h-.57Z" fill="#fff"/><path d="M192.16,126.22c-.36,0-.62-.11-.76-.32-.14-.21-.21-.48-.21-.82v-1.88h-.5v-.43l.53-.04,.07-.95h.48v.95h.92v.47h-.92v1.89c0,.21,.04,.37,.12,.49,.08,.11,.21,.17,.41,.17,.06,0,.13-.01,.2-.03,.07-.02,.13-.04,.19-.06l.11,.43c-.09,.03-.19,.06-.3,.09-.11,.03-.22,.04-.33,.04Z" fill="#fff"/></g><rect x="21.85" y="92.26" width="19.88" height="63.58" transform="translate(155.83 92.26) rotate(90)" fill="#1e1e1e"/><g><path d="M19.96,126.13l1.55-4.59h.66l1.55,4.59h-.62l-.43-1.4h-1.67l-.44,1.4h-.6Zm1.4-2.57l-.22,.7h1.38l-.22-.7c-.08-.26-.16-.51-.24-.77-.07-.25-.15-.51-.22-.78h-.03c-.07,.27-.14,.53-.22,.78-.07,.25-.15,.51-.24,.77Z" fill="#fff"/><path d="M25.67,126.22c-.3,0-.57-.07-.81-.21-.24-.14-.43-.34-.57-.61-.14-.27-.21-.59-.21-.96s.08-.71,.23-.97c.15-.27,.35-.47,.6-.61s.52-.21,.81-.21c.22,0,.42,.04,.58,.12s.3,.17,.42,.28l-.29,.38c-.1-.09-.2-.16-.31-.22-.11-.06-.23-.08-.37-.08-.21,0-.39,.05-.55,.16-.16,.11-.29,.26-.38,.46-.09,.2-.14,.43-.14,.69,0,.39,.1,.7,.29,.94,.19,.24,.45,.36,.76,.36,.16,0,.31-.03,.44-.1,.14-.07,.25-.15,.36-.24l.25,.38c-.15,.14-.32,.24-.51,.32-.19,.08-.38,.12-.59,.12Z" fill="#fff"/><path d="M28.71,126.22c-.3,0-.57-.07-.81-.21-.24-.14-.43-.34-.57-.61-.14-.27-.21-.59-.21-.96s.08-.71,.23-.97c.15-.27,.35-.47,.6-.61s.52-.21,.81-.21c.22,0,.42,.04,.58,.12s.3,.17,.42,.28l-.29,.38c-.1-.09-.2-.16-.31-.22-.11-.06-.23-.08-.37-.08-.21,0-.39,.05-.55,.16-.16,.11-.29,.26-.38,.46-.09,.2-.14,.43-.14,.69,0,.39,.1,.7,.29,.94,.19,.24,.45,.36,.76,.36,.16,0,.31-.03,.44-.1,.14-.07,.25-.15,.36-.24l.25,.38c-.15,.14-.32,.24-.51,.32-.19,.08-.38,.12-.59,.12Z" fill="#fff"/><path d="M31.74,126.22c-.28,0-.53-.07-.77-.21-.24-.14-.43-.34-.58-.61s-.22-.59-.22-.96,.07-.71,.22-.97c.15-.27,.34-.47,.58-.61s.5-.21,.77-.21,.54,.07,.78,.21c.24,.14,.43,.34,.58,.61,.15,.27,.22,.59,.22,.97s-.07,.69-.22,.96-.34,.47-.58,.61c-.24,.14-.5,.21-.78,.21Zm0-.48c.29,0,.53-.12,.71-.36s.27-.55,.27-.94-.09-.71-.27-.95c-.18-.24-.42-.36-.71-.36s-.52,.12-.71,.36c-.18,.24-.27,.56-.27,.95s.09,.7,.27,.94,.42,.36,.71,.36Z" fill="#fff"/><path d="M35.2,126.22c-.36,0-.62-.11-.79-.34s-.25-.56-.25-.99v-2.16h.58v2.08c0,.32,.05,.55,.15,.69,.1,.14,.26,.22,.49,.22,.18,0,.33-.05,.47-.14s.29-.24,.44-.44v-2.42h.57v3.4h-.48l-.05-.53h-.02c-.16,.19-.33,.34-.5,.45-.18,.11-.38,.17-.62,.17Z" fill="#fff"/><path d="M38.02,126.13v-3.4h.48l.05,.49h.02c.16-.16,.34-.3,.52-.41,.18-.11,.39-.17,.62-.17,.36,0,.62,.11,.79,.34s.25,.56,.25,.99v2.16h-.57v-2.08c0-.32-.05-.55-.15-.69s-.27-.22-.49-.22c-.17,0-.33,.04-.47,.13s-.29,.22-.47,.39v2.46h-.57Z" fill="#fff"/><path d="M42.92,126.22c-.36,0-.62-.11-.76-.32-.14-.21-.21-.48-.21-.82v-1.88h-.5v-.43l.53-.04,.07-.95h.48v.95h.92v.47h-.92v1.89c0,.21,.04,.37,.12,.49,.08,.11,.21,.17,.41,.17,.06,0,.13-.01,.2-.03,.07-.02,.13-.04,.19-.06l.11,.43c-.09,.03-.19,.06-.3,.09-.11,.03-.22,.04-.33,.04Z" fill="#fff"/></g><g><line x1="178.41" y1="19.88" x2="178.41" y2="20.13" fill="none" stroke="#6d6d6d" stroke-miterlimit="10" stroke-width=".5"/><line x1="178.41" y1="22.11" x2="178.41" y2="112.87" fill="none" stroke="#6d6d6d" stroke-dasharray="0 0 .5 1.98" stroke-miterlimit="10" stroke-width=".5"/><line x1="178.41" y1="113.86" x2="178.41" y2="114.11" fill="none" stroke="#6d6d6d" stroke-miterlimit="10" stroke-width=".5"/></g><g><line x1="31.79" y1="114.11" x2="31.79" y2="113.86" fill="none" stroke="#6d6d6d" stroke-miterlimit="10" stroke-width=".5"/><line x1="31.79" y1="111.71" x2="31.79" y2="99.36" fill="none" stroke="#6d6d6d" stroke-dasharray="0 0 .54 2.15" stroke-miterlimit="10" stroke-width=".5"/><polyline points="31.79 98.29 31.79 98.04 32.04 98.04" fill="none" stroke="#6d6d6d" stroke-miterlimit="10" stroke-width=".5"/><line x1="34.04" y1="98.04" x2="323.78" y2="98.04" fill="none" stroke="#6d6d6d" stroke-dasharray="0 0 .5 2.01" stroke-miterlimit="10" stroke-width=".5"/><polyline points="324.78 98.04 325.03 98.04 325.03 98.29" fill="none" stroke="#6d6d6d" stroke-miterlimit="10" stroke-width=".5"/><line x1="325.03" y1="100.44" x2="325.03" y2="112.78" fill="none" stroke="#6d6d6d" stroke-dasharray="0 0 .54 2.15" stroke-miterlimit="10" stroke-width=".5"/><line x1="325.03" y1="113.86" x2="325.03" y2="114.11" fill="none" stroke="#6d6d6d" stroke-miterlimit="10" stroke-width=".5"/></g><g><line x1="210.2" y1="9.94" x2="210.45" y2="9.94" fill="none" stroke="#6d6d6d" stroke-miterlimit="10" stroke-width=".5"/><line x1="212.43" y1="9.94" x2="340.59" y2="9.94" fill="none" stroke="#6d6d6d" stroke-dasharray="0 0 .5 1.99" stroke-miterlimit="10" stroke-width=".5"/><line x1="341.58" y1="9.94" x2="341.83" y2="9.94" fill="none" stroke="#6d6d6d" stroke-miterlimit="10" stroke-width=".5"/></g><g><line x1="341.83" y1="41.77" x2="341.58" y2="41.77" fill="none" stroke="#6d6d6d" stroke-miterlimit="10" stroke-width=".5"/><line x1="339.66" y1="41.77" x2="326.24" y2="41.77" fill="none" stroke="#6d6d6d" stroke-dasharray="0 0 .48 1.92" stroke-miterlimit="10" stroke-width=".5"/><line x1="325.28" y1="41.77" x2="325.03" y2="41.77" fill="none" stroke="#6d6d6d" stroke-miterlimit="10" stroke-width=".5"/></g><g><line x1="341.83" y1="73.6" x2="341.58" y2="73.6" fill="none" stroke="#6d6d6d" stroke-miterlimit="10" stroke-width=".5"/><line x1="339.66" y1="73.6" x2="326.24" y2="73.6" fill="none" stroke="#6d6d6d" stroke-dasharray="0 0 .48 1.92" stroke-miterlimit="10" stroke-width=".5"/><polyline points="325.28 73.6 325.03 73.6 325.03 73.35" fill="none" stroke="#6d6d6d" stroke-miterlimit="10" stroke-width=".5"/><line x1="325.03" y1="71.31" x2="325.03" y2="11.21" fill="none" stroke="#6d6d6d" stroke-dasharray="0 0 .51 2.04" stroke-miterlimit="10" stroke-width=".5"/><line x1="325.03" y1="10.19" x2="325.03" y2="9.94" fill="none" stroke="#6d6d6d" stroke-miterlimit="10" stroke-width=".5"/></g><g><line x1="337.87" y1="283.19" x2="337.62" y2="283.19" fill="none" stroke="#6d6d6d" stroke-miterlimit="10" stroke-width=".5"/><line x1="335.7" y1="283.19" x2="322.28" y2="283.19" fill="none" stroke="#6d6d6d" stroke-dasharray="0 0 .48 1.92" stroke-miterlimit="10" stroke-width=".5"/><polyline points="321.32 283.19 321.07 283.19 321.07 282.94" fill="none" stroke="#6d6d6d" stroke-miterlimit="10" stroke-width=".5"/><line x1="321.07" y1="280.95" x2="321.07" y2="135.23" fill="none" stroke="#6d6d6d" stroke-dasharray="0 0 .5 1.99" stroke-miterlimit="10" stroke-width=".5"/><line x1="321.07" y1="134.23" x2="321.07" y2="133.98" fill="none" stroke="#6d6d6d" stroke-miterlimit="10" stroke-width=".5"/></g><g><line x1="48.59" y1="187.7" x2="48.34" y2="187.7" fill="none" stroke="#6d6d6d" stroke-miterlimit="10" stroke-width=".5"/><line x1="46.42" y1="187.7" x2="33" y2="187.7" fill="none" stroke="#6d6d6d" stroke-dasharray="0 0 .48 1.92" stroke-miterlimit="10" stroke-width=".5"/><polyline points="32.04 187.7 31.79 187.7 31.79 187.45" fill="none" stroke="#6d6d6d" stroke-miterlimit="10" stroke-width=".5"/><line x1="31.79" y1="185.41" x2="31.79" y2="135.26" fill="none" stroke="#6d6d6d" stroke-dasharray="0 0 .51 2.05" stroke-miterlimit="10" stroke-width=".5"/><line x1="31.79" y1="134.23" x2="31.79" y2="133.98" fill="none" stroke="#6d6d6d" stroke-miterlimit="10" stroke-width=".5"/></g><g><line x1="193.23" y1="155.88" x2="192.98" y2="155.88" fill="none" stroke="#6d6d6d" stroke-miterlimit="10" stroke-width=".5"/><line x1="191.06" y1="155.88" x2="177.64" y2="155.88" fill="none" stroke="#6d6d6d" stroke-dasharray="0 0 .48 1.92" stroke-miterlimit="10" stroke-width=".5"/><polyline points="176.68 155.88 176.43 155.88 176.43 155.63" fill="none" stroke="#6d6d6d" stroke-miterlimit="10" stroke-width=".5"/><line x1="176.43" y1="153.68" x2="176.43" y2="135.21" fill="none" stroke="#6d6d6d" stroke-dasharray="0 0 .49 1.94" stroke-miterlimit="10" stroke-width=".5"/><line x1="176.43" y1="134.23" x2="176.43" y2="133.98" fill="none" stroke="#6d6d6d" stroke-miterlimit="10" stroke-width=".5"/></g><g><path d="M201.7,158.12c-.38,0-.71-.1-1-.3-.29-.2-.51-.48-.67-.84-.16-.36-.24-.78-.24-1.27s.08-.91,.24-1.26c.16-.36,.39-.63,.68-.83,.29-.19,.63-.29,1.03-.29,.27,0,.5,.06,.7,.17,.2,.11,.36,.24,.48,.38l-.14,.15c-.13-.15-.28-.27-.45-.36-.17-.09-.37-.13-.59-.13-.35,0-.66,.09-.91,.27s-.45,.43-.59,.75c-.14,.32-.21,.71-.21,1.15s.07,.83,.2,1.16,.33,.58,.58,.77,.55,.27,.9,.27c.25,0,.47-.05,.66-.15s.37-.25,.55-.44l.14,.14c-.17,.2-.37,.36-.58,.48-.21,.12-.47,.18-.78,.18Z" fill="#231f20"/><path d="M204.01,158.03v-5.05h.21v2.25c.18-.18,.37-.33,.55-.45s.39-.18,.62-.18c.35,0,.6,.1,.76,.31,.16,.21,.25,.53,.25,.96v2.16h-.21v-2.13c0-.37-.06-.65-.19-.83s-.33-.27-.62-.27c-.21,0-.4,.06-.57,.17-.17,.11-.37,.28-.59,.5v2.56h-.21Z" fill="#231f20"/><path d="M208.9,158.12c-.28,0-.54-.07-.77-.21s-.42-.34-.55-.6-.21-.57-.21-.94,.07-.68,.21-.94,.32-.47,.54-.61c.22-.14,.45-.21,.7-.21,.39,0,.69,.13,.92,.4,.23,.26,.34,.65,.34,1.14v.1s0,.08-.01,.12h-2.46c0,.3,.05,.56,.16,.8,.11,.23,.26,.42,.46,.55,.2,.14,.43,.2,.69,.2,.19,0,.36-.03,.51-.09,.15-.06,.29-.13,.41-.22l.1,.18c-.13,.07-.27,.15-.42,.22-.16,.07-.36,.1-.61,.1Zm-1.3-1.95h2.27c0-.46-.1-.81-.29-1.03-.19-.23-.45-.34-.76-.34-.2,0-.39,.05-.57,.16-.18,.11-.32,.27-.44,.47-.12,.21-.19,.45-.21,.74Z" fill="#231f20"/><path d="M212.21,158.12c-.28,0-.54-.07-.77-.21-.23-.14-.4-.34-.54-.6-.13-.26-.2-.58-.2-.94s.07-.69,.21-.96c.14-.26,.32-.46,.55-.6,.23-.14,.47-.21,.74-.21,.23,0,.43,.04,.58,.13s.29,.18,.4,.29l-.14,.15c-.11-.11-.24-.2-.37-.27-.14-.07-.29-.11-.47-.11-.24,0-.45,.07-.64,.2-.19,.13-.34,.32-.46,.55s-.17,.51-.17,.82,.05,.58,.16,.81,.25,.42,.44,.55c.19,.13,.42,.2,.67,.2,.19,0,.37-.04,.52-.12,.16-.08,.3-.17,.41-.29l.13,.15c-.14,.13-.3,.23-.47,.32-.17,.09-.37,.13-.59,.13Z" fill="#231f20"/><path d="M214.13,158.03v-5.05h.21v3.84h.01l1.74-2.13h.25l-1.08,1.32,1.27,2.03h-.24l-1.16-1.86-.8,.94v.92h-.21Z" fill="#231f20"/><path d="M218.42,158.12c-.27,0-.51-.07-.74-.21-.23-.14-.41-.34-.54-.6-.14-.26-.2-.58-.2-.94s.07-.69,.2-.96,.32-.46,.54-.6c.23-.14,.47-.21,.74-.21s.51,.07,.74,.21c.22,.14,.4,.34,.54,.6,.14,.26,.21,.58,.21,.96s-.07,.68-.21,.94c-.14,.26-.32,.46-.54,.6-.22,.14-.47,.21-.74,.21Zm0-.2c.24,0,.45-.07,.64-.2,.19-.13,.34-.31,.45-.55,.11-.23,.16-.5,.16-.81s-.06-.58-.16-.82c-.11-.24-.26-.42-.45-.55-.19-.13-.41-.2-.64-.2s-.45,.07-.64,.2c-.19,.13-.34,.32-.45,.55s-.17,.51-.17,.82,.06,.58,.17,.81,.26,.42,.45,.55c.19,.13,.4,.2,.64,.2Z" fill="#231f20"/><path d="M221.9,158.12c-.34,0-.59-.1-.76-.31-.17-.21-.25-.53-.25-.96v-2.16h.21v2.13c0,.37,.06,.65,.19,.83,.13,.18,.33,.28,.62,.28,.21,0,.4-.06,.57-.18s.36-.3,.57-.55v-2.51h.21v3.35h-.18l-.03-.57h-.01c-.17,.2-.34,.35-.52,.48-.18,.12-.39,.18-.62,.18Z" fill="#231f20"/><path d="M225.47,158.12c-.31,0-.52-.09-.62-.27s-.16-.41-.16-.7v-2.27h-.53v-.17l.53-.03,.03-.98h.18v.98h.99v.2h-.99v2.3c0,.21,.04,.39,.11,.53,.07,.14,.23,.21,.48,.21,.07,0,.14-.01,.22-.04,.08-.02,.15-.05,.21-.08l.07,.18c-.1,.03-.19,.06-.29,.09-.1,.03-.17,.04-.23,.04Z" fill="#231f20"/><path d="M228.16,158.03v-4.62h1.11c.53,0,.93,.09,1.22,.28,.29,.19,.43,.51,.43,.98s-.14,.77-.42,.99c-.28,.22-.68,.33-1.2,.33h-.91v2.04h-.22Zm.22-2.24h.83c.5,0,.87-.09,1.11-.26,.24-.18,.36-.46,.36-.86s-.12-.69-.37-.84c-.25-.15-.62-.23-1.13-.23h-.8v2.18Z" fill="#231f20"/><path d="M231.93,158.03v-3.35h.18l.03,.63h.01c.11-.21,.25-.38,.41-.51,.16-.14,.34-.2,.54-.2,.06,0,.11,0,.16,.01s.1,.03,.16,.06l-.06,.2c-.06-.02-.1-.04-.14-.05-.04,0-.09-.01-.15-.01-.15,0-.31,.07-.48,.2s-.32,.37-.46,.7v2.32h-.21Z" fill="#231f20"/><path d="M235.19,158.12c-.27,0-.51-.07-.74-.21-.23-.14-.41-.34-.54-.6-.14-.26-.2-.58-.2-.94s.07-.69,.2-.96,.32-.46,.54-.6c.23-.14,.47-.21,.74-.21s.51,.07,.74,.21c.22,.14,.4,.34,.54,.6,.14,.26,.21,.58,.21,.96s-.07,.68-.21,.94c-.14,.26-.32,.46-.54,.6-.22,.14-.47,.21-.74,.21Zm0-.2c.24,0,.45-.07,.64-.2,.19-.13,.34-.31,.45-.55,.11-.23,.16-.5,.16-.81s-.06-.58-.16-.82c-.11-.24-.26-.42-.45-.55-.19-.13-.41-.2-.64-.2s-.45,.07-.64,.2c-.19,.13-.34,.32-.45,.55s-.17,.51-.17,.82,.06,.58,.17,.81,.26,.42,.45,.55c.19,.13,.4,.2,.64,.2Z" fill="#231f20"/><path d="M238.93,158.12c-.28,0-.54-.07-.77-.21-.23-.14-.4-.34-.54-.6-.13-.26-.2-.58-.2-.94s.07-.69,.21-.96c.14-.26,.32-.46,.55-.6,.23-.14,.47-.21,.74-.21,.23,0,.43,.04,.58,.13s.29,.18,.4,.29l-.14,.15c-.11-.11-.24-.2-.37-.27-.14-.07-.29-.11-.47-.11-.24,0-.45,.07-.64,.2-.19,.13-.34,.32-.46,.55s-.17,.51-.17,.82,.05,.58,.16,.81,.25,.42,.44,.55c.19,.13,.42,.2,.67,.2,.19,0,.37-.04,.52-.12,.16-.08,.3-.17,.41-.29l.13,.15c-.14,.13-.3,.23-.47,.32-.17,.09-.37,.13-.59,.13Z" fill="#231f20"/><path d="M241.96,158.12c-.28,0-.54-.07-.77-.21s-.42-.34-.55-.6-.21-.57-.21-.94,.07-.68,.21-.94,.32-.47,.54-.61c.22-.14,.45-.21,.7-.21,.39,0,.69,.13,.92,.4,.23,.26,.34,.65,.34,1.14v.1s0,.08-.01,.12h-2.46c0,.3,.05,.56,.16,.8,.11,.23,.26,.42,.46,.55,.2,.14,.43,.2,.69,.2,.19,0,.36-.03,.51-.09,.15-.06,.29-.13,.41-.22l.1,.18c-.13,.07-.27,.15-.42,.22-.16,.07-.36,.1-.61,.1Zm-1.3-1.95h2.27c0-.46-.1-.81-.29-1.03-.19-.23-.45-.34-.76-.34-.2,0-.39,.05-.57,.16-.18,.11-.32,.27-.44,.47-.12,.21-.19,.45-.21,.74Z" fill="#231f20"/><path d="M244.86,158.12c-.25,0-.48-.05-.69-.14-.21-.09-.38-.2-.53-.33l.14-.17c.14,.12,.29,.22,.46,.3,.17,.09,.38,.13,.63,.13,.28,0,.49-.07,.64-.22,.14-.14,.22-.31,.22-.5,0-.15-.04-.27-.13-.37-.09-.1-.19-.18-.32-.25s-.26-.12-.39-.17c-.17-.06-.34-.13-.5-.2-.16-.07-.3-.17-.4-.29s-.16-.27-.16-.46c0-.23,.09-.44,.27-.61,.18-.17,.44-.26,.78-.26,.17,0,.33,.03,.5,.09,.17,.06,.31,.14,.42,.24l-.13,.17c-.11-.08-.23-.16-.36-.22s-.28-.09-.46-.09c-.28,0-.49,.07-.62,.21-.13,.14-.2,.29-.2,.45,0,.14,.04,.25,.11,.33,.07,.09,.17,.16,.29,.22,.12,.06,.25,.11,.38,.16,.18,.07,.35,.14,.52,.21,.17,.07,.31,.17,.43,.29,.11,.12,.17,.3,.17,.51,0,.16-.04,.31-.13,.46-.08,.14-.21,.25-.37,.34-.16,.09-.36,.13-.59,.13Z" fill="#231f20"/><path d="M247.66,158.12c-.25,0-.48-.05-.69-.14-.21-.09-.38-.2-.53-.33l.14-.17c.14,.12,.29,.22,.46,.3,.17,.09,.38,.13,.63,.13,.28,0,.49-.07,.64-.22,.14-.14,.22-.31,.22-.5,0-.15-.04-.27-.13-.37-.09-.1-.19-.18-.32-.25s-.26-.12-.39-.17c-.17-.06-.34-.13-.5-.2-.16-.07-.3-.17-.4-.29s-.16-.27-.16-.46c0-.23,.09-.44,.27-.61,.18-.17,.44-.26,.78-.26,.17,0,.33,.03,.5,.09,.17,.06,.31,.14,.42,.24l-.13,.17c-.11-.08-.23-.16-.36-.22s-.28-.09-.46-.09c-.28,0-.49,.07-.62,.21-.13,.14-.2,.29-.2,.45,0,.14,.04,.25,.11,.33,.07,.09,.17,.16,.29,.22,.12,.06,.25,.11,.38,.16,.18,.07,.35,.14,.52,.21,.17,.07,.31,.17,.43,.29,.11,.12,.17,.3,.17,.51,0,.16-.04,.31-.13,.46-.08,.14-.21,.25-.37,.34-.16,.09-.36,.13-.59,.13Z" fill="#231f20"/></g><g><path d="M344.75,158.03v-4.62h1.2c.46,0,.83,.09,1.1,.28,.27,.18,.4,.47,.4,.84,0,.24-.06,.45-.19,.63-.12,.18-.3,.3-.54,.37v.03c.31,.05,.56,.16,.74,.35s.28,.44,.28,.77c0,.44-.15,.77-.46,1-.31,.23-.72,.34-1.25,.34h-1.29Zm.22-2.56h.84c.5,0,.87-.08,1.08-.25,.22-.17,.33-.39,.33-.68,0-.35-.12-.59-.35-.73-.23-.14-.57-.21-1.02-.21h-.88v1.86Zm0,2.37h.98c.49,0,.87-.09,1.15-.27,.28-.18,.42-.47,.42-.86,0-.35-.14-.61-.41-.78-.27-.17-.66-.26-1.16-.26h-.98v2.17Z" fill="#231f20"/><path d="M348.74,158.03v-3.35h.18l.03,.63h.01c.11-.21,.25-.38,.41-.51,.16-.14,.34-.2,.54-.2,.06,0,.11,0,.16,.01,.05,0,.1,.03,.16,.06l-.06,.2c-.06-.02-.1-.04-.14-.05s-.09-.01-.15-.01c-.15,0-.31,.07-.48,.2s-.32,.37-.46,.7v2.32h-.21Z" fill="#231f20"/><path d="M351.45,158.12c-.17,0-.33-.03-.48-.09-.15-.06-.26-.16-.35-.29-.09-.13-.13-.3-.13-.51,0-.37,.18-.66,.53-.85,.35-.19,.91-.33,1.67-.42,0-.18-.01-.36-.05-.54-.04-.18-.12-.32-.24-.44-.12-.11-.3-.17-.53-.17s-.45,.05-.64,.14c-.19,.09-.34,.18-.45,.27l-.11-.17c.07-.05,.17-.11,.29-.18,.12-.07,.26-.13,.42-.18,.16-.05,.33-.08,.51-.08,.26,0,.47,.06,.62,.18s.25,.27,.31,.46,.09,.4,.09,.62v2.17h-.18l-.03-.45h-.01c-.17,.14-.36,.26-.57,.37-.21,.11-.42,.16-.65,.16Zm.01-.2c.21,0,.4-.05,.6-.15,.19-.1,.4-.24,.62-.43v-1.22c-.49,.06-.88,.13-1.17,.23s-.49,.21-.62,.35c-.13,.14-.19,.31-.19,.5,0,.26,.08,.44,.23,.55,.15,.11,.33,.16,.53,.16Z" fill="#231f20"/><path d="M354.14,158.03v-3.35h.18l.03,.53h.01c.18-.18,.36-.32,.54-.44s.39-.18,.62-.18c.34,0,.6,.1,.76,.31,.16,.21,.25,.53,.25,.96v2.16h-.21v-2.13c0-.37-.06-.65-.19-.83s-.33-.27-.62-.27c-.21,0-.4,.06-.57,.17-.17,.11-.37,.28-.59,.5v2.56h-.21Z" fill="#231f20"/><path d="M358.92,158.12c-.42,0-.76-.15-1.01-.45-.25-.3-.38-.73-.38-1.3,0-.36,.07-.67,.21-.93s.32-.47,.55-.61c.23-.14,.48-.22,.75-.22,.21,0,.39,.04,.54,.11s.32,.18,.49,.31v-2.04h.2v5.05h-.18l-.03-.45h-.01c-.14,.14-.3,.26-.49,.37-.19,.11-.4,.16-.63,.16Zm.01-.2c.2,0,.39-.05,.57-.15,.18-.1,.37-.25,.55-.43v-2.07c-.19-.17-.36-.29-.52-.36-.16-.07-.33-.1-.51-.1-.24,0-.45,.07-.64,.21-.19,.14-.34,.33-.45,.57-.11,.24-.17,.5-.17,.79,0,.46,.1,.84,.3,1.12s.49,.43,.87,.43Z" fill="#231f20"/><path d="M362.39,158.12c-.25,0-.48-.05-.69-.14-.21-.09-.38-.2-.53-.33l.14-.17c.14,.12,.29,.22,.46,.3,.17,.09,.38,.13,.63,.13,.28,0,.49-.07,.64-.22,.14-.14,.22-.31,.22-.5,0-.15-.04-.27-.13-.37-.09-.1-.19-.18-.32-.25-.13-.07-.26-.12-.39-.17-.17-.06-.34-.13-.5-.2-.16-.07-.3-.17-.4-.29-.11-.12-.16-.27-.16-.46,0-.23,.09-.44,.27-.61,.18-.17,.44-.26,.78-.26,.17,0,.33,.03,.5,.09s.31,.14,.42,.24l-.13,.17c-.11-.08-.23-.16-.36-.22s-.28-.09-.46-.09c-.28,0-.49,.07-.62,.21-.13,.14-.2,.29-.2,.45,0,.14,.04,.25,.11,.33,.08,.09,.17,.16,.29,.22,.12,.06,.25,.11,.38,.16,.18,.07,.35,.14,.52,.21s.32,.17,.43,.29c.11,.12,.17,.3,.17,.51,0,.16-.04,.31-.13,.46-.08,.14-.21,.25-.37,.34-.16,.09-.36,.13-.59,.13Z" fill="#231f20"/></g><g><path d="M344.75,189.86v-4.62h.24l2.04,3.39,.53,.91h.03c0-.22,0-.44-.02-.66,0-.21,0-.43,0-.64v-3h.21v4.62h-.24l-2.04-3.39-.53-.91h-.03c0,.21,.02,.42,.02,.63s0,.41,0,.63v3.04h-.21Z" fill="#231f20"/><path d="M350.38,189.95c-.28,0-.54-.07-.77-.21-.23-.14-.42-.34-.55-.6-.14-.26-.21-.57-.21-.94s.07-.68,.21-.94,.32-.47,.54-.61,.45-.21,.7-.21c.39,0,.69,.13,.92,.4,.23,.26,.34,.65,.34,1.14v.11s0,.08-.01,.12h-2.46c0,.3,.05,.56,.16,.8s.26,.42,.46,.55c.2,.14,.43,.2,.69,.2,.19,0,.36-.03,.51-.09,.15-.06,.29-.13,.41-.22l.1,.18c-.13,.08-.27,.15-.42,.22-.16,.07-.36,.11-.61,.11Zm-1.3-1.95h2.27c0-.46-.1-.81-.29-1.03s-.45-.34-.76-.34c-.2,0-.39,.05-.57,.17-.18,.11-.32,.27-.44,.47-.12,.21-.19,.45-.21,.74Z" fill="#231f20"/><path d="M353.09,189.86l-1.01-3.35h.24l.64,2.25c.04,.15,.08,.3,.13,.44s.08,.29,.11,.44h.03c.04-.15,.08-.29,.13-.44s.08-.29,.13-.44l.64-2.25h.29l.64,2.25c.04,.15,.08,.3,.13,.44s.08,.29,.13,.44h.03c.04-.15,.08-.29,.13-.44s.08-.29,.13-.44l.63-2.25h.22l-.98,3.35h-.29l-.63-2.18c-.05-.16-.09-.32-.13-.48-.04-.16-.08-.31-.14-.47h-.03c-.04,.16-.08,.32-.13,.48-.04,.16-.09,.32-.15,.49l-.62,2.17h-.27Z" fill="#231f20"/><path d="M358.72,189.86v-4.62h.22v4.62h-.22Z" fill="#231f20"/><path d="M360.32,189.86v-3.35h.18l.03,.53h.01c.18-.18,.36-.32,.54-.44,.18-.12,.39-.18,.62-.18,.35,0,.6,.1,.76,.31,.16,.21,.25,.53,.25,.96v2.16h-.21v-2.13c0-.37-.06-.65-.19-.83-.13-.18-.33-.27-.62-.27-.21,0-.4,.06-.57,.17s-.37,.28-.59,.5v2.56h-.21Z" fill="#231f20"/></g><g><path d="M344.75,221.69v-4.62h1.11c.53,0,.93,.09,1.22,.28,.29,.19,.43,.51,.43,.98s-.14,.77-.42,.99c-.28,.22-.68,.33-1.2,.33h-.91v2.04h-.22Zm.22-2.24h.83c.5,0,.87-.09,1.11-.26,.24-.18,.36-.46,.36-.86s-.12-.69-.37-.84c-.25-.15-.62-.23-1.13-.23h-.8v2.18Z" fill="#231f20"/><path d="M349.52,221.78c-.27,0-.51-.07-.74-.21s-.41-.34-.54-.6c-.14-.26-.2-.58-.2-.95s.07-.69,.2-.96c.13-.26,.32-.46,.54-.6s.47-.21,.74-.21,.51,.07,.74,.21,.41,.34,.54,.6c.14,.26,.21,.58,.21,.96s-.07,.68-.21,.95c-.14,.26-.32,.46-.54,.6s-.47,.21-.74,.21Zm0-.2c.24,0,.45-.07,.64-.2s.34-.31,.45-.55,.17-.5,.17-.81-.06-.58-.17-.82c-.11-.24-.26-.42-.45-.55s-.41-.2-.64-.2-.45,.07-.64,.2c-.19,.13-.34,.32-.45,.55-.11,.24-.17,.51-.17,.82s.06,.58,.17,.81c.11,.23,.26,.42,.45,.55,.19,.13,.4,.2,.64,.2Z" fill="#231f20"/><path d="M352.05,223.25v-4.9h.18l.03,.43h.01c.17-.13,.35-.25,.55-.36,.2-.1,.4-.16,.61-.16,.46,0,.79,.16,1.01,.47,.22,.31,.33,.72,.33,1.24,0,.38-.07,.7-.21,.97s-.32,.47-.54,.62-.47,.22-.74,.22c-.16,0-.33-.04-.5-.11-.17-.08-.35-.18-.54-.31v1.89h-.21Zm1.26-1.67c.24,0,.46-.07,.64-.21s.33-.33,.44-.57c.11-.24,.16-.52,.16-.83,0-.29-.04-.54-.11-.77-.08-.23-.2-.41-.36-.54-.17-.13-.39-.2-.66-.2-.17,0-.35,.05-.55,.15s-.4,.25-.62,.44v2.07c.21,.17,.4,.29,.58,.36,.18,.07,.34,.11,.47,.11Z" fill="#231f20"/><path d="M356.79,221.78c-.34,0-.59-.1-.76-.31-.17-.21-.25-.53-.25-.96v-2.16h.21v2.13c0,.37,.06,.65,.19,.83,.13,.18,.33,.28,.62,.28,.21,0,.4-.06,.57-.18,.17-.12,.36-.3,.57-.55v-2.51h.21v3.35h-.18l-.03-.57h-.01c-.17,.2-.34,.36-.52,.48-.18,.12-.39,.18-.62,.18Z" fill="#231f20"/><path d="M359.84,221.78c-.1,0-.18-.04-.25-.1-.06-.07-.09-.18-.09-.34v-4.69h.21v4.73c0,.14,.05,.21,.14,.21,.01,0,.03,0,.05,0s.04,0,.08-.01l.04,.18s-.05,0-.08,.02c-.03,0-.06,0-.1,0Z" fill="#231f20"/><path d="M361.83,221.78c-.17,0-.33-.03-.48-.09-.15-.06-.27-.16-.35-.29-.09-.13-.13-.3-.13-.51,0-.37,.18-.66,.53-.85,.35-.19,.91-.33,1.67-.42,0-.18-.01-.36-.05-.54-.04-.18-.12-.32-.24-.44s-.3-.17-.53-.17-.45,.05-.64,.14-.34,.18-.45,.27l-.11-.17c.07-.05,.17-.11,.29-.18,.12-.07,.26-.13,.42-.18,.16-.05,.33-.08,.51-.08,.26,0,.47,.06,.62,.17,.15,.12,.25,.27,.32,.46s.09,.4,.09,.62v2.17h-.18l-.03-.45h-.01c-.17,.14-.36,.26-.57,.37-.21,.11-.42,.16-.65,.16Zm.01-.2c.21,0,.4-.05,.59-.15s.4-.24,.62-.43v-1.22c-.49,.06-.88,.13-1.17,.23-.29,.1-.49,.21-.62,.35-.13,.14-.19,.31-.19,.5,0,.26,.08,.44,.23,.55,.15,.11,.33,.17,.53,.17Z" fill="#231f20"/><path d="M364.51,221.69v-3.35h.18l.03,.63h.01c.11-.21,.25-.38,.41-.51,.16-.14,.34-.2,.54-.2,.06,0,.11,0,.16,.01,.05,0,.1,.03,.16,.06l-.06,.2c-.06-.02-.1-.04-.14-.04s-.09-.01-.15-.01c-.15,0-.31,.07-.48,.2s-.32,.37-.46,.7v2.32h-.21Z" fill="#231f20"/></g><g><path d="M345.92,253.61c-.34,0-.64-.07-.89-.2-.25-.13-.47-.3-.65-.5l.15-.15c.17,.2,.37,.35,.61,.47,.24,.12,.5,.17,.78,.17,.37,0,.67-.09,.89-.28,.22-.18,.33-.42,.33-.72,0-.21-.04-.37-.12-.49-.08-.12-.18-.23-.31-.3-.13-.08-.27-.15-.42-.22l-.71-.32c-.13-.06-.27-.14-.41-.22-.14-.09-.27-.21-.37-.35s-.15-.33-.15-.56,.06-.41,.17-.58,.27-.29,.47-.39c.2-.09,.42-.14,.67-.14,.28,0,.53,.05,.74,.16,.21,.11,.39,.24,.52,.38l-.14,.15c-.13-.15-.29-.27-.48-.36-.19-.09-.4-.13-.64-.13-.32,0-.58,.08-.78,.24s-.3,.38-.3,.64c0,.19,.04,.35,.13,.47s.2,.21,.33,.29c.13,.07,.25,.13,.35,.19l.71,.32c.17,.08,.33,.16,.48,.26,.15,.1,.27,.22,.36,.37,.09,.15,.14,.35,.14,.58s-.06,.44-.18,.63-.29,.33-.5,.43c-.22,.11-.47,.16-.76,.16Z" fill="#231f20"/><path d="M349.28,253.61c-.34,0-.59-.1-.76-.31-.17-.21-.25-.53-.25-.96v-2.16h.21v2.13c0,.37,.06,.64,.19,.83,.13,.18,.33,.28,.62,.28,.21,0,.4-.06,.57-.17,.17-.12,.36-.3,.57-.55v-2.51h.21v3.35h-.18l-.03-.57h-.01c-.17,.2-.34,.35-.52,.48-.18,.12-.39,.18-.62,.18Z" fill="#231f20"/><path d="M353.25,253.61c-.16,0-.33-.04-.51-.12-.18-.08-.35-.18-.51-.3h-.01l-.03,.34h-.18v-5.05h.21v2.17c.16-.15,.35-.28,.56-.39s.41-.16,.62-.16c.46,0,.8,.16,1.02,.47,.22,.31,.33,.72,.33,1.24,0,.38-.07,.7-.21,.97s-.32,.47-.54,.62c-.22,.14-.47,.22-.73,.22Zm.01-.2c.24,0,.46-.07,.64-.21,.19-.14,.33-.33,.44-.57,.11-.24,.16-.52,.16-.83,0-.28-.04-.54-.11-.77-.07-.23-.19-.41-.36-.54-.17-.13-.39-.2-.66-.2-.17,0-.36,.05-.55,.15-.2,.1-.4,.25-.61,.44v2.07c.2,.17,.39,.29,.57,.36,.19,.07,.34,.1,.48,.1Z" fill="#231f20"/><path d="M356.55,253.61c-.25,0-.48-.05-.69-.14-.21-.09-.38-.2-.53-.33l.14-.17c.14,.12,.29,.22,.46,.3,.17,.09,.38,.13,.63,.13,.28,0,.49-.07,.64-.22s.22-.31,.22-.5c0-.15-.04-.27-.13-.37-.09-.1-.19-.18-.32-.25-.13-.07-.26-.12-.39-.17-.17-.06-.34-.13-.5-.2-.16-.07-.3-.17-.4-.29-.11-.12-.16-.27-.16-.46,0-.23,.09-.44,.27-.61,.18-.17,.44-.26,.78-.26,.17,0,.33,.03,.5,.09,.17,.06,.31,.14,.42,.24l-.13,.17c-.11-.08-.23-.16-.36-.22s-.28-.09-.46-.09c-.28,0-.49,.07-.62,.21-.13,.14-.2,.29-.2,.45,0,.14,.04,.25,.11,.33,.08,.09,.17,.16,.29,.22,.12,.06,.25,.11,.38,.16,.18,.07,.35,.14,.52,.21s.32,.17,.43,.29c.11,.12,.17,.29,.17,.51,0,.16-.04,.31-.13,.46-.08,.14-.21,.25-.37,.34-.16,.09-.36,.13-.59,.13Z" fill="#231f20"/><path d="M359.77,253.61c-.28,0-.54-.07-.77-.21-.23-.14-.4-.34-.54-.6-.13-.26-.2-.58-.2-.94s.07-.69,.21-.96c.14-.26,.32-.46,.55-.6s.47-.21,.74-.21c.23,0,.43,.04,.58,.13,.15,.09,.29,.18,.4,.29l-.14,.15c-.11-.11-.24-.2-.37-.27-.14-.07-.29-.11-.47-.11-.24,0-.45,.07-.64,.2-.19,.13-.34,.32-.46,.55-.11,.24-.17,.51-.17,.82s.05,.58,.16,.81c.1,.23,.25,.42,.44,.55,.19,.13,.42,.2,.67,.2,.19,0,.37-.04,.53-.12,.16-.08,.3-.17,.41-.29l.13,.15c-.14,.13-.3,.23-.47,.32-.17,.09-.37,.13-.59,.13Z" fill="#231f20"/><path d="M361.69,253.52v-3.35h.18l.03,.63h.01c.11-.21,.25-.38,.41-.51,.16-.13,.34-.2,.54-.2,.06,0,.11,0,.16,.01,.05,0,.11,.03,.16,.06l-.06,.2c-.06-.02-.1-.04-.14-.05-.04,0-.09-.01-.15-.01-.15,0-.32,.07-.48,.2s-.32,.37-.46,.7v2.32h-.21Z" fill="#231f20"/><path d="M363.94,249.32c-.06,0-.11-.02-.16-.07-.04-.05-.07-.11-.07-.18,0-.07,.02-.13,.07-.17,.04-.04,.1-.07,.16-.07s.12,.02,.16,.07c.04,.04,.06,.1,.06,.17,0,.07-.02,.14-.06,.18-.04,.05-.1,.07-.16,.07Zm-.11,4.2v-3.35h.21v3.35h-.21Z" fill="#231f20"/><path d="M365.38,255.08v-4.9h.18l.03,.43h.01c.17-.14,.35-.26,.55-.36,.2-.11,.4-.16,.61-.16,.46,0,.8,.16,1.02,.47,.22,.31,.33,.72,.33,1.24,0,.38-.07,.7-.21,.97s-.32,.47-.54,.62c-.22,.14-.47,.22-.73,.22-.16,0-.33-.04-.5-.11s-.35-.18-.54-.31v1.89h-.21Zm1.26-1.67c.24,0,.46-.07,.64-.21,.19-.14,.33-.33,.44-.57,.11-.24,.16-.52,.16-.83,0-.28-.04-.54-.11-.77-.07-.23-.19-.41-.36-.54-.17-.13-.39-.2-.66-.2-.17,0-.35,.05-.55,.15-.19,.1-.4,.25-.62,.44v2.07c.21,.17,.4,.29,.58,.36,.18,.07,.34,.1,.47,.1Z" fill="#231f20"/><path d="M369.95,253.61c-.31,0-.52-.09-.62-.27s-.16-.41-.16-.7v-2.27h-.53v-.17l.53-.03,.03-.98h.18v.98h.99v.2h-.99v2.3c0,.21,.04,.39,.11,.53,.08,.14,.23,.21,.48,.21,.07,0,.14-.01,.22-.04,.08-.02,.15-.05,.21-.08l.07,.18c-.1,.03-.2,.06-.29,.09-.1,.03-.17,.04-.23,.04Z" fill="#231f20"/><path d="M371.32,249.32c-.06,0-.11-.02-.16-.07-.04-.05-.07-.11-.07-.18,0-.07,.02-.13,.07-.17s.1-.07,.16-.07c.07,0,.12,.02,.16,.07,.04,.04,.06,.1,.06,.17,0,.07-.02,.14-.06,.18-.04,.05-.1,.07-.16,.07Zm-.11,4.2v-3.35h.21v3.35h-.21Z" fill="#231f20"/><path d="M373.95,253.61c-.27,0-.51-.07-.74-.21-.23-.14-.41-.34-.54-.6-.13-.26-.2-.58-.2-.94s.07-.69,.2-.96c.14-.26,.32-.46,.54-.6,.23-.14,.47-.21,.74-.21s.51,.07,.74,.21c.22,.14,.4,.34,.54,.6s.21,.58,.21,.96-.07,.68-.21,.94c-.14,.26-.32,.46-.54,.6-.22,.14-.47,.21-.74,.21Zm0-.2c.24,0,.45-.07,.64-.2,.19-.13,.34-.31,.45-.55,.11-.23,.16-.5,.16-.81s-.05-.58-.16-.82c-.11-.24-.26-.42-.45-.55-.19-.13-.41-.2-.64-.2s-.45,.07-.64,.2c-.19,.13-.34,.32-.45,.55-.11,.24-.17,.51-.17,.82s.06,.58,.17,.81c.11,.23,.26,.42,.45,.55,.19,.13,.4,.2,.64,.2Z" fill="#231f20"/><path d="M376.48,253.52v-3.35h.18l.03,.53h.01c.18-.18,.36-.32,.54-.44,.18-.12,.39-.18,.62-.18,.35,0,.6,.1,.76,.31,.16,.21,.25,.53,.25,.96v2.16h-.21v-2.13c0-.37-.06-.65-.19-.83-.13-.18-.33-.27-.62-.27-.21,0-.4,.06-.57,.17s-.37,.28-.59,.5v2.56h-.21Z" fill="#231f20"/></g><g><path d="M345.92,285.44c-.34,0-.64-.07-.89-.2-.25-.13-.47-.3-.65-.5l.15-.15c.17,.2,.37,.35,.61,.47,.24,.12,.5,.17,.78,.17,.37,0,.67-.09,.89-.28,.22-.18,.33-.42,.33-.72,0-.21-.04-.37-.12-.49-.08-.12-.18-.23-.31-.3-.13-.08-.27-.15-.42-.22l-.71-.32c-.13-.06-.27-.14-.41-.22-.14-.09-.27-.21-.37-.35s-.15-.33-.15-.56,.06-.41,.17-.58,.27-.29,.47-.39c.2-.09,.42-.14,.67-.14,.28,0,.53,.05,.74,.16,.21,.11,.39,.24,.52,.38l-.14,.15c-.13-.15-.29-.27-.48-.36-.19-.09-.4-.13-.64-.13-.32,0-.58,.08-.78,.24s-.3,.38-.3,.64c0,.19,.04,.35,.13,.47s.2,.21,.33,.29c.13,.07,.25,.13,.35,.19l.71,.32c.17,.08,.33,.16,.48,.26,.15,.1,.27,.22,.36,.37,.09,.15,.14,.35,.14,.58s-.06,.44-.18,.63-.29,.33-.5,.43c-.22,.11-.47,.16-.76,.16Z" fill="#231f20"/><path d="M349.05,285.44c-.17,0-.33-.03-.48-.09s-.26-.16-.35-.29-.13-.3-.13-.51c0-.37,.18-.66,.53-.85,.35-.19,.91-.33,1.67-.42,0-.18-.01-.36-.05-.54-.04-.18-.12-.32-.24-.44-.12-.11-.3-.17-.53-.17s-.45,.05-.64,.14c-.19,.09-.34,.18-.45,.27l-.11-.17c.07-.05,.17-.11,.29-.18,.12-.07,.26-.13,.42-.18,.16-.05,.33-.08,.51-.08,.26,0,.47,.06,.62,.18,.15,.12,.25,.27,.31,.46s.09,.4,.09,.62v2.17h-.18l-.03-.45h-.01c-.17,.14-.36,.26-.57,.37s-.42,.16-.65,.16Zm.01-.2c.21,0,.4-.05,.6-.15,.19-.1,.4-.24,.62-.43v-1.22c-.49,.06-.88,.13-1.17,.23s-.49,.21-.62,.35-.19,.31-.19,.5c0,.26,.08,.44,.23,.55,.15,.11,.33,.16,.53,.16Z" fill="#231f20"/><path d="M352.07,285.44c-.1,0-.18-.04-.24-.11-.06-.07-.09-.18-.09-.34v-4.69h.21v4.73c0,.14,.05,.21,.14,.21,.01,0,.03,0,.05,0,.02,0,.04,0,.08,0l.04,.18s-.05,.01-.08,.02c-.03,0-.06,.01-.1,.01Z" fill="#231f20"/><path d="M354.57,285.44c-.28,0-.54-.07-.77-.21-.23-.14-.42-.34-.55-.6-.14-.26-.21-.57-.21-.94s.07-.68,.21-.94,.32-.47,.54-.61c.22-.14,.45-.21,.7-.21,.39,0,.69,.13,.92,.4,.23,.26,.34,.65,.34,1.14v.11s0,.08-.01,.12h-2.46c0,.3,.05,.56,.17,.8,.11,.23,.26,.42,.46,.55,.2,.14,.43,.2,.69,.2,.19,0,.36-.03,.51-.09,.15-.06,.29-.13,.41-.22l.1,.18c-.13,.08-.27,.15-.42,.22-.16,.07-.36,.11-.61,.11Zm-1.3-1.95h2.27c0-.46-.1-.81-.29-1.03s-.45-.34-.76-.34c-.2,0-.39,.05-.57,.17-.18,.11-.32,.27-.44,.47-.12,.21-.19,.45-.21,.74Z" fill="#231f20"/></g><g><line x1="337.88" y1="251.36" x2="337.63" y2="251.36" fill="none" stroke="#6d6d6d" stroke-miterlimit="10" stroke-width=".5"/><line x1="335.71" y1="251.36" x2="322.28" y2="251.36" fill="none" stroke="#6d6d6d" stroke-dasharray="0 0 .48 1.92" stroke-miterlimit="10" stroke-width=".5"/><line x1="321.32" y1="251.36" x2="321.07" y2="251.36" fill="none" stroke="#6d6d6d" stroke-miterlimit="10" stroke-width=".5"/></g><g><line x1="337.88" y1="219.53" x2="337.63" y2="219.53" fill="none" stroke="#6d6d6d" stroke-miterlimit="10" stroke-width=".5"/><line x1="335.71" y1="219.53" x2="322.28" y2="219.53" fill="none" stroke="#6d6d6d" stroke-dasharray="0 0 .48 1.92" stroke-miterlimit="10" stroke-width=".5"/><line x1="321.32" y1="219.53" x2="321.07" y2="219.53" fill="none" stroke="#6d6d6d" stroke-miterlimit="10" stroke-width=".5"/></g><g><line x1="337.88" y1="187.7" x2="337.63" y2="187.7" fill="none" stroke="#6d6d6d" stroke-miterlimit="10" stroke-width=".5"/><line x1="335.71" y1="187.7" x2="322.28" y2="187.7" fill="none" stroke="#6d6d6d" stroke-dasharray="0 0 .48 1.92" stroke-miterlimit="10" stroke-width=".5"/><line x1="321.32" y1="187.7" x2="321.07" y2="187.7" fill="none" stroke="#6d6d6d" stroke-miterlimit="10" stroke-width=".5"/></g><g><line x1="337.88" y1="155.88" x2="337.63" y2="155.88" fill="none" stroke="#6d6d6d" stroke-miterlimit="10" stroke-width=".5"/><line x1="335.71" y1="155.88" x2="322.28" y2="155.88" fill="none" stroke="#6d6d6d" stroke-dasharray="0 0 .48 1.92" stroke-miterlimit="10" stroke-width=".5"/><line x1="321.32" y1="155.88" x2="321.07" y2="155.88" fill="none" stroke="#6d6d6d" stroke-miterlimit="10" stroke-width=".5"/></g><g><line x1="325.03" y1="98.04" x2="325.28" y2="98.04" fill="none" stroke="#6d6d6d" stroke-miterlimit="10" stroke-width=".5"/><line x1="327.27" y1="98.04" x2="470.41" y2="98.04" fill="none" stroke="#6d6d6d" stroke-dasharray="0 0 .5 1.99" stroke-miterlimit="10" stroke-width=".5"/><polyline points="471.4 98.04 471.65 98.04 471.65 98.29" fill="none" stroke="#6d6d6d" stroke-miterlimit="10" stroke-width=".5"/><line x1="471.65" y1="100.44" x2="471.65" y2="112.78" fill="none" stroke="#6d6d6d" stroke-dasharray="0 0 .54 2.15" stroke-miterlimit="10" stroke-width=".5"/><line x1="471.65" y1="113.86" x2="471.65" y2="114.11" fill="none" stroke="#6d6d6d" stroke-miterlimit="10" stroke-width=".5"/></g><g><line x1="48.59" y1="155.88" x2="48.34" y2="155.88" fill="none" stroke="#6d6d6d" stroke-miterlimit="10" stroke-width=".5"/><line x1="46.4" y1="155.88" x2="32.82" y2="155.88" fill="none" stroke="#6d6d6d" stroke-dasharray="0 0 .48 1.94" stroke-miterlimit="10" stroke-width=".5"/><line x1="31.85" y1="155.88" x2="31.6" y2="155.88" fill="none" stroke="#6d6d6d" stroke-miterlimit="10" stroke-width=".5"/></g></g><g id="d"/></svg>