<?xml version="1.0" encoding="UTF-8"?><svg id="a" xmlns="http://www.w3.org/2000/svg" viewBox="0 0 381.42 133.68"><rect x="40.12" width="133.68" height="133.68" rx="4.39" ry="4.39" fill="#f1efef"/><rect x="207.62" width="133.68" height="133.68" rx="4.39" ry="4.39" fill="#f1efef"/><rect x="54.26" y="43.47" width="105.38" height="12.39" fill="#d8d8d8"/><rect x="54.26" y="62.75" width="105.38" height="12.39" fill="#d8d8d8"/><rect x="54.26" y="82.03" width="105.38" height="12.39" fill="#d8d8d8"/><rect x="106.95" y="104.48" width="52.69" height="15.93" fill="#8dd1c5"/><g><path d="M55.19,27.58v-7.82h2.82c.55,0,1.06,.07,1.51,.22s.82,.4,1.09,.75,.41,.84,.41,1.46c0,.58-.13,1.05-.38,1.42-.25,.37-.59,.65-1.01,.83l1.78,3.13h-1.98l-1.5-2.82h-.97v2.82h-1.76Zm1.76-4.22h.91c.46,0,.82-.1,1.06-.29,.24-.2,.37-.49,.37-.87s-.12-.65-.37-.8c-.24-.15-.6-.23-1.06-.23h-.91v2.2Z" fill="#231f20"/><path d="M64.94,27.73c-.57,0-1.08-.12-1.54-.37-.46-.25-.82-.6-1.08-1.07-.26-.46-.4-1.02-.4-1.68s.13-1.2,.4-1.67,.62-.82,1.05-1.07c.43-.25,.88-.38,1.36-.38,.57,0,1.04,.13,1.41,.38,.37,.25,.65,.59,.84,1.02,.19,.43,.28,.91,.28,1.46,0,.15,0,.3-.02,.45s-.03,.26-.05,.33h-3.56c.08,.43,.26,.75,.54,.95,.28,.2,.62,.31,1.01,.31,.42,0,.85-.13,1.28-.4l.59,1.07c-.3,.21-.64,.37-1.02,.49-.38,.12-.74,.18-1.09,.18Zm-1.32-3.77h2.15c0-.33-.08-.6-.23-.81-.16-.21-.41-.32-.76-.32-.27,0-.52,.09-.73,.28-.22,.19-.36,.47-.42,.85Z" fill="#231f20"/><path d="M70.5,30.12c-.46,0-.88-.05-1.26-.16s-.68-.27-.9-.49c-.22-.22-.34-.51-.34-.86,0-.48,.28-.88,.85-1.2v-.05c-.15-.1-.28-.24-.39-.4s-.16-.36-.16-.61c0-.22,.06-.42,.19-.62,.13-.2,.29-.36,.48-.49v-.05c-.21-.14-.39-.35-.56-.62s-.25-.58-.25-.92c0-.48,.12-.88,.35-1.19,.23-.32,.54-.55,.91-.71s.78-.24,1.2-.24c.35,0,.66,.05,.92,.14h2.17v1.28h-.95c.06,.09,.1,.2,.14,.34,.04,.14,.05,.28,.05,.44,0,.46-.1,.83-.31,1.13s-.49,.52-.84,.66-.75,.22-1.19,.22c-.23,0-.47-.04-.72-.12-.14,.12-.22,.27-.22,.44,0,.15,.07,.26,.2,.34,.14,.07,.37,.11,.7,.11h.96c.74,0,1.3,.12,1.69,.35,.39,.24,.58,.62,.58,1.16,0,.41-.14,.77-.41,1.1-.27,.32-.66,.58-1.15,.76s-1.08,.28-1.76,.28Zm.28-1.1c.4,0,.73-.07,.98-.22,.26-.14,.38-.32,.38-.52,0-.18-.08-.31-.23-.37-.16-.06-.38-.1-.68-.1h-.61c-.2,0-.37,0-.5-.02-.13-.01-.25-.03-.34-.05-.22,.19-.32,.39-.32,.59,0,.22,.12,.39,.37,.51,.24,.12,.56,.17,.95,.17Zm-.14-4.38c.23,0,.43-.08,.58-.25,.16-.17,.23-.42,.23-.74s-.08-.55-.23-.71c-.16-.16-.35-.25-.58-.25s-.43,.08-.58,.24c-.16,.16-.23,.4-.23,.72s.08,.58,.23,.74c.16,.17,.35,.25,.58,.25Z" fill="#231f20"/><path d="M75.66,20.76c-.3,0-.54-.08-.72-.25s-.28-.39-.28-.67,.09-.5,.28-.67,.42-.25,.72-.25,.54,.08,.72,.25,.28,.39,.28,.67-.09,.5-.28,.67-.42,.25-.72,.25Zm-.88,6.83v-5.95h1.76v5.95h-1.76Z" fill="#231f20"/><path d="M79.85,27.73c-.39,0-.79-.08-1.21-.23-.41-.15-.77-.35-1.07-.6l.79-1.1c.27,.2,.53,.35,.79,.46,.25,.11,.5,.16,.75,.16,.26,0,.46-.05,.58-.14,.12-.09,.18-.21,.18-.37,0-.14-.06-.25-.17-.34-.12-.09-.27-.17-.45-.25s-.38-.15-.59-.23c-.24-.1-.48-.22-.71-.36-.24-.14-.43-.33-.59-.56s-.24-.51-.24-.83c0-.55,.21-1,.63-1.34,.42-.34,.97-.52,1.65-.52,.46,0,.86,.08,1.21,.23,.35,.16,.65,.33,.89,.52l-.79,1.06c-.21-.16-.42-.28-.62-.37-.21-.09-.42-.13-.62-.13-.46,0-.68,.16-.68,.47,0,.19,.11,.34,.34,.44,.23,.1,.49,.21,.8,.32,.26,.09,.51,.2,.75,.34,.24,.14,.45,.32,.61,.55s.25,.53,.25,.89c0,.54-.21,.99-.62,1.36s-1.02,.56-1.82,.56Z" fill="#231f20"/><path d="M85.46,27.73c-.74,0-1.26-.21-1.58-.64-.32-.42-.47-.98-.47-1.67v-2.41h-.82v-1.31l.91-.07,.2-1.58h1.46v1.58h1.43v1.38h-1.43v2.39c0,.34,.07,.58,.21,.73,.14,.15,.33,.22,.56,.22,.1,0,.19-.01,.29-.04,.1-.02,.19-.05,.27-.08l.28,1.28c-.15,.05-.34,.1-.56,.14-.22,.05-.47,.07-.76,.07Z" fill="#231f20"/><path d="M90.21,27.73c-.57,0-1.08-.12-1.54-.37-.46-.25-.82-.6-1.08-1.07-.26-.46-.4-1.02-.4-1.68s.13-1.2,.4-1.67,.62-.82,1.05-1.07c.43-.25,.88-.38,1.36-.38,.57,0,1.04,.13,1.41,.38,.37,.25,.65,.59,.84,1.02,.19,.43,.28,.91,.28,1.46,0,.15,0,.3-.02,.45s-.03,.26-.05,.33h-3.56c.08,.43,.26,.75,.54,.95,.28,.2,.62,.31,1.01,.31,.42,0,.85-.13,1.28-.4l.59,1.07c-.3,.21-.64,.37-1.02,.49-.38,.12-.74,.18-1.09,.18Zm-1.32-3.77h2.15c0-.33-.08-.6-.23-.81-.16-.21-.41-.32-.76-.32-.27,0-.52,.09-.73,.28-.22,.19-.36,.47-.42,.85Z" fill="#231f20"/><path d="M93.77,27.58v-5.95h1.44l.12,1.04h.05c.22-.4,.48-.7,.78-.89,.3-.2,.61-.29,.91-.29,.17,0,.31,.01,.42,.03,.11,.02,.21,.05,.29,.09l-.29,1.52c-.1-.03-.21-.06-.31-.07s-.21-.02-.34-.02c-.22,0-.46,.08-.7,.25s-.45,.45-.61,.85v3.46h-1.76Z" fill="#231f20"/></g><rect x="221.77" y="43.47" width="105.38" height="12.39" fill="#d8d8d8"/><rect x="221.77" y="62.75" width="105.38" height="12.39" fill="#d8d8d8"/><rect x="221.77" y="82.03" width="105.38" height="12.39" fill="#d8d8d8"/><rect x="274.46" y="104.48" width="52.69" height="15.93" fill="#8dd1c5"/><g><path d="M222.7,27.58v-7.82h2.82c.55,0,1.06,.07,1.51,.22s.82,.4,1.09,.75,.41,.84,.41,1.46c0,.58-.13,1.05-.38,1.42-.25,.37-.59,.65-1.01,.83l1.78,3.13h-1.98l-1.5-2.82h-.97v2.82h-1.76Zm1.76-4.22h.91c.46,0,.82-.1,1.06-.29,.24-.2,.37-.49,.37-.87s-.12-.65-.37-.8c-.24-.15-.6-.23-1.06-.23h-.91v2.2Z" fill="#231f20"/><path d="M232.45,27.73c-.57,0-1.08-.12-1.54-.37-.46-.25-.82-.6-1.08-1.07-.26-.46-.4-1.02-.4-1.68s.13-1.2,.4-1.67,.62-.82,1.05-1.07c.43-.25,.88-.38,1.36-.38,.57,0,1.04,.13,1.41,.38,.37,.25,.65,.59,.84,1.02,.19,.43,.28,.91,.28,1.46,0,.15,0,.3-.02,.45s-.03,.26-.05,.33h-3.56c.08,.43,.26,.75,.54,.95,.28,.2,.62,.31,1.01,.31,.42,0,.85-.13,1.28-.4l.59,1.07c-.3,.21-.64,.37-1.02,.49-.38,.12-.74,.18-1.09,.18Zm-1.32-3.77h2.15c0-.33-.08-.6-.23-.81-.16-.21-.41-.32-.76-.32-.27,0-.52,.09-.73,.28-.22,.19-.36,.47-.42,.85Z" fill="#231f20"/><path d="M238.01,30.12c-.46,0-.88-.05-1.26-.16s-.68-.27-.9-.49c-.22-.22-.34-.51-.34-.86,0-.48,.28-.88,.85-1.2v-.05c-.15-.1-.28-.24-.39-.4s-.16-.36-.16-.61c0-.22,.06-.42,.19-.62,.13-.2,.29-.36,.48-.49v-.05c-.21-.14-.39-.35-.56-.62s-.25-.58-.25-.92c0-.48,.12-.88,.35-1.19,.23-.32,.54-.55,.91-.71s.78-.24,1.2-.24c.35,0,.66,.05,.92,.14h2.17v1.28h-.95c.06,.09,.1,.2,.14,.34,.04,.14,.05,.28,.05,.44,0,.46-.1,.83-.31,1.13s-.49,.52-.84,.66-.75,.22-1.19,.22c-.23,0-.47-.04-.72-.12-.14,.12-.22,.27-.22,.44,0,.15,.07,.26,.2,.34,.14,.07,.37,.11,.7,.11h.96c.74,0,1.3,.12,1.69,.35,.39,.24,.58,.62,.58,1.16,0,.41-.14,.77-.41,1.1-.27,.32-.66,.58-1.15,.76s-1.08,.28-1.76,.28Zm.28-1.1c.4,0,.73-.07,.98-.22,.26-.14,.38-.32,.38-.52,0-.18-.08-.31-.23-.37-.16-.06-.38-.1-.68-.1h-.61c-.2,0-.37,0-.5-.02-.13-.01-.25-.03-.34-.05-.22,.19-.32,.39-.32,.59,0,.22,.12,.39,.37,.51,.24,.12,.56,.17,.95,.17Zm-.14-4.38c.23,0,.43-.08,.58-.25,.16-.17,.23-.42,.23-.74s-.08-.55-.23-.71c-.16-.16-.35-.25-.58-.25s-.43,.08-.58,.24c-.16,.16-.23,.4-.23,.72s.08,.58,.23,.74c.16,.17,.35,.25,.58,.25Z" fill="#231f20"/><path d="M243.17,20.76c-.3,0-.54-.08-.72-.25s-.28-.39-.28-.67,.09-.5,.28-.67,.42-.25,.72-.25,.54,.08,.72,.25,.28,.39,.28,.67-.09,.5-.28,.67-.42,.25-.72,.25Zm-.88,6.83v-5.95h1.76v5.95h-1.76Z" fill="#231f20"/><path d="M247.36,27.73c-.39,0-.79-.08-1.21-.23-.41-.15-.77-.35-1.07-.6l.79-1.1c.27,.2,.53,.35,.79,.46,.25,.11,.5,.16,.75,.16,.26,0,.46-.05,.58-.14,.12-.09,.18-.21,.18-.37,0-.14-.06-.25-.17-.34-.12-.09-.27-.17-.45-.25s-.38-.15-.59-.23c-.24-.1-.48-.22-.71-.36-.24-.14-.43-.33-.59-.56s-.24-.51-.24-.83c0-.55,.21-1,.63-1.34,.42-.34,.97-.52,1.65-.52,.46,0,.86,.08,1.21,.23,.35,.16,.65,.33,.89,.52l-.79,1.06c-.21-.16-.42-.28-.62-.37-.21-.09-.42-.13-.62-.13-.46,0-.68,.16-.68,.47,0,.19,.11,.34,.34,.44,.23,.1,.49,.21,.8,.32,.26,.09,.51,.2,.75,.34,.24,.14,.45,.32,.61,.55s.25,.53,.25,.89c0,.54-.21,.99-.62,1.36s-1.02,.56-1.82,.56Z" fill="#231f20"/><path d="M252.97,27.73c-.74,0-1.26-.21-1.58-.64-.32-.42-.47-.98-.47-1.67v-2.41h-.82v-1.31l.91-.07,.2-1.58h1.46v1.58h1.43v1.38h-1.43v2.39c0,.34,.07,.58,.21,.73,.14,.15,.33,.22,.56,.22,.1,0,.19-.01,.29-.04,.1-.02,.19-.05,.27-.08l.28,1.28c-.15,.05-.34,.1-.56,.14-.22,.05-.47,.07-.76,.07Z" fill="#231f20"/><path d="M257.72,27.73c-.57,0-1.08-.12-1.54-.37-.46-.25-.82-.6-1.08-1.07-.26-.46-.4-1.02-.4-1.68s.13-1.2,.4-1.67,.62-.82,1.05-1.07c.43-.25,.88-.38,1.36-.38,.57,0,1.04,.13,1.41,.38,.37,.25,.65,.59,.84,1.02,.19,.43,.28,.91,.28,1.46,0,.15,0,.3-.02,.45s-.03,.26-.05,.33h-3.56c.08,.43,.26,.75,.54,.95,.28,.2,.62,.31,1.01,.31,.42,0,.85-.13,1.28-.4l.59,1.07c-.3,.21-.64,.37-1.02,.49-.38,.12-.74,.18-1.09,.18Zm-1.32-3.77h2.15c0-.33-.08-.6-.23-.81-.16-.21-.41-.32-.76-.32-.27,0-.52,.09-.73,.28-.22,.19-.36,.47-.42,.85Z" fill="#231f20"/><path d="M261.27,27.58v-5.95h1.44l.12,1.04h.05c.22-.4,.48-.7,.78-.89,.3-.2,.61-.29,.91-.29,.17,0,.31,.01,.42,.03,.11,.02,.21,.05,.29,.09l-.29,1.52c-.1-.03-.21-.06-.31-.07s-.21-.02-.34-.02c-.22,0-.46,.08-.7,.25s-.45,.45-.61,.85v3.46h-1.76Z" fill="#231f20"/></g><rect y="42.92" width="381.42" height="64.44" fill="none"/></svg>