<?xml version="1.0" encoding="UTF-8"?><svg xmlns="http://www.w3.org/2000/svg" viewBox="0 0 381.42 185.99"><g id="a"><circle cx="94.29" cy="27.22" r="8.5" fill="#f0efef" stroke="#8dd1c5" stroke-miterlimit="10" stroke-width=".1"/><path d="M124.87,48.83c3.03,0,5.5,2.47,5.5,5.5s-2.47,5.5-5.5,5.5-5.5-2.47-5.5-5.5,2.47-5.5,5.5-5.5m0-3c-4.7,0-8.5,3.81-8.5,8.5s3.81,8.5,8.5,8.5,8.5-3.81,8.5-8.5-3.81-8.5-8.5-8.5h0Z" fill="#f0efef" stroke="#8dd1c5" stroke-miterlimit="10" stroke-width=".1"/><rect x="55.04" y="18.66" width="17.01" height="17.01" fill="#f0efef" stroke="#8dd1c5" stroke-miterlimit="10" stroke-width=".1"/><rect x="116.37" y="22.1" width="17.01" height="10.06" fill="#f0efef" stroke="#8dd1c5" stroke-miterlimit="10" stroke-width=".1"/><polygon points="156.09 21.5 161.64 18.58 160.58 24.77 165.08 29.15 158.87 30.05 156.09 35.67 153.31 30.05 147.11 29.15 151.6 24.77 150.54 18.58 156.09 21.5" fill="#f0efef" stroke="#8dd1c5" stroke-miterlimit="10" stroke-width=".1"/><polygon points="102.79 62.84 85.78 62.84 85.78 45.83 102.79 62.84" fill="#f0efef" stroke="#8dd1c5" stroke-miterlimit="10" stroke-width=".1"/><polygon points="63.55 46.24 72.05 52.42 68.8 62.42 58.29 62.42 55.04 52.42 63.55 46.24" fill="#f0efef" stroke="#8dd1c5" stroke-miterlimit="10" stroke-width=".1"/><polygon points="164.57 52 158.42 52 158.42 45.86 153.76 45.86 153.76 52 147.61 52 147.61 56.67 153.76 56.67 153.76 62.81 158.42 62.81 158.42 56.67 164.57 56.67 164.57 52" fill="#f0efef" stroke="#8dd1c5" stroke-miterlimit="10" stroke-width=".1"/><polygon points="160.98 72.99 151.2 72.99 146.3 81.47 151.2 89.94 160.98 89.94 165.88 81.47 160.98 72.99" fill="#f0efef" stroke="#8dd1c5" stroke-miterlimit="10" stroke-width=".1"/><ellipse cx="124.87" cy="81.47" rx="5.81" ry="8.48" fill="#f0efef" stroke="#8dd1c5" stroke-miterlimit="10" stroke-width=".1"/><polygon points="96.14 76.44 82.37 76.44 92.43 86.5 96.14 86.5 106.2 86.5 96.14 76.44" fill="#f0efef" stroke="#8dd1c5" stroke-miterlimit="10" stroke-width=".1"/><polygon points="63.55 72.99 53.76 89.94 73.34 89.94 63.55 72.99" fill="#f0efef" stroke="#8dd1c5" stroke-miterlimit="10" stroke-width=".1"/><polygon points="127.14 100.13 122.6 100.13 118.67 102.4 116.4 106.33 116.4 110.87 118.67 114.81 122.6 117.08 127.14 117.08 131.08 114.81 133.35 110.87 133.35 106.33 131.08 102.4 127.14 100.13" fill="#f0efef" stroke="#8dd1c5" stroke-miterlimit="10" stroke-width=".1"/><polygon points="156.09 100.13 158.21 104.93 163.43 104.37 160.33 108.6 163.43 112.84 158.21 112.27 156.09 117.08 153.97 112.27 148.75 112.84 151.85 108.6 148.75 104.37 153.97 104.93 156.09 100.13" fill="#f0efef" stroke="#8dd1c5" stroke-miterlimit="10" stroke-width=".1"/><rect x="90.16" y="100.79" width="8.25" height="15.17" transform="translate(84.32 251.68) rotate(-135)" fill="#f0efef" stroke="#8dd1c5" stroke-miterlimit="10" stroke-width=".1"/><path d="M63.59,117.09l-7.53-7.53c-5.49-5.49,2.04-13.03,7.53-7.53,5.35-5.35,12.88,2.18,7.53,7.53l-7.53,7.53Z" fill="#f0efef" stroke="#8dd1c5" stroke-miterlimit="10" stroke-width=".1"/><circle cx="261.79" cy="27.22" r="8.5" fill="#f0efef" stroke="#8dd1c5" stroke-miterlimit="10" stroke-width=".1"/><path d="M292.38,48.83c3.03,0,5.5,2.47,5.5,5.5s-2.47,5.5-5.5,5.5-5.5-2.47-5.5-5.5,2.47-5.5,5.5-5.5m0-3c-4.7,0-8.5,3.81-8.5,8.5s3.81,8.5,8.5,8.5,8.5-3.81,8.5-8.5-3.81-8.5-8.5-8.5h0Z" fill="#8dd1c5" stroke="#f0efef" stroke-miterlimit="10" stroke-width=".1"/><rect x="222.55" y="18.66" width="17.01" height="17.01" fill="#f0efef" stroke="#8dd1c5" stroke-miterlimit="10" stroke-width=".1"/><rect x="283.88" y="22.1" width="17.01" height="10.06" fill="#f0efef" stroke="#8dd1c5" stroke-miterlimit="10" stroke-width=".1"/><polygon points="323.6 21.5 329.15 18.58 328.09 24.77 332.58 29.15 326.38 30.05 323.6 35.67 320.82 30.05 314.61 29.15 319.11 24.77 318.05 18.58 323.6 21.5" fill="#f0efef" stroke="#8dd1c5" stroke-miterlimit="10" stroke-width=".1"/><polygon points="270.3 62.84 253.29 62.84 253.29 45.83 270.3 62.84" fill="#8dd1c5" stroke="#f0efef" stroke-miterlimit="10" stroke-width=".1"/><polygon points="231.06 46.24 239.56 52.42 236.31 62.42 225.8 62.42 222.55 52.42 231.06 46.24" fill="#8dd1c5" stroke="#f0efef" stroke-miterlimit="10" stroke-width=".1"/><polygon points="332.08 52 325.93 52 325.93 45.86 321.27 45.86 321.27 52 315.12 52 315.12 56.67 321.27 56.67 321.27 62.81 325.93 62.81 325.93 56.67 332.08 56.67 332.08 52" fill="#8dd1c5" stroke="#f0efef" stroke-miterlimit="10" stroke-width=".1"/><polygon points="328.49 72.99 318.71 72.99 313.81 81.47 318.71 89.94 328.49 89.94 333.39 81.47 328.49 72.99" fill="#f0efef" stroke="#8dd1c5" stroke-miterlimit="10" stroke-width=".1"/><ellipse cx="292.38" cy="81.47" rx="5.81" ry="8.48" fill="#f0efef" stroke="#8dd1c5" stroke-miterlimit="10" stroke-width=".1"/><polygon points="263.65 76.44 249.88 76.44 259.94 86.5 263.65 86.5 273.71 86.5 263.65 76.44" fill="#f0efef" stroke="#8dd1c5" stroke-miterlimit="10" stroke-width=".1"/><polygon points="231.06 72.99 221.27 89.94 240.84 89.94 231.06 72.99" fill="#f0efef" stroke="#8dd1c5" stroke-miterlimit="10" stroke-width=".1"/><polygon points="294.65 100.13 290.11 100.13 286.18 102.4 283.91 106.33 283.91 110.87 286.18 114.81 290.11 117.08 294.65 117.08 298.59 114.81 300.86 110.87 300.86 106.33 298.59 102.4 294.65 100.13" fill="#f0efef" stroke="#8dd1c5" stroke-miterlimit="10" stroke-width=".1"/><polygon points="323.6 100.13 325.72 104.93 330.94 104.37 327.84 108.6 330.94 112.84 325.72 112.27 323.6 117.08 321.48 112.27 316.26 112.84 319.36 108.6 316.26 104.37 321.48 104.93 323.6 100.13" fill="#f0efef" stroke="#8dd1c5" stroke-miterlimit="10" stroke-width=".1"/><rect x="257.67" y="100.79" width="8.25" height="15.17" transform="translate(370.28 370.13) rotate(-135)" fill="#f0efef" stroke="#8dd1c5" stroke-miterlimit="10" stroke-width=".1"/><path d="M231.1,117.09l-7.53-7.53c-5.49-5.49,2.04-13.03,7.53-7.53,5.35-5.35,12.88,2.18,7.53,7.53l-7.53,7.53Z" fill="#f0efef" stroke="#8dd1c5" stroke-miterlimit="10" stroke-width=".1"/></g><g id="b"><rect x="41.94" y="1" width="133.68" height="133.68" rx="4.39" ry="4.39" fill="none" stroke="#f1efef" stroke-miterlimit="10" stroke-width=".5"/><rect x="209.44" y="1" width="133.68" height="133.68" rx="4.39" ry="4.39" fill="none" stroke="#8dd1c5" stroke-miterlimit="10" stroke-width="2"/><g><path d="M58.61,161.25v-9.24h.45v4.12h5.18v-4.12h.45v9.24h-.45v-4.73h-5.18v4.73h-.45Z" fill="#231f20"/><path d="M68.86,161.42c-.35,0-.67-.06-.96-.19s-.53-.32-.71-.59c-.18-.27-.27-.61-.27-1.03,0-.75,.35-1.31,1.06-1.7,.71-.39,1.82-.67,3.33-.83,0-.36-.03-.72-.1-1.08-.08-.35-.24-.65-.48-.88-.24-.23-.6-.34-1.06-.34s-.91,.09-1.29,.28-.68,.36-.9,.53l-.22-.34c.14-.1,.33-.22,.57-.36s.52-.25,.84-.36c.32-.1,.66-.15,1.02-.15,.52,0,.93,.12,1.23,.35,.3,.23,.51,.54,.63,.92,.12,.38,.18,.8,.18,1.25v4.34h-.36l-.06-.9h-.03c-.35,.28-.73,.53-1.14,.74-.42,.21-.85,.32-1.29,.32Zm.03-.39c.41,0,.81-.1,1.19-.29,.38-.2,.8-.48,1.25-.85v-2.44c-.98,.11-1.76,.26-2.33,.46-.57,.19-.99,.43-1.24,.71-.25,.28-.38,.61-.38,.99,0,.51,.15,.88,.46,1.1,.3,.22,.66,.33,1.06,.33Z" fill="#231f20"/><path d="M74.24,161.25v-6.69h.36l.06,1.26h.03c.22-.41,.5-.75,.82-1.02,.32-.27,.68-.41,1.08-.41,.11,0,.22,0,.32,.03,.1,.02,.21,.06,.32,.11l-.11,.39c-.11-.05-.21-.08-.28-.09-.08-.01-.18-.02-.31-.02-.31,0-.63,.13-.97,.4-.34,.27-.64,.73-.91,1.39v4.65h-.42Z" fill="#231f20"/><path d="M80.56,161.42c-.84,0-1.51-.3-2.02-.9-.5-.6-.76-1.47-.76-2.6,0-.72,.14-1.34,.41-1.87,.28-.53,.64-.94,1.09-1.22,.45-.29,.95-.43,1.49-.43,.41,0,.77,.07,1.08,.22s.64,.35,.99,.62l-.03-1.26v-2.83h.42v10.11h-.36l-.06-.9h-.03c-.28,.28-.61,.53-.98,.74-.37,.21-.79,.32-1.26,.32Zm.03-.39c.39,0,.77-.1,1.13-.31,.36-.21,.73-.49,1.11-.87v-4.14c-.37-.34-.72-.57-1.05-.71-.33-.14-.67-.21-1.02-.21-.48,0-.9,.14-1.28,.42s-.68,.66-.9,1.13c-.22,.48-.34,1-.34,1.58,0,.92,.2,1.67,.61,2.25,.41,.57,.99,.86,1.74,.86Z" fill="#231f20"/><path d="M90.45,161.42c-.62,0-1.03-.18-1.25-.54-.21-.36-.32-.82-.32-1.39v-4.54h-1.06v-.34l1.06-.06,.06-1.96h.36v1.96h1.99v.39h-1.99v4.59c0,.43,.07,.78,.22,1.06s.47,.42,.95,.42c.13,0,.28-.02,.44-.07,.16-.05,.31-.1,.43-.15l.14,.36c-.2,.07-.39,.12-.58,.17-.19,.05-.34,.08-.46,.08Z" fill="#231f20"/><path d="M95.21,161.42c-.53,0-1.02-.14-1.48-.41-.45-.27-.81-.67-1.08-1.2-.27-.52-.41-1.15-.41-1.89s.14-1.38,.41-1.91c.27-.53,.63-.93,1.08-1.2,.45-.28,.94-.41,1.48-.41s1.02,.14,1.47,.41c.45,.28,.81,.68,1.08,1.2,.28,.53,.41,1.17,.41,1.91s-.14,1.37-.41,1.89-.64,.92-1.08,1.2c-.45,.28-.94,.41-1.47,.41Zm0-.39c.48,0,.91-.13,1.29-.39,.38-.26,.68-.62,.9-1.09s.33-1.01,.33-1.62-.11-1.16-.33-1.63c-.22-.47-.52-.84-.9-1.11-.38-.27-.81-.4-1.29-.4s-.9,.13-1.28,.4c-.38,.27-.68,.63-.9,1.11-.22,.47-.34,1.01-.34,1.63s.11,1.16,.34,1.62,.52,.83,.9,1.09c.38,.26,.81,.39,1.28,.39Z" fill="#231f20"/><path d="M103.08,161.25v-6.69h.36l.06,1.26h.03c.22-.41,.5-.75,.82-1.02,.32-.27,.68-.41,1.08-.41,.11,0,.22,0,.32,.03,.1,.02,.21,.06,.32,.11l-.11,.39c-.11-.05-.21-.08-.28-.09-.08-.01-.18-.02-.31-.02-.31,0-.63,.13-.97,.4-.34,.27-.64,.73-.91,1.39v4.65h-.42Z" fill="#231f20"/><path d="M109.68,161.42c-.56,0-1.07-.14-1.53-.42s-.83-.68-1.11-1.2c-.28-.52-.41-1.15-.41-1.88s.14-1.36,.41-1.88,.63-.93,1.07-1.22c.44-.29,.9-.43,1.4-.43,.77,0,1.39,.26,1.84,.79s.68,1.29,.68,2.29v.21c0,.07,0,.15-.03,.24h-4.93c0,.6,.11,1.13,.33,1.6,.22,.47,.52,.83,.92,1.11,.39,.27,.85,.41,1.39,.41,.38,0,.72-.06,1.02-.17,.3-.12,.57-.26,.83-.44l.2,.36c-.25,.15-.53,.29-.85,.43-.31,.14-.72,.21-1.23,.21Zm-2.6-3.89h4.54c0-.92-.19-1.61-.57-2.07-.38-.45-.89-.68-1.53-.68-.4,0-.78,.11-1.13,.33s-.65,.53-.88,.95c-.23,.41-.37,.9-.42,1.47Z" fill="#231f20"/><path d="M113.91,161.25v-6.69h.36l.06,1.06h.03c.31-.35,.65-.65,1.02-.88,.37-.23,.74-.35,1.11-.35,.55,0,.97,.13,1.25,.38s.48,.59,.6,1.01c.39-.44,.78-.78,1.16-1.03,.38-.25,.76-.37,1.13-.37,.66,0,1.16,.21,1.49,.62,.33,.42,.5,1.06,.5,1.92v4.31h-.42v-4.26c0-1.47-.53-2.21-1.6-2.21-.34,0-.68,.11-1.02,.34-.35,.22-.71,.56-1.11,1.01v5.12h-.42v-4.26c0-1.47-.53-2.21-1.6-2.21-.63,0-1.34,.45-2.13,1.34v5.12h-.42Z" fill="#231f20"/><path d="M127.66,161.42c-.56,0-1.07-.14-1.53-.42s-.83-.68-1.11-1.2c-.28-.52-.41-1.15-.41-1.88s.14-1.36,.41-1.88,.63-.93,1.07-1.22c.44-.29,.9-.43,1.4-.43,.77,0,1.39,.26,1.84,.79s.68,1.29,.68,2.29v.21c0,.07,0,.15-.03,.24h-4.93c0,.6,.11,1.13,.33,1.6,.22,.47,.52,.83,.92,1.11,.39,.27,.85,.41,1.39,.41,.38,0,.72-.06,1.02-.17,.3-.12,.57-.26,.83-.44l.2,.36c-.25,.15-.53,.29-.85,.43-.31,.14-.72,.21-1.23,.21Zm-2.6-3.89h4.54c0-.92-.19-1.61-.57-2.07-.38-.45-.89-.68-1.53-.68-.4,0-.78,.11-1.13,.33s-.65,.53-.88,.95c-.23,.41-.37,.9-.42,1.47Z" fill="#231f20"/><path d="M131.89,161.25v-6.69h.36l.06,1.06h.03c.31-.35,.65-.65,1.02-.88,.37-.23,.74-.35,1.11-.35,.55,0,.97,.13,1.25,.38s.48,.59,.6,1.01c.39-.44,.78-.78,1.16-1.03,.38-.25,.76-.37,1.13-.37,.66,0,1.16,.21,1.49,.62,.33,.42,.5,1.06,.5,1.92v4.31h-.42v-4.26c0-1.47-.53-2.21-1.6-2.21-.34,0-.68,.11-1.02,.34-.35,.22-.71,.56-1.11,1.01v5.12h-.42v-4.26c0-1.47-.53-2.21-1.6-2.21-.63,0-1.34,.45-2.13,1.34v5.12h-.42Z" fill="#231f20"/><path d="M145.66,161.42c-.32,0-.66-.08-1.02-.23-.36-.15-.7-.36-1.03-.61h-.03l-.06,.67h-.36v-10.11h.42v3l-.03,1.34c.35-.3,.74-.56,1.14-.77,.41-.21,.82-.32,1.24-.32,.91,0,1.59,.31,2.03,.93,.44,.62,.66,1.45,.66,2.49,0,.76-.14,1.4-.41,1.94-.28,.54-.64,.95-1.08,1.24-.45,.29-.94,.43-1.47,.43Zm.03-.39c.49,0,.92-.14,1.29-.41,.37-.28,.67-.66,.88-1.14,.21-.49,.32-1.04,.32-1.67,0-.57-.07-1.08-.22-1.54-.15-.46-.39-.82-.72-1.08-.33-.27-.77-.4-1.32-.4-.35,0-.71,.1-1.11,.3-.39,.2-.8,.49-1.22,.88v4.14c.39,.34,.77,.57,1.15,.71,.37,.14,.69,.21,.95,.21Z" fill="#231f20"/><path d="M153.17,161.42c-.56,0-1.07-.14-1.53-.42s-.83-.68-1.11-1.2c-.28-.52-.41-1.15-.41-1.88s.14-1.36,.41-1.88,.63-.93,1.07-1.22c.44-.29,.9-.43,1.4-.43,.77,0,1.39,.26,1.84,.79s.68,1.29,.68,2.29v.21c0,.07,0,.15-.03,.24h-4.93c0,.6,.11,1.13,.33,1.6,.22,.47,.52,.83,.92,1.11,.39,.27,.85,.41,1.39,.41,.38,0,.72-.06,1.02-.17,.3-.12,.57-.26,.83-.44l.2,.36c-.25,.15-.53,.29-.85,.43-.31,.14-.72,.21-1.23,.21Zm-2.6-3.89h4.54c0-.92-.19-1.61-.57-2.07-.38-.45-.89-.68-1.53-.68-.4,0-.78,.11-1.13,.33s-.65,.53-.88,.95c-.23,.41-.37,.9-.42,1.47Z" fill="#231f20"/><path d="M157.4,161.25v-6.69h.36l.06,1.26h.03c.22-.41,.5-.75,.82-1.02,.32-.27,.68-.41,1.08-.41,.11,0,.22,0,.32,.03,.1,.02,.21,.06,.32,.11l-.11,.39c-.11-.05-.21-.08-.28-.09-.08-.01-.18-.02-.31-.02-.31,0-.63,.13-.97,.4-.34,.27-.64,.73-.91,1.39v4.65h-.42Z" fill="#231f20"/></g><g><path d="M219.35,161.03v-9.16h5.52v1.37h-3.89v2.34h3.29v1.37h-3.29v2.7h4.03v1.37h-5.66Z" fill="#231f20"/><path d="M228.4,161.2c-.6,0-1.08-.19-1.46-.56-.38-.37-.57-.86-.57-1.46,0-.74,.32-1.31,.97-1.71s1.67-.68,3.08-.83c0-.36-.1-.68-.29-.94-.18-.27-.51-.4-.97-.4-.34,0-.67,.07-.99,.2-.32,.13-.64,.29-.94,.48l-.59-1.08c.38-.24,.81-.45,1.3-.63,.48-.18,.99-.27,1.53-.27,.86,0,1.5,.25,1.92,.76s.64,1.24,.64,2.21v4.07h-1.33l-.11-.76h-.06c-.31,.26-.64,.48-.99,.66-.35,.18-.73,.27-1.14,.27Zm.52-1.26c.28,0,.53-.07,.76-.2,.23-.14,.47-.32,.73-.55v-1.54c-.93,.12-1.58,.3-1.95,.54-.36,.24-.55,.53-.55,.88,0,.31,.09,.53,.28,.67,.19,.14,.42,.21,.71,.21Z" fill="#231f20"/><path d="M235.88,161.2c-.47,0-.93-.09-1.4-.27-.47-.18-.87-.41-1.2-.68l.76-1.04c.31,.23,.62,.42,.92,.56,.31,.14,.63,.21,.98,.21,.37,0,.65-.08,.83-.24,.18-.16,.27-.35,.27-.59,0-.2-.07-.36-.22-.48-.15-.13-.33-.24-.55-.34-.22-.1-.46-.19-.7-.29-.3-.11-.6-.25-.89-.41-.29-.16-.53-.37-.72-.63-.19-.26-.28-.58-.28-.96,0-.61,.22-1.1,.67-1.48,.45-.38,1.05-.57,1.82-.57,.48,0,.92,.08,1.3,.25s.71,.36,.99,.57l-.74,.98c-.24-.18-.49-.32-.73-.43-.25-.11-.51-.16-.78-.16-.35,0-.6,.07-.77,.22s-.25,.32-.25,.54c0,.27,.14,.48,.42,.62,.28,.14,.61,.28,.98,.41,.32,.11,.62,.25,.92,.41,.3,.16,.55,.38,.75,.64s.3,.61,.3,1.04c0,.59-.23,1.09-.69,1.5-.46,.42-1.12,.62-1.99,.62Z" fill="#231f20"/><path d="M240.46,163.86c-.19,0-.35-.01-.49-.04-.14-.03-.28-.06-.41-.1l.29-1.26c.07,.02,.14,.04,.23,.06,.09,.02,.18,.03,.26,.03,.36,0,.66-.11,.88-.33,.22-.22,.38-.5,.5-.85l.13-.43-2.7-6.79h1.64l1.19,3.37c.1,.3,.2,.61,.3,.94,.1,.33,.2,.66,.3,.99h.06c.08-.32,.17-.64,.26-.97,.09-.33,.17-.65,.26-.96l1.04-3.37h1.55l-2.49,7.18c-.29,.77-.64,1.39-1.05,1.84-.41,.45-.99,.68-1.74,.68Z" fill="#231f20"/><path d="M252.15,161.2c-.79,0-1.36-.23-1.69-.69-.33-.46-.5-1.06-.5-1.8v-3.28h-.98v-1.2l1.06-.07,.2-1.88h1.34v1.88h1.75v1.27h-1.75v3.28c0,.8,.32,1.2,.97,1.2,.12,0,.25-.02,.38-.05,.13-.03,.24-.07,.34-.11l.28,1.19c-.19,.07-.4,.12-.64,.17-.24,.05-.49,.08-.76,.08Z" fill="#231f20"/><path d="M257.37,161.2c-.57,0-1.1-.14-1.6-.43-.5-.29-.9-.7-1.2-1.23s-.46-1.18-.46-1.94,.15-1.42,.46-1.95c.31-.54,.71-.95,1.2-1.23,.49-.28,1.03-.43,1.6-.43s1.12,.14,1.61,.43c.49,.29,.9,.7,1.2,1.23,.31,.54,.46,1.19,.46,1.95s-.15,1.4-.46,1.94-.71,.95-1.2,1.23c-.49,.28-1.03,.43-1.61,.43Zm0-1.32c.5,0,.9-.21,1.19-.63,.29-.42,.43-.97,.43-1.65s-.14-1.25-.43-1.67c-.29-.42-.69-.63-1.19-.63s-.9,.21-1.18,.63c-.28,.42-.43,.98-.43,1.67s.14,1.23,.43,1.65,.68,.63,1.18,.63Z" fill="#231f20"/><path d="M265.04,161.03v-6.87h1.33l.11,1.22h.06c.24-.45,.54-.79,.88-1.03,.35-.24,.7-.36,1.06-.36,.33,0,.59,.05,.78,.14l-.28,1.4c-.12-.04-.23-.07-.34-.08-.1-.02-.23-.03-.38-.03-.27,0-.56,.11-.85,.32s-.56,.58-.77,1.1v4.2h-1.61Z" fill="#231f20"/><path d="M273.06,161.2c-.63,0-1.21-.14-1.72-.43-.51-.29-.92-.7-1.22-1.23s-.45-1.18-.45-1.94,.15-1.39,.45-1.93,.7-.96,1.18-1.25c.49-.29,.99-.43,1.53-.43,.63,0,1.15,.14,1.57,.41s.74,.66,.95,1.15,.32,1.06,.32,1.7c0,.34-.02,.6-.07,.78h-4.37c.07,.61,.29,1.08,.66,1.41,.36,.34,.82,.5,1.37,.5,.3,0,.58-.04,.83-.13s.51-.21,.76-.37l.55,1.01c-.33,.21-.69,.39-1.09,.53-.4,.14-.82,.21-1.26,.21Zm-1.83-4.26h3.05c0-.53-.12-.95-.35-1.25-.23-.3-.58-.46-1.05-.46-.4,0-.76,.15-1.07,.44-.31,.29-.51,.72-.58,1.27Z" fill="#231f20"/><path d="M277.22,161.03v-6.87h1.33l.11,.94h.06c.29-.31,.6-.57,.95-.78,.34-.21,.73-.32,1.16-.32,.5,0,.91,.11,1.21,.33,.3,.22,.53,.52,.69,.9,.33-.35,.67-.65,1.03-.88s.75-.35,1.18-.35c.73,0,1.26,.24,1.61,.71,.35,.48,.52,1.15,.52,2.02v4.31h-1.62v-4.1c0-.57-.09-.97-.26-1.2-.17-.23-.44-.35-.79-.35-.43,0-.91,.29-1.44,.85v4.8h-1.61v-4.1c0-.57-.09-.97-.26-1.2-.17-.23-.44-.35-.8-.35-.43,0-.91,.29-1.44,.85v4.8h-1.61Z" fill="#231f20"/><path d="M291.96,161.2c-.63,0-1.21-.14-1.72-.43-.51-.29-.92-.7-1.22-1.23s-.45-1.18-.45-1.94,.15-1.39,.45-1.93c.3-.54,.7-.96,1.18-1.25,.49-.29,.99-.43,1.53-.43,.63,0,1.15,.14,1.57,.41s.74,.66,.95,1.15,.32,1.06,.32,1.7c0,.34-.02,.6-.07,.78h-4.37c.08,.61,.29,1.08,.66,1.41s.82,.5,1.37,.5c.3,0,.58-.04,.83-.13s.51-.21,.76-.37l.55,1.01c-.33,.21-.69,.39-1.09,.53-.4,.14-.82,.21-1.26,.21Zm-1.83-4.26h3.05c0-.53-.12-.95-.35-1.25-.23-.3-.58-.46-1.05-.46-.4,0-.76,.15-1.07,.44-.31,.29-.51,.72-.58,1.27Z" fill="#231f20"/><path d="M296.12,161.03v-6.87h1.33l.11,.94h.06c.29-.31,.6-.57,.95-.78,.34-.21,.73-.32,1.16-.32,.5,0,.91,.11,1.21,.33,.3,.22,.53,.52,.69,.9,.33-.35,.67-.65,1.03-.88s.75-.35,1.18-.35c.73,0,1.26,.24,1.61,.71,.35,.48,.52,1.15,.52,2.02v4.31h-1.62v-4.1c0-.57-.09-.97-.26-1.2-.17-.23-.44-.35-.79-.35-.43,0-.91,.29-1.44,.85v4.8h-1.61v-4.1c0-.57-.09-.97-.26-1.2-.17-.23-.44-.35-.8-.35-.43,0-.91,.29-1.44,.85v4.8h-1.61Z" fill="#231f20"/><path d="M311.25,161.2c-.65,0-1.28-.3-1.88-.9h-.04l-.14,.73h-1.27v-9.88h1.61v2.55l-.04,1.15c.29-.25,.61-.46,.95-.62,.34-.16,.69-.24,1.04-.24,.86,0,1.53,.32,2,.95,.48,.63,.71,1.48,.71,2.53,0,.78-.14,1.45-.42,2.01-.28,.55-.64,.98-1.08,1.27s-.92,.44-1.44,.44Zm-.34-1.33c.46,0,.84-.2,1.15-.6,.31-.4,.46-.99,.46-1.76,0-.69-.12-1.23-.35-1.61-.23-.38-.61-.57-1.13-.57-.49,0-.99,.26-1.51,.77v3.21c.24,.21,.48,.35,.72,.44,.24,.09,.46,.13,.67,.13Z" fill="#231f20"/><path d="M318.74,161.2c-.63,0-1.21-.14-1.72-.43-.51-.29-.92-.7-1.22-1.23s-.45-1.18-.45-1.94,.15-1.39,.45-1.93c.3-.54,.7-.96,1.18-1.25,.49-.29,.99-.43,1.53-.43,.63,0,1.15,.14,1.57,.41s.74,.66,.95,1.15,.32,1.06,.32,1.7c0,.34-.02,.6-.07,.78h-4.37c.08,.61,.29,1.08,.66,1.41s.82,.5,1.37,.5c.3,0,.58-.04,.83-.13s.51-.21,.76-.37l.55,1.01c-.33,.21-.69,.39-1.09,.53-.4,.14-.82,.21-1.26,.21Zm-1.83-4.26h3.05c0-.53-.12-.95-.35-1.25-.23-.3-.58-.46-1.05-.46-.4,0-.76,.15-1.07,.44-.31,.29-.51,.72-.58,1.27Z" fill="#231f20"/><path d="M322.9,161.03v-6.87h1.33l.11,1.22h.06c.24-.45,.54-.79,.88-1.03,.35-.24,.7-.36,1.06-.36,.33,0,.59,.05,.78,.14l-.28,1.4c-.12-.04-.23-.07-.34-.08s-.23-.03-.38-.03c-.27,0-.56,.11-.85,.32s-.55,.58-.77,1.1v4.2h-1.61Z" fill="#231f20"/></g></g></svg>