<?xml version="1.0" encoding="utf-8"?>
<!-- Generator: Adobe Illustrator 26.2.1, SVG Export Plug-In . SVG Version: 6.00 Build 0)  -->
<svg version="1.1" id="Layer_1" xmlns="http://www.w3.org/2000/svg" xmlns:xlink="http://www.w3.org/1999/xlink" x="0px" y="0px"
	 viewBox="0 0 381.4 186" style="enable-background:new 0 0 381.4 186;" xml:space="preserve">
<style type="text/css">
	.st0{fill:#F0EFEF;stroke:#8DD1C5;stroke-width:0.1;stroke-miterlimit:10;}
	.st1{fill:#F0EFEF;stroke:#8DD1C5;stroke-width:9.999904e-02;stroke-miterlimit:9.9999;}
	.st2{fill:#B57364;stroke:#F0EFEF;stroke-width:0.1;stroke-miterlimit:10;}
	.st3{fill:none;stroke:#F1EFEF;stroke-width:0.5;stroke-miterlimit:10;}
	.st4{fill:none;stroke:#CE9C8D;stroke-width:2;stroke-miterlimit:10;}
	.st5{fill:#FFFFFF;}
</style>
<circle class="st0" cx="94.3" cy="27.2" r="8.5"/>
<path class="st0" d="M124.9,48.8c3,0,5.5,2.5,5.5,5.5s-2.5,5.5-5.5,5.5s-5.5-2.5-5.5-5.5S121.8,48.8,124.9,48.8 M124.9,45.8
	c-4.7,0-8.5,3.8-8.5,8.5s3.8,8.5,8.5,8.5c4.7,0,8.5-3.8,8.5-8.5S129.6,45.8,124.9,45.8L124.9,45.8z"/>
<rect x="55" y="18.7" class="st0" width="17" height="17"/>
<rect x="116.4" y="22.1" class="st0" width="17" height="10.1"/>
<polygon class="st0" points="156.1,21.5 161.6,18.6 160.6,24.8 165.1,29.1 158.9,30 156.1,35.7 153.3,30 147.1,29.1 151.6,24.8 
	150.5,18.6 "/>
<polygon class="st0" points="102.8,62.8 85.8,62.8 85.8,45.8 "/>
<polygon class="st0" points="63.5,46.2 72.1,52.4 68.8,62.4 58.3,62.4 55,52.4 "/>
<polygon class="st0" points="164.6,52 158.4,52 158.4,45.9 153.8,45.9 153.8,52 147.6,52 147.6,56.7 153.8,56.7 153.8,62.8 
	158.4,62.8 158.4,56.7 164.6,56.7 "/>
<polygon class="st0" points="161,73 151.2,73 146.3,81.5 151.2,89.9 161,89.9 165.9,81.5 "/>
<ellipse class="st0" cx="124.9" cy="81.5" rx="5.8" ry="8.5"/>
<polygon class="st0" points="96.1,76.4 82.4,76.4 92.4,86.5 96.1,86.5 106.2,86.5 "/>
<polygon class="st0" points="63.5,73 53.8,89.9 73.3,89.9 "/>
<polygon class="st0" points="127.1,100.1 122.6,100.1 118.7,102.4 116.4,106.3 116.4,110.9 118.7,114.8 122.6,117.1 127.1,117.1 
	131.1,114.8 133.4,110.9 133.4,106.3 131.1,102.4 "/>
<polygon class="st0" points="156.1,100.1 158.2,104.9 163.4,104.4 160.3,108.6 163.4,112.8 158.2,112.3 156.1,117.1 154,112.3 
	148.8,112.8 151.9,108.6 148.8,104.4 154,104.9 "/>
<rect x="86.7" y="104.3" transform="matrix(0.7071 -0.7071 0.7071 0.7071 -49.0146 98.431)" class="st1" width="15.2" height="8.2"/>
<path class="st0" d="M63.6,117.1l-7.5-7.5c-5.5-5.5,2-13,7.5-7.5c5.4-5.3,12.9,2.2,7.5,7.5L63.6,117.1z"/>
<circle class="st0" cx="261.8" cy="27.2" r="8.5"/>
<path class="st2" d="M292.4,48.8c3,0,5.5,2.5,5.5,5.5s-2.5,5.5-5.5,5.5s-5.5-2.5-5.5-5.5S289.4,48.8,292.4,48.8 M292.4,45.8
	c-4.7,0-8.5,3.8-8.5,8.5s3.8,8.5,8.5,8.5s8.5-3.8,8.5-8.5S297.1,45.8,292.4,45.8L292.4,45.8z"/>
<rect x="222.6" y="18.7" class="st0" width="17" height="17"/>
<rect x="283.9" y="22.1" class="st0" width="17" height="10.1"/>
<polygon class="st0" points="323.6,21.5 329.1,18.6 328.1,24.8 332.6,29.1 326.4,30 323.6,35.7 320.8,30 314.6,29.1 319.1,24.8 
	318,18.6 "/>
<polygon class="st2" points="270.3,62.8 253.3,62.8 253.3,45.8 "/>
<polygon class="st2" points="231.1,46.2 239.6,52.4 236.3,62.4 225.8,62.4 222.6,52.4 "/>
<polygon class="st2" points="332.1,52 325.9,52 325.9,45.9 321.3,45.9 321.3,52 315.1,52 315.1,56.7 321.3,56.7 321.3,62.8 
	325.9,62.8 325.9,56.7 332.1,56.7 "/>
<polygon class="st0" points="328.5,73 318.7,73 313.8,81.5 318.7,89.9 328.5,89.9 333.4,81.5 "/>
<ellipse class="st0" cx="292.4" cy="81.5" rx="5.8" ry="8.5"/>
<polygon class="st0" points="263.6,76.4 249.9,76.4 259.9,86.5 263.6,86.5 273.7,86.5 "/>
<polygon class="st0" points="231.1,73 221.3,89.9 240.8,89.9 "/>
<polygon class="st0" points="294.6,100.1 290.1,100.1 286.2,102.4 283.9,106.3 283.9,110.9 286.2,114.8 290.1,117.1 294.6,117.1 
	298.6,114.8 300.9,110.9 300.9,106.3 298.6,102.4 "/>
<polygon class="st0" points="323.6,100.1 325.7,104.9 330.9,104.4 327.8,108.6 330.9,112.8 325.7,112.3 323.6,117.1 321.5,112.3 
	316.3,112.8 319.4,108.6 316.3,104.4 321.5,104.9 "/>
<rect x="254.2" y="104.3" transform="matrix(0.7071 -0.7071 0.7071 0.7071 3.758248e-02 216.8751)" class="st1" width="15.2" height="8.2"/>
<path class="st0" d="M231.1,117.1l-7.5-7.5c-5.5-5.5,2-13,7.5-7.5c5.4-5.3,12.9,2.2,7.5,7.5L231.1,117.1z"/>
<path class="st3" d="M46.3,1h124.9c2.4,0,4.4,2,4.4,4.4v124.9c0,2.4-2,4.4-4.4,4.4H46.3c-2.4,0-4.4-2-4.4-4.4V5.4
	C41.9,3,43.9,1,46.3,1z"/>
<path class="st4" d="M213.8,1h124.9c2.4,0,4.4,2,4.4,4.4v124.9c0,2.4-2,4.4-4.4,4.4H213.8c-2.4,0-4.4-2-4.4-4.4V5.4
	C209.4,3,211.4,1,213.8,1z"/>
<g>
	<path class="st5" d="M58.6,161.2V152h0.5v4.1h5.2V152h0.4v9.2h-0.4v-4.7h-5.2v4.7C59.1,161.2,58.6,161.2,58.6,161.2z"/>
	<path class="st5" d="M68.9,161.4c-0.3,0-0.7-0.1-1-0.2s-0.5-0.3-0.7-0.6s-0.3-0.6-0.3-1c0-0.8,0.3-1.3,1.1-1.7s1.8-0.7,3.3-0.8
		c0-0.4,0-0.7-0.1-1.1c-0.1-0.4-0.2-0.6-0.5-0.9c-0.2-0.2-0.6-0.3-1.1-0.3s-0.9,0.1-1.3,0.3s-0.7,0.4-0.9,0.5l-0.2-0.3
		c0.1-0.1,0.3-0.2,0.6-0.4s0.5-0.2,0.8-0.4c0.3-0.1,0.7-0.1,1-0.1c0.5,0,0.9,0.1,1.2,0.4c0.3,0.2,0.5,0.5,0.6,0.9s0.2,0.8,0.2,1.2
		v4.3h-0.4l-0.1-0.9l0,0c-0.3,0.3-0.7,0.5-1.1,0.7C69.7,161.3,69.3,161.4,68.9,161.4L68.9,161.4z M68.9,161c0.4,0,0.8-0.1,1.2-0.3
		c0.4-0.2,0.8-0.5,1.2-0.9v-2.4c-1,0.1-1.8,0.3-2.3,0.5c-0.6,0.2-1,0.4-1.2,0.7s-0.4,0.6-0.4,1c0,0.5,0.2,0.9,0.5,1.1
		C68.1,160.9,68.5,161,68.9,161L68.9,161z"/>
	<path class="st5" d="M74.2,161.2v-6.7h0.4l0.1,1.3l0,0c0.2-0.4,0.5-0.8,0.8-1s0.7-0.4,1.1-0.4c0.1,0,0.2,0,0.3,0
		c0.1,0,0.2,0.1,0.3,0.1l-0.1,0.4c-0.1-0.1-0.2-0.1-0.3-0.1c-0.1,0-0.2,0-0.3,0c-0.3,0-0.6,0.1-1,0.4c-0.3,0.3-0.6,0.7-0.9,1.4v4.6
		H74.2L74.2,161.2z"/>
	<path class="st5" d="M80.6,161.4c-0.8,0-1.5-0.3-2-0.9c-0.5-0.6-0.8-1.5-0.8-2.6c0-0.7,0.1-1.3,0.4-1.9c0.3-0.5,0.6-0.9,1.1-1.2
		c0.4-0.3,0.9-0.4,1.5-0.4c0.4,0,0.8,0.1,1.1,0.2s0.6,0.4,1,0.6v-1.3v-2.8h0.4v10.1h-0.4l-0.1-0.9l0,0c-0.3,0.3-0.6,0.5-1,0.7
		S81,161.4,80.6,161.4L80.6,161.4z M80.6,161c0.4,0,0.8-0.1,1.1-0.3c0.4-0.2,0.7-0.5,1.1-0.9v-4.1c-0.4-0.3-0.7-0.6-1.1-0.7
		s-0.7-0.2-1-0.2c-0.5,0-0.9,0.1-1.3,0.4s-0.7,0.7-0.9,1.1c-0.2,0.5-0.3,1-0.3,1.6c0,0.9,0.2,1.7,0.6,2.2
		C79.3,160.7,79.8,161,80.6,161z"/>
	<path class="st5" d="M90.4,161.4c-0.6,0-1-0.2-1.2-0.5c-0.2-0.4-0.3-0.8-0.3-1.4V155h-1.1v-0.3l1.1-0.1l0.1-2h0.4v2h2v0.4h-2v4.6
		c0,0.4,0.1,0.8,0.2,1.1s0.5,0.4,0.9,0.4c0.1,0,0.3,0,0.4-0.1s0.3-0.1,0.4-0.1l0.1,0.4c-0.2,0.1-0.4,0.1-0.6,0.2
		S90.6,161.4,90.4,161.4L90.4,161.4z"/>
	<path class="st5" d="M95.2,161.4c-0.5,0-1-0.1-1.5-0.4c-0.4-0.3-0.8-0.7-1.1-1.2c-0.3-0.5-0.4-1.1-0.4-1.9s0.1-1.4,0.4-1.9
		s0.6-0.9,1.1-1.2c0.4-0.3,0.9-0.4,1.5-0.4s1,0.1,1.5,0.4c0.4,0.3,0.8,0.7,1.1,1.2c0.3,0.5,0.4,1.2,0.4,1.9s-0.1,1.4-0.4,1.9
		s-0.6,0.9-1.1,1.2S95.7,161.4,95.2,161.4z M95.2,161c0.5,0,0.9-0.1,1.3-0.4s0.7-0.6,0.9-1.1s0.3-1,0.3-1.6s-0.1-1.2-0.3-1.6
		s-0.5-0.8-0.9-1.1s-0.8-0.4-1.3-0.4s-0.9,0.1-1.3,0.4c-0.4,0.3-0.7,0.6-0.9,1.1c-0.2,0.5-0.3,1-0.3,1.6s0.1,1.2,0.3,1.6
		s0.5,0.8,0.9,1.1C94.3,160.9,94.7,161,95.2,161z"/>
	<path class="st5" d="M103.1,161.2v-6.7h0.4l0.1,1.3l0,0c0.2-0.4,0.5-0.8,0.8-1s0.7-0.4,1.1-0.4c0.1,0,0.2,0,0.3,0
		c0.1,0,0.2,0.1,0.3,0.1l-0.1,0.4c-0.1-0.1-0.2-0.1-0.3-0.1c-0.1,0-0.2,0-0.3,0c-0.3,0-0.6,0.1-1,0.4c-0.3,0.3-0.6,0.7-0.9,1.4v4.6
		H103.1L103.1,161.2z"/>
	<path class="st5" d="M109.7,161.4c-0.6,0-1.1-0.1-1.5-0.4s-0.8-0.7-1.1-1.2s-0.4-1.1-0.4-1.9s0.1-1.4,0.4-1.9s0.6-0.9,1.1-1.2
		c0.4-0.3,0.9-0.4,1.4-0.4c0.8,0,1.4,0.3,1.8,0.8s0.7,1.3,0.7,2.3v0.2c0,0.1,0,0.1,0,0.2h-4.9c0,0.6,0.1,1.1,0.3,1.6
		s0.5,0.8,0.9,1.1s0.8,0.4,1.4,0.4c0.4,0,0.7-0.1,1-0.2c0.3-0.1,0.6-0.3,0.8-0.4l0.2,0.4c-0.2,0.1-0.5,0.3-0.8,0.4
		C110.6,161.4,110.2,161.4,109.7,161.4L109.7,161.4z M107.1,157.5h4.5c0-0.9-0.2-1.6-0.6-2.1c-0.4-0.4-0.9-0.7-1.5-0.7
		c-0.4,0-0.8,0.1-1.1,0.3s-0.7,0.5-0.9,0.9C107.3,156.5,107.1,157,107.1,157.5L107.1,157.5z"/>
	<path class="st5" d="M113.9,161.2v-6.7h0.4l0.1,1.1l0,0c0.3-0.4,0.7-0.6,1-0.9c0.4-0.2,0.7-0.4,1.1-0.4c0.6,0,1,0.1,1.2,0.4
		s0.5,0.6,0.6,1c0.4-0.4,0.8-0.8,1.2-1c0.4-0.2,0.8-0.4,1.1-0.4c0.7,0,1.2,0.2,1.5,0.6c0.3,0.4,0.5,1.1,0.5,1.9v4.3h-0.4V157
		c0-1.5-0.5-2.2-1.6-2.2c-0.3,0-0.7,0.1-1,0.3s-0.7,0.6-1.1,1v5.1h-0.4V157c0-1.5-0.5-2.2-1.6-2.2c-0.6,0-1.3,0.4-2.1,1.3v5.1
		L113.9,161.2L113.9,161.2z"/>
	<path class="st5" d="M127.7,161.4c-0.6,0-1.1-0.1-1.5-0.4s-0.8-0.7-1.1-1.2s-0.4-1.1-0.4-1.9s0.1-1.4,0.4-1.9s0.6-0.9,1.1-1.2
		c0.4-0.3,0.9-0.4,1.4-0.4c0.8,0,1.4,0.3,1.8,0.8s0.7,1.3,0.7,2.3v0.2c0,0.1,0,0.1,0,0.2H125c0,0.6,0.1,1.1,0.3,1.6s0.5,0.8,0.9,1.1
		s0.8,0.4,1.4,0.4c0.4,0,0.7-0.1,1-0.2c0.3-0.1,0.6-0.3,0.8-0.4l0.2,0.4c-0.2,0.1-0.5,0.3-0.9,0.4
		C128.6,161.4,128.2,161.4,127.7,161.4L127.7,161.4z M125.1,157.5h4.5c0-0.9-0.2-1.6-0.6-2.1c-0.4-0.4-0.9-0.7-1.5-0.7
		c-0.4,0-0.8,0.1-1.1,0.3s-0.7,0.5-0.9,0.9C125.3,156.5,125.1,157,125.1,157.5L125.1,157.5z"/>
	<path class="st5" d="M131.9,161.2v-6.7h0.4l0.1,1.1l0,0c0.3-0.4,0.6-0.6,1-0.9c0.4-0.2,0.7-0.4,1.1-0.4c0.6,0,1,0.1,1.2,0.4
		s0.5,0.6,0.6,1c0.4-0.4,0.8-0.8,1.2-1s0.8-0.4,1.1-0.4c0.7,0,1.2,0.2,1.5,0.6c0.3,0.4,0.5,1.1,0.5,1.9v4.3h-0.4V157
		c0-1.5-0.5-2.2-1.6-2.2c-0.3,0-0.7,0.1-1,0.3c-0.4,0.2-0.7,0.6-1.1,1v5.1H136V157c0-1.5-0.5-2.2-1.6-2.2c-0.6,0-1.3,0.4-2.1,1.3
		v5.1L131.9,161.2L131.9,161.2z"/>
	<path class="st5" d="M145.7,161.4c-0.3,0-0.7-0.1-1-0.2s-0.7-0.4-1-0.6l0,0l-0.1,0.7h-0.4v-10.1h0.4v3v1.3c0.4-0.3,0.7-0.6,1.1-0.8
		c0.4-0.2,0.8-0.3,1.2-0.3c0.9,0,1.6,0.3,2,0.9s0.7,1.4,0.7,2.5c0,0.8-0.1,1.4-0.4,1.9c-0.3,0.5-0.6,0.9-1.1,1.2
		C146.7,161.3,146.2,161.4,145.7,161.4L145.7,161.4z M145.7,161c0.5,0,0.9-0.1,1.3-0.4c0.4-0.3,0.7-0.7,0.9-1.1
		c0.2-0.5,0.3-1,0.3-1.7c0-0.6-0.1-1.1-0.2-1.5c-0.1-0.5-0.4-0.8-0.7-1.1s-0.8-0.4-1.3-0.4c-0.4,0-0.7,0.1-1.1,0.3
		c-0.4,0.2-0.8,0.5-1.2,0.9v4.1c0.4,0.3,0.8,0.6,1.1,0.7C145.1,161,145.4,161,145.7,161L145.7,161z"/>
	<path class="st5" d="M153.2,161.4c-0.6,0-1.1-0.1-1.5-0.4s-0.8-0.7-1.1-1.2s-0.4-1.1-0.4-1.9s0.1-1.4,0.4-1.9s0.6-0.9,1.1-1.2
		c0.4-0.3,0.9-0.4,1.4-0.4c0.8,0,1.4,0.3,1.8,0.8s0.7,1.3,0.7,2.3v0.2c0,0.1,0,0.1,0,0.2h-4.9c0,0.6,0.1,1.1,0.3,1.6
		s0.5,0.8,0.9,1.1s0.9,0.4,1.4,0.4c0.4,0,0.7-0.1,1-0.2c0.3-0.1,0.6-0.3,0.8-0.4l0.2,0.4c-0.2,0.1-0.5,0.3-0.9,0.4
		C154.1,161.4,153.7,161.4,153.2,161.4L153.2,161.4z M150.6,157.5h4.5c0-0.9-0.2-1.6-0.6-2.1c-0.4-0.4-0.9-0.7-1.5-0.7
		c-0.4,0-0.8,0.1-1.1,0.3s-0.6,0.5-0.9,0.9C150.8,156.5,150.6,157,150.6,157.5L150.6,157.5z"/>
	<path class="st5" d="M157.4,161.2v-6.7h0.4l0.1,1.3l0,0c0.2-0.4,0.5-0.8,0.8-1s0.7-0.4,1.1-0.4c0.1,0,0.2,0,0.3,0s0.2,0.1,0.3,0.1
		l-0.1,0.4c-0.1-0.1-0.2-0.1-0.3-0.1s-0.2,0-0.3,0c-0.3,0-0.6,0.1-1,0.4c-0.3,0.3-0.6,0.7-0.9,1.4v4.6H157.4L157.4,161.2z"/>
</g>
<g>
	<path class="st5" d="M219.4,161v-9.2h5.5v1.4H221v2.3h3.3v1.4H221v2.7h4v1.4L219.4,161L219.4,161z"/>
	<path class="st5" d="M228.4,161.2c-0.6,0-1.1-0.2-1.5-0.6s-0.6-0.9-0.6-1.5c0-0.7,0.3-1.3,1-1.7s1.7-0.7,3.1-0.8
		c0-0.4-0.1-0.7-0.3-0.9c-0.2-0.3-0.5-0.4-1-0.4c-0.3,0-0.7,0.1-1,0.2c-0.3,0.1-0.6,0.3-0.9,0.5l-0.6-1.1c0.4-0.2,0.8-0.4,1.3-0.6
		c0.5-0.2,1-0.3,1.5-0.3c0.9,0,1.5,0.2,1.9,0.8s0.6,1.2,0.6,2.2v4.1h-1.3l-0.1-0.8h-0.1c-0.3,0.3-0.6,0.5-1,0.7
		C229.2,161.1,228.8,161.2,228.4,161.2L228.4,161.2z M228.9,159.9c0.3,0,0.5-0.1,0.8-0.2c0.2-0.1,0.5-0.3,0.7-0.6v-1.5
		c-0.9,0.1-1.6,0.3-1.9,0.5c-0.4,0.2-0.6,0.5-0.6,0.9c0,0.3,0.1,0.5,0.3,0.7S228.6,160,228.9,159.9L228.9,159.9z"/>
	<path class="st5" d="M235.9,161.2c-0.5,0-0.9-0.1-1.4-0.3s-0.9-0.4-1.2-0.7l0.8-1c0.3,0.2,0.6,0.4,0.9,0.6c0.3,0.1,0.6,0.2,1,0.2
		s0.6-0.1,0.8-0.2c0.2-0.2,0.3-0.4,0.3-0.6c0-0.2-0.1-0.4-0.2-0.5c-0.1-0.1-0.3-0.2-0.6-0.3c-0.2-0.1-0.5-0.2-0.7-0.3
		c-0.3-0.1-0.6-0.2-0.9-0.4s-0.5-0.4-0.7-0.6c-0.2-0.3-0.3-0.6-0.3-1c0-0.6,0.2-1.1,0.7-1.5c0.4-0.4,1.1-0.6,1.8-0.6
		c0.5,0,0.9,0.1,1.3,0.2s0.7,0.4,1,0.6l-0.7,1c-0.2-0.2-0.5-0.3-0.7-0.4c-0.2-0.1-0.5-0.2-0.8-0.2c-0.4,0-0.6,0.1-0.8,0.2
		s-0.2,0.3-0.2,0.5c0,0.3,0.1,0.5,0.4,0.6s0.6,0.3,1,0.4c0.3,0.1,0.6,0.2,0.9,0.4s0.6,0.4,0.8,0.6s0.3,0.6,0.3,1
		c0,0.6-0.2,1.1-0.7,1.5C237.4,161,236.8,161.2,235.9,161.2z"/>
	<path class="st5" d="M240.5,163.9c-0.2,0-0.4,0-0.5,0s-0.3-0.1-0.4-0.1l0.3-1.3c0.1,0,0.1,0,0.2,0.1s0.2,0,0.3,0
		c0.4,0,0.7-0.1,0.9-0.3s0.4-0.5,0.5-0.9l0.1-0.4l-2.7-6.8h1.6l1.2,3.4c0.1,0.3,0.2,0.6,0.3,0.9s0.2,0.7,0.3,1h0.1
		c0.1-0.3,0.2-0.6,0.3-1s0.2-0.6,0.3-1l1-3.4h1.6l-2.5,7.2c-0.3,0.8-0.6,1.4-1.1,1.8S241.2,163.8,240.5,163.9L240.5,163.9z"/>
	<path class="st5" d="M252.1,161.2c-0.8,0-1.4-0.2-1.7-0.7s-0.5-1.1-0.5-1.8v-3.3h-1v-1.2l1.1-0.1l0.2-1.9h1.3v1.9h1.8v1.3h-1.8v3.3
		c0,0.8,0.3,1.2,1,1.2c0.1,0,0.2,0,0.4-0.1s0.2-0.1,0.3-0.1l0.3,1.2c-0.2,0.1-0.4,0.1-0.6,0.2S252.4,161.2,252.1,161.2L252.1,161.2z
		"/>
	<path class="st5" d="M257.4,161.2c-0.6,0-1.1-0.1-1.6-0.4s-0.9-0.7-1.2-1.2s-0.5-1.2-0.5-1.9s0.1-1.4,0.5-1.9
		c0.3-0.5,0.7-0.9,1.2-1.2s1-0.4,1.6-0.4s1.1,0.1,1.6,0.4s0.9,0.7,1.2,1.2c0.3,0.5,0.5,1.2,0.5,1.9s-0.1,1.4-0.5,1.9
		s-0.7,0.9-1.2,1.2S257.9,161.2,257.4,161.2z M257.4,159.9c0.5,0,0.9-0.2,1.2-0.6s0.4-1,0.4-1.6s-0.1-1.2-0.4-1.7
		c-0.3-0.4-0.7-0.6-1.2-0.6s-0.9,0.2-1.2,0.6s-0.4,1-0.4,1.7s0.1,1.2,0.4,1.6C256.5,159.7,256.9,159.9,257.4,159.9z"/>
	<path class="st5" d="M265,161v-6.9h1.3l0.1,1.2h0.1c0.2-0.4,0.5-0.8,0.9-1s0.7-0.4,1.1-0.4c0.3,0,0.6,0.1,0.8,0.1l-0.3,1.4
		c-0.1,0-0.2-0.1-0.3-0.1c-0.1,0-0.2,0-0.4,0c-0.3,0-0.6,0.1-0.9,0.3s-0.6,0.6-0.8,1.1v4.2L265,161L265,161z"/>
	<path class="st5" d="M273.1,161.2c-0.6,0-1.2-0.1-1.7-0.4s-0.9-0.7-1.2-1.2s-0.5-1.2-0.5-1.9s0.1-1.4,0.5-1.9s0.7-1,1.2-1.2
		c0.5-0.3,1-0.4,1.5-0.4c0.6,0,1.1,0.1,1.6,0.4s0.7,0.7,1,1.1s0.3,1.1,0.3,1.7c0,0.3,0,0.6-0.1,0.8h-4.4c0.1,0.6,0.3,1.1,0.7,1.4
		c0.4,0.3,0.8,0.5,1.4,0.5c0.3,0,0.6,0,0.8-0.1s0.5-0.2,0.8-0.4l0.5,1c-0.3,0.2-0.7,0.4-1.1,0.5S273.5,161.2,273.1,161.2
		L273.1,161.2z M271.2,156.9h3c0-0.5-0.1-0.9-0.4-1.2s-0.6-0.5-1-0.5s-0.8,0.1-1.1,0.4C271.5,156,271.3,156.4,271.2,156.9z"/>
	<path class="st5" d="M277.2,161v-6.9h1.3l0.1,0.9h0.1c0.3-0.3,0.6-0.6,1-0.8c0.3-0.2,0.7-0.3,1.2-0.3s0.9,0.1,1.2,0.3
		s0.5,0.5,0.7,0.9c0.3-0.4,0.7-0.6,1-0.9s0.8-0.4,1.2-0.4c0.7,0,1.3,0.2,1.6,0.7c0.4,0.5,0.5,1.1,0.5,2v4.3h-1.6v-4.1
		c0-0.6-0.1-1-0.3-1.2s-0.4-0.4-0.8-0.4s-0.9,0.3-1.4,0.9v4.8h-1.6v-4.1c0-0.6-0.1-1-0.3-1.2s-0.4-0.4-0.8-0.4s-0.9,0.3-1.4,0.9v4.8
		L277.2,161L277.2,161z"/>
	<path class="st5" d="M292,161.2c-0.6,0-1.2-0.1-1.7-0.4s-0.9-0.7-1.2-1.2s-0.5-1.2-0.5-1.9s0.1-1.4,0.5-1.9c0.3-0.5,0.7-1,1.2-1.2
		c0.5-0.3,1-0.4,1.5-0.4c0.6,0,1.1,0.1,1.6,0.4s0.7,0.7,1,1.1s0.3,1.1,0.3,1.7c0,0.3,0,0.6-0.1,0.8h-4.4c0.1,0.6,0.3,1.1,0.7,1.4
		s0.8,0.5,1.4,0.5c0.3,0,0.6,0,0.8-0.1s0.5-0.2,0.8-0.4l0.5,1c-0.3,0.2-0.7,0.4-1.1,0.5S292.4,161.2,292,161.2L292,161.2z
		 M290.1,156.9h3c0-0.5-0.1-0.9-0.4-1.2s-0.6-0.5-1-0.5s-0.8,0.1-1.1,0.4C290.4,156,290.2,156.4,290.1,156.9z"/>
	<path class="st5" d="M296.1,161v-6.9h1.3l0.1,0.9h0.1c0.3-0.3,0.6-0.6,1-0.8c0.3-0.2,0.7-0.3,1.2-0.3s0.9,0.1,1.2,0.3
		s0.5,0.5,0.7,0.9c0.3-0.4,0.7-0.6,1-0.9s0.8-0.4,1.2-0.4c0.7,0,1.3,0.2,1.6,0.7c0.4,0.5,0.5,1.1,0.5,2v4.3h-1.6v-4.1
		c0-0.6-0.1-1-0.3-1.2s-0.4-0.4-0.8-0.4s-0.9,0.3-1.4,0.9v4.8h-1.6v-4.1c0-0.6-0.1-1-0.3-1.2s-0.4-0.4-0.8-0.4s-0.9,0.3-1.4,0.9v4.8
		L296.1,161L296.1,161z"/>
	<path class="st5" d="M311.2,161.2c-0.6,0-1.3-0.3-1.9-0.9l0,0l-0.1,0.7h-1.3v-9.9h1.6v2.6v1.1c0.3-0.2,0.6-0.5,1-0.6
		c0.3-0.2,0.7-0.2,1-0.2c0.9,0,1.5,0.3,2,0.9c0.5,0.6,0.7,1.5,0.7,2.5c0,0.8-0.1,1.4-0.4,2s-0.6,1-1.1,1.3S311.8,161.2,311.2,161.2
		L311.2,161.2z M310.9,159.9c0.5,0,0.8-0.2,1.1-0.6c0.3-0.4,0.5-1,0.5-1.8c0-0.7-0.1-1.2-0.4-1.6s-0.6-0.6-1.1-0.6s-1,0.3-1.5,0.8
		v3.2c0.2,0.2,0.5,0.4,0.7,0.4S310.7,159.9,310.9,159.9L310.9,159.9z"/>
	<path class="st5" d="M318.7,161.2c-0.6,0-1.2-0.1-1.7-0.4s-0.9-0.7-1.2-1.2s-0.5-1.2-0.5-1.9s0.1-1.4,0.5-1.9
		c0.3-0.5,0.7-1,1.2-1.2c0.5-0.3,1-0.4,1.5-0.4c0.6,0,1.1,0.1,1.6,0.4s0.7,0.7,1,1.1s0.3,1.1,0.3,1.7c0,0.3,0,0.6-0.1,0.8h-4.4
		c0.1,0.6,0.3,1.1,0.7,1.4s0.8,0.5,1.4,0.5c0.3,0,0.6,0,0.8-0.1s0.5-0.2,0.8-0.4l0.5,1c-0.3,0.2-0.7,0.4-1.1,0.5
		S319.2,161.2,318.7,161.2L318.7,161.2z M316.9,156.9h3c0-0.5-0.1-0.9-0.4-1.2s-0.6-0.5-1-0.5s-0.8,0.1-1.1,0.4
		C317.2,156,317,156.4,316.9,156.9z"/>
	<path class="st5" d="M322.9,161v-6.9h1.3l0.1,1.2h0.1c0.2-0.4,0.5-0.8,0.9-1s0.7-0.4,1.1-0.4c0.3,0,0.6,0.1,0.8,0.1l-0.3,1.4
		c-0.1,0-0.2-0.1-0.3-0.1s-0.2,0-0.4,0c-0.3,0-0.6,0.1-0.9,0.3s-0.5,0.6-0.8,1.1v4.2L322.9,161L322.9,161z"/>
</g>
</svg>
