<?xml version="1.0" encoding="utf-8"?>
<!-- Generator: Adobe Illustrator 26.2.1, SVG Export Plug-In . SVG Version: 6.00 Build 0)  -->
<svg version="1.1" id="a" xmlns="http://www.w3.org/2000/svg" xmlns:xlink="http://www.w3.org/1999/xlink" x="0px" y="0px"
	 viewBox="0 0 818.5 898.3" style="enable-background:new 0 0 818.5 898.3;" xml:space="preserve">
<style type="text/css">
	.st0{fill:#D7DF23;}
	.st1{opacity:0.2;fill:#D7DF23;enable-background:new    ;}
	.st2{fill:none;stroke:#ED1C24;stroke-miterlimit:10;}
	.st3{opacity:0.1;fill:#ED1C24;enable-background:new    ;}
	.st4{fill:none;stroke:#231F20;stroke-width:0.25;stroke-linejoin:round;}
	.st5{fill:none;stroke:#231F20;stroke-width:0.5;stroke-miterlimit:10;}
</style>
<rect x="222.3" y="25.2" class="st0" width="390" height="47"/>
<rect x="222.3" y="25.2" class="st1" width="390" height="143"/>
<rect x="222.3" y="835.2" class="st0" width="390" height="34"/>
<rect x="222.3" y="25.2" class="st2" width="390" height="844"/>
<rect x="221.8" y="25.2" class="st3" width="16" height="844"/>
<rect x="596.8" y="25.2" class="st3" width="16" height="844"/>
<path class="st4" d="M265.3,25.2h304c23.8,0,43,19.3,43,43v758c0,23.8-19.3,43-43,43h-304c-23.8,0-43-19.3-43-43v-758
	C222.3,44.5,241.6,25.2,265.3,25.2z"/>
<path class="st5" d="M378,36h78.7c8.1,0,14.7,6.6,14.7,14.6l0,0c0,8.1-6.6,14.6-14.7,14.6H378c-8.1,0-14.7-6.6-14.7-14.6l0,0
	C363.3,42.6,369.9,36,378,36z"/>
<path class="st5" d="M359.7,857.4h139.8c1.3,0,2.3,1.1,2.3,2.3l0,0c0,1.3-1.1,2.3-2.3,2.3H359.7c-1.3,0-2.3-1.1-2.3-2.3l0,0
	C357.3,858.5,358.4,857.4,359.7,857.4z"/>
</svg>
