<?xml version="1.0" encoding="utf-8"?>
<!-- Generator: Adobe Illustrator 26.2.1, SVG Export Plug-In . SVG Version: 6.00 Build 0)  -->
<svg version="1.1" id="a" xmlns="http://www.w3.org/2000/svg" xmlns:xlink="http://www.w3.org/1999/xlink" x="0px" y="0px"
	 viewBox="0 0 2229.4 2200.9" style="enable-background:new 0 0 2229.4 2200.9;" xml:space="preserve">
<style type="text/css">
	.st0{opacity:0.1;fill:#662D91;enable-background:new    ;}
	.st1{opacity:0.2;fill:#D7DF23;enable-background:new    ;}
	.st2{opacity:0.1;fill:#ED1C24;enable-background:new    ;}
	.st3{fill:none;stroke:#ED1C24;stroke-miterlimit:10;}
	.st4{fill:none;stroke:#231F20;stroke-width:0.25;stroke-linejoin:round;}
	.st5{fill:none;stroke:#231F20;stroke-width:0.5;stroke-miterlimit:10;}
	.st6{fill:#FFFFFF;stroke:#231F20;stroke-width:0.5;stroke-miterlimit:10;}
</style>
<rect x="25.3" y="1837.4" class="st0" width="844" height="218"/>
<rect x="25.2" y="1665.4" class="st1" width="844" height="44"/>
<rect x="25.2" y="1985.4" class="st1" width="844" height="70"/>
<rect x="25.3" y="1665.4" class="st2" width="131" height="390"/>
<rect x="738.3" y="1665.4" class="st2" width="131" height="390"/>
<rect x="25.3" y="1665.4" class="st2" width="63" height="390"/>
<rect x="806.3" y="1665.4" class="st2" width="63" height="390"/>
<rect x="25.3" y="1665.4" class="st3" width="844" height="390"/>
<path class="st4" d="M25.3,2012.4v-304c0-23.8,19.3-43,43-43h758c23.8,0,43,19.3,43,43v304c0,23.8-19.3,43-43,43h-758
	C44.5,2055.4,25.3,2036.2,25.3,2012.4z"/>
<path class="st5" d="M36,1899.8V1821c0-8.1,6.6-14.7,14.6-14.7l0,0c8.1,0,14.6,6.6,14.6,14.7v78.7c0,8.1-6.6,14.7-14.6,14.7l0,0
	C42.6,1914.4,36,1907.9,36,1899.8z"/>
<path class="st6" d="M357.3,2042.4h179.9c1.3,0,2.3,1.1,2.3,2.3l0,0c0,1.3-1.1,2.3-2.3,2.3H357.3c-1.3,0-2.4-1.1-2.4-2.3l0,0
	C355,2043.5,356,2042.4,357.3,2042.4z"/>
</svg>
