<?xml version="1.0" encoding="utf-8"?>
<!-- Generator: Adobe Illustrator 26.2.1, SVG Export Plug-In . SVG Version: 6.00 Build 0)  -->
<svg version="1.1" id="Layer_1" xmlns="http://www.w3.org/2000/svg" xmlns:xlink="http://www.w3.org/1999/xlink" x="0px" y="0px"
	 viewBox="0 0 2646 1233.4" style="enable-background:new 0 0 2646 1233.4;" xml:space="preserve">
<style type="text/css">
	.st0{fill:none;}
	.st1{fill:none;stroke:#DA1B5D;stroke-width:1.2;}
	.st2{fill:none;stroke:#F79520;stroke-width:0.72;}
	.st3{fill:#FFFFFF;}
	.st4{fill:none;stroke:#ED1C24;stroke-width:0.75;stroke-miterlimit:10;}
	.st5{fill:none;stroke:#231F20;stroke-width:0.75;stroke-miterlimit:10;}
	.st6{opacity:0.6;}
	.st7{fill:#E54125;}
	.st8{fill:#F5A721;}
	.st9{fill:#84C441;}
	.st10{opacity:0.2;fill:#E54125;enable-background:new    ;}
	.st11{opacity:0.2;fill:#F5A721;enable-background:new    ;}
	.st12{opacity:0.2;fill:#84C441;enable-background:new    ;}
	.st13{fill:none;stroke:#000000;stroke-width:2.5;stroke-miterlimit:10;}
	.st14{fill:#FFFFFF;stroke:#000000;stroke-width:2.5;stroke-miterlimit:10;}
	.st15{fill:none;stroke:#231F20;stroke-width:4;stroke-miterlimit:10;}
	.st16{fill:#231F20;}
	.st17{opacity:0.6;fill:none;stroke:#DA1C5C;stroke-width:1.5;stroke-miterlimit:10;enable-background:new    ;}
	.st18{opacity:0.6;fill:none;stroke:#F7941D;stroke-width:1.5;stroke-miterlimit:10;enable-background:new    ;}
	.st19{opacity:0.6;fill:url(#SVGID_1_);stroke:#DA1C5C;stroke-width:1.5;stroke-miterlimit:10;enable-background:new    ;}
	
		.st20{opacity:0.6;fill:url(#SVGID_00000044856105928879861690000014733352623276936879_);stroke:#F7941D;stroke-width:1.5;stroke-miterlimit:10;enable-background:new    ;}
</style>
<pattern  y="1233.4" width="72" height="72" patternUnits="userSpaceOnUse" id="c" viewBox="72.2 -72 72 72" style="overflow:visible;">
	<g>
		<rect x="72.2" y="-72" class="st0" width="72" height="72"/>
		<g>
			<rect x="72.2" y="-72" class="st0" width="72" height="72"/>
			<g>
				<line class="st1" x1="144" y1="-66" x2="216.5" y2="-66"/>
				<line class="st1" x1="144" y1="-42" x2="216.5" y2="-42"/>
				<line class="st1" x1="144" y1="-18" x2="216.5" y2="-18"/>
				<line class="st1" x1="144" y1="-54" x2="216.5" y2="-54"/>
				<line class="st1" x1="144" y1="-30" x2="216.5" y2="-30"/>
				<line class="st1" x1="144" y1="-6" x2="216.5" y2="-6"/>
			</g>
			<g>
				<line class="st1" x1="72" y1="-66" x2="144.5" y2="-66"/>
				<line class="st1" x1="72" y1="-42" x2="144.5" y2="-42"/>
				<line class="st1" x1="72" y1="-18" x2="144.5" y2="-18"/>
				<line class="st1" x1="72" y1="-54" x2="144.5" y2="-54"/>
				<line class="st1" x1="72" y1="-30" x2="144.5" y2="-30"/>
				<line class="st1" x1="72" y1="-6" x2="144.5" y2="-6"/>
			</g>
			<g>
				<line class="st1" x1="0" y1="-66" x2="72.5" y2="-66"/>
				<line class="st1" x1="0" y1="-42" x2="72.5" y2="-42"/>
				<line class="st1" x1="0" y1="-18" x2="72.5" y2="-18"/>
				<line class="st1" x1="0" y1="-54" x2="72.5" y2="-54"/>
				<line class="st1" x1="0" y1="-30" x2="72.5" y2="-30"/>
				<line class="st1" x1="0" y1="-6" x2="72.5" y2="-6"/>
			</g>
		</g>
	</g>
</pattern>
<pattern  y="1233.4" width="72" height="72" patternUnits="userSpaceOnUse" id="d" viewBox="72.2 -72 72 72" style="overflow:visible;">
	<g>
		<rect x="72.2" y="-72" class="st0" width="72" height="72"/>
		<g>
			<rect x="72.2" y="-72" class="st0" width="72" height="72"/>
			<g>
				<line class="st2" x1="144" y1="-68.4" x2="216.5" y2="-68.4"/>
				<line class="st2" x1="144" y1="-54" x2="216.5" y2="-54"/>
				<line class="st2" x1="144" y1="-39.6" x2="216.5" y2="-39.6"/>
				<line class="st2" x1="144" y1="-25.2" x2="216.5" y2="-25.2"/>
				<line class="st2" x1="144" y1="-10.8" x2="216.5" y2="-10.8"/>
				<line class="st2" x1="144" y1="-61.2" x2="216.5" y2="-61.2"/>
				<line class="st2" x1="144" y1="-46.8" x2="216.5" y2="-46.8"/>
				<line class="st2" x1="144" y1="-32.4" x2="216.5" y2="-32.4"/>
				<line class="st2" x1="144" y1="-18" x2="216.5" y2="-18"/>
				<line class="st2" x1="144" y1="-3.6" x2="216.5" y2="-3.6"/>
			</g>
			<g>
				<line class="st2" x1="72" y1="-68.4" x2="144.5" y2="-68.4"/>
				<line class="st2" x1="72" y1="-54" x2="144.5" y2="-54"/>
				<line class="st2" x1="72" y1="-39.6" x2="144.5" y2="-39.6"/>
				<line class="st2" x1="72" y1="-25.2" x2="144.5" y2="-25.2"/>
				<line class="st2" x1="72" y1="-10.8" x2="144.5" y2="-10.8"/>
				<line class="st2" x1="72" y1="-61.2" x2="144.5" y2="-61.2"/>
				<line class="st2" x1="72" y1="-46.8" x2="144.5" y2="-46.8"/>
				<line class="st2" x1="72" y1="-32.4" x2="144.5" y2="-32.4"/>
				<line class="st2" x1="72" y1="-18" x2="144.5" y2="-18"/>
				<line class="st2" x1="72" y1="-3.6" x2="144.5" y2="-3.6"/>
			</g>
			<g>
				<line class="st2" x1="0" y1="-68.4" x2="72.5" y2="-68.4"/>
				<line class="st2" x1="0" y1="-54" x2="72.5" y2="-54"/>
				<line class="st2" x1="0" y1="-39.6" x2="72.5" y2="-39.6"/>
				<line class="st2" x1="0" y1="-25.2" x2="72.5" y2="-25.2"/>
				<line class="st2" x1="0" y1="-10.8" x2="72.5" y2="-10.8"/>
				<line class="st2" x1="0" y1="-61.2" x2="72.5" y2="-61.2"/>
				<line class="st2" x1="0" y1="-46.8" x2="72.5" y2="-46.8"/>
				<line class="st2" x1="0" y1="-32.4" x2="72.5" y2="-32.4"/>
				<line class="st2" x1="0" y1="-18" x2="72.5" y2="-18"/>
				<line class="st2" x1="0" y1="-3.6" x2="72.5" y2="-3.6"/>
			</g>
		</g>
	</g>
</pattern>
<path class="st3" d="M2021.8,455.9c6.9,2.3,17.5,6.8,27.8,15.5c15.9,13.4,17.4,25.2,35,50.5c12.7,18.2,19,27.2,29.9,35
	c21.6,15.5,36.7,19.3,54.6,35c5,4.4,9.7,1.5,19.6,22.7c14.7,31.5,18.5,52.9,33,111.3c9.7,39.1,11,41.7,14.4,59.8
	c3.6,18.6,7.1,41.6,9.3,68c2.6,32.3,1.4,47.4,2.1,63.9c1.8,44.1,16.2,76.5,35,118.5c15.3,34.3,25.2,44.9,35.2,63.7l0,0
	c2.9,5.6-8.2,28.3-20,45.9c-18.7,27.9-42.6,41.4-61.9,51.9c-19.6,10.7-41.7,16.5-85.9,28c-21.4,5.6-33.2,7.7-47.9,6
	c-19.6-2.2-32.8-4.4-43.9-18.5c-28.4-37.6,1.4,2.4-16.7-22.5c-59.7-82.4-21-33.5-71.1-105.1c-14.4-20.6-36.2-51.2-39.2-79.3
	c-0.3-2.9-0.8-9.5-4.1-17.5c-6.1-14.9-14.1-15.8-28.8-33c-11.4-13.3-11.5-18.4-26.8-35c-7.7-8.4-18.1-16.8-28.8-15.5l0,0
	c-8.3,1.2-20.6-0.5-35.4-4.5c-16.7-4.6-19.6-8.3-34.7-10.9c-16.3-2.8-17.4,1.5-37.9,0.1c-14.1-0.9-16.3-2-34.2-5.2
	c-25.3-4.6-28.4-1.1-54.4-5c-17.5-2.6-40.9-3.5-57.2-12.5c-5.1-2.8-18.3-13.2-19.4-31.3c-0.2-3.1-0.9-12.7,7-22.6
	c8.6-10.9,37-15.2,54.8-15"/>
<polyline class="st3" points="1631,798.1 1631,853.5 2021.5,853.5 2021.8,455.9 "/>
<rect x="2114.3" y="102.4" class="st3" width="33.7" height="33.7"/>
<rect x="2114.3" y="57.1" class="st3" width="33.7" height="33.7"/>
<rect x="2114.3" y="147.7" class="st3" width="33.7" height="33.7"/>
<rect x="276.9" y="3" class="st3" width="390.5" height="850.6"/>
<rect x="970.9" y="3" class="st3" width="390.5" height="850.6"/>
<rect x="1631" y="3" class="st3" width="390.7" height="850.6"/>
<g>
	<line class="st4" x1="666.9" y1="853.5" x2="666.9" y2="901.2"/>
	<g>
		<line class="st4" x1="277.7" y1="877.4" x2="666.1" y2="877.4"/>
		<polygon points="280.2,880.4 280.7,879.9 278,877.4 280.7,874.8 280.2,874.3 276.9,877.4 		"/>
		<polygon points="663.6,880.4 663.1,879.9 665.8,877.4 663.1,874.8 663.6,874.3 666.9,877.4 		"/>
	</g>
	<line class="st4" x1="276.9" y1="901.2" x2="276.9" y2="853.5"/>
</g>
<g>
	<path class="st3" d="M446.6,936c-0.8,0-1.5-0.1-2.1-0.3c-0.6-0.2-1.1-0.5-1.6-0.8s-0.8-0.7-1.2-1l0.6-0.7c0.5,0.5,1,1,1.7,1.4
		s1.5,0.6,2.6,0.6s1.9-0.3,2.6-0.9c0.7-0.6,1-1.4,1-2.5s-0.4-1.9-1.2-2.6c-0.8-0.7-2.2-1-4.1-1v-0.9c1.2,0,2.1-0.2,2.8-0.4
		s1.2-0.7,1.5-1.2s0.5-1.1,0.5-1.7c0-0.9-0.3-1.6-0.8-2.1s-1.3-0.8-2.3-0.8c-0.7,0-1.4,0.2-2,0.5s-1.1,0.7-1.6,1.2l-0.6-0.7
		c0.5-0.5,1.1-1,1.8-1.3s1.5-0.5,2.3-0.5c0.8,0,1.5,0.1,2.1,0.4s1.1,0.7,1.5,1.3s0.5,1.2,0.5,2c0,1-0.3,1.8-0.8,2.4
		s-1.2,1.1-2.1,1.4v0.1c0.6,0.1,1.2,0.4,1.7,0.7s0.9,0.8,1.3,1.4s0.5,1.2,0.5,1.9c0,0.9-0.2,1.7-0.6,2.3s-1,1.2-1.7,1.5
		C448.2,935.8,447.4,936,446.6,936L446.6,936z"/>
	<path class="st3" d="M457.1,936c-0.7,0-1.3-0.1-1.9-0.4s-1-0.6-1.4-1.1l0.6-0.7c0.3,0.4,0.7,0.7,1.2,1c0.5,0.2,0.9,0.3,1.4,0.3
		c0.8,0,1.6-0.2,2.3-0.7s1.2-1.3,1.7-2.4c0.4-1.1,0.6-2.6,0.6-4.5c-0.5,0.6-1.1,1.2-1.8,1.5c-0.7,0.4-1.4,0.6-2.1,0.6
		c-1.3,0-2.4-0.4-3.1-1.2s-1.1-2-1.1-3.5c0-0.9,0.2-1.8,0.6-2.5c0.4-0.7,0.9-1.3,1.5-1.7s1.3-0.6,2.1-0.6c1.5,0,2.7,0.6,3.6,1.9
		c0.9,1.2,1.4,3,1.4,5.4c0,2.1-0.3,3.8-0.8,5.1s-1.2,2.2-2.1,2.7C459,935.7,458.1,936,457.1,936L457.1,936z M454.6,924.9
		c0,1.1,0.3,2,0.8,2.8c0.5,0.7,1.4,1.1,2.5,1.1c0.6,0,1.2-0.2,1.8-0.5s1.3-1,1.9-1.8c-0.1-1.6-0.5-2.9-1.1-3.9s-1.6-1.5-2.8-1.5
		c-0.6,0-1.1,0.2-1.6,0.5c-0.5,0.3-0.8,0.8-1.1,1.4C454.7,923.5,454.6,924.1,454.6,924.9L454.6,924.9z"/>
	<path class="st3" d="M469.7,936c-1.5,0-2.6-0.7-3.4-2.1c-0.8-1.4-1.2-3.4-1.2-5.9s0.4-4.5,1.2-5.9c0.8-1.4,1.9-2,3.4-2
		s2.6,0.7,3.4,2c0.8,1.4,1.2,3.3,1.2,5.9s-0.4,4.5-1.2,5.9S471.2,936,469.7,936z M469.7,935.1c1.1,0,1.9-0.6,2.6-1.8
		c0.6-1.2,1-3,1-5.3s-0.3-4.1-1-5.2s-1.5-1.7-2.6-1.7s-1.9,0.6-2.5,1.7s-1,2.9-1,5.2s0.3,4.1,1,5.3
		C467.8,934.5,468.7,935.1,469.7,935.1z"/>
	<path class="st3" d="M482.5,940.9v-16.7h0.9l0.1,1.4h0.1c0.6-0.5,1.2-0.8,1.9-1.2c0.7-0.3,1.4-0.5,2.1-0.5c1.5,0,2.7,0.5,3.5,1.6
		c0.8,1.1,1.1,2.5,1.1,4.3c0,1.3-0.2,2.4-0.7,3.3s-1.1,1.6-1.9,2.1s-1.6,0.7-2.5,0.7c-0.5,0-1.1-0.1-1.7-0.4s-1.2-0.6-1.8-1v6.3
		L482.5,940.9L482.5,940.9z M486.9,935.1c0.8,0,1.5-0.2,2.1-0.7c0.6-0.5,1.1-1.1,1.4-1.9c0.3-0.8,0.5-1.7,0.5-2.8
		c0-0.9-0.1-1.8-0.4-2.5c-0.2-0.7-0.6-1.3-1.2-1.8c-0.5-0.4-1.2-0.7-2.1-0.7c-0.6,0-1.2,0.2-1.8,0.5c-0.6,0.3-1.3,0.8-2,1.4v6.8
		c0.7,0.5,1.3,0.9,1.9,1.2C486,934.9,486.5,935.1,486.9,935.1L486.9,935.1z"/>
	<path class="st3" d="M493.4,935.7l3.9-6l-3.6-5.5h1.2l1.9,2.9c0.2,0.3,0.4,0.6,0.6,0.9l0.6,1h0.1c0.2-0.3,0.4-0.6,0.6-1
		c0.2-0.3,0.4-0.6,0.6-0.9l1.8-2.9h1.1l-3.6,5.6l3.9,5.9h-1.2l-2-3.1c-0.2-0.4-0.4-0.7-0.7-1.1c-0.2-0.3-0.5-0.7-0.7-1h-0.1
		c-0.2,0.3-0.4,0.7-0.7,1c-0.2,0.3-0.4,0.7-0.7,1.1l-2,3.1H493.4L493.4,935.7z"/>
</g>
<g>
	<line class="st4" x1="667.4" y1="3" x2="715.1" y2="3"/>
	<g>
		<line class="st4" x1="691.3" y1="852.7" x2="691.3" y2="3.8"/>
		<polygon points="694.3,850.2 693.8,849.7 691.3,852.4 688.7,849.7 688.2,850.2 691.3,853.5 		"/>
		<polygon points="694.3,6.3 693.8,6.8 691.3,4.1 688.7,6.8 688.2,6.3 691.3,3 		"/>
	</g>
	<line class="st4" x1="715.1" y1="853.5" x2="667.4" y2="853.5"/>
</g>
<g>
	<path class="st3" d="M739.8,455.9c-0.9,0-1.8-0.2-2.5-0.5s-1.3-0.9-1.7-1.5s-0.6-1.4-0.6-2.2c0-0.7,0.2-1.3,0.5-1.9s0.7-1,1.2-1.5
		c0.5-0.4,1-0.7,1.4-1v-0.1c-0.6-0.4-1.1-0.8-1.5-1.4s-0.7-1.3-0.7-2.1c0-0.7,0.2-1.4,0.5-2c0.4-0.6,0.8-1,1.5-1.3s1.3-0.5,2-0.5
		c1.3,0,2.3,0.4,3.1,1.1s1.1,1.7,1.1,2.9c0,0.6-0.1,1.1-0.4,1.6s-0.5,1-0.9,1.3c-0.3,0.4-0.7,0.7-1,1v0.1c0.5,0.3,0.9,0.6,1.3,0.9
		s0.7,0.8,1,1.2c0.3,0.5,0.4,1.1,0.4,1.8c0,0.7-0.2,1.4-0.6,2s-0.9,1.1-1.6,1.5C741.5,455.7,740.7,455.9,739.8,455.9L739.8,455.9z
		 M739.8,455c1.1,0,2-0.3,2.6-0.9c0.7-0.6,1-1.4,1-2.2c0-0.8-0.2-1.4-0.7-1.9s-1-0.9-1.7-1.2c-0.7-0.3-1.5-0.7-2.3-1
		c-0.8,0.5-1.4,1-1.9,1.6s-0.8,1.4-0.8,2.2c0,0.6,0.2,1.2,0.5,1.7s0.8,0.9,1.4,1.2S739,455,739.8,455L739.8,455z M740.9,447.6
		c0.7-0.5,1.2-1.1,1.5-1.7s0.5-1.2,0.5-1.9c0-0.9-0.3-1.6-0.8-2.2c-0.5-0.6-1.3-0.9-2.3-0.9c-0.8,0-1.5,0.3-2.1,0.8
		c-0.6,0.5-0.8,1.2-0.8,2c0,0.7,0.2,1.3,0.6,1.8c0.4,0.5,0.9,0.9,1.5,1.2C739.6,447,740.2,447.3,740.9,447.6L740.9,447.6z"/>
	<path class="st3" d="M752.9,455.6V451h-7.1v-0.6l7.1-10.1h1v9.8h2.3v0.9h-2.3v4.6H752.9z M747.1,450.1h5.8v-5.6c0-0.4,0-0.8,0-1.3
		c0-0.5,0-1,0.1-1.3h-0.1c-0.2,0.3-0.4,0.6-0.6,0.9s-0.4,0.6-0.7,1L747.1,450.1z"/>
	<path class="st3" d="M764.4,455.6V451h-7.1v-0.6l7.1-10.1h1v9.8h2.3v0.9h-2.3v4.6H764.4z M758.6,450.1h5.8v-5.6c0-0.4,0-0.8,0-1.3
		c0-0.5,0-1,0.1-1.3h-0.1c-0.2,0.3-0.4,0.6-0.6,0.9s-0.4,0.6-0.7,1L758.6,450.1z"/>
	<path class="st3" d="M775.5,460.8v-16.7h0.9l0.1,1.4h0.1c0.6-0.5,1.2-0.9,1.8-1.2s1.4-0.5,2.1-0.5c1.5,0,2.7,0.5,3.5,1.6
		c0.8,1.1,1.2,2.5,1.2,4.3c0,1.3-0.2,2.4-0.7,3.3s-1.1,1.6-1.9,2.1c-0.8,0.5-1.6,0.7-2.5,0.7c-0.5,0-1.1-0.1-1.7-0.4s-1.2-0.6-1.8-1
		v6.3L775.5,460.8L775.5,460.8z M779.9,455c0.8,0,1.5-0.2,2.1-0.7s1.1-1.1,1.4-1.9c0.3-0.8,0.5-1.7,0.5-2.8c0-0.9-0.1-1.8-0.4-2.5
		s-0.6-1.3-1.2-1.8c-0.5-0.4-1.2-0.6-2.1-0.6c-0.6,0-1.2,0.2-1.8,0.5s-1.3,0.8-2,1.4v6.8c0.7,0.5,1.3,0.9,1.9,1.1
		S779.5,454.9,779.9,455L779.9,455z"/>
	<path class="st3" d="M786.3,455.6l3.9-6l-3.6-5.5h1.2l1.9,2.9c0.2,0.3,0.4,0.6,0.6,0.9c0.2,0.3,0.4,0.6,0.6,1h0.1
		c0.2-0.3,0.4-0.6,0.6-1c0.2-0.3,0.4-0.6,0.6-0.9l1.8-2.9h1.1l-3.6,5.6l3.9,5.9h-1.2l-2-3.1c-0.2-0.4-0.4-0.7-0.7-1.1
		c-0.2-0.4-0.5-0.7-0.7-1h-0.1c-0.2,0.3-0.4,0.7-0.7,1s-0.4,0.7-0.7,1.1l-2,3.1H786.3L786.3,455.6z"/>
</g>
<rect x="276.9" y="3" class="st5" width="390.5" height="850.6"/>
<g class="st6">
	<rect x="1630.3" y="3" class="st7" width="391.2" height="850.6"/>
	<path class="st8" d="M1630.3,315.2v412.9c0,0,165.9,45.5,192.3,41.7c26.4-3.8,44.3-17,68.8-38.8s44.3-44.5,53.7-56.8
		c9.4-12.3,28.3-58.9,31.1-73c2.8-14.1,2.8-38.7,0-47.3s-1.8-21.9,1.2-27.2c6.6-11.4,17.6-24,25.2-35.4
		c7.5-11.4,18.8-25.6,18.8-25.6V130.5c0,0-103.2,3.7-179.1,32.2c-70.9,26.6-139.7,53.6-180.1,106.1
		C1630.4,310.4,1630.3,315.2,1630.3,315.2L1630.3,315.2z"/>
	<path class="st9" d="M1630.3,774V454.6c0,0,8.9-18.4,77.8-43.6c62.3-22.8,48.5-19.7,116.1-28.9c52.8-7.1,76.4,0.7,97.7,16.5
		c27.4,20.4,29.7,31.8,30.2,50.2c0.4,16.1,0.9,26.5-14.2,49.3c-15.1,22.8-28.4,41.1-51.9,67.3c-31.6,35.2-32.6,43-59,107.6
		c-22.3,54.6-16.6,63.9-13.2,78.2c5.6,24,5.9,34.1-22.6,54c-27.4,19.2-38.1,18.7-65.7,15.1C1675.1,813.8,1630.3,774,1630.3,774
		L1630.3,774z"/>
</g>
<g>
	<path class="st3" d="M2177.5,80V64.2h1.1l6.7,11.2l1.8,3.1h0.1c0-0.8,0-1.5-0.1-2.3c0-0.8-0.1-1.5-0.1-2.3v-9.7h1.1V80h-1.1
		l-6.7-11.2l-1.8-3.1h-0.1c0,0.8,0.1,1.5,0.1,2.2c0,0.7,0.1,1.5,0.1,2.3v9.8L2177.5,80L2177.5,80z"/>
	<path class="st3" d="M2195.1,80.3c-0.9,0-1.7-0.3-2.4-0.8s-1-1.3-1-2.4c0-1.3,0.6-2.2,1.8-2.9c1.2-0.7,3.1-1.1,5.6-1.4
		c0-0.6-0.1-1.2-0.2-1.7c-0.1-0.6-0.4-1-0.8-1.4c-0.4-0.4-1-0.6-1.7-0.6s-1.5,0.2-2.1,0.5c-0.6,0.3-1.2,0.6-1.6,0.9l-0.5-0.8
		c0.3-0.2,0.6-0.4,1.1-0.6s0.9-0.4,1.5-0.6c0.6-0.2,1.1-0.2,1.8-0.2c0.9,0,1.6,0.2,2.2,0.6s0.9,0.9,1.1,1.6c0.2,0.7,0.4,1.4,0.4,2.2
		V80h-0.9l-0.1-1.5h-0.1c-0.6,0.5-1.2,0.9-1.9,1.2S2195.9,80.3,2195.1,80.3L2195.1,80.3z M2195.3,79.4c0.7,0,1.3-0.2,1.9-0.5
		c0.6-0.3,1.3-0.8,2-1.4v-3.9c-1.6,0.2-2.8,0.4-3.8,0.7c-0.9,0.3-1.6,0.7-2,1.1s-0.6,1-0.6,1.6c0,0.8,0.2,1.4,0.7,1.8
		C2194.1,79.2,2194.7,79.4,2195.3,79.4L2195.3,79.4z"/>
	<path class="st3" d="M2207.3,80.3c-1.1,0-1.9-0.3-2.3-1c-0.4-0.7-0.6-1.5-0.6-2.5v-7.4h-1.8v-0.8l1.8-0.1l0.1-3.3h0.9v3.3h3.3v0.9
		h-3.3v7.5c0,0.7,0.1,1.3,0.4,1.8c0.3,0.4,0.8,0.7,1.6,0.7c0.2,0,0.5,0,0.7-0.1s0.5-0.2,0.7-0.2l0.3,0.9c-0.3,0.1-0.7,0.2-1,0.3
		C2207.8,80.3,2207.5,80.3,2207.3,80.3L2207.3,80.3z"/>
	<path class="st3" d="M2214.9,80.3c-1.2,0-2.1-0.4-2.6-1.1c-0.6-0.7-0.9-1.8-0.9-3.3v-7.4h1.1v7.2c0,1.2,0.2,2.1,0.6,2.7
		c0.4,0.6,1.1,0.9,2,0.9c0.7,0,1.3-0.2,1.9-0.6c0.6-0.4,1.2-1,1.9-1.8v-8.5h1.1V80h-0.9l-0.1-1.9h-0.1c-0.6,0.7-1.1,1.2-1.8,1.6
		S2215.7,80.3,2214.9,80.3L2214.9,80.3z"/>
	<path class="st3" d="M2224.3,80V68.5h0.9l0.1,2.1h0.1c0.4-0.7,0.9-1.3,1.4-1.7c0.6-0.5,1.2-0.7,1.9-0.7c0.2,0,0.4,0,0.6,0.1
		c0.2,0,0.4,0.1,0.6,0.2l-0.2,1c-0.2-0.1-0.4-0.1-0.5-0.2c-0.1,0-0.3,0-0.6,0c-0.5,0-1.1,0.2-1.6,0.7s-1.1,1.2-1.5,2.3V80
		C2225.4,80,2224.3,80,2224.3,80z"/>
	<path class="st3" d="M2233.9,80.3c-0.9,0-1.7-0.3-2.4-0.8s-1-1.3-1-2.4c0-1.3,0.6-2.2,1.8-2.9c1.2-0.7,3.1-1.1,5.6-1.4
		c0-0.6-0.1-1.2-0.2-1.7c-0.1-0.6-0.4-1-0.8-1.4c-0.4-0.4-1-0.6-1.7-0.6s-1.5,0.2-2.1,0.5c-0.6,0.3-1.2,0.6-1.6,0.9l-0.5-0.8
		c0.3-0.2,0.6-0.4,1.1-0.6s0.9-0.4,1.5-0.6c0.6-0.2,1.1-0.2,1.8-0.2c0.9,0,1.6,0.2,2.2,0.6s0.9,0.9,1.1,1.6c0.2,0.7,0.4,1.4,0.4,2.2
		V80h-0.9l-0.1-1.5h-0.1c-0.6,0.5-1.2,0.9-1.9,1.2S2234.7,80.3,2233.9,80.3L2233.9,80.3z M2234.1,79.4c0.7,0,1.3-0.2,1.9-0.5
		c0.6-0.3,1.3-0.8,2-1.4v-3.9c-1.6,0.2-2.8,0.4-3.8,0.7c-0.9,0.3-1.6,0.7-2,1.1s-0.6,1-0.6,1.6c0,0.8,0.2,1.4,0.7,1.8
		C2232.9,79.2,2233.5,79.4,2234.1,79.4L2234.1,79.4z"/>
	<path class="st3" d="M2244.6,80.3c-0.9,0-1.4-0.6-1.4-1.8V62.8h1.1v15.9c0,0.5,0.2,0.7,0.5,0.7c0.1,0,0.1,0,0.2,0
		c0.1,0,0.1,0,0.3,0l0.2,0.9c-0.1,0-0.2,0.1-0.3,0.1C2244.9,80.3,2244.8,80.3,2244.6,80.3L2244.6,80.3z"/>
</g>
<g>
	<path class="st3" d="M2181.6,125.6c-1.1,0-2.2-0.2-3.1-0.7s-1.7-1-2.3-1.7l0.7-0.8c0.6,0.6,1.3,1.2,2.1,1.6s1.7,0.6,2.6,0.6
		c1.2,0,2.2-0.3,2.9-0.9s1.1-1.3,1.1-2.3c0-0.7-0.1-1.2-0.4-1.6c-0.3-0.4-0.6-0.7-1-1c-0.4-0.3-0.9-0.5-1.4-0.7l-2.4-1.1
		c-0.4-0.2-0.9-0.5-1.4-0.8c-0.5-0.3-0.9-0.7-1.3-1.2s-0.5-1.2-0.5-1.9s0.2-1.4,0.6-2c0.4-0.6,0.9-1,1.6-1.4
		c0.7-0.3,1.5-0.5,2.4-0.5c0.9,0,1.8,0.2,2.5,0.6s1.4,0.8,1.9,1.3l-0.6,0.7c-0.5-0.5-1-0.9-1.6-1.2c-0.6-0.3-1.3-0.4-2.1-0.4
		c-1,0-1.9,0.3-2.5,0.8c-0.6,0.5-1,1.2-1,2.1c0,0.6,0.1,1.1,0.4,1.5c0.3,0.4,0.7,0.7,1.1,0.9c0.4,0.2,0.8,0.4,1.2,0.6l2.4,1.1
		c0.6,0.3,1.1,0.6,1.6,0.9s0.9,0.8,1.2,1.3c0.3,0.5,0.5,1.2,0.5,2s-0.2,1.5-0.6,2.2c-0.4,0.7-1,1.2-1.8,1.5
		C2183.5,125.4,2182.6,125.6,2181.6,125.6L2181.6,125.6z"/>
	<path class="st3" d="M2192.5,125.6c-1.1,0-1.9-0.3-2.3-1c-0.4-0.7-0.6-1.5-0.6-2.5v-7.4h-1.8v-0.8l1.8-0.1l0.1-3.3h0.9v3.3h3.3v0.9
		h-3.3v7.5c0,0.7,0.1,1.3,0.4,1.8c0.3,0.4,0.8,0.7,1.6,0.7c0.2,0,0.5,0,0.7-0.1s0.5-0.2,0.7-0.2l0.3,0.9c-0.3,0.1-0.7,0.2-1,0.3
		C2193,125.6,2192.7,125.6,2192.5,125.6L2192.5,125.6z"/>
	<path class="st3" d="M2196.9,125.3v-11.5h0.9l0.1,2.1h0.1c0.4-0.7,0.9-1.3,1.4-1.7c0.6-0.5,1.2-0.7,1.9-0.7c0.2,0,0.4,0,0.6,0.1
		c0.2,0,0.4,0.1,0.6,0.2l-0.2,1c-0.2-0.1-0.4-0.1-0.5-0.2c-0.1,0-0.3,0-0.6,0c-0.5,0-1.1,0.2-1.6,0.7s-1.1,1.2-1.5,2.3v7.8H2196.9z"
		/>
	<path class="st3" d="M2208.6,125.6c-1,0-1.9-0.2-2.7-0.7c-0.8-0.5-1.4-1.2-1.9-2.1c-0.5-0.9-0.7-2-0.7-3.2s0.2-2.3,0.7-3.2
		s1.1-1.6,1.9-2.1s1.6-0.7,2.4-0.7c1.4,0,2.5,0.5,3.2,1.4s1.2,2.2,1.2,3.9c0,0.1,0,0.3,0,0.4s0,0.3-0.1,0.4h-8.3
		c0,1,0.2,1.8,0.6,2.6s0.9,1.3,1.5,1.8c0.6,0.4,1.4,0.7,2.3,0.7c0.6,0,1.2-0.1,1.7-0.3s1-0.4,1.4-0.7l0.4,0.8
		c-0.4,0.3-0.9,0.5-1.5,0.8S2209.4,125.6,2208.6,125.6L2208.6,125.6z M2204.3,118.8h7.3c0-1.5-0.3-2.6-0.9-3.3
		c-0.6-0.7-1.4-1.1-2.5-1.1c-0.7,0-1.3,0.2-1.8,0.5s-1,0.9-1.4,1.5C2204.6,117.1,2204.4,117.9,2204.3,118.8L2204.3,118.8z"/>
	<path class="st3" d="M2218.7,125.6c-1.1,0-1.9-0.3-2.3-1c-0.4-0.7-0.6-1.5-0.6-2.5v-7.4h-1.8v-0.8l1.8-0.1l0.1-3.3h0.9v3.3h3.3v0.9
		h-3.3v7.5c0,0.7,0.1,1.3,0.4,1.8c0.3,0.4,0.8,0.7,1.6,0.7c0.2,0,0.5,0,0.7-0.1s0.5-0.2,0.7-0.2l0.3,0.9c-0.3,0.1-0.7,0.2-1,0.3
		C2219.2,125.6,2218.9,125.6,2218.7,125.6L2218.7,125.6z"/>
	<path class="st3" d="M2227.1,125.6c-1,0-1.9-0.2-2.7-0.7s-1.4-1.2-1.9-2.1c-0.5-0.9-0.7-2-0.7-3.2s0.2-2.4,0.7-3.3s1.1-1.6,1.9-2.1
		s1.7-0.7,2.6-0.7c0.8,0,1.5,0.1,2,0.4s1,0.6,1.4,1l-0.6,0.7c-0.4-0.3-0.8-0.6-1.2-0.9c-0.4-0.2-0.9-0.3-1.5-0.3
		c-0.8,0-1.5,0.2-2.1,0.7c-0.6,0.4-1.1,1-1.5,1.8c-0.4,0.8-0.6,1.7-0.6,2.7s0.2,1.9,0.5,2.7c0.3,0.8,0.8,1.4,1.5,1.8
		s1.4,0.7,2.2,0.7c0.6,0,1.2-0.1,1.7-0.4c0.5-0.3,1-0.6,1.4-0.9l0.6,0.7c-0.5,0.4-1.1,0.8-1.7,1.1
		C2228.5,125.5,2227.8,125.6,2227.1,125.6L2227.1,125.6z"/>
	<path class="st3" d="M2233.6,125.3v-17.3h1.1v7.5c0.6-0.6,1.2-1.1,1.9-1.5c0.6-0.4,1.3-0.6,2.1-0.6c1.2,0,2.1,0.4,2.6,1.1
		c0.6,0.7,0.9,1.8,0.9,3.3v7.4h-1.1v-7.2c0-1.2-0.2-2.1-0.6-2.7c-0.4-0.6-1.1-0.9-2-0.9c-0.7,0-1.3,0.2-1.9,0.5s-1.2,0.9-1.9,1.6
		v8.7L2233.6,125.3L2233.6,125.3z"/>
</g>
<g>
	<path class="st3" d="M2182.7,170.9c-0.7,0-1.3-0.1-2-0.3c-0.6-0.2-1.2-0.5-1.7-1s-0.9-1.1-1.2-2s-0.4-1.9-0.4-3.1v-9.7h1.1v9.6
		c0,1.4,0.2,2.5,0.6,3.3c0.4,0.8,0.9,1.4,1.6,1.7c0.6,0.3,1.3,0.5,2.1,0.5s1.5-0.2,2.1-0.5s1.2-0.9,1.6-1.7c0.4-0.8,0.6-1.9,0.6-3.3
		v-9.6h1v9.7c0,1.2-0.1,2.3-0.4,3.1c-0.3,0.8-0.7,1.5-1.2,2s-1.1,0.8-1.7,1S2183.4,170.9,2182.7,170.9L2182.7,170.9z"/>
	<path class="st3" d="M2192.6,170.6v-11.5h0.9l0.1,1.8h0.1c0.6-0.6,1.2-1.1,1.8-1.5c0.6-0.4,1.3-0.6,2.1-0.6c1.2,0,2.1,0.4,2.6,1.1
		c0.6,0.7,0.9,1.8,0.9,3.3v7.4h-1.1v-7.2c0-1.2-0.2-2.1-0.6-2.7c-0.4-0.6-1.1-0.9-2-0.9c-0.7,0-1.3,0.2-1.9,0.5s-1.2,0.9-1.9,1.6
		v8.7L2192.6,170.6L2192.6,170.6z"/>
	<path class="st3" d="M2209.6,170.9c-1,0-1.9-0.2-2.7-0.7s-1.4-1.2-1.9-2.1c-0.5-0.9-0.7-2-0.7-3.2s0.2-2.4,0.7-3.3
		c0.5-0.9,1.1-1.6,1.9-2.1s1.7-0.7,2.6-0.7c0.8,0,1.5,0.1,2,0.4s1,0.6,1.4,1l-0.6,0.7c-0.4-0.4-0.8-0.6-1.2-0.9
		c-0.4-0.2-0.9-0.4-1.5-0.4c-0.8,0-1.5,0.2-2.1,0.6c-0.6,0.4-1.1,1-1.5,1.8s-0.6,1.7-0.6,2.7s0.2,1.9,0.5,2.6
		c0.3,0.8,0.8,1.4,1.5,1.8s1.4,0.6,2.2,0.6c0.6,0,1.2-0.1,1.7-0.4c0.5-0.3,1-0.6,1.4-0.9l0.6,0.7c-0.5,0.4-1.1,0.8-1.7,1.1
		C2211,170.7,2210.4,170.9,2209.6,170.9L2209.6,170.9z"/>
	<path class="st3" d="M2219.9,170.9c-0.9,0-1.8-0.2-2.5-0.7s-1.4-1.2-1.9-2.1s-0.7-2-0.7-3.2s0.2-2.4,0.7-3.3
		c0.5-0.9,1.1-1.6,1.9-2.1c0.8-0.5,1.6-0.7,2.5-0.7s1.8,0.2,2.6,0.7c0.8,0.5,1.4,1.2,1.9,2.1s0.7,2,0.7,3.3s-0.2,2.4-0.7,3.2
		s-1.1,1.6-1.9,2.1S2220.8,170.9,2219.9,170.9z M2219.9,170c0.8,0,1.5-0.2,2.1-0.6s1.1-1,1.4-1.8c0.4-0.8,0.5-1.6,0.5-2.6
		s-0.2-1.9-0.5-2.7s-0.8-1.4-1.4-1.8c-0.6-0.4-1.3-0.6-2.1-0.6s-1.5,0.2-2.1,0.6s-1.1,1-1.4,1.8c-0.4,0.8-0.5,1.7-0.5,2.7
		s0.2,1.9,0.5,2.6s0.8,1.4,1.4,1.8C2218.4,169.7,2219.1,170,2219.9,170z"/>
	<path class="st3" d="M2228.6,170.6v-11.5h0.9l0.1,1.8h0.1c0.5-0.6,1.1-1.1,1.7-1.5c0.6-0.4,1.3-0.6,1.9-0.6c0.9,0,1.6,0.2,2.1,0.6
		s0.9,1,1.1,1.7c0.7-0.7,1.3-1.3,2-1.7c0.6-0.4,1.3-0.6,2-0.6c2.3,0,3.5,1.5,3.5,4.4v7.4h-1.1v-7.2c0-2.4-0.9-3.6-2.6-3.6
		c-1,0-2.2,0.7-3.5,2.2v8.7h-1.1v-7.2c0-1.2-0.2-2.1-0.6-2.7c-0.4-0.6-1.1-0.9-2-0.9c-1,0-2.2,0.7-3.5,2.2v8.7L2228.6,170.6
		L2228.6,170.6z"/>
	<path class="st3" d="M2248.2,170.6V160h-1.6v-0.8l1.6-0.1v-2.6c0-1.1,0.2-2,0.7-2.6s1.2-0.9,2.1-0.9c0.6,0,1.1,0.1,1.7,0.4
		l-0.3,0.9c-0.2-0.1-0.5-0.2-0.7-0.3c-0.2-0.1-0.5-0.1-0.7-0.1c-0.6,0-1.1,0.2-1.4,0.7s-0.4,1.1-0.4,1.9v2.5h2.7v0.9h-2.7v10.6
		L2248.2,170.6L2248.2,170.6z"/>
	<path class="st3" d="M2258.3,170.9c-0.9,0-1.8-0.2-2.5-0.7s-1.4-1.2-1.9-2.1s-0.7-2-0.7-3.2s0.2-2.4,0.7-3.3
		c0.5-0.9,1.1-1.6,1.9-2.1c0.8-0.5,1.6-0.7,2.5-0.7s1.8,0.2,2.6,0.7c0.8,0.5,1.4,1.2,1.9,2.1s0.7,2,0.7,3.3s-0.2,2.4-0.7,3.2
		s-1.1,1.6-1.9,2.1S2259.2,170.9,2258.3,170.9z M2258.3,170c0.8,0,1.5-0.2,2.1-0.6s1.1-1,1.4-1.8c0.4-0.8,0.5-1.6,0.5-2.6
		s-0.2-1.9-0.5-2.7s-0.8-1.4-1.4-1.8c-0.6-0.4-1.3-0.6-2.1-0.6s-1.5,0.2-2.1,0.6s-1.1,1-1.4,1.8c-0.4,0.8-0.5,1.7-0.5,2.7
		s0.2,1.9,0.5,2.6s0.8,1.4,1.4,1.8C2256.9,169.7,2257.5,170,2258.3,170z"/>
	<path class="st3" d="M2266.9,170.6v-11.5h0.9l0.1,2.1h0.1c0.4-0.7,0.9-1.3,1.4-1.7c0.6-0.5,1.2-0.7,1.9-0.7c0.2,0,0.4,0,0.6,0.1
		c0.2,0,0.4,0.1,0.6,0.2l-0.2,1c-0.2-0.1-0.4-0.1-0.5-0.2c-0.1,0-0.3,0-0.6,0c-0.5,0-1.1,0.2-1.6,0.7s-1.1,1.2-1.5,2.3v7.9
		L2266.9,170.6L2266.9,170.6z"/>
	<path class="st3" d="M2277.7,170.9c-1.1,0-1.9-0.3-2.3-1c-0.4-0.6-0.6-1.5-0.6-2.5V160h-1.8v-0.8l1.8-0.1l0.1-3.3h0.9v3.3h3.3v0.9
		h-3.3v7.5c0,0.7,0.1,1.3,0.4,1.8c0.3,0.4,0.8,0.7,1.6,0.7c0.2,0,0.5,0,0.7-0.1s0.5-0.2,0.7-0.2l0.3,0.9c-0.3,0.1-0.7,0.2-1,0.3
		S2277.9,170.9,2277.7,170.9L2277.7,170.9z"/>
	<path class="st3" d="M2284,170.9c-0.9,0-1.7-0.3-2.4-0.8s-1-1.3-1-2.4c0-1.3,0.6-2.2,1.8-2.9c1.2-0.7,3.1-1.1,5.6-1.4
		c0-0.6-0.1-1.2-0.2-1.7c-0.1-0.6-0.4-1-0.8-1.4c-0.4-0.4-1-0.6-1.7-0.6s-1.5,0.1-2.1,0.5c-0.6,0.3-1.2,0.6-1.6,0.9l-0.5-0.8
		c0.3-0.2,0.6-0.4,1.1-0.6s0.9-0.4,1.5-0.6c0.6-0.2,1.1-0.2,1.8-0.2c0.9,0,1.6,0.2,2.2,0.6c0.5,0.4,0.9,0.9,1.1,1.6
		c0.2,0.7,0.4,1.4,0.4,2.2v7.4h-0.9l-0.1-1.5h-0.1c-0.6,0.5-1.2,0.9-1.9,1.2S2284.8,170.9,2284,170.9L2284,170.9z M2284.2,170
		c0.7,0,1.3-0.2,1.9-0.5c0.6-0.3,1.3-0.8,2-1.4v-3.9c-1.6,0.2-2.8,0.4-3.8,0.7s-1.6,0.7-2,1.1s-0.6,1-0.6,1.6c0,0.8,0.2,1.4,0.7,1.8
		C2283,169.8,2283.6,170,2284.2,170L2284.2,170z"/>
	<path class="st3" d="M2297.8,170.9c-0.5,0-1.1-0.1-1.7-0.4c-0.6-0.3-1.2-0.6-1.7-1.1h-0.1l-0.1,1.2h-0.9v-17.3h1.1v5l-0.1,2.3
		c0.6-0.5,1.2-0.9,1.9-1.3s1.4-0.5,2.1-0.5c1.5,0,2.7,0.5,3.5,1.6c0.8,1.1,1.1,2.5,1.1,4.3c0,1.3-0.2,2.4-0.7,3.3s-1.1,1.6-1.9,2.1
		S2298.7,170.9,2297.8,170.9L2297.8,170.9z M2297.8,170c0.8,0,1.5-0.2,2.1-0.7s1.1-1.1,1.4-1.9c0.3-0.8,0.5-1.7,0.5-2.8
		c0-0.9-0.1-1.8-0.4-2.5s-0.6-1.3-1.2-1.8c-0.5-0.4-1.2-0.6-2.1-0.6c-0.6,0-1.2,0.2-1.8,0.5s-1.3,0.8-2,1.4v6.8
		c0.6,0.5,1.3,0.9,1.9,1.1S2297.3,170,2297.8,170L2297.8,170z"/>
	<path class="st3" d="M2307.7,170.9c-0.9,0-1.4-0.6-1.4-1.8v-15.7h1.1v15.9c0,0.5,0.2,0.7,0.5,0.7c0.1,0,0.1,0,0.2,0
		c0.1,0,0.1,0,0.3,0l0.2,0.9c-0.1,0-0.2,0.1-0.3,0.1C2308,170.9,2307.9,170.9,2307.7,170.9L2307.7,170.9z"/>
	<path class="st3" d="M2316.4,170.9c-1,0-1.9-0.2-2.7-0.7c-0.8-0.5-1.4-1.2-1.9-2.1c-0.5-0.9-0.7-2-0.7-3.2s0.2-2.4,0.7-3.2
		s1.1-1.6,1.9-2.1c0.8-0.5,1.6-0.7,2.4-0.7c1.4,0,2.5,0.5,3.2,1.4s1.2,2.2,1.2,3.9c0,0.1,0,0.3,0,0.4c0,0.1,0,0.3-0.1,0.4h-8.3
		c0,1,0.2,1.8,0.6,2.6s0.9,1.3,1.5,1.8c0.6,0.4,1.4,0.6,2.3,0.6c0.6,0,1.2-0.1,1.7-0.3c0.5-0.2,1-0.4,1.4-0.7l0.4,0.8
		c-0.4,0.3-0.9,0.5-1.5,0.8S2317.2,170.9,2316.4,170.9L2316.4,170.9z M2312.1,164.1h7.3c0-1.5-0.3-2.6-0.9-3.3s-1.4-1.1-2.5-1.1
		c-0.7,0-1.3,0.2-1.8,0.5s-1,0.9-1.4,1.5C2312.4,162.4,2312.2,163.2,2312.1,164.1L2312.1,164.1z"/>
</g>
<g>
	<path class="st3" d="M2119.5,19.9V6.6h-4.5V4.2h11.9v2.3h-4.5v13.3H2119.5z"/>
	<path class="st3" d="M2129.2,19.9V3h2.8v4.4l-0.1,2.3c0.5-0.5,1.1-0.9,1.7-1.2c0.6-0.4,1.3-0.5,2.1-0.5c1.3,0,2.2,0.4,2.8,1.2
		c0.6,0.8,0.9,2,0.9,3.5v7.4h-2.8v-7c0-1-0.1-1.7-0.4-2.1s-0.8-0.6-1.4-0.6c-0.5,0-1,0.1-1.4,0.4c-0.4,0.2-0.8,0.6-1.3,1.1v8.2
		L2129.2,19.9L2129.2,19.9z"/>
	<path class="st3" d="M2146.1,20.2c-1.3,0-2.2-0.4-2.8-1.2c-0.6-0.8-0.9-2-0.9-3.5V8.1h2.8v7c0,1,0.1,1.7,0.4,2.1s0.8,0.6,1.4,0.6
		c0.5,0,1-0.1,1.4-0.4c0.4-0.3,0.8-0.7,1.3-1.2V8.1h2.8v11.8h-2.3l-0.2-1.7h-0.1c-0.5,0.6-1.1,1.1-1.7,1.5
		C2147.6,20,2146.9,20.2,2146.1,20.2L2146.1,20.2z"/>
	<path class="st3" d="M2155.9,19.9V8.1h2.3l0.2,1.6h0.1c0.5-0.5,1-1,1.6-1.3c0.6-0.4,1.2-0.6,2-0.6c0.9,0,1.6,0.2,2.1,0.6
		c0.5,0.4,0.9,0.9,1.2,1.6c0.6-0.6,1.1-1.1,1.8-1.5c0.6-0.4,1.3-0.6,2-0.6c1.2,0,2.2,0.4,2.8,1.2c0.6,0.8,0.9,2,0.9,3.5v7.4h-2.8v-7
		c0-1-0.1-1.7-0.4-2.1c-0.3-0.4-0.8-0.6-1.4-0.6c-0.7,0-1.6,0.5-2.5,1.5v8.2h-2.8v-7c0-1-0.1-1.7-0.4-2.1c-0.3-0.4-0.8-0.6-1.4-0.6
		c-0.7,0-1.6,0.5-2.5,1.5v8.2L2155.9,19.9L2155.9,19.9z"/>
	<path class="st3" d="M2181.9,20.2c-1.1,0-2.2-0.5-3.2-1.5h-0.1l-0.2,1.2h-2.2V3h2.8v4.4l-0.1,2c0.5-0.4,1-0.8,1.6-1.1
		c0.6-0.3,1.2-0.4,1.8-0.4c1.5,0,2.6,0.5,3.4,1.6c0.8,1.1,1.2,2.5,1.2,4.3c0,1.3-0.2,2.5-0.7,3.4c-0.5,1-1.1,1.7-1.9,2.2
		S2182.7,20.2,2181.9,20.2L2181.9,20.2z M2181.3,17.9c0.8,0,1.4-0.3,2-1s0.8-1.7,0.8-3c0-1.2-0.2-2.1-0.6-2.8c-0.4-0.7-1.1-1-1.9-1
		c-0.8,0-1.7,0.4-2.6,1.3V17c0.4,0.4,0.8,0.6,1.2,0.8S2180.9,17.9,2181.3,17.9L2181.3,17.9z"/>
	<path class="st3" d="M2193.7,19.9v-1.7l7.6-11.7h-6.9V4.2h10.3v1.7l-7.6,11.7h7.7v2.4H2193.7L2193.7,19.9z"/>
	<path class="st3" d="M2211.8,20.2c-1,0-1.9-0.2-2.7-0.7s-1.5-1.2-2.1-2.1c-0.5-0.9-0.8-2-0.8-3.3s0.3-2.4,0.8-3.4s1.2-1.6,2.1-2.1
		c0.9-0.5,1.8-0.7,2.7-0.7s1.9,0.2,2.8,0.7s1.5,1.2,2.1,2.1c0.5,0.9,0.8,2,0.8,3.4s-0.3,2.4-0.8,3.3s-1.2,1.6-2.1,2.1
		C2213.8,20,2212.8,20.2,2211.8,20.2z M2211.8,17.9c0.9,0,1.5-0.4,2-1.1s0.7-1.7,0.7-2.8s-0.2-2.1-0.7-2.9c-0.5-0.7-1.2-1.1-2-1.1
		s-1.5,0.4-2,1.1s-0.7,1.7-0.7,2.9s0.2,2.1,0.7,2.8S2211,17.9,2211.8,17.9z"/>
	<path class="st3" d="M2220.2,19.9V8.1h2.3l0.2,1.6h0.1c0.5-0.5,1.1-0.9,1.7-1.3s1.3-0.6,2.1-0.6c1.3,0,2.2,0.4,2.8,1.2
		c0.6,0.8,0.9,2,0.9,3.5v7.4h-2.8v-7c0-1-0.1-1.7-0.4-2.1s-0.8-0.6-1.4-0.6c-0.5,0-1,0.1-1.4,0.4c-0.4,0.2-0.8,0.6-1.3,1.1v8.2
		C2222.9,19.9,2220.2,19.9,2220.2,19.9z"/>
	<path class="st3" d="M2238.7,20.2c-1.1,0-2.1-0.2-2.9-0.7s-1.6-1.2-2.1-2.1s-0.8-2-0.8-3.3s0.3-2.4,0.8-3.3c0.5-0.9,1.2-1.6,2-2.1
		s1.7-0.7,2.6-0.7c1.1,0,2,0.2,2.7,0.7s1.3,1.1,1.6,2s0.6,1.8,0.6,2.9c0,0.6,0,1-0.1,1.3h-7.5c0.1,1,0.5,1.8,1.1,2.4
		s1.4,0.9,2.4,0.9c0.5,0,1-0.1,1.4-0.2s0.9-0.4,1.3-0.6l0.9,1.7c-0.6,0.4-1.2,0.7-1.9,0.9C2240.1,20.1,2239.4,20.2,2238.7,20.2
		L2238.7,20.2z M2235.5,12.9h5.2c0-0.9-0.2-1.6-0.6-2.2c-0.4-0.5-1-0.8-1.8-0.8c-0.7,0-1.3,0.2-1.8,0.8S2235.6,12,2235.5,12.9
		L2235.5,12.9z"/>
</g>
<rect x="1631" y="3" class="st5" width="390.5" height="850.6"/>
<g>
	<rect x="2114.3" y="147.7" class="st10" width="33.7" height="33.7"/>
	<rect x="2114.3" y="102.4" class="st11" width="33.7" height="33.7"/>
	<rect x="2114.3" y="57.1" class="st12" width="33.7" height="33.7"/>
</g>
<g>
	<rect x="2114.3" y="147.7" class="st10" width="33.7" height="33.7"/>
	<rect x="2114.3" y="102.4" class="st11" width="33.7" height="33.7"/>
	<rect x="2114.3" y="57.1" class="st12" width="33.7" height="33.7"/>
</g>
<rect y="495.5" class="st0" width="2646" height="233.7"/>
<rect x="970.9" y="3" class="st5" width="390.5" height="850.6"/>
<line class="st4" x1="986.4" y1="3" x2="986.4" y2="853.5"/>
<line class="st4" x1="1064.5" y1="3" x2="1064.5" y2="853.5"/>
<line class="st4" x1="1080" y1="3" x2="1080" y2="853.5"/>
<line class="st4" x1="1158.4" y1="3" x2="1158.4" y2="853.5"/>
<line class="st4" x1="1173.9" y1="3" x2="1173.9" y2="853.5"/>
<line class="st4" x1="1251.9" y1="3" x2="1251.9" y2="853.5"/>
<line class="st4" x1="1267.4" y1="3" x2="1267.4" y2="853.5"/>
<line class="st4" x1="1345.3" y1="3" x2="1345.3" y2="853.5"/>
<line class="st4" x1="1648.7" y1="3" x2="1648.7" y2="853.5"/>
<line class="st4" x1="1726.8" y1="3" x2="1726.8" y2="853.5"/>
<line class="st4" x1="1742.3" y1="3" x2="1742.3" y2="853.5"/>
<line class="st4" x1="1820.7" y1="3" x2="1820.7" y2="853.5"/>
<line class="st4" x1="1836.2" y1="3" x2="1836.2" y2="853.5"/>
<line class="st4" x1="1914.2" y1="3" x2="1914.2" y2="853.5"/>
<line class="st4" x1="1929.7" y1="3" x2="1929.7" y2="853.5"/>
<line class="st4" x1="2007.7" y1="3" x2="2007.7" y2="853.5"/>
<path class="st13" d="M2133,610.1c-9.7,4.2-21.7,8-35.7,9.6c-3.1,0.3-15.1,0.6-17.9,0.7"/>
<path class="st13" d="M2021.8,455.9c6.9,2.3,17.5,6.8,27.8,15.5c15.9,13.4,17.4,25.2,35,50.5c12.7,18.2,19,27.2,29.9,35
	c21.6,15.5,36.7,19.3,54.6,35c5,4.4,9.7,1.5,19.6,22.7c14.7,31.5,18.5,52.9,33,111.3c9.7,39.1,11,41.7,14.4,59.8
	c3.6,18.6,7.1,41.6,9.3,68c2.6,32.3,1.4,47.4,2.1,63.9c1.8,44.1,16.2,76.5,35,118.5c15.3,34.3,25.2,44.9,35.2,63.7l0,0
	c2.9,5.6-8.2,28.3-20,45.9c-18.7,27.9-42.6,41.4-61.9,51.9c-19.6,10.7-41.7,16.5-85.9,28c-21.4,5.6-33.2,7.7-47.9,6
	c-19.6-2.2-32.8-4.4-43.9-18.5c-28.4-37.6,1.4,2.4-16.7-22.5c-59.7-82.4-21-33.5-71.1-105.1c-14.4-20.6-36.2-51.2-39.2-79.3
	c-0.3-2.9-0.8-9.5-4.1-17.5c-6.1-14.9-14.1-15.8-28.8-33c-11.4-13.3-11.5-18.4-26.8-35c-7.7-8.4-18.1-16.8-28.8-15.5l0,0
	c-8.3,1.2-20.6-0.5-35.4-4.5c-16.7-4.6-19.6-8.3-34.7-10.9c-16.3-2.8-17.4,1.5-37.9,0.1c-14.1-0.9-16.3-2-34.2-5.2
	c-25.3-4.6-28.4-1.1-54.4-5c-17.5-2.6-40.9-3.5-57.2-12.5c-5.1-2.8-18.3-13.2-19.4-31.3c-0.2-3.1-0.9-12.7,7-22.6
	c8.6-10.9,37-15.2,54.8-15"/>
<path class="st14" d="M1630.3,478c-11.4,0.3-24.5-2.6-41.5,4.2c-5,2-11.7,8.1-15,16.2c-5.6,13.8,1.3,27.3,10.4,37.7
	c17.5,19.6,26.8,15.9,46.8,16"/>
<path class="st14" d="M1631,614.6c-12.7-0.1-18.1,1.1-25.5,4.5c-4.9,2.2-10.1,5.9-13.7,11.8c-7.7,12.8-1.9,32.8,8.5,41.8
	c10.4,9,10.5,9.5,30.6,11.5"/>
<g>
	<path class="st3" d="M2406.3,341.7l5.6-15.8h1.1l5.6,15.8h-1.1l-1.9-5.4h-6.3l-1.9,5.4H2406.3L2406.3,341.7z M2410.7,332.4l-1,3
		h5.6l-1-3c-0.3-0.9-0.6-1.9-0.9-2.7c-0.3-0.9-0.6-1.8-0.8-2.8h-0.1c-0.3,1-0.6,1.9-0.8,2.8C2411.3,330.5,2411,331.5,2410.7,332.4z"
		/>
	<path class="st3" d="M2425.2,342c-1,0-1.9-0.2-2.7-0.7c-0.8-0.5-1.4-1.2-1.9-2.1c-0.5-0.9-0.7-2-0.7-3.2s0.2-2.4,0.7-3.3
		s1.1-1.6,1.9-2.1s1.7-0.7,2.6-0.7c0.8,0,1.5,0.1,2,0.4c0.5,0.3,1,0.6,1.4,1l-0.6,0.7c-0.4-0.4-0.8-0.6-1.2-0.9s-0.9-0.4-1.5-0.4
		c-0.8,0-1.5,0.2-2.1,0.6c-0.6,0.4-1.1,1-1.5,1.8s-0.6,1.7-0.6,2.7s0.2,1.9,0.5,2.6s0.8,1.4,1.5,1.8c0.6,0.4,1.4,0.6,2.2,0.6
		c0.6,0,1.2-0.1,1.7-0.4c0.5-0.3,1-0.6,1.4-0.9l0.6,0.7c-0.5,0.4-1.1,0.8-1.7,1.1C2426.6,341.8,2426,342,2425.2,342L2425.2,342z"/>
	<path class="st3" d="M2434.6,342c-1.1,0-1.9-0.3-2.3-1c-0.4-0.6-0.6-1.5-0.6-2.5v-7.4h-1.8v-0.8l1.8-0.1l0.1-3.3h0.9v3.3h3.3v0.9
		h-3.3v7.5c0,0.7,0.1,1.3,0.4,1.8s0.8,0.7,1.6,0.7c0.2,0,0.5,0,0.7-0.1c0.3-0.1,0.5-0.2,0.7-0.2l0.3,0.9c-0.3,0.1-0.7,0.2-1,0.3
		S2434.9,342,2434.6,342L2434.6,342z"/>
	<path class="st3" d="M2439.5,327.4c-0.3,0-0.5-0.1-0.6-0.3s-0.3-0.4-0.3-0.7c0-0.3,0.1-0.5,0.3-0.7c0.2-0.2,0.4-0.3,0.6-0.3
		c0.3,0,0.5,0.1,0.7,0.3c0.2,0.2,0.2,0.4,0.2,0.7c0,0.3-0.1,0.5-0.2,0.7S2439.8,327.4,2439.5,327.4z M2439,341.7v-11.5h1.1v11.5
		H2439z"/>
	<path class="st3" d="M2448.7,342c-0.9,0-1.8-0.2-2.5-0.7s-1.4-1.2-1.9-2.1s-0.7-2-0.7-3.2s0.2-2.4,0.7-3.3s1.1-1.6,1.9-2.1
		s1.6-0.7,2.5-0.7s1.8,0.2,2.6,0.7s1.4,1.2,1.9,2.1s0.7,2,0.7,3.3s-0.2,2.4-0.7,3.2s-1.1,1.6-1.9,2.1
		C2450.5,341.8,2449.6,342,2448.7,342z M2448.7,341.1c0.8,0,1.5-0.2,2.1-0.6s1.1-1,1.4-1.8s0.5-1.6,0.5-2.6s-0.2-1.9-0.5-2.7
		s-0.8-1.4-1.4-1.8c-0.6-0.4-1.3-0.6-2.1-0.6s-1.5,0.2-2.1,0.6s-1.1,1-1.4,1.8c-0.4,0.8-0.5,1.7-0.5,2.7s0.2,1.9,0.5,2.6
		s0.8,1.4,1.4,1.8C2447.2,340.8,2447.9,341.1,2448.7,341.1z"/>
	<path class="st3" d="M2457.3,341.7v-11.5h0.9l0.1,1.8h0.1c0.6-0.6,1.2-1.1,1.8-1.5c0.6-0.4,1.3-0.6,2.1-0.6c1.2,0,2.1,0.4,2.6,1.1
		c0.6,0.7,0.9,1.8,0.9,3.3v7.4h-1.1v-7.2c0-1.2-0.2-2.1-0.6-2.7c-0.4-0.6-1.1-0.9-2-0.9c-0.7,0-1.3,0.2-1.9,0.5
		c-0.6,0.4-1.2,0.9-1.9,1.6v8.7L2457.3,341.7L2457.3,341.7z"/>
</g>
<g>
	<path class="st3" d="M2411.5,276.6l-5.2-15.8h1.2l2.9,9.2c0.3,1,0.6,1.8,0.8,2.6s0.5,1.7,0.9,2.6h0.1c0.3-1,0.6-1.8,0.8-2.6
		s0.5-1.7,0.8-2.6l2.9-9.2h1.1l-5.2,15.8H2411.5L2411.5,276.6z"/>
	<path class="st3" d="M2420.7,262.3c-0.3,0-0.5-0.1-0.6-0.3s-0.3-0.4-0.3-0.7c0-0.3,0.1-0.5,0.3-0.7s0.4-0.3,0.6-0.3
		c0.3,0,0.5,0.1,0.7,0.3s0.2,0.4,0.2,0.7c0,0.3-0.1,0.5-0.2,0.7S2420.9,262.3,2420.7,262.3z M2420.1,276.6v-11.5h1.1v11.5H2420.1z"
		/>
	<path class="st3" d="M2428.4,276.9c-0.9,0-1.6-0.2-2.4-0.5c-0.7-0.3-1.4-0.7-1.9-1.1l0.6-0.8c0.5,0.4,1,0.7,1.6,1
		c0.6,0.3,1.3,0.4,2.1,0.4c0.9,0,1.6-0.2,2-0.7c0.5-0.5,0.7-1,0.7-1.6c0-0.5-0.1-0.9-0.4-1.2s-0.6-0.6-1.1-0.8
		c-0.4-0.2-0.9-0.4-1.3-0.5c-0.6-0.2-1.1-0.4-1.7-0.7s-1-0.6-1.4-1s-0.5-0.9-0.5-1.6c0-0.9,0.3-1.6,0.9-2.2c0.6-0.6,1.6-0.9,2.8-0.9
		c0.6,0,1.2,0.1,1.8,0.3s1.1,0.5,1.5,0.9l-0.6,0.7c-0.4-0.3-0.8-0.5-1.2-0.7s-0.9-0.3-1.5-0.3c-0.9,0-1.6,0.2-2,0.6
		s-0.6,0.9-0.6,1.4c0,0.4,0.1,0.8,0.4,1.1c0.2,0.3,0.6,0.5,1,0.7c0.4,0.2,0.8,0.4,1.3,0.5c0.6,0.2,1.2,0.5,1.8,0.7s1.1,0.6,1.4,1
		s0.6,1,0.6,1.8c0,0.6-0.1,1.1-0.5,1.6c-0.3,0.5-0.7,0.9-1.3,1.2S2429.2,276.9,2428.4,276.9L2428.4,276.9z"/>
	<path class="st3" d="M2438.6,276.9c-1.2,0-2.1-0.4-2.6-1.1s-0.9-1.8-0.9-3.3v-7.4h1.1v7.2c0,1.2,0.2,2.1,0.6,2.7s1.1,0.9,2,0.9
		c0.7,0,1.3-0.2,1.9-0.6c0.6-0.4,1.2-1,1.9-1.8v-8.5h1.1v11.5h-0.9l-0.1-1.9h-0.1c-0.6,0.7-1.1,1.2-1.8,1.6
		C2440.2,276.7,2439.4,276.9,2438.6,276.9L2438.6,276.9z"/>
	<path class="st3" d="M2450.6,276.9c-0.9,0-1.7-0.3-2.4-0.8s-1-1.3-1-2.4c0-1.3,0.6-2.2,1.8-2.9c1.2-0.7,3.1-1.1,5.6-1.4
		c0-0.6-0.1-1.2-0.2-1.7c-0.1-0.5-0.4-1-0.8-1.4c-0.4-0.4-1-0.5-1.7-0.5s-1.5,0.1-2.1,0.5s-1.2,0.6-1.6,0.9l-0.5-0.8
		c0.3-0.2,0.6-0.4,1.1-0.6s0.9-0.4,1.5-0.6s1.1-0.2,1.8-0.2c0.9,0,1.6,0.2,2.2,0.6s0.9,0.9,1.1,1.6c0.2,0.7,0.4,1.4,0.4,2.2v7.4
		h-0.9l-0.1-1.5h-0.1c-0.6,0.5-1.2,0.9-1.9,1.2S2451.3,276.9,2450.6,276.9L2450.6,276.9z M2450.8,276c0.7,0,1.3-0.2,1.9-0.5
		c0.6-0.3,1.3-0.8,2-1.4v-3.9c-1.6,0.2-2.8,0.4-3.8,0.7s-1.6,0.7-2,1.1c-0.4,0.5-0.6,1-0.6,1.6c0,0.8,0.2,1.4,0.7,1.8
		C2449.5,275.8,2450.1,276,2450.8,276L2450.8,276z"/>
	<path class="st3" d="M2461.2,276.9c-0.9,0-1.4-0.6-1.4-1.8v-15.7h1.1v15.9c0,0.5,0.2,0.7,0.5,0.7c0.1,0,0.1,0,0.2,0
		c0.1,0,0.1,0,0.3,0l0.2,0.9c-0.1,0-0.2,0.1-0.3,0.1C2461.5,276.8,2461.4,276.9,2461.2,276.9L2461.2,276.9z"/>
	<path class="st3" d="M2474.6,276.9c-1,0-1.9-0.2-2.7-0.7c-0.8-0.5-1.4-1.2-1.9-2.1c-0.5-0.9-0.7-2-0.7-3.2s0.2-2.4,0.7-3.3
		s1.1-1.6,1.9-2.1s1.7-0.7,2.6-0.7c0.8,0,1.5,0.1,2,0.4c0.5,0.3,1,0.6,1.4,1l-0.6,0.7c-0.4-0.4-0.8-0.6-1.2-0.9
		c-0.4-0.2-0.9-0.4-1.5-0.4c-0.8,0-1.5,0.2-2.1,0.6c-0.6,0.4-1.1,1-1.5,1.8s-0.6,1.7-0.6,2.7s0.2,1.9,0.5,2.6
		c0.3,0.8,0.8,1.4,1.5,1.8c0.6,0.4,1.4,0.6,2.2,0.6c0.6,0,1.2-0.1,1.7-0.4c0.5-0.3,1-0.6,1.4-0.9l0.6,0.7c-0.5,0.4-1.1,0.8-1.7,1.1
		C2476,276.7,2475.3,276.9,2474.6,276.9L2474.6,276.9z"/>
	<path class="st3" d="M2484.9,276.9c-0.9,0-1.8-0.2-2.5-0.7s-1.4-1.2-1.9-2.1s-0.7-2-0.7-3.2s0.2-2.4,0.7-3.3s1.1-1.6,1.9-2.1
		c0.8-0.5,1.6-0.7,2.5-0.7s1.8,0.2,2.6,0.7s1.4,1.2,1.9,2.1s0.7,2,0.7,3.3s-0.2,2.4-0.7,3.2s-1.1,1.6-1.9,2.1
		C2486.7,276.6,2485.8,276.9,2484.9,276.9z M2484.9,275.9c0.8,0,1.5-0.2,2.1-0.6s1.1-1,1.4-1.8c0.4-0.8,0.5-1.6,0.5-2.6
		s-0.2-1.9-0.5-2.7s-0.8-1.4-1.4-1.8c-0.6-0.4-1.3-0.6-2.1-0.6s-1.5,0.2-2.1,0.6s-1.1,1-1.4,1.8s-0.5,1.7-0.5,2.7s0.2,1.9,0.5,2.6
		c0.4,0.8,0.8,1.4,1.4,1.8C2483.4,275.7,2484.1,275.9,2484.9,275.9z"/>
	<path class="st3" d="M2493.5,276.6v-11.5h0.9l0.1,1.8h0.1c0.6-0.6,1.2-1.1,1.8-1.5c0.6-0.4,1.3-0.6,2.1-0.6c1.2,0,2.1,0.4,2.6,1.1
		s0.9,1.8,0.9,3.3v7.4h-1.1v-7.2c0-1.2-0.2-2.1-0.6-2.7c-0.4-0.6-1.1-0.9-2-0.9c-0.7,0-1.3,0.2-1.9,0.5c-0.6,0.4-1.2,0.9-1.9,1.6
		v8.7L2493.5,276.6L2493.5,276.6z"/>
	<path class="st3" d="M2506.3,276.6v-11.5h0.9l0.1,1.8h0.1c0.6-0.6,1.2-1.1,1.8-1.5c0.6-0.4,1.3-0.6,2.1-0.6c1.2,0,2.1,0.4,2.6,1.1
		s0.9,1.8,0.9,3.3v7.4h-1.1v-7.2c0-1.2-0.2-2.1-0.6-2.7c-0.4-0.6-1.1-0.9-2-0.9c-0.7,0-1.3,0.2-1.9,0.5c-0.6,0.4-1.2,0.9-1.9,1.6
		v8.7L2506.3,276.6L2506.3,276.6z"/>
	<path class="st3" d="M2523.4,276.9c-1,0-1.9-0.2-2.7-0.7c-0.8-0.5-1.4-1.2-1.9-2.1c-0.5-0.9-0.7-2-0.7-3.2s0.2-2.4,0.7-3.2
		s1.1-1.6,1.9-2.1c0.8-0.5,1.6-0.7,2.4-0.7c1.4,0,2.5,0.5,3.2,1.4c0.8,0.9,1.2,2.2,1.2,3.9c0,0.1,0,0.3,0,0.4s0,0.3-0.1,0.4h-8.3
		c0,1,0.2,1.8,0.6,2.6s0.9,1.3,1.5,1.8c0.6,0.4,1.4,0.6,2.3,0.6c0.6,0,1.2-0.1,1.7-0.3s1-0.4,1.4-0.7l0.4,0.8
		c-0.4,0.3-0.9,0.5-1.5,0.8S2524.3,276.9,2523.4,276.9L2523.4,276.9z M2519.2,270.1h7.3c0-1.5-0.3-2.6-0.9-3.3
		c-0.6-0.7-1.4-1.1-2.5-1.1c-0.7,0-1.3,0.2-1.8,0.5s-1,0.9-1.4,1.5C2519.5,268.4,2519.2,269.2,2519.2,270.1L2519.2,270.1z"/>
	<path class="st3" d="M2534.9,276.9c-1,0-1.9-0.2-2.7-0.7c-0.8-0.5-1.4-1.2-1.9-2.1c-0.5-0.9-0.7-2-0.7-3.2s0.2-2.4,0.7-3.3
		s1.1-1.6,1.9-2.1s1.7-0.7,2.6-0.7c0.8,0,1.5,0.1,2,0.4c0.5,0.3,1,0.6,1.4,1l-0.6,0.7c-0.4-0.4-0.8-0.6-1.2-0.9
		c-0.4-0.2-0.9-0.4-1.5-0.4c-0.8,0-1.5,0.2-2.1,0.6c-0.6,0.4-1.1,1-1.5,1.8s-0.6,1.7-0.6,2.7s0.2,1.9,0.5,2.6
		c0.3,0.8,0.8,1.4,1.5,1.8c0.6,0.4,1.4,0.6,2.2,0.6c0.6,0,1.2-0.1,1.7-0.4c0.5-0.3,1-0.6,1.4-0.9l0.6,0.7c-0.5,0.4-1.1,0.8-1.7,1.1
		C2536.3,276.7,2535.7,276.9,2534.9,276.9L2534.9,276.9z"/>
	<path class="st3" d="M2544.3,276.9c-1.1,0-1.9-0.3-2.3-1c-0.4-0.6-0.6-1.5-0.6-2.5V266h-1.8v-0.8l1.8-0.1l0.1-3.3h0.9v3.3h3.3v0.9
		h-3.3v7.5c0,0.7,0.1,1.3,0.4,1.8c0.3,0.5,0.8,0.7,1.6,0.7c0.2,0,0.5,0,0.7-0.1c0.3-0.1,0.5-0.2,0.7-0.2l0.3,0.9
		c-0.3,0.1-0.7,0.2-1,0.3C2544.8,276.8,2544.5,276.9,2544.3,276.9L2544.3,276.9z"/>
	<path class="st3" d="M2549.2,262.3c-0.3,0-0.5-0.1-0.6-0.3c-0.2-0.2-0.3-0.4-0.3-0.7c0-0.3,0.1-0.5,0.3-0.7
		c0.2-0.2,0.4-0.3,0.6-0.3c0.3,0,0.5,0.1,0.7,0.3s0.2,0.4,0.2,0.7c0,0.3-0.1,0.5-0.2,0.7S2549.5,262.3,2549.2,262.3z M2548.7,276.6
		v-11.5h1.1v11.5H2548.7z"/>
	<path class="st3" d="M2556.6,276.6l-4.3-11.5h1.1l2.6,7.2c0.2,0.5,0.4,1.1,0.6,1.7s0.4,1.1,0.6,1.6h0.1c0.2-0.5,0.4-1.1,0.6-1.6
		c0.2-0.6,0.4-1.1,0.6-1.7l2.6-7.2h1.1l-4.3,11.5H2556.6L2556.6,276.6z"/>
	<path class="st3" d="M2565.1,262.3c-0.3,0-0.5-0.1-0.6-0.3c-0.2-0.2-0.3-0.4-0.3-0.7c0-0.3,0.1-0.5,0.3-0.7
		c0.2-0.2,0.4-0.3,0.6-0.3c0.3,0,0.5,0.1,0.7,0.3s0.2,0.4,0.2,0.7c0,0.3-0.1,0.5-0.2,0.7S2565.4,262.3,2565.1,262.3z M2564.6,276.6
		v-11.5h1.1v11.5H2564.6z"/>
	<path class="st3" d="M2573.2,276.9c-1.1,0-1.9-0.3-2.3-1c-0.4-0.6-0.6-1.5-0.6-2.5V266h-1.8v-0.8l1.8-0.1l0.1-3.3h0.9v3.3h3.3v0.9
		h-3.3v7.5c0,0.7,0.1,1.3,0.4,1.8c0.3,0.5,0.8,0.7,1.6,0.7c0.2,0,0.5,0,0.7-0.1c0.3-0.1,0.5-0.2,0.7-0.2l0.3,0.9
		c-0.3,0.1-0.7,0.2-1,0.3C2573.7,276.8,2573.4,276.9,2573.2,276.9L2573.2,276.9z"/>
	<path class="st3" d="M2577.1,281.9c-0.4,0-0.8-0.1-1.2-0.2l0.2-0.9c0.1,0,0.3,0.1,0.4,0.1s0.3,0.1,0.5,0.1c0.7,0,1.3-0.3,1.8-0.9
		c0.5-0.6,0.9-1.3,1.2-2.2l0.3-1l-4.7-11.7h1.1l2.8,7.2c0.2,0.5,0.4,1,0.6,1.6s0.4,1.1,0.6,1.6h0.1c0.2-0.5,0.4-1.1,0.5-1.6
		c0.2-0.6,0.4-1.1,0.5-1.6l2.5-7.2h1.1l-4.6,13c-0.2,0.6-0.5,1.2-0.8,1.8c-0.4,0.6-0.8,1.1-1.3,1.4
		C2578.4,281.7,2577.8,281.9,2577.1,281.9L2577.1,281.9z"/>
</g>
<g>
	<path class="st15" d="M1715.8,658.3c-1.7-8.4-2.7-17-2.7-25.9c0-51.8,31.2-96.4,75.8-116"/>
	<path class="st16" d="M1728.9,627.5c-1-0.4-2.2,0.2-2.6,1.2l-10.6,28.7l-21.5-21.8c-0.8-0.8-2.1-0.8-2.8,0c-0.8,0.8-0.8,2,0,2.8
		l23.7,24c0.5,0.5,1.2,0.7,1.8,0.5c0.7-0.1,1.2-0.6,1.4-1.3L1730,630c0.1-0.4,0.2-0.8,0.1-1.1C1730,628.3,1729.5,627.7,1728.9,627.5
		L1728.9,627.5z"/>
	<path class="st16" d="M1771.6,545c-0.9-0.6-1.2-1.9-0.6-2.8l17.1-25.4l-30.2-4.7c-1.1-0.2-1.8-1.2-1.7-2.3c0.2-1.1,1.2-1.8,2.3-1.7
		l33.3,5.2c0.7,0.1,1.2,0.5,1.5,1.2s0.2,1.3-0.2,1.9l-18.8,28c-0.2,0.3-0.5,0.6-0.9,0.7C1772.9,545.4,1772.2,545.4,1771.6,545
		L1771.6,545z"/>
</g>
<g id="b">
	<line class="st17" x1="2021.8" y1="339.5" x2="2383.7" y2="339.5"/>
	<line class="st18" x1="2021.8" y1="270.6" x2="2383.7" y2="270.6"/>
	<pattern  id="SVGID_1_" xlink:href="#c" patternTransform="matrix(0.7071 -0.7071 -0.7071 -0.7071 -4958.8955 -9113.9014)">
	</pattern>
	<rect x="1631" y="340.1" class="st19" width="390.7" height="482.2"/>
	
		<pattern  id="SVGID_00000046333422904027034200000008490440855191250063_" xlink:href="#d" patternTransform="matrix(0.7071 0.7071 0.7071 -0.7071 -3503.8679 -10448.2559)">
	</pattern>
	
		<rect x="1631" y="3" style="opacity:0.6;fill:url(#SVGID_00000046333422904027034200000008490440855191250063_);stroke:#F7941D;stroke-width:1.5;stroke-miterlimit:10;enable-background:new    ;" width="390.5" height="390.5"/>
</g>
<g id="e">
	<path class="st14" d="M2116.6,662.3c-6.8-6.5-16.6-16.4-27.5-29.5c0,0-3.1-3.7-6.1-7.5c-16.3-20.9-34.6-53.5-40.7-63.9
		c-22.7-38.8-39.8-68.3-68-74.2c-4.6-1-15-2.2-35.7-4.8c-25.8-3.2-27.1-2.7-33-4.8c-16.7-5.8-16.3-12.8-37.1-22.7
		c-11.5-5.5-20.5-9.6-32.3-8.2c-2.9,0.3-17.8,2-26.8,13.7c-9.8,12.8-6.2,29.3-4.1,39.2c4.8,22.2,17.3,36.3,30.9,51.5
		c19.7,22,40.4,35,51.5,41.9c14.2,8.8,13.2,6.3,20.6,11.7c31.2,22.7,39.3,59.5,41.2,68.7c4.3,21-0.3,25.7,0,55
		c0.3,29.7,5.4,50.5,13.1,81.8c13,53.2,21.3,87.3,45.3,123.7c13.2,20,38.8,52.2,85.2,79.7"/>
	<path class="st13" d="M1907,488.5c-7.7,5.8-14.9,9.1-19.9,11c-11.1,4.2-20,4.8-32.3,5.5c-10.4,0.6-15.8,0.9-20.6-1.4
		c-9.6-4.5-13.9-13.9-15.1-16.5c-2.8-6.1-3.4-11.8-3.4-15.1"/>
</g>
</svg>
