<?xml version="1.0" encoding="utf-8"?>
<!-- Generator: Adobe Illustrator 26.2.1, SVG Export Plug-In . SVG Version: 6.00 Build 0)  -->
<svg version="1.1" id="Layer_1" xmlns="http://www.w3.org/2000/svg" xmlns:xlink="http://www.w3.org/1999/xlink" x="0px" y="0px"
	 viewBox="0 0 2646 2466.5" style="enable-background:new 0 0 2646 2466.5;" xml:space="preserve">
<style type="text/css">
	.st0{fill:none;stroke:#231F20;stroke-width:0.75;stroke-miterlimit:10;}
	.st1{fill:#231F20;}
	.st2{fill:#E2E2E2;}
	.st3{opacity:0.2;fill:#4752A4;enable-background:new    ;}
	.st4{opacity:0.3;fill:#4752A4;enable-background:new    ;}
	.st5{opacity:0.1;fill:#4752A4;enable-background:new    ;}
	.st6{opacity:0.2;fill:#DA1C5C;enable-background:new    ;}
	.st7{opacity:0.2;fill:#F7941D;enable-background:new    ;}
	.st8{fill:none;stroke:#D7DF23;stroke-width:0.75;stroke-miterlimit:10;}
	.st9{fill:none;stroke:#F7941D;stroke-width:0.75;stroke-miterlimit:10;}
	.st10{fill:none;stroke:#F7941D;stroke-width:5;stroke-miterlimit:10;}
	.st11{fill:none;stroke:#D7DF23;stroke-width:5;stroke-miterlimit:10;}
	.st12{fill:none;stroke:#DA1C5C;stroke-width:0.75;stroke-miterlimit:10;}
	.st13{fill:none;stroke:#DA1C5C;stroke-width:5;stroke-miterlimit:10;}
	.st14{fill:none;stroke:#006838;stroke-width:0.75;stroke-miterlimit:10;}
	.st15{fill:none;stroke:#006838;stroke-width:5;stroke-miterlimit:10;}
	.st16{opacity:0.6;fill:none;stroke:#DA1C5C;stroke-width:1.5;stroke-miterlimit:10;enable-background:new    ;}
	.st17{opacity:0.6;fill:none;stroke:#F7941D;stroke-width:1.5;stroke-miterlimit:10;enable-background:new    ;}
	.st18{fill:none;stroke:#DA1C5C;stroke-width:1.5;stroke-miterlimit:10;}
	.st19{fill:#DA1C5C;}
	.st20{opacity:0.2;fill:#006838;enable-background:new    ;}
	.st21{fill:none;stroke:#006838;stroke-width:1.5;stroke-miterlimit:10;}
	.st22{fill:none;stroke:#ED1C24;stroke-miterlimit:10;}
	.st23{fill:#ED1C24;}
	.st24{fill:none;stroke:#ED1C24;stroke-width:0.75;stroke-miterlimit:10;}
</style>
<g id="a">
	<rect x="276.9" y="68.4" class="st0" width="1920" height="1080"/>
	<g>
		<path class="st1" d="M322.7,20.1v-0.9h3.6V6.5h-2.7V5.7c0.6-0.1,1.2-0.2,1.7-0.4s0.9-0.3,1.3-0.6h0.9v14.4h3.3v0.9H322.7
			L322.7,20.1z"/>
		<path class="st1" d="M337.6,20.4c-0.8,0-1.5-0.1-2.1-0.3s-1.1-0.5-1.5-0.8c-0.4-0.3-0.8-0.6-1.1-1l0.6-0.7c0.5,0.5,1,0.9,1.7,1.3
			c0.6,0.4,1.5,0.6,2.5,0.6c0.7,0,1.3-0.2,1.9-0.5c0.6-0.3,1-0.8,1.4-1.5s0.5-1.3,0.5-2.2c0-1.2-0.3-2.2-1-2.9s-1.6-1.1-2.7-1.1
			c-0.6,0-1.1,0.1-1.5,0.3c-0.4,0.2-0.9,0.4-1.3,0.8l-0.7-0.5l0.5-7.2h7.1v0.9h-6.1l-0.5,5.5c0.4-0.2,0.8-0.4,1.2-0.6
			c0.4-0.1,0.9-0.2,1.5-0.2c0.9,0,1.6,0.2,2.4,0.5c0.7,0.3,1.3,0.9,1.7,1.6s0.6,1.6,0.6,2.8s-0.2,2-0.7,2.8s-1.1,1.3-1.8,1.7
			C339.3,20.2,338.5,20.4,337.6,20.4L337.6,20.4z"/>
		<path class="st1" d="M349.4,20.4c-1.5,0-2.6-0.7-3.4-2.1c-0.8-1.4-1.2-3.4-1.2-5.9s0.4-4.5,1.2-5.9c0.8-1.4,1.9-2,3.4-2
			s2.6,0.7,3.4,2c0.8,1.4,1.2,3.3,1.2,5.9s-0.4,4.5-1.2,5.9S350.9,20.4,349.4,20.4z M349.4,19.5c1.1,0,1.9-0.6,2.6-1.8
			c0.6-1.2,1-3,1-5.3s-0.3-4.1-1-5.2s-1.5-1.7-2.6-1.7s-1.9,0.6-2.5,1.7s-1,2.9-1,5.2s0.3,4.1,1,5.3
			C347.5,18.9,348.4,19.5,349.4,19.5z"/>
		<path class="st1" d="M362.2,25.3V8.6h0.9l0.1,1.4h0.1c0.6-0.4,1.2-0.9,1.9-1.2s1.4-0.5,2.1-0.5c1.5,0,2.7,0.5,3.5,1.6
			c0.8,1.1,1.1,2.5,1.1,4.3c0,1.3-0.2,2.4-0.7,3.3s-1.1,1.6-1.9,2.1s-1.6,0.7-2.5,0.7c-0.5,0-1.1-0.1-1.7-0.4s-1.2-0.6-1.8-1v6.3
			L362.2,25.3L362.2,25.3z M366.7,19.5c0.8,0,1.5-0.2,2.1-0.7s1.1-1.1,1.4-1.9c0.3-0.8,0.5-1.7,0.5-2.8c0-0.9-0.1-1.8-0.4-2.5
			s-0.6-1.3-1.2-1.8c-0.5-0.4-1.2-0.6-2.1-0.6c-0.6,0-1.2,0.2-1.8,0.5s-1.3,0.8-2,1.4V18c0.7,0.5,1.3,0.9,1.9,1.1
			S366.2,19.5,366.7,19.5L366.7,19.5z"/>
		<path class="st1" d="M373.1,20.1l3.9-6l-3.6-5.5h1.2l1.9,2.9c0.2,0.3,0.4,0.6,0.6,0.9s0.4,0.6,0.6,1h0.1c0.2-0.3,0.4-0.6,0.6-1
			c0.2-0.3,0.4-0.6,0.6-0.9l1.8-2.9h1.1l-3.6,5.6l3.9,5.9H381l-2-3.1c-0.2-0.4-0.4-0.7-0.7-1.1s-0.5-0.7-0.7-1h-0.1
			c-0.2,0.3-0.4,0.7-0.7,1c-0.2,0.4-0.4,0.7-0.7,1.1l-2,3.1H373.1L373.1,20.1z"/>
	</g>
	<g>
		<path class="st1" d="M411.5,19.9v-0.7c1.7-1.7,3.1-3.2,4.2-4.4c1.1-1.3,2-2.4,2.5-3.4s0.8-1.9,0.8-2.8c0-1-0.3-1.8-0.8-2.4
			c-0.5-0.7-1.4-1-2.5-1c-0.7,0-1.3,0.2-2,0.6c-0.6,0.4-1.2,0.9-1.6,1.4l-0.7-0.7c0.6-0.6,1.2-1.2,1.9-1.6c0.7-0.4,1.5-0.7,2.5-0.7
			c1.4,0,2.4,0.4,3.2,1.2c0.8,0.8,1.1,1.8,1.1,3.1c0,1-0.3,2-0.9,3.1s-1.4,2.2-2.5,3.4s-2.3,2.6-3.7,4.1c0.4,0,0.8-0.1,1.3-0.1
			s0.9,0,1.3,0h5.2v1L411.5,19.9L411.5,19.9z"/>
		<path class="st1" d="M427.7,20.2c-1.5,0-2.6-0.7-3.4-2.1c-0.8-1.4-1.2-3.4-1.2-5.9s0.4-4.5,1.2-5.9c0.8-1.4,1.9-2,3.4-2
			s2.6,0.7,3.4,2c0.8,1.4,1.2,3.3,1.2,5.9s-0.4,4.5-1.2,5.9S429.2,20.2,427.7,20.2z M427.7,19.3c1.1,0,1.9-0.6,2.6-1.8
			c0.6-1.2,1-3,1-5.3s-0.3-4.1-1-5.2s-1.5-1.7-2.6-1.7s-1.9,0.6-2.5,1.7s-1,2.9-1,5.2s0.3,4.1,1,5.3
			C425.8,18.7,426.6,19.3,427.7,19.3z"/>
		<path class="st1" d="M440.5,25.1V8.4h0.9l0.1,1.4h0.1c0.6-0.4,1.2-0.9,1.9-1.2s1.4-0.5,2.1-0.5c1.5,0,2.7,0.5,3.5,1.6
			c0.8,1.1,1.1,2.5,1.1,4.3c0,1.3-0.2,2.4-0.7,3.3s-1.1,1.6-1.9,2.1s-1.6,0.7-2.5,0.7c-0.5,0-1.1-0.1-1.7-0.4s-1.2-0.6-1.8-1v6.3
			L440.5,25.1L440.5,25.1z M444.9,19.3c0.8,0,1.5-0.2,2.1-0.7s1.1-1.1,1.4-1.9c0.3-0.8,0.5-1.7,0.5-2.8c0-0.9-0.1-1.8-0.4-2.5
			s-0.6-1.3-1.2-1.8c-0.5-0.4-1.2-0.6-2.1-0.6c-0.6,0-1.2,0.2-1.8,0.5s-1.3,0.8-2,1.4v6.8c0.7,0.5,1.3,0.9,1.9,1.1
			S444.5,19.3,444.9,19.3L444.9,19.3z"/>
		<path class="st1" d="M451.4,19.9l3.9-6l-3.6-5.5h1.2l1.9,2.9c0.2,0.3,0.4,0.6,0.6,0.9s0.4,0.6,0.6,1h0.1c0.2-0.3,0.4-0.6,0.6-1
			c0.2-0.3,0.4-0.6,0.6-0.9l1.8-2.9h1.1l-3.6,5.6l3.9,5.9h-1.2l-2-3.1c-0.2-0.4-0.4-0.7-0.7-1.1s-0.5-0.7-0.7-1h-0.1
			c-0.2,0.3-0.4,0.7-0.7,1c-0.2,0.4-0.4,0.7-0.7,1.1l-2,3.1H451.4L451.4,19.9z"/>
	</g>
	<g>
		<path class="st1" d="M566.5,20.2c-0.9,0-1.8-0.2-2.5-0.5c-0.7-0.4-1.3-0.9-1.7-1.5s-0.6-1.4-0.6-2.2c0-0.7,0.2-1.3,0.5-1.9
			s0.7-1,1.2-1.4c0.5-0.4,1-0.7,1.4-1v-0.1c-0.6-0.4-1.1-0.8-1.5-1.4s-0.7-1.3-0.7-2.1c0-0.7,0.2-1.4,0.5-1.9s0.8-1,1.5-1.3
			s1.3-0.5,2-0.5c1.3,0,2.3,0.4,3.1,1.1s1.1,1.7,1.1,2.9c0,0.6-0.1,1.1-0.4,1.6s-0.5,0.9-0.9,1.3s-0.7,0.7-1,0.9v0.1
			c0.5,0.3,0.9,0.6,1.3,0.9c0.4,0.3,0.7,0.8,1,1.2c0.3,0.5,0.4,1.1,0.4,1.8c0,0.7-0.2,1.4-0.6,2s-0.9,1.1-1.6,1.5
			C568.3,20,567.5,20.2,566.5,20.2L566.5,20.2z M566.5,19.3c1.1,0,2-0.3,2.6-0.9c0.7-0.6,1-1.4,1-2.2c0-0.8-0.2-1.4-0.7-1.9
			s-1-0.9-1.7-1.2c-0.7-0.3-1.5-0.7-2.3-1c-0.8,0.4-1.4,1-1.9,1.6s-0.8,1.4-0.8,2.2c0,0.6,0.2,1.2,0.5,1.7s0.8,0.9,1.4,1.2
			C565.1,19.2,565.8,19.3,566.5,19.3L566.5,19.3z M567.7,11.9c0.7-0.5,1.2-1.1,1.5-1.7s0.5-1.2,0.5-1.9c0-0.8-0.3-1.6-0.8-2.2
			c-0.5-0.6-1.3-0.9-2.3-0.9c-0.8,0-1.5,0.3-2.1,0.8c-0.6,0.5-0.8,1.2-0.8,2c0,0.7,0.2,1.3,0.6,1.8c0.4,0.5,0.9,0.9,1.5,1.2
			S567,11.6,567.7,11.9L567.7,11.9z"/>
		<path class="st1" d="M577.9,20.2c-1.5,0-2.6-0.7-3.4-2.1s-1.2-3.4-1.2-5.9s0.4-4.5,1.2-5.9s1.9-2,3.4-2s2.6,0.7,3.4,2
			c0.8,1.4,1.2,3.3,1.2,5.9s-0.4,4.5-1.2,5.9S579.4,20.2,577.9,20.2z M577.9,19.3c1.1,0,1.9-0.6,2.6-1.8c0.6-1.2,1-3,1-5.3
			s-0.3-4.1-1-5.2s-1.5-1.7-2.6-1.7S576,5.8,575.4,7c-0.6,1.2-1,2.9-1,5.2s0.3,4.1,1,5.3S576.9,19.3,577.9,19.3z"/>
		<path class="st1" d="M590.7,25.1V8.4h0.9l0.1,1.4h0.1c0.6-0.4,1.2-0.9,1.8-1.2s1.4-0.5,2.1-0.5c1.5,0,2.7,0.5,3.5,1.6
			c0.8,1.1,1.2,2.5,1.2,4.3c0,1.3-0.2,2.4-0.7,3.3s-1.1,1.6-1.9,2.1c-0.8,0.5-1.6,0.7-2.5,0.7c-0.5,0-1.1-0.1-1.7-0.4
			s-1.2-0.6-1.8-1v6.3L590.7,25.1L590.7,25.1z M595.2,19.3c0.8,0,1.5-0.2,2.1-0.7s1.1-1.1,1.4-1.9c0.3-0.8,0.5-1.7,0.5-2.8
			c0-0.9-0.1-1.8-0.4-2.5s-0.6-1.3-1.2-1.8c-0.5-0.4-1.2-0.6-2.1-0.6c-0.6,0-1.2,0.2-1.8,0.5s-1.3,0.8-2,1.4v6.8
			c0.7,0.5,1.3,0.9,1.9,1.1S594.7,19.3,595.2,19.3L595.2,19.3z"/>
		<path class="st1" d="M601.6,19.9l3.9-6l-3.6-5.5h1.2l1.9,2.9c0.2,0.3,0.4,0.6,0.6,0.9c0.2,0.3,0.4,0.6,0.6,1h0.1
			c0.2-0.3,0.4-0.6,0.6-1c0.2-0.3,0.4-0.6,0.6-0.9l1.8-2.9h1.1l-3.6,5.6l3.9,5.9h-1.2l-2-3.1c-0.2-0.4-0.4-0.7-0.7-1.1
			s-0.5-0.7-0.7-1H606c-0.2,0.3-0.4,0.7-0.7,1c-0.2,0.4-0.4,0.7-0.7,1.1l-2,3.1H601.6L601.6,19.9z"/>
	</g>
	<g>
		<path class="st1" d="M1202.3,1204.3v-0.9h3.6v-12.7h-2.7v-0.7c0.6-0.1,1.2-0.2,1.7-0.4s0.9-0.3,1.3-0.6h0.9v14.4h3.3v0.9H1202.3
			L1202.3,1204.3z"/>
		<path class="st1" d="M1216.3,1204.5c-0.7,0-1.3-0.1-1.9-0.4s-1-0.6-1.4-1.1l0.7-0.7c0.3,0.4,0.7,0.7,1.2,0.9s0.9,0.3,1.4,0.3
			c0.8,0,1.6-0.2,2.3-0.7c0.7-0.5,1.2-1.3,1.7-2.4c0.4-1.1,0.6-2.6,0.6-4.5c-0.5,0.6-1.1,1.2-1.8,1.5s-1.4,0.6-2.1,0.6
			c-1.3,0-2.4-0.4-3.1-1.2c-0.8-0.8-1.1-2-1.1-3.5c0-0.9,0.2-1.8,0.6-2.5c0.4-0.7,0.9-1.3,1.5-1.7c0.6-0.4,1.3-0.6,2.1-0.6
			c1.5,0,2.7,0.6,3.6,1.9c0.9,1.2,1.4,3,1.4,5.4c0,2.1-0.3,3.8-0.8,5.1s-1.2,2.2-2.1,2.7C1218.3,1204.3,1217.3,1204.6,1216.3,1204.5
			L1216.3,1204.5z M1213.8,1193.4c0,1.1,0.3,2,0.8,2.8s1.4,1.1,2.5,1.1c0.6,0,1.2-0.2,1.8-0.6c0.7-0.4,1.3-1,1.9-1.8
			c-0.1-1.6-0.5-2.9-1.1-3.9s-1.6-1.5-2.8-1.5c-0.6,0-1.1,0.2-1.6,0.5c-0.5,0.3-0.8,0.8-1.1,1.4
			C1214,1192,1213.8,1192.7,1213.8,1193.4L1213.8,1193.4z"/>
		<path class="st1" d="M1224.2,1204.3v-0.7c1.7-1.7,3.1-3.2,4.2-4.4s2-2.4,2.5-3.4s0.8-1.9,0.8-2.8c0-1-0.3-1.8-0.8-2.4
			c-0.5-0.7-1.4-1-2.5-1c-0.7,0-1.3,0.2-2,0.6c-0.6,0.4-1.2,0.9-1.6,1.4l-0.7-0.7c0.6-0.6,1.2-1.2,1.9-1.6c0.7-0.4,1.5-0.7,2.4-0.7
			c1.4,0,2.4,0.4,3.2,1.2c0.8,0.8,1.1,1.8,1.1,3.1c0,1-0.3,2-0.9,3.1s-1.4,2.2-2.4,3.4c-1.1,1.2-2.3,2.6-3.7,4.1
			c0.4,0,0.8-0.1,1.3-0.1c0.4,0,0.9,0,1.3,0h5.2v1L1224.2,1204.3L1224.2,1204.3z"/>
		<path class="st1" d="M1240.5,1204.5c-1.5,0-2.6-0.7-3.4-2.1s-1.2-3.4-1.2-5.9s0.4-4.5,1.2-5.9c0.8-1.4,1.9-2,3.4-2s2.6,0.7,3.4,2
			s1.2,3.3,1.2,5.9s-0.4,4.5-1.2,5.9C1243.1,1203.8,1242,1204.5,1240.5,1204.5z M1240.5,1203.6c1.1,0,1.9-0.6,2.6-1.8s0.9-3,0.9-5.3
			s-0.3-4.1-0.9-5.2s-1.5-1.7-2.6-1.7s-1.9,0.6-2.5,1.7s-1,2.9-1,5.2s0.3,4.1,1,5.3C1238.6,1203,1239.4,1203.6,1240.5,1203.6z"/>
		<path class="st1" d="M1253.2,1209.5v-16.7h0.9l0.1,1.4h0.1c0.6-0.4,1.2-0.8,1.8-1.2c0.7-0.3,1.4-0.5,2.1-0.5
			c1.5,0,2.7,0.5,3.5,1.6c0.8,1.1,1.2,2.5,1.2,4.3c0,1.3-0.2,2.4-0.7,3.3s-1.1,1.6-1.9,2.1s-1.6,0.7-2.5,0.7c-0.5,0-1.1-0.1-1.7-0.4
			s-1.2-0.6-1.8-1v6.3L1253.2,1209.5L1253.2,1209.5z M1257.7,1203.6c0.8,0,1.5-0.2,2.1-0.7c0.6-0.4,1.1-1.1,1.4-1.9
			c0.3-0.8,0.5-1.7,0.5-2.8c0-0.9-0.1-1.8-0.4-2.5s-0.6-1.3-1.2-1.8c-0.5-0.4-1.2-0.7-2.1-0.7c-0.6,0-1.2,0.2-1.8,0.5
			s-1.3,0.8-2,1.4v6.8c0.7,0.5,1.3,0.9,1.9,1.2S1257.3,1203.6,1257.7,1203.6L1257.7,1203.6z"/>
		<path class="st1" d="M1264.1,1204.3l3.9-6l-3.6-5.5h1.2l1.9,2.9c0.2,0.3,0.4,0.6,0.6,0.9s0.4,0.6,0.6,1h0.1c0.2-0.3,0.4-0.6,0.6-1
			c0.2-0.3,0.4-0.6,0.6-0.9l1.8-2.9h1.1l-3.6,5.6l3.9,5.9h-1.2l-2-3.1c-0.2-0.4-0.4-0.7-0.7-1.1s-0.5-0.7-0.7-1h-0.1
			c-0.2,0.3-0.4,0.7-0.7,1s-0.4,0.7-0.7,1.1l-2,3.1H1264.1L1264.1,1204.3z"/>
	</g>
	<g>
		<path class="st1" d="M7.9,805.6c-0.8,0-1.5-0.1-2.1-0.3c-0.6-0.2-1.1-0.5-1.6-0.8s-0.8-0.7-1.2-1l0.6-0.7c0.5,0.5,1,1,1.7,1.4
			s1.5,0.6,2.6,0.6s1.9-0.3,2.6-0.9c0.7-0.6,1-1.4,1-2.5s-0.4-1.9-1.2-2.6c-0.8-0.7-2.2-1-4.1-1v-0.9c1.2,0,2.1-0.2,2.8-0.4
			s1.2-0.7,1.5-1.2s0.5-1.1,0.5-1.7c0-0.9-0.3-1.6-0.8-2.1s-1.3-0.8-2.3-0.8c-0.7,0-1.4,0.2-2,0.5s-1.1,0.7-1.6,1.2l-0.6-0.7
			c0.5-0.5,1.1-1,1.8-1.3s1.5-0.5,2.3-0.5c0.8,0,1.5,0.1,2.1,0.4s1.1,0.7,1.5,1.3s0.6,1.2,0.6,2c0,1-0.3,1.8-0.8,2.4
			s-1.2,1.1-2.1,1.4v0.1c0.6,0.1,1.2,0.4,1.7,0.7c0.5,0.4,0.9,0.8,1.3,1.4c0.3,0.5,0.5,1.2,0.5,1.9c0,0.9-0.2,1.7-0.6,2.3
			c-0.4,0.7-1,1.2-1.7,1.5C9.6,805.4,8.8,805.6,7.9,805.6L7.9,805.6z"/>
		<path class="st1" d="M14.2,805.3l3.9-6l-3.6-5.5h1.2l1.9,2.9c0.2,0.3,0.4,0.6,0.6,0.9c0.2,0.3,0.4,0.6,0.6,1h0.1
			c0.2-0.3,0.4-0.6,0.6-1c0.2-0.3,0.4-0.6,0.6-0.9l1.8-2.9h1.1l-3.6,5.6l3.9,5.9h-1.2l-2-3.1c-0.2-0.4-0.4-0.7-0.7-1.1
			c-0.2-0.3-0.5-0.7-0.7-1h-0.1c-0.2,0.3-0.4,0.7-0.7,1s-0.4,0.7-0.7,1.1l-2,3.1H14.2L14.2,805.3z"/>
	</g>
	<g>
		<path class="st1" d="M7.9,219c-0.8,0-1.5-0.1-2.1-0.3c-0.6-0.2-1.1-0.5-1.6-0.8s-0.8-0.7-1.2-1l0.6-0.7c0.5,0.5,1,0.9,1.7,1.4
			s1.5,0.6,2.6,0.6s1.9-0.3,2.6-0.9c0.7-0.6,1-1.4,1-2.5s-0.4-1.9-1.2-2.6c-0.8-0.7-2.2-1-4.1-1v-0.9c1.2,0,2.1-0.1,2.8-0.4
			s1.2-0.7,1.5-1.2s0.5-1.1,0.5-1.7c0-0.9-0.3-1.6-0.8-2.1S8.8,204,7.8,204c-0.7,0-1.4,0.2-2,0.5s-1.1,0.7-1.6,1.2l-0.6-0.7
			c0.5-0.5,1.1-0.9,1.8-1.3c0.7-0.4,1.5-0.6,2.3-0.6c0.8,0,1.5,0.1,2.1,0.4s1.1,0.7,1.5,1.3c0.4,0.6,0.6,1.2,0.6,2
			c0,1-0.3,1.8-0.8,2.4s-1.2,1.1-2.1,1.4v0.1c0.6,0.1,1.2,0.4,1.7,0.7s0.9,0.8,1.3,1.4c0.3,0.5,0.5,1.2,0.5,1.9
			c0,0.9-0.2,1.6-0.6,2.3c-0.4,0.7-1,1.2-1.7,1.5S8.8,219,7.9,219L7.9,219z"/>
		<path class="st1" d="M14.2,218.7l3.9-6l-3.6-5.5h1.2l1.9,2.9c0.2,0.3,0.4,0.6,0.6,0.9c0.2,0.3,0.4,0.6,0.6,1h0.1
			c0.2-0.3,0.4-0.6,0.6-1c0.2-0.3,0.4-0.6,0.6-0.9l1.8-2.9h1.1l-3.6,5.6l3.9,5.9h-1.2l-2-3.1c-0.2-0.4-0.4-0.7-0.7-1.1
			s-0.5-0.7-0.7-1h-0.1c-0.2,0.3-0.4,0.7-0.7,1s-0.4,0.7-0.7,1.1l-2,3.1L14.2,218.7L14.2,218.7z"/>
	</g>
	<g>
		<path class="st1" d="M2408.5,164v-15.8h1.1l6.7,11.2l1.8,3.1h0.1c0-0.8,0-1.5-0.1-2.3c0-0.8-0.1-1.5-0.1-2.3v-9.7h1.1V164h-1.1
			l-6.7-11.2l-1.8-3.1h-0.1c0,0.8,0.1,1.5,0.1,2.2c0,0.7,0.1,1.5,0.1,2.3v9.8L2408.5,164L2408.5,164z"/>
		<path class="st1" d="M2426.1,164.3c-0.9,0-1.7-0.3-2.4-0.8s-1-1.3-1-2.4c0-1.3,0.6-2.2,1.8-2.9c1.2-0.7,3.1-1.1,5.6-1.4
			c0-0.6-0.1-1.2-0.2-1.7c-0.1-0.6-0.4-1-0.8-1.4s-1-0.6-1.7-0.6s-1.5,0.1-2.1,0.5c-0.6,0.3-1.2,0.6-1.6,0.9l-0.5-0.8
			c0.3-0.2,0.6-0.4,1.1-0.6c0.4-0.2,0.9-0.4,1.5-0.6s1.1-0.2,1.8-0.2c0.9,0,1.6,0.2,2.2,0.6s0.9,0.9,1.1,1.6
			c0.2,0.7,0.4,1.4,0.4,2.2v7.4h-0.9l-0.1-1.5h-0.1c-0.6,0.5-1.2,0.9-1.9,1.2S2426.9,164.3,2426.1,164.3L2426.1,164.3z
			 M2426.3,163.4c0.7,0,1.3-0.2,1.9-0.5c0.6-0.3,1.3-0.8,2-1.4v-3.9c-1.6,0.2-2.8,0.4-3.8,0.7s-1.6,0.7-2,1.1s-0.6,1-0.6,1.6
			c0,0.8,0.2,1.4,0.7,1.8C2425.1,163.2,2425.7,163.4,2426.3,163.4L2426.3,163.4z"/>
		<path class="st1" d="M2437.8,164l-4.3-11.5h1.1l2.6,7.2c0.2,0.5,0.4,1.1,0.6,1.7c0.2,0.6,0.4,1.1,0.6,1.6h0.1
			c0.2-0.5,0.4-1.1,0.6-1.6c0.2-0.6,0.4-1.1,0.6-1.7l2.6-7.2h1.1l-4.3,11.5H2437.8L2437.8,164z"/>
		<path class="st1" d="M2446.4,149.7c-0.3,0-0.5-0.1-0.6-0.3c-0.2-0.2-0.3-0.4-0.3-0.7c0-0.3,0.1-0.5,0.3-0.7
			c0.2-0.2,0.4-0.3,0.6-0.3c0.3,0,0.5,0.1,0.7,0.3c0.2,0.2,0.2,0.4,0.2,0.7c0,0.3-0.1,0.5-0.2,0.7
			C2446.9,149.6,2446.6,149.7,2446.4,149.7z M2445.8,164v-11.5h1.1V164H2445.8z"/>
		<path class="st1" d="M2455.1,169.5c-1.5,0-2.6-0.3-3.5-0.9c-0.9-0.6-1.3-1.4-1.3-2.3c0-0.5,0.1-1,0.5-1.5c0.3-0.5,0.7-0.9,1.2-1.3
			v-0.1c-0.3-0.2-0.5-0.4-0.7-0.7s-0.3-0.7-0.3-1.1c0-0.5,0.1-0.9,0.4-1.3s0.6-0.6,0.8-0.8v-0.1c-0.4-0.3-0.7-0.8-1-1.3
			s-0.5-1.2-0.5-1.9c0-0.8,0.2-1.5,0.5-2.1s0.9-1.1,1.5-1.4c0.6-0.3,1.3-0.5,2.1-0.5c0.3,0,0.6,0,0.9,0.1c0.3,0.1,0.5,0.1,0.6,0.2
			h3.9v0.9h-2.7c0.4,0.3,0.7,0.7,0.9,1.2s0.4,1.1,0.4,1.7c0,0.8-0.2,1.5-0.5,2.1s-0.8,1.1-1.4,1.4c-0.6,0.4-1.3,0.5-2,0.5
			c-0.3,0-0.6,0-1-0.1c-0.3-0.1-0.6-0.2-0.9-0.4c-0.3,0.2-0.5,0.4-0.7,0.7c-0.2,0.3-0.3,0.6-0.3,1c0,0.4,0.1,0.8,0.5,1.1
			c0.3,0.3,0.9,0.4,1.8,0.4h2.5c1.3,0,2.2,0.2,2.9,0.6c0.6,0.4,0.9,1.1,0.9,2c0,0.7-0.2,1.3-0.7,1.9s-1.1,1.1-1.9,1.4
			C2457.1,169.3,2456.2,169.5,2455.1,169.5L2455.1,169.5z M2455.2,168.7c0.9,0,1.6-0.1,2.2-0.4s1.1-0.6,1.5-1.1
			c0.4-0.4,0.5-0.9,0.5-1.4c0-0.6-0.2-1.1-0.7-1.4c-0.5-0.3-1.1-0.4-2-0.4h-2.5c-0.1,0-0.3,0-0.6-0.1c-0.3,0-0.6-0.1-0.9-0.1
			c-0.5,0.4-0.9,0.7-1.1,1.2s-0.4,0.8-0.4,1.3c0,0.7,0.3,1.3,1,1.8S2454,168.7,2455.2,168.7L2455.2,168.7z M2454.9,159.5
			c0.5,0,1-0.1,1.5-0.4s0.8-0.6,1.1-1.1s0.4-1.1,0.4-1.7c0-1-0.3-1.8-0.9-2.3c-0.6-0.6-1.3-0.9-2.1-0.9s-1.5,0.3-2.1,0.9
			s-0.9,1.4-0.9,2.3c0,0.6,0.1,1.2,0.4,1.7s0.6,0.9,1.1,1.1C2453.9,159.3,2454.4,159.5,2454.9,159.5z"/>
		<path class="st1" d="M2465.1,164.3c-0.9,0-1.7-0.3-2.4-0.8s-1-1.3-1-2.4c0-1.3,0.6-2.2,1.8-2.9s3.1-1.1,5.6-1.4
			c0-0.6-0.1-1.2-0.2-1.7c-0.1-0.6-0.4-1-0.8-1.4c-0.4-0.4-1-0.6-1.7-0.6s-1.5,0.1-2.1,0.5c-0.6,0.3-1.2,0.6-1.6,0.9l-0.5-0.8
			c0.3-0.2,0.6-0.4,1.1-0.6c0.4-0.2,0.9-0.4,1.5-0.6c0.6-0.2,1.1-0.2,1.8-0.2c0.9,0,1.6,0.2,2.2,0.6c0.5,0.4,0.9,0.9,1.1,1.6
			s0.4,1.4,0.4,2.2v7.4h-0.9l-0.1-1.5h-0.1c-0.6,0.5-1.2,0.9-1.9,1.2S2465.9,164.3,2465.1,164.3L2465.1,164.3z M2465.3,163.4
			c0.7,0,1.3-0.2,1.9-0.5c0.6-0.3,1.3-0.8,2-1.4v-3.9c-1.6,0.2-2.8,0.4-3.8,0.7s-1.6,0.7-2,1.1s-0.6,1-0.6,1.6
			c0,0.8,0.2,1.4,0.7,1.8S2464.7,163.4,2465.3,163.4L2465.3,163.4z"/>
		<path class="st1" d="M2477.3,164.3c-1.1,0-1.9-0.3-2.3-1s-0.6-1.5-0.6-2.5v-7.4h-1.8v-0.8l1.8-0.1l0.1-3.3h0.9v3.3h3.3v0.9h-3.3
			v7.5c0,0.7,0.1,1.3,0.4,1.8s0.8,0.7,1.6,0.7c0.2,0,0.5,0,0.7-0.1s0.5-0.2,0.7-0.2l0.3,0.9c-0.3,0.1-0.7,0.2-1,0.3
			C2477.8,164.2,2477.5,164.3,2477.3,164.3L2477.3,164.3z"/>
		<path class="st1" d="M2482.2,149.7c-0.3,0-0.5-0.1-0.6-0.3c-0.2-0.2-0.3-0.4-0.3-0.7c0-0.3,0.1-0.5,0.3-0.7
			c0.2-0.2,0.4-0.3,0.6-0.3c0.3,0,0.5,0.1,0.7,0.3c0.2,0.2,0.2,0.4,0.2,0.7c0,0.3-0.1,0.5-0.2,0.7
			C2482.7,149.6,2482.5,149.7,2482.2,149.7z M2481.6,164v-11.5h1.1V164H2481.6z"/>
		<path class="st1" d="M2491.3,164.3c-0.9,0-1.8-0.2-2.5-0.7c-0.8-0.5-1.4-1.2-1.9-2.1s-0.7-2-0.7-3.2s0.2-2.4,0.7-3.3
			c0.5-0.9,1.1-1.6,1.9-2.1c0.8-0.5,1.6-0.7,2.5-0.7s1.8,0.2,2.6,0.7c0.8,0.5,1.4,1.2,1.9,2.1s0.7,2,0.7,3.3s-0.2,2.4-0.7,3.2
			s-1.1,1.6-1.9,2.1C2493.1,164,2492.3,164.3,2491.3,164.3z M2491.3,163.3c0.8,0,1.5-0.2,2.1-0.6s1.1-1,1.4-1.8
			c0.4-0.8,0.5-1.6,0.5-2.6s-0.2-1.9-0.5-2.7s-0.9-1.4-1.4-1.8c-0.6-0.4-1.3-0.6-2.1-0.6s-1.5,0.2-2.1,0.6s-1.1,1-1.4,1.8
			s-0.5,1.7-0.5,2.7s0.2,1.9,0.5,2.6s0.8,1.4,1.4,1.8S2490.6,163.3,2491.3,163.3z"/>
		<path class="st1" d="M2500,164v-11.5h0.9l0.1,1.8h0.1c0.6-0.6,1.2-1.1,1.8-1.5c0.6-0.4,1.3-0.6,2.1-0.6c1.2,0,2.1,0.4,2.6,1.1
			c0.6,0.7,0.9,1.8,0.9,3.3v7.4h-1.1v-7.2c0-1.2-0.2-2.1-0.6-2.7c-0.4-0.6-1.1-0.9-2-0.9c-0.7,0-1.3,0.2-1.9,0.5s-1.2,0.9-1.9,1.6
			v8.7L2500,164L2500,164z"/>
	</g>
	<g>
		<path class="st1" d="M2408.5,469.1v-15.8h1.1v6.9h8.5v-6.9h1.1v15.8h-1.1v-7.9h-8.5v7.9H2408.5z"/>
		<path class="st1" d="M2428.1,469.4c-1,0-1.9-0.2-2.7-0.7c-0.8-0.5-1.4-1.2-1.9-2.1c-0.5-0.9-0.7-2-0.7-3.2s0.2-2.4,0.7-3.2
			s1.1-1.6,1.9-2.1s1.6-0.7,2.4-0.7c1.4,0,2.5,0.5,3.2,1.4c0.8,0.9,1.2,2.2,1.2,3.9c0,0.1,0,0.3,0,0.4c0,0.1,0,0.3-0.1,0.4h-8.3
			c0,1,0.2,1.8,0.6,2.6s0.9,1.3,1.5,1.8c0.6,0.4,1.4,0.6,2.3,0.6c0.6,0,1.2-0.1,1.7-0.3s1-0.4,1.4-0.7l0.4,0.8
			c-0.4,0.3-0.9,0.5-1.5,0.8S2428.9,469.4,2428.1,469.4L2428.1,469.4z M2423.8,462.7h7.3c0-1.5-0.3-2.6-0.9-3.3
			c-0.6-0.7-1.4-1.1-2.5-1.1c-0.7,0-1.3,0.2-1.8,0.5s-1,0.9-1.4,1.5C2424.1,461,2423.9,461.8,2423.8,462.7L2423.8,462.7z"/>
		<path class="st1" d="M2435.3,469.1v-11.5h0.9l0.1,2.1h0.1c0.4-0.7,0.9-1.3,1.4-1.7c0.6-0.5,1.2-0.7,1.9-0.7c0.2,0,0.4,0,0.6,0
			s0.4,0.1,0.6,0.2l-0.2,1c-0.2-0.1-0.4-0.1-0.5-0.2c-0.1,0-0.3,0-0.6,0c-0.5,0-1.1,0.2-1.6,0.7s-1.1,1.2-1.5,2.3v7.9L2435.3,469.1
			L2435.3,469.1z"/>
		<path class="st1" d="M2446.8,469.4c-0.9,0-1.8-0.2-2.5-0.7c-0.8-0.5-1.4-1.2-1.9-2.1s-0.7-2-0.7-3.2s0.2-2.4,0.7-3.3
			s1.1-1.6,1.9-2.1c0.8-0.5,1.6-0.7,2.5-0.7s1.8,0.2,2.6,0.7c0.8,0.5,1.4,1.2,1.9,2.1s0.7,2,0.7,3.3s-0.2,2.4-0.7,3.2
			s-1.1,1.6-1.9,2.1C2448.6,469.2,2447.8,469.4,2446.8,469.4z M2446.8,468.5c0.8,0,1.5-0.2,2.1-0.6s1.1-1,1.4-1.8
			c0.4-0.8,0.5-1.6,0.5-2.6s-0.2-1.9-0.5-2.7s-0.9-1.4-1.4-1.8s-1.3-0.6-2.1-0.6s-1.5,0.2-2.1,0.6s-1.1,1-1.4,1.8
			c-0.4,0.8-0.5,1.7-0.5,2.7s0.2,1.9,0.5,2.6c0.4,0.8,0.8,1.4,1.4,1.8C2445.4,468.3,2446.1,468.5,2446.8,468.5z"/>
		<path class="st1" d="M2460.4,469.1v-15.8h1.1v15.8H2460.4z"/>
		<path class="st1" d="M2466,469.1v-11.5h0.9l0.1,1.8h0.1c0.5-0.6,1.1-1.1,1.7-1.5c0.6-0.4,1.3-0.6,1.9-0.6c0.9,0,1.6,0.2,2.1,0.6
			c0.5,0.4,0.9,1,1.1,1.7c0.7-0.7,1.3-1.3,2-1.7c0.6-0.4,1.3-0.6,2-0.6c2.3,0,3.5,1.5,3.5,4.4v7.4h-1.1v-7.2c0-2.4-0.9-3.6-2.6-3.6
			c-1,0-2.2,0.7-3.5,2.2v8.7h-1.1v-7.2c0-1.2-0.2-2.1-0.6-2.7s-1.1-0.9-2-0.9c-1,0-2.2,0.7-3.5,2.2v8.7L2466,469.1L2466,469.1z"/>
		<path class="st1" d="M2488,469.4c-0.9,0-1.7-0.3-2.4-0.8s-1-1.3-1-2.4c0-1.3,0.6-2.2,1.8-2.9s3.1-1.1,5.6-1.4
			c0-0.6-0.1-1.2-0.2-1.7c-0.1-0.5-0.4-1-0.8-1.4c-0.4-0.4-1-0.5-1.7-0.5s-1.5,0.1-2.1,0.5c-0.6,0.3-1.2,0.6-1.6,0.9l-0.5-0.8
			c0.3-0.2,0.6-0.4,1.1-0.6c0.4-0.2,0.9-0.4,1.5-0.6s1.1-0.2,1.8-0.2c0.9,0,1.6,0.2,2.2,0.6s0.9,0.9,1.1,1.6s0.4,1.4,0.4,2.2v7.4
			h-0.9l-0.1-1.5h-0.1c-0.6,0.5-1.2,0.9-1.9,1.2S2488.8,469.4,2488,469.4L2488,469.4z M2488.2,468.5c0.7,0,1.3-0.2,1.9-0.5
			c0.6-0.3,1.3-0.8,2-1.4v-3.9c-1.6,0.2-2.8,0.4-3.8,0.7s-1.6,0.7-2,1.1c-0.4,0.5-0.6,1-0.6,1.6c0,0.8,0.2,1.4,0.7,1.8
			C2487,468.4,2487.6,468.5,2488.2,468.5L2488.2,468.5z"/>
		<path class="st1" d="M2501.1,474.7c-1.5,0-2.6-0.3-3.5-0.9c-0.9-0.6-1.3-1.4-1.3-2.3c0-0.5,0.1-1,0.5-1.5c0.3-0.5,0.7-0.9,1.2-1.3
			v-0.1c-0.3-0.2-0.5-0.4-0.7-0.7s-0.3-0.7-0.3-1.1c0-0.5,0.1-1,0.4-1.3s0.6-0.6,0.8-0.8v-0.1c-0.4-0.3-0.7-0.8-1-1.3
			s-0.5-1.2-0.5-1.9c0-0.8,0.2-1.5,0.5-2.1s0.9-1.1,1.5-1.4c0.6-0.3,1.3-0.5,2.1-0.5c0.3,0,0.6,0,0.9,0.1s0.5,0.1,0.6,0.2h3.9v0.9
			h-2.7c0.4,0.3,0.7,0.7,0.9,1.2s0.4,1.1,0.4,1.7c0,0.8-0.2,1.5-0.5,2.1s-0.8,1.1-1.4,1.4c-0.6,0.4-1.3,0.5-2,0.5
			c-0.3,0-0.6,0-1-0.1s-0.6-0.2-0.9-0.4c-0.3,0.2-0.5,0.4-0.7,0.7s-0.3,0.6-0.3,1c0,0.4,0.1,0.8,0.5,1.1s0.9,0.4,1.8,0.4h2.5
			c1.3,0,2.2,0.2,2.9,0.6c0.6,0.4,0.9,1.1,0.9,2c0,0.7-0.2,1.3-0.7,1.9s-1.1,1.1-1.9,1.5C2503.1,474.5,2502.2,474.7,2501.1,474.7
			L2501.1,474.7z M2501.2,473.8c0.9,0,1.6-0.1,2.2-0.4c0.6-0.3,1.1-0.6,1.5-1.1c0.4-0.4,0.5-0.9,0.5-1.4c0-0.6-0.2-1.1-0.7-1.4
			c-0.5-0.3-1.1-0.4-2-0.4h-2.5c-0.1,0-0.3,0-0.6,0c-0.3,0-0.6-0.1-0.9-0.1c-0.5,0.4-0.9,0.7-1.1,1.2s-0.4,0.8-0.4,1.3
			c0,0.7,0.3,1.3,1,1.8S2500,473.8,2501.2,473.8L2501.2,473.8z M2500.9,464.6c0.5,0,1-0.1,1.5-0.4s0.8-0.6,1.1-1.1
			c0.3-0.5,0.4-1,0.4-1.7c0-1-0.3-1.8-0.9-2.3c-0.6-0.6-1.3-0.9-2.1-0.9s-1.5,0.3-2.1,0.9s-0.9,1.4-0.9,2.3c0,0.6,0.1,1.2,0.4,1.7
			s0.6,0.9,1.1,1.1C2499.9,464.5,2500.4,464.6,2500.9,464.6L2500.9,464.6z"/>
		<path class="st1" d="M2513.1,469.4c-1,0-1.9-0.2-2.7-0.7c-0.8-0.5-1.4-1.2-1.9-2.1c-0.5-0.9-0.7-2-0.7-3.2s0.2-2.4,0.7-3.2
			s1.1-1.6,1.9-2.1s1.6-0.7,2.4-0.7c1.4,0,2.5,0.5,3.2,1.4c0.8,0.9,1.2,2.2,1.2,3.9c0,0.1,0,0.3,0,0.4c0,0.1,0,0.3-0.1,0.4h-8.3
			c0,1,0.2,1.8,0.6,2.6s0.9,1.3,1.5,1.8c0.6,0.4,1.4,0.6,2.3,0.6c0.6,0,1.2-0.1,1.7-0.3s1-0.4,1.4-0.7l0.4,0.8
			c-0.4,0.3-0.9,0.5-1.5,0.8S2513.9,469.4,2513.1,469.4L2513.1,469.4z M2508.9,462.7h7.3c0-1.5-0.3-2.6-0.9-3.3
			c-0.6-0.7-1.4-1.1-2.5-1.1c-0.7,0-1.3,0.2-1.8,0.5s-1,0.9-1.4,1.5C2509.2,461,2508.9,461.8,2508.9,462.7L2508.9,462.7z"/>
		<path class="st1" d="M2518.3,473l7.3-20.9h0.9l-7.3,20.9H2518.3z"/>
		<path class="st1" d="M2529,469.1v-15.8h1.1v15.8H2529z"/>
		<path class="st1" d="M2534.6,469.1v-11.5h0.9l0.1,1.8h0.1c0.6-0.6,1.2-1.1,1.8-1.5c0.6-0.4,1.3-0.6,2.1-0.6c1.2,0,2.1,0.4,2.6,1.1
			c0.6,0.7,0.9,1.8,0.9,3.3v7.4h-1.1v-7.2c0-1.2-0.2-2.1-0.6-2.7s-1.1-0.9-2-0.9c-0.7,0-1.3,0.2-1.9,0.5c-0.6,0.4-1.2,0.9-1.9,1.6
			v8.7L2534.6,469.1L2534.6,469.1z"/>
		<path class="st1" d="M2547.6,469.1v-10.6h-1.6v-0.8l1.6-0.1V455c0-1.1,0.2-2,0.7-2.6s1.2-0.9,2.1-0.9c0.6,0,1.1,0.1,1.7,0.4
			l-0.3,0.9c-0.2-0.1-0.5-0.2-0.7-0.3s-0.5-0.1-0.7-0.1c-0.6,0-1.1,0.2-1.4,0.7s-0.4,1.1-0.4,1.9v2.5h2.7v0.9h-2.7v10.6
			L2547.6,469.1L2547.6,469.1z"/>
		<path class="st1" d="M2557.7,469.4c-0.9,0-1.8-0.2-2.5-0.7c-0.8-0.5-1.4-1.2-1.9-2.1s-0.7-2-0.7-3.2s0.2-2.4,0.7-3.3
			s1.1-1.6,1.9-2.1c0.8-0.5,1.6-0.7,2.5-0.7s1.8,0.2,2.6,0.7c0.8,0.5,1.4,1.2,1.9,2.1s0.7,2,0.7,3.3s-0.2,2.4-0.7,3.2
			s-1.1,1.6-1.9,2.1C2559.5,469.2,2558.6,469.4,2557.7,469.4z M2557.7,468.5c0.8,0,1.5-0.2,2.1-0.6s1.1-1,1.4-1.8
			c0.4-0.8,0.5-1.6,0.5-2.6s-0.2-1.9-0.5-2.7s-0.9-1.4-1.4-1.8s-1.3-0.6-2.1-0.6s-1.5,0.2-2.1,0.6s-1.1,1-1.4,1.8
			c-0.4,0.8-0.5,1.7-0.5,2.7s0.2,1.9,0.5,2.6c0.4,0.8,0.8,1.4,1.4,1.8C2556.2,468.3,2556.9,468.5,2557.7,468.5z"/>
		<path class="st1" d="M2566.3,469.1v-11.5h0.9l0.1,2.1h0.1c0.4-0.7,0.9-1.3,1.4-1.7c0.6-0.5,1.2-0.7,1.9-0.7c0.2,0,0.4,0,0.6,0
			s0.4,0.1,0.6,0.2l-0.2,1c-0.2-0.1-0.4-0.1-0.5-0.2c-0.1,0-0.3,0-0.6,0c-0.5,0-1.1,0.2-1.6,0.7s-1.1,1.2-1.5,2.3v7.9L2566.3,469.1
			L2566.3,469.1z"/>
		<path class="st1" d="M2573.9,469.1v-11.5h0.9l0.1,1.8h0.1c0.5-0.6,1.1-1.1,1.7-1.5c0.6-0.4,1.3-0.6,1.9-0.6c0.9,0,1.6,0.2,2.1,0.6
			s0.9,1,1.1,1.7c0.7-0.7,1.3-1.3,2-1.7s1.3-0.6,2-0.6c2.3,0,3.5,1.5,3.5,4.4v7.4h-1.1v-7.2c0-2.4-0.9-3.6-2.6-3.6
			c-1,0-2.2,0.7-3.5,2.2v8.7h-1.1v-7.2c0-1.2-0.2-2.1-0.6-2.7c-0.4-0.6-1.1-0.9-2-0.9c-1,0-2.2,0.7-3.5,2.2v8.7L2573.9,469.1
			L2573.9,469.1z"/>
		<path class="st1" d="M2595.9,469.4c-0.9,0-1.7-0.3-2.4-0.8s-1-1.3-1-2.4c0-1.3,0.6-2.2,1.8-2.9c1.2-0.7,3.1-1.1,5.6-1.4
			c0-0.6-0.1-1.2-0.2-1.7c-0.1-0.5-0.4-1-0.8-1.4s-1-0.5-1.7-0.5s-1.5,0.1-2.1,0.5c-0.6,0.3-1.2,0.6-1.6,0.9l-0.5-0.8
			c0.3-0.2,0.6-0.4,1.1-0.6c0.4-0.2,0.9-0.4,1.5-0.6s1.1-0.2,1.8-0.2c0.9,0,1.6,0.2,2.2,0.6s0.9,0.9,1.1,1.6
			c0.2,0.7,0.4,1.4,0.4,2.2v7.4h-0.9l-0.1-1.5h-0.1c-0.6,0.5-1.2,0.9-1.9,1.2S2596.7,469.4,2595.9,469.4L2595.9,469.4z
			 M2596.1,468.5c0.7,0,1.3-0.2,1.9-0.5s1.3-0.8,2-1.4v-3.9c-1.6,0.2-2.8,0.4-3.8,0.7s-1.6,0.7-2,1.1s-0.6,1-0.6,1.6
			c0,0.8,0.2,1.4,0.7,1.8C2594.9,468.4,2595.5,468.5,2596.1,468.5L2596.1,468.5z"/>
		<path class="st1" d="M2608.1,469.4c-1.1,0-1.9-0.3-2.3-1c-0.4-0.6-0.6-1.5-0.6-2.5v-7.4h-1.8v-0.8l1.8-0.1l0.1-3.3h0.9v3.3h3.3
			v0.9h-3.3v7.5c0,0.7,0.1,1.3,0.4,1.8c0.3,0.5,0.8,0.7,1.6,0.7c0.2,0,0.5,0,0.7-0.1c0.3-0.1,0.5-0.2,0.7-0.2l0.3,0.9
			c-0.3,0.1-0.7,0.2-1,0.3S2608.3,469.4,2608.1,469.4L2608.1,469.4z"/>
		<path class="st1" d="M2613,454.9c-0.3,0-0.5-0.1-0.6-0.3s-0.3-0.4-0.3-0.7c0-0.3,0.1-0.5,0.3-0.7c0.2-0.2,0.4-0.3,0.6-0.3
			c0.3,0,0.5,0.1,0.7,0.3c0.2,0.2,0.2,0.4,0.2,0.7c0,0.3-0.1,0.5-0.2,0.7S2613.3,454.9,2613,454.9z M2612.4,469.1v-11.5h1.1v11.5
			H2612.4z"/>
		<path class="st1" d="M2622.1,469.4c-0.9,0-1.8-0.2-2.5-0.7s-1.4-1.2-1.9-2.1s-0.7-2-0.7-3.2s0.2-2.4,0.7-3.3s1.1-1.6,1.9-2.1
			s1.6-0.7,2.5-0.7s1.8,0.2,2.6,0.7s1.4,1.2,1.9,2.1s0.7,2,0.7,3.3s-0.2,2.4-0.7,3.2s-1.1,1.6-1.9,2.1
			C2623.9,469.2,2623.1,469.4,2622.1,469.4z M2622.1,468.5c0.8,0,1.5-0.2,2.1-0.6s1.1-1,1.4-1.8c0.4-0.8,0.5-1.6,0.5-2.6
			s-0.2-1.9-0.5-2.7s-0.8-1.4-1.4-1.8c-0.6-0.4-1.3-0.6-2.1-0.6s-1.5,0.2-2.1,0.6s-1.1,1-1.4,1.8c-0.4,0.8-0.5,1.7-0.5,2.7
			s0.2,1.9,0.5,2.6c0.4,0.8,0.8,1.4,1.4,1.8C2620.7,468.3,2621.4,468.5,2622.1,468.5z"/>
		<path class="st1" d="M2630.8,469.1v-11.5h0.9l0.1,1.8h0.1c0.6-0.6,1.2-1.1,1.8-1.5c0.6-0.4,1.3-0.6,2.1-0.6c1.2,0,2.1,0.4,2.6,1.1
			c0.6,0.7,0.9,1.8,0.9,3.3v7.4h-1.1v-7.2c0-1.2-0.2-2.1-0.6-2.7c-0.4-0.6-1.1-0.9-2-0.9c-0.7,0-1.3,0.2-1.9,0.5
			c-0.6,0.4-1.2,0.9-1.9,1.6v8.7L2630.8,469.1L2630.8,469.1z"/>
	</g>
	<g>
		<path class="st1" d="M2406.3,743.7l5.6-15.8h1.1l5.6,15.8h-1.1l-1.9-5.4h-6.3l-1.9,5.4H2406.3L2406.3,743.7z M2410.7,734.3l-1,3
			h5.6l-1-3c-0.3-0.9-0.6-1.8-0.9-2.7c-0.3-0.9-0.6-1.8-0.8-2.8h-0.1c-0.3,1-0.6,1.9-0.8,2.8S2411,733.4,2410.7,734.3z"/>
		<path class="st1" d="M2425.2,744c-1,0-1.9-0.2-2.7-0.7c-0.8-0.5-1.4-1.2-1.9-2.1c-0.5-0.9-0.7-2-0.7-3.2s0.2-2.4,0.7-3.3
			c0.5-0.9,1.1-1.6,1.9-2.1s1.7-0.7,2.6-0.7c0.8,0,1.5,0.1,2,0.4s1,0.6,1.4,1l-0.6,0.7c-0.4-0.3-0.8-0.6-1.2-0.9
			c-0.4-0.2-0.9-0.3-1.5-0.3c-0.8,0-1.5,0.2-2.1,0.7c-0.6,0.4-1.1,1-1.5,1.8c-0.4,0.8-0.6,1.7-0.6,2.7s0.2,1.9,0.5,2.7
			c0.3,0.8,0.8,1.4,1.5,1.8s1.4,0.7,2.2,0.7c0.6,0,1.2-0.1,1.7-0.4c0.5-0.3,1-0.6,1.4-0.9l0.6,0.7c-0.5,0.4-1.1,0.8-1.7,1.1
			C2426.6,743.8,2426,743.9,2425.2,744L2425.2,744z"/>
		<path class="st1" d="M2434.6,744c-1.1,0-1.9-0.3-2.3-1c-0.4-0.7-0.6-1.5-0.6-2.5v-7.4h-1.8v-0.8l1.8-0.1l0.1-3.3h0.9v3.3h3.3v0.9
			h-3.3v7.5c0,0.7,0.1,1.3,0.4,1.8c0.3,0.5,0.8,0.7,1.6,0.7c0.2,0,0.5,0,0.7-0.1c0.3-0.1,0.5-0.2,0.7-0.2l0.3,0.9
			c-0.3,0.1-0.7,0.2-1,0.3S2434.9,743.9,2434.6,744L2434.6,744z"/>
		<path class="st1" d="M2439.5,729.4c-0.3,0-0.5-0.1-0.6-0.3s-0.3-0.4-0.3-0.7c0-0.3,0.1-0.5,0.3-0.7c0.2-0.2,0.4-0.3,0.6-0.3
			c0.3,0,0.5,0.1,0.7,0.3c0.2,0.2,0.2,0.4,0.2,0.7c0,0.3-0.1,0.5-0.2,0.7S2439.8,729.4,2439.5,729.4z M2439,743.7v-11.5h1.1v11.5
			H2439z"/>
		<path class="st1" d="M2448.7,744c-0.9,0-1.8-0.2-2.5-0.7s-1.4-1.2-1.9-2.1s-0.7-2-0.7-3.2s0.2-2.4,0.7-3.3
			c0.5-0.9,1.1-1.6,1.9-2.1s1.6-0.7,2.5-0.7s1.8,0.2,2.6,0.7c0.8,0.5,1.4,1.2,1.9,2.1s0.7,2,0.7,3.3s-0.2,2.3-0.7,3.2
			s-1.1,1.6-1.9,2.1C2450.5,743.7,2449.6,744,2448.7,744z M2448.7,743c0.8,0,1.5-0.2,2.1-0.7c0.6-0.4,1.1-1,1.4-1.8
			c0.4-0.8,0.5-1.6,0.5-2.7s-0.2-1.9-0.5-2.7s-0.8-1.4-1.4-1.8c-0.6-0.4-1.3-0.7-2.1-0.7s-1.5,0.2-2.1,0.7c-0.6,0.4-1.1,1-1.4,1.8
			c-0.4,0.8-0.5,1.7-0.5,2.7s0.2,1.9,0.5,2.7s0.8,1.4,1.4,1.8C2447.2,742.8,2447.9,743,2448.7,743z"/>
		<path class="st1" d="M2457.3,743.7v-11.5h0.9l0.1,1.8h0.1c0.6-0.6,1.2-1.1,1.8-1.5c0.6-0.4,1.3-0.6,2.1-0.6c1.2,0,2.1,0.4,2.6,1.1
			c0.6,0.7,0.9,1.8,0.9,3.3v7.4h-1.1v-7.2c0-1.2-0.2-2.1-0.6-2.7c-0.4-0.6-1.1-0.9-2-0.9c-0.7,0-1.3,0.2-1.9,0.5s-1.2,0.9-1.9,1.6
			v8.7L2457.3,743.7L2457.3,743.7z"/>
	</g>
	<g>
		<path class="st1" d="M2408.5,999.9v-15.8h1.1v15.8H2408.5z"/>
		<path class="st1" d="M2414.1,999.9v-11.5h0.9l0.1,1.8h0.1c0.6-0.6,1.2-1.1,1.8-1.5c0.6-0.4,1.3-0.6,2.1-0.6c1.2,0,2.1,0.4,2.6,1.1
			c0.6,0.7,0.9,1.8,0.9,3.3v7.4h-1.1v-7.2c0-1.2-0.2-2.1-0.6-2.7s-1.1-0.9-2-0.9c-0.7,0-1.3,0.2-1.9,0.5s-1.2,0.9-1.9,1.6v8.7
			L2414.1,999.9L2414.1,999.9z"/>
		<path class="st1" d="M2427,999.9v-10.6h-1.6v-0.8l1.6-0.1v-2.6c0-1.1,0.2-2,0.7-2.6s1.2-0.9,2.1-0.9c0.6,0,1.1,0.1,1.7,0.4
			l-0.3,0.9c-0.2-0.1-0.5-0.2-0.7-0.3s-0.5-0.1-0.7-0.1c-0.6,0-1.1,0.2-1.4,0.7s-0.4,1.1-0.4,1.9v2.5h2.7v0.9h-2.7v10.6L2427,999.9
			L2427,999.9z"/>
		<path class="st1" d="M2437.1,1000.2c-0.9,0-1.8-0.2-2.5-0.7s-1.4-1.2-1.9-2.1s-0.7-2-0.7-3.2s0.2-2.4,0.7-3.3
			c0.5-0.9,1.1-1.6,1.9-2.1s1.6-0.7,2.5-0.7s1.8,0.2,2.6,0.7c0.8,0.5,1.4,1.2,1.9,2.1s0.7,2,0.7,3.3s-0.2,2.3-0.7,3.2
			s-1.1,1.6-1.9,2.1C2438.9,1000,2438.1,1000.2,2437.1,1000.2z M2437.1,999.3c0.8,0,1.5-0.2,2.1-0.7c0.6-0.4,1.1-1,1.4-1.8
			c0.4-0.8,0.5-1.6,0.5-2.7s-0.2-1.9-0.5-2.7s-0.8-1.4-1.4-1.8c-0.6-0.4-1.3-0.7-2.1-0.7s-1.5,0.2-2.1,0.7c-0.6,0.4-1.1,1-1.4,1.8
			c-0.4,0.8-0.5,1.7-0.5,2.7s0.2,1.9,0.5,2.7s0.8,1.4,1.4,1.8C2435.7,999.1,2436.4,999.3,2437.1,999.3z"/>
		<path class="st1" d="M2445.8,999.9v-11.5h0.9l0.1,2.1h0.1c0.4-0.7,0.9-1.3,1.4-1.7s1.2-0.7,1.9-0.7c0.2,0,0.4,0,0.6,0
			c0.2,0,0.4,0.1,0.6,0.2l-0.2,1c-0.2-0.1-0.4-0.1-0.5-0.2c-0.1,0-0.3,0-0.6,0c-0.5,0-1.1,0.2-1.6,0.7s-1.1,1.2-1.5,2.3v7.8H2445.8z
			"/>
		<path class="st1" d="M2453.4,999.9v-11.5h0.9l0.1,1.8h0.1c0.5-0.6,1.1-1.1,1.7-1.5c0.6-0.4,1.3-0.6,1.9-0.6c0.9,0,1.6,0.2,2.1,0.7
			c0.5,0.4,0.9,1,1.1,1.7c0.7-0.7,1.3-1.3,2-1.7c0.6-0.4,1.3-0.6,2-0.6c2.3,0,3.5,1.5,3.5,4.4v7.4h-1.1v-7.2c0-2.4-0.9-3.6-2.6-3.6
			c-1,0-2.2,0.7-3.5,2.2v8.7h-1.1v-7.2c0-1.2-0.2-2.1-0.6-2.7s-1.1-0.9-2-0.9c-1,0-2.2,0.7-3.5,2.2v8.7L2453.4,999.9L2453.4,999.9z"
			/>
		<path class="st1" d="M2475.4,1000.2c-0.9,0-1.7-0.3-2.4-0.8s-1-1.3-1-2.4c0-1.3,0.6-2.2,1.8-2.9s3.1-1.1,5.6-1.4
			c0-0.6-0.1-1.2-0.2-1.7c-0.1-0.5-0.4-1-0.8-1.4c-0.4-0.4-1-0.5-1.7-0.5s-1.5,0.2-2.1,0.5c-0.6,0.3-1.2,0.6-1.6,0.9l-0.5-0.8
			c0.3-0.2,0.6-0.4,1.1-0.6c0.4-0.2,0.9-0.4,1.5-0.6s1.1-0.2,1.8-0.2c0.9,0,1.6,0.2,2.2,0.6c0.5,0.4,0.9,0.9,1.1,1.6
			s0.4,1.4,0.4,2.2v7.4h-0.9l-0.1-1.5h-0.1c-0.6,0.5-1.2,0.9-1.9,1.2S2476.2,1000.2,2475.4,1000.2L2475.4,1000.2z M2475.6,999.3
			c0.7,0,1.3-0.2,1.9-0.5c0.6-0.3,1.3-0.8,2-1.4v-3.9c-1.6,0.2-2.8,0.4-3.8,0.7s-1.6,0.7-2,1.1s-0.6,1-0.6,1.6
			c0,0.8,0.2,1.4,0.7,1.8C2474.4,999.2,2474.9,999.3,2475.6,999.3L2475.6,999.3z"/>
		<path class="st1" d="M2487.5,1000.2c-1.1,0-1.9-0.3-2.3-1c-0.4-0.7-0.6-1.5-0.6-2.5v-7.4h-1.8v-0.8l1.8-0.1l0.1-3.3h0.9v3.3h3.3
			v0.9h-3.3v7.5c0,0.7,0.1,1.3,0.4,1.8c0.3,0.5,0.8,0.7,1.6,0.7c0.2,0,0.5,0,0.7-0.1s0.5-0.2,0.7-0.2l0.3,0.9
			c-0.3,0.1-0.7,0.2-1,0.3C2488,1000.2,2487.7,1000.2,2487.5,1000.2L2487.5,1000.2z"/>
		<path class="st1" d="M2492.4,985.6c-0.3,0-0.5-0.1-0.6-0.3c-0.2-0.2-0.3-0.4-0.3-0.7c0-0.3,0.1-0.5,0.3-0.7
			c0.2-0.2,0.4-0.3,0.6-0.3c0.3,0,0.5,0.1,0.7,0.3c0.2,0.2,0.2,0.4,0.2,0.7c0,0.3-0.1,0.5-0.2,0.7S2492.7,985.6,2492.4,985.6z
			 M2491.9,999.9v-11.5h1.1v11.5H2491.9z"/>
		<path class="st1" d="M2501.6,1000.2c-0.9,0-1.8-0.2-2.5-0.7c-0.8-0.5-1.4-1.2-1.9-2.1s-0.7-2-0.7-3.2s0.2-2.4,0.7-3.3
			c0.5-0.9,1.1-1.6,1.9-2.1c0.8-0.5,1.6-0.7,2.5-0.7s1.8,0.2,2.6,0.7c0.8,0.5,1.4,1.2,1.9,2.1s0.7,2,0.7,3.3s-0.2,2.3-0.7,3.2
			s-1.1,1.6-1.9,2.1C2503.4,1000,2502.5,1000.2,2501.6,1000.2z M2501.6,999.3c0.8,0,1.5-0.2,2.1-0.7c0.6-0.4,1.1-1,1.4-1.8
			c0.4-0.8,0.5-1.6,0.5-2.7s-0.2-1.9-0.5-2.7s-0.9-1.4-1.4-1.8s-1.3-0.7-2.1-0.7s-1.5,0.2-2.1,0.7s-1.1,1-1.4,1.8
			c-0.4,0.8-0.5,1.7-0.5,2.7s0.2,1.9,0.5,2.7s0.8,1.4,1.4,1.8C2500.1,999.1,2500.8,999.3,2501.6,999.3z"/>
		<path class="st1" d="M2510.2,999.9v-11.5h0.9l0.1,1.8h0.1c0.6-0.6,1.2-1.1,1.8-1.5c0.6-0.4,1.3-0.6,2.1-0.6c1.2,0,2.1,0.4,2.6,1.1
			c0.6,0.7,0.9,1.8,0.9,3.3v7.4h-1.1v-7.2c0-1.2-0.2-2.1-0.6-2.7s-1.1-0.9-2-0.9c-0.7,0-1.3,0.2-1.9,0.5s-1.2,0.9-1.9,1.6v8.7
			L2510.2,999.9L2510.2,999.9z"/>
	</g>
	<g>
		<path class="st1" d="M3.3,700v-0.7c1.7-1.7,3.1-3.2,4.2-4.5c1.1-1.3,2-2.4,2.5-3.4s0.8-1.9,0.8-2.8c0-1-0.3-1.8-0.8-2.4
			c-0.5-0.7-1.4-1-2.5-1c-0.7,0-1.3,0.2-2,0.6c-0.6,0.4-1.2,0.9-1.6,1.4l-0.7-0.7c0.6-0.6,1.2-1.2,1.9-1.6s1.5-0.7,2.5-0.7
			c1.4,0,2.4,0.4,3.2,1.2s1.1,1.8,1.1,3.1c0,1-0.3,2-0.9,3.1s-1.4,2.2-2.4,3.4s-2.3,2.5-3.7,4.1c0.4,0,0.8-0.1,1.3-0.1
			c0.4,0,0.9,0,1.3,0h5.2v1L3.3,700L3.3,700z"/>
		<path class="st1" d="M14.2,700l3.9-6l-3.6-5.5h1.2l1.9,2.9c0.2,0.3,0.4,0.6,0.6,0.9l0.6,1h0.1c0.2-0.3,0.4-0.6,0.6-1
			c0.2-0.3,0.4-0.6,0.6-0.9l1.8-2.9h1.1l-3.6,5.6l3.9,5.9h-1.2l-2-3.1c-0.2-0.4-0.4-0.7-0.7-1.1c-0.2-0.3-0.5-0.7-0.7-1h-0.1
			c-0.2,0.3-0.4,0.7-0.7,1c-0.2,0.3-0.4,0.7-0.7,1.1l-2,3.1H14.2L14.2,700z"/>
	</g>
	<g>
		<path class="st1" d="M4.3,885.7v-0.9h3.6V872H5.2v-0.7c0.6-0.1,1.2-0.2,1.7-0.4s0.9-0.3,1.3-0.5H9v14.4h3.3v0.9L4.3,885.7
			L4.3,885.7z"/>
		<path class="st1" d="M14.2,885.7l3.9-6l-3.6-5.5h1.2l1.9,2.9c0.2,0.3,0.4,0.6,0.6,0.9c0.2,0.3,0.4,0.6,0.6,1h0.1
			c0.2-0.3,0.4-0.6,0.6-1c0.2-0.3,0.4-0.6,0.6-0.9l1.8-2.9h1.1l-3.6,5.6l3.9,5.9h-1.2l-2-3.1c-0.2-0.4-0.4-0.7-0.7-1.1
			c-0.2-0.3-0.5-0.7-0.7-1h-0.1c-0.2,0.3-0.4,0.7-0.7,1s-0.4,0.7-0.7,1.1l-2,3.1H14.2L14.2,885.7z"/>
	</g>
	<g>
		<path class="st1" d="M4.3,952.6v-0.9h3.6V939H5.2v-0.7c0.6-0.1,1.2-0.2,1.7-0.4s0.9-0.3,1.3-0.5H9v14.4h3.3v0.9L4.3,952.6
			L4.3,952.6z"/>
		<path class="st1" d="M14.2,952.6l3.9-6l-3.6-5.5h1.2l1.9,2.9c0.2,0.3,0.4,0.6,0.6,0.9s0.4,0.6,0.6,1h0.1c0.2-0.3,0.4-0.6,0.6-1
			c0.2-0.3,0.4-0.6,0.6-0.9l1.8-2.9h1.1l-3.6,5.6l3.9,5.9h-1.2l-2-3.1c-0.2-0.4-0.4-0.7-0.7-1.1c-0.2-0.3-0.5-0.7-0.7-1h-0.1
			c-0.2,0.3-0.4,0.7-0.7,1c-0.2,0.3-0.4,0.7-0.7,1.1l-2,3.1H14.2L14.2,952.6z"/>
	</g>
	<rect x="445.8" y="143.3" class="st2" width="120" height="29.2"/>
	<rect x="547.6" y="839.2" class="st2" width="320" height="29.2"/>
	<rect x="547.6" y="888.4" class="st2" width="820.2" height="48.2"/>
	<rect x="545.9" y="252.7" class="st2" width="1380.3" height="420.9"/>
	<rect x="545.9" y="956.6" class="st2" width="980.2" height="192.3"/>
	<rect x="1546.1" y="956.6" class="st2" width="380" height="192.3"/>
	<rect x="1096" y="715.3" class="st2" width="280.1" height="44"/>
	<rect x="626.6" y="143.3" class="st2" width="258.6" height="12.4"/>
	<rect x="1946.1" y="143.3" class="st2" width="80" height="12.1"/>
	<rect x="1846.1" y="143.3" class="st2" width="80" height="12.1"/>
	<rect x="92.2" y="674" class="st3" width="2104.7" height="40"/>
	<rect x="92.2" y="868.4" class="st4" width="2104.7" height="20"/>
	<rect x="92.2" y="936.6" class="st4" width="2104.7" height="20"/>
	<rect x="92.2" y="759.2" class="st5" width="2104.7" height="80"/>
	<rect x="92.2" y="172.7" class="st5" width="2104.7" height="80"/>
	<rect x="276.9" y="1386.1" class="st0" width="1920" height="1080"/>
	<g>
		<path class="st1" d="M2.3,1481.6v-15.8h4.3c1.6,0,2.9,0.3,3.8,0.9s1.4,1.6,1.4,2.9c0,0.8-0.2,1.6-0.6,2.2s-1,1-1.8,1.3v0.1
			c1,0.2,1.9,0.6,2.5,1.2c0.6,0.7,0.9,1.5,0.9,2.6c0,1.5-0.5,2.7-1.6,3.4c-1.1,0.8-2.5,1.2-4.3,1.2L2.3,1481.6L2.3,1481.6z
			 M3.4,1472.7h2.7c1.6,0,2.8-0.3,3.5-0.8c0.7-0.5,1.1-1.3,1.1-2.2c0-1.1-0.4-1.9-1.1-2.4s-1.9-0.7-3.3-0.7H3.4L3.4,1472.7
			L3.4,1472.7z M3.4,1480.6h3.2c1.6,0,2.8-0.3,3.7-0.9s1.4-1.5,1.4-2.8c0-1.1-0.4-2-1.3-2.5s-2.1-0.8-3.8-0.8H3.4
			C3.4,1473.6,3.4,1480.6,3.4,1480.6z"/>
		<path class="st1" d="M16.1,1481.6V1470H17l0.1,2.1h0.1c0.4-0.7,0.9-1.3,1.4-1.7s1.2-0.7,1.9-0.7c0.2,0,0.4,0,0.6,0.1
			s0.4,0.1,0.5,0.2l-0.2,1c-0.2-0.1-0.4-0.1-0.5-0.2c-0.1,0-0.3,0-0.5,0c-0.5,0-1,0.2-1.6,0.7c-0.6,0.4-1.1,1.2-1.5,2.3v7.8
			L16.1,1481.6L16.1,1481.6z"/>
		<path class="st1" d="M25.7,1481.9c-0.9,0-1.7-0.3-2.4-0.8s-1-1.3-1-2.4c0-1.3,0.6-2.2,1.8-2.9c1.2-0.7,3.1-1.1,5.6-1.4
			c0-0.6,0-1.2-0.2-1.7c-0.1-0.6-0.4-1-0.8-1.4s-1-0.6-1.7-0.6s-1.5,0.2-2.1,0.5c-0.6,0.3-1.2,0.6-1.6,0.9l-0.5-0.8
			c0.3-0.2,0.6-0.4,1.1-0.6c0.4-0.2,0.9-0.4,1.5-0.6c0.5-0.2,1.1-0.2,1.8-0.2c0.9,0,1.6,0.2,2.2,0.6s0.9,0.9,1.1,1.6
			c0.2,0.7,0.4,1.4,0.4,2.2v7.4H30l-0.1-1.5h-0.1c-0.6,0.5-1.2,0.9-1.9,1.2S26.5,1481.9,25.7,1481.9L25.7,1481.9z M25.9,1480.9
			c0.7,0,1.3-0.2,1.9-0.5s1.3-0.8,2-1.4v-3.9c-1.6,0.2-2.8,0.4-3.8,0.7s-1.6,0.7-2,1.1s-0.6,1-0.6,1.6c0,0.8,0.2,1.4,0.7,1.8
			C24.7,1480.8,25.2,1481,25.9,1480.9L25.9,1480.9z"/>
		<path class="st1" d="M35,1481.6V1470h0.9l0.1,1.8H36c0.6-0.6,1.2-1.1,1.8-1.5c0.6-0.4,1.3-0.6,2.1-0.6c1.2,0,2.1,0.4,2.6,1.1
			s0.8,1.8,0.8,3.3v7.4h-1.1v-7.2c0-1.2-0.2-2.1-0.6-2.7s-1.1-0.9-2-0.9c-0.7,0-1.3,0.2-1.9,0.5c-0.6,0.4-1.2,0.9-1.9,1.6v8.7
			L35,1481.6L35,1481.6z"/>
		<path class="st1" d="M51.5,1481.9c-1.5,0-2.6-0.5-3.5-1.6s-1.3-2.5-1.3-4.5c0-1.2,0.2-2.3,0.7-3.2c0.5-0.9,1.1-1.6,1.9-2.1
			c0.8-0.5,1.6-0.7,2.5-0.7c0.7,0,1.3,0.1,1.8,0.4s1.1,0.6,1.6,1l0-2.1v-4.8h1.1v17.3h-0.9l-0.1-1.5h-0.1c-0.5,0.5-1,0.9-1.6,1.2
			S52.3,1481.9,51.5,1481.9L51.5,1481.9z M51.7,1480.9c0.6,0,1.2-0.2,1.8-0.5s1.2-0.8,1.8-1.4v-6.8c-0.6-0.5-1.2-0.9-1.7-1.2
			s-1.1-0.3-1.6-0.3c-0.8,0-1.5,0.2-2.1,0.7c-0.6,0.5-1.1,1.1-1.5,1.8s-0.5,1.6-0.5,2.6c0,1.5,0.3,2.8,1,3.7
			C49.5,1480.5,50.5,1480.9,51.7,1480.9L51.7,1480.9z"/>
		<path class="st1" d="M66.1,1467.3c-0.3,0-0.5-0.1-0.7-0.3c-0.2-0.2-0.3-0.4-0.3-0.7c0-0.3,0.1-0.5,0.3-0.7s0.4-0.3,0.7-0.3
			c0.3,0,0.5,0.1,0.7,0.3c0.2,0.2,0.2,0.4,0.2,0.7c0,0.3-0.1,0.5-0.2,0.7S66.4,1467.3,66.1,1467.3z M65.6,1481.6v-11.5h1.1v11.5
			H65.6z"/>
		<path class="st1" d="M74.9,1481.9c-1.5,0-2.6-0.5-3.5-1.6s-1.3-2.5-1.3-4.5c0-1.2,0.2-2.3,0.7-3.2c0.5-0.9,1.1-1.6,1.9-2.1
			c0.8-0.5,1.6-0.7,2.5-0.7c0.7,0,1.3,0.1,1.8,0.4s1.1,0.6,1.6,1l-0.1-2.1v-4.8h1.1v17.3h-0.9l-0.1-1.5h-0.1c-0.5,0.5-1,0.9-1.6,1.2
			S75.7,1481.9,74.9,1481.9L74.9,1481.9z M75,1480.9c0.6,0,1.2-0.2,1.8-0.5s1.2-0.8,1.8-1.4v-6.8c-0.6-0.5-1.2-0.9-1.7-1.2
			s-1.1-0.3-1.6-0.3c-0.8,0-1.5,0.2-2.1,0.7c-0.6,0.5-1.1,1.1-1.4,1.8s-0.5,1.6-0.5,2.6c0,1.5,0.3,2.8,1,3.7
			C72.9,1480.5,73.8,1480.9,75,1480.9L75,1480.9z"/>
		<path class="st1" d="M88.5,1481.9c-1,0-1.9-0.2-2.7-0.7s-1.4-1.2-1.9-2.1c-0.5-0.9-0.7-2-0.7-3.2s0.2-2.3,0.7-3.2s1.1-1.6,1.9-2.1
			c0.8-0.5,1.6-0.7,2.4-0.7c1.4,0,2.5,0.5,3.2,1.4s1.2,2.2,1.2,3.9c0,0.1,0,0.3,0,0.4c0,0.1,0,0.3-0.1,0.4h-8.3c0,1,0.2,1.8,0.6,2.6
			s0.9,1.3,1.5,1.8c0.7,0.4,1.4,0.7,2.3,0.7c0.6,0,1.2-0.1,1.7-0.3c0.5-0.2,1-0.4,1.4-0.7l0.4,0.8c-0.4,0.3-0.9,0.5-1.5,0.8
			C90.1,1481.8,89.3,1481.9,88.5,1481.9L88.5,1481.9z M84.3,1475.1h7.3c0-1.5-0.3-2.6-0.9-3.3c-0.6-0.7-1.4-1.1-2.5-1.1
			c-0.7,0-1.3,0.2-1.8,0.5s-1,0.9-1.4,1.5C84.6,1473.4,84.3,1474.2,84.3,1475.1L84.3,1475.1z"/>
		<path class="st1" d="M95.7,1481.6V1470h0.9l0.1,1.8h0.1c0.6-0.6,1.2-1.1,1.8-1.5c0.6-0.4,1.3-0.6,2.1-0.6c1.2,0,2.1,0.4,2.6,1.1
			s0.8,1.8,0.8,3.3v7.4h-1.1v-7.2c0-1.2-0.2-2.1-0.6-2.7s-1.1-0.9-2-0.9c-0.7,0-1.3,0.2-1.9,0.5c-0.6,0.4-1.2,0.9-1.9,1.6v8.7
			L95.7,1481.6L95.7,1481.6z"/>
		<path class="st1" d="M111.7,1481.9c-1.1,0-1.9-0.3-2.3-1s-0.6-1.5-0.6-2.5v-7.4H107v-0.8l1.8-0.1l0.1-3.3h0.9v3.3h3.3v0.9h-3.3
			v7.5c0,0.7,0.1,1.3,0.4,1.8c0.3,0.4,0.8,0.7,1.6,0.7c0.2,0,0.5,0,0.7-0.1s0.5-0.2,0.7-0.2l0.3,0.9c-0.3,0.1-0.7,0.2-1,0.3
			C112.2,1481.8,111.9,1481.8,111.7,1481.9L111.7,1481.9z"/>
		<path class="st1" d="M116.5,1467.3c-0.3,0-0.5-0.1-0.7-0.3c-0.2-0.2-0.3-0.4-0.3-0.7c0-0.3,0.1-0.5,0.3-0.7s0.4-0.3,0.7-0.3
			c0.3,0,0.5,0.1,0.7,0.3c0.2,0.2,0.2,0.4,0.2,0.7c0,0.3-0.1,0.5-0.2,0.7S116.8,1467.3,116.5,1467.3z M116,1481.6v-11.5h1.1v11.5
			H116z"/>
		<path class="st1" d="M124.6,1481.9c-1.1,0-1.9-0.3-2.3-1s-0.6-1.5-0.6-2.5v-7.4h-1.8v-0.8l1.8-0.1l0.1-3.3h0.9v3.3h3.3v0.9h-3.3
			v7.5c0,0.7,0.1,1.3,0.4,1.8c0.3,0.4,0.8,0.7,1.6,0.7c0.2,0,0.5,0,0.7-0.1s0.5-0.2,0.7-0.2l0.3,0.9c-0.3,0.1-0.7,0.2-1,0.3
			C125.1,1481.8,124.8,1481.8,124.6,1481.9L124.6,1481.9z"/>
		<path class="st1" d="M128.5,1486.8c-0.4,0-0.8-0.1-1.2-0.2l0.2-0.9c0.1,0.1,0.3,0.1,0.4,0.1s0.3,0.1,0.5,0.1
			c0.7,0,1.3-0.3,1.8-0.9s0.9-1.3,1.2-2.2l0.3-1l-4.7-11.7h1.2l2.8,7.2c0.2,0.5,0.4,1,0.6,1.6c0.2,0.6,0.4,1.1,0.6,1.6h0.1
			c0.2-0.5,0.4-1.1,0.5-1.6c0.2-0.6,0.4-1.1,0.5-1.6l2.5-7.2h1.1l-4.6,13c-0.2,0.6-0.5,1.2-0.8,1.8c-0.3,0.6-0.8,1.1-1.3,1.4
			S129.2,1486.8,128.5,1486.8L128.5,1486.8z"/>
	</g>
	<g>
		<path class="st1" d="M2408.5,1786.8V1771h1.1v6.9h8.5v-6.9h1.1v15.8h-1.1v-7.9h-8.5v7.9H2408.5z"/>
		<path class="st1" d="M2424.2,1772.5c-0.3,0-0.5-0.1-0.6-0.3c-0.2-0.2-0.3-0.4-0.3-0.7c0-0.3,0.1-0.5,0.3-0.7
			c0.2-0.2,0.4-0.3,0.6-0.3c0.3,0,0.5,0.1,0.7,0.3c0.2,0.2,0.2,0.4,0.2,0.7c0,0.3-0.1,0.5-0.2,0.7S2424.5,1772.5,2424.2,1772.5z
			 M2423.7,1786.8v-11.5h1.1v11.5H2423.7z"/>
		<path class="st1" d="M2433.5,1787.1c-1,0-1.9-0.2-2.7-0.7s-1.4-1.2-1.9-2.1c-0.5-0.9-0.7-2-0.7-3.2s0.2-2.3,0.7-3.2
			s1.1-1.6,1.9-2.1s1.6-0.7,2.4-0.7c1.4,0,2.5,0.5,3.2,1.4c0.8,0.9,1.2,2.2,1.2,3.9c0,0.1,0,0.3,0,0.4c0,0.1,0,0.3-0.1,0.4h-8.3
			c0,1,0.2,1.8,0.6,2.6s0.9,1.3,1.5,1.8s1.4,0.7,2.3,0.7c0.6,0,1.2-0.1,1.7-0.3c0.5-0.2,1-0.4,1.4-0.7l0.4,0.8
			c-0.4,0.3-0.9,0.5-1.5,0.8S2434.4,1787.1,2433.5,1787.1L2433.5,1787.1z M2429.3,1780.3h7.3c0-1.5-0.3-2.6-0.9-3.3
			c-0.6-0.7-1.4-1.1-2.5-1.1c-0.7,0-1.3,0.2-1.8,0.5s-1,0.9-1.4,1.5C2429.6,1778.6,2429.4,1779.4,2429.3,1780.3L2429.3,1780.3z"/>
		<path class="st1" d="M2440.8,1786.8v-11.5h0.9l0.1,2.1h0.1c0.4-0.7,0.9-1.3,1.4-1.7c0.6-0.5,1.2-0.7,1.9-0.7c0.2,0,0.4,0,0.6,0.1
			c0.2,0,0.4,0.1,0.6,0.2l-0.2,1c-0.2-0.1-0.4-0.1-0.5-0.2c-0.1,0-0.3,0-0.6,0c-0.5,0-1.1,0.2-1.6,0.7c-0.6,0.4-1.1,1.2-1.5,2.3v7.8
			L2440.8,1786.8L2440.8,1786.8z"/>
		<path class="st1" d="M2450.4,1787.1c-0.9,0-1.7-0.3-2.4-0.8s-1-1.3-1-2.4c0-1.3,0.6-2.2,1.8-2.9c1.2-0.7,3.1-1.1,5.6-1.4
			c0-0.6-0.1-1.2-0.2-1.7s-0.4-1-0.8-1.4s-1-0.6-1.7-0.6s-1.5,0.2-2.1,0.5c-0.6,0.3-1.2,0.6-1.6,0.9l-0.5-0.8
			c0.3-0.2,0.6-0.4,1.1-0.6c0.4-0.2,0.9-0.4,1.5-0.6s1.1-0.2,1.8-0.2c0.9,0,1.6,0.2,2.2,0.6s0.9,0.9,1.1,1.6
			c0.2,0.7,0.4,1.4,0.4,2.2v7.4h-0.9l-0.1-1.5h-0.1c-0.6,0.5-1.2,0.9-1.9,1.2S2451.1,1787.1,2450.4,1787.1L2450.4,1787.1z
			 M2450.6,1786.2c0.7,0,1.3-0.2,1.9-0.5c0.6-0.3,1.3-0.8,2-1.4v-3.9c-1.6,0.2-2.8,0.4-3.8,0.7s-1.6,0.7-2,1.1s-0.6,1-0.6,1.6
			c0,0.8,0.2,1.4,0.7,1.8C2449.3,1786,2449.9,1786.2,2450.6,1786.2L2450.6,1786.2z"/>
		<path class="st1" d="M2459.6,1786.8v-11.5h0.9l0.1,2.1h0.1c0.4-0.7,0.9-1.3,1.4-1.7c0.6-0.5,1.2-0.7,1.9-0.7c0.2,0,0.4,0,0.6,0.1
			c0.2,0,0.4,0.1,0.6,0.2l-0.2,1c-0.2-0.1-0.4-0.1-0.5-0.2c-0.1,0-0.3,0-0.6,0c-0.5,0-1.1,0.2-1.6,0.7c-0.6,0.4-1.1,1.2-1.5,2.3v7.8
			L2459.6,1786.8L2459.6,1786.8z"/>
		<path class="st1" d="M2471.3,1787.1c-1,0-1.9-0.2-2.7-0.7c-0.8-0.5-1.4-1.2-1.9-2.1c-0.5-0.9-0.7-2-0.7-3.2s0.2-2.4,0.7-3.3
			s1.1-1.6,1.9-2.1c0.8-0.5,1.7-0.7,2.6-0.7c0.8,0,1.5,0.1,2,0.4s1,0.6,1.4,1l-0.6,0.7c-0.4-0.3-0.8-0.6-1.2-0.9s-0.9-0.3-1.5-0.3
			c-0.8,0-1.5,0.2-2.1,0.7c-0.6,0.4-1.1,1-1.5,1.8s-0.6,1.7-0.6,2.7s0.2,1.9,0.5,2.7s0.8,1.4,1.5,1.8s1.4,0.7,2.2,0.7
			c0.6,0,1.2-0.1,1.7-0.4c0.5-0.3,1-0.6,1.4-0.9l0.6,0.7c-0.5,0.4-1.1,0.8-1.7,1.1C2472.7,1786.9,2472,1787.1,2471.3,1787.1
			L2471.3,1787.1z"/>
		<path class="st1" d="M2477.8,1786.8v-17.3h1.1v7.5c0.6-0.6,1.2-1.1,1.9-1.5c0.6-0.4,1.3-0.6,2.1-0.6c1.2,0,2.1,0.4,2.6,1.1
			c0.6,0.7,0.9,1.8,0.9,3.3v7.4h-1.1v-7.2c0-1.2-0.2-2.1-0.6-2.7c-0.4-0.6-1.1-0.9-2-0.9c-0.7,0-1.3,0.2-1.9,0.5s-1.2,0.9-1.9,1.6
			v8.7L2477.8,1786.8L2477.8,1786.8z"/>
		<path class="st1" d="M2490,1792.1c-0.4,0-0.8-0.1-1.2-0.2l0.2-0.9c0.1,0.1,0.3,0.1,0.4,0.1c0.2,0,0.3,0.1,0.5,0.1
			c0.7,0,1.3-0.3,1.8-0.9c0.5-0.6,0.9-1.3,1.2-2.2l0.3-1l-4.7-11.7h1.1l2.8,7.2c0.2,0.5,0.4,1,0.6,1.6c0.2,0.6,0.4,1.1,0.6,1.6h0.1
			c0.2-0.5,0.4-1.1,0.5-1.6s0.4-1.1,0.5-1.6l2.5-7.2h1.1l-4.6,13c-0.2,0.6-0.5,1.2-0.8,1.8s-0.8,1.1-1.3,1.4
			S2490.7,1792.1,2490,1792.1L2490,1792.1z"/>
		<path class="st1" d="M2498.5,1790.7l7.3-20.9h0.9l-7.3,20.9H2498.5z"/>
		<path class="st1" d="M2509.1,1786.8V1771h8.6v1h-7.5v6.3h6.4v1h-6.4v7.6H2509.1L2509.1,1786.8z"/>
		<path class="st1" d="M2524.4,1787.1c-0.9,0-1.8-0.2-2.5-0.7s-1.4-1.2-1.9-2.1s-0.7-2-0.7-3.2s0.2-2.4,0.7-3.3s1.1-1.6,1.9-2.1
			s1.6-0.7,2.5-0.7s1.8,0.2,2.6,0.7s1.4,1.2,1.9,2.1s0.7,2,0.7,3.3s-0.2,2.3-0.7,3.2s-1.1,1.6-1.9,2.1
			C2526.2,1786.9,2525.3,1787.1,2524.4,1787.1z M2524.4,1786.2c0.8,0,1.5-0.2,2.1-0.7s1.1-1,1.4-1.8s0.5-1.6,0.5-2.7
			s-0.2-1.9-0.5-2.7c-0.4-0.8-0.8-1.4-1.4-1.8c-0.6-0.4-1.3-0.7-2.1-0.7s-1.5,0.2-2.1,0.7s-1.1,1-1.4,1.8c-0.4,0.8-0.5,1.7-0.5,2.7
			s0.2,1.9,0.5,2.7s0.8,1.4,1.4,1.8C2522.9,1785.9,2523.6,1786.2,2524.4,1786.2z"/>
		<path class="st1" d="M2537.3,1787.1c-1,0-1.9-0.2-2.7-0.7c-0.8-0.5-1.4-1.2-1.9-2.1c-0.5-0.9-0.7-2-0.7-3.2s0.2-2.4,0.7-3.3
			s1.1-1.6,1.9-2.1c0.8-0.5,1.7-0.7,2.6-0.7c0.8,0,1.5,0.1,2,0.4s1,0.6,1.4,1l-0.6,0.7c-0.4-0.3-0.8-0.6-1.2-0.9s-0.9-0.3-1.5-0.3
			c-0.8,0-1.5,0.2-2.1,0.7c-0.6,0.4-1.1,1-1.5,1.8s-0.6,1.7-0.6,2.7s0.2,1.9,0.5,2.7s0.8,1.4,1.5,1.8s1.4,0.7,2.2,0.7
			c0.6,0,1.2-0.1,1.7-0.4c0.5-0.3,1-0.6,1.4-0.9l0.6,0.7c-0.5,0.4-1.1,0.8-1.7,1.1C2538.7,1786.9,2538.1,1787.1,2537.3,1787.1
			L2537.3,1787.1z"/>
		<path class="st1" d="M2546.1,1787.1c-0.9,0-1.7-0.3-2.4-0.8s-1-1.3-1-2.4c0-1.3,0.6-2.2,1.8-2.9c1.2-0.7,3.1-1.1,5.6-1.4
			c0-0.6-0.1-1.2-0.2-1.7s-0.4-1-0.8-1.4s-1-0.6-1.7-0.6s-1.5,0.2-2.1,0.5c-0.6,0.3-1.2,0.6-1.6,0.9l-0.5-0.8
			c0.3-0.2,0.6-0.4,1.1-0.6c0.4-0.2,0.9-0.4,1.5-0.6s1.1-0.2,1.8-0.2c0.9,0,1.6,0.2,2.2,0.6s0.9,0.9,1.1,1.6
			c0.2,0.7,0.4,1.4,0.4,2.2v7.4h-0.9l-0.1-1.5h-0.1c-0.6,0.5-1.2,0.9-1.9,1.2S2546.9,1787.1,2546.1,1787.1L2546.1,1787.1z
			 M2546.3,1786.2c0.7,0,1.3-0.2,1.9-0.5c0.6-0.3,1.3-0.8,2-1.4v-3.9c-1.6,0.2-2.8,0.4-3.8,0.7s-1.6,0.7-2,1.1s-0.6,1-0.6,1.6
			c0,0.8,0.2,1.4,0.7,1.8C2545.1,1786,2545.6,1786.2,2546.3,1786.2L2546.3,1786.2z"/>
		<path class="st1" d="M2556.8,1787.1c-0.9,0-1.4-0.6-1.4-1.8v-15.7h1.1v15.9c0,0.5,0.2,0.7,0.5,0.7c0.1,0,0.1,0,0.2,0
			c0.1,0,0.1,0,0.3,0l0.2,0.9c-0.1,0-0.2,0.1-0.3,0.1C2557.1,1787.1,2556.9,1787.1,2556.8,1787.1L2556.8,1787.1z"/>
		<path class="st1" d="M2565.9,1792v-16.7h0.9l0.1,1.4h0.1c0.6-0.4,1.2-0.8,1.9-1.2s1.4-0.5,2.1-0.5c1.5,0,2.7,0.5,3.5,1.6
			c0.8,1.1,1.1,2.5,1.1,4.3c0,1.3-0.2,2.4-0.7,3.3c-0.5,0.9-1.1,1.6-1.9,2.1c-0.8,0.5-1.6,0.7-2.5,0.7c-0.5,0-1.1-0.1-1.7-0.4
			s-1.2-0.6-1.8-1v6.3L2565.9,1792L2565.9,1792z M2570.3,1786.2c0.8,0,1.5-0.2,2.1-0.7s1.1-1.1,1.4-1.9s0.5-1.7,0.5-2.8
			c0-0.9-0.1-1.8-0.4-2.5s-0.6-1.3-1.2-1.8s-1.2-0.7-2.1-0.7c-0.6,0-1.2,0.2-1.8,0.5c-0.6,0.3-1.3,0.8-2,1.4v6.8
			c0.7,0.5,1.3,0.9,1.9,1.2S2569.9,1786.2,2570.3,1786.2L2570.3,1786.2z"/>
		<path class="st1" d="M2583.1,1787.1c-0.9,0-1.8-0.2-2.5-0.7c-0.8-0.5-1.4-1.2-1.9-2.1s-0.7-2-0.7-3.2s0.2-2.4,0.7-3.3
			s1.1-1.6,1.9-2.1c0.8-0.5,1.6-0.7,2.5-0.7s1.8,0.2,2.6,0.7c0.8,0.5,1.4,1.2,1.9,2.1s0.7,2,0.7,3.3s-0.2,2.3-0.7,3.2
			s-1.1,1.6-1.9,2.1C2584.9,1786.9,2584,1787.1,2583.1,1787.1z M2583.1,1786.2c0.8,0,1.5-0.2,2.1-0.7s1.1-1,1.4-1.8
			c0.4-0.8,0.5-1.6,0.5-2.7s-0.2-1.9-0.5-2.7c-0.4-0.8-0.9-1.4-1.4-1.8s-1.3-0.7-2.1-0.7s-1.5,0.2-2.1,0.7s-1.1,1-1.4,1.8
			c-0.4,0.8-0.5,1.7-0.5,2.7s0.2,1.9,0.5,2.7s0.8,1.4,1.4,1.8C2581.7,1785.9,2582.3,1786.2,2583.1,1786.2z"/>
		<path class="st1" d="M2592.3,1772.5c-0.3,0-0.5-0.1-0.6-0.3c-0.2-0.2-0.3-0.4-0.3-0.7c0-0.3,0.1-0.5,0.3-0.7
			c0.2-0.2,0.4-0.3,0.6-0.3c0.3,0,0.5,0.1,0.7,0.3c0.2,0.2,0.2,0.4,0.2,0.7c0,0.3-0.1,0.5-0.2,0.7S2592.6,1772.5,2592.3,1772.5z
			 M2591.8,1786.8v-11.5h1.1v11.5H2591.8z"/>
		<path class="st1" d="M2597.2,1786.8v-11.5h0.9l0.1,1.8h0.1c0.6-0.6,1.2-1.1,1.8-1.5c0.6-0.4,1.3-0.6,2.1-0.6
			c1.2,0,2.1,0.4,2.6,1.1c0.6,0.7,0.9,1.8,0.9,3.3v7.4h-1.1v-7.2c0-1.2-0.2-2.1-0.6-2.7s-1.1-0.9-2-0.9c-0.7,0-1.3,0.2-1.9,0.5
			s-1.2,0.9-1.9,1.6v8.7L2597.2,1786.8L2597.2,1786.8z"/>
		<path class="st1" d="M2613.2,1787.1c-1.1,0-1.9-0.3-2.3-1s-0.6-1.5-0.6-2.5v-7.4h-1.8v-0.8l1.8-0.1l0.1-3.3h0.9v3.3h3.3v0.9h-3.3
			v7.5c0,0.7,0.1,1.3,0.4,1.8s0.8,0.7,1.6,0.7c0.2,0,0.5,0,0.7-0.1s0.5-0.2,0.7-0.2l0.3,0.9c-0.3,0.1-0.7,0.2-1,0.3
			C2613.6,1787,2613.4,1787.1,2613.2,1787.1L2613.2,1787.1z"/>
	</g>
	<g>
		<path class="st1" d="M2411.5,2060.9l-5.2-15.8h1.2l2.9,9.2c0.3,1,0.6,1.8,0.8,2.6c0.2,0.8,0.5,1.7,0.9,2.6h0.1
			c0.3-1,0.6-1.8,0.8-2.6s0.5-1.7,0.8-2.6l2.9-9.2h1.1l-5.2,15.8L2411.5,2060.9L2411.5,2060.9z"/>
		<path class="st1" d="M2424.2,2061.2c-1,0-1.9-0.2-2.7-0.7c-0.8-0.5-1.4-1.2-1.9-2.1s-0.7-2-0.7-3.2s0.2-2.4,0.7-3.2
			s1.1-1.6,1.9-2.1s1.6-0.7,2.4-0.7c1.4,0,2.5,0.5,3.2,1.4c0.8,0.9,1.2,2.2,1.2,3.9c0,0.1,0,0.3,0,0.4s0,0.3-0.1,0.4h-8.3
			c0,1,0.2,1.8,0.6,2.6s0.9,1.3,1.5,1.8c0.6,0.4,1.4,0.6,2.3,0.6c0.6,0,1.2-0.1,1.7-0.3s1-0.4,1.4-0.7l0.4,0.8
			c-0.4,0.3-0.9,0.5-1.5,0.8S2425,2061.2,2424.2,2061.2L2424.2,2061.2z M2419.9,2054.5h7.3c0-1.5-0.3-2.6-0.9-3.3
			c-0.6-0.7-1.4-1.1-2.5-1.1c-0.7,0-1.3,0.2-1.8,0.5s-1,0.9-1.4,1.5C2420.2,2052.8,2420,2053.5,2419.9,2054.5L2419.9,2054.5z"/>
		<path class="st1" d="M2435.7,2061.2c-1,0-1.9-0.2-2.7-0.7c-0.8-0.5-1.4-1.2-1.9-2.1c-0.5-0.9-0.7-2-0.7-3.2s0.2-2.4,0.7-3.3
			c0.5-0.9,1.1-1.6,1.9-2.1s1.7-0.7,2.6-0.7c0.8,0,1.5,0.1,2,0.4s1,0.6,1.4,1l-0.6,0.7c-0.4-0.4-0.8-0.6-1.2-0.9
			c-0.4-0.2-0.9-0.4-1.5-0.4c-0.8,0-1.5,0.2-2.1,0.6c-0.6,0.4-1.1,1-1.5,1.8s-0.6,1.7-0.6,2.7s0.2,1.9,0.5,2.6
			c0.3,0.8,0.8,1.4,1.5,1.8s1.4,0.6,2.2,0.6c0.6,0,1.2-0.1,1.7-0.4s1-0.6,1.4-0.9l0.6,0.7c-0.5,0.4-1.1,0.8-1.7,1.1
			C2437.1,2061.1,2436.4,2061.2,2435.7,2061.2L2435.7,2061.2z"/>
		<path class="st1" d="M2445.1,2061.2c-1.1,0-1.9-0.3-2.3-1c-0.4-0.6-0.6-1.5-0.6-2.5v-7.4h-1.8v-0.8l1.8-0.1l0.1-3.3h0.9v3.3h3.3
			v0.9h-3.3v7.5c0,0.7,0.1,1.3,0.4,1.8c0.3,0.4,0.8,0.7,1.6,0.7c0.2,0,0.5,0,0.7-0.1s0.5-0.2,0.7-0.2l0.3,0.9
			c-0.3,0.1-0.7,0.2-1,0.3C2445.6,2061.2,2445.3,2061.2,2445.1,2061.2L2445.1,2061.2z"/>
		<path class="st1" d="M2453.4,2061.2c-0.9,0-1.8-0.2-2.5-0.7c-0.8-0.5-1.4-1.2-1.9-2.1c-0.5-0.9-0.7-2-0.7-3.2s0.2-2.4,0.7-3.3
			c0.5-0.9,1.1-1.6,1.9-2.1c0.8-0.5,1.6-0.7,2.5-0.7s1.8,0.2,2.6,0.7c0.8,0.5,1.4,1.2,1.9,2.1c0.5,0.9,0.7,2,0.7,3.3
			s-0.2,2.4-0.7,3.2s-1.1,1.6-1.9,2.1C2455.2,2061,2454.3,2061.2,2453.4,2061.2z M2453.4,2060.3c0.8,0,1.5-0.2,2.1-0.6
			s1.1-1,1.4-1.8c0.4-0.8,0.5-1.6,0.5-2.6s-0.2-1.9-0.5-2.7s-0.9-1.4-1.4-1.8c-0.6-0.4-1.3-0.6-2.1-0.6s-1.5,0.2-2.1,0.6
			s-1.1,1-1.4,1.8s-0.5,1.7-0.5,2.7s0.2,1.9,0.5,2.6s0.8,1.4,1.4,1.8S2452.6,2060.3,2453.4,2060.3z"/>
		<path class="st1" d="M2462,2060.9v-11.5h0.9l0.1,2.1h0.1c0.4-0.7,0.9-1.3,1.4-1.7c0.6-0.5,1.2-0.7,1.9-0.7c0.2,0,0.4,0,0.6,0.1
			s0.4,0.1,0.6,0.2l-0.2,1c-0.2-0.1-0.4-0.1-0.5-0.2c-0.1,0-0.3,0-0.6,0c-0.5,0-1.1,0.2-1.6,0.7s-1.1,1.2-1.5,2.3v7.9H2462z"/>
		<path class="st1" d="M2475.8,2061.2c-0.9,0-1.4-0.6-1.4-1.8v-15.7h1.1v15.9c0,0.5,0.2,0.7,0.5,0.7c0.1,0,0.1,0,0.2,0s0.1,0,0.3,0
			l0.2,0.9c-0.1,0-0.2,0.1-0.3,0.1C2476.1,2061.2,2476,2061.2,2475.8,2061.2L2475.8,2061.2z"/>
		<path class="st1" d="M2480.6,2046.7c-0.3,0-0.5-0.1-0.6-0.3c-0.2-0.2-0.3-0.4-0.3-0.7c0-0.3,0.1-0.5,0.3-0.7
			c0.2-0.2,0.4-0.3,0.6-0.3c0.3,0,0.5,0.1,0.7,0.3c0.2,0.2,0.2,0.4,0.2,0.7c0,0.3-0.1,0.5-0.2,0.7
			C2481.1,2046.6,2480.9,2046.7,2480.6,2046.7z M2480.1,2060.9v-11.5h1.1v11.5H2480.1z"/>
		<path class="st1" d="M2485.6,2060.9v-11.5h0.9l0.1,1.8h0.1c0.6-0.6,1.2-1.1,1.8-1.5c0.6-0.4,1.3-0.6,2.1-0.6
			c1.2,0,2.1,0.4,2.6,1.1s0.9,1.8,0.9,3.3v7.4h-1.1v-7.2c0-1.2-0.2-2.1-0.6-2.7c-0.4-0.6-1.1-0.9-2-0.9c-0.7,0-1.3,0.2-1.9,0.5
			s-1.2,0.9-1.9,1.6v8.7L2485.6,2060.9L2485.6,2060.9z"/>
		<path class="st1" d="M2502.7,2061.2c-1,0-1.9-0.2-2.7-0.7c-0.8-0.5-1.4-1.2-1.9-2.1c-0.5-0.9-0.7-2-0.7-3.2s0.2-2.4,0.7-3.2
			s1.1-1.6,1.9-2.1s1.6-0.7,2.4-0.7c1.4,0,2.5,0.5,3.2,1.4s1.2,2.2,1.2,3.9c0,0.1,0,0.3,0,0.4s0,0.3-0.1,0.4h-8.3
			c0,1,0.2,1.8,0.6,2.6s0.9,1.3,1.5,1.8c0.6,0.4,1.4,0.6,2.3,0.6c0.6,0,1.2-0.1,1.7-0.3s1-0.4,1.4-0.7l0.4,0.8
			c-0.4,0.3-0.9,0.5-1.5,0.8S2503.6,2061.2,2502.7,2061.2L2502.7,2061.2z M2498.5,2054.5h7.3c0-1.5-0.3-2.6-0.9-3.3
			c-0.6-0.7-1.4-1.1-2.5-1.1c-0.7,0-1.3,0.2-1.8,0.5s-1,0.9-1.4,1.5S2498.6,2053.5,2498.5,2054.5L2498.5,2054.5z"/>
	</g>
	<rect x="445.8" y="1460.9" class="st2" width="120" height="29.2"/>
	<rect x="547.6" y="2156.9" class="st2" width="320" height="29.2"/>
	<rect x="547.6" y="2206.1" class="st2" width="820.2" height="48.1"/>
	<rect x="545.9" y="1570.3" class="st2" width="1380.3" height="420.9"/>
	<rect x="545.9" y="2274.3" class="st2" width="980.2" height="192.3"/>
	<rect x="1546.1" y="2274.3" class="st2" width="380" height="192.3"/>
	<rect x="1096.9" y="2032.9" class="st2" width="280" height="44"/>
	<rect x="626.6" y="1460.9" class="st2" width="258.6" height="12.4"/>
	<rect x="1946.1" y="1460.9" class="st2" width="80" height="12.1"/>
	<rect x="1846.1" y="1460.9" class="st2" width="80" height="12.1"/>
	<rect x="487.7" y="1545.8" class="st6" width="1498.4" height="469.9"/>
	<rect x="487.7" y="2124.1" class="st7" width="1498.4" height="342.4"/>
</g>
<g id="b">
	<line class="st8" x1="2196.9" y1="172.7" x2="2383.7" y2="172.7"/>
	<line class="st8" x1="2196.9" y1="143.3" x2="2383.7" y2="143.3"/>
	<line class="st9" x1="2026.1" y1="252.7" x2="2383.7" y2="252.7"/>
	<line class="st9" x1="1946.1" y1="673.6" x2="2383.7" y2="673.6"/>
	<line class="st10" x1="2383.7" y1="673.6" x2="2383.7" y2="252.7"/>
	<line class="st11" x1="2383.7" y1="172.7" x2="2383.7" y2="143.3"/>
	<line class="st12" x1="1926.2" y1="761.3" x2="2383.7" y2="761.3"/>
	<line class="st12" x1="1926.2" y1="714" x2="2383.7" y2="714"/>
	<line class="st13" x1="2383.7" y1="761.3" x2="2383.7" y2="714"/>
	<line class="st14" x1="1926.2" y1="1148.4" x2="2383.7" y2="1148.4"/>
	<line class="st14" x1="1367.8" y1="935.4" x2="2383.7" y2="935.4"/>
	<line class="st14" x1="867.7" y1="839.5" x2="2383.7" y2="839.5"/>
	<line class="st15" x1="2383.7" y1="1148.4" x2="2383.7" y2="839.5"/>
	<line class="st16" x1="1986.1" y1="1784.7" x2="2383.7" y2="1784.7"/>
	<line class="st17" x1="1236.9" y1="2054.9" x2="2383.7" y2="2054.9"/>
	<g>
		<line class="st18" x1="1236" y1="1969.3" x2="1236" y2="2122.3"/>
		<path class="st19" d="M1228.8,2112.1c0.3-0.2,0.8-0.1,1,0.2l6.2,9.7l6.2-9.7c0.2-0.4,0.7-0.4,1-0.2s0.4,0.7,0.2,1l-6.8,10.7
			c-0.1,0.2-0.4,0.4-0.6,0.4s-0.5-0.1-0.6-0.4l-6.8-10.7c-0.1-0.1-0.1-0.3-0.1-0.4C1228.5,2112.5,1228.6,2112.2,1228.8,2112.1
			L1228.8,2112.1z"/>
	</g>
	<rect x="425.8" y="1439.2" class="st20" width="160" height="72.8"/>
	<line class="st21" x1="425.8" y1="1475.6" x2="162.6" y2="1475.6"/>
</g>
<g id="c">
	<g>
		<g>
			<line class="st22" x1="278" y1="44" x2="424.8" y2="44"/>
			<polygon class="st23" points="281.3,48 282,47.3 278.4,44 282,40.6 281.3,39.9 276.9,44 			"/>
			<polygon class="st23" points="421.4,48 420.8,47.3 424.4,44 420.8,40.6 421.4,39.9 425.8,44 			"/>
		</g>
		<line class="st22" x1="425.8" y1="35" x2="425.8" y2="52.9"/>
		<line class="st22" x1="276.9" y1="52.9" x2="276.9" y2="35"/>
	</g>
	<g>
		<g>
			<line class="st22" x1="426.9" y1="44" x2="444.8" y2="44"/>
			<polygon class="st23" points="430.2,48 430.9,47.3 427.3,44 430.9,40.6 430.2,39.9 425.8,44 			"/>
			<polygon class="st23" points="441.4,48 440.8,47.3 444.4,44 440.8,40.6 441.4,39.9 445.8,44 			"/>
		</g>
		<line class="st22" x1="445.8" y1="35" x2="445.8" y2="52.9"/>
		<line class="st22" x1="425.8" y1="52.9" x2="425.8" y2="35"/>
	</g>
	<g>
		<g>
			<line class="st22" x1="547" y1="44" x2="624.8" y2="44"/>
			<polygon class="st23" points="550.3,48 551,47.3 547.3,44 551,40.6 550.3,39.9 545.9,44 			"/>
			<polygon class="st23" points="621.5,48 620.8,47.3 624.4,44 620.8,40.6 621.5,39.9 625.9,44 			"/>
		</g>
		<line class="st22" x1="625.9" y1="35" x2="625.9" y2="52.9"/>
		<line class="st22" x1="545.9" y1="52.9" x2="545.9" y2="35"/>
	</g>
	<g>
		<g>
			<line class="st22" x1="278" y1="1173.3" x2="2195.8" y2="1173.3"/>
			<polygon class="st23" points="281.3,1177.4 282,1176.6 278.4,1173.3 282,1169.9 281.3,1169.2 276.9,1173.3 			"/>
			<polygon class="st23" points="2192.5,1177.4 2191.8,1176.6 2195.4,1173.3 2191.8,1169.9 2192.5,1169.2 2196.9,1173.3 			"/>
		</g>
		<line class="st22" x1="2196.9" y1="1164.3" x2="2196.9" y2="1182.2"/>
		<line class="st22" x1="276.9" y1="1182.2" x2="276.9" y2="1164.3"/>
	</g>
	<line class="st24" x1="425.8" y1="68.4" x2="425.8" y2="1148.9"/>
	<line class="st24" x1="445.8" y1="68.4" x2="445.8" y2="1148.9"/>
	<line class="st24" x1="525.9" y1="68.4" x2="525.9" y2="1148.9"/>
	<line class="st24" x1="545.9" y1="68.4" x2="545.9" y2="1148.9"/>
	<line class="st24" x1="625.9" y1="68.4" x2="625.9" y2="1148.9"/>
	<line class="st24" x1="645.9" y1="68.4" x2="645.9" y2="1148.9"/>
	<line class="st24" x1="725.9" y1="68.4" x2="725.9" y2="1148.9"/>
	<line class="st24" x1="745.9" y1="68.4" x2="745.9" y2="1148.9"/>
	<line class="st24" x1="825.9" y1="68.4" x2="825.9" y2="1148.9"/>
	<line class="st24" x1="845.9" y1="68.4" x2="845.9" y2="1148.9"/>
	<line class="st24" x1="926" y1="68.4" x2="926" y2="1148.9"/>
	<line class="st24" x1="946" y1="68.4" x2="946" y2="1148.9"/>
	<line class="st24" x1="1026" y1="68.4" x2="1026" y2="1148.9"/>
	<line class="st24" x1="1046" y1="68.4" x2="1046" y2="1148.9"/>
	<line class="st24" x1="1126" y1="68.4" x2="1126" y2="1148.9"/>
	<line class="st24" x1="1146" y1="68.4" x2="1146" y2="1148.9"/>
	<line class="st24" x1="1226" y1="68.4" x2="1226" y2="1148.9"/>
	<line class="st24" x1="1246" y1="68.4" x2="1246" y2="1148.9"/>
	<line class="st24" x1="1326.1" y1="68.4" x2="1326.1" y2="1148.9"/>
	<line class="st24" x1="1346.1" y1="68.4" x2="1346.1" y2="1148.9"/>
	<line class="st24" x1="1426.1" y1="68.4" x2="1426.1" y2="1148.9"/>
	<line class="st24" x1="1446.1" y1="68.4" x2="1446.1" y2="1148.9"/>
	<line class="st24" x1="1526.1" y1="68.4" x2="1526.1" y2="1148.9"/>
	<line class="st24" x1="1546.1" y1="68.4" x2="1546.1" y2="1148.9"/>
	<line class="st24" x1="1626.1" y1="68.4" x2="1626.1" y2="1148.9"/>
	<line class="st24" x1="1646.1" y1="68.4" x2="1646.1" y2="1148.9"/>
	<line class="st24" x1="1726.1" y1="68.4" x2="1726.1" y2="1148.9"/>
	<line class="st24" x1="1746.1" y1="68.4" x2="1746.1" y2="1148.9"/>
	<line class="st24" x1="1826.1" y1="68.4" x2="1826.1" y2="1148.9"/>
	<line class="st24" x1="1846.1" y1="68.4" x2="1846.1" y2="1148.9"/>
	<line class="st24" x1="1926.1" y1="68.4" x2="1926.1" y2="1148.9"/>
	<line class="st24" x1="1946.1" y1="68.4" x2="1946.1" y2="1148.9"/>
	<line class="st24" x1="2026.1" y1="68.4" x2="2026.1" y2="1148.9"/>
	<line class="st24" x1="2046.1" y1="68.4" x2="2046.1" y2="1148.9"/>
	<line class="st24" x1="2196.9" y1="143.3" x2="276.9" y2="143.3"/>
	<line class="st24" x1="425.8" y1="1386.1" x2="425.8" y2="2466.5"/>
	<line class="st24" x1="445.8" y1="1386.1" x2="445.8" y2="2466.5"/>
	<line class="st24" x1="525.9" y1="1386.1" x2="525.9" y2="2466.5"/>
	<line class="st24" x1="545.9" y1="1386.1" x2="545.9" y2="2466.5"/>
	<line class="st24" x1="625.9" y1="1386.1" x2="625.9" y2="2466.5"/>
	<line class="st24" x1="645.9" y1="1386.1" x2="645.9" y2="2466.5"/>
	<line class="st24" x1="725.9" y1="1386.1" x2="725.9" y2="2466.5"/>
	<line class="st24" x1="745.9" y1="1386.1" x2="745.9" y2="2466.5"/>
	<line class="st24" x1="825.9" y1="1386.1" x2="825.9" y2="2466.5"/>
	<line class="st24" x1="845.9" y1="1386.1" x2="845.9" y2="2466.5"/>
	<line class="st24" x1="926" y1="1386.1" x2="926" y2="2466.5"/>
	<line class="st24" x1="946" y1="1386.1" x2="946" y2="2466.5"/>
	<line class="st24" x1="1026" y1="1386.1" x2="1026" y2="2466.5"/>
	<line class="st24" x1="1046" y1="1386.1" x2="1046" y2="2466.5"/>
	<line class="st24" x1="1126" y1="1386.1" x2="1126" y2="2466.5"/>
	<line class="st24" x1="1146" y1="1386.1" x2="1146" y2="2466.5"/>
	<line class="st24" x1="1226" y1="1386.1" x2="1226" y2="2466.5"/>
	<line class="st24" x1="1246" y1="1386.1" x2="1246" y2="2466.5"/>
	<line class="st24" x1="1326.1" y1="1386.1" x2="1326.1" y2="2466.5"/>
	<line class="st24" x1="1346.1" y1="1386.1" x2="1346.1" y2="2466.5"/>
	<line class="st24" x1="1426.1" y1="1386.1" x2="1426.1" y2="2466.5"/>
	<line class="st24" x1="1446.1" y1="1386.1" x2="1446.1" y2="2466.5"/>
	<line class="st24" x1="1526.1" y1="1386.1" x2="1526.1" y2="2466.5"/>
	<line class="st24" x1="1546.1" y1="1386.1" x2="1546.1" y2="2466.5"/>
	<line class="st24" x1="1626.1" y1="1386.1" x2="1626.1" y2="2466.5"/>
	<line class="st24" x1="1646.1" y1="1386.1" x2="1646.1" y2="2466.5"/>
	<line class="st24" x1="1726.1" y1="1386.1" x2="1726.1" y2="2466.5"/>
	<line class="st24" x1="1746.1" y1="1386.1" x2="1746.1" y2="2466.5"/>
	<line class="st24" x1="1826.1" y1="1386.1" x2="1826.1" y2="2466.5"/>
	<line class="st24" x1="1846.1" y1="1386.1" x2="1846.1" y2="2466.5"/>
	<line class="st24" x1="1926.1" y1="1386.1" x2="1926.1" y2="2466.5"/>
	<line class="st24" x1="1946.1" y1="1386.1" x2="1946.1" y2="2466.5"/>
	<line class="st24" x1="2026.1" y1="1386.1" x2="2026.1" y2="2466.5"/>
	<line class="st24" x1="2046.1" y1="1386.1" x2="2046.1" y2="2466.5"/>
	<line class="st24" x1="2196.9" y1="1460.9" x2="276.9" y2="1460.9"/>
</g>
</svg>
