<?xml version="1.0" encoding="UTF-8"?><svg xmlns="http://www.w3.org/2000/svg" xmlns:xlink="http://www.w3.org/1999/xlink" viewBox="0 0 2646.04 1233.39"><defs><style>.f{fill:url(#c);}.f,.g,.h,.i,.j{opacity:.6;}.f,.h,.k,.i,.l,.j,.m,.n,.o{stroke-miterlimit:10;}.f,.h,.i,.j{stroke-width:1.5px;}.f,.i{stroke:#da1c5c;}.p{stroke:#f79520;stroke-width:.72px;}.p,.k,.i,.l,.j,.q,.m,.r,.s,.o{fill:none;}.t,.u{fill:#84c441;}.v,.u,.w{opacity:.2;}.v,.x{fill:#f5a721;}.h{fill:url(#d);}.h,.j{stroke:#f7941d;}.k{stroke:#ed1c24;}.k,.o{stroke-width:.75px;}.l,.n{stroke:#000;stroke-width:2.5px;}.y,.w{fill:#e54125;}.q{stroke:#da1b5d;stroke-width:1.2px;}.m{stroke-width:4px;}.m,.o{stroke:#231f20;}.a`{fill:#ed1c24;}.n{fill:#fff;}.aa{fill:#231f20;}.s{opacity:.1;}</style><pattern id="c" x="0" y="0" width="72" height="72" patternTransform="translate(3404.33 -10833.96) rotate(-45)" patternUnits="userSpaceOnUse" viewBox="0 0 72 72"><g><rect class="r" width="72" height="72"/><g><line class="q" x1="71.75" y1="66" x2="144.25" y2="66"/><line class="q" x1="71.75" y1="42" x2="144.25" y2="42"/><line class="q" x1="71.75" y1="18" x2="144.25" y2="18"/><line class="q" x1="71.75" y1="54" x2="144.25" y2="54"/><line class="q" x1="71.75" y1="30" x2="144.25" y2="30"/><line class="q" x1="71.75" y1="6" x2="144.25" y2="6"/></g><g><line class="q" x1="-.25" y1="66" x2="72.25" y2="66"/><line class="q" x1="-.25" y1="42" x2="72.25" y2="42"/><line class="q" x1="-.25" y1="18" x2="72.25" y2="18"/><line class="q" x1="-.25" y1="54" x2="72.25" y2="54"/><line class="q" x1="-.25" y1="30" x2="72.25" y2="30"/><line class="q" x1="-.25" y1="6" x2="72.25" y2="6"/></g><g><line class="q" x1="-72.25" y1="66" x2=".25" y2="66"/><line class="q" x1="-72.25" y1="42" x2=".25" y2="42"/><line class="q" x1="-72.25" y1="18" x2=".25" y2="18"/><line class="q" x1="-72.25" y1="54" x2=".25" y2="54"/><line class="q" x1="-72.25" y1="30" x2=".25" y2="30"/><line class="q" x1="-72.25" y1="6" x2=".25" y2="6"/></g></g></pattern><pattern id="d" x="0" y="0" width="72" height="72" patternTransform="translate(-7699.41 112.45) rotate(45)" patternUnits="userSpaceOnUse" viewBox="0 0 72 72"><g><rect class="r" width="72" height="72"/><g><line class="p" x1="71.75" y1="68.4" x2="144.25" y2="68.4"/><line class="p" x1="71.75" y1="54" x2="144.25" y2="54"/><line class="p" x1="71.75" y1="39.6" x2="144.25" y2="39.6"/><line class="p" x1="71.75" y1="25.2" x2="144.25" y2="25.2"/><line class="p" x1="71.75" y1="10.8" x2="144.25" y2="10.8"/><line class="p" x1="71.75" y1="61.2" x2="144.25" y2="61.2"/><line class="p" x1="71.75" y1="46.8" x2="144.25" y2="46.8"/><line class="p" x1="71.75" y1="32.4" x2="144.25" y2="32.4"/><line class="p" x1="71.75" y1="18" x2="144.25" y2="18"/><line class="p" x1="71.75" y1="3.6" x2="144.25" y2="3.6"/></g><g><line class="p" x1="-.25" y1="68.4" x2="72.25" y2="68.4"/><line class="p" x1="-.25" y1="54" x2="72.25" y2="54"/><line class="p" x1="-.25" y1="39.6" x2="72.25" y2="39.6"/><line class="p" x1="-.25" y1="25.2" x2="72.25" y2="25.2"/><line class="p" x1="-.25" y1="10.8" x2="72.25" y2="10.8"/><line class="p" x1="-.25" y1="61.2" x2="72.25" y2="61.2"/><line class="p" x1="-.25" y1="46.8" x2="72.25" y2="46.8"/><line class="p" x1="-.25" y1="32.4" x2="72.25" y2="32.4"/><line class="p" x1="-.25" y1="18" x2="72.25" y2="18"/><line class="p" x1="-.25" y1="3.6" x2="72.25" y2="3.6"/></g><g><line class="p" x1="-72.25" y1="68.4" x2=".25" y2="68.4"/><line class="p" x1="-72.25" y1="54" x2=".25" y2="54"/><line class="p" x1="-72.25" y1="39.6" x2=".25" y2="39.6"/><line class="p" x1="-72.25" y1="25.2" x2=".25" y2="25.2"/><line class="p" x1="-72.25" y1="10.8" x2=".25" y2="10.8"/><line class="p" x1="-72.25" y1="61.2" x2=".25" y2="61.2"/><line class="p" x1="-72.25" y1="46.8" x2=".25" y2="46.8"/><line class="p" x1="-72.25" y1="32.4" x2=".25" y2="32.4"/><line class="p" x1="-72.25" y1="18" x2=".25" y2="18"/><line class="p" x1="-72.25" y1="3.6" x2=".25" y2="3.6"/></g></g></pattern></defs><g id="a"><g><line class="k" x1="666.91" y1="853.53" x2="666.91" y2="901.2"/><g><line class="k" x1="277.72" y1="877.37" x2="666.1" y2="877.37"/><polygon class="a`" points="280.21 880.43 280.72 879.89 278.01 877.37 280.72 874.85 280.21 874.3 276.91 877.37 280.21 880.43"/><polygon class="a`" points="663.61 880.43 663.1 879.89 665.81 877.37 663.1 874.85 663.61 874.3 666.91 877.37 663.61 880.43"/></g><line class="k" x1="276.91" y1="901.2" x2="276.91" y2="853.53"/></g><g><path class="aa" d="M446.57,936c-.82,0-1.53-.11-2.14-.32-.61-.22-1.13-.49-1.57-.83-.44-.34-.83-.67-1.16-1.01l.62-.74c.46,.5,1.02,.95,1.68,1.36s1.51,.61,2.57,.61,1.9-.31,2.57-.92c.67-.62,1.01-1.44,1.01-2.46s-.41-1.91-1.24-2.57c-.82-.66-2.2-.98-4.12-.98v-.94c1.18,0,2.13-.15,2.83-.44s1.21-.7,1.51-1.21,.46-1.07,.46-1.68c0-.87-.28-1.56-.84-2.08-.56-.52-1.31-.78-2.26-.78-.7,0-1.36,.16-1.96,.49-.6,.33-1.12,.72-1.57,1.19l-.62-.72c.53-.51,1.13-.95,1.81-1.32,.68-.37,1.46-.55,2.34-.55,.8,0,1.52,.14,2.15,.43,.63,.29,1.13,.71,1.5,1.26,.37,.55,.55,1.22,.55,2,0,1.01-.28,1.82-.83,2.44-.55,.62-1.25,1.07-2.1,1.36v.1c.64,.13,1.22,.37,1.74,.73,.52,.36,.94,.81,1.26,1.36s.48,1.18,.48,1.9c0,.88-.21,1.65-.62,2.3s-.98,1.16-1.68,1.51c-.7,.35-1.5,.53-2.38,.53Z"/><path class="aa" d="M457.08,936c-.7,0-1.32-.14-1.86-.41s-1-.63-1.38-1.08l.65-.72c.34,.42,.73,.73,1.19,.95,.46,.22,.93,.32,1.43,.32,.82,0,1.57-.24,2.26-.72,.69-.48,1.24-1.27,1.67-2.38,.42-1.1,.64-2.59,.64-4.46-.53,.64-1.13,1.15-1.8,1.54-.67,.38-1.37,.58-2.09,.58-1.33,0-2.37-.4-3.12-1.21-.75-.81-1.13-1.99-1.13-3.54,0-.93,.19-1.75,.58-2.47,.38-.72,.9-1.28,1.54-1.69,.64-.41,1.34-.61,2.09-.61,1.52,0,2.73,.62,3.64,1.86,.9,1.24,1.36,3.03,1.36,5.36,0,2.14-.26,3.85-.79,5.12-.53,1.27-1.22,2.18-2.08,2.74-.86,.55-1.78,.83-2.77,.83Zm-2.5-11.14c0,1.12,.26,2.04,.79,2.77,.53,.73,1.38,1.09,2.54,1.09,.56,0,1.17-.18,1.84-.55s1.29-.96,1.88-1.78c-.1-1.62-.47-2.92-1.12-3.91-.65-.99-1.6-1.49-2.84-1.49-.58,0-1.1,.17-1.57,.52-.47,.34-.84,.8-1.12,1.38-.27,.58-.41,1.23-.41,1.97Z"/><path class="aa" d="M469.73,936c-1.46,0-2.58-.7-3.38-2.09-.8-1.39-1.2-3.37-1.2-5.93s.4-4.5,1.2-5.86c.8-1.36,1.93-2.04,3.38-2.04s2.6,.68,3.4,2.04c.79,1.36,1.19,3.31,1.19,5.86s-.4,4.54-1.19,5.93-1.92,2.09-3.4,2.09Zm0-.91c1.07,0,1.92-.6,2.56-1.8,.63-1.2,.95-2.97,.95-5.3s-.32-4.08-.95-5.24c-.63-1.16-1.48-1.74-2.56-1.74s-1.9,.58-2.54,1.74c-.64,1.16-.96,2.91-.96,5.24s.32,4.1,.96,5.3c.64,1.2,1.49,1.8,2.54,1.8Z"/><path class="aa" d="M482.49,940.92v-16.73h.91l.1,1.44h.07c.56-.45,1.18-.85,1.85-1.2,.67-.35,1.36-.53,2.06-.53,1.54,0,2.69,.53,3.46,1.6,.77,1.06,1.15,2.49,1.15,4.28,0,1.3-.24,2.41-.71,3.34s-1.09,1.64-1.86,2.14c-.77,.5-1.61,.74-2.52,.74-.54,0-1.1-.12-1.68-.37s-1.17-.6-1.78-1.04v6.34h-1.06Zm4.46-5.86c.78,0,1.48-.22,2.08-.67,.6-.45,1.07-1.07,1.42-1.86,.34-.79,.52-1.71,.52-2.75,0-.94-.12-1.79-.36-2.53-.24-.74-.63-1.33-1.16-1.76-.54-.43-1.24-.65-2.12-.65-.58,0-1.17,.17-1.79,.49-.62,.33-1.28,.8-1.98,1.4v6.84c.66,.54,1.28,.93,1.86,1.15,.58,.22,1.1,.34,1.55,.34Z"/><path class="aa" d="M493.39,935.71l3.91-6.02-3.6-5.5h1.18l1.87,2.93c.19,.3,.39,.62,.6,.94l.62,.96h.1c.21-.32,.4-.64,.59-.96,.18-.32,.38-.63,.59-.94l1.8-2.93h1.1l-3.58,5.59,3.91,5.93h-1.18l-2.04-3.14c-.21-.37-.43-.73-.66-1.08-.23-.35-.47-.7-.71-1.03h-.1c-.22,.34-.44,.68-.66,1.03-.22,.35-.44,.71-.66,1.08l-1.97,3.14h-1.13Z"/></g><g><line class="k" x1="667.43" y1="2.98" x2="715.09" y2="2.98"/><g><line class="k" x1="691.26" y1="852.72" x2="691.26" y2="3.79"/><polygon class="a`" points="694.33 850.24 693.78 849.72 691.26 852.43 688.74 849.72 688.19 850.24 691.26 853.53 694.33 850.24"/><polygon class="a`" points="694.33 6.27 693.78 6.79 691.26 4.08 688.74 6.79 688.19 6.27 691.26 2.98 694.33 6.27"/></g><line class="k" x1="715.09" y1="853.53" x2="667.43" y2="853.53"/></g><g><path class="aa" d="M739.78,455.89c-.93,0-1.76-.18-2.5-.55-.74-.37-1.32-.87-1.74-1.51-.42-.64-.64-1.36-.64-2.16,0-.69,.16-1.31,.47-1.87,.31-.56,.7-1.04,1.18-1.45,.47-.41,.95-.74,1.43-1v-.1c-.56-.37-1.07-.84-1.52-1.43s-.68-1.28-.68-2.1c0-.74,.18-1.38,.54-1.95,.36-.56,.84-1,1.45-1.32,.61-.32,1.28-.48,2.02-.48,1.31,0,2.33,.38,3.06,1.14,.73,.76,1.09,1.72,1.09,2.87,0,.56-.12,1.09-.36,1.6s-.53,.95-.86,1.34c-.34,.39-.66,.71-.96,.95v.1c.45,.27,.88,.58,1.28,.92s.74,.76,1.01,1.24c.26,.48,.4,1.06,.4,1.75,0,.74-.2,1.41-.59,2.02-.39,.61-.94,1.09-1.63,1.45-.7,.36-1.51,.54-2.44,.54Zm0-.89c1.09,0,1.96-.3,2.6-.91,.65-.61,.97-1.35,.97-2.23,0-.78-.22-1.42-.67-1.91-.45-.49-1.03-.9-1.74-1.24-.71-.34-1.47-.66-2.27-.96-.78,.45-1.43,.99-1.94,1.63-.51,.64-.77,1.38-.77,2.23,0,.64,.16,1.21,.49,1.72s.78,.91,1.36,1.21,1.23,.46,1.97,.46Zm1.13-7.44c.66-.53,1.16-1.09,1.5-1.68,.34-.59,.52-1.22,.52-1.87,0-.85-.28-1.58-.83-2.21-.55-.62-1.32-.94-2.32-.94-.85,0-1.55,.27-2.11,.8-.56,.54-.84,1.22-.84,2.05,0,.72,.2,1.32,.6,1.79,.4,.47,.91,.86,1.54,1.18,.62,.31,1.27,.6,1.94,.88Z"/><path class="aa" d="M752.89,455.6v-4.58h-7.06v-.62l7.13-10.13h.96v9.84h2.28v.91h-2.28v4.58h-1.03Zm-5.76-5.5h5.76v-5.62c0-.35,.01-.79,.04-1.32,.02-.53,.04-.97,.06-1.32h-.1c-.19,.32-.39,.63-.6,.94s-.42,.63-.65,.98l-4.51,6.34Z"/><path class="aa" d="M764.38,455.6v-4.58h-7.06v-.62l7.13-10.13h.96v9.84h2.28v.91h-2.28v4.58h-1.03Zm-5.76-5.5h5.76v-5.62c0-.35,.01-.79,.04-1.32,.02-.53,.04-.97,.06-1.32h-.1c-.19,.32-.39,.63-.6,.94s-.42,.63-.65,.98l-4.51,6.34Z"/><path class="aa" d="M775.45,460.81v-16.73h.91l.1,1.44h.07c.56-.45,1.18-.85,1.85-1.2s1.36-.53,2.06-.53c1.54,0,2.69,.53,3.46,1.6,.77,1.06,1.15,2.49,1.15,4.28,0,1.3-.24,2.41-.71,3.34s-1.09,1.64-1.86,2.14c-.77,.5-1.61,.74-2.52,.74-.54,0-1.1-.12-1.68-.37s-1.17-.6-1.78-1.04v6.34h-1.06Zm4.46-5.86c.78,0,1.48-.22,2.08-.67s1.07-1.07,1.42-1.86c.34-.79,.52-1.71,.52-2.75,0-.94-.12-1.79-.36-2.53-.24-.74-.63-1.33-1.16-1.76-.54-.43-1.24-.65-2.12-.65-.58,0-1.17,.16-1.79,.49-.62,.33-1.28,.79-1.98,1.4v6.84c.66,.54,1.28,.93,1.86,1.15s1.1,.34,1.55,.34Z"/><path class="aa" d="M786.34,455.6l3.91-6.02-3.6-5.5h1.18l1.87,2.93c.19,.3,.39,.62,.6,.94,.21,.32,.42,.64,.62,.96h.1c.21-.32,.4-.64,.59-.96,.18-.32,.38-.63,.59-.94l1.8-2.93h1.1l-3.58,5.59,3.91,5.93h-1.18l-2.04-3.14c-.21-.37-.43-.73-.66-1.08-.23-.35-.47-.7-.71-1.03h-.1c-.22,.34-.44,.68-.66,1.03-.22,.35-.44,.71-.66,1.08l-1.97,3.14h-1.13Z"/></g><rect class="o" x="276.91" y="2.98" width="390.52" height="850.56"/><g class="g"><rect class="y" x="1630.31" y="2.98" width="391.23" height="850.56"/><path class="x" d="M1630.31,315.23v412.93s165.92,45.46,192.32,41.67c26.4-3.79,44.31-17.05,68.82-38.83s44.31-44.51,53.74-56.83c9.43-12.31,28.28-58.91,31.11-73.02,2.83-14.11,2.83-38.74,0-47.26s-1.78-21.91,1.24-27.16c6.56-11.39,17.61-23.99,25.16-35.35,7.54-11.37,18.85-25.57,18.85-25.57V130.54s-103.25,3.74-179.12,32.2c-70.86,26.58-139.73,53.56-180.06,106.07-31.96,41.62-32.05,46.41-32.05,46.41Z"/><path class="t" d="M1630.31,774.04V454.56s8.93-18.43,77.85-43.61c62.28-22.75,48.5-19.73,116.07-28.87,52.84-7.15,76.43,.73,97.67,16.55,27.37,20.38,29.73,31.76,30.21,50.25,.42,16.11,.93,26.54-14.17,49.3s-28.39,41.11-51.9,67.31c-31.61,35.23-32.6,43.04-58.98,107.6-22.32,54.64-16.56,63.9-13.21,78.21,5.61,24.01,5.87,34.11-22.64,54.04-27.4,19.15-38.13,18.71-65.66,15.09-50.49-6.64-95.24-46.38-95.24-46.38Z"/></g><g><path class="aa" d="M2177.48,80.04v-15.82h1.15l6.67,11.16,1.78,3.14h.1c-.02-.77-.04-1.54-.08-2.3-.04-.77-.06-1.54-.06-2.3v-9.7h1.06v15.82h-1.15l-6.67-11.16-1.78-3.14h-.1c.03,.75,.06,1.5,.1,2.23,.03,.74,.05,1.49,.05,2.26v9.82h-1.06Z"/><path class="aa" d="M2195.14,80.32c-.91,0-1.7-.26-2.35-.77s-.98-1.31-.98-2.4c0-1.28,.6-2.25,1.8-2.92,1.2-.66,3.08-1.14,5.64-1.43,.02-.59-.05-1.16-.19-1.72-.14-.55-.41-1.01-.8-1.38-.39-.37-.97-.55-1.74-.55s-1.47,.15-2.11,.46c-.64,.3-1.16,.6-1.56,.89l-.48-.79c.27-.19,.62-.4,1.06-.64s.92-.43,1.48-.6c.55-.17,1.14-.25,1.76-.25,.91,0,1.63,.2,2.16,.6,.53,.4,.91,.93,1.14,1.6,.23,.66,.35,1.41,.35,2.24v7.37h-.91l-.1-1.49h-.07c-.59,.46-1.23,.88-1.92,1.24-.69,.36-1.41,.54-2.16,.54Zm.19-.91c.66,0,1.29-.16,1.91-.48,.62-.32,1.28-.78,2-1.39v-3.91c-1.58,.19-2.84,.44-3.77,.74-.93,.3-1.59,.68-1.99,1.14-.4,.46-.6,.99-.6,1.6,0,.83,.24,1.42,.73,1.78,.49,.35,1.06,.53,1.72,.53Z"/><path class="aa" d="M2207.29,80.32c-1.12,0-1.88-.32-2.28-.97-.4-.65-.6-1.48-.6-2.51v-7.42h-1.8v-.82l1.82-.1,.14-3.34h.91v3.34h3.34v.91h-3.34v7.51c0,.74,.13,1.33,.38,1.78,.26,.45,.78,.67,1.56,.67,.22,0,.47-.04,.73-.11,.26-.07,.5-.16,.71-.25l.29,.86c-.34,.11-.68,.21-1.02,.3-.34,.09-.63,.13-.85,.13Z"/><path class="aa" d="M2214.94,80.32c-1.18,0-2.06-.36-2.63-1.09-.57-.73-.85-1.84-.85-3.32v-7.39h1.06v7.25c0,1.22,.2,2.12,.61,2.71,.41,.59,1.08,.89,2,.89,.69,0,1.31-.19,1.87-.56,.56-.38,1.18-.97,1.85-1.79v-8.5h1.06v11.52h-.89l-.12-1.92h-.05c-.56,.66-1.15,1.19-1.78,1.6s-1.34,.61-2.14,.61Z"/><path class="aa" d="M2224.33,80.04v-11.52h.91l.1,2.14h.07c.38-.7,.85-1.28,1.4-1.74,.55-.46,1.17-.68,1.86-.68,.22,0,.42,.02,.6,.05,.18,.03,.36,.1,.55,.19l-.24,.96c-.19-.08-.36-.13-.5-.16-.14-.02-.33-.04-.55-.04-.51,0-1.05,.22-1.62,.66-.57,.44-1.08,1.2-1.52,2.29v7.85h-1.06Z"/><path class="aa" d="M2233.95,80.32c-.91,0-1.7-.26-2.35-.77s-.98-1.31-.98-2.4c0-1.28,.6-2.25,1.8-2.92,1.2-.66,3.08-1.14,5.64-1.43,.02-.59-.05-1.16-.19-1.72-.14-.55-.41-1.01-.8-1.38-.39-.37-.97-.55-1.74-.55s-1.47,.15-2.11,.46c-.64,.3-1.16,.6-1.56,.89l-.48-.79c.27-.19,.62-.4,1.06-.64s.92-.43,1.48-.6c.55-.17,1.14-.25,1.76-.25,.91,0,1.63,.2,2.16,.6,.53,.4,.91,.93,1.14,1.6,.23,.66,.35,1.41,.35,2.24v7.37h-.91l-.1-1.49h-.07c-.59,.46-1.23,.88-1.92,1.24-.69,.36-1.41,.54-2.16,.54Zm.19-.91c.66,0,1.29-.16,1.91-.48,.62-.32,1.28-.78,2-1.39v-3.91c-1.58,.19-2.84,.44-3.77,.74-.93,.3-1.59,.68-1.99,1.14-.4,.46-.6,.99-.6,1.6,0,.83,.24,1.42,.73,1.78,.49,.35,1.06,.53,1.72,.53Z"/><path class="aa" d="M2244.63,80.32c-.94,0-1.42-.61-1.42-1.82v-15.72h1.06v15.86c0,.5,.17,.74,.5,.74,.05,0,.1,0,.17-.01,.06,0,.15-.02,.26-.04l.19,.86c-.11,.03-.22,.06-.34,.08-.11,.02-.26,.04-.43,.04Z"/></g><g><path class="aa" d="M2181.61,125.61c-1.15,0-2.18-.22-3.07-.67s-1.66-1.02-2.28-1.7l.72-.77c.58,.64,1.26,1.16,2.06,1.55,.8,.39,1.66,.59,2.57,.59,1.22,0,2.18-.29,2.88-.89s1.06-1.35,1.06-2.28c0-.66-.13-1.18-.38-1.58-.26-.4-.6-.73-1.02-1-.42-.26-.9-.51-1.43-.73l-2.4-1.08c-.45-.21-.92-.47-1.43-.78-.5-.31-.93-.72-1.27-1.22-.34-.5-.52-1.15-.52-1.93s.2-1.44,.6-2.03c.4-.58,.95-1.04,1.64-1.37,.7-.33,1.48-.49,2.36-.49,.94,0,1.79,.19,2.54,.56s1.37,.82,1.85,1.33l-.62,.72c-.46-.48-1.01-.87-1.63-1.16-.62-.29-1.34-.44-2.14-.44-1.04,0-1.88,.26-2.53,.77-.65,.51-.97,1.2-.97,2.06,0,.61,.15,1.1,.44,1.49,.3,.38,.66,.7,1.08,.94,.42,.24,.83,.45,1.21,.62l2.4,1.06c.59,.26,1.14,.56,1.64,.9s.91,.78,1.22,1.3c.31,.52,.47,1.19,.47,2s-.21,1.52-.62,2.17c-.42,.65-1,1.16-1.76,1.52-.76,.37-1.65,.55-2.68,.55Z"/><path class="aa" d="M2192.5,125.61c-1.12,0-1.88-.32-2.28-.97-.4-.65-.6-1.48-.6-2.51v-7.42h-1.8v-.82l1.82-.1,.14-3.34h.91v3.34h3.34v.91h-3.34v7.51c0,.74,.13,1.33,.38,1.78,.26,.45,.78,.67,1.56,.67,.22,0,.47-.04,.73-.11,.26-.07,.5-.16,.71-.25l.29,.86c-.34,.11-.68,.21-1.02,.3-.34,.09-.63,.13-.85,.13Z"/><path class="aa" d="M2196.85,125.33v-11.52h.91l.1,2.14h.07c.38-.7,.85-1.28,1.4-1.74,.55-.46,1.17-.68,1.86-.68,.22,0,.42,.02,.6,.05,.18,.03,.36,.1,.55,.19l-.24,.96c-.19-.08-.36-.13-.5-.16-.14-.02-.33-.04-.55-.04-.51,0-1.05,.22-1.62,.66-.57,.44-1.08,1.21-1.52,2.29v7.85h-1.06Z"/><path class="aa" d="M2208.58,125.61c-.98,0-1.87-.24-2.68-.72-.81-.48-1.45-1.17-1.93-2.08-.48-.9-.72-1.98-.72-3.23s.24-2.35,.72-3.25c.48-.9,1.1-1.6,1.87-2.09,.77-.49,1.58-.73,2.42-.73,1.38,0,2.46,.46,3.24,1.39s1.18,2.24,1.18,3.94c0,.14,0,.29-.01,.43s-.03,.29-.06,.43h-8.28c.02,.96,.2,1.82,.56,2.57,.36,.75,.86,1.34,1.51,1.78,.65,.43,1.4,.65,2.27,.65,.62,0,1.19-.1,1.69-.29s.97-.44,1.4-.74l.43,.82c-.45,.27-.95,.53-1.51,.77-.56,.24-1.26,.36-2.11,.36Zm-4.25-6.77h7.34c0-1.47-.3-2.58-.91-3.31-.61-.74-1.43-1.1-2.47-1.1-.66,0-1.27,.18-1.84,.53-.57,.35-1.04,.86-1.43,1.51-.38,.66-.62,1.45-.7,2.38Z"/><path class="aa" d="M2218.71,125.61c-1.12,0-1.88-.32-2.28-.97-.4-.65-.6-1.48-.6-2.51v-7.42h-1.8v-.82l1.82-.1,.14-3.34h.91v3.34h3.34v.91h-3.34v7.51c0,.74,.13,1.33,.38,1.78,.26,.45,.78,.67,1.56,.67,.22,0,.47-.04,.73-.11,.26-.07,.5-.16,.71-.25l.29,.86c-.34,.11-.68,.21-1.02,.3-.34,.09-.63,.13-.85,.13Z"/><path class="aa" d="M2227.06,125.61c-.99,0-1.88-.24-2.68-.71s-1.42-1.16-1.87-2.06c-.46-.9-.68-1.99-.68-3.25s.24-2.4,.73-3.3c.49-.9,1.13-1.59,1.93-2.06,.8-.47,1.66-.71,2.59-.71,.8,0,1.46,.14,1.99,.43s.99,.62,1.39,.98l-.62,.74c-.37-.35-.78-.64-1.22-.88-.45-.23-.95-.35-1.51-.35-.78,0-1.49,.22-2.12,.65-.63,.43-1.13,1.03-1.5,1.8-.37,.77-.55,1.66-.55,2.69s.17,1.89,.52,2.65c.34,.76,.83,1.36,1.46,1.79s1.36,.65,2.2,.65c.61,0,1.17-.13,1.69-.4,.52-.26,.98-.57,1.38-.92l.55,.74c-.5,.43-1.05,.79-1.66,1.08-.61,.29-1.28,.43-2.02,.43Z"/><path class="aa" d="M2233.57,125.33v-17.26h1.06v7.54c.61-.61,1.23-1.11,1.86-1.5,.63-.39,1.34-.59,2.12-.59,1.18,0,2.06,.37,2.63,1.09,.57,.73,.85,1.84,.85,3.32v7.39h-1.06v-7.25c0-1.23-.2-2.14-.61-2.72-.41-.58-1.08-.88-2.03-.88-.69,0-1.31,.18-1.87,.54-.56,.36-1.19,.9-1.9,1.62v8.69h-1.06Z"/></g><g><path class="aa" d="M2182.74,170.9c-.67,0-1.32-.1-1.96-.3-.63-.2-1.2-.54-1.7-1.02s-.9-1.13-1.2-1.96-.44-1.85-.44-3.08v-9.74h1.1v9.62c0,1.39,.2,2.49,.59,3.29,.39,.8,.91,1.36,1.55,1.69,.64,.33,1.33,.49,2.06,.49s1.48-.16,2.14-.49,1.18-.89,1.58-1.69c.4-.8,.6-1.9,.6-3.29v-9.62h1.03v9.74c0,1.23-.15,2.26-.44,3.08-.3,.82-.7,1.48-1.2,1.96s-1.08,.82-1.72,1.02c-.64,.2-1.3,.3-1.99,.3Z"/><path class="aa" d="M2192.58,170.62v-11.52h.91l.1,1.78h.07c.59-.59,1.2-1.08,1.84-1.48,.63-.39,1.34-.59,2.12-.59,1.18,0,2.06,.36,2.63,1.09,.57,.73,.85,1.84,.85,3.32v7.39h-1.06v-7.25c0-1.23-.2-2.14-.61-2.72-.41-.58-1.08-.88-2.03-.88-.69,0-1.31,.18-1.87,.54-.56,.36-1.19,.9-1.9,1.62v8.69h-1.06Z"/><path class="aa" d="M2209.62,170.9c-.99,0-1.88-.24-2.68-.71s-1.42-1.16-1.87-2.06c-.46-.9-.68-1.99-.68-3.25s.24-2.4,.73-3.3c.49-.9,1.13-1.59,1.93-2.06,.8-.47,1.66-.71,2.59-.71,.8,0,1.46,.14,1.99,.43s.99,.62,1.39,.98l-.62,.74c-.37-.35-.78-.64-1.22-.88-.45-.23-.95-.35-1.51-.35-.78,0-1.49,.22-2.12,.65-.63,.43-1.13,1.03-1.5,1.8-.37,.77-.55,1.66-.55,2.69s.17,1.89,.52,2.65c.34,.76,.83,1.36,1.46,1.79,.63,.43,1.36,.65,2.2,.65,.61,0,1.17-.13,1.69-.4,.52-.26,.98-.57,1.38-.92l.55,.74c-.5,.43-1.05,.79-1.66,1.08-.61,.29-1.28,.43-2.02,.43Z"/><path class="aa" d="M2219.91,170.9c-.91,0-1.76-.24-2.54-.71-.78-.47-1.42-1.16-1.9-2.06-.48-.9-.72-1.99-.72-3.25s.24-2.4,.72-3.3c.48-.9,1.11-1.59,1.9-2.06,.78-.47,1.63-.71,2.54-.71s1.78,.24,2.57,.71c.78,.47,1.42,1.16,1.9,2.06,.48,.9,.72,2,.72,3.3s-.24,2.35-.72,3.25c-.48,.9-1.11,1.59-1.9,2.06s-1.64,.71-2.57,.71Zm0-.94c.78,0,1.48-.22,2.09-.65,.61-.43,1.09-1.03,1.45-1.79,.36-.76,.54-1.64,.54-2.65s-.18-1.92-.54-2.69c-.36-.77-.84-1.37-1.45-1.8-.61-.43-1.3-.65-2.09-.65s-1.46,.22-2.08,.65c-.62,.43-1.1,1.03-1.45,1.8-.35,.77-.53,1.66-.53,2.69s.18,1.89,.53,2.65,.84,1.36,1.45,1.79c.62,.43,1.31,.65,2.08,.65Z"/><path class="aa" d="M2228.55,170.62v-11.52h.91l.1,1.78h.07c.51-.59,1.08-1.08,1.72-1.48,.63-.39,1.27-.59,1.91-.59,.93,0,1.64,.22,2.14,.65s.85,1,1.06,1.7c.66-.72,1.31-1.29,1.96-1.72,.65-.42,1.3-.64,1.96-.64,2.3,0,3.46,1.47,3.46,4.42v7.39h-1.08v-7.25c0-2.4-.86-3.6-2.57-3.6-1.02,0-2.18,.72-3.46,2.16v8.69h-1.06v-7.25c0-1.23-.21-2.14-.62-2.72-.42-.58-1.07-.88-1.97-.88-1.02,0-2.18,.72-3.46,2.16v8.69h-1.06Z"/><path class="aa" d="M2248.21,170.62v-10.61h-1.58v-.82l1.58-.1v-2.57c0-1.14,.25-2,.74-2.58s1.2-.88,2.11-.88c.56,0,1.12,.13,1.68,.38l-.29,.86c-.24-.13-.48-.22-.71-.26-.23-.05-.46-.07-.68-.07-.61,0-1.06,.22-1.36,.67s-.44,1.1-.44,1.94v2.5h2.66v.91h-2.66v10.61h-1.06Z"/><path class="aa" d="M2258.31,170.9c-.91,0-1.76-.24-2.54-.71-.78-.47-1.42-1.16-1.9-2.06-.48-.9-.72-1.99-.72-3.25s.24-2.4,.72-3.3c.48-.9,1.11-1.59,1.9-2.06,.78-.47,1.63-.71,2.54-.71s1.78,.24,2.57,.71c.78,.47,1.42,1.16,1.9,2.06,.48,.9,.72,2,.72,3.3s-.24,2.35-.72,3.25c-.48,.9-1.11,1.59-1.9,2.06s-1.64,.71-2.57,.71Zm0-.94c.78,0,1.48-.22,2.09-.65,.61-.43,1.09-1.03,1.45-1.79,.36-.76,.54-1.64,.54-2.65s-.18-1.92-.54-2.69c-.36-.77-.84-1.37-1.45-1.8-.61-.43-1.3-.65-2.09-.65s-1.46,.22-2.08,.65c-.62,.43-1.1,1.03-1.45,1.8-.35,.77-.53,1.66-.53,2.69s.18,1.89,.53,2.65,.84,1.36,1.45,1.79c.62,.43,1.31,.65,2.08,.65Z"/><path class="aa" d="M2266.95,170.62v-11.52h.91l.1,2.14h.07c.38-.7,.85-1.28,1.4-1.74,.55-.46,1.17-.68,1.86-.68,.22,0,.42,.02,.6,.05,.18,.03,.36,.1,.55,.19l-.24,.96c-.19-.08-.36-.13-.5-.16-.14-.02-.33-.04-.55-.04-.51,0-1.05,.22-1.62,.66-.57,.44-1.08,1.2-1.52,2.29v7.85h-1.06Z"/><path class="aa" d="M2277.7,170.9c-1.12,0-1.88-.32-2.28-.97-.4-.65-.6-1.48-.6-2.51v-7.42h-1.8v-.82l1.82-.1,.14-3.34h.91v3.34h3.34v.91h-3.34v7.51c0,.74,.13,1.33,.38,1.78,.26,.45,.78,.67,1.56,.67,.22,0,.47-.04,.73-.11,.26-.07,.5-.16,.71-.25l.29,.86c-.34,.11-.68,.21-1.02,.3-.34,.09-.63,.13-.85,.13Z"/><path class="aa" d="M2284.04,170.9c-.91,0-1.7-.26-2.35-.77s-.98-1.31-.98-2.4c0-1.28,.6-2.25,1.8-2.92,1.2-.66,3.08-1.14,5.64-1.43,.02-.59-.05-1.16-.19-1.72-.14-.55-.41-1.01-.8-1.38-.39-.37-.97-.55-1.74-.55s-1.47,.15-2.11,.46c-.64,.3-1.16,.6-1.56,.89l-.48-.79c.27-.19,.62-.4,1.06-.64s.92-.43,1.48-.6c.55-.17,1.14-.25,1.76-.25,.91,0,1.63,.2,2.16,.6,.53,.4,.91,.93,1.14,1.6,.23,.66,.35,1.41,.35,2.24v7.37h-.91l-.1-1.49h-.07c-.59,.46-1.23,.88-1.92,1.24-.69,.36-1.41,.54-2.16,.54Zm.19-.91c.66,0,1.29-.16,1.91-.48,.62-.32,1.28-.78,2-1.39v-3.91c-1.58,.19-2.84,.44-3.77,.74-.93,.3-1.59,.68-1.99,1.14-.4,.46-.6,.99-.6,1.6,0,.83,.24,1.42,.73,1.78,.49,.35,1.06,.53,1.72,.53Z"/><path class="aa" d="M2297.81,170.9c-.54,0-1.12-.13-1.73-.4-.61-.26-1.18-.62-1.73-1.07h-.05l-.12,1.18h-.89v-17.26h1.06v4.99l-.05,2.26c.59-.5,1.23-.92,1.91-1.27,.68-.35,1.37-.53,2.08-.53,1.54,0,2.69,.53,3.46,1.6,.77,1.06,1.15,2.49,1.15,4.28,0,1.3-.24,2.41-.71,3.34s-1.09,1.64-1.86,2.14c-.77,.5-1.61,.74-2.52,.74Zm-.05-.94c.78,0,1.48-.22,2.08-.67,.6-.45,1.07-1.07,1.42-1.86,.34-.79,.52-1.71,.52-2.75,0-.94-.12-1.79-.36-2.53-.24-.74-.63-1.33-1.16-1.76-.54-.43-1.24-.65-2.12-.65-.58,0-1.18,.16-1.8,.49s-1.28,.8-1.97,1.4v6.84c.64,.54,1.26,.93,1.85,1.15,.59,.22,1.11,.34,1.56,.34Z"/><path class="aa" d="M2307.73,170.9c-.94,0-1.42-.61-1.42-1.82v-15.72h1.06v15.86c0,.5,.17,.74,.5,.74,.05,0,.1,0,.17-.01,.06,0,.15-.02,.26-.04l.19,.86c-.11,.03-.22,.06-.34,.08-.11,.02-.26,.04-.43,.04Z"/><path class="aa" d="M2316.37,170.9c-.98,0-1.87-.24-2.68-.72-.81-.48-1.45-1.17-1.93-2.08-.48-.9-.72-1.98-.72-3.23s.24-2.35,.72-3.25c.48-.9,1.1-1.6,1.87-2.09,.77-.49,1.58-.73,2.42-.73,1.38,0,2.46,.46,3.24,1.39s1.18,2.24,1.18,3.94c0,.14,0,.29-.01,.43,0,.14-.03,.29-.06,.43h-8.28c.02,.96,.2,1.82,.56,2.57,.36,.75,.86,1.34,1.51,1.78,.65,.43,1.4,.65,2.27,.65,.62,0,1.19-.1,1.69-.29,.5-.19,.97-.44,1.4-.74l.43,.82c-.45,.27-.95,.53-1.51,.77-.56,.24-1.26,.36-2.11,.36Zm-4.25-6.77h7.34c0-1.47-.3-2.58-.91-3.31s-1.43-1.1-2.47-1.1c-.66,0-1.27,.18-1.84,.53-.57,.35-1.04,.86-1.43,1.51-.38,.66-.62,1.45-.7,2.38Z"/></g><g><path class="aa" d="M2119.49,19.92V6.58h-4.54v-2.35h11.86v2.35h-4.54v13.34h-2.78Z"/><path class="aa" d="M2129.18,19.92V2.98h2.76V7.34l-.1,2.28c.5-.46,1.05-.88,1.66-1.24,.61-.36,1.31-.54,2.11-.54,1.26,0,2.18,.41,2.76,1.22,.58,.82,.86,1.97,.86,3.46v7.39h-2.76v-7.03c0-.98-.14-1.66-.43-2.06-.29-.4-.76-.6-1.42-.6-.51,0-.96,.12-1.36,.37-.39,.25-.84,.61-1.33,1.09v8.23h-2.76Z"/><path class="aa" d="M2146.08,20.21c-1.26,0-2.18-.41-2.76-1.22-.58-.82-.86-1.97-.86-3.46v-7.39h2.76v7.03c0,.98,.14,1.66,.43,2.06,.29,.4,.75,.6,1.39,.6,.51,0,.96-.13,1.36-.38,.39-.26,.81-.67,1.26-1.25V8.14h2.76v11.78h-2.26l-.22-1.73h-.07c-.51,.61-1.07,1.1-1.68,1.46-.61,.37-1.31,.55-2.11,.55Z"/><path class="aa" d="M2155.92,19.92V8.14h2.28l.19,1.61h.1c.5-.53,1.04-.98,1.62-1.34,.58-.37,1.24-.55,1.98-.55,.86,0,1.56,.19,2.08,.56,.52,.38,.92,.89,1.19,1.55,.56-.61,1.15-1.11,1.76-1.51,.62-.4,1.29-.6,2.03-.6,1.25,0,2.17,.41,2.76,1.22,.59,.82,.89,1.97,.89,3.46v7.39h-2.78v-7.03c0-.98-.15-1.66-.44-2.06-.3-.4-.75-.6-1.36-.6-.74,0-1.56,.49-2.47,1.46v8.23h-2.76v-7.03c0-.98-.15-1.66-.44-2.06-.3-.4-.76-.6-1.38-.6-.74,0-1.56,.49-2.47,1.46v8.23h-2.76Z"/><path class="aa" d="M2181.86,20.21c-1.12,0-2.19-.51-3.22-1.54h-.07l-.24,1.25h-2.18V2.98h2.76V7.34l-.07,1.97c.5-.43,1.04-.78,1.63-1.06,.59-.27,1.18-.41,1.78-.41,1.47,0,2.62,.54,3.43,1.63,.82,1.09,1.22,2.54,1.22,4.34,0,1.34-.24,2.49-.72,3.44-.48,.95-1.1,1.68-1.86,2.18s-1.58,.76-2.46,.76Zm-.58-2.28c.78,0,1.44-.34,1.97-1.03,.53-.69,.79-1.7,.79-3.02,0-1.18-.2-2.1-.6-2.76-.4-.66-1.05-.98-1.94-.98-.83,0-1.7,.44-2.59,1.32v5.5c.42,.35,.83,.6,1.24,.76s.79,.23,1.14,.23Z"/><path class="aa" d="M2193.67,19.92v-1.68l7.58-11.66h-6.89v-2.35h10.34v1.68l-7.61,11.66h7.66v2.35h-11.09Z"/><path class="aa" d="M2211.84,20.21c-.98,0-1.89-.24-2.74-.73-.85-.49-1.54-1.19-2.06-2.11-.53-.92-.79-2.03-.79-3.32s.26-2.43,.79-3.35c.53-.92,1.22-1.62,2.06-2.11,.85-.49,1.76-.73,2.74-.73s1.91,.24,2.76,.73c.85,.49,1.54,1.19,2.06,2.11,.53,.92,.79,2.04,.79,3.35s-.26,2.4-.79,3.32c-.53,.92-1.22,1.62-2.06,2.11-.85,.49-1.77,.73-2.76,.73Zm0-2.26c.86,0,1.54-.36,2.04-1.08,.5-.72,.74-1.66,.74-2.83s-.25-2.14-.74-2.86c-.5-.72-1.18-1.08-2.04-1.08s-1.54,.36-2.03,1.08c-.49,.72-.73,1.67-.73,2.86s.24,2.11,.73,2.83,1.16,1.08,2.03,1.08Z"/><path class="aa" d="M2220.19,19.92V8.14h2.28l.19,1.58h.1c.53-.51,1.1-.95,1.73-1.32s1.34-.55,2.14-.55c1.26,0,2.18,.41,2.76,1.22,.58,.82,.86,1.97,.86,3.46v7.39h-2.76v-7.03c0-.98-.14-1.66-.43-2.06-.29-.4-.76-.6-1.42-.6-.51,0-.96,.12-1.36,.37-.39,.25-.84,.61-1.33,1.09v8.23h-2.76Z"/><path class="aa" d="M2238.67,20.21c-1.09,0-2.07-.24-2.95-.73-.88-.49-1.58-1.19-2.09-2.11s-.77-2.03-.77-3.32,.26-2.38,.78-3.31c.52-.93,1.2-1.64,2.03-2.14,.83-.5,1.7-.74,2.62-.74,1.07,0,1.97,.24,2.69,.71,.72,.47,1.26,1.13,1.63,1.97s.55,1.81,.55,2.92c0,.58-.04,1.02-.12,1.34h-7.49c.13,1.04,.5,1.85,1.13,2.42s1.41,.86,2.35,.86c.51,0,.99-.08,1.43-.23,.44-.15,.88-.36,1.31-.64l.94,1.73c-.56,.37-1.18,.67-1.87,.91-.69,.24-1.41,.36-2.16,.36Zm-3.14-7.3h5.23c0-.91-.2-1.63-.6-2.15-.4-.52-1-.78-1.8-.78-.69,0-1.3,.25-1.84,.76s-.87,1.23-1,2.17Z"/></g><rect class="o" x="1631.02" y="2.98" width="390.52" height="850.56"/><g><rect class="w" x="2114.33" y="147.72" width="33.74" height="33.74"/><rect class="v" x="2114.33" y="102.43" width="33.74" height="33.74"/><rect class="u" x="2114.33" y="57.14" width="33.74" height="33.74"/></g><g><rect class="w" x="2114.33" y="147.72" width="33.74" height="33.74"/><rect class="v" x="2114.33" y="102.43" width="33.74" height="33.74"/><rect class="u" x="2114.33" y="57.14" width="33.74" height="33.74"/></g><rect class="s" y="495.55" width="2646.04" height="233.66"/><rect class="o" x="970.86" y="2.98" width="390.52" height="850.56"/><line class="k" x1="986.36" y1="2.98" x2="986.36" y2="853.53"/><line class="k" x1="1064.48" y1="2.98" x2="1064.48" y2="853.53"/><line class="k" x1="1079.98" y1="2.98" x2="1079.98" y2="853.53"/><line class="k" x1="1158.36" y1="2.98" x2="1158.36" y2="853.53"/><line class="k" x1="1173.87" y1="2.98" x2="1173.87" y2="853.53"/><line class="k" x1="1251.86" y1="2.98" x2="1251.86" y2="853.53"/><line class="k" x1="1267.36" y1="2.98" x2="1267.36" y2="853.53"/><line class="k" x1="1345.35" y1="2.98" x2="1345.35" y2="853.53"/><line class="k" x1="1648.68" y1="2.98" x2="1648.68" y2="853.53"/><line class="k" x1="1726.8" y1="2.98" x2="1726.8" y2="853.53"/><line class="k" x1="1742.31" y1="2.98" x2="1742.31" y2="853.53"/><line class="k" x1="1820.68" y1="2.98" x2="1820.68" y2="853.53"/><line class="k" x1="1836.19" y1="2.98" x2="1836.19" y2="853.53"/><line class="k" x1="1914.18" y1="2.98" x2="1914.18" y2="853.53"/><line class="k" x1="1929.68" y1="2.98" x2="1929.68" y2="853.53"/><line class="k" x1="2007.67" y1="2.98" x2="2007.67" y2="853.53"/><path class="l" d="M2133.04,610.12c-9.7,4.2-21.71,8.03-35.72,9.62-3.08,.35-15.05,.57-17.92,.69"/><path class="l" d="M2058,1213.08c-28.36-37.6,1.38,2.45-16.67-22.47-59.67-82.41-21.03-33.47-71.1-105.11-14.38-20.57-36.15-51.2-39.16-79.35-.31-2.92-.81-9.5-4.12-17.52-6.14-14.89-14.14-15.84-28.85-32.97-11.41-13.28-11.48-18.38-26.79-35.04-7.72-8.4-18.14-16.76-28.85-15.46"/><path class="l" d="M1842.45,905.17c-8.31,1.18-20.62-.48-35.37-4.53-16.71-4.59-19.59-8.34-34.7-10.93-16.27-2.79-17.36,1.45-37.88,.09-14.05-.93-16.32-1.97-34.25-5.24-25.33-4.63-28.43-1.13-54.4-5.01-17.53-2.62-40.88-3.51-57.23-12.5-5.12-2.82-18.35-13.16-19.44-31.28-.19-3.11-.94-12.65,6.99-22.64,8.63-10.88,36.97-15.18,54.85-15.05"/><path class="l" d="M2021.75,455.89c6.94,2.34,17.5,6.78,27.82,15.46,15.94,13.4,17.4,25.22,35.04,50.49,12.67,18.16,19,27.24,29.88,35.04,21.62,15.5,36.68,19.31,54.61,35.04,4.98,4.37,9.71,1.51,19.58,22.67,14.71,31.54,18.53,52.88,32.97,111.29,9.66,39.06,10.98,41.74,14.43,59.77,3.55,18.56,7.11,41.59,9.27,68.01,2.65,32.31,1.4,47.37,2.06,63.89,1.76,44.11,16.25,76.51,35.04,118.5,15.33,34.26,25.23,44.86,35.22,63.69"/><path class="l" d="M2058,1213.08c11.16,14.07,24.37,16.24,43.95,18.48,14.77,1.7,26.49-.41,47.94-5.99,44.22-11.5,66.33-17.25,85.89-27.97,19.29-10.56,43.21-24.02,61.92-51.93,11.79-17.59,22.92-40.35,19.98-45.94"/><path class="l" d="M1630.31,477.98c-11.43,.26-24.49-2.56-41.53,4.22-4.97,1.98-11.68,8.13-14.99,16.25-5.64,13.85,1.26,27.35,10.44,37.67,17.46,19.61,26.82,15.94,46.79,16.03"/><path class="l" d="M1631.02,614.58c-12.72-.1-18.06,1.14-25.47,4.55-4.86,2.24-10.1,5.9-13.67,11.81-7.73,12.8-1.92,32.76,8.52,41.81,10.38,9,10.52,9.48,30.63,11.52"/><g><path class="aa" d="M2406.33,341.71l5.57-15.82h1.11l5.57,15.82h-1.15l-1.85-5.42h-6.26l-1.87,5.42h-1.1Zm4.32-9.31l-1.01,2.95h5.62l-1.01-2.95c-.32-.94-.62-1.85-.91-2.71-.29-.86-.57-1.78-.84-2.76h-.1c-.27,.98-.55,1.9-.84,2.76-.29,.86-.59,1.77-.91,2.71Z"/><path class="aa" d="M2425.24,342c-.99,0-1.88-.24-2.68-.71-.79-.47-1.42-1.16-1.87-2.06-.46-.9-.68-1.99-.68-3.25s.24-2.4,.73-3.3c.49-.9,1.13-1.59,1.93-2.06,.8-.47,1.66-.71,2.59-.71,.8,0,1.46,.14,1.99,.43,.53,.29,.99,.62,1.39,.98l-.62,.74c-.37-.35-.78-.64-1.22-.88s-.95-.35-1.51-.35c-.78,0-1.49,.22-2.12,.65-.63,.43-1.13,1.03-1.5,1.8-.37,.77-.55,1.66-.55,2.69s.17,1.89,.52,2.65,.83,1.36,1.46,1.79c.63,.43,1.36,.65,2.2,.65,.61,0,1.17-.13,1.69-.4,.52-.26,.98-.57,1.38-.92l.55,.74c-.5,.43-1.05,.79-1.66,1.08-.61,.29-1.28,.43-2.02,.43Z"/><path class="aa" d="M2434.65,342c-1.12,0-1.88-.32-2.28-.97-.4-.65-.6-1.48-.6-2.51v-7.42h-1.8v-.82l1.82-.1,.14-3.34h.91v3.34h3.34v.91h-3.34v7.51c0,.74,.13,1.33,.38,1.78s.78,.67,1.56,.67c.22,0,.47-.04,.73-.11,.27-.07,.5-.16,.71-.25l.29,.86c-.34,.11-.68,.21-1.02,.3s-.63,.13-.85,.13Z"/><path class="aa" d="M2439.54,327.41c-.26,0-.47-.09-.65-.26s-.26-.42-.26-.72c0-.27,.09-.5,.26-.67,.18-.18,.39-.26,.65-.26,.27,0,.49,.09,.66,.26,.17,.18,.25,.4,.25,.67,0,.3-.08,.54-.25,.72s-.39,.26-.66,.26Zm-.55,14.3v-11.52h1.06v11.52h-1.06Z"/><path class="aa" d="M2448.69,342c-.91,0-1.76-.24-2.54-.71-.78-.47-1.42-1.16-1.9-2.06-.48-.9-.72-1.99-.72-3.25s.24-2.4,.72-3.3c.48-.9,1.11-1.59,1.9-2.06s1.63-.71,2.54-.71,1.78,.24,2.57,.71c.79,.47,1.42,1.16,1.9,2.06,.48,.9,.72,2,.72,3.3s-.24,2.35-.72,3.25-1.11,1.59-1.9,2.06c-.78,.47-1.64,.71-2.57,.71Zm0-.94c.78,0,1.48-.22,2.09-.65,.61-.43,1.09-1.03,1.45-1.79s.54-1.64,.54-2.65-.18-1.92-.54-2.69c-.36-.77-.84-1.37-1.45-1.8-.61-.43-1.3-.65-2.09-.65s-1.46,.22-2.08,.65c-.62,.43-1.1,1.03-1.45,1.8-.35,.77-.53,1.66-.53,2.69s.18,1.89,.53,2.65,.84,1.36,1.45,1.79c.62,.43,1.31,.65,2.08,.65Z"/><path class="aa" d="M2457.33,341.71v-11.52h.91l.1,1.78h.07c.59-.59,1.21-1.08,1.84-1.48,.63-.39,1.34-.59,2.12-.59,1.18,0,2.06,.36,2.63,1.09,.57,.73,.85,1.84,.85,3.32v7.39h-1.05v-7.25c0-1.23-.21-2.14-.61-2.72-.41-.58-1.08-.88-2.03-.88-.69,0-1.31,.18-1.87,.54-.56,.36-1.19,.9-1.9,1.62v8.69h-1.06Z"/></g><g><path class="aa" d="M2411.46,276.59l-5.23-15.82h1.18l2.93,9.24c.3,.96,.58,1.84,.83,2.65,.25,.81,.53,1.69,.85,2.65h.1c.32-.96,.6-1.84,.84-2.65s.51-1.69,.82-2.65l2.93-9.24h1.13l-5.19,15.82h-1.18Z"/><path class="aa" d="M2420.68,262.29c-.26,0-.47-.09-.65-.26s-.26-.42-.26-.72c0-.27,.09-.5,.26-.67s.39-.26,.65-.26c.27,0,.49,.09,.66,.26s.25,.4,.25,.67c0,.3-.08,.54-.25,.72s-.39,.26-.66,.26Zm-.55,14.3v-11.52h1.06v11.52h-1.06Z"/><path class="aa" d="M2428.41,276.88c-.85,0-1.64-.16-2.37-.47-.73-.31-1.35-.68-1.86-1.12l.62-.79c.5,.4,1.03,.74,1.58,1.03,.56,.29,1.26,.43,2.09,.43,.89,0,1.57-.23,2.04-.68,.46-.46,.7-.99,.7-1.6,0-.48-.14-.88-.43-1.2-.29-.32-.64-.58-1.07-.79-.42-.21-.86-.39-1.31-.55-.58-.21-1.14-.44-1.69-.7-.55-.26-1-.59-1.36-1s-.53-.94-.53-1.6c0-.85,.31-1.57,.95-2.17,.63-.6,1.55-.9,2.75-.9,.62,0,1.23,.11,1.81,.34s1.08,.51,1.5,.86l-.58,.74c-.4-.29-.82-.53-1.25-.73-.43-.2-.94-.3-1.51-.3-.9,0-1.56,.21-1.98,.65s-.64,.91-.64,1.44c0,.43,.12,.79,.37,1.08,.25,.29,.58,.52,.98,.71,.41,.18,.84,.37,1.28,.54,.61,.22,1.2,.46,1.78,.72s1.05,.6,1.43,1.03c.38,.43,.56,1.02,.56,1.78,0,.58-.15,1.11-.46,1.6-.3,.49-.74,.88-1.32,1.19s-1.28,.46-2.11,.46Z"/><path class="aa" d="M2438.65,276.88c-1.18,0-2.06-.36-2.63-1.09s-.85-1.84-.85-3.32v-7.39h1.05v7.25c0,1.22,.21,2.12,.61,2.71s1.08,.89,2,.89c.69,0,1.31-.19,1.87-.56,.56-.38,1.18-.97,1.85-1.79v-8.5h1.06v11.52h-.89l-.12-1.92h-.05c-.56,.66-1.15,1.19-1.78,1.6-.62,.41-1.34,.61-2.14,.61Z"/><path class="aa" d="M2450.56,276.88c-.91,0-1.7-.26-2.35-.77s-.98-1.31-.98-2.4c0-1.28,.6-2.25,1.8-2.92,1.2-.66,3.08-1.14,5.64-1.43,.02-.59-.05-1.16-.19-1.72-.14-.55-.41-1.01-.8-1.38-.39-.37-.97-.55-1.74-.55s-1.47,.15-2.11,.46-1.16,.6-1.56,.89l-.48-.79c.27-.19,.62-.4,1.05-.64s.92-.43,1.48-.6,1.14-.25,1.76-.25c.91,0,1.63,.2,2.16,.6s.91,.93,1.14,1.6c.23,.66,.35,1.41,.35,2.24v7.37h-.91l-.1-1.49h-.07c-.59,.46-1.23,.88-1.92,1.24s-1.41,.54-2.16,.54Zm.19-.91c.66,0,1.29-.16,1.91-.48,.62-.32,1.29-.78,2-1.39v-3.91c-1.58,.19-2.84,.44-3.77,.74s-1.59,.68-1.99,1.14c-.4,.46-.6,.99-.6,1.6,0,.83,.24,1.42,.73,1.78,.49,.35,1.06,.53,1.71,.53Z"/><path class="aa" d="M2461.24,276.88c-.94,0-1.42-.61-1.42-1.82v-15.72h1.06v15.86c0,.5,.17,.74,.5,.74,.05,0,.1,0,.17-.01,.06,0,.15-.02,.26-.04l.19,.86c-.11,.03-.22,.06-.34,.08-.11,.02-.26,.04-.43,.04Z"/><path class="aa" d="M2474.58,276.88c-.99,0-1.88-.24-2.68-.71-.79-.47-1.42-1.16-1.87-2.06-.46-.9-.68-1.99-.68-3.25s.24-2.4,.73-3.3c.49-.9,1.13-1.59,1.93-2.06,.8-.47,1.66-.71,2.59-.71,.8,0,1.46,.14,1.99,.43,.53,.29,.99,.62,1.39,.98l-.62,.74c-.37-.35-.78-.64-1.22-.88-.45-.23-.95-.35-1.51-.35-.78,0-1.49,.22-2.12,.65-.63,.43-1.13,1.03-1.5,1.8-.37,.77-.55,1.66-.55,2.69s.17,1.89,.52,2.65c.34,.76,.83,1.36,1.46,1.79,.63,.43,1.36,.65,2.2,.65,.61,0,1.17-.13,1.69-.4,.52-.26,.98-.57,1.38-.92l.55,.74c-.5,.43-1.05,.79-1.66,1.08-.61,.29-1.28,.43-2.02,.43Z"/><path class="aa" d="M2484.88,276.88c-.91,0-1.76-.24-2.54-.71s-1.42-1.16-1.9-2.06c-.48-.9-.72-1.99-.72-3.25s.24-2.4,.72-3.3c.48-.9,1.11-1.59,1.9-2.06,.78-.47,1.63-.71,2.54-.71s1.78,.24,2.57,.71c.79,.47,1.42,1.16,1.9,2.06s.72,2,.72,3.3-.24,2.35-.72,3.25c-.48,.9-1.11,1.59-1.9,2.06-.78,.47-1.64,.71-2.57,.71Zm0-.94c.78,0,1.48-.22,2.09-.65,.61-.43,1.09-1.03,1.45-1.79,.36-.76,.54-1.64,.54-2.65s-.18-1.92-.54-2.69-.84-1.37-1.45-1.8c-.61-.43-1.3-.65-2.09-.65s-1.46,.22-2.08,.65c-.62,.43-1.1,1.03-1.45,1.8s-.53,1.66-.53,2.69,.18,1.89,.53,2.65c.35,.76,.84,1.36,1.45,1.79,.62,.43,1.31,.65,2.08,.65Z"/><path class="aa" d="M2493.52,276.59v-11.52h.91l.1,1.78h.07c.59-.59,1.21-1.08,1.84-1.48,.63-.39,1.34-.59,2.12-.59,1.18,0,2.06,.36,2.63,1.09s.85,1.84,.85,3.32v7.39h-1.05v-7.25c0-1.23-.21-2.14-.61-2.72-.41-.58-1.08-.88-2.03-.88-.69,0-1.31,.18-1.87,.54-.56,.36-1.19,.9-1.9,1.62v8.69h-1.06Z"/><path class="aa" d="M2506.29,276.59v-11.52h.91l.1,1.78h.07c.59-.59,1.21-1.08,1.84-1.48,.63-.39,1.34-.59,2.12-.59,1.18,0,2.06,.36,2.63,1.09s.85,1.84,.85,3.32v7.39h-1.05v-7.25c0-1.23-.21-2.14-.61-2.72-.41-.58-1.08-.88-2.03-.88-.69,0-1.31,.18-1.87,.54-.56,.36-1.19,.9-1.9,1.62v8.69h-1.06Z"/><path class="aa" d="M2523.42,276.88c-.98,0-1.87-.24-2.68-.72-.81-.48-1.45-1.17-1.93-2.08-.48-.9-.72-1.98-.72-3.23s.24-2.35,.72-3.25c.48-.9,1.11-1.6,1.87-2.09,.77-.49,1.58-.73,2.42-.73,1.38,0,2.46,.46,3.24,1.39,.78,.93,1.18,2.24,1.18,3.94,0,.14,0,.29-.01,.43s-.03,.29-.06,.43h-8.28c.02,.96,.2,1.82,.56,2.57,.36,.75,.87,1.34,1.51,1.78,.65,.43,1.4,.65,2.27,.65,.62,0,1.19-.1,1.69-.29s.97-.44,1.4-.74l.43,.82c-.45,.27-.95,.53-1.51,.77-.56,.24-1.26,.36-2.11,.36Zm-4.25-6.77h7.34c0-1.47-.3-2.58-.91-3.31-.61-.74-1.43-1.1-2.47-1.1-.66,0-1.27,.18-1.84,.53s-1.04,.86-1.43,1.51c-.38,.66-.62,1.45-.7,2.38Z"/><path class="aa" d="M2534.92,276.88c-.99,0-1.88-.24-2.68-.71-.79-.47-1.42-1.16-1.87-2.06-.46-.9-.68-1.99-.68-3.25s.24-2.4,.73-3.3c.49-.9,1.13-1.59,1.93-2.06,.8-.47,1.66-.71,2.59-.71,.8,0,1.46,.14,1.99,.43,.53,.29,.99,.62,1.39,.98l-.62,.74c-.37-.35-.78-.64-1.22-.88-.45-.23-.95-.35-1.51-.35-.78,0-1.49,.22-2.12,.65-.63,.43-1.13,1.03-1.5,1.8-.37,.77-.55,1.66-.55,2.69s.17,1.89,.52,2.65c.34,.76,.83,1.36,1.46,1.79,.63,.43,1.36,.65,2.2,.65,.61,0,1.17-.13,1.69-.4,.52-.26,.98-.57,1.38-.92l.55,.74c-.5,.43-1.05,.79-1.66,1.08-.61,.29-1.28,.43-2.02,.43Z"/><path class="aa" d="M2544.32,276.88c-1.12,0-1.88-.32-2.28-.97-.4-.65-.6-1.48-.6-2.51v-7.42h-1.8v-.82l1.82-.1,.14-3.34h.91v3.34h3.34v.91h-3.34v7.51c0,.74,.13,1.33,.38,1.78,.26,.45,.78,.67,1.56,.67,.22,0,.47-.04,.73-.11,.26-.07,.5-.16,.71-.25l.29,.86c-.34,.11-.68,.21-1.02,.3-.35,.09-.63,.13-.85,.13Z"/><path class="aa" d="M2549.22,262.29c-.26,0-.47-.09-.65-.26-.18-.18-.27-.42-.27-.72,0-.27,.09-.5,.27-.67,.18-.18,.39-.26,.65-.26,.27,0,.49,.09,.66,.26s.25,.4,.25,.67c0,.3-.08,.54-.25,.72s-.39,.26-.66,.26Zm-.55,14.3v-11.52h1.05v11.52h-1.05Z"/><path class="aa" d="M2556.57,276.59l-4.32-11.52h1.15l2.59,7.22c.18,.54,.37,1.1,.58,1.67,.21,.57,.4,1.12,.57,1.64h.1c.19-.53,.39-1.08,.59-1.64,.2-.57,.39-1.12,.59-1.67l2.59-7.22h1.08l-4.27,11.52h-1.25Z"/><path class="aa" d="M2565.13,262.29c-.26,0-.47-.09-.65-.26-.18-.18-.27-.42-.27-.72,0-.27,.09-.5,.27-.67,.18-.18,.39-.26,.65-.26,.27,0,.49,.09,.66,.26s.25,.4,.25,.67c0,.3-.08,.54-.25,.72s-.39,.26-.66,.26Zm-.55,14.3v-11.52h1.05v11.52h-1.05Z"/><path class="aa" d="M2573.22,276.88c-1.12,0-1.88-.32-2.28-.97-.4-.65-.6-1.48-.6-2.51v-7.42h-1.8v-.82l1.82-.1,.14-3.34h.91v3.34h3.34v.91h-3.34v7.51c0,.74,.13,1.33,.38,1.78,.26,.45,.78,.67,1.56,.67,.22,0,.47-.04,.73-.11,.26-.07,.5-.16,.71-.25l.29,.86c-.34,.11-.68,.21-1.02,.3-.35,.09-.63,.13-.85,.13Z"/><path class="aa" d="M2577.11,281.85c-.43,0-.82-.08-1.18-.24l.24-.94c.13,.05,.28,.09,.44,.13s.33,.06,.49,.06c.71,0,1.3-.29,1.79-.86,.49-.58,.88-1.3,1.16-2.18l.31-1.01-4.73-11.74h1.15l2.78,7.25c.18,.48,.38,1.01,.6,1.58s.44,1.12,.65,1.63h.1c.18-.51,.36-1.06,.54-1.63,.18-.58,.36-1.1,.52-1.58l2.47-7.25h1.08l-4.56,12.96c-.21,.64-.48,1.25-.83,1.84-.35,.58-.77,1.06-1.26,1.43-.5,.37-1.09,.55-1.78,.55Z"/></g><g><path class="m" d="M1715.83,658.28c-1.74-8.37-2.66-17.04-2.66-25.93,0-51.83,31.16-96.39,75.76-115.97"/><path class="aa" d="M1728.86,627.48c-1.03-.38-2.19,.15-2.57,1.18l-10.6,28.7-21.53-21.75c-.78-.78-2.05-.79-2.83-.01-.78,.78-.78,2.05-.02,2.83l23.74,23.98c.48,.49,1.18,.69,1.85,.55,.67-.14,1.22-.62,1.45-1.26l11.69-31.65c.14-.37,.16-.76,.08-1.11-.14-.65-.6-1.21-1.26-1.46Z"/><path class="aa" d="M1771.63,545.01c-.92-.61-1.16-1.86-.55-2.78l17.05-25.41-30.24-4.7c-1.09-.17-1.84-1.19-1.67-2.28,.17-1.09,1.2-1.84,2.28-1.67l33.34,5.19c.67,.11,1.25,.55,1.52,1.17s.21,1.35-.17,1.92l-18.8,28.02c-.22,.33-.52,.57-.86,.72-.6,.26-1.33,.22-1.92-.17Z"/></g></g><g id="b"><line class="i" x1="2021.75" y1="339.54" x2="2383.73" y2="339.54"/><line class="j" x1="2021.75" y1="270.57" x2="2383.73" y2="270.57"/><rect class="f" x="1631.02" y="340.13" width="390.72" height="482.25"/><rect class="h" x="1631.02" y="2.98" width="390.52" height="390.52"/></g><g id="e"><path class="n" d="M2116.55,662.33c-6.76-6.47-16.64-16.44-27.48-29.54,0,0-3.07-3.72-6.05-7.55-16.3-20.94-34.61-53.55-40.66-63.89-22.68-38.75-39.76-68.31-68.01-74.19-4.59-.96-14.97-2.24-35.72-4.81-25.77-3.19-27.06-2.74-32.98-4.81-16.65-5.83-16.27-12.82-37.1-22.67-11.52-5.45-20.5-9.56-32.29-8.24-2.92,.32-17.82,1.98-26.79,13.74-9.77,12.79-6.23,29.29-4.12,39.16,4.76,22.25,17.3,36.29,30.91,51.52,19.69,22.04,40.39,35.02,51.52,41.9,14.2,8.77,13.2,6.29,20.61,11.68,31.19,22.67,39.33,59.55,41.22,68.7,4.32,20.97-.33,25.73,0,54.96,.33,29.69,5.43,50.54,13.05,81.75,13,53.23,21.33,87.31,45.34,123.65,13.22,20.01,38.82,52.25,85.18,79.69"/><path class="l" d="M1907.02,488.52c-7.74,5.78-14.9,9.08-19.92,10.99-11.13,4.23-19.97,4.76-32.29,5.5-10.44,.62-15.76,.89-20.61-1.37-9.58-4.47-13.91-13.87-15.11-16.49-2.83-6.15-3.37-11.76-3.43-15.11"/></g></svg>