<?xml version="1.0" encoding="UTF-8"?><svg xmlns="http://www.w3.org/2000/svg" viewBox="0 0 510.3 510.3"><g id="a"><ellipse cx="255.15" cy="127.6" rx="38.8" ry="127.55" fill="none" stroke="#231f20" stroke-miterlimit="10" stroke-width=".1"/><ellipse cx="255.15" cy="382.7" rx="38.8" ry="127.55" fill="none" stroke="#231f20" stroke-miterlimit="10" stroke-width=".1"/><ellipse cx="345.34" cy="345.34" rx="38.8" ry="127.55" transform="translate(-143.05 345.34) rotate(-45)" fill="none" stroke="#231f20" stroke-miterlimit="10" stroke-width=".1"/><ellipse cx="382.7" cy="255.15" rx="127.55" ry="38.8" fill="none" stroke="#231f20" stroke-miterlimit="10" stroke-width=".1"/><ellipse cx="127.6" cy="255.15" rx="127.55" ry="38.8" fill="none" stroke="#231f20" stroke-miterlimit="10" stroke-width=".1"/><ellipse cx="164.96" cy="345.34" rx="127.55" ry="38.8" transform="translate(-195.88 217.79) rotate(-45)" fill="none" stroke="#231f20" stroke-miterlimit="10" stroke-width=".1"/><ellipse cx="164.96" cy="164.96" rx="38.8" ry="127.55" transform="translate(-68.33 164.96) rotate(-45)" fill="none" stroke="#231f20" stroke-miterlimit="10" stroke-width=".1"/><ellipse cx="345.34" cy="164.96" rx="127.55" ry="38.8" transform="translate(-15.5 292.51) rotate(-45)" fill="none" stroke="#231f20" stroke-miterlimit="10" stroke-width=".1"/></g><g id="b"><circle cx="255.15" cy="161.03" r=".57" fill="#231f20"/><circle cx="167.28" cy="161.03" r=".57" fill="#231f20"/><circle cx="255.15" cy="125.59" r=".57" fill="#231f20"/><circle cx="255.15" cy="83.84" r=".57" fill="#231f20"/><circle cx="255.15" cy="42.08" r=".57" fill="#231f20"/><circle cx="346.76" cy="255.15" r=".57" fill="#231f20"/><circle cx="384.71" cy="255.15" r=".57" fill="#231f20"/><circle cx="426.39" cy="255.15" r=".57" fill="#231f20"/><circle cx="468.08" cy="255.15" r=".57" fill="#231f20"/><circle cx="167.28" cy="254.51" r=".57" fill="#231f20"/><circle cx="125.59" cy="254.51" r=".57" fill="#231f20"/><circle cx="83.91" cy="254.51" r=".57" fill="#231f20"/><circle cx="42.22" cy="254.51" r=".57" fill="#231f20"/><circle cx="255.15" cy="346.31" r=".57" fill="#231f20"/><circle cx="346.76" cy="346.31" r=".57" fill="#231f20"/><circle cx="255.15" cy="384.71" r=".57" fill="#231f20"/><circle cx="255.15" cy="426.46" r=".57" fill="#231f20"/><circle cx="255.15" cy="468.22" r=".57" fill="#231f20"/><circle cx="346.76" cy="163.54" r=".57" fill="#231f20"/><circle cx="167.28" cy="346.31" r=".57" fill="#231f20"/><line x1="255.15" y1="253.02" x2="255.15" y2="257.28" fill="none" stroke="#231f20" stroke-miterlimit="10" stroke-width=".5"/><line x1="253.02" y1="255.15" x2="257.28" y2="255.15" fill="none" stroke="#231f20" stroke-miterlimit="10" stroke-width=".5"/></g></svg>