<?xml version="1.0" encoding="UTF-8"?><svg xmlns="http://www.w3.org/2000/svg" viewBox="0 0 312.39 101.71"><defs><style>.c{fill:#f15640;}.d{fill:#f0efef;stroke:#8dd1c5;stroke-miterlimit:10;stroke-width:.1px;}.e{fill:#ffd15d;}.f{fill:#8bd7f8;}.g{fill:#f3705b;}.h{fill:none;}.i{fill:#fff;stroke:#010101;stroke-linecap:round;stroke-linejoin:round;stroke-width:.5px;}.j{fill:#f3f3f3;}</style></defs><g id="a"><circle class="d" cx="127.53" cy="19.21" r="19.16"/><circle class="d" cx="184.45" cy="19.21" r="19.16"/><circle class="d" cx="127.53" cy="76.63" r="19.16"/><g><path class="g" d="M184.86,57.47c-10.62,0-19.16,8.54-19.16,19.16s8.54,19.16,19.16,19.16,19.16-8.54,19.16-19.16-8.54-19.16-19.16-19.16Zm0,27.62c-4.63,0-8.46-3.75-8.46-8.46s3.75-8.46,8.46-8.46,8.46,3.75,8.46,8.46-3.83,8.46-8.46,8.46Z"/><path class="c" d="M199.23,70.64c-.88-2-.48-4.95-2-6.47s-4.39-1.12-6.39-1.92c-1.92-.8-3.75-3.19-5.99-3.19s-3.99,2.4-5.99,3.19-4.87,.4-6.47,1.92c-1.52,1.6-1.12,4.47-1.92,6.47-.8,1.92-3.19,3.75-3.19,5.99s2.4,3.99,3.19,5.99c.88,2,.48,4.95,2,6.47s4.47,1.12,6.47,2c1.92,.8,3.75,3.19,5.99,3.19s3.99-2.4,5.99-3.19c2-.88,4.95-.48,6.47-2s1.12-4.47,2-6.47c.8-1.92,3.19-3.75,3.19-5.99s-2.55-3.99-3.35-5.99Zm-14.37,16.13c-5.59,0-10.14-4.55-10.14-10.14s4.55-10.14,10.14-10.14,10.14,4.55,10.14,10.14-4.55,10.14-10.14,10.14Z"/><g><path class="j" d="M172.33,75.11h-3.19c-.32,0-.64-.32-.64-.64s.24-.64,.64-.64h3.19c.32,0,.64,.32,.64,.64-.08,.4-.32,.64-.64,.64Z"/><path class="j" d="M178.47,65.61c-.24,0-.4-.16-.56-.32l-1.44-2.87c-.16-.32,0-.64,.24-.8,.32-.16,.64,0,.8,.24l1.44,2.87c.24,.24,.16,.88-.48,.88Z"/></g><g><path class="e" d="M194.36,63.46h0l-3.27-.16c-.32,0-.56-.32-.56-.64s.32-.56,.64-.56l3.19,.16c.32,0,.56,.32,.56,.64,0,.32-.24,.56-.56,.56Z"/><path class="e" d="M194.04,85.81c-.32-.16-.48-.48-.32-.8l1.28-2.95c.16-.32,.48-.48,.8-.32,.32,.16,.48,.48,.32,.8l-1.28,2.95c-.08,.24-.4,.48-.8,.32Z"/></g><path class="j" d="M180.55,93.79c-.24-.24-.24-.64,0-.88l2.24-2.24c.24-.24,.64-.24,.88,0,.24,.24,.24,.64,0,.88l-2.24,2.24c-.16,.16-.64,.24-.88,0Z"/><g><path class="f" d="M197.15,71.92l-1.6-2.79c-.16-.32-.08-.64,.24-.8s.64-.08,.8,.24l1.6,2.79c.16,.32,.08,.64-.24,.8-.24,.16-.64,.08-.8-.24Z"/><path class="f" d="M173.92,86.37l-1.6-2.79c-.16-.32-.08-.64,.24-.8s.64-.08,.8,.24l1.6,2.79c.16,.32,.08,.64-.24,.8-.24,.16-.64-.08-.8-.24Z"/></g><circle class="g" cx="192.2" cy="88.37" r="1.04"/><circle class="j" cx="201.39" cy="81.1" r="1.04"/><circle class="e" cx="169.61" cy="82.22" r="1.04"/><circle class="g" cx="185.1" cy="64.65" r="1.04"/><circle class="f" cx="171.21" cy="67.13" r="1.04"/></g><polygon class="i" points="202.37 95.29 194.17 87.09 194.17 98.29 196.73 95.82 199.1 101.46 200.94 100.68 198.68 95.29 202.37 95.29"/><rect class="h" y="10.66" width="312.39" height="80.19"/></g><g id="b"/></svg>