<?xml version="1.0" encoding="UTF-8"?><svg id="a" xmlns="http://www.w3.org/2000/svg" viewBox="0 0 2229.36 2200.89"><rect x="338.23" y="1524.4" width="218.04" height="844" transform="translate(-1499.14 2393.65) rotate(-90)" fill="#662d91" opacity=".1"/><rect x="25.25" y="1177.96" width="844" height="44" transform="translate(894.5 2399.92) rotate(180)" fill="#d7df23" opacity=".5"/><rect x="25.25" y="1497.96" width="844" height="70" transform="translate(894.5 3065.92) rotate(180)" fill="#d7df23" opacity=".5"/><rect x="25.25" y="1665.42" width="844" height="44" transform="translate(894.5 3374.83) rotate(180)" fill="#d7df23" opacity=".2"/><rect x="25.25" y="1985.42" width="844" height="70" transform="translate(894.5 4040.83) rotate(180)" fill="#d7df23" opacity=".2"/><path d="M372.24,25.25c23.75,0,43.01,19.26,43.01,43.01V826.24c0,23.75-19.26,43.01-43.01,43.01H68.26c-23.75,0-43.01-19.26-43.01-43.01V68.26c0-23.75,19.26-43.01,43.01-43.01H372.24m0-25H68.26C30.76,.25,.25,30.76,.25,68.26V826.24c0,37.5,30.51,68.01,68.01,68.01H372.24c37.5,0,68.01-30.51,68.01-68.01V68.26C440.25,30.76,409.74,.25,372.24,.25h0Z" fill="#fff" stroke="#231f20" stroke-miterlimit="10" stroke-width=".5"/><rect x="25.25" y="25.25" width="390" height="844" fill="none" stroke="#ed1c24" stroke-miterlimit="10"/><rect x="572.46" y="25.25" width="390" height="47" fill="#d7df23"/><rect x="572.46" y="835.25" width="390" height="34" fill="#d7df23"/><rect x="572.46" y="25.25" width="390" height="844" fill="none" stroke="#ed1c24" stroke-miterlimit="10"/><rect x="572.46" y="536.25" width="390" height="333" fill="#662d91" opacity=".1"/><rect x="572.46" y="25.25" width="390" height="844" rx="43.01" ry="43.01" fill="none" stroke="#231f20" stroke-linejoin="round" stroke-width=".25"/><rect x="1157.84" y="25.25" width="390" height="47" fill="#d7df23"/><rect x="1157.84" y="25.25" width="390" height="143" fill="#d7df23" opacity=".2"/><rect x="1157.84" y="835.25" width="390" height="34" fill="#d7df23"/><rect x="1157.84" y="25.25" width="390" height="844" fill="none" stroke="#ed1c24" stroke-miterlimit="10"/><rect x="1157.34" y="25.25" width="16" height="844" fill="#ed1c24" opacity=".1"/><rect x="1532.34" y="25.25" width="16" height="844" fill="#ed1c24" opacity=".1"/><rect x="1157.84" y="25.25" width="390" height="844" rx="43.01" ry="43.01" fill="none" stroke="#231f20" stroke-linejoin="round" stroke-width=".25"/><rect x="713.44" y="36.01" width="108.04" height="29.29" rx="14.65" ry="14.65" fill="#fff" stroke="#231f20" stroke-miterlimit="10" stroke-width=".5"/><rect x="1298.82" y="36.01" width="108.04" height="29.29" rx="14.65" ry="14.65" fill="#fff" stroke="#231f20" stroke-miterlimit="10" stroke-width=".5"/><rect x="166.23" y="36.01" width="108.04" height="29.29" rx="14.65" ry="14.65" fill="#fff" stroke="#231f20" stroke-miterlimit="10" stroke-width=".5"/><rect x="148" y="857.4" width="144.51" height="4.71" rx="2.35" ry="2.35" fill="#fff" stroke="#231f20" stroke-miterlimit="10" stroke-width=".5"/><rect x="695.21" y="857.4" width="144.51" height="4.71" rx="2.35" ry="2.35" fill="#fff" stroke="#231f20" stroke-miterlimit="10" stroke-width=".5"/><rect x="252.25" y="950.96" width="390" height="844" transform="translate(-925.71 1820.21) rotate(-90)" fill="none" stroke="#ed1c24" stroke-miterlimit="10"/><rect x="252.25" y="950.96" width="390" height="844" rx="43.01" ry="43.01" transform="translate(-925.71 1820.21) rotate(-90)" fill="none" stroke="#231f20" stroke-linejoin="round" stroke-width=".25"/><rect x="-3.36" y="1358.31" width="108.04" height="29.29" rx="14.65" ry="14.65" transform="translate(-1322.3 1423.62) rotate(-90)" fill="#fff" stroke="#231f20" stroke-miterlimit="10" stroke-width=".5"/><rect x="354.96" y="1554.95" width="184.59" height="4.71" rx="2.35" ry="2.35" fill="#fff" stroke="#231f20" stroke-miterlimit="10" stroke-width=".5"/><rect x="-104.25" y="1794.92" width="390" height="131" transform="translate(-1769.66 1951.17) rotate(-90)" fill="#ed1c24" opacity=".1"/><rect x="608.75" y="1794.92" width="390" height="131" transform="translate(-1056.66 2664.17) rotate(-90)" fill="#ed1c24" opacity=".1"/><rect x="-138.25" y="1828.92" width="390" height="63" transform="translate(-1803.66 1917.17) rotate(-90)" fill="#ed1c24" opacity=".1"/><rect x="642.75" y="1828.92" width="390" height="63" transform="translate(-1022.66 2698.17) rotate(-90)" fill="#ed1c24" opacity=".1"/><rect x="252.25" y="1438.42" width="390" height="844" transform="translate(-1413.16 2307.67) rotate(-90)" fill="none" stroke="#ed1c24" stroke-miterlimit="10"/><rect x="252.25" y="1438.42" width="390" height="844" rx="43.01" ry="43.01" transform="translate(-1413.16 2307.67) rotate(-90)" fill="none" stroke="#231f20" stroke-linejoin="round" stroke-width=".25"/><rect x="-3.36" y="1845.77" width="108.04" height="29.29" rx="14.65" ry="14.65" transform="translate(-1809.75 1911.08) rotate(-90)" fill="#fff" stroke="#231f20" stroke-miterlimit="10" stroke-width=".5"/><rect x="354.96" y="2042.41" width="184.59" height="4.71" rx="2.35" ry="2.35" fill="#fff" stroke="#231f20" stroke-miterlimit="10" stroke-width=".5"/><rect x="1292.81" y="857.4" width="144.51" height="4.71" rx="2.35" ry="2.35" fill="#fff" stroke="#231f20" stroke-miterlimit="10" stroke-width=".5"/><g><line x1="962.46" y1="869.25" x2="962.46" y2="916.92" fill="none" stroke="#ed1c24" stroke-miterlimit="10" stroke-width=".75"/><g><line x1="573.27" y1="893.08" x2="961.65" y2="893.08" fill="none" stroke="#ed1c24" stroke-miterlimit="10" stroke-width=".75"/><polygon points="575.76 896.15 576.27 895.6 573.56 893.08 576.27 890.57 575.76 890.02 572.46 893.08 575.76 896.15" fill="#ed1c24"/><polygon points="959.16 896.15 958.65 895.6 961.36 893.08 958.65 890.57 959.16 890.02 962.46 893.08 959.16 896.15" fill="#ed1c24"/></g><line x1="572.46" y1="916.92" x2="572.46" y2="869.25" fill="none" stroke="#ed1c24" stroke-miterlimit="10" stroke-width=".75"/></g><g><path d="M742.12,934.72c-.82,0-1.53-.11-2.14-.32-.61-.22-1.13-.49-1.57-.83-.44-.34-.83-.67-1.16-1.01l.62-.74c.46,.5,1.02,.95,1.68,1.36s1.51,.61,2.57,.61,1.9-.31,2.57-.92c.67-.62,1.01-1.44,1.01-2.46s-.41-1.91-1.24-2.57c-.82-.66-2.2-.98-4.12-.98v-.94c1.18,0,2.13-.15,2.83-.44s1.21-.7,1.51-1.21,.46-1.07,.46-1.68c0-.87-.28-1.56-.84-2.08-.56-.52-1.31-.78-2.26-.78-.7,0-1.36,.16-1.96,.49-.6,.33-1.12,.72-1.57,1.19l-.62-.72c.53-.51,1.13-.95,1.81-1.32,.68-.37,1.46-.55,2.34-.55,.8,0,1.52,.14,2.15,.43,.63,.29,1.13,.71,1.5,1.26,.37,.55,.55,1.22,.55,2,0,1.01-.28,1.82-.83,2.44-.55,.62-1.25,1.07-2.1,1.36v.1c.64,.13,1.22,.37,1.74,.73,.52,.36,.94,.81,1.26,1.36s.48,1.18,.48,1.9c0,.88-.21,1.65-.62,2.3s-.98,1.16-1.68,1.51c-.7,.35-1.5,.53-2.38,.53Z" fill="#231f20"/><path d="M752.63,934.72c-.7,0-1.32-.14-1.86-.41s-1-.63-1.38-1.08l.65-.72c.34,.42,.73,.73,1.19,.95,.46,.22,.93,.32,1.43,.32,.82,0,1.57-.24,2.26-.72,.69-.48,1.24-1.27,1.67-2.38,.42-1.1,.64-2.59,.64-4.46-.53,.64-1.13,1.15-1.8,1.54-.67,.38-1.37,.58-2.09,.58-1.33,0-2.37-.4-3.12-1.21-.75-.81-1.13-1.99-1.13-3.54,0-.93,.19-1.75,.58-2.47,.38-.72,.9-1.28,1.54-1.69,.64-.41,1.34-.61,2.09-.61,1.52,0,2.73,.62,3.64,1.86,.9,1.24,1.36,3.03,1.36,5.36,0,2.14-.26,3.85-.79,5.12-.53,1.27-1.22,2.18-2.08,2.74-.86,.55-1.78,.83-2.77,.83Zm-2.5-11.14c0,1.12,.26,2.04,.79,2.77,.53,.73,1.38,1.09,2.54,1.09,.56,0,1.17-.18,1.84-.55s1.29-.96,1.88-1.78c-.1-1.62-.47-2.92-1.12-3.91-.65-.99-1.6-1.49-2.84-1.49-.58,0-1.1,.17-1.57,.52-.47,.34-.84,.8-1.12,1.38-.27,.58-.41,1.23-.41,1.97Z" fill="#231f20"/><path d="M765.28,934.72c-1.46,0-2.58-.7-3.38-2.09-.8-1.39-1.2-3.37-1.2-5.93s.4-4.5,1.2-5.86c.8-1.36,1.93-2.04,3.38-2.04s2.6,.68,3.4,2.04c.79,1.36,1.19,3.31,1.19,5.86s-.4,4.54-1.19,5.93-1.92,2.09-3.4,2.09Zm0-.91c1.07,0,1.92-.6,2.56-1.8,.63-1.2,.95-2.97,.95-5.3s-.32-4.08-.95-5.24c-.63-1.16-1.48-1.74-2.56-1.74s-1.9,.58-2.54,1.74c-.64,1.16-.96,2.91-.96,5.24s.32,4.1,.96,5.3c.64,1.2,1.49,1.8,2.54,1.8Z" fill="#231f20"/><path d="M778.05,939.64v-16.73h.91l.1,1.44h.07c.56-.45,1.18-.85,1.85-1.2,.67-.35,1.36-.53,2.06-.53,1.54,0,2.69,.53,3.46,1.6,.77,1.06,1.15,2.49,1.15,4.28,0,1.3-.24,2.41-.71,3.34s-1.09,1.64-1.86,2.14c-.77,.5-1.61,.74-2.52,.74-.54,0-1.1-.12-1.68-.37s-1.17-.6-1.78-1.04v6.34h-1.06Zm4.46-5.86c.78,0,1.48-.22,2.08-.67,.6-.45,1.07-1.07,1.42-1.86,.34-.79,.52-1.71,.52-2.75,0-.94-.12-1.79-.36-2.53-.24-.74-.63-1.33-1.16-1.76-.54-.43-1.24-.65-2.12-.65-.58,0-1.17,.17-1.79,.49-.62,.33-1.28,.8-1.98,1.4v6.84c.66,.54,1.28,.93,1.86,1.15,.58,.22,1.1,.34,1.55,.34Z" fill="#231f20"/><path d="M788.94,934.43l3.91-6.02-3.6-5.5h1.18l1.87,2.93c.19,.3,.39,.62,.6,.94l.62,.96h.1c.21-.32,.4-.64,.59-.96,.18-.32,.38-.63,.59-.94l1.8-2.93h1.1l-3.58,5.59,3.91,5.93h-1.18l-2.04-3.14c-.21-.37-.43-.73-.66-1.08-.23-.35-.47-.7-.71-1.03h-.1c-.22,.34-.44,.68-.66,1.03-.22,.35-.44,.71-.66,1.08l-1.97,3.14h-1.13Z" fill="#231f20"/></g><g><line x1="2095.53" y1="829.52" x2="2095.53" y2="877.18" fill="none" stroke="#ed1c24" stroke-miterlimit="10" stroke-width=".75"/><g><line x1="1737.33" y1="853.35" x2="2094.72" y2="853.35" fill="none" stroke="#ed1c24" stroke-miterlimit="10" stroke-width=".75"/><polygon points="1739.81 856.42 1740.32 855.87 1737.62 853.35 1740.32 850.83 1739.81 850.28 1736.51 853.35 1739.81 856.42" fill="#ed1c24"/><polygon points="2092.23 856.42 2091.72 855.87 2094.43 853.35 2091.72 850.83 2092.23 850.28 2095.53 853.35 2092.23 856.42" fill="#ed1c24"/></g><line x1="1736.51" y1="877.18" x2="1736.51" y2="829.52" fill="none" stroke="#ed1c24" stroke-miterlimit="10" stroke-width=".75"/></g><g><path d="M1890.68,894.98c-.82,0-1.53-.11-2.14-.32-.61-.21-1.13-.49-1.57-.83-.44-.34-.83-.67-1.16-1.01l.62-.74c.46,.5,1.02,.95,1.68,1.36,.66,.41,1.51,.61,2.57,.61s1.9-.31,2.57-.92c.67-.62,1.01-1.44,1.01-2.46s-.41-1.91-1.24-2.57c-.82-.66-2.2-.98-4.12-.98v-.94c1.18,0,2.13-.15,2.83-.44,.7-.29,1.21-.7,1.51-1.21,.3-.51,.46-1.07,.46-1.68,0-.86-.28-1.56-.84-2.08-.56-.52-1.31-.78-2.26-.78-.7,0-1.36,.16-1.96,.49s-1.12,.72-1.57,1.19l-.62-.72c.53-.51,1.13-.95,1.81-1.32,.68-.37,1.46-.55,2.34-.55,.8,0,1.52,.14,2.15,.43s1.13,.71,1.5,1.26,.55,1.22,.55,2c0,1.01-.28,1.82-.83,2.44-.55,.62-1.25,1.07-2.1,1.36v.1c.64,.13,1.22,.37,1.74,.73s.94,.81,1.26,1.36c.32,.54,.48,1.18,.48,1.9,0,.88-.21,1.65-.62,2.3s-.98,1.16-1.68,1.51c-.7,.35-1.5,.53-2.38,.53Z" fill="#231f20"/><path d="M1902.06,894.98c-.82,0-1.52-.1-2.12-.31-.6-.21-1.12-.47-1.55-.79-.43-.32-.82-.64-1.15-.96l.6-.74c.46,.46,1.02,.89,1.67,1.28,.65,.39,1.49,.59,2.53,.59,.69,0,1.32-.17,1.9-.52s1.04-.83,1.39-1.45c.35-.62,.53-1.34,.53-2.16,0-1.23-.34-2.2-1.02-2.9s-1.59-1.06-2.72-1.06c-.59,0-1.1,.09-1.52,.28-.42,.18-.87,.44-1.33,.76l-.74-.46,.55-7.18h7.08v.94h-6.12l-.48,5.54c.4-.24,.82-.44,1.25-.59,.43-.15,.93-.23,1.49-.23,.86,0,1.65,.17,2.36,.52,.71,.34,1.28,.87,1.69,1.58s.62,1.63,.62,2.75-.24,2.01-.71,2.77-1.08,1.34-1.82,1.74c-.74,.4-1.53,.6-2.36,.6Z" fill="#231f20"/><path d="M1912.69,894.98c-.7,0-1.32-.14-1.86-.41-.54-.27-1-.63-1.38-1.08l.65-.72c.34,.42,.73,.73,1.19,.95,.46,.22,.93,.32,1.43,.32,.82,0,1.57-.24,2.26-.72,.69-.48,1.24-1.27,1.67-2.38,.42-1.1,.64-2.59,.64-4.46-.53,.64-1.13,1.15-1.8,1.54-.67,.38-1.37,.58-2.09,.58-1.33,0-2.37-.4-3.12-1.21-.75-.81-1.13-1.99-1.13-3.54,0-.93,.19-1.75,.58-2.47,.38-.72,.9-1.28,1.54-1.69,.64-.41,1.34-.61,2.09-.61,1.52,0,2.73,.62,3.64,1.86,.9,1.24,1.36,3.03,1.36,5.36,0,2.14-.26,3.85-.79,5.12-.53,1.27-1.22,2.18-2.08,2.74-.86,.55-1.78,.83-2.77,.83Zm-2.5-11.14c0,1.12,.26,2.04,.79,2.77s1.38,1.09,2.54,1.09c.56,0,1.17-.18,1.84-.55,.66-.37,1.29-.96,1.88-1.78-.1-1.62-.47-2.92-1.12-3.91-.65-.99-1.6-1.49-2.84-1.49-.58,0-1.1,.17-1.57,.52-.47,.34-.84,.8-1.12,1.38-.27,.58-.41,1.23-.41,1.97Z" fill="#231f20"/><path d="M1926.61,899.9v-16.73h.91l.1,1.44h.07c.56-.45,1.18-.85,1.85-1.2s1.36-.53,2.06-.53c1.54,0,2.69,.53,3.46,1.6,.77,1.06,1.15,2.49,1.15,4.28,0,1.3-.24,2.41-.71,3.34s-1.09,1.64-1.86,2.13c-.77,.5-1.61,.74-2.52,.74-.54,0-1.1-.12-1.68-.37s-1.17-.6-1.78-1.04v6.34h-1.06Zm4.46-5.86c.78,0,1.48-.22,2.08-.67s1.07-1.07,1.42-1.86c.34-.79,.52-1.71,.52-2.75,0-.94-.12-1.79-.36-2.53-.24-.74-.63-1.33-1.16-1.76-.54-.43-1.24-.65-2.12-.65-.58,0-1.17,.17-1.79,.49-.62,.33-1.28,.8-1.98,1.4v6.84c.66,.54,1.28,.93,1.86,1.15s1.1,.34,1.55,.34Z" fill="#231f20"/><path d="M1937.5,894.7l3.91-6.02-3.6-5.5h1.18l1.87,2.93c.19,.3,.39,.62,.6,.94s.42,.64,.62,.96h.1c.21-.32,.4-.64,.59-.96,.18-.32,.38-.63,.59-.94l1.8-2.93h1.1l-3.58,5.59,3.91,5.93h-1.18l-2.04-3.14c-.21-.37-.43-.73-.66-1.08-.23-.35-.47-.7-.71-1.03h-.1c-.22,.34-.44,.68-.66,1.03s-.44,.71-.66,1.08l-1.97,3.14h-1.13Z" fill="#231f20"/></g><g><line x1="2095.53" y1="1498.01" x2="2095.53" y2="1545.68" fill="none" stroke="#ed1c24" stroke-miterlimit="10" stroke-width=".75"/><g><line x1="1252.32" y1="1521.84" x2="2094.72" y2="1521.84" fill="none" stroke="#ed1c24" stroke-miterlimit="10" stroke-width=".75"/><polygon points="1254.81 1524.91 1255.32 1524.36 1252.61 1521.84 1255.32 1519.33 1254.81 1518.78 1251.51 1521.84 1254.81 1524.91" fill="#ed1c24"/><polygon points="2092.23 1524.91 2091.72 1524.36 2094.43 1521.84 2091.72 1519.33 2092.23 1518.78 2095.53 1521.84 2092.23 1524.91" fill="#ed1c24"/></g><line x1="1251.51" y1="1545.68" x2="1251.51" y2="1498.01" fill="none" stroke="#ed1c24" stroke-miterlimit="10" stroke-width=".75"/></g><g><path d="M1648.43,1563.48c-.93,0-1.76-.18-2.5-.55-.74-.37-1.32-.87-1.74-1.51s-.64-1.36-.64-2.16c0-.69,.16-1.31,.47-1.87,.31-.56,.7-1.04,1.18-1.45,.47-.41,.95-.74,1.43-1v-.1c-.56-.37-1.07-.84-1.52-1.43s-.68-1.28-.68-2.1c0-.74,.18-1.38,.54-1.94,.36-.56,.84-1,1.45-1.32,.61-.32,1.28-.48,2.02-.48,1.31,0,2.33,.38,3.06,1.14,.73,.76,1.09,1.72,1.09,2.87,0,.56-.12,1.09-.36,1.6s-.53,.95-.86,1.34c-.34,.39-.66,.71-.96,.95v.1c.45,.27,.88,.58,1.28,.92,.41,.34,.74,.76,1.01,1.24,.26,.48,.4,1.06,.4,1.75,0,.74-.2,1.41-.59,2.02-.39,.61-.94,1.09-1.63,1.45-.7,.36-1.51,.54-2.44,.54Zm0-.89c1.09,0,1.96-.3,2.6-.91,.65-.61,.97-1.35,.97-2.23,0-.78-.22-1.42-.67-1.91-.45-.49-1.03-.9-1.74-1.24s-1.47-.66-2.27-.96c-.78,.45-1.43,.99-1.94,1.63-.51,.64-.77,1.38-.77,2.23,0,.64,.16,1.21,.49,1.72s.78,.91,1.36,1.21c.58,.3,1.23,.46,1.97,.46Zm1.13-7.44c.66-.53,1.16-1.09,1.5-1.68s.52-1.21,.52-1.87c0-.85-.28-1.58-.83-2.21-.55-.62-1.32-.94-2.32-.94-.85,0-1.55,.27-2.11,.8-.56,.54-.84,1.22-.84,2.05,0,.72,.2,1.32,.6,1.79,.4,.47,.91,.86,1.54,1.18,.62,.31,1.27,.6,1.94,.88Z" fill="#231f20"/><path d="M1661.54,1563.19v-4.58h-7.06v-.62l7.13-10.13h.96v9.84h2.28v.91h-2.28v4.58h-1.03Zm-5.76-5.5h5.76v-5.62c0-.35,.01-.79,.04-1.32,.02-.53,.04-.97,.06-1.32h-.1c-.19,.32-.39,.63-.6,.94-.21,.3-.42,.63-.65,.98l-4.51,6.34Z" fill="#231f20"/><path d="M1673.03,1563.19v-4.58h-7.06v-.62l7.13-10.13h.96v9.84h2.28v.91h-2.28v4.58h-1.03Zm-5.76-5.5h5.76v-5.62c0-.35,.01-.79,.04-1.32,.02-.53,.04-.97,.06-1.32h-.1c-.19,.32-.39,.63-.6,.94-.21,.3-.42,.63-.65,.98l-4.51,6.34Z" fill="#231f20"/><path d="M1684.1,1568.4v-16.73h.91l.1,1.44h.07c.56-.45,1.18-.85,1.85-1.2s1.36-.53,2.06-.53c1.54,0,2.69,.53,3.46,1.6,.77,1.06,1.15,2.49,1.15,4.28,0,1.3-.24,2.41-.71,3.34s-1.09,1.64-1.86,2.13c-.77,.5-1.61,.74-2.52,.74-.54,0-1.1-.12-1.68-.37s-1.17-.6-1.78-1.04v6.34h-1.06Zm4.46-5.86c.78,0,1.48-.22,2.08-.67s1.07-1.07,1.42-1.86c.34-.79,.52-1.71,.52-2.75,0-.94-.12-1.79-.36-2.53-.24-.74-.63-1.33-1.16-1.76-.54-.43-1.24-.65-2.12-.65-.58,0-1.17,.17-1.79,.49-.62,.33-1.28,.8-1.98,1.4v6.84c.66,.54,1.28,.93,1.86,1.15s1.1,.34,1.55,.34Z" fill="#231f20"/><path d="M1694.99,1563.19l3.91-6.02-3.6-5.5h1.18l1.87,2.93c.19,.3,.39,.62,.6,.94s.42,.64,.62,.96h.1c.21-.32,.4-.64,.59-.96,.18-.32,.38-.63,.59-.94l1.8-2.93h1.1l-3.58,5.59,3.91,5.93h-1.18l-2.04-3.14c-.21-.37-.43-.73-.66-1.08-.23-.35-.47-.7-.71-1.03h-.1c-.22,.34-.44,.68-.66,1.03s-.44,.71-.66,1.08l-1.97,3.14h-1.13Z" fill="#231f20"/></g><g><line x1="1173.34" y1="869.25" x2="1173.34" y2="916.92" fill="none" stroke="#ed1c24" stroke-miterlimit="10" stroke-width=".75"/><g><line x1="1158.65" y1="893.08" x2="1172.52" y2="893.08" fill="none" stroke="#ed1c24" stroke-miterlimit="10" stroke-width=".75"/><polygon points="1161.13 896.15 1161.65 895.6 1158.94 893.08 1161.65 890.57 1161.13 890.02 1157.84 893.08 1161.13 896.15" fill="#ed1c24"/><polygon points="1170.04 896.15 1169.53 895.6 1172.23 893.08 1169.53 890.57 1170.04 890.02 1173.34 893.08 1170.04 896.15" fill="#ed1c24"/></g><line x1="1157.84" y1="916.92" x2="1157.84" y2="869.25" fill="none" stroke="#ed1c24" stroke-miterlimit="10" stroke-width=".75"/></g><g><path d="M1142.44,934.43v-.94h3.6v-12.72h-2.74v-.72c.62-.11,1.18-.25,1.68-.41,.5-.16,.92-.34,1.27-.55h.86v14.4h3.34v.94h-8.02Z" fill="#231f20"/><path d="M1158.18,934.72c-1.54,0-2.76-.63-3.66-1.88-.9-1.26-1.36-3.04-1.36-5.36,0-1.62,.15-2.98,.46-4.08,.3-1.1,.72-1.99,1.25-2.66s1.13-1.16,1.81-1.46c.68-.3,1.39-.46,2.12-.46s1.34,.14,1.86,.41c.52,.27,.98,.63,1.38,1.08l-.65,.72c-.34-.42-.73-.73-1.18-.95-.45-.22-.92-.32-1.42-.32-.82,0-1.57,.24-2.27,.72-.7,.48-1.25,1.27-1.67,2.38s-.62,2.59-.62,4.46c.53-.66,1.13-1.18,1.8-1.56,.67-.38,1.36-.58,2.06-.58,1.34,0,2.39,.4,3.14,1.21s1.13,1.99,1.13,3.54c0,.93-.19,1.75-.58,2.47-.38,.72-.89,1.29-1.52,1.7-.63,.42-1.33,.62-2.1,.62Zm-.19-8.64c-.54,0-1.14,.17-1.8,.52-.66,.34-1.3,.94-1.92,1.79,.1,1.62,.46,2.92,1.1,3.92,.64,1,1.58,1.5,2.83,1.5,.59,0,1.12-.17,1.58-.52,.46-.34,.83-.81,1.1-1.39,.27-.58,.41-1.24,.41-1.98,0-1.1-.26-2.02-.78-2.75-.52-.73-1.36-1.09-2.53-1.09Z" fill="#231f20"/><path d="M1170.42,939.64v-16.73h.91l.1,1.44h.07c.56-.45,1.18-.85,1.85-1.2,.67-.35,1.36-.53,2.06-.53,1.54,0,2.69,.53,3.46,1.6,.77,1.06,1.15,2.49,1.15,4.28,0,1.3-.24,2.41-.71,3.34s-1.09,1.64-1.86,2.14c-.77,.5-1.61,.74-2.52,.74-.54,0-1.1-.12-1.68-.37s-1.17-.6-1.78-1.04v6.34h-1.06Zm4.46-5.86c.78,0,1.48-.22,2.08-.67,.6-.45,1.07-1.07,1.42-1.86,.34-.79,.52-1.71,.52-2.75,0-.94-.12-1.79-.36-2.53-.24-.74-.63-1.33-1.16-1.76-.54-.43-1.24-.65-2.12-.65-.58,0-1.17,.17-1.79,.49-.62,.33-1.28,.8-1.98,1.4v6.84c.66,.54,1.28,.93,1.86,1.15,.58,.22,1.1,.34,1.55,.34Z" fill="#231f20"/><path d="M1181.32,934.43l3.91-6.02-3.6-5.5h1.18l1.87,2.93c.19,.3,.39,.62,.6,.94l.62,.96h.1c.21-.32,.4-.64,.59-.96,.18-.32,.38-.63,.59-.94l1.8-2.93h1.1l-3.58,5.59,3.91,5.93h-1.18l-2.04-3.14c-.21-.37-.43-.73-.66-1.08-.23-.35-.47-.7-.71-1.03h-.1c-.22,.34-.44,.68-.66,1.03-.22,.35-.44,.71-.66,1.08l-1.97,3.14h-1.13Z" fill="#231f20"/></g><g><line x1="1548.08" y1="869.25" x2="1548.08" y2="916.92" fill="none" stroke="#ed1c24" stroke-miterlimit="10" stroke-width=".75"/><g><line x1="1533.4" y1="893.08" x2="1547.27" y2="893.08" fill="none" stroke="#ed1c24" stroke-miterlimit="10" stroke-width=".75"/><polygon points="1535.88 896.15 1536.4 895.6 1533.69 893.08 1536.4 890.57 1535.88 890.02 1532.58 893.08 1535.88 896.15" fill="#ed1c24"/><polygon points="1544.79 896.15 1544.27 895.6 1546.98 893.08 1544.27 890.57 1544.79 890.02 1548.08 893.08 1544.79 896.15" fill="#ed1c24"/></g><line x1="1532.58" y1="916.92" x2="1532.58" y2="869.25" fill="none" stroke="#ed1c24" stroke-miterlimit="10" stroke-width=".75"/></g><g><path d="M1517.19,934.43v-.94h3.6v-12.72h-2.74v-.72c.62-.11,1.18-.25,1.68-.41,.5-.16,.92-.34,1.27-.55h.86v14.4h3.34v.94h-8.02Z" fill="#231f20"/><path d="M1532.93,934.72c-1.54,0-2.76-.63-3.66-1.88-.9-1.26-1.36-3.04-1.36-5.36,0-1.62,.15-2.98,.46-4.08,.3-1.1,.72-1.99,1.25-2.66s1.13-1.16,1.81-1.46c.68-.3,1.39-.46,2.12-.46s1.34,.14,1.86,.41c.52,.27,.98,.63,1.38,1.08l-.65,.72c-.34-.42-.73-.73-1.18-.95-.45-.22-.92-.32-1.42-.32-.82,0-1.57,.24-2.27,.72-.7,.48-1.25,1.27-1.67,2.38s-.62,2.59-.62,4.46c.53-.66,1.13-1.18,1.8-1.56,.67-.38,1.36-.58,2.06-.58,1.34,0,2.39,.4,3.14,1.21s1.13,1.99,1.13,3.54c0,.93-.19,1.75-.58,2.47-.38,.72-.89,1.29-1.52,1.7-.63,.42-1.33,.62-2.1,.62Zm-.19-8.64c-.54,0-1.14,.17-1.8,.52-.66,.34-1.3,.94-1.92,1.79,.1,1.62,.46,2.92,1.1,3.92,.64,1,1.58,1.5,2.83,1.5,.59,0,1.12-.17,1.58-.52,.46-.34,.83-.81,1.1-1.39,.27-.58,.41-1.24,.41-1.98,0-1.1-.26-2.02-.78-2.75-.52-.73-1.36-1.09-2.53-1.09Z" fill="#231f20"/><path d="M1545.17,939.64v-16.73h.91l.1,1.44h.07c.56-.45,1.18-.85,1.85-1.2,.67-.35,1.36-.53,2.06-.53,1.54,0,2.69,.53,3.46,1.6,.77,1.06,1.15,2.49,1.15,4.28,0,1.3-.24,2.41-.71,3.34s-1.09,1.64-1.86,2.14c-.77,.5-1.61,.74-2.52,.74-.54,0-1.1-.12-1.68-.37s-1.17-.6-1.78-1.04v6.34h-1.06Zm4.46-5.86c.78,0,1.48-.22,2.08-.67,.6-.45,1.07-1.07,1.42-1.86,.34-.79,.52-1.71,.52-2.75,0-.94-.12-1.79-.36-2.53-.24-.74-.63-1.33-1.16-1.76-.54-.43-1.24-.65-2.12-.65-.58,0-1.17,.17-1.79,.49-.62,.33-1.28,.8-1.98,1.4v6.84c.66,.54,1.28,.93,1.86,1.15,.58,.22,1.1,.34,1.55,.34Z" fill="#231f20"/><path d="M1556.07,934.43l3.91-6.02-3.6-5.5h1.18l1.87,2.93c.19,.3,.39,.62,.6,.94l.62,.96h.1c.21-.32,.4-.64,.59-.96,.18-.32,.38-.63,.59-.94l1.8-2.93h1.1l-3.58,5.59,3.91,5.93h-1.18l-2.04-3.14c-.21-.37-.43-.73-.66-1.08-.23-.35-.47-.7-.71-1.03h-.1c-.22,.34-.44,.68-.66,1.03-.22,.35-.44,.71-.66,1.08l-1.97,3.14h-1.13Z" fill="#231f20"/></g><g><line x1="869.26" y1="2055.42" x2="869.26" y2="2103.08" fill="none" stroke="#ed1c24" stroke-miterlimit="10" stroke-width=".75"/><g><line x1="807.07" y1="2079.25" x2="868.45" y2="2079.25" fill="none" stroke="#ed1c24" stroke-miterlimit="10" stroke-width=".75"/><polygon points="809.55 2082.32 810.06 2081.77 807.35 2079.25 810.06 2076.73 809.55 2076.18 806.25 2079.25 809.55 2082.32" fill="#ed1c24"/><polygon points="865.96 2082.32 865.45 2081.77 868.16 2079.25 865.45 2076.73 865.96 2076.18 869.26 2079.25 865.96 2082.32" fill="#ed1c24"/></g><line x1="806.25" y1="2103.08" x2="806.25" y2="2055.42" fill="none" stroke="#ed1c24" stroke-miterlimit="10" stroke-width=".75"/></g><g><line x1="869.26" y1="2055.42" x2="869.26" y2="2103.08" fill="none" stroke="#ed1c24" stroke-miterlimit="10" stroke-width=".75"/><g><line x1="739.06" y1="2079.25" x2="868.44" y2="2079.25" fill="none" stroke="#ed1c24" stroke-miterlimit="10" stroke-width=".75"/><polygon points="741.55 2082.32 742.06 2081.77 739.35 2079.25 742.06 2076.73 741.55 2076.18 738.25 2079.25 741.55 2082.32" fill="#ed1c24"/><polygon points="865.96 2082.32 865.45 2081.77 868.16 2079.25 865.45 2076.73 865.96 2076.18 869.26 2079.25 865.96 2082.32" fill="#ed1c24"/></g><line x1="738.25" y1="2103.08" x2="738.25" y2="2055.42" fill="none" stroke="#ed1c24" stroke-miterlimit="10" stroke-width=".75"/></g><g><line x1="88.26" y1="2055.42" x2="88.26" y2="2103.08" fill="none" stroke="#ed1c24" stroke-miterlimit="10" stroke-width=".75"/><g><line x1="26.06" y1="2079.25" x2="87.44" y2="2079.25" fill="none" stroke="#ed1c24" stroke-miterlimit="10" stroke-width=".75"/><polygon points="28.55 2082.32 29.06 2081.77 26.35 2079.25 29.06 2076.73 28.55 2076.18 25.25 2079.25 28.55 2082.32" fill="#ed1c24"/><polygon points="84.96 2082.32 84.45 2081.77 87.15 2079.25 84.45 2076.73 84.96 2076.18 88.26 2079.25 84.96 2082.32" fill="#ed1c24"/></g><line x1="25.25" y1="2103.08" x2="25.25" y2="2055.42" fill="none" stroke="#ed1c24" stroke-miterlimit="10" stroke-width=".75"/></g><g><line x1="156.25" y1="2055.42" x2="156.25" y2="2103.08" fill="none" stroke="#ed1c24" stroke-miterlimit="10" stroke-width=".75"/><g><line x1="26.06" y1="2079.25" x2="155.44" y2="2079.25" fill="none" stroke="#ed1c24" stroke-miterlimit="10" stroke-width=".75"/><polygon points="28.55 2082.32 29.06 2081.77 26.35 2079.25 29.06 2076.73 28.55 2076.18 25.25 2079.25 28.55 2082.32" fill="#ed1c24"/><polygon points="152.95 2082.32 152.44 2081.77 155.15 2079.25 152.44 2076.73 152.95 2076.18 156.25 2079.25 152.95 2082.32" fill="#ed1c24"/></g><line x1="25.25" y1="2103.08" x2="25.25" y2="2055.42" fill="none" stroke="#ed1c24" stroke-miterlimit="10" stroke-width=".75"/></g><g><path d="M818.86,2120.88c-1.54,0-2.76-.63-3.66-1.88-.9-1.26-1.36-3.04-1.36-5.36,0-1.62,.15-2.98,.46-4.08,.3-1.1,.72-1.99,1.25-2.66s1.13-1.16,1.81-1.46c.68-.3,1.39-.46,2.12-.46s1.34,.14,1.86,.41c.52,.27,.98,.63,1.38,1.08l-.65,.72c-.34-.42-.73-.73-1.18-.95-.45-.22-.92-.32-1.42-.32-.82,0-1.57,.24-2.27,.72-.7,.48-1.25,1.27-1.67,2.38s-.62,2.59-.62,4.46c.53-.66,1.13-1.18,1.8-1.56,.67-.38,1.36-.58,2.06-.58,1.34,0,2.39,.4,3.14,1.21s1.13,1.99,1.13,3.54c0,.93-.19,1.75-.58,2.47-.38,.72-.89,1.29-1.52,1.7-.63,.42-1.33,.62-2.1,.62Zm-.19-8.64c-.54,0-1.14,.17-1.8,.52-.66,.34-1.3,.94-1.92,1.79,.1,1.62,.46,2.92,1.1,3.92,.64,1,1.58,1.5,2.83,1.5,.59,0,1.12-.17,1.58-.52,.46-.34,.83-.81,1.1-1.39,.27-.58,.41-1.24,.41-1.98,0-1.1-.26-2.02-.78-2.75-.52-.73-1.36-1.09-2.53-1.09Z" fill="#231f20"/><path d="M829.66,2120.88c-.82,0-1.53-.11-2.14-.32-.61-.22-1.13-.49-1.57-.83-.44-.34-.83-.67-1.16-1.01l.62-.74c.46,.5,1.02,.95,1.68,1.36s1.51,.61,2.57,.61,1.9-.31,2.57-.92c.67-.62,1.01-1.44,1.01-2.46s-.41-1.91-1.24-2.57c-.82-.66-2.2-.98-4.12-.98v-.94c1.18,0,2.13-.15,2.83-.44s1.21-.7,1.51-1.21,.46-1.07,.46-1.68c0-.87-.28-1.56-.84-2.08-.56-.52-1.31-.78-2.26-.78-.7,0-1.36,.16-1.96,.49-.6,.33-1.12,.72-1.57,1.19l-.62-.72c.53-.51,1.13-.95,1.81-1.32,.68-.37,1.46-.55,2.34-.55,.8,0,1.52,.14,2.15,.43,.63,.29,1.13,.71,1.5,1.26,.37,.55,.55,1.22,.55,2,0,1.01-.28,1.82-.83,2.44-.55,.62-1.25,1.07-2.1,1.36v.1c.64,.13,1.22,.37,1.74,.73,.52,.36,.94,.81,1.26,1.36s.48,1.18,.48,1.9c0,.88-.21,1.65-.62,2.3s-.98,1.16-1.68,1.51c-.7,.35-1.5,.53-2.38,.53Z" fill="#231f20"/><path d="M842.59,2125.8v-16.73h.91l.1,1.44h.07c.56-.45,1.18-.85,1.85-1.2,.67-.35,1.36-.53,2.06-.53,1.54,0,2.69,.53,3.46,1.6,.77,1.06,1.15,2.49,1.15,4.28,0,1.3-.24,2.41-.71,3.34s-1.09,1.64-1.86,2.14c-.77,.5-1.61,.74-2.52,.74-.54,0-1.1-.12-1.68-.37s-1.17-.6-1.78-1.04v6.34h-1.06Zm4.46-5.86c.78,0,1.48-.22,2.08-.67,.6-.45,1.07-1.07,1.42-1.86,.34-.79,.52-1.71,.52-2.75,0-.94-.12-1.79-.36-2.53-.24-.74-.63-1.33-1.16-1.76-.54-.43-1.24-.65-2.12-.65-.58,0-1.17,.17-1.79,.49-.62,.33-1.28,.8-1.98,1.4v6.84c.66,.54,1.28,.93,1.86,1.15,.58,.22,1.1,.34,1.55,.34Z" fill="#231f20"/><path d="M853.49,2120.59l3.91-6.02-3.6-5.5h1.18l1.87,2.93c.19,.3,.39,.62,.6,.94l.62,.96h.1c.21-.32,.4-.64,.59-.96,.18-.32,.38-.63,.59-.94l1.8-2.93h1.1l-3.58,5.59,3.91,5.93h-1.18l-2.04-3.14c-.21-.37-.43-.73-.66-1.08-.23-.35-.47-.7-.71-1.03h-.1c-.22,.34-.44,.68-.66,1.03-.22,.35-.44,.71-.66,1.08l-1.97,3.14h-1.13Z" fill="#231f20"/></g><g><path d="M774.86,2153.11v-.94h3.6v-12.72h-2.74v-.72c.62-.11,1.18-.25,1.68-.41s.92-.34,1.27-.55h.86v14.4h3.34v.94h-8.02Z" fill="#231f20"/><path d="M789.91,2153.4c-.82,0-1.53-.11-2.14-.32-.61-.22-1.13-.49-1.57-.83-.44-.34-.83-.67-1.16-1.01l.62-.74c.46,.5,1.02,.95,1.68,1.36s1.51,.61,2.57,.61,1.9-.31,2.57-.92,1.01-1.44,1.01-2.46-.41-1.91-1.24-2.57c-.82-.66-2.2-.98-4.12-.98v-.94c1.18,0,2.13-.15,2.83-.44,.7-.3,1.21-.7,1.51-1.21,.3-.51,.46-1.07,.46-1.68,0-.86-.28-1.56-.84-2.08-.56-.52-1.31-.78-2.26-.78-.7,0-1.36,.16-1.96,.49-.6,.33-1.12,.72-1.57,1.19l-.62-.72c.53-.51,1.13-.95,1.81-1.32,.68-.37,1.46-.55,2.34-.55,.8,0,1.52,.14,2.15,.43s1.13,.71,1.5,1.26c.37,.55,.55,1.22,.55,2,0,1.01-.28,1.82-.83,2.44-.55,.62-1.25,1.07-2.1,1.36v.1c.64,.13,1.22,.37,1.74,.73s.94,.81,1.26,1.36,.48,1.18,.48,1.9c0,.88-.21,1.65-.62,2.3-.42,.66-.98,1.16-1.68,1.51-.7,.35-1.5,.53-2.38,.53Z" fill="#231f20"/><path d="M797.85,2153.11v-.94h3.6v-12.72h-2.74v-.72c.62-.11,1.18-.25,1.68-.41s.92-.34,1.27-.55h.86v14.4h3.34v.94h-8.02Z" fill="#231f20"/><path d="M814.34,2158.32v-16.73h.91l.1,1.44h.07c.56-.45,1.18-.85,1.85-1.2s1.36-.53,2.06-.53c1.54,0,2.69,.53,3.46,1.6,.77,1.06,1.15,2.49,1.15,4.28,0,1.3-.24,2.41-.71,3.34s-1.09,1.64-1.86,2.14c-.77,.5-1.61,.74-2.52,.74-.54,0-1.1-.12-1.68-.37s-1.17-.6-1.78-1.04v6.34h-1.06Zm4.46-5.86c.78,0,1.48-.22,2.08-.67s1.07-1.07,1.42-1.86c.34-.79,.52-1.71,.52-2.75,0-.94-.12-1.79-.36-2.53-.24-.74-.63-1.33-1.16-1.76-.54-.43-1.24-.65-2.12-.65-.58,0-1.17,.16-1.79,.49-.62,.33-1.28,.79-1.98,1.4v6.84c.66,.54,1.28,.93,1.86,1.15s1.1,.34,1.55,.34Z" fill="#231f20"/><path d="M825.23,2153.11l3.91-6.02-3.6-5.5h1.18l1.87,2.93c.19,.3,.39,.62,.6,.94,.21,.32,.42,.64,.62,.96h.1c.21-.32,.4-.64,.59-.96,.18-.32,.38-.63,.59-.94l1.8-2.93h1.1l-3.58,5.59,3.91,5.93h-1.18l-2.04-3.14c-.21-.37-.43-.73-.66-1.08-.23-.35-.47-.7-.71-1.03h-.1c-.22,.34-.44,.68-.66,1.03-.22,.35-.44,.71-.66,1.08l-1.97,3.14h-1.13Z" fill="#231f20"/></g><g><path d="M59.36,2153.11v-.94h3.6v-12.72h-2.74v-.72c.62-.11,1.18-.25,1.68-.41s.92-.34,1.27-.55h.86v14.4h3.34v.94h-8.02Z" fill="#231f20"/><path d="M74.4,2153.4c-.82,0-1.53-.11-2.14-.32-.61-.22-1.13-.49-1.57-.83-.44-.34-.83-.67-1.16-1.01l.62-.74c.46,.5,1.02,.95,1.68,1.36s1.51,.61,2.57,.61,1.9-.31,2.57-.92,1.01-1.44,1.01-2.46-.41-1.91-1.24-2.57c-.82-.66-2.2-.98-4.12-.98v-.94c1.18,0,2.13-.15,2.83-.44,.7-.3,1.21-.7,1.51-1.21,.3-.51,.46-1.07,.46-1.68,0-.86-.28-1.56-.84-2.08-.56-.52-1.31-.78-2.26-.78-.7,0-1.36,.16-1.96,.49-.6,.33-1.12,.72-1.57,1.19l-.62-.72c.53-.51,1.13-.95,1.81-1.32,.68-.37,1.46-.55,2.34-.55,.8,0,1.52,.14,2.15,.43s1.13,.71,1.5,1.26c.37,.55,.55,1.22,.55,2,0,1.01-.28,1.82-.83,2.44-.55,.62-1.25,1.07-2.1,1.36v.1c.64,.13,1.22,.37,1.74,.73s.94,.81,1.26,1.36,.48,1.18,.48,1.9c0,.88-.21,1.65-.62,2.3-.42,.66-.98,1.16-1.68,1.51-.7,.35-1.5,.53-2.38,.53Z" fill="#231f20"/><path d="M82.35,2153.11v-.94h3.6v-12.72h-2.74v-.72c.62-.11,1.18-.25,1.68-.41s.92-.34,1.27-.55h.86v14.4h3.34v.94h-8.02Z" fill="#231f20"/><path d="M98.84,2158.32v-16.73h.91l.1,1.44h.07c.56-.45,1.18-.85,1.85-1.2s1.36-.53,2.06-.53c1.54,0,2.69,.53,3.46,1.6,.77,1.06,1.15,2.49,1.15,4.28,0,1.3-.24,2.41-.71,3.34s-1.09,1.64-1.86,2.14c-.77,.5-1.61,.74-2.52,.74-.54,0-1.1-.12-1.68-.37s-1.17-.6-1.78-1.04v6.34h-1.06Zm4.46-5.86c.78,0,1.48-.22,2.08-.67s1.07-1.07,1.42-1.86c.34-.79,.52-1.71,.52-2.75,0-.94-.12-1.79-.36-2.53-.24-.74-.63-1.33-1.16-1.76-.54-.43-1.24-.65-2.12-.65-.58,0-1.17,.16-1.79,.49-.62,.33-1.28,.79-1.98,1.4v6.84c.66,.54,1.28,.93,1.86,1.15s1.1,.34,1.55,.34Z" fill="#231f20"/><path d="M109.73,2153.11l3.91-6.02-3.6-5.5h1.18l1.87,2.93c.19,.3,.39,.62,.6,.94,.21,.32,.42,.64,.62,.96h.1c.21-.32,.4-.64,.59-.96,.18-.32,.38-.63,.59-.94l1.8-2.93h1.1l-3.58,5.59,3.91,5.93h-1.18l-2.04-3.14c-.21-.37-.43-.73-.66-1.08-.23-.35-.47-.7-.71-1.03h-.1c-.22,.34-.44,.68-.66,1.03-.22,.35-.44,.71-.66,1.08l-1.97,3.14h-1.13Z" fill="#231f20"/></g><g><path d="M38.76,2120.88c-1.54,0-2.76-.63-3.66-1.88-.9-1.26-1.36-3.04-1.36-5.36,0-1.62,.15-2.98,.46-4.08,.3-1.1,.72-1.99,1.25-2.66s1.13-1.16,1.81-1.46c.68-.3,1.39-.46,2.12-.46s1.34,.14,1.86,.41c.52,.27,.98,.63,1.38,1.08l-.65,.72c-.34-.42-.73-.73-1.18-.95-.45-.22-.92-.32-1.42-.32-.82,0-1.57,.24-2.27,.72-.7,.48-1.25,1.27-1.67,2.38s-.62,2.59-.62,4.46c.53-.66,1.13-1.18,1.8-1.56,.67-.38,1.36-.58,2.06-.58,1.34,0,2.39,.4,3.14,1.21s1.13,1.99,1.13,3.54c0,.93-.19,1.75-.58,2.47-.38,.72-.89,1.29-1.52,1.7-.63,.42-1.33,.62-2.1,.62Zm-.19-8.64c-.54,0-1.14,.17-1.8,.52-.66,.34-1.3,.94-1.92,1.79,.1,1.62,.46,2.92,1.1,3.92,.64,1,1.58,1.5,2.83,1.5,.59,0,1.12-.17,1.58-.52,.46-.34,.83-.81,1.1-1.39,.27-.58,.41-1.24,.41-1.98,0-1.1-.26-2.02-.78-2.75-.52-.73-1.36-1.09-2.53-1.09Z" fill="#231f20"/><path d="M49.56,2120.88c-.82,0-1.53-.11-2.14-.32-.61-.22-1.13-.49-1.57-.83-.44-.34-.83-.67-1.16-1.01l.62-.74c.46,.5,1.02,.95,1.68,1.36s1.51,.61,2.57,.61,1.9-.31,2.57-.92c.67-.62,1.01-1.44,1.01-2.46s-.41-1.91-1.24-2.57c-.82-.66-2.2-.98-4.12-.98v-.94c1.18,0,2.13-.15,2.83-.44s1.21-.7,1.51-1.21,.46-1.07,.46-1.68c0-.87-.28-1.56-.84-2.08-.56-.52-1.31-.78-2.26-.78-.7,0-1.36,.16-1.96,.49-.6,.33-1.12,.72-1.57,1.19l-.62-.72c.53-.51,1.13-.95,1.81-1.32,.68-.37,1.46-.55,2.34-.55,.8,0,1.52,.14,2.15,.43,.63,.29,1.13,.71,1.5,1.26,.37,.55,.55,1.22,.55,2,0,1.01-.28,1.82-.83,2.44-.55,.62-1.25,1.07-2.1,1.36v.1c.64,.13,1.22,.37,1.74,.73,.52,.36,.94,.81,1.26,1.36s.48,1.18,.48,1.9c0,.88-.21,1.65-.62,2.3s-.98,1.16-1.68,1.51c-.7,.35-1.5,.53-2.38,.53Z" fill="#231f20"/><path d="M62.5,2125.8v-16.73h.91l.1,1.44h.07c.56-.45,1.18-.85,1.85-1.2,.67-.35,1.36-.53,2.06-.53,1.54,0,2.69,.53,3.46,1.6,.77,1.06,1.15,2.49,1.15,4.28,0,1.3-.24,2.41-.71,3.34s-1.09,1.64-1.86,2.14c-.77,.5-1.61,.74-2.52,.74-.54,0-1.1-.12-1.68-.37s-1.17-.6-1.78-1.04v6.34h-1.06Zm4.46-5.86c.78,0,1.48-.22,2.08-.67,.6-.45,1.07-1.07,1.42-1.86,.34-.79,.52-1.71,.52-2.75,0-.94-.12-1.79-.36-2.53-.24-.74-.63-1.33-1.16-1.76-.54-.43-1.24-.65-2.12-.65-.58,0-1.17,.17-1.79,.49-.62,.33-1.28,.8-1.98,1.4v6.84c.66,.54,1.28,.93,1.86,1.15,.58,.22,1.1,.34,1.55,.34Z" fill="#231f20"/><path d="M73.4,2120.59l3.91-6.02-3.6-5.5h1.18l1.87,2.93c.19,.3,.39,.62,.6,.94l.62,.96h.1c.21-.32,.4-.64,.59-.96,.18-.32,.38-.63,.59-.94l1.8-2.93h1.1l-3.58,5.59,3.91,5.93h-1.18l-2.04-3.14c-.21-.37-.43-.73-.66-1.08-.23-.35-.47-.7-.71-1.03h-.1c-.22,.34-.44,.68-.66,1.03-.22,.35-.44,.71-.66,1.08l-1.97,3.14h-1.13Z" fill="#231f20"/></g><g><line x1="415.25" y1="869.25" x2="415.25" y2="916.92" fill="none" stroke="#ed1c24" stroke-miterlimit="10" stroke-width=".75"/><g><line x1="26.06" y1="893.08" x2="414.44" y2="893.08" fill="none" stroke="#ed1c24" stroke-miterlimit="10" stroke-width=".75"/><polygon points="28.55 896.15 29.06 895.6 26.35 893.08 29.06 890.57 28.55 890.02 25.25 893.08 28.55 896.15" fill="#ed1c24"/><polygon points="411.95 896.15 411.44 895.6 414.15 893.08 411.44 890.57 411.95 890.02 415.25 893.08 411.95 896.15" fill="#ed1c24"/></g><line x1="25.25" y1="916.92" x2="25.25" y2="869.25" fill="none" stroke="#ed1c24" stroke-miterlimit="10" stroke-width=".75"/></g><g><path d="M194.91,934.72c-.82,0-1.53-.11-2.14-.32-.61-.22-1.13-.49-1.57-.83-.44-.34-.83-.67-1.16-1.01l.62-.74c.46,.5,1.02,.95,1.68,1.36s1.51,.61,2.57,.61,1.9-.31,2.57-.92c.67-.62,1.01-1.44,1.01-2.46s-.41-1.91-1.24-2.57c-.82-.66-2.2-.98-4.12-.98v-.94c1.18,0,2.13-.15,2.83-.44s1.21-.7,1.51-1.21,.46-1.07,.46-1.68c0-.87-.28-1.56-.84-2.08-.56-.52-1.31-.78-2.26-.78-.7,0-1.36,.16-1.96,.49-.6,.33-1.12,.72-1.57,1.19l-.62-.72c.53-.51,1.13-.95,1.81-1.32,.68-.37,1.46-.55,2.34-.55,.8,0,1.52,.14,2.15,.43,.63,.29,1.13,.71,1.5,1.26,.37,.55,.55,1.22,.55,2,0,1.01-.28,1.82-.83,2.44-.55,.62-1.25,1.07-2.1,1.36v.1c.64,.13,1.22,.37,1.74,.73,.52,.36,.94,.81,1.26,1.36s.48,1.18,.48,1.9c0,.88-.21,1.65-.62,2.3s-.98,1.16-1.68,1.51c-.7,.35-1.5,.53-2.38,.53Z" fill="#231f20"/><path d="M205.42,934.72c-.7,0-1.32-.14-1.86-.41s-1-.63-1.38-1.08l.65-.72c.34,.42,.73,.73,1.19,.95,.46,.22,.93,.32,1.43,.32,.82,0,1.57-.24,2.26-.72,.69-.48,1.24-1.27,1.67-2.38,.42-1.1,.64-2.59,.64-4.46-.53,.64-1.13,1.15-1.8,1.54-.67,.38-1.37,.58-2.09,.58-1.33,0-2.37-.4-3.12-1.21-.75-.81-1.13-1.99-1.13-3.54,0-.93,.19-1.75,.58-2.47,.38-.72,.9-1.28,1.54-1.69,.64-.41,1.34-.61,2.09-.61,1.52,0,2.73,.62,3.64,1.86,.9,1.24,1.36,3.03,1.36,5.36,0,2.14-.26,3.85-.79,5.12-.53,1.27-1.22,2.18-2.08,2.74-.86,.55-1.78,.83-2.77,.83Zm-2.5-11.14c0,1.12,.26,2.04,.79,2.77,.53,.73,1.38,1.09,2.54,1.09,.56,0,1.17-.18,1.84-.55s1.29-.96,1.88-1.78c-.1-1.62-.47-2.92-1.12-3.91-.65-.99-1.6-1.49-2.84-1.49-.58,0-1.1,.17-1.57,.52-.47,.34-.84,.8-1.12,1.38-.27,.58-.41,1.23-.41,1.97Z" fill="#231f20"/><path d="M218.07,934.72c-1.46,0-2.58-.7-3.38-2.09-.8-1.39-1.2-3.37-1.2-5.93s.4-4.5,1.2-5.86c.8-1.36,1.93-2.04,3.38-2.04s2.6,.68,3.4,2.04c.79,1.36,1.19,3.31,1.19,5.86s-.4,4.54-1.19,5.93-1.92,2.09-3.4,2.09Zm0-.91c1.07,0,1.92-.6,2.56-1.8,.63-1.2,.95-2.97,.95-5.3s-.32-4.08-.95-5.24c-.63-1.16-1.48-1.74-2.56-1.74s-1.9,.58-2.54,1.74c-.64,1.16-.96,2.91-.96,5.24s.32,4.1,.96,5.3c.64,1.2,1.49,1.8,2.54,1.8Z" fill="#231f20"/><path d="M230.83,939.64v-16.73h.91l.1,1.44h.07c.56-.45,1.18-.85,1.85-1.2,.67-.35,1.36-.53,2.06-.53,1.54,0,2.69,.53,3.46,1.6,.77,1.06,1.15,2.49,1.15,4.28,0,1.3-.24,2.41-.71,3.34s-1.09,1.64-1.86,2.14c-.77,.5-1.61,.74-2.52,.74-.54,0-1.1-.12-1.68-.37s-1.17-.6-1.78-1.04v6.34h-1.06Zm4.46-5.86c.78,0,1.48-.22,2.08-.67,.6-.45,1.07-1.07,1.42-1.86,.34-.79,.52-1.71,.52-2.75,0-.94-.12-1.79-.36-2.53-.24-.74-.63-1.33-1.16-1.76-.54-.43-1.24-.65-2.12-.65-.58,0-1.17,.17-1.79,.49-.62,.33-1.28,.8-1.98,1.4v6.84c.66,.54,1.28,.93,1.86,1.15,.58,.22,1.1,.34,1.55,.34Z" fill="#231f20"/><path d="M241.73,934.43l3.91-6.02-3.6-5.5h1.18l1.87,2.93c.19,.3,.39,.62,.6,.94l.62,.96h.1c.21-.32,.4-.64,.59-.96,.18-.32,.38-.63,.59-.94l1.8-2.93h1.1l-3.58,5.59,3.91,5.93h-1.18l-2.04-3.14c-.21-.37-.43-.73-.66-1.08-.23-.35-.47-.7-.71-1.03h-.1c-.22,.34-.44,.68-.66,1.03-.22,.35-.44,.71-.66,1.08l-1.97,3.14h-1.13Z" fill="#231f20"/></g><g><line x1="962.46" y1="25.25" x2="1010.13" y2="25.25" fill="none" stroke="#ed1c24" stroke-miterlimit="10" stroke-width=".75"/><g><line x1="986.29" y1="71.44" x2="986.29" y2="26.06" fill="none" stroke="#ed1c24" stroke-miterlimit="10" stroke-width=".75"/><polygon points="989.36 68.95 988.81 68.44 986.29 71.15 983.78 68.44 983.23 68.95 986.29 72.25 989.36 68.95" fill="#ed1c24"/><polygon points="989.36 28.55 988.81 29.06 986.29 26.35 983.78 29.06 983.23 28.55 986.29 25.25 989.36 28.55" fill="#ed1c24"/></g><line x1="1010.13" y1="72.25" x2="962.46" y2="72.25" fill="none" stroke="#ed1c24" stroke-miterlimit="10" stroke-width=".75"/></g><g><path d="M1025.18,56.68v-4.58h-7.06v-.62l7.13-10.13h.96v9.84h2.28v.91h-2.28v4.58h-1.03Zm-5.76-5.5h5.76v-5.62c0-.35,.01-.79,.04-1.32,.02-.53,.04-.97,.06-1.32h-.1c-.19,.32-.39,.63-.6,.94-.21,.3-.42,.63-.65,.98l-4.51,6.34Z" fill="#231f20"/><path d="M1033.74,56.68c.08-2.06,.29-3.91,.62-5.54s.83-3.16,1.49-4.57,1.5-2.84,2.52-4.28h-8.09v-.94h9.43v.62c-.91,1.22-1.67,2.39-2.27,3.52-.6,1.13-1.08,2.27-1.43,3.42-.35,1.15-.61,2.36-.78,3.62-.17,1.26-.28,2.65-.35,4.15h-1.15Z" fill="#231f20"/><path d="M1047.74,61.89v-16.73h.91l.1,1.44h.07c.56-.45,1.18-.85,1.85-1.2,.67-.35,1.36-.53,2.06-.53,1.54,0,2.69,.53,3.46,1.6,.77,1.06,1.15,2.49,1.15,4.28,0,1.3-.24,2.41-.71,3.34s-1.09,1.64-1.86,2.14c-.77,.5-1.61,.74-2.52,.74-.54,0-1.1-.12-1.68-.37s-1.17-.6-1.78-1.04v6.34h-1.06Zm4.46-5.86c.78,0,1.48-.22,2.08-.67,.6-.45,1.07-1.07,1.42-1.86,.34-.79,.52-1.71,.52-2.75,0-.94-.12-1.79-.36-2.53-.24-.74-.63-1.33-1.16-1.76-.54-.43-1.24-.65-2.12-.65-.58,0-1.17,.16-1.79,.49-.62,.33-1.28,.8-1.98,1.4v6.84c.66,.54,1.28,.93,1.86,1.15,.58,.22,1.1,.34,1.55,.34Z" fill="#231f20"/><path d="M1058.63,56.68l3.91-6.02-3.6-5.5h1.18l1.87,2.93c.19,.3,.39,.62,.6,.94s.42,.64,.62,.96h.1c.21-.32,.4-.64,.59-.96,.18-.32,.38-.63,.59-.94l1.8-2.93h1.1l-3.58,5.59,3.91,5.93h-1.18l-2.04-3.14c-.21-.37-.43-.73-.66-1.08-.23-.35-.47-.7-.71-1.03h-.1c-.22,.34-.44,.68-.66,1.03-.22,.35-.44,.71-.66,1.08l-1.97,3.14h-1.13Z" fill="#231f20"/></g><g><line x1="415.25" y1="25.25" x2="462.91" y2="25.25" fill="none" stroke="#ed1c24" stroke-miterlimit="10" stroke-width=".75"/><g><line x1="439.08" y1="868.44" x2="439.08" y2="26.06" fill="none" stroke="#ed1c24" stroke-miterlimit="10" stroke-width=".75"/><polygon points="442.15 865.95 441.6 865.44 439.08 868.15 436.56 865.44 436.01 865.95 439.08 869.25 442.15 865.95" fill="#ed1c24"/><polygon points="442.15 28.55 441.6 29.06 439.08 26.35 436.56 29.06 436.01 28.55 439.08 25.25 442.15 28.55" fill="#ed1c24"/></g><line x1="462.91" y1="869.25" x2="415.25" y2="869.25" fill="none" stroke="#ed1c24" stroke-miterlimit="10" stroke-width=".75"/></g><g><path d="M470.61,453.56c-.93,0-1.76-.18-2.5-.55-.74-.37-1.32-.87-1.74-1.51-.42-.64-.64-1.36-.64-2.16,0-.69,.16-1.31,.47-1.87,.31-.56,.7-1.04,1.18-1.45,.47-.41,.95-.74,1.43-1v-.1c-.56-.37-1.07-.84-1.52-1.43s-.68-1.29-.68-2.1c0-.74,.18-1.38,.54-1.94,.36-.56,.84-1,1.45-1.32,.61-.32,1.28-.48,2.02-.48,1.31,0,2.33,.38,3.06,1.14,.73,.76,1.09,1.72,1.09,2.87,0,.56-.12,1.09-.36,1.6s-.53,.95-.86,1.34-.66,.71-.96,.95v.1c.45,.27,.88,.58,1.28,.92,.41,.34,.74,.76,1.01,1.24,.26,.48,.4,1.06,.4,1.75,0,.74-.2,1.41-.59,2.02-.39,.61-.94,1.09-1.63,1.45-.7,.36-1.51,.54-2.44,.54Zm0-.89c1.09,0,1.96-.3,2.6-.91,.65-.61,.97-1.35,.97-2.23,0-.78-.22-1.42-.67-1.91-.45-.49-1.03-.9-1.74-1.24-.71-.34-1.47-.66-2.27-.96-.78,.45-1.43,.99-1.94,1.63-.51,.64-.77,1.38-.77,2.23,0,.64,.16,1.21,.49,1.72s.78,.91,1.36,1.21c.58,.3,1.23,.46,1.97,.46Zm1.13-7.44c.66-.53,1.16-1.09,1.5-1.68,.34-.59,.52-1.21,.52-1.87,0-.85-.28-1.58-.83-2.21-.55-.62-1.32-.94-2.32-.94-.85,0-1.55,.27-2.11,.8-.56,.54-.84,1.22-.84,2.05,0,.72,.2,1.32,.6,1.79,.4,.47,.91,.86,1.54,1.18s1.27,.6,1.94,.88Z" fill="#231f20"/><path d="M483.71,453.27v-4.58h-7.06v-.62l7.13-10.13h.96v9.84h2.28v.91h-2.28v4.58h-1.03Zm-5.76-5.5h5.76v-5.62c0-.35,.01-.79,.04-1.32,.02-.53,.04-.97,.06-1.32h-.1c-.19,.32-.39,.63-.6,.94-.21,.3-.42,.63-.65,.98l-4.51,6.34Z" fill="#231f20"/><path d="M495.21,453.27v-4.58h-7.06v-.62l7.13-10.13h.96v9.84h2.28v.91h-2.28v4.58h-1.03Zm-5.76-5.5h5.76v-5.62c0-.35,.01-.79,.04-1.32,.02-.53,.04-.97,.06-1.32h-.1c-.19,.32-.39,.63-.6,.94-.21,.3-.42,.63-.65,.98l-4.51,6.34Z" fill="#231f20"/><path d="M506.27,458.48v-16.73h.91l.1,1.44h.07c.56-.45,1.18-.85,1.85-1.2,.67-.35,1.36-.53,2.06-.53,1.54,0,2.69,.53,3.46,1.6,.77,1.06,1.15,2.49,1.15,4.28,0,1.3-.24,2.41-.71,3.34s-1.09,1.64-1.86,2.14c-.77,.5-1.61,.74-2.52,.74-.54,0-1.1-.12-1.68-.37s-1.17-.6-1.78-1.04v6.34h-1.06Zm4.46-5.86c.78,0,1.48-.22,2.08-.67,.6-.45,1.07-1.07,1.42-1.86,.34-.79,.52-1.71,.52-2.75,0-.94-.12-1.79-.36-2.53-.24-.74-.63-1.33-1.16-1.76-.54-.43-1.24-.65-2.12-.65-.58,0-1.17,.17-1.79,.49-.62,.33-1.28,.8-1.98,1.4v6.84c.66,.54,1.28,.93,1.86,1.15,.58,.22,1.1,.34,1.55,.34Z" fill="#231f20"/><path d="M517.17,453.27l3.91-6.02-3.6-5.5h1.18l1.87,2.93c.19,.3,.39,.62,.6,.94l.62,.96h.1c.21-.32,.4-.64,.59-.96,.18-.32,.38-.63,.59-.94l1.8-2.93h1.1l-3.58,5.59,3.91,5.93h-1.18l-2.04-3.14c-.21-.37-.43-.73-.66-1.08-.23-.35-.47-.7-.71-1.03h-.1c-.22,.34-.44,.68-.66,1.03-.22,.35-.44,.71-.66,1.08l-1.97,3.14h-1.13Z" fill="#231f20"/></g><g><line x1="962.46" y1="835.25" x2="1010.13" y2="835.25" fill="none" stroke="#ed1c24" stroke-miterlimit="10" stroke-width=".75"/><g><line x1="986.29" y1="868.44" x2="986.29" y2="836.06" fill="none" stroke="#ed1c24" stroke-miterlimit="10" stroke-width=".75"/><polygon points="989.36 865.95 988.81 865.44 986.29 868.15 983.77 865.44 983.23 865.95 986.29 869.25 989.36 865.95" fill="#ed1c24"/><polygon points="989.36 838.55 988.81 839.06 986.29 836.35 983.77 839.06 983.23 838.55 986.29 835.25 989.36 838.55" fill="#ed1c24"/></g><line x1="1010.13" y1="869.25" x2="962.46" y2="869.25" fill="none" stroke="#ed1c24" stroke-miterlimit="10" stroke-width=".75"/></g><g><line x1="962.47" y1="536.25" x2="1010.14" y2="536.25" fill="none" stroke="#ed1c24" stroke-miterlimit="10" stroke-width=".75"/><g><line x1="986.31" y1="868.44" x2="986.31" y2="537.07" fill="none" stroke="#ed1c24" stroke-miterlimit="10" stroke-width=".75"/><polygon points="989.37 865.95 988.82 865.44 986.31 868.15 983.79 865.44 983.24 865.95 986.31 869.25 989.37 865.95" fill="#ed1c24"/><polygon points="989.37 539.55 988.82 540.06 986.31 537.35 983.79 540.06 983.24 539.55 986.31 536.25 989.37 539.55" fill="#ed1c24"/></g><line x1="1010.14" y1="869.25" x2="962.47" y2="869.25" fill="none" stroke="#ed1c24" stroke-miterlimit="10" stroke-width=".75"/></g><g><path d="M1023.3,858.56c-.82,0-1.53-.11-2.14-.32-.61-.22-1.13-.49-1.57-.83-.44-.34-.83-.67-1.16-1.01l.62-.74c.46,.5,1.02,.95,1.68,1.36s1.51,.61,2.57,.61,1.9-.31,2.57-.92c.67-.62,1.01-1.44,1.01-2.46s-.41-1.91-1.24-2.57c-.82-.66-2.2-.98-4.12-.98v-.94c1.18,0,2.13-.15,2.83-.44s1.21-.7,1.51-1.21,.46-1.07,.46-1.68c0-.87-.28-1.56-.84-2.08-.56-.52-1.31-.78-2.26-.78-.7,0-1.36,.16-1.96,.49-.6,.33-1.12,.72-1.57,1.19l-.62-.72c.53-.51,1.13-.95,1.81-1.32,.68-.37,1.46-.55,2.34-.55,.8,0,1.52,.14,2.15,.43,.63,.29,1.13,.71,1.5,1.26,.37,.55,.55,1.22,.55,2,0,1.01-.28,1.82-.83,2.44-.55,.62-1.25,1.07-2.1,1.36v.1c.64,.13,1.22,.37,1.74,.73,.52,.36,.94,.81,1.26,1.36s.48,1.18,.48,1.9c0,.88-.21,1.65-.62,2.3s-.98,1.16-1.68,1.51c-.7,.35-1.5,.53-2.38,.53Z" fill="#231f20"/><path d="M1036.67,858.27v-4.58h-7.06v-.62l7.13-10.13h.96v9.84h2.28v.91h-2.28v4.58h-1.03Zm-5.76-5.5h5.76v-5.62c0-.35,.01-.79,.04-1.32,.02-.53,.04-.97,.06-1.32h-.1c-.19,.32-.39,.63-.6,.94-.21,.3-.42,.63-.65,.98l-4.51,6.34Z" fill="#231f20"/><path d="M1047.74,863.48v-16.73h.91l.1,1.44h.07c.56-.45,1.18-.85,1.85-1.2,.67-.35,1.36-.53,2.06-.53,1.54,0,2.69,.53,3.46,1.6,.77,1.06,1.15,2.49,1.15,4.28,0,1.3-.24,2.41-.71,3.34s-1.09,1.64-1.86,2.14c-.77,.5-1.61,.74-2.52,.74-.54,0-1.1-.12-1.68-.37s-1.17-.6-1.78-1.04v6.34h-1.06Zm4.46-5.86c.78,0,1.48-.22,2.08-.67,.6-.45,1.07-1.07,1.42-1.86,.34-.79,.52-1.71,.52-2.75,0-.94-.12-1.79-.36-2.53-.24-.74-.63-1.33-1.16-1.76-.54-.43-1.24-.65-2.12-.65-.58,0-1.17,.17-1.79,.49-.62,.33-1.28,.8-1.98,1.4v6.84c.66,.54,1.28,.93,1.86,1.15,.58,.22,1.1,.34,1.55,.34Z" fill="#231f20"/><path d="M1058.63,858.27l3.91-6.02-3.6-5.5h1.18l1.87,2.93c.19,.3,.39,.62,.6,.94l.62,.96h.1c.21-.32,.4-.64,.59-.96,.18-.32,.38-.63,.59-.94l1.8-2.93h1.1l-3.58,5.59,3.91,5.93h-1.18l-2.04-3.14c-.21-.37-.43-.73-.66-1.08-.23-.35-.47-.7-.71-1.03h-.1c-.22,.34-.44,.68-.66,1.03-.22,.35-.44,.71-.66,1.08l-1.97,3.14h-1.13Z" fill="#231f20"/></g><g><path d="M1017.56,709.06c-.82,0-1.53-.11-2.14-.32-.61-.22-1.13-.49-1.57-.83-.44-.34-.83-.67-1.16-1.01l.62-.74c.46,.5,1.02,.95,1.68,1.36s1.51,.61,2.57,.61,1.9-.31,2.57-.92c.67-.62,1.01-1.44,1.01-2.46s-.41-1.91-1.24-2.57c-.82-.66-2.2-.98-4.12-.98v-.94c1.18,0,2.13-.15,2.83-.44s1.21-.7,1.51-1.21,.46-1.07,.46-1.68c0-.87-.28-1.56-.84-2.08-.56-.52-1.31-.78-2.26-.78-.7,0-1.36,.16-1.96,.49-.6,.33-1.12,.72-1.57,1.19l-.62-.72c.53-.51,1.13-.95,1.81-1.32,.68-.37,1.46-.55,2.34-.55,.8,0,1.52,.14,2.15,.43,.63,.29,1.13,.71,1.5,1.26,.37,.55,.55,1.22,.55,2,0,1.01-.28,1.82-.83,2.44-.55,.62-1.25,1.07-2.1,1.36v.1c.64,.13,1.22,.37,1.74,.73,.52,.36,.94,.81,1.26,1.36s.48,1.18,.48,1.9c0,.88-.21,1.65-.62,2.3s-.98,1.16-1.68,1.51c-.7,.35-1.5,.53-2.38,.53Z" fill="#231f20"/><path d="M1029.05,709.06c-.82,0-1.53-.11-2.14-.32-.61-.22-1.13-.49-1.57-.83-.44-.34-.83-.67-1.16-1.01l.62-.74c.46,.5,1.02,.95,1.68,1.36s1.51,.61,2.57,.61,1.9-.31,2.57-.92c.67-.62,1.01-1.44,1.01-2.46s-.41-1.91-1.24-2.57c-.82-.66-2.2-.98-4.12-.98v-.94c1.18,0,2.13-.15,2.83-.44s1.21-.7,1.51-1.21,.46-1.07,.46-1.68c0-.87-.28-1.56-.84-2.08-.56-.52-1.31-.78-2.26-.78-.7,0-1.36,.16-1.96,.49-.6,.33-1.12,.72-1.57,1.19l-.62-.72c.53-.51,1.13-.95,1.81-1.32,.68-.37,1.46-.55,2.34-.55,.8,0,1.52,.14,2.15,.43,.63,.29,1.13,.71,1.5,1.26,.37,.55,.55,1.22,.55,2,0,1.01-.28,1.82-.83,2.44-.55,.62-1.25,1.07-2.1,1.36v.1c.64,.13,1.22,.37,1.74,.73,.52,.36,.94,.81,1.26,1.36s.48,1.18,.48,1.9c0,.88-.21,1.65-.62,2.3s-.98,1.16-1.68,1.51c-.7,.35-1.5,.53-2.38,.53Z" fill="#231f20"/><path d="M1040.55,709.06c-.82,0-1.53-.11-2.14-.32-.61-.22-1.13-.49-1.57-.83-.44-.34-.83-.67-1.16-1.01l.62-.74c.46,.5,1.02,.95,1.68,1.36s1.51,.61,2.57,.61,1.9-.31,2.57-.92c.67-.62,1.01-1.44,1.01-2.46s-.41-1.91-1.24-2.57c-.82-.66-2.2-.98-4.12-.98v-.94c1.18,0,2.13-.15,2.83-.44s1.21-.7,1.51-1.21,.46-1.07,.46-1.68c0-.87-.28-1.56-.84-2.08-.56-.52-1.31-.78-2.26-.78-.7,0-1.36,.16-1.96,.49-.6,.33-1.12,.72-1.57,1.19l-.62-.72c.53-.51,1.13-.95,1.81-1.32,.68-.37,1.46-.55,2.34-.55,.8,0,1.52,.14,2.15,.43,.63,.29,1.13,.71,1.5,1.26,.37,.55,.55,1.22,.55,2,0,1.01-.28,1.82-.83,2.44-.55,.62-1.25,1.07-2.1,1.36v.1c.64,.13,1.22,.37,1.74,.73,.52,.36,.94,.81,1.26,1.36s.48,1.18,.48,1.9c0,.88-.21,1.65-.62,2.3s-.98,1.16-1.68,1.51c-.7,.35-1.5,.53-2.38,.53Z" fill="#231f20"/><path d="M1053.48,713.98v-16.73h.91l.1,1.44h.07c.56-.45,1.18-.85,1.85-1.2,.67-.35,1.36-.53,2.06-.53,1.54,0,2.69,.53,3.46,1.6,.77,1.06,1.15,2.49,1.15,4.28,0,1.3-.24,2.41-.71,3.34s-1.09,1.64-1.86,2.14c-.77,.5-1.61,.74-2.52,.74-.54,0-1.1-.12-1.68-.37s-1.17-.6-1.78-1.04v6.34h-1.06Zm4.46-5.86c.78,0,1.48-.22,2.08-.67,.6-.45,1.07-1.07,1.42-1.86,.34-.79,.52-1.71,.52-2.75,0-.94-.12-1.79-.36-2.53-.24-.74-.63-1.33-1.16-1.76-.54-.43-1.24-.65-2.12-.65-.58,0-1.17,.17-1.79,.49-.62,.33-1.28,.8-1.98,1.4v6.84c.66,.54,1.28,.93,1.86,1.15,.58,.22,1.1,.34,1.55,.34Z" fill="#231f20"/><path d="M1064.38,708.77l3.91-6.02-3.6-5.5h1.18l1.87,2.93c.19,.3,.39,.62,.6,.94l.62,.96h.1c.21-.32,.4-.64,.59-.96,.18-.32,.38-.63,.59-.94l1.8-2.93h1.1l-3.58,5.59,3.91,5.93h-1.18l-2.04-3.14c-.21-.37-.43-.73-.66-1.08-.23-.35-.47-.7-.71-1.03h-.1c-.22,.34-.44,.68-.66,1.03-.22,.35-.44,.71-.66,1.08l-1.97,3.14h-1.13Z" fill="#231f20"/></g><g><line x1="869.25" y1="1177.96" x2="916.91" y2="1177.96" fill="none" stroke="#ed1c24" stroke-miterlimit="10" stroke-width=".75"/><g><line x1="893.08" y1="1221.15" x2="893.08" y2="1178.77" fill="none" stroke="#ed1c24" stroke-miterlimit="10" stroke-width=".75"/><polygon points="896.15 1218.66 895.6 1218.15 893.08 1220.86 890.56 1218.15 890.01 1218.66 893.08 1221.96 896.15 1218.66" fill="#ed1c24"/><polygon points="896.15 1181.26 895.6 1181.77 893.08 1179.06 890.56 1181.77 890.01 1181.26 893.08 1177.96 896.15 1181.26" fill="#ed1c24"/></g><line x1="916.91" y1="1221.96" x2="869.25" y2="1221.96" fill="none" stroke="#ed1c24" stroke-miterlimit="10" stroke-width=".75"/></g><g><path d="M931.95,1205.98v-4.58h-7.06v-.62l7.13-10.13h.96v9.84h2.28v.91h-2.28v4.58h-1.03Zm-5.76-5.5h5.76v-5.62c0-.35,.01-.79,.04-1.32,.02-.53,.04-.97,.06-1.32h-.1c-.19,.32-.39,.63-.6,.94-.21,.3-.42,.63-.65,.98l-4.51,6.34Z" fill="#231f20"/><path d="M943.45,1205.98v-4.58h-7.06v-.62l7.13-10.13h.96v9.84h2.28v.91h-2.28v4.58h-1.03Zm-5.76-5.5h5.76v-5.62c0-.35,.01-.79,.04-1.32,.02-.53,.04-.97,.06-1.32h-.1c-.19,.32-.39,.63-.6,.94-.21,.3-.42,.63-.65,.98l-4.51,6.34Z" fill="#231f20"/><path d="M954.51,1211.19v-16.73h.91l.1,1.44h.07c.56-.45,1.18-.85,1.85-1.2,.67-.35,1.36-.53,2.06-.53,1.54,0,2.69,.53,3.46,1.6,.77,1.06,1.15,2.49,1.15,4.28,0,1.3-.24,2.41-.71,3.34s-1.09,1.64-1.86,2.14c-.77,.5-1.61,.74-2.52,.74-.54,0-1.1-.12-1.68-.37s-1.17-.6-1.78-1.04v6.34h-1.06Zm4.46-5.86c.78,0,1.48-.22,2.08-.67,.6-.45,1.07-1.07,1.42-1.86,.34-.79,.52-1.71,.52-2.75,0-.94-.12-1.79-.36-2.53-.24-.74-.63-1.33-1.16-1.76-.54-.43-1.24-.65-2.12-.65-.58,0-1.17,.17-1.79,.49-.62,.33-1.28,.8-1.98,1.4v6.84c.66,.54,1.28,.93,1.86,1.15,.58,.22,1.1,.34,1.55,.34Z" fill="#231f20"/><path d="M965.41,1205.98l3.91-6.02-3.6-5.5h1.18l1.87,2.93c.19,.3,.39,.62,.6,.94l.62,.96h.1c.21-.32,.4-.64,.59-.96,.18-.32,.38-.63,.59-.94l1.8-2.93h1.1l-3.58,5.59,3.91,5.93h-1.18l-2.04-3.14c-.21-.37-.43-.73-.66-1.08-.23-.35-.47-.7-.71-1.03h-.1c-.22,.34-.44,.68-.66,1.03-.22,.35-.44,.71-.66,1.08l-1.97,3.14h-1.13Z" fill="#231f20"/></g><g><path d="M1331.73,2107.82v-15.82h1.1v8.78h.05l7.66-8.78h1.32l-5.04,5.86,5.74,9.96h-1.27l-5.23-9.12-3.22,3.67v5.45h-1.1Z" fill="#231f20"/><path d="M1349.37,2108.11c-.98,0-1.87-.24-2.68-.72-.81-.48-1.45-1.17-1.93-2.08-.48-.9-.72-1.98-.72-3.23s.24-2.35,.72-3.25c.48-.9,1.1-1.6,1.87-2.09,.77-.49,1.58-.73,2.42-.73,1.38,0,2.46,.46,3.24,1.39,.78,.93,1.18,2.24,1.18,3.94,0,.14,0,.29-.01,.43s-.03,.29-.06,.43h-8.28c.02,.96,.2,1.82,.56,2.57,.36,.75,.86,1.34,1.51,1.78,.65,.43,1.4,.65,2.27,.65,.62,0,1.19-.1,1.69-.29s.97-.44,1.4-.74l.43,.82c-.45,.27-.95,.53-1.51,.77-.56,.24-1.26,.36-2.11,.36Zm-4.25-6.77h7.34c0-1.47-.3-2.58-.91-3.31s-1.43-1.1-2.47-1.1c-.66,0-1.27,.18-1.84,.53-.57,.35-1.04,.86-1.43,1.51-.38,.66-.62,1.45-.7,2.38Z" fill="#231f20"/><path d="M1356.42,2113.07c-.43,0-.82-.08-1.18-.24l.24-.94c.13,.05,.28,.09,.44,.13s.33,.06,.49,.06c.7,0,1.3-.29,1.79-.86,.49-.58,.88-1.3,1.16-2.18l.31-1.01-4.73-11.74h1.15l2.78,7.25c.18,.48,.38,1.01,.6,1.58,.22,.58,.44,1.12,.65,1.63h.1c.18-.51,.36-1.06,.54-1.63,.18-.58,.36-1.1,.52-1.58l2.47-7.25h1.08l-4.56,12.96c-.21,.64-.48,1.25-.83,1.84-.34,.58-.76,1.06-1.26,1.43-.5,.37-1.09,.55-1.78,.55Z" fill="#231f20"/><path d="M1371.85,2108.11c-.54,0-1.12-.13-1.73-.4-.61-.26-1.18-.62-1.73-1.07h-.05l-.12,1.18h-.89v-17.26h1.06v4.99l-.05,2.26c.59-.5,1.23-.92,1.91-1.27,.68-.35,1.37-.53,2.08-.53,1.54,0,2.69,.53,3.46,1.6,.77,1.06,1.15,2.49,1.15,4.28,0,1.3-.24,2.41-.71,3.34s-1.09,1.64-1.86,2.14c-.77,.5-1.61,.74-2.52,.74Zm-.05-.94c.78,0,1.48-.22,2.08-.67,.6-.45,1.07-1.07,1.42-1.86,.34-.79,.52-1.71,.52-2.75,0-.94-.12-1.79-.36-2.53-.24-.74-.63-1.33-1.16-1.76-.54-.43-1.24-.65-2.12-.65-.58,0-1.18,.16-1.8,.49s-1.28,.8-1.97,1.4v6.84c.64,.54,1.26,.93,1.85,1.15,.59,.22,1.11,.34,1.56,.34Z" fill="#231f20"/><path d="M1384.55,2108.11c-.91,0-1.76-.24-2.54-.71-.78-.47-1.42-1.16-1.9-2.06-.48-.9-.72-1.99-.72-3.25s.24-2.4,.72-3.3c.48-.9,1.11-1.59,1.9-2.06,.78-.47,1.63-.71,2.54-.71s1.78,.24,2.57,.71c.78,.47,1.42,1.16,1.9,2.06,.48,.9,.72,2,.72,3.3s-.24,2.35-.72,3.25c-.48,.9-1.11,1.59-1.9,2.06s-1.64,.71-2.57,.71Zm0-.94c.78,0,1.48-.22,2.09-.65,.61-.43,1.09-1.03,1.45-1.79,.36-.76,.54-1.64,.54-2.65s-.18-1.92-.54-2.69c-.36-.77-.84-1.37-1.45-1.8-.61-.43-1.3-.65-2.09-.65s-1.46,.22-2.08,.65c-.62,.43-1.1,1.03-1.45,1.8s-.53,1.66-.53,2.69,.18,1.89,.53,2.65c.35,.76,.84,1.36,1.45,1.79,.62,.43,1.31,.65,2.08,.65Z" fill="#231f20"/><path d="M1395.35,2108.11c-.91,0-1.7-.26-2.35-.77s-.98-1.31-.98-2.4c0-1.28,.6-2.25,1.8-2.92,1.2-.66,3.08-1.14,5.64-1.43,.02-.59-.05-1.16-.19-1.72-.14-.55-.41-1.01-.8-1.38-.39-.37-.97-.55-1.74-.55s-1.47,.15-2.11,.46c-.64,.3-1.16,.6-1.56,.89l-.48-.79c.27-.19,.62-.4,1.06-.64s.92-.43,1.48-.6c.55-.17,1.14-.25,1.76-.25,.91,0,1.63,.2,2.16,.6,.53,.4,.91,.93,1.14,1.6,.23,.66,.35,1.41,.35,2.24v7.37h-.91l-.1-1.49h-.07c-.59,.46-1.23,.88-1.92,1.24-.69,.36-1.41,.54-2.16,.54Zm.19-.91c.66,0,1.29-.16,1.91-.48,.62-.32,1.28-.78,2-1.39v-3.91c-1.58,.19-2.84,.44-3.77,.74-.93,.3-1.59,.68-1.99,1.14-.4,.46-.6,.99-.6,1.6,0,.83,.24,1.42,.73,1.78,.49,.35,1.06,.53,1.72,.53Z" fill="#231f20"/><path d="M1404.61,2107.82v-11.52h.91l.1,2.14h.07c.38-.7,.85-1.28,1.4-1.74,.55-.46,1.17-.68,1.86-.68,.22,0,.42,.02,.6,.05,.18,.03,.36,.1,.55,.19l-.24,.96c-.19-.08-.36-.13-.5-.16-.14-.02-.33-.04-.55-.04-.51,0-1.05,.22-1.62,.66-.57,.44-1.08,1.2-1.52,2.29v7.85h-1.06Z" fill="#231f20"/><path d="M1415.8,2108.11c-1.46,0-2.62-.52-3.48-1.56-.86-1.04-1.3-2.53-1.3-4.46,0-1.25,.24-2.32,.71-3.23,.47-.9,1.1-1.6,1.87-2.1,.78-.5,1.62-.74,2.53-.74,.7,0,1.32,.12,1.84,.37,.52,.25,1.07,.6,1.64,1.04l-.05-2.11v-4.75h1.06v17.26h-.91l-.1-1.49h-.07c-.46,.46-1.01,.88-1.64,1.24s-1.33,.54-2.1,.54Zm.14-.94c.64,0,1.25-.16,1.84-.49s1.18-.8,1.79-1.4v-6.84c-.61-.54-1.18-.93-1.72-1.15-.54-.22-1.08-.34-1.64-.34-.77,0-1.46,.23-2.06,.68-.61,.46-1.09,1.07-1.45,1.84-.36,.77-.54,1.64-.54,2.62,0,1.52,.33,2.75,.98,3.68,.66,.94,1.59,1.4,2.81,1.4Z" fill="#231f20"/><path d="M1431.25,2108.11c-.94,0-1.42-.61-1.42-1.82v-15.72h1.06v15.86c0,.5,.17,.74,.5,.74,.05,0,.1,0,.17-.01,.06,0,.15-.02,.26-.04l.19,.86c-.11,.03-.22,.06-.34,.08-.11,.02-.26,.04-.43,.04Z" fill="#231f20"/><path d="M1438.04,2108.11c-.91,0-1.7-.26-2.35-.77s-.98-1.31-.98-2.4c0-1.28,.6-2.25,1.8-2.92,1.2-.66,3.08-1.14,5.64-1.43,.02-.59-.05-1.16-.19-1.72-.14-.55-.41-1.01-.8-1.38-.39-.37-.97-.55-1.74-.55s-1.47,.15-2.11,.46c-.64,.3-1.16,.6-1.56,.89l-.48-.79c.27-.19,.62-.4,1.06-.64s.92-.43,1.48-.6c.55-.17,1.14-.25,1.76-.25,.91,0,1.63,.2,2.16,.6,.53,.4,.91,.93,1.14,1.6,.23,.66,.35,1.41,.35,2.24v7.37h-.91l-.1-1.49h-.07c-.59,.46-1.23,.88-1.92,1.24-.69,.36-1.41,.54-2.16,.54Zm.19-.91c.66,0,1.29-.16,1.91-.48,.62-.32,1.28-.78,2-1.39v-3.91c-1.58,.19-2.84,.44-3.77,.74-.93,.3-1.59,.68-1.99,1.14-.4,.46-.6,.99-.6,1.6,0,.83,.24,1.42,.73,1.78,.49,.35,1.06,.53,1.72,.53Z" fill="#231f20"/><path d="M1446.85,2113.07c-.43,0-.82-.08-1.18-.24l.24-.94c.13,.05,.28,.09,.44,.13s.33,.06,.49,.06c.7,0,1.3-.29,1.79-.86,.49-.58,.88-1.3,1.16-2.18l.31-1.01-4.73-11.74h1.15l2.78,7.25c.18,.48,.38,1.01,.6,1.58,.22,.58,.44,1.12,.65,1.63h.1c.18-.51,.36-1.06,.54-1.63,.18-.58,.36-1.1,.52-1.58l2.47-7.25h1.08l-4.56,12.96c-.21,.64-.48,1.25-.83,1.84-.34,.58-.76,1.06-1.26,1.43-.5,.37-1.09,.55-1.78,.55Z" fill="#231f20"/><path d="M1461.97,2108.11c-.91,0-1.76-.24-2.54-.71-.78-.47-1.42-1.16-1.9-2.06-.48-.9-.72-1.99-.72-3.25s.24-2.4,.72-3.3c.48-.9,1.11-1.59,1.9-2.06,.78-.47,1.63-.71,2.54-.71s1.78,.24,2.57,.71c.78,.47,1.42,1.16,1.9,2.06,.48,.9,.72,2,.72,3.3s-.24,2.35-.72,3.25c-.48,.9-1.11,1.59-1.9,2.06s-1.64,.71-2.57,.71Zm0-.94c.78,0,1.48-.22,2.09-.65,.61-.43,1.09-1.03,1.45-1.79,.36-.76,.54-1.64,.54-2.65s-.18-1.92-.54-2.69c-.36-.77-.84-1.37-1.45-1.8-.61-.43-1.3-.65-2.09-.65s-1.46,.22-2.08,.65c-.62,.43-1.1,1.03-1.45,1.8s-.53,1.66-.53,2.69,.18,1.89,.53,2.65c.35,.76,.84,1.36,1.45,1.79,.62,.43,1.31,.65,2.08,.65Z" fill="#231f20"/><path d="M1473.92,2108.11c-1.18,0-2.06-.36-2.63-1.09-.57-.73-.85-1.84-.85-3.32v-7.39h1.06v7.25c0,1.22,.2,2.12,.61,2.71s1.08,.89,2,.89c.69,0,1.31-.19,1.87-.56,.56-.38,1.18-.97,1.85-1.79v-8.5h1.06v11.52h-.89l-.12-1.92h-.05c-.56,.66-1.15,1.19-1.78,1.6-.62,.41-1.34,.61-2.14,.61Z" fill="#231f20"/><path d="M1486.45,2108.11c-1.12,0-1.88-.32-2.28-.97-.4-.65-.6-1.48-.6-2.51v-7.42h-1.8v-.82l1.82-.1,.14-3.34h.91v3.34h3.34v.91h-3.34v7.51c0,.74,.13,1.33,.38,1.78,.26,.45,.78,.67,1.56,.67,.22,0,.47-.04,.73-.11,.26-.07,.5-.16,.71-.25l.29,.86c-.34,.11-.68,.21-1.02,.3-.34,.09-.63,.13-.85,.13Z" fill="#231f20"/></g><g><path d="M1331.73,2026.44v-15.82h1.56l3.31,9.29c.21,.58,.42,1.16,.62,1.74,.21,.58,.42,1.17,.62,1.76h.1c.21-.59,.41-1.18,.6-1.76,.19-.58,.39-1.16,.6-1.74l3.29-9.29h1.58v15.82h-1.08v-10.39c0-.66,.02-1.37,.05-2.13,.03-.77,.06-1.48,.1-2.14h-.1l-1.22,3.53-3.41,9.41h-.96l-3.43-9.41-1.25-3.53h-.1c.03,.66,.06,1.37,.1,2.14,.03,.77,.05,1.48,.05,2.13v10.39h-1.03Z" fill="#231f20"/><path d="M1351.07,2026.73c-.91,0-1.7-.26-2.35-.77s-.98-1.31-.98-2.4c0-1.28,.6-2.25,1.8-2.92,1.2-.66,3.08-1.14,5.64-1.43,.02-.59-.05-1.16-.19-1.71-.14-.55-.41-1.01-.8-1.38-.39-.37-.97-.55-1.74-.55s-1.47,.15-2.11,.46c-.64,.3-1.16,.6-1.56,.89l-.48-.79c.27-.19,.62-.4,1.06-.64,.43-.23,.92-.43,1.48-.6,.55-.17,1.14-.25,1.76-.25,.91,0,1.63,.2,2.16,.6,.53,.4,.91,.93,1.14,1.6,.23,.66,.35,1.41,.35,2.24v7.37h-.91l-.1-1.49h-.07c-.59,.46-1.23,.88-1.92,1.24-.69,.36-1.41,.54-2.16,.54Zm.19-.91c.66,0,1.29-.16,1.91-.48,.62-.32,1.28-.78,2-1.39v-3.91c-1.58,.19-2.84,.44-3.77,.74-.93,.3-1.59,.68-1.99,1.14-.4,.46-.6,.99-.6,1.6,0,.83,.24,1.42,.73,1.78,.49,.35,1.06,.53,1.72,.53Z" fill="#231f20"/><path d="M1360.33,2026.44v-11.52h.91l.1,2.14h.07c.38-.7,.85-1.28,1.4-1.74,.55-.46,1.17-.68,1.86-.68,.22,0,.42,.02,.6,.05,.18,.03,.36,.1,.55,.19l-.24,.96c-.19-.08-.36-.13-.5-.16-.14-.02-.33-.04-.55-.04-.51,0-1.05,.22-1.62,.66-.57,.44-1.08,1.21-1.52,2.29v7.85h-1.06Z" fill="#231f20"/><path d="M1371.47,2031.98c-1.46,0-2.61-.29-3.46-.86-.85-.58-1.27-1.35-1.27-2.33,0-.51,.15-1.01,.46-1.49,.3-.48,.72-.91,1.25-1.29v-.1c-.29-.18-.53-.42-.72-.72-.19-.3-.29-.68-.29-1.13,0-.51,.14-.95,.43-1.31,.29-.36,.56-.63,.82-.8v-.1c-.35-.32-.68-.76-.98-1.31-.3-.55-.46-1.17-.46-1.86,0-.8,.18-1.5,.54-2.11,.36-.61,.85-1.08,1.46-1.43,.62-.34,1.3-.52,2.05-.52,.32,0,.61,.03,.86,.08,.26,.06,.47,.12,.65,.21h3.91v.89h-2.69c.37,.32,.67,.73,.91,1.24s.36,1.06,.36,1.67c0,.79-.18,1.48-.53,2.09-.35,.61-.83,1.09-1.44,1.44-.61,.35-1.29,.53-2.04,.53-.32,0-.65-.04-1-.12-.34-.08-.65-.2-.92-.36-.26,.21-.48,.44-.66,.7-.18,.26-.28,.58-.28,.96,0,.42,.15,.77,.46,1.07,.3,.3,.89,.44,1.75,.44h2.47c1.3,0,2.25,.21,2.87,.64s.92,1.09,.92,2c0,.66-.22,1.28-.67,1.88s-1.08,1.08-1.9,1.45c-.82,.37-1.78,.55-2.88,.55Zm.12-.86c.86,0,1.61-.14,2.24-.43s1.12-.65,1.48-1.09c.35-.44,.53-.9,.53-1.38,0-.64-.23-1.09-.68-1.36s-1.12-.4-1.98-.4h-2.47c-.11,0-.3-.02-.58-.05-.27-.03-.56-.08-.86-.14-.53,.35-.91,.74-1.15,1.16s-.36,.84-.36,1.26c0,.72,.34,1.3,1.01,1.75s1.62,.67,2.83,.67Zm-.29-9.19c.53,0,1.02-.14,1.48-.41s.82-.65,1.09-1.14c.27-.49,.41-1.05,.41-1.69,0-.98-.29-1.75-.88-2.33s-1.28-.86-2.1-.86-1.52,.28-2.11,.85c-.59,.57-.89,1.35-.89,2.34,0,.64,.14,1.2,.42,1.69,.28,.49,.65,.87,1.1,1.14s.95,.41,1.48,.41Z" fill="#231f20"/><path d="M1379.94,2012.14c-.26,0-.47-.09-.65-.26-.18-.18-.26-.42-.26-.72,0-.27,.09-.5,.26-.67s.39-.26,.65-.26c.27,0,.49,.09,.66,.26,.17,.18,.25,.4,.25,.67,0,.3-.08,.54-.25,.72-.17,.18-.39,.26-.66,.26Zm-.55,14.3v-11.52h1.06v11.52h-1.06Z" fill="#231f20"/><path d="M1384.89,2026.44v-11.52h.91l.1,1.78h.07c.59-.59,1.2-1.08,1.84-1.48,.63-.39,1.34-.59,2.12-.59,1.18,0,2.06,.37,2.63,1.09,.57,.73,.85,1.84,.85,3.32v7.39h-1.06v-7.25c0-1.23-.2-2.14-.61-2.72-.41-.58-1.08-.88-2.03-.88-.69,0-1.31,.18-1.87,.54-.56,.36-1.19,.9-1.9,1.62v8.69h-1.06Z" fill="#231f20"/></g><g><path d="M1335.86,1945.35c-1.15,0-2.18-.22-3.07-.67s-1.66-1.02-2.28-1.7l.72-.77c.58,.64,1.26,1.16,2.06,1.55s1.66,.59,2.57,.59c1.22,0,2.18-.3,2.88-.89s1.06-1.35,1.06-2.28c0-.66-.13-1.18-.38-1.58s-.6-.73-1.02-1c-.42-.26-.9-.51-1.43-.73l-2.4-1.08c-.45-.21-.92-.47-1.43-.78-.5-.31-.93-.72-1.27-1.22s-.52-1.15-.52-1.93,.2-1.44,.6-2.03c.4-.58,.95-1.04,1.64-1.37,.7-.33,1.48-.49,2.36-.49,.94,0,1.79,.19,2.54,.56,.75,.38,1.37,.82,1.85,1.33l-.62,.72c-.46-.48-1.01-.87-1.63-1.16-.62-.3-1.34-.45-2.14-.45-1.04,0-1.88,.26-2.53,.77-.65,.51-.97,1.2-.97,2.06,0,.61,.15,1.1,.44,1.49,.3,.38,.66,.7,1.08,.94,.42,.24,.83,.45,1.21,.62l2.4,1.06c.59,.26,1.14,.56,1.64,.9s.91,.78,1.22,1.3c.31,.52,.47,1.19,.47,2s-.21,1.52-.62,2.17c-.42,.65-1,1.16-1.76,1.52-.76,.37-1.65,.55-2.68,.55Z" fill="#231f20"/><path d="M1346.63,1945.35c-.91,0-1.7-.26-2.35-.77s-.98-1.31-.98-2.4c0-1.28,.6-2.25,1.8-2.92,1.2-.66,3.08-1.14,5.64-1.43,.02-.59-.05-1.16-.19-1.72-.14-.55-.41-1.01-.8-1.38-.39-.37-.97-.55-1.74-.55s-1.47,.15-2.11,.46c-.64,.3-1.16,.6-1.56,.89l-.48-.79c.27-.19,.62-.4,1.06-.64s.92-.43,1.48-.6c.55-.17,1.14-.25,1.76-.25,.91,0,1.63,.2,2.16,.6,.53,.4,.91,.93,1.14,1.6,.23,.66,.35,1.41,.35,2.24v7.37h-.91l-.1-1.49h-.07c-.59,.46-1.23,.88-1.92,1.24-.69,.36-1.41,.54-2.16,.54Zm.19-.91c.66,0,1.29-.16,1.91-.48,.62-.32,1.28-.78,2-1.39v-3.91c-1.58,.19-2.84,.44-3.77,.74-.93,.3-1.59,.68-1.99,1.14-.4,.46-.6,.99-.6,1.6,0,.83,.24,1.42,.73,1.78,.49,.35,1.06,.53,1.72,.53Z" fill="#231f20"/><path d="M1356.06,1945.06v-10.61h-1.58v-.82l1.58-.1v-2.57c0-1.14,.25-2,.74-2.58s1.2-.88,2.11-.88c.56,0,1.12,.13,1.68,.38l-.29,.86c-.24-.13-.48-.22-.71-.26-.23-.05-.46-.07-.68-.07-.61,0-1.06,.22-1.36,.67-.3,.45-.44,1.1-.44,1.94v2.5h2.66v.91h-2.66v10.61h-1.06Z" fill="#231f20"/><path d="M1366.33,1945.35c-.98,0-1.87-.24-2.68-.72-.81-.48-1.45-1.17-1.93-2.08-.48-.9-.72-1.98-.72-3.23s.24-2.35,.72-3.25c.48-.9,1.1-1.6,1.87-2.09,.77-.49,1.58-.73,2.42-.73,1.38,0,2.46,.46,3.24,1.39,.78,.93,1.18,2.24,1.18,3.94,0,.14,0,.29-.01,.43s-.03,.29-.06,.43h-8.28c.02,.96,.2,1.82,.56,2.57,.36,.75,.86,1.34,1.51,1.78,.65,.43,1.4,.65,2.27,.65,.62,0,1.19-.1,1.69-.29s.97-.44,1.4-.74l.43,.82c-.45,.27-.95,.53-1.51,.77-.56,.24-1.26,.36-2.11,.36Zm-4.25-6.77h7.34c0-1.47-.3-2.58-.91-3.31s-1.43-1.1-2.47-1.1c-.66,0-1.27,.18-1.84,.53-.57,.35-1.04,.86-1.43,1.51-.38,.66-.62,1.45-.7,2.38Z" fill="#231f20"/><path d="M1380.88,1945.35c-.91,0-1.7-.26-2.35-.77s-.98-1.31-.98-2.4c0-1.28,.6-2.25,1.8-2.92,1.2-.66,3.08-1.14,5.64-1.43,.02-.59-.05-1.16-.19-1.72-.14-.55-.41-1.01-.8-1.38-.39-.37-.97-.55-1.74-.55s-1.47,.15-2.11,.46c-.64,.3-1.16,.6-1.56,.89l-.48-.79c.27-.19,.62-.4,1.06-.64s.92-.43,1.48-.6c.55-.17,1.14-.25,1.76-.25,.91,0,1.63,.2,2.16,.6,.53,.4,.91,.93,1.14,1.6,.23,.66,.35,1.41,.35,2.24v7.37h-.91l-.1-1.49h-.07c-.59,.46-1.23,.88-1.92,1.24-.69,.36-1.41,.54-2.16,.54Zm.19-.91c.66,0,1.29-.16,1.91-.48,.62-.32,1.28-.78,2-1.39v-3.91c-1.58,.19-2.84,.44-3.77,.74-.93,.3-1.59,.68-1.99,1.14-.4,.46-.6,.99-.6,1.6,0,.83,.24,1.42,.73,1.78,.49,.35,1.06,.53,1.72,.53Z" fill="#231f20"/><path d="M1390.14,1945.06v-11.52h.91l.1,2.14h.07c.38-.7,.85-1.28,1.4-1.74,.55-.46,1.17-.68,1.86-.68,.22,0,.42,.02,.6,.05,.18,.03,.36,.1,.55,.19l-.24,.96c-.19-.08-.36-.13-.5-.16-.14-.02-.33-.04-.55-.04-.51,0-1.05,.22-1.62,.66-.57,.44-1.08,1.2-1.52,2.29v7.85h-1.06Z" fill="#231f20"/><path d="M1401.88,1945.35c-.98,0-1.87-.24-2.68-.72-.81-.48-1.45-1.17-1.93-2.08-.48-.9-.72-1.98-.72-3.23s.24-2.35,.72-3.25c.48-.9,1.1-1.6,1.87-2.09,.77-.49,1.58-.73,2.42-.73,1.38,0,2.46,.46,3.24,1.39,.78,.93,1.18,2.24,1.18,3.94,0,.14,0,.29-.01,.43s-.03,.29-.06,.43h-8.28c.02,.96,.2,1.82,.56,2.57,.36,.75,.86,1.34,1.51,1.78,.65,.43,1.4,.65,2.27,.65,.62,0,1.19-.1,1.69-.29s.97-.44,1.4-.74l.43,.82c-.45,.27-.95,.53-1.51,.77-.56,.24-1.26,.36-2.11,.36Zm-4.25-6.77h7.34c0-1.47-.3-2.58-.91-3.31s-1.43-1.1-2.47-1.1c-.66,0-1.27,.18-1.84,.53-.57,.35-1.04,.86-1.43,1.51-.38,.66-.62,1.45-.7,2.38Z" fill="#231f20"/><path d="M1411.26,1945.35c-.91,0-1.7-.26-2.35-.77s-.98-1.31-.98-2.4c0-1.28,.6-2.25,1.8-2.92,1.2-.66,3.08-1.14,5.64-1.43,.02-.59-.05-1.16-.19-1.72-.14-.55-.41-1.01-.8-1.38-.39-.37-.97-.55-1.74-.55s-1.47,.15-2.11,.46c-.64,.3-1.16,.6-1.56,.89l-.48-.79c.27-.19,.62-.4,1.06-.64s.92-.43,1.48-.6c.55-.17,1.14-.25,1.76-.25,.91,0,1.63,.2,2.16,.6,.53,.4,.91,.93,1.14,1.6,.23,.66,.35,1.41,.35,2.24v7.37h-.91l-.1-1.49h-.07c-.59,.46-1.23,.88-1.92,1.24-.69,.36-1.41,.54-2.16,.54Zm.19-.91c.66,0,1.29-.16,1.91-.48,.62-.32,1.28-.78,2-1.39v-3.91c-1.58,.19-2.84,.44-3.77,.74-.93,.3-1.59,.68-1.99,1.14-.4,.46-.6,.99-.6,1.6,0,.83,.24,1.42,.73,1.78,.49,.35,1.06,.53,1.72,.53Z" fill="#231f20"/></g><g><line x1="869.25" y1="1497.96" x2="916.92" y2="1497.96" fill="none" stroke="#ed1c24" stroke-miterlimit="10" stroke-width=".75"/><g><line x1="893.08" y1="1567.15" x2="893.08" y2="1498.77" fill="none" stroke="#ed1c24" stroke-miterlimit="10" stroke-width=".75"/><polygon points="896.15 1564.66 895.6 1564.15 893.08 1566.86 890.57 1564.15 890.02 1564.66 893.08 1567.96 896.15 1564.66" fill="#ed1c24"/><polygon points="896.15 1501.26 895.6 1501.77 893.08 1499.06 890.57 1501.77 890.02 1501.26 893.08 1497.96 896.15 1501.26" fill="#ed1c24"/></g><line x1="916.92" y1="1567.96" x2="869.25" y2="1567.96" fill="none" stroke="#ed1c24" stroke-miterlimit="10" stroke-width=".75"/></g><g><path d="M929.03,1538.98c.08-2.06,.29-3.91,.62-5.54,.34-1.63,.83-3.16,1.49-4.57s1.5-2.84,2.52-4.28h-8.09v-.94h9.43v.62c-.91,1.21-1.67,2.39-2.27,3.52-.6,1.13-1.08,2.27-1.43,3.42-.35,1.15-.61,2.36-.78,3.62-.17,1.26-.28,2.65-.35,4.15h-1.15Z" fill="#231f20"/><path d="M941.75,1539.27c-1.46,0-2.58-.7-3.38-2.09-.8-1.39-1.2-3.37-1.2-5.93s.4-4.5,1.2-5.86c.8-1.36,1.93-2.04,3.38-2.04s2.6,.68,3.4,2.04c.79,1.36,1.19,3.31,1.19,5.86s-.4,4.54-1.19,5.93c-.79,1.39-1.92,2.09-3.4,2.09Zm0-.91c1.07,0,1.92-.6,2.56-1.8,.63-1.2,.95-2.97,.95-5.3s-.32-4.08-.95-5.24c-.63-1.16-1.48-1.74-2.56-1.74s-1.9,.58-2.54,1.74c-.64,1.16-.96,2.91-.96,5.24s.32,4.1,.96,5.3c.64,1.2,1.49,1.8,2.54,1.8Z" fill="#231f20"/><path d="M954.51,1544.19v-16.73h.91l.1,1.44h.07c.56-.45,1.18-.85,1.85-1.2s1.36-.53,2.06-.53c1.54,0,2.69,.53,3.46,1.6,.77,1.06,1.15,2.49,1.15,4.28,0,1.3-.24,2.41-.71,3.34s-1.09,1.64-1.86,2.14c-.77,.5-1.61,.74-2.52,.74-.54,0-1.1-.12-1.68-.37s-1.17-.6-1.78-1.04v6.34h-1.06Zm4.46-5.86c.78,0,1.48-.22,2.08-.67s1.07-1.07,1.42-1.86c.34-.79,.52-1.71,.52-2.75,0-.94-.12-1.79-.36-2.53-.24-.74-.63-1.33-1.16-1.76-.54-.43-1.24-.65-2.12-.65-.58,0-1.17,.16-1.79,.49-.62,.33-1.28,.79-1.98,1.4v6.84c.66,.54,1.28,.93,1.86,1.15s1.1,.34,1.55,.34Z" fill="#231f20"/><path d="M965.41,1538.98l3.91-6.02-3.6-5.5h1.18l1.87,2.93c.19,.3,.39,.62,.6,.94,.21,.32,.42,.64,.62,.96h.1c.21-.32,.4-.64,.59-.96,.18-.32,.38-.63,.59-.94l1.8-2.93h1.1l-3.58,5.59,3.91,5.93h-1.18l-2.04-3.14c-.21-.37-.43-.73-.66-1.08-.23-.35-.47-.7-.71-1.03h-.1c-.22,.34-.44,.68-.66,1.03-.22,.35-.44,.71-.66,1.08l-1.97,3.14h-1.13Z" fill="#231f20"/></g><g><line x1="2095.53" y1="1221.96" x2="2143.19" y2="1221.96" fill="none" stroke="#ed1c24" stroke-miterlimit="10" stroke-width=".75"/><g><line x1="2119.36" y1="1497.15" x2="2119.36" y2="1222.78" fill="none" stroke="#ed1c24" stroke-miterlimit="10" stroke-width=".75"/><polygon points="2122.43 1494.66 2121.88 1494.15 2119.36 1496.86 2116.84 1494.15 2116.29 1494.66 2119.36 1497.96 2122.43 1494.66" fill="#ed1c24"/><polygon points="2122.43 1225.26 2121.88 1225.77 2119.36 1223.07 2116.84 1225.77 2116.29 1225.26 2119.36 1221.96 2122.43 1225.26" fill="#ed1c24"/></g><line x1="2143.19" y1="1497.96" x2="2095.53" y2="1497.96" fill="none" stroke="#ed1c24" stroke-miterlimit="10" stroke-width=".75"/></g><g><path d="M2155.29,1365.99c.08-2.06,.29-3.91,.62-5.54,.34-1.63,.83-3.16,1.49-4.57s1.5-2.84,2.52-4.28h-8.09v-.94h9.43v.62c-.91,1.22-1.67,2.39-2.27,3.52-.6,1.13-1.08,2.27-1.43,3.42-.35,1.15-.61,2.36-.78,3.62s-.28,2.65-.35,4.15h-1.15Z" fill="#231f20"/><path d="M2168.01,1366.27c-1.46,0-2.58-.7-3.38-2.09-.8-1.39-1.2-3.37-1.2-5.93s.4-4.5,1.2-5.86c.8-1.36,1.93-2.04,3.38-2.04s2.6,.68,3.4,2.04c.79,1.36,1.19,3.31,1.19,5.86s-.4,4.54-1.19,5.93c-.79,1.39-1.92,2.09-3.4,2.09Zm0-.91c1.07,0,1.92-.6,2.56-1.8,.63-1.2,.95-2.97,.95-5.3s-.32-4.08-.95-5.24-1.48-1.74-2.56-1.74-1.9,.58-2.54,1.74c-.64,1.16-.96,2.91-.96,5.24s.32,4.1,.96,5.3c.64,1.2,1.49,1.8,2.54,1.8Z" fill="#231f20"/><path d="M2180.78,1371.19v-16.73h.91l.1,1.44h.07c.56-.45,1.18-.85,1.85-1.2s1.36-.53,2.06-.53c1.54,0,2.69,.53,3.46,1.6,.77,1.06,1.15,2.49,1.15,4.28,0,1.3-.24,2.41-.71,3.34s-1.09,1.64-1.86,2.13c-.77,.5-1.61,.74-2.52,.74-.54,0-1.1-.12-1.68-.37s-1.17-.6-1.78-1.04v6.34h-1.06Zm4.46-5.86c.78,0,1.48-.22,2.08-.67s1.07-1.07,1.42-1.86c.34-.79,.52-1.71,.52-2.75,0-.94-.12-1.79-.36-2.53-.24-.74-.63-1.33-1.16-1.76-.54-.43-1.24-.65-2.12-.65-.58,0-1.17,.17-1.79,.49-.62,.33-1.28,.8-1.98,1.4v6.84c.66,.54,1.28,.93,1.86,1.15s1.1,.34,1.55,.34Z" fill="#231f20"/><path d="M2191.67,1365.99l3.91-6.02-3.6-5.5h1.18l1.87,2.93c.19,.3,.39,.62,.6,.94s.42,.64,.62,.96h.1c.21-.32,.4-.64,.59-.96,.18-.32,.38-.63,.59-.94l1.8-2.93h1.1l-3.58,5.59,3.91,5.93h-1.18l-2.04-3.14c-.21-.37-.43-.73-.66-1.08-.23-.35-.47-.7-.71-1.03h-.1c-.22,.34-.44,.68-.66,1.03s-.44,.71-.66,1.08l-1.97,3.14h-1.13Z" fill="#231f20"/></g><g><line x1="2095.53" y1="168.25" x2="2143.2" y2="168.25" fill="none" stroke="#ed1c24" stroke-miterlimit="10" stroke-width=".75"/><g><line x1="2119.37" y1="828.7" x2="2119.37" y2="169.07" fill="none" stroke="#ed1c24" stroke-miterlimit="10" stroke-width=".75"/><polygon points="2122.43 826.22 2121.88 825.71 2119.37 828.42 2116.85 825.71 2116.3 826.22 2119.37 829.52 2122.43 826.22" fill="#ed1c24"/><polygon points="2122.43 171.55 2121.88 172.06 2119.37 169.35 2116.85 172.06 2116.3 171.55 2119.37 168.25 2122.43 171.55" fill="#ed1c24"/></g><line x1="2143.2" y1="829.52" x2="2095.53" y2="829.52" fill="none" stroke="#ed1c24" stroke-miterlimit="10" stroke-width=".75"/></g><g><line x1="1688.85" y1="72.25" x2="1736.51" y2="72.25" fill="none" stroke="#ed1c24" stroke-miterlimit="10" stroke-width=".75"/><g><line x1="1712.68" y1="535.44" x2="1712.68" y2="73.06" fill="none" stroke="#ed1c24" stroke-miterlimit="10" stroke-width=".75"/><polygon points="1715.75 532.95 1715.2 532.44 1712.68 535.15 1710.16 532.44 1709.61 532.95 1712.68 536.25 1715.75 532.95" fill="#ed1c24"/><polygon points="1715.75 75.55 1715.2 76.06 1712.68 73.35 1710.16 76.06 1709.61 75.55 1712.68 72.25 1715.75 75.55" fill="#ed1c24"/></g><line x1="1736.51" y1="536.25" x2="1688.85" y2="536.25" fill="none" stroke="#ed1c24" stroke-miterlimit="10" stroke-width=".75"/></g><g><path d="M2151.29,505.2c-1.54,0-2.76-.63-3.66-1.88-.9-1.26-1.36-3.04-1.36-5.36,0-1.62,.15-2.98,.46-4.08,.3-1.1,.72-1.99,1.25-2.66s1.13-1.16,1.81-1.46c.68-.3,1.39-.46,2.12-.46s1.34,.14,1.86,.41c.52,.27,.98,.63,1.38,1.08l-.65,.72c-.34-.42-.73-.73-1.18-.95-.45-.22-.92-.32-1.42-.32-.82,0-1.57,.24-2.27,.72-.7,.48-1.25,1.27-1.67,2.38s-.62,2.59-.62,4.46c.53-.66,1.13-1.18,1.8-1.56,.67-.38,1.36-.58,2.06-.58,1.34,0,2.39,.4,3.14,1.21s1.13,1.99,1.13,3.54c0,.93-.19,1.75-.58,2.47-.38,.72-.89,1.29-1.52,1.7-.63,.42-1.33,.62-2.1,.62Zm-.19-8.64c-.54,0-1.14,.17-1.8,.52-.66,.34-1.3,.94-1.92,1.79,.1,1.62,.46,2.92,1.1,3.92,.64,1,1.58,1.5,2.83,1.5,.59,0,1.12-.17,1.58-.52,.46-.34,.83-.81,1.1-1.39,.27-.58,.41-1.24,.41-1.98,0-1.1-.26-2.02-.78-2.75-.52-.73-1.36-1.09-2.53-1.09Z" fill="#231f20"/><path d="M2162.79,505.2c-1.54,0-2.76-.63-3.66-1.88-.9-1.26-1.36-3.04-1.36-5.36,0-1.62,.15-2.98,.46-4.08,.3-1.1,.72-1.99,1.25-2.66s1.13-1.16,1.81-1.46c.68-.3,1.39-.46,2.12-.46s1.34,.14,1.86,.41c.52,.27,.98,.63,1.38,1.08l-.65,.72c-.34-.42-.73-.73-1.18-.95-.45-.22-.92-.32-1.42-.32-.82,0-1.57,.24-2.27,.72-.7,.48-1.25,1.27-1.67,2.38s-.62,2.59-.62,4.46c.53-.66,1.13-1.18,1.8-1.56,.67-.38,1.36-.58,2.06-.58,1.34,0,2.39,.4,3.14,1.21s1.13,1.99,1.13,3.54c0,.93-.19,1.75-.58,2.47-.38,.72-.89,1.29-1.52,1.7-.63,.42-1.33,.62-2.1,.62Zm-.19-8.64c-.54,0-1.14,.17-1.8,.52-.66,.34-1.3,.94-1.92,1.79,.1,1.62,.46,2.92,1.1,3.92,.64,1,1.58,1.5,2.83,1.5,.59,0,1.12-.17,1.58-.52,.46-.34,.83-.81,1.1-1.39,.27-.58,.41-1.24,.41-1.98,0-1.1-.26-2.02-.78-2.75-.52-.73-1.36-1.09-2.53-1.09Z" fill="#231f20"/><path d="M2170.04,504.91v-.94h3.6v-12.72h-2.74v-.72c.62-.11,1.18-.25,1.68-.41,.5-.16,.92-.34,1.27-.55h.86v14.4h3.34v.94h-8.02Z" fill="#231f20"/><path d="M2186.53,510.12v-16.73h.91l.1,1.44h.07c.56-.45,1.18-.85,1.85-1.2,.67-.35,1.36-.53,2.06-.53,1.54,0,2.69,.53,3.46,1.6,.77,1.06,1.15,2.49,1.15,4.28,0,1.3-.24,2.41-.71,3.34s-1.09,1.64-1.86,2.14c-.77,.5-1.61,.74-2.52,.74-.54,0-1.1-.12-1.68-.37s-1.17-.6-1.78-1.04v6.34h-1.06Zm4.46-5.86c.78,0,1.48-.22,2.08-.67,.6-.45,1.07-1.07,1.42-1.86,.34-.79,.52-1.71,.52-2.75,0-.94-.12-1.79-.36-2.53-.24-.74-.63-1.33-1.16-1.76-.54-.43-1.24-.65-2.12-.65-.58,0-1.17,.17-1.79,.49-.62,.33-1.28,.8-1.98,1.4v6.84c.66,.54,1.28,.93,1.86,1.15,.58,.22,1.1,.34,1.55,.34Z" fill="#231f20"/><path d="M2197.42,504.91l3.91-6.02-3.6-5.5h1.18l1.87,2.93c.19,.3,.39,.62,.6,.94l.62,.96h.1c.21-.32,.4-.64,.59-.96,.18-.32,.38-.63,.59-.94l1.8-2.93h1.1l-3.58,5.59,3.91,5.93h-1.18l-2.04-3.14c-.21-.37-.43-.73-.66-1.08-.23-.35-.47-.7-.71-1.03h-.1c-.22,.34-.44,.68-.66,1.03-.22,.35-.44,.71-.66,1.08l-1.97,3.14h-1.13Z" fill="#231f20"/></g><g><path d="M1631.76,310.27v-4.58h-7.06v-.62l7.13-10.13h.96v9.84h2.28v.91h-2.28v4.58h-1.03Zm-5.76-5.5h5.76v-5.62c0-.35,.01-.79,.04-1.32,.02-.53,.04-.97,.06-1.32h-.1c-.19,.32-.39,.63-.6,.94s-.42,.63-.65,.98l-4.51,6.34Z" fill="#231f20"/><path d="M1642.08,310.56c-1.54,0-2.76-.63-3.66-1.88-.9-1.26-1.36-3.04-1.36-5.36,0-1.62,.15-2.98,.46-4.08,.3-1.1,.72-1.99,1.25-2.66s1.13-1.16,1.81-1.46c.68-.3,1.39-.46,2.12-.46s1.34,.14,1.86,.41c.52,.27,.98,.63,1.38,1.08l-.65,.72c-.34-.42-.73-.73-1.18-.95-.45-.22-.92-.32-1.42-.32-.82,0-1.57,.24-2.27,.72s-1.25,1.27-1.67,2.38c-.42,1.1-.62,2.59-.62,4.46,.53-.66,1.13-1.18,1.8-1.56s1.36-.58,2.06-.58c1.34,0,2.39,.4,3.14,1.21,.75,.81,1.13,1.99,1.13,3.54,0,.93-.19,1.75-.58,2.47-.38,.72-.89,1.29-1.52,1.7-.63,.42-1.33,.62-2.1,.62Zm-.19-8.64c-.54,0-1.14,.17-1.8,.52-.66,.34-1.3,.94-1.92,1.79,.1,1.62,.46,2.92,1.1,3.92,.64,1,1.58,1.5,2.83,1.5,.59,0,1.12-.17,1.58-.52s.83-.81,1.1-1.39c.27-.58,.41-1.24,.41-1.98,0-1.1-.26-2.02-.78-2.75-.52-.73-1.36-1.09-2.53-1.09Z" fill="#231f20"/><path d="M1654.75,310.27v-4.58h-7.06v-.62l7.13-10.13h.96v9.84h2.28v.91h-2.28v4.58h-1.03Zm-5.76-5.5h5.76v-5.62c0-.35,.01-.79,.04-1.32,.02-.53,.04-.97,.06-1.32h-.1c-.19,.32-.39,.63-.6,.94s-.42,.63-.65,.98l-4.51,6.34Z" fill="#231f20"/><path d="M1665.82,315.48v-16.73h.91l.1,1.44h.07c.56-.45,1.18-.85,1.85-1.2,.67-.35,1.36-.53,2.06-.53,1.54,0,2.69,.53,3.46,1.6,.77,1.06,1.15,2.49,1.15,4.28,0,1.3-.24,2.41-.71,3.34s-1.09,1.64-1.86,2.14c-.77,.5-1.61,.74-2.52,.74-.54,0-1.1-.12-1.68-.37s-1.17-.6-1.78-1.04v6.34h-1.06Zm4.46-5.86c.78,0,1.48-.22,2.08-.67,.6-.45,1.07-1.07,1.42-1.86,.34-.79,.52-1.71,.52-2.75,0-.94-.12-1.79-.36-2.53-.24-.74-.63-1.33-1.16-1.76-.54-.43-1.24-.65-2.12-.65-.58,0-1.17,.17-1.79,.49-.62,.33-1.28,.8-1.98,1.4v6.84c.66,.54,1.28,.93,1.86,1.15,.58,.22,1.1,.34,1.55,.34Z" fill="#231f20"/><path d="M1676.71,310.27l3.91-6.02-3.6-5.5h1.18l1.87,2.93c.19,.3,.39,.62,.6,.94,.21,.32,.42,.64,.62,.96h.1c.21-.32,.4-.64,.59-.96,.18-.32,.38-.63,.59-.94l1.8-2.93h1.1l-3.58,5.59,3.91,5.93h-1.18l-2.04-3.14c-.21-.37-.43-.73-.66-1.08-.23-.35-.47-.7-.71-1.03h-.1c-.22,.34-.44,.68-.66,1.03s-.44,.71-.66,1.08l-1.97,3.14h-1.13Z" fill="#231f20"/></g><g><line x1="2095.53" y1="1708.43" x2="2143.19" y2="1708.43" fill="none" stroke="#ed1c24" stroke-miterlimit="10" stroke-width=".75"/><g><line x1="2119.36" y1="1836.56" x2="2119.36" y2="1709.24" fill="none" stroke="#ed1c24" stroke-miterlimit="10" stroke-width=".75"/><polygon points="2122.43 1834.08 2121.88 1833.57 2119.36 1836.27 2116.84 1833.57 2116.29 1834.08 2119.36 1837.38 2122.43 1834.08" fill="#ed1c24"/><polygon points="2122.43 1711.72 2121.88 1712.24 2119.36 1709.53 2116.84 1712.24 2116.29 1711.72 2119.36 1708.43 2122.43 1711.72" fill="#ed1c24"/></g><line x1="2143.19" y1="1837.38" x2="2095.53" y2="1837.38" fill="none" stroke="#ed1c24" stroke-miterlimit="10" stroke-width=".75"/></g><g><path d="M2155.29,1778.93c.08-2.06,.29-3.91,.62-5.54,.34-1.63,.83-3.16,1.49-4.57s1.5-2.84,2.52-4.28h-8.09v-.94h9.43v.62c-.91,1.22-1.67,2.39-2.27,3.52-.6,1.13-1.08,2.27-1.43,3.42-.35,1.15-.61,2.36-.78,3.62s-.28,2.65-.35,4.15h-1.15Z" fill="#231f20"/><path d="M2168.01,1779.21c-1.46,0-2.58-.7-3.38-2.09-.8-1.39-1.2-3.37-1.2-5.93s.4-4.5,1.2-5.86c.8-1.36,1.93-2.04,3.38-2.04s2.6,.68,3.4,2.04c.79,1.36,1.19,3.31,1.19,5.86s-.4,4.54-1.19,5.93c-.79,1.39-1.92,2.09-3.4,2.09Zm0-.91c1.07,0,1.92-.6,2.56-1.8,.63-1.2,.95-2.97,.95-5.3s-.32-4.08-.95-5.24-1.48-1.74-2.56-1.74-1.9,.58-2.54,1.74c-.64,1.16-.96,2.91-.96,5.24s.32,4.1,.96,5.3c.64,1.2,1.49,1.8,2.54,1.8Z" fill="#231f20"/><path d="M2180.78,1784.13v-16.73h.91l.1,1.44h.07c.56-.45,1.18-.85,1.85-1.2s1.36-.53,2.06-.53c1.54,0,2.69,.53,3.46,1.6,.77,1.06,1.15,2.49,1.15,4.28,0,1.3-.24,2.41-.71,3.34s-1.09,1.64-1.86,2.13c-.77,.5-1.61,.74-2.52,.74-.54,0-1.1-.12-1.68-.37s-1.17-.6-1.78-1.04v6.34h-1.06Zm4.46-5.86c.78,0,1.48-.22,2.08-.67s1.07-1.07,1.42-1.86c.34-.79,.52-1.71,.52-2.75,0-.94-.12-1.79-.36-2.53-.24-.74-.63-1.33-1.16-1.76-.54-.43-1.24-.65-2.12-.65-.58,0-1.17,.17-1.79,.49-.62,.33-1.28,.8-1.98,1.4v6.84c.66,.54,1.28,.93,1.86,1.15s1.1,.34,1.55,.34Z" fill="#231f20"/><path d="M2191.67,1778.93l3.91-6.02-3.6-5.5h1.18l1.87,2.93c.19,.3,.39,.62,.6,.94s.42,.64,.62,.96h.1c.21-.32,.4-.64,.59-.96,.18-.32,.38-.63,.59-.94l1.8-2.93h1.1l-3.58,5.59,3.91,5.93h-1.18l-2.04-3.14c-.21-.37-.43-.73-.66-1.08-.23-.35-.47-.7-.71-1.03h-.1c-.22,.34-.44,.68-.66,1.03s-.44,.71-.66,1.08l-1.97,3.14h-1.13Z" fill="#231f20"/></g><g><line x1="869.26" y1="1837.38" x2="916.92" y2="1837.38" fill="none" stroke="#ed1c24" stroke-miterlimit="10" stroke-width=".75"/><g><line x1="893.09" y1="2054.6" x2="893.09" y2="1838.19" fill="none" stroke="#ed1c24" stroke-miterlimit="10" stroke-width=".75"/><polygon points="896.16 2052.12 895.61 2051.61 893.09 2054.32 890.57 2051.61 890.02 2052.12 893.09 2055.42 896.16 2052.12" fill="#ed1c24"/><polygon points="896.16 1840.68 895.61 1841.19 893.09 1838.48 890.57 1841.19 890.02 1840.68 893.09 1837.38 896.16 1840.68" fill="#ed1c24"/></g><line x1="916.92" y1="2055.42" x2="869.26" y2="2055.42" fill="none" stroke="#ed1c24" stroke-miterlimit="10" stroke-width=".75"/></g><g><path d="M919.75,1952.42v-.67c1.68-1.71,3.08-3.2,4.2-4.45,1.12-1.26,1.96-2.38,2.52-3.37,.56-.99,.84-1.93,.84-2.81,0-.96-.27-1.77-.8-2.42-.54-.66-1.38-.98-2.53-.98-.69,0-1.34,.19-1.96,.58-.62,.38-1.16,.86-1.62,1.44l-.7-.67c.58-.64,1.22-1.18,1.92-1.61,.7-.43,1.52-.65,2.45-.65,1.38,0,2.44,.39,3.19,1.18,.75,.79,1.13,1.82,1.13,3.12,0,1.01-.29,2.03-.88,3.07-.58,1.04-1.4,2.16-2.45,3.36s-2.28,2.55-3.71,4.06c.42-.03,.84-.06,1.28-.08,.44-.03,.87-.04,1.28-.04h5.23v.96h-9.41Z" fill="#231f20"/><path d="M931.25,1952.42v-.67c1.68-1.71,3.08-3.2,4.2-4.45,1.12-1.26,1.96-2.38,2.52-3.37,.56-.99,.84-1.93,.84-2.81,0-.96-.27-1.77-.8-2.42-.54-.66-1.38-.98-2.53-.98-.69,0-1.34,.19-1.96,.58-.62,.38-1.16,.86-1.62,1.44l-.7-.67c.58-.64,1.22-1.18,1.92-1.61,.7-.43,1.52-.65,2.45-.65,1.38,0,2.44,.39,3.19,1.18,.75,.79,1.13,1.82,1.13,3.12,0,1.01-.29,2.03-.88,3.07-.58,1.04-1.4,2.16-2.45,3.36s-2.28,2.55-3.71,4.06c.42-.03,.84-.06,1.28-.08,.44-.03,.87-.04,1.28-.04h5.23v.96h-9.41Z" fill="#231f20"/><path d="M947.5,1952.71c-1.46,0-2.58-.7-3.38-2.09-.8-1.39-1.2-3.37-1.2-5.93s.4-4.5,1.2-5.86c.8-1.36,1.93-2.04,3.38-2.04s2.6,.68,3.4,2.04c.79,1.36,1.19,3.31,1.19,5.86s-.4,4.54-1.19,5.93c-.79,1.39-1.92,2.09-3.4,2.09Zm0-.91c1.07,0,1.92-.6,2.56-1.8,.63-1.2,.95-2.97,.95-5.3s-.32-4.08-.95-5.24-1.48-1.74-2.56-1.74-1.9,.58-2.54,1.74c-.64,1.16-.96,2.91-.96,5.24s.32,4.1,.96,5.3c.64,1.2,1.49,1.8,2.54,1.8Z" fill="#231f20"/><path d="M960.26,1957.63v-16.73h.91l.1,1.44h.07c.56-.45,1.18-.85,1.85-1.2s1.36-.53,2.06-.53c1.54,0,2.69,.53,3.46,1.6,.77,1.06,1.15,2.49,1.15,4.28,0,1.3-.24,2.41-.71,3.34s-1.09,1.64-1.86,2.13c-.77,.5-1.61,.74-2.52,.74-.54,0-1.1-.12-1.68-.37s-1.17-.6-1.78-1.04v6.34h-1.06Zm4.46-5.86c.78,0,1.48-.22,2.08-.67s1.07-1.07,1.42-1.86c.34-.79,.52-1.71,.52-2.75,0-.94-.12-1.79-.36-2.53-.24-.74-.63-1.33-1.16-1.76-.54-.43-1.24-.65-2.12-.65-.58,0-1.17,.17-1.79,.49-.62,.33-1.28,.8-1.98,1.4v6.84c.66,.54,1.28,.93,1.86,1.15s1.1,.34,1.55,.34Z" fill="#231f20"/><path d="M971.16,1952.42l3.91-6.02-3.6-5.5h1.18l1.87,2.93c.19,.3,.39,.62,.6,.94s.42,.64,.62,.96h.1c.21-.32,.4-.64,.59-.96,.18-.32,.38-.63,.59-.94l1.8-2.93h1.1l-3.58,5.59,3.91,5.93h-1.18l-2.04-3.14c-.21-.37-.43-.73-.66-1.08-.23-.35-.47-.7-.71-1.03h-.1c-.22,.34-.44,.68-.66,1.03s-.44,.71-.66,1.08l-1.97,3.14h-1.13Z" fill="#231f20"/></g><rect x="1251.51" y="1221.96" width="844" height="276" fill="#ffde17" opacity=".1"/><rect x="1736.51" y="168.25" width="359" height="661.27" fill="#ffde17" opacity=".1"/><rect x="1736.51" y="72.25" width="359" height="464" fill="#ffde17" opacity=".1"/><rect x="1251.51" y="1708.43" width="844" height="128.95" fill="#ffde17" opacity=".1"/><rect x="1251.51" y="1911.52" width="55.04" height="55.04" fill="#ffde17" opacity=".1"/><rect x="1251.51" y="1992.89" width="55.04" height="55.04" fill="#ed1c24" opacity=".1"/><rect x="1251.51" y="2074.27" width="55.04" height="55.04" fill="#662d91" opacity=".1"/></svg>