<?xml version="1.0" encoding="utf-8"?>
<!-- Generator: Adobe Illustrator 26.2.1, SVG Export Plug-In . SVG Version: 6.00 Build 0)  -->
<svg version="1.1" id="a" xmlns="http://www.w3.org/2000/svg" xmlns:xlink="http://www.w3.org/1999/xlink" x="0px" y="0px"
	 viewBox="0 0 2204.6 2288.6" style="enable-background:new 0 0 2204.6 2288.6;" xml:space="preserve">
<style type="text/css">
	.st0{fill:#FFFFFF;}
	.st1{fill:none;stroke:#ED1C24;stroke-miterlimit:10;}
	.st2{fill:none;stroke:#ED1C24;stroke-width:0.75;stroke-miterlimit:10;}
	.st3{fill:#ED1C24;}
	.st4{opacity:0.1;fill:#FFDE17;enable-background:new    ;}
	.st5{opacity:0.1;fill:#662D91;enable-background:new    ;}
</style>
<rect x="1962.3" y="2038.7" class="st0" width="55" height="55"/>
<rect x="1962.3" y="2120.1" class="st0" width="55" height="55"/>
<rect x="0.5" y="0.5" class="st0" width="1440" height="1024"/>
<rect x="0.5" y="1151.7" class="st0" width="1440" height="1024"/>
<rect x="0.5" y="0.5" class="st1" width="1440" height="1024"/>
<rect x="0.5" y="1151.7" class="st1" width="1440" height="1024"/>
<g>
	<line class="st2" x1="1440.5" y1="1024.5" x2="1440.5" y2="1072.2"/>
	<g>
		<line class="st2" x1="1313.8" y1="1048.3" x2="1439.7" y2="1048.3"/>
		<polygon class="st3" points="1316.3,1051.4 1316.8,1050.8 1314.1,1048.3 1316.8,1045.8 1316.3,1045.3 1313,1048.3 		"/>
		<polygon class="st3" points="1437.2,1051.4 1436.7,1050.8 1439.4,1048.3 1436.7,1045.8 1437.2,1045.3 1440.5,1048.3 		"/>
	</g>
	<line class="st2" x1="1313" y1="1072.2" x2="1313" y2="1024.5"/>
</g>
<g>
	<path class="st0" d="M1347.9,1089.7v-0.9h3.6V1076h-2.7v-0.7c0.6-0.1,1.2-0.2,1.7-0.4s0.9-0.3,1.3-0.6h0.9v14.4h3.3v0.9H1347.9
		L1347.9,1089.7z"/>
	<path class="st0" d="M1358.3,1089.7v-0.7c1.7-1.7,3.1-3.2,4.2-4.4c1.1-1.3,2-2.4,2.5-3.4s0.8-1.9,0.8-2.8c0-1-0.3-1.8-0.8-2.4
		c-0.5-0.7-1.4-1-2.5-1c-0.7,0-1.3,0.2-2,0.6c-0.6,0.4-1.2,0.9-1.6,1.4l-0.7-0.7c0.6-0.6,1.2-1.2,1.9-1.6c0.7-0.4,1.5-0.7,2.4-0.7
		c1.4,0,2.4,0.4,3.2,1.2s1.1,1.8,1.1,3.1c0,1-0.3,2-0.9,3.1c-0.6,1-1.4,2.2-2.4,3.4s-2.3,2.6-3.7,4.1c0.4,0,0.8-0.1,1.3-0.1
		c0.4,0,0.9,0,1.3,0h5.2v1L1358.3,1089.7L1358.3,1089.7z"/>
	<path class="st0" d="M1373.4,1089.7c0.1-2.1,0.3-3.9,0.6-5.5c0.3-1.6,0.8-3.2,1.5-4.6s1.5-2.8,2.5-4.3h-8.1v-0.9h9.4v0.6
		c-0.9,1.2-1.7,2.4-2.3,3.5s-1.1,2.3-1.4,3.4c-0.3,1.2-0.6,2.4-0.8,3.6s-0.3,2.7-0.3,4.2L1373.4,1089.7L1373.4,1089.7z"/>
	<path class="st0" d="M1387.3,1094.9v-16.7h0.9l0.1,1.4h0.1c0.6-0.4,1.2-0.8,1.8-1.2s1.4-0.5,2.1-0.5c1.5,0,2.7,0.5,3.5,1.6
		c0.8,1.1,1.2,2.5,1.2,4.3c0,1.3-0.2,2.4-0.7,3.3s-1.1,1.6-1.9,2.1c-0.8,0.5-1.6,0.7-2.5,0.7c-0.5,0-1.1-0.1-1.7-0.4s-1.2-0.6-1.8-1
		v6.3L1387.3,1094.9L1387.3,1094.9z M1391.8,1089c0.8,0,1.5-0.2,2.1-0.7s1.1-1.1,1.4-1.9c0.3-0.8,0.5-1.7,0.5-2.8
		c0-0.9-0.1-1.8-0.4-2.5s-0.6-1.3-1.2-1.8c-0.5-0.4-1.2-0.7-2.1-0.7c-0.6,0-1.2,0.2-1.8,0.5c-0.6,0.3-1.3,0.8-2,1.4v6.8
		c0.7,0.5,1.3,0.9,1.9,1.2S1391.4,1089,1391.8,1089L1391.8,1089z"/>
	<path class="st0" d="M1398.2,1089.7l3.9-6l-3.6-5.5h1.2l1.9,2.9c0.2,0.3,0.4,0.6,0.6,0.9s0.4,0.6,0.6,1h0.1c0.2-0.3,0.4-0.6,0.6-1
		c0.2-0.3,0.4-0.6,0.6-0.9l1.8-2.9h1.1l-3.6,5.6l3.9,5.9h-1.2l-2-3.1c-0.2-0.4-0.4-0.7-0.7-1.1s-0.5-0.7-0.7-1h-0.1
		c-0.2,0.3-0.4,0.7-0.7,1s-0.4,0.7-0.7,1.1l-2,3.1H1398.2L1398.2,1089.7z"/>
</g>
<g>
	<line class="st2" x1="1313" y1="2175.7" x2="1313" y2="2223.3"/>
	<g>
		<line class="st2" x1="1230.8" y1="2199.5" x2="1312.2" y2="2199.5"/>
		<polygon class="st3" points="1233.3,2202.6 1233.8,2202 1231.1,2199.5 1233.8,2197 1233.3,2196.4 1230,2199.5 		"/>
		<polygon class="st3" points="1309.7,2202.6 1309.2,2202 1311.9,2199.5 1309.2,2197 1309.7,2196.4 1313,2199.5 		"/>
	</g>
	<line class="st2" x1="1230" y1="2223.3" x2="1230" y2="2175.7"/>
</g>
<g>
	<line class="st2" x1="1129.8" y1="2175.7" x2="1129.8" y2="2223.3"/>
	<g>
		<line class="st2" x1="1113.5" y1="2199.5" x2="1129" y2="2199.5"/>
		<polygon class="st3" points="1116,2202.6 1116.5,2202 1113.8,2199.5 1116.5,2197 1116,2196.4 1112.7,2199.5 		"/>
		<polygon class="st3" points="1126.6,2202.6 1126,2202 1128.8,2199.5 1126,2197 1126.6,2196.4 1129.8,2199.5 		"/>
	</g>
	<line class="st2" x1="1112.7" y1="2223.3" x2="1112.7" y2="2175.7"/>
</g>
<g>
	<path class="st0" d="M1252.2,2241.1c-0.9,0-1.8-0.2-2.5-0.6s-1.3-0.9-1.7-1.5s-0.6-1.4-0.6-2.2c0-0.7,0.2-1.3,0.5-1.9
		c0.3-0.6,0.7-1,1.2-1.4c0.5-0.4,0.9-0.7,1.4-1v-0.1c-0.6-0.4-1.1-0.8-1.5-1.4s-0.7-1.3-0.7-2.1c0-0.7,0.2-1.4,0.5-1.9
		c0.4-0.6,0.8-1,1.4-1.3s1.3-0.5,2-0.5c1.3,0,2.3,0.4,3.1,1.1c0.7,0.8,1.1,1.7,1.1,2.9c0,0.6-0.1,1.1-0.4,1.6s-0.5,0.9-0.9,1.3
		c-0.3,0.4-0.7,0.7-1,0.9v0.1c0.4,0.3,0.9,0.6,1.3,0.9s0.7,0.8,1,1.2c0.3,0.5,0.4,1.1,0.4,1.8c0,0.7-0.2,1.4-0.6,2s-0.9,1.1-1.6,1.4
		C1254,2240.9,1253.2,2241.1,1252.2,2241.1L1252.2,2241.1z M1252.2,2240.2c1.1,0,2-0.3,2.6-0.9c0.7-0.6,1-1.4,1-2.2
		c0-0.8-0.2-1.4-0.7-1.9c-0.4-0.5-1-0.9-1.7-1.2s-1.5-0.7-2.3-1c-0.8,0.4-1.4,1-1.9,1.6c-0.5,0.6-0.8,1.4-0.8,2.2
		c0,0.6,0.2,1.2,0.5,1.7s0.8,0.9,1.4,1.2S1251.5,2240.2,1252.2,2240.2L1252.2,2240.2z M1253.3,2232.8c0.7-0.5,1.2-1.1,1.5-1.7
		c0.3-0.6,0.5-1.2,0.5-1.9c0-0.9-0.3-1.6-0.8-2.2c-0.6-0.6-1.3-0.9-2.3-0.9c-0.8,0-1.6,0.3-2.1,0.8c-0.6,0.5-0.8,1.2-0.8,2.1
		c0,0.7,0.2,1.3,0.6,1.8s0.9,0.9,1.5,1.2C1252,2232.2,1252.7,2232.5,1253.3,2232.8L1253.3,2232.8z"/>
	<path class="st0" d="M1263.4,2241.1c-0.8,0-1.5-0.1-2.1-0.3c-0.6-0.2-1.1-0.5-1.6-0.8s-0.8-0.7-1.2-1l0.6-0.7
		c0.5,0.5,1,0.9,1.7,1.4s1.5,0.6,2.6,0.6s1.9-0.3,2.6-0.9s1-1.4,1-2.5s-0.4-1.9-1.2-2.6c-0.8-0.7-2.2-1-4.1-1v-0.9
		c1.2,0,2.1-0.1,2.8-0.4c0.7-0.3,1.2-0.7,1.5-1.2s0.5-1.1,0.5-1.7c0-0.9-0.3-1.6-0.8-2.1c-0.6-0.5-1.3-0.8-2.3-0.8
		c-0.7,0-1.4,0.2-2,0.5s-1.1,0.7-1.6,1.2l-0.6-0.7c0.5-0.5,1.1-0.9,1.8-1.3s1.5-0.6,2.3-0.6c0.8,0,1.5,0.1,2.2,0.4s1.1,0.7,1.5,1.3
		s0.6,1.2,0.6,2c0,1-0.3,1.8-0.8,2.4c-0.6,0.6-1.2,1.1-2.1,1.4v0.1c0.6,0.1,1.2,0.4,1.7,0.7s0.9,0.8,1.3,1.4s0.5,1.2,0.5,1.9
		c0,0.9-0.2,1.6-0.6,2.3c-0.4,0.7-1,1.2-1.7,1.5C1265.1,2241,1264.3,2241.2,1263.4,2241.1L1263.4,2241.1z"/>
	<path class="st0" d="M1276.4,2246.1v-16.7h0.9l0.1,1.4h0.1c0.6-0.4,1.2-0.9,1.8-1.2s1.4-0.5,2.1-0.5c1.5,0,2.7,0.5,3.5,1.6
		c0.8,1.1,1.2,2.5,1.2,4.3c0,1.3-0.2,2.4-0.7,3.3s-1.1,1.6-1.9,2.1s-1.6,0.7-2.5,0.7c-0.5,0-1.1-0.1-1.7-0.4s-1.2-0.6-1.8-1v6.3
		L1276.4,2246.1L1276.4,2246.1z M1280.8,2240.2c0.8,0,1.5-0.2,2.1-0.7s1.1-1.1,1.4-1.9c0.3-0.8,0.5-1.7,0.5-2.8
		c0-0.9-0.1-1.8-0.4-2.5s-0.6-1.3-1.2-1.8c-0.5-0.4-1.2-0.6-2.1-0.6c-0.6,0-1.2,0.2-1.8,0.5s-1.3,0.8-2,1.4v6.8
		c0.7,0.5,1.3,0.9,1.9,1.1S1280.4,2240.2,1280.8,2240.2L1280.8,2240.2z"/>
	<path class="st0" d="M1287.3,2240.8l3.9-6l-3.6-5.5h1.2l1.9,2.9c0.2,0.3,0.4,0.6,0.6,0.9c0.2,0.3,0.4,0.6,0.6,1h0.1
		c0.2-0.3,0.4-0.6,0.6-1c0.2-0.3,0.4-0.6,0.6-0.9l1.8-2.9h1.1l-3.6,5.6l3.9,5.9h-1.2l-2-3.1c-0.2-0.4-0.4-0.7-0.7-1.1
		s-0.5-0.7-0.7-1h-0.1c-0.2,0.3-0.4,0.7-0.7,1c-0.2,0.4-0.4,0.7-0.7,1.1l-2,3.1H1287.3L1287.3,2240.8z"/>
</g>
<g>
	<path class="st0" d="M1098.1,2240.8v-0.9h3.6v-12.7h-2.7v-0.7c0.6-0.1,1.2-0.2,1.7-0.4s0.9-0.3,1.3-0.6h0.9v14.4h3.3v0.9H1098.1
		L1098.1,2240.8z"/>
	<path class="st0" d="M1112.1,2240.8c0.1-2.1,0.3-3.9,0.6-5.5c0.3-1.6,0.8-3.2,1.5-4.6s1.5-2.8,2.5-4.3h-8.1v-0.9h9.4v0.6
		c-0.9,1.2-1.7,2.4-2.3,3.5c-0.6,1.1-1.1,2.3-1.4,3.4c-0.3,1.1-0.6,2.4-0.8,3.6s-0.3,2.6-0.3,4.1H1112.1L1112.1,2240.8z"/>
	<path class="st0" d="M1126.1,2246.1v-16.7h0.9l0.1,1.4h0.1c0.6-0.4,1.2-0.9,1.8-1.2s1.4-0.5,2.1-0.5c1.5,0,2.7,0.5,3.5,1.6
		c0.8,1.1,1.2,2.5,1.2,4.3c0,1.3-0.2,2.4-0.7,3.3s-1.1,1.6-1.9,2.1s-1.6,0.7-2.5,0.7c-0.5,0-1.1-0.1-1.7-0.4s-1.2-0.6-1.8-1v6.3
		L1126.1,2246.1L1126.1,2246.1z M1130.5,2240.2c0.8,0,1.5-0.2,2.1-0.7s1.1-1.1,1.4-1.9c0.3-0.8,0.5-1.7,0.5-2.8
		c0-0.9-0.1-1.8-0.4-2.5s-0.6-1.3-1.2-1.8c-0.5-0.4-1.2-0.6-2.1-0.6c-0.6,0-1.2,0.2-1.8,0.5s-1.3,0.8-2,1.4v6.8
		c0.7,0.5,1.3,0.9,1.9,1.1S1130.1,2240.2,1130.5,2240.2L1130.5,2240.2z"/>
	<path class="st0" d="M1137,2240.8l3.9-6l-3.6-5.5h1.2l1.9,2.9c0.2,0.3,0.4,0.6,0.6,0.9c0.2,0.3,0.4,0.6,0.6,1h0.1
		c0.2-0.3,0.4-0.6,0.6-1c0.2-0.3,0.4-0.6,0.6-0.9l1.8-2.9h1.1l-3.6,5.6l3.9,5.9h-1.2l-2-3.1c-0.2-0.4-0.4-0.7-0.7-1.1
		s-0.5-0.7-0.7-1h-0.1c-0.2,0.3-0.4,0.7-0.7,1c-0.2,0.4-0.4,0.7-0.7,1.1l-2,3.1H1137L1137,2240.8z"/>
</g>
<g>
	<line class="st2" x1="127.9" y1="1024.5" x2="127.9" y2="1072.2"/>
	<g>
		<line class="st2" x1="1.3" y1="1048.3" x2="127.1" y2="1048.3"/>
		<polygon class="st3" points="3.8,1051.4 4.3,1050.8 1.6,1048.3 4.3,1045.8 3.8,1045.3 0.5,1048.3 		"/>
		<polygon class="st3" points="124.7,1051.4 124.1,1050.8 126.8,1048.3 124.1,1045.8 124.7,1045.3 127.9,1048.3 		"/>
	</g>
	<line class="st2" x1="0.5" y1="1072.2" x2="0.5" y2="1024.5"/>
</g>
<g>
	<path class="st0" d="M35.3,1089.7v-0.9h3.6V1076h-2.7v-0.7c0.6-0.1,1.2-0.2,1.7-0.4s0.9-0.3,1.3-0.6H40v14.4h3.3v0.9H35.3
		L35.3,1089.7z"/>
	<path class="st0" d="M45.8,1089.7v-0.7c1.7-1.7,3.1-3.2,4.2-4.4c1.1-1.3,2-2.4,2.5-3.4s0.8-1.9,0.8-2.8c0-1-0.3-1.8-0.8-2.4
		c-0.5-0.7-1.4-1-2.5-1c-0.7,0-1.3,0.2-2,0.6c-0.6,0.4-1.2,0.9-1.6,1.4l-0.7-0.7c0.6-0.6,1.2-1.2,1.9-1.6c0.7-0.4,1.5-0.7,2.5-0.7
		c1.4,0,2.4,0.4,3.2,1.2s1.1,1.8,1.1,3.1c0,1-0.3,2-0.9,3.1c-0.6,1-1.4,2.2-2.5,3.4s-2.3,2.6-3.7,4.1c0.4,0,0.8-0.1,1.3-0.1
		c0.4,0,0.9,0,1.3,0h5.2v1L45.8,1089.7L45.8,1089.7z"/>
	<path class="st0" d="M60.8,1089.7c0.1-2.1,0.3-3.9,0.6-5.5c0.3-1.6,0.8-3.2,1.5-4.6s1.5-2.8,2.5-4.3h-8.1v-0.9h9.4v0.6
		c-0.9,1.2-1.7,2.4-2.3,3.5s-1.1,2.3-1.4,3.4s-0.6,2.4-0.8,3.6s-0.3,2.7-0.3,4.2L60.8,1089.7L60.8,1089.7z"/>
	<path class="st0" d="M74.8,1094.9v-16.7h0.9l0.1,1.4h0.1c0.6-0.4,1.2-0.8,1.8-1.2s1.4-0.5,2.1-0.5c1.5,0,2.7,0.5,3.5,1.6
		c0.8,1.1,1.2,2.5,1.2,4.3c0,1.3-0.2,2.4-0.7,3.3s-1.1,1.6-1.9,2.1c-0.8,0.5-1.6,0.7-2.5,0.7c-0.5,0-1.1-0.1-1.7-0.4s-1.2-0.6-1.8-1
		v6.3L74.8,1094.9L74.8,1094.9z M79.3,1089c0.8,0,1.5-0.2,2.1-0.7s1.1-1.1,1.4-1.9c0.3-0.8,0.5-1.7,0.5-2.8c0-0.9-0.1-1.8-0.4-2.5
		s-0.6-1.3-1.2-1.8c-0.5-0.4-1.2-0.7-2.1-0.7c-0.6,0-1.2,0.2-1.8,0.5c-0.6,0.3-1.3,0.8-2,1.4v6.8c0.7,0.5,1.3,0.9,1.9,1.2
		S78.8,1089,79.3,1089L79.3,1089z"/>
	<path class="st0" d="M85.7,1089.7l3.9-6l-3.6-5.5h1.2l1.9,2.9c0.2,0.3,0.4,0.6,0.6,0.9s0.4,0.6,0.6,1h0.1c0.2-0.3,0.4-0.6,0.6-1
		c0.2-0.3,0.4-0.6,0.6-0.9l1.8-2.9h1.1l-3.6,5.6l3.9,5.9h-1.2l-2-3.1c-0.2-0.4-0.4-0.7-0.7-1.1s-0.5-0.7-0.7-1h-0.1
		c-0.2,0.3-0.4,0.7-0.7,1s-0.4,0.7-0.7,1.1l-2,3.1H85.7L85.7,1089.7z"/>
</g>
<g>
	<path class="st0" d="M2048.3,2154c-1.4,0-2.6-0.3-3.6-1c-1-0.7-1.8-1.6-2.4-2.9c-0.6-1.2-0.8-2.7-0.8-4.4s0.3-3.1,0.9-4.3
		c0.6-1.2,1.4-2.2,2.4-2.8s2.3-1,3.7-1c1.1,0,2,0.2,2.6,0.6c0.7,0.4,1.2,0.8,1.7,1.3l-0.6,0.7c-0.4-0.4-0.9-0.8-1.5-1.1
		s-1.3-0.5-2.2-0.5c-1.2,0-2.2,0.3-3.1,0.9c-0.9,0.6-1.6,1.4-2,2.5s-0.7,2.3-0.7,3.8s0.2,2.7,0.7,3.8c0.4,1.1,1.1,1.9,2,2.5
		s1.9,0.9,3.1,0.9c0.7,0,1.4-0.1,2-0.3s1.1-0.5,1.5-0.9v-4.9h-3.8v-0.9h4.9v6.3c-0.5,0.5-1.1,1-1.9,1.3S2049.3,2153.9,2048.3,2154
		L2048.3,2154z"/>
	<path class="st0" d="M2056.9,2153.7v-11.5h0.9l0.1,2.1h0.1c0.4-0.7,0.9-1.3,1.4-1.7c0.6-0.5,1.2-0.7,1.9-0.7c0.2,0,0.4,0,0.6,0.1
		c0.2,0,0.4,0.1,0.6,0.2l-0.2,1c-0.2-0.1-0.4-0.1-0.5-0.2s-0.3,0-0.6,0c-0.5,0-1.1,0.2-1.6,0.7s-1.1,1.2-1.5,2.3v7.9H2056.9z"/>
	<path class="st0" d="M2065,2139.4c-0.3,0-0.5-0.1-0.6-0.3c-0.2-0.2-0.3-0.4-0.3-0.7c0-0.3,0.1-0.5,0.3-0.7c0.2-0.2,0.4-0.3,0.6-0.3
		c0.3,0,0.5,0.1,0.7,0.3s0.2,0.4,0.2,0.7c0,0.3-0.1,0.5-0.2,0.7S2065.3,2139.4,2065,2139.4z M2064.5,2153.7v-11.5h1.1v11.5H2064.5z"
		/>
	<path class="st0" d="M2073.8,2154c-1.5,0-2.6-0.5-3.5-1.6s-1.3-2.5-1.3-4.5c0-1.2,0.2-2.3,0.7-3.2c0.5-0.9,1.1-1.6,1.9-2.1
		c0.8-0.5,1.6-0.7,2.5-0.7c0.7,0,1.3,0.1,1.8,0.4s1.1,0.6,1.6,1l-0.1-2.1v-4.8h1.1v17.3h-0.9l-0.1-1.5h-0.1c-0.5,0.5-1,0.9-1.6,1.2
		S2074.6,2154,2073.8,2154L2073.8,2154z M2073.9,2153c0.6,0,1.2-0.2,1.8-0.5c0.6-0.3,1.2-0.8,1.8-1.4v-6.8c-0.6-0.5-1.2-0.9-1.7-1.1
		s-1.1-0.3-1.6-0.3c-0.8,0-1.5,0.2-2.1,0.7c-0.6,0.5-1.1,1.1-1.4,1.8s-0.5,1.6-0.5,2.6c0,1.5,0.3,2.8,1,3.7
		C2071.8,2152.6,2072.7,2153,2073.9,2153L2073.9,2153z"/>
</g>
<g>
	<path class="st0" d="M2046.6,2072.6c-1.2,0-2.2-0.2-3.1-0.7c-0.9-0.4-1.7-1-2.3-1.7l0.7-0.8c0.6,0.6,1.3,1.2,2.1,1.6
		c0.8,0.4,1.7,0.6,2.6,0.6c1.2,0,2.2-0.3,2.9-0.9s1.1-1.4,1.1-2.3c0-0.7-0.1-1.2-0.4-1.6c-0.3-0.4-0.6-0.7-1-1
		c-0.4-0.3-0.9-0.5-1.4-0.7l-2.4-1.1c-0.4-0.2-0.9-0.5-1.4-0.8c-0.5-0.3-0.9-0.7-1.3-1.2s-0.5-1.1-0.5-1.9s0.2-1.4,0.6-2
		c0.4-0.6,0.9-1,1.6-1.4c0.7-0.3,1.5-0.5,2.4-0.5c0.9,0,1.8,0.2,2.5,0.6c0.8,0.4,1.4,0.8,1.9,1.3l-0.6,0.7c-0.5-0.5-1-0.9-1.6-1.2
		c-0.6-0.3-1.3-0.4-2.1-0.4c-1,0-1.9,0.3-2.5,0.8s-1,1.2-1,2.1c0,0.6,0.2,1.1,0.4,1.5c0.3,0.4,0.7,0.7,1.1,0.9
		c0.4,0.2,0.8,0.4,1.2,0.6l2.4,1.1c0.6,0.3,1.1,0.6,1.6,0.9c0.5,0.3,0.9,0.8,1.2,1.3c0.3,0.5,0.5,1.2,0.5,2s-0.2,1.5-0.6,2.2
		c-0.4,0.6-1,1.2-1.8,1.5S2047.6,2072.6,2046.6,2072.6L2046.6,2072.6z"/>
	<path class="st0" d="M2057.4,2072.6c-0.9,0-1.7-0.3-2.4-0.8s-1-1.3-1-2.4c0-1.3,0.6-2.2,1.8-2.9c1.2-0.7,3.1-1.1,5.6-1.4
		c0-0.6-0.1-1.2-0.2-1.7c-0.1-0.6-0.4-1-0.8-1.4c-0.4-0.4-1-0.6-1.7-0.6s-1.5,0.1-2.1,0.5c-0.6,0.3-1.2,0.6-1.6,0.9l-0.5-0.8
		c0.3-0.2,0.6-0.4,1.1-0.6c0.4-0.2,0.9-0.4,1.5-0.6c0.6-0.2,1.1-0.2,1.8-0.2c0.9,0,1.6,0.2,2.2,0.6c0.5,0.4,0.9,0.9,1.1,1.6
		c0.2,0.7,0.4,1.4,0.4,2.2v7.4h-0.9l-0.1-1.5h-0.1c-0.6,0.5-1.2,0.9-1.9,1.2S2058.1,2072.6,2057.4,2072.6L2057.4,2072.6z
		 M2057.6,2071.7c0.7,0,1.3-0.2,1.9-0.5c0.6-0.3,1.3-0.8,2-1.4v-3.9c-1.6,0.2-2.8,0.4-3.8,0.7s-1.6,0.7-2,1.1s-0.6,1-0.6,1.6
		c0,0.8,0.2,1.4,0.7,1.8C2056.3,2071.5,2056.9,2071.7,2057.6,2071.7L2057.6,2071.7z"/>
	<path class="st0" d="M2066.8,2072.3v-10.6h-1.6v-0.8l1.6-0.1v-2.6c0-1.1,0.2-2,0.7-2.6s1.2-0.9,2.1-0.9c0.6,0,1.1,0.1,1.7,0.4
		l-0.3,0.9c-0.2-0.1-0.5-0.2-0.7-0.3c-0.2-0.1-0.5-0.1-0.7-0.1c-0.6,0-1.1,0.2-1.4,0.7s-0.4,1.1-0.4,1.9v2.5h2.7v0.9h-2.7v10.6
		L2066.8,2072.3L2066.8,2072.3z"/>
	<path class="st0" d="M2077.1,2072.6c-1,0-1.9-0.2-2.7-0.7c-0.8-0.5-1.4-1.2-1.9-2.1c-0.5-0.9-0.7-2-0.7-3.2s0.2-2.4,0.7-3.2
		s1.1-1.6,1.9-2.1s1.6-0.7,2.4-0.7c1.4,0,2.5,0.5,3.2,1.4s1.2,2.2,1.2,3.9c0,0.1,0,0.3,0,0.4c0,0.1,0,0.3-0.1,0.4h-8.3
		c0,1,0.2,1.8,0.6,2.6s0.9,1.3,1.5,1.8c0.6,0.4,1.4,0.6,2.3,0.6c0.6,0,1.2-0.1,1.7-0.3s1-0.4,1.4-0.7l0.4,0.8
		c-0.4,0.3-0.9,0.5-1.5,0.8S2077.9,2072.6,2077.1,2072.6L2077.1,2072.6z M2072.8,2065.8h7.3c0-1.5-0.3-2.6-0.9-3.3
		c-0.6-0.7-1.4-1.1-2.5-1.1c-0.7,0-1.3,0.2-1.8,0.5s-1,0.9-1.4,1.5C2073.2,2064.1,2072.9,2064.9,2072.8,2065.8L2072.8,2065.8z"/>
	<path class="st0" d="M2091.6,2072.6c-0.9,0-1.7-0.3-2.4-0.8s-1-1.3-1-2.4c0-1.3,0.6-2.2,1.8-2.9c1.2-0.7,3.1-1.1,5.6-1.4
		c0-0.6-0.1-1.2-0.2-1.7c-0.1-0.6-0.4-1-0.8-1.4c-0.4-0.4-1-0.6-1.7-0.6s-1.5,0.1-2.1,0.5c-0.6,0.3-1.2,0.6-1.6,0.9l-0.5-0.8
		c0.3-0.2,0.6-0.4,1.1-0.6c0.4-0.2,0.9-0.4,1.5-0.6c0.6-0.2,1.1-0.2,1.8-0.2c0.9,0,1.6,0.2,2.2,0.6c0.5,0.4,0.9,0.9,1.1,1.6
		c0.2,0.7,0.4,1.4,0.4,2.2v7.4h-0.9l-0.1-1.5h-0.1c-0.6,0.5-1.2,0.9-1.9,1.2S2092.4,2072.6,2091.6,2072.6L2091.6,2072.6z
		 M2091.8,2071.7c0.7,0,1.3-0.2,1.9-0.5c0.6-0.3,1.3-0.8,2-1.4v-3.9c-1.6,0.2-2.8,0.4-3.8,0.7s-1.6,0.7-2,1.1s-0.6,1-0.6,1.6
		c0,0.8,0.2,1.4,0.7,1.8C2090.6,2071.5,2091.2,2071.7,2091.8,2071.7L2091.8,2071.7z"/>
	<path class="st0" d="M2100.9,2072.3v-11.5h0.9l0.1,2.1h0.1c0.4-0.7,0.9-1.3,1.4-1.7c0.6-0.5,1.2-0.7,1.9-0.7c0.2,0,0.4,0,0.6,0.1
		c0.2,0,0.4,0.1,0.6,0.2l-0.2,1c-0.2-0.1-0.4-0.1-0.5-0.2s-0.3,0-0.6,0c-0.5,0-1.1,0.2-1.6,0.7s-1.1,1.2-1.5,2.3v7.9H2100.9z"/>
	<path class="st0" d="M2112.6,2072.6c-1,0-1.9-0.2-2.7-0.7c-0.8-0.5-1.4-1.2-1.9-2.1c-0.5-0.9-0.7-2-0.7-3.2s0.2-2.4,0.7-3.2
		s1.1-1.6,1.9-2.1s1.6-0.7,2.4-0.7c1.4,0,2.5,0.5,3.2,1.4s1.2,2.2,1.2,3.9c0,0.1,0,0.3,0,0.4c0,0.1,0,0.3-0.1,0.4h-8.3
		c0,1,0.2,1.8,0.6,2.6s0.9,1.3,1.5,1.8c0.6,0.4,1.4,0.6,2.3,0.6c0.6,0,1.2-0.1,1.7-0.3s1-0.4,1.4-0.7l0.4,0.8
		c-0.4,0.3-0.9,0.5-1.5,0.8S2113.5,2072.6,2112.6,2072.6L2112.6,2072.6z M2108.4,2065.8h7.3c0-1.5-0.3-2.6-0.9-3.3
		c-0.6-0.7-1.4-1.1-2.5-1.1c-0.7,0-1.3,0.2-1.8,0.5s-1,0.9-1.4,1.5C2108.7,2064.1,2108.4,2064.9,2108.4,2065.8L2108.4,2065.8z"/>
	<path class="st0" d="M2122,2072.6c-0.9,0-1.7-0.3-2.4-0.8s-1-1.3-1-2.4c0-1.3,0.6-2.2,1.8-2.9c1.2-0.7,3.1-1.1,5.6-1.4
		c0-0.6-0.1-1.2-0.2-1.7c-0.1-0.6-0.4-1-0.8-1.4c-0.4-0.4-1-0.6-1.7-0.6s-1.5,0.1-2.1,0.5c-0.6,0.3-1.2,0.6-1.6,0.9l-0.5-0.8
		c0.3-0.2,0.6-0.4,1.1-0.6c0.4-0.2,0.9-0.4,1.5-0.6c0.6-0.2,1.1-0.2,1.8-0.2c0.9,0,1.6,0.2,2.2,0.6c0.5,0.4,0.9,0.9,1.1,1.6
		c0.2,0.7,0.4,1.4,0.4,2.2v7.4h-0.9l-0.1-1.5h-0.1c-0.6,0.5-1.2,0.9-1.9,1.2S2122.8,2072.6,2122,2072.6L2122,2072.6z M2122.2,2071.7
		c0.7,0,1.3-0.2,1.9-0.5c0.6-0.3,1.3-0.8,2-1.4v-3.9c-1.6,0.2-2.8,0.4-3.8,0.7s-1.6,0.7-2,1.1s-0.6,1-0.6,1.6c0,0.8,0.2,1.4,0.7,1.8
		C2121,2071.5,2121.5,2071.7,2122.2,2071.7L2122.2,2071.7z"/>
</g>
<rect x="1962.3" y="2038.7" class="st4" width="55" height="55"/>
<rect x="1962.3" y="2120.1" class="st5" width="55" height="55"/>
<rect x="127.9" y="1.5" class="st4" width="1185.1" height="1023"/>
<rect x="1230" y="1152.2" class="st5" width="83" height="1023"/>
<rect x="1129.8" y="1152.2" class="st5" width="83" height="1023"/>
<rect x="1029.7" y="1152.2" class="st5" width="83" height="1023"/>
<rect x="929.5" y="1152.2" class="st5" width="83" height="1023"/>
<rect x="829.3" y="1152.2" class="st5" width="83" height="1023"/>
<rect x="729.1" y="1152.2" class="st5" width="83" height="1023"/>
<rect x="628.9" y="1152.2" class="st5" width="83" height="1023"/>
<rect x="528.7" y="1152.2" class="st5" width="83" height="1023"/>
<rect x="428.5" y="1152.2" class="st5" width="83" height="1023"/>
<rect x="328.3" y="1152.2" class="st5" width="83" height="1023"/>
<rect x="228.1" y="1152.2" class="st5" width="83" height="1023"/>
<rect x="128" y="1152.2" class="st5" width="83" height="1023"/>
</svg>
