<?xml version="1.0" encoding="utf-8"?>
<!-- Generator: Adobe Illustrator 26.2.1, SVG Export Plug-In . SVG Version: 6.00 Build 0)  -->
<svg version="1.1" id="a" xmlns="http://www.w3.org/2000/svg" xmlns:xlink="http://www.w3.org/1999/xlink" x="0px" y="0px"
	 viewBox="0 0 2229.4 2200.9" style="enable-background:new 0 0 2229.4 2200.9;" xml:space="preserve">
<style type="text/css">
	.st0{fill:#FFFFFF;}
	.st1{opacity:0.1;fill:#662D91;enable-background:new    ;}
	.st2{opacity:0.5;fill:#D7DF23;enable-background:new    ;}
	.st3{opacity:0.2;fill:#D7DF23;enable-background:new    ;}
	.st4{fill:#FFFFFF;stroke:#231F20;stroke-width:0.5;stroke-miterlimit:10;}
	.st5{fill:none;stroke:#ED1C24;stroke-miterlimit:10;}
	.st6{fill:#D7DF23;}
	.st7{fill:none;stroke:#231F20;stroke-width:0.25;stroke-linejoin:round;}
	.st8{opacity:0.1;fill:#ED1C24;enable-background:new    ;}
	.st9{fill:none;stroke:#ED1C24;stroke-width:0.75;stroke-miterlimit:10;}
	.st10{fill:#ED1C24;}
	.st11{opacity:0.1;fill:#FFDE17;enable-background:new    ;}
</style>
<rect x="25.2" y="1665.4" class="st0" width="844" height="390"/>
<rect x="25.2" y="1178" class="st0" width="844" height="390"/>
<rect x="1251.5" y="1911.5" class="st0" width="55" height="55"/>
<rect x="1251.5" y="1992.9" class="st0" width="55" height="55"/>
<rect x="1251.5" y="2074.3" class="st0" width="55" height="55"/>
<rect x="1251.5" y="1708.4" class="st0" width="844" height="128.9"/>
<rect x="25.2" y="25.2" class="st0" width="390" height="844"/>
<rect x="574.4" y="25.2" class="st0" width="388.1" height="844"/>
<rect x="1157.8" y="25.2" class="st0" width="390.5" height="844"/>
<rect x="1251.5" y="1222" class="st0" width="844" height="272.2"/>
<rect x="1736.5" y="72.2" class="st0" width="359" height="757.3"/>
<rect x="25.3" y="1837.4" class="st1" width="844" height="218"/>
<rect x="25.2" y="1178" class="st2" width="844" height="44"/>
<rect x="25.2" y="1498" class="st2" width="844" height="70"/>
<rect x="25.2" y="1665.4" class="st3" width="844" height="44"/>
<rect x="25.2" y="1985.4" class="st3" width="844" height="70"/>
<path class="st4" d="M372.2,25.2c23.8,0,43,19.3,43,43v758c0,23.8-19.3,43-43,43h-304c-23.8,0-43-19.3-43-43v-758
	c0-23.8,19.3-43,43-43L372.2,25.2 M372.2,0.3h-304c-37.5,0-68,30.5-68,68v758c0,37.5,30.5,68,68,68h304c37.5,0,68-30.5,68-68v-758
	C440.2,30.8,409.7,0.2,372.2,0.3C372.2,0.2,372.2,0.2,372.2,0.3z"/>
<rect x="25.2" y="25.2" class="st5" width="390" height="844"/>
<rect x="572.5" y="25.2" class="st6" width="390" height="47"/>
<rect x="572.5" y="835.2" class="st6" width="390" height="34"/>
<rect x="572.5" y="25.2" class="st5" width="390" height="844"/>
<rect x="572.5" y="536.2" class="st1" width="390" height="333"/>
<path class="st7" d="M615.5,25.2h304c23.8,0,43,19.3,43,43v758c0,23.8-19.3,43-43,43h-304c-23.8,0-43-19.3-43-43v-758
	C572.5,44.5,591.7,25.2,615.5,25.2z"/>
<rect x="1157.8" y="25.2" class="st6" width="390" height="47"/>
<rect x="1157.8" y="25.2" class="st3" width="390" height="143"/>
<rect x="1157.8" y="835.2" class="st6" width="390" height="34"/>
<rect x="1157.8" y="25.2" class="st5" width="390" height="844"/>
<rect x="1157.3" y="25.2" class="st8" width="16" height="844"/>
<rect x="1532.3" y="25.2" class="st8" width="16" height="844"/>
<path class="st7" d="M1200.8,25.2h304c23.8,0,43,19.3,43,43v758c0,23.8-19.3,43-43,43h-304c-23.8,0-43-19.3-43-43v-758
	C1157.8,44.5,1177.1,25.2,1200.8,25.2z"/>
<path class="st4" d="M728.1,36h78.7c8.1,0,14.7,6.6,14.7,14.6v0c0,8.1-6.6,14.6-14.7,14.6h-78.7c-8.1,0-14.7-6.6-14.7-14.6v0
	C713.4,42.6,720,36,728.1,36z"/>
<path class="st4" d="M1313.5,36h78.7c8.1,0,14.7,6.6,14.7,14.6v0c0,8.1-6.6,14.6-14.7,14.6h-78.7c-8.1,0-14.7-6.6-14.7-14.6v0
	C1298.8,42.6,1305.4,36,1313.5,36z"/>
<path class="st4" d="M180.9,36h78.7c8.1,0,14.6,6.6,14.6,14.6v0c0,8.1-6.6,14.6-14.6,14.6h-78.7c-8.1,0-14.6-6.6-14.6-14.6v0
	C166.2,42.6,172.8,36,180.9,36z"/>
<path class="st4" d="M150.4,857.4h139.8c1.3,0,2.4,1.1,2.4,2.3v0c0,1.3-1.1,2.3-2.4,2.3H150.4c-1.3,0-2.4-1.1-2.4-2.3v0
	C148,858.5,149.1,857.4,150.4,857.4z"/>
<path class="st4" d="M697.6,857.4h139.8c1.3,0,2.3,1.1,2.3,2.3v0c0,1.3-1.1,2.3-2.3,2.3H697.6c-1.3,0-2.3-1.1-2.3-2.3v0
	C695.2,858.5,696.3,857.4,697.6,857.4z"/>
<rect x="25.2" y="1178" class="st5" width="844" height="390"/>
<path class="st7" d="M25.2,1524.9v-304c0-23.8,19.3-43,43-43h758c23.8,0,43,19.3,43,43v304c0,23.8-19.3,43-43,43h-758
	C44.5,1568,25.2,1548.7,25.2,1524.9z"/>
<path class="st4" d="M36,1412.3v-78.7c0-8.1,6.6-14.7,14.6-14.7l0,0c8.1,0,14.6,6.6,14.6,14.7v78.7c0,8.1-6.6,14.7-14.6,14.7l0,0
	C42.6,1427,36,1420.4,36,1412.3z"/>
<path class="st4" d="M357.3,1554.9h179.9c1.3,0,2.3,1.1,2.3,2.3v0c0,1.3-1.1,2.3-2.3,2.3H357.3c-1.3,0-2.4-1.1-2.4-2.3v0
	C355,1556,356,1554.9,357.3,1554.9z"/>
<rect x="25.3" y="1665.4" class="st8" width="131" height="390"/>
<rect x="738.3" y="1665.4" class="st8" width="131" height="390"/>
<rect x="25.3" y="1665.4" class="st8" width="63" height="390"/>
<rect x="806.3" y="1665.4" class="st8" width="63" height="390"/>
<rect x="25.3" y="1665.4" class="st5" width="844" height="390"/>
<path class="st7" d="M25.3,2012.4v-304c0-23.8,19.3-43,43-43h758c23.8,0,43,19.3,43,43v304c0,23.8-19.3,43-43,43h-758
	C44.5,2055.4,25.3,2036.2,25.3,2012.4z"/>
<path class="st4" d="M36,1899.8V1821c0-8.1,6.6-14.7,14.6-14.7l0,0c8.1,0,14.6,6.6,14.6,14.7v78.7c0,8.1-6.6,14.7-14.6,14.7l0,0
	C42.6,1914.4,36,1907.9,36,1899.8z"/>
<path class="st4" d="M357.3,2042.4h179.9c1.3,0,2.3,1.1,2.3,2.3v0c0,1.3-1.1,2.3-2.3,2.3H357.3c-1.3,0-2.4-1.1-2.4-2.3v0
	C355,2043.5,356,2042.4,357.3,2042.4z"/>
<path class="st4" d="M1295.2,857.4H1435c1.3,0,2.3,1.1,2.3,2.3v0c0,1.3-1.1,2.3-2.3,2.3h-139.8c-1.3,0-2.3-1.1-2.3-2.3v0
	C1292.8,858.5,1293.9,857.4,1295.2,857.4z"/>
<g>
	<line class="st9" x1="962.5" y1="869.2" x2="962.5" y2="916.9"/>
	<g>
		<line class="st9" x1="573.3" y1="893.1" x2="961.7" y2="893.1"/>
		<polygon class="st10" points="575.8,896.2 576.3,895.6 573.6,893.1 576.3,890.6 575.8,890 572.5,893.1 		"/>
		<polygon class="st10" points="959.2,896.2 958.7,895.6 961.4,893.1 958.7,890.6 959.2,890 962.5,893.1 		"/>
	</g>
	<line class="st9" x1="572.5" y1="916.9" x2="572.5" y2="869.2"/>
</g>
<g>
	<path class="st0" d="M742.1,934.7c-0.8,0-1.5-0.1-2.1-0.3c-0.6-0.2-1.1-0.5-1.6-0.8s-0.8-0.7-1.2-1l0.6-0.7c0.5,0.5,1,1,1.7,1.4
		s1.5,0.6,2.6,0.6s1.9-0.3,2.6-0.9c0.7-0.6,1-1.4,1-2.5s-0.4-1.9-1.2-2.6c-0.8-0.7-2.2-1-4.1-1v-0.9c1.2,0,2.1-0.2,2.8-0.4
		s1.2-0.7,1.5-1.2s0.5-1.1,0.5-1.7c0-0.9-0.3-1.6-0.8-2.1s-1.3-0.8-2.3-0.8c-0.7,0-1.4,0.2-2,0.5c-0.6,0.3-1.1,0.7-1.6,1.2l-0.6-0.7
		c0.5-0.5,1.1-1,1.8-1.3s1.5-0.5,2.3-0.5c0.8,0,1.5,0.1,2.2,0.4s1.1,0.7,1.5,1.3s0.5,1.2,0.5,2c0,1-0.3,1.8-0.8,2.4
		s-1.2,1.1-2.1,1.4v0.1c0.6,0.1,1.2,0.4,1.7,0.7s0.9,0.8,1.3,1.4s0.5,1.2,0.5,1.9c0,0.9-0.2,1.7-0.6,2.3s-1,1.2-1.7,1.5
		C743.8,934.6,743,934.7,742.1,934.7L742.1,934.7z"/>
	<path class="st0" d="M752.6,934.7c-0.7,0-1.3-0.1-1.9-0.4s-1-0.6-1.4-1.1l0.7-0.7c0.3,0.4,0.7,0.7,1.2,1c0.5,0.2,0.9,0.3,1.4,0.3
		c0.8,0,1.6-0.2,2.3-0.7s1.2-1.3,1.7-2.4c0.4-1.1,0.6-2.6,0.6-4.5c-0.5,0.6-1.1,1.2-1.8,1.5c-0.7,0.4-1.4,0.6-2.1,0.6
		c-1.3,0-2.4-0.4-3.1-1.2s-1.1-2-1.1-3.5c0-0.9,0.2-1.8,0.6-2.5c0.4-0.7,0.9-1.3,1.5-1.7c0.6-0.4,1.3-0.6,2.1-0.6
		c1.5,0,2.7,0.6,3.6,1.9c0.9,1.2,1.4,3,1.4,5.4c0,2.1-0.3,3.8-0.8,5.1c-0.5,1.3-1.2,2.2-2.1,2.7
		C754.6,934.5,753.7,934.7,752.6,934.7L752.6,934.7z M750.1,923.6c0,1.1,0.3,2,0.8,2.8c0.5,0.7,1.4,1.1,2.5,1.1
		c0.6,0,1.2-0.2,1.8-0.5s1.3-1,1.9-1.8c-0.1-1.6-0.5-2.9-1.1-3.9s-1.6-1.5-2.8-1.5c-0.6,0-1.1,0.2-1.6,0.5c-0.5,0.3-0.8,0.8-1.1,1.4
		C750.3,922.2,750.1,922.8,750.1,923.6L750.1,923.6z"/>
	<path class="st0" d="M765.3,934.7c-1.5,0-2.6-0.7-3.4-2.1s-1.2-3.4-1.2-5.9s0.4-4.5,1.2-5.9s1.9-2,3.4-2s2.6,0.7,3.4,2
		c0.8,1.4,1.2,3.3,1.2,5.9s-0.4,4.5-1.2,5.9S766.8,934.7,765.3,934.7z M765.3,933.8c1.1,0,1.9-0.6,2.6-1.8c0.6-1.2,1-3,1-5.3
		s-0.3-4.1-1-5.2s-1.5-1.7-2.6-1.7s-1.9,0.6-2.5,1.7c-0.6,1.2-1,2.9-1,5.2s0.3,4.1,1,5.3S764.2,933.8,765.3,933.8z"/>
	<path class="st0" d="M778,939.6v-16.7h0.9l0.1,1.4h0.1c0.6-0.5,1.2-0.8,1.8-1.2c0.7-0.3,1.4-0.5,2.1-0.5c1.5,0,2.7,0.5,3.5,1.6
		c0.8,1.1,1.2,2.5,1.2,4.3c0,1.3-0.2,2.4-0.7,3.3s-1.1,1.6-1.9,2.1c-0.8,0.5-1.6,0.7-2.5,0.7c-0.5,0-1.1-0.1-1.7-0.4s-1.2-0.6-1.8-1
		v6.3L778,939.6L778,939.6z M782.5,933.8c0.8,0,1.5-0.2,2.1-0.7c0.6-0.5,1.1-1.1,1.4-1.9c0.3-0.8,0.5-1.7,0.5-2.8
		c0-0.9-0.1-1.8-0.4-2.5c-0.2-0.7-0.6-1.3-1.2-1.8c-0.5-0.4-1.2-0.7-2.1-0.7c-0.6,0-1.2,0.2-1.8,0.5c-0.6,0.3-1.3,0.8-2,1.4v6.8
		c0.7,0.5,1.3,0.9,1.9,1.2C781.6,933.7,782.1,933.8,782.5,933.8L782.5,933.8z"/>
	<path class="st0" d="M788.9,934.4l3.9-6l-3.6-5.5h1.2l1.9,2.9c0.2,0.3,0.4,0.6,0.6,0.9l0.6,1h0.1c0.2-0.3,0.4-0.6,0.6-1
		c0.2-0.3,0.4-0.6,0.6-0.9l1.8-2.9h1.1l-3.6,5.6l3.9,5.9h-1.2l-2-3.1c-0.2-0.4-0.4-0.7-0.7-1.1c-0.2-0.3-0.5-0.7-0.7-1h-0.1
		c-0.2,0.3-0.4,0.7-0.7,1c-0.2,0.3-0.4,0.7-0.7,1.1l-2,3.1H788.9L788.9,934.4z"/>
</g>
<g>
	<line class="st9" x1="2095.5" y1="829.5" x2="2095.5" y2="877.2"/>
	<g>
		<line class="st9" x1="1737.3" y1="853.3" x2="2094.7" y2="853.3"/>
		<polygon class="st10" points="1739.8,856.4 1740.3,855.9 1737.6,853.3 1740.3,850.8 1739.8,850.3 1736.5,853.3 		"/>
		<polygon class="st10" points="2092.2,856.4 2091.7,855.9 2094.4,853.3 2091.7,850.8 2092.2,850.3 2095.5,853.3 		"/>
	</g>
	<line class="st9" x1="1736.5" y1="877.2" x2="1736.5" y2="829.5"/>
</g>
<g>
	<path class="st0" d="M1890.7,895c-0.8,0-1.5-0.1-2.1-0.3s-1.1-0.5-1.6-0.8s-0.8-0.7-1.2-1l0.6-0.7c0.5,0.5,1,1,1.7,1.4
		s1.5,0.6,2.6,0.6s1.9-0.3,2.6-0.9c0.7-0.6,1-1.4,1-2.5s-0.4-1.9-1.2-2.6c-0.8-0.7-2.2-1-4.1-1v-0.9c1.2,0,2.1-0.2,2.8-0.4
		s1.2-0.7,1.5-1.2s0.5-1.1,0.5-1.7c0-0.9-0.3-1.6-0.8-2.1c-0.6-0.5-1.3-0.8-2.3-0.8c-0.7,0-1.4,0.2-2,0.5s-1.1,0.7-1.6,1.2l-0.6-0.7
		c0.5-0.5,1.1-1,1.8-1.3s1.5-0.5,2.3-0.5c0.8,0,1.5,0.1,2.2,0.4s1.1,0.7,1.5,1.3s0.6,1.2,0.6,2c0,1-0.3,1.8-0.8,2.4
		c-0.6,0.6-1.2,1.1-2.1,1.4v0.1c0.6,0.1,1.2,0.4,1.7,0.7s0.9,0.8,1.3,1.4c0.3,0.5,0.5,1.2,0.5,1.9c0,0.9-0.2,1.7-0.6,2.3
		s-1,1.2-1.7,1.5C1892.4,894.8,1891.6,895,1890.7,895L1890.7,895z"/>
	<path class="st0" d="M1902.1,895c-0.8,0-1.5-0.1-2.1-0.3s-1.1-0.5-1.6-0.8s-0.8-0.6-1.2-1l0.6-0.7c0.5,0.5,1,0.9,1.7,1.3
		s1.5,0.6,2.5,0.6c0.7,0,1.3-0.2,1.9-0.5s1-0.8,1.4-1.5s0.5-1.3,0.5-2.2c0-1.2-0.3-2.2-1-2.9s-1.6-1.1-2.7-1.1
		c-0.6,0-1.1,0.1-1.5,0.3c-0.4,0.2-0.9,0.4-1.3,0.8l-0.7-0.5l0.6-7.2h7.1v0.9h-6.1l-0.5,5.5c0.4-0.2,0.8-0.4,1.2-0.6
		s0.9-0.2,1.5-0.2c0.9,0,1.7,0.2,2.4,0.5c0.7,0.3,1.3,0.9,1.7,1.6s0.6,1.6,0.6,2.8s-0.2,2-0.7,2.8s-1.1,1.3-1.8,1.7
		C1903.7,894.8,1902.9,895,1902.1,895L1902.1,895z"/>
	<path class="st0" d="M1912.7,895c-0.7,0-1.3-0.1-1.9-0.4c-0.5-0.3-1-0.6-1.4-1.1l0.7-0.7c0.3,0.4,0.7,0.7,1.2,1
		c0.5,0.2,0.9,0.3,1.4,0.3c0.8,0,1.6-0.2,2.3-0.7c0.7-0.5,1.2-1.3,1.7-2.4c0.4-1.1,0.6-2.6,0.6-4.5c-0.5,0.6-1.1,1.2-1.8,1.5
		c-0.7,0.4-1.4,0.6-2.1,0.6c-1.3,0-2.4-0.4-3.1-1.2s-1.1-2-1.1-3.5c0-0.9,0.2-1.8,0.6-2.5c0.4-0.7,0.9-1.3,1.5-1.7s1.3-0.6,2.1-0.6
		c1.5,0,2.7,0.6,3.6,1.9c0.9,1.2,1.4,3,1.4,5.4c0,2.1-0.3,3.8-0.8,5.1s-1.2,2.2-2.1,2.7C1914.6,894.7,1913.7,895,1912.7,895
		L1912.7,895z M1910.2,883.8c0,1.1,0.3,2,0.8,2.8s1.4,1.1,2.5,1.1c0.6,0,1.2-0.2,1.8-0.5c0.7-0.4,1.3-1,1.9-1.8
		c-0.1-1.6-0.5-2.9-1.1-3.9s-1.6-1.5-2.8-1.5c-0.6,0-1.1,0.2-1.6,0.5c-0.5,0.3-0.8,0.8-1.1,1.4
		C1910.3,882.5,1910.2,883.1,1910.2,883.8L1910.2,883.8z"/>
	<path class="st0" d="M1926.6,899.9v-16.7h0.9l0.1,1.4h0.1c0.6-0.5,1.2-0.8,1.8-1.2s1.4-0.5,2.1-0.5c1.5,0,2.7,0.5,3.5,1.6
		c0.8,1.1,1.2,2.5,1.2,4.3c0,1.3-0.2,2.4-0.7,3.3s-1.1,1.6-1.9,2.1c-0.8,0.5-1.6,0.7-2.5,0.7c-0.5,0-1.1-0.1-1.7-0.4s-1.2-0.6-1.8-1
		v6.3L1926.6,899.9L1926.6,899.9z M1931.1,894c0.8,0,1.5-0.2,2.1-0.7s1.1-1.1,1.4-1.9c0.3-0.8,0.5-1.7,0.5-2.8
		c0-0.9-0.1-1.8-0.4-2.5c-0.2-0.7-0.6-1.3-1.2-1.8c-0.5-0.4-1.2-0.7-2.1-0.7c-0.6,0-1.2,0.2-1.8,0.5c-0.6,0.3-1.3,0.8-2,1.4v6.8
		c0.7,0.5,1.3,0.9,1.9,1.2S1930.6,894,1931.1,894L1931.1,894z"/>
	<path class="st0" d="M1937.5,894.7l3.9-6l-3.6-5.5h1.2l1.9,2.9c0.2,0.3,0.4,0.6,0.6,0.9s0.4,0.6,0.6,1h0.1c0.2-0.3,0.4-0.6,0.6-1
		c0.2-0.3,0.4-0.6,0.6-0.9l1.8-2.9h1.1l-3.6,5.6l3.9,5.9h-1.2l-2-3.1c-0.2-0.4-0.4-0.7-0.7-1.1c-0.2-0.3-0.5-0.7-0.7-1h-0.1
		c-0.2,0.3-0.4,0.7-0.7,1s-0.4,0.7-0.7,1.1l-2,3.1H1937.5L1937.5,894.7z"/>
</g>
<g>
	<line class="st9" x1="2095.5" y1="1498" x2="2095.5" y2="1545.7"/>
	<g>
		<line class="st9" x1="1252.3" y1="1521.8" x2="2094.7" y2="1521.8"/>
		<polygon class="st10" points="1254.8,1524.9 1255.3,1524.4 1252.6,1521.8 1255.3,1519.3 1254.8,1518.8 1251.5,1521.8 		"/>
		<polygon class="st10" points="2092.2,1524.9 2091.7,1524.4 2094.4,1521.8 2091.7,1519.3 2092.2,1518.8 2095.5,1521.8 		"/>
	</g>
	<line class="st9" x1="1251.5" y1="1545.7" x2="1251.5" y2="1498"/>
</g>
<g>
	<path class="st0" d="M1648.4,1563.5c-0.9,0-1.8-0.2-2.5-0.6s-1.3-0.9-1.7-1.5s-0.6-1.4-0.6-2.2c0-0.7,0.2-1.3,0.5-1.9
		c0.3-0.6,0.7-1,1.2-1.4c0.5-0.4,0.9-0.7,1.4-1v-0.1c-0.6-0.4-1.1-0.8-1.5-1.4s-0.7-1.3-0.7-2.1c0-0.7,0.2-1.4,0.5-1.9
		c0.4-0.6,0.8-1,1.4-1.3s1.3-0.5,2-0.5c1.3,0,2.3,0.4,3.1,1.1c0.7,0.8,1.1,1.7,1.1,2.9c0,0.6-0.1,1.1-0.4,1.6s-0.5,0.9-0.9,1.3
		c-0.3,0.4-0.7,0.7-1,0.9v0.1c0.4,0.3,0.9,0.6,1.3,0.9c0.4,0.3,0.7,0.8,1,1.2c0.3,0.5,0.4,1.1,0.4,1.8c0,0.7-0.2,1.4-0.6,2
		s-0.9,1.1-1.6,1.4C1650.2,1563.3,1649.4,1563.5,1648.4,1563.5L1648.4,1563.5z M1648.4,1562.6c1.1,0,2-0.3,2.6-0.9
		c0.7-0.6,1-1.3,1-2.2c0-0.8-0.2-1.4-0.7-1.9c-0.4-0.5-1-0.9-1.7-1.2s-1.5-0.7-2.3-1c-0.8,0.4-1.4,1-1.9,1.6
		c-0.5,0.6-0.8,1.4-0.8,2.2c0,0.6,0.2,1.2,0.5,1.7s0.8,0.9,1.4,1.2C1647,1562.4,1647.7,1562.6,1648.4,1562.6L1648.4,1562.6z
		 M1649.6,1555.2c0.7-0.5,1.2-1.1,1.5-1.7s0.5-1.2,0.5-1.9c0-0.8-0.3-1.6-0.8-2.2c-0.6-0.6-1.3-0.9-2.3-0.9c-0.8,0-1.6,0.3-2.1,0.8
		c-0.6,0.5-0.8,1.2-0.8,2.1c0,0.7,0.2,1.3,0.6,1.8c0.4,0.5,0.9,0.9,1.5,1.2C1648.2,1554.6,1648.9,1554.9,1649.6,1555.2
		L1649.6,1555.2z"/>
	<path class="st0" d="M1661.5,1563.2v-4.6h-7.1v-0.6l7.1-10.1h1v9.8h2.3v0.9h-2.3v4.6H1661.5L1661.5,1563.2z M1655.8,1557.7h5.8
		v-5.6c0-0.3,0-0.8,0-1.3c0-0.5,0-1,0.1-1.3h-0.1c-0.2,0.3-0.4,0.6-0.6,0.9c-0.2,0.3-0.4,0.6-0.7,1L1655.8,1557.7L1655.8,1557.7z"/>
	<path class="st0" d="M1673,1563.2v-4.6h-7.1v-0.6l7.1-10.1h1v9.8h2.3v0.9h-2.3v4.6H1673L1673,1563.2z M1667.3,1557.7h5.8v-5.6
		c0-0.3,0-0.8,0-1.3c0-0.5,0-1,0.1-1.3h-0.1c-0.2,0.3-0.4,0.6-0.6,0.9c-0.2,0.3-0.4,0.6-0.7,1L1667.3,1557.7L1667.3,1557.7z"/>
	<path class="st0" d="M1684.1,1568.4v-16.7h0.9l0.1,1.4h0.1c0.6-0.4,1.2-0.8,1.8-1.2s1.4-0.5,2.1-0.5c1.5,0,2.7,0.5,3.5,1.6
		c0.8,1.1,1.2,2.5,1.2,4.3c0,1.3-0.2,2.4-0.7,3.3s-1.1,1.6-1.9,2.1c-0.8,0.5-1.6,0.7-2.5,0.7c-0.5,0-1.1-0.1-1.7-0.4s-1.2-0.6-1.8-1
		v6.3L1684.1,1568.4L1684.1,1568.4z M1688.6,1562.5c0.8,0,1.5-0.2,2.1-0.7s1.1-1.1,1.4-1.9c0.3-0.8,0.5-1.7,0.5-2.8
		c0-0.9-0.1-1.8-0.4-2.5s-0.6-1.3-1.2-1.8c-0.5-0.4-1.2-0.7-2.1-0.7c-0.6,0-1.2,0.2-1.8,0.5c-0.6,0.3-1.3,0.8-2,1.4v6.8
		c0.7,0.5,1.3,0.9,1.9,1.2S1688.1,1562.5,1688.6,1562.5L1688.6,1562.5z"/>
	<path class="st0" d="M1695,1563.2l3.9-6l-3.6-5.5h1.2l1.9,2.9c0.2,0.3,0.4,0.6,0.6,0.9s0.4,0.6,0.6,1h0.1c0.2-0.3,0.4-0.6,0.6-1
		c0.2-0.3,0.4-0.6,0.6-0.9l1.8-2.9h1.1l-3.6,5.6l3.9,5.9h-1.2l-2-3.1c-0.2-0.4-0.4-0.7-0.7-1.1s-0.5-0.7-0.7-1h-0.1
		c-0.2,0.3-0.4,0.7-0.7,1s-0.4,0.7-0.7,1.1l-2,3.1H1695L1695,1563.2z"/>
</g>
<g>
	<line class="st9" x1="1173.3" y1="869.2" x2="1173.3" y2="916.9"/>
	<g>
		<line class="st9" x1="1158.7" y1="893.1" x2="1172.5" y2="893.1"/>
		<polygon class="st10" points="1161.1,896.2 1161.7,895.6 1158.9,893.1 1161.7,890.6 1161.1,890 1157.8,893.1 		"/>
		<polygon class="st10" points="1170,896.2 1169.5,895.6 1172.2,893.1 1169.5,890.6 1170,890 1173.3,893.1 		"/>
	</g>
	<line class="st9" x1="1157.8" y1="916.9" x2="1157.8" y2="869.2"/>
</g>
<g>
	<path class="st0" d="M1142.4,934.4v-0.9h3.6v-12.7h-2.7v-0.7c0.6-0.1,1.2-0.2,1.7-0.4s0.9-0.3,1.3-0.5h0.9v14.4h3.3v0.9
		L1142.4,934.4L1142.4,934.4z"/>
	<path class="st0" d="M1158.2,934.7c-1.5,0-2.8-0.6-3.7-1.9c-0.9-1.3-1.4-3-1.4-5.4c0-1.6,0.2-3,0.5-4.1c0.3-1.1,0.7-2,1.2-2.7
		s1.1-1.2,1.8-1.5c0.7-0.3,1.4-0.5,2.1-0.5s1.3,0.1,1.9,0.4c0.5,0.3,1,0.6,1.4,1.1l-0.7,0.7c-0.3-0.4-0.7-0.7-1.2-1
		c-0.4-0.2-0.9-0.3-1.4-0.3c-0.8,0-1.6,0.2-2.3,0.7c-0.7,0.5-1.2,1.3-1.7,2.4s-0.6,2.6-0.6,4.5c0.5-0.7,1.1-1.2,1.8-1.6
		s1.4-0.6,2.1-0.6c1.3,0,2.4,0.4,3.1,1.2s1.1,2,1.1,3.5c0,0.9-0.2,1.8-0.6,2.5c-0.4,0.7-0.9,1.3-1.5,1.7
		C1159.6,934.5,1158.9,934.7,1158.2,934.7L1158.2,934.7z M1158,926.1c-0.5,0-1.1,0.2-1.8,0.5c-0.7,0.3-1.3,0.9-1.9,1.8
		c0.1,1.6,0.5,2.9,1.1,3.9s1.6,1.5,2.8,1.5c0.6,0,1.1-0.2,1.6-0.5c0.5-0.3,0.8-0.8,1.1-1.4s0.4-1.2,0.4-2c0-1.1-0.3-2-0.8-2.8
		S1159.1,926.1,1158,926.1L1158,926.1z"/>
	<path class="st0" d="M1170.4,939.6v-16.7h0.9l0.1,1.4h0.1c0.6-0.5,1.2-0.8,1.8-1.2c0.7-0.3,1.4-0.5,2.1-0.5c1.5,0,2.7,0.5,3.5,1.6
		c0.8,1.1,1.2,2.5,1.2,4.3c0,1.3-0.2,2.4-0.7,3.3s-1.1,1.6-1.9,2.1s-1.6,0.7-2.5,0.7c-0.5,0-1.1-0.1-1.7-0.4s-1.2-0.6-1.8-1v6.3
		L1170.4,939.6L1170.4,939.6z M1174.9,933.8c0.8,0,1.5-0.2,2.1-0.7s1.1-1.1,1.4-1.9c0.3-0.8,0.5-1.7,0.5-2.8c0-0.9-0.1-1.8-0.4-2.5
		c-0.2-0.7-0.6-1.3-1.2-1.8c-0.5-0.4-1.2-0.7-2.1-0.7c-0.6,0-1.2,0.2-1.8,0.5c-0.6,0.3-1.3,0.8-2,1.4v6.8c0.7,0.5,1.3,0.9,1.9,1.2
		C1173.9,933.7,1174.4,933.8,1174.9,933.8L1174.9,933.8z"/>
	<path class="st0" d="M1181.3,934.4l3.9-6l-3.6-5.5h1.2l1.9,2.9c0.2,0.3,0.4,0.6,0.6,0.9l0.6,1h0.1c0.2-0.3,0.4-0.6,0.6-1
		c0.2-0.3,0.4-0.6,0.6-0.9l1.8-2.9h1.1l-3.6,5.6l3.9,5.9h-1.2l-2-3.1c-0.2-0.4-0.4-0.7-0.7-1.1c-0.2-0.3-0.5-0.7-0.7-1h-0.1
		c-0.2,0.3-0.4,0.7-0.7,1c-0.2,0.3-0.4,0.7-0.7,1.1l-2,3.1H1181.3L1181.3,934.4z"/>
</g>
<g>
	<line class="st9" x1="1548.1" y1="869.2" x2="1548.1" y2="916.9"/>
	<g>
		<line class="st9" x1="1533.4" y1="893.1" x2="1547.3" y2="893.1"/>
		<polygon class="st10" points="1535.9,896.2 1536.4,895.6 1533.7,893.1 1536.4,890.6 1535.9,890 1532.6,893.1 		"/>
		<polygon class="st10" points="1544.8,896.2 1544.3,895.6 1547,893.1 1544.3,890.6 1544.8,890 1548.1,893.1 		"/>
	</g>
	<line class="st9" x1="1532.6" y1="916.9" x2="1532.6" y2="869.2"/>
</g>
<g>
	<path class="st0" d="M1517.2,934.4v-0.9h3.6v-12.7h-2.7v-0.7c0.6-0.1,1.2-0.2,1.7-0.4s0.9-0.3,1.3-0.5h0.9v14.4h3.3v0.9
		L1517.2,934.4L1517.2,934.4z"/>
	<path class="st0" d="M1532.9,934.7c-1.5,0-2.8-0.6-3.7-1.9c-0.9-1.3-1.4-3-1.4-5.4c0-1.6,0.2-3,0.5-4.1c0.3-1.1,0.7-2,1.2-2.7
		s1.1-1.2,1.8-1.5c0.7-0.3,1.4-0.5,2.1-0.5s1.3,0.1,1.9,0.4c0.5,0.3,1,0.6,1.4,1.1l-0.7,0.7c-0.3-0.4-0.7-0.7-1.2-1
		c-0.4-0.2-0.9-0.3-1.4-0.3c-0.8,0-1.6,0.2-2.3,0.7c-0.7,0.5-1.2,1.3-1.7,2.4s-0.6,2.6-0.6,4.5c0.5-0.7,1.1-1.2,1.8-1.6
		s1.4-0.6,2.1-0.6c1.3,0,2.4,0.4,3.1,1.2s1.1,2,1.1,3.5c0,0.9-0.2,1.8-0.6,2.5c-0.4,0.7-0.9,1.3-1.5,1.7
		C1534.4,934.5,1533.7,934.7,1532.9,934.7L1532.9,934.7z M1532.7,926.1c-0.5,0-1.1,0.2-1.8,0.5c-0.7,0.3-1.3,0.9-1.9,1.8
		c0.1,1.6,0.5,2.9,1.1,3.9s1.6,1.5,2.8,1.5c0.6,0,1.1-0.2,1.6-0.5c0.5-0.3,0.8-0.8,1.1-1.4s0.4-1.2,0.4-2c0-1.1-0.3-2-0.8-2.8
		S1533.9,926.1,1532.7,926.1L1532.7,926.1z"/>
	<path class="st0" d="M1545.2,939.6v-16.7h0.9l0.1,1.4h0.1c0.6-0.5,1.2-0.8,1.8-1.2c0.7-0.3,1.4-0.5,2.1-0.5c1.5,0,2.7,0.5,3.5,1.6
		c0.8,1.1,1.2,2.5,1.2,4.3c0,1.3-0.2,2.4-0.7,3.3s-1.1,1.6-1.9,2.1s-1.6,0.7-2.5,0.7c-0.5,0-1.1-0.1-1.7-0.4s-1.2-0.6-1.8-1v6.3
		L1545.2,939.6L1545.2,939.6z M1549.6,933.8c0.8,0,1.5-0.2,2.1-0.7s1.1-1.1,1.4-1.9c0.3-0.8,0.5-1.7,0.5-2.8c0-0.9-0.1-1.8-0.4-2.5
		c-0.2-0.7-0.6-1.3-1.2-1.8c-0.5-0.4-1.2-0.7-2.1-0.7c-0.6,0-1.2,0.2-1.8,0.5c-0.6,0.3-1.3,0.8-2,1.4v6.8c0.7,0.5,1.3,0.9,1.9,1.2
		C1548.7,933.7,1549.2,933.8,1549.6,933.8L1549.6,933.8z"/>
	<path class="st0" d="M1556.1,934.4l3.9-6l-3.6-5.5h1.2l1.9,2.9c0.2,0.3,0.4,0.6,0.6,0.9l0.6,1h0.1c0.2-0.3,0.4-0.6,0.6-1
		c0.2-0.3,0.4-0.6,0.6-0.9l1.8-2.9h1.1l-3.6,5.6l3.9,5.9h-1.2l-2-3.1c-0.2-0.4-0.4-0.7-0.7-1.1c-0.2-0.3-0.5-0.7-0.7-1h-0.1
		c-0.2,0.3-0.4,0.7-0.7,1c-0.2,0.3-0.4,0.7-0.7,1.1l-2,3.1H1556.1L1556.1,934.4z"/>
</g>
<g>
	<line class="st9" x1="869.3" y1="2055.4" x2="869.3" y2="2103.1"/>
	<g>
		<line class="st9" x1="807.1" y1="2079.2" x2="868.5" y2="2079.2"/>
		<polygon class="st10" points="809.5,2082.3 810.1,2081.8 807.3,2079.2 810.1,2076.7 809.5,2076.2 806.2,2079.2 		"/>
		<polygon class="st10" points="866,2082.3 865.5,2081.8 868.2,2079.2 865.5,2076.7 866,2076.2 869.3,2079.2 		"/>
	</g>
	<line class="st9" x1="806.2" y1="2103.1" x2="806.2" y2="2055.4"/>
</g>
<g>
	<line class="st9" x1="869.3" y1="2055.4" x2="869.3" y2="2103.1"/>
	<g>
		<line class="st9" x1="739.1" y1="2079.2" x2="868.4" y2="2079.2"/>
		<polygon class="st10" points="741.5,2082.3 742.1,2081.8 739.3,2079.2 742.1,2076.7 741.5,2076.2 738.2,2079.2 		"/>
		<polygon class="st10" points="866,2082.3 865.5,2081.8 868.2,2079.2 865.5,2076.7 866,2076.2 869.3,2079.2 		"/>
	</g>
	<line class="st9" x1="738.2" y1="2103.1" x2="738.2" y2="2055.4"/>
</g>
<g>
	<line class="st9" x1="88.3" y1="2055.4" x2="88.3" y2="2103.1"/>
	<g>
		<line class="st9" x1="26.1" y1="2079.2" x2="87.4" y2="2079.2"/>
		<polygon class="st10" points="28.5,2082.3 29.1,2081.8 26.4,2079.2 29.1,2076.7 28.5,2076.2 25.2,2079.2 		"/>
		<polygon class="st10" points="85,2082.3 84.4,2081.8 87.2,2079.2 84.4,2076.7 85,2076.2 88.3,2079.2 		"/>
	</g>
	<line class="st9" x1="25.2" y1="2103.1" x2="25.2" y2="2055.4"/>
</g>
<g>
	<line class="st9" x1="156.2" y1="2055.4" x2="156.2" y2="2103.1"/>
	<g>
		<line class="st9" x1="26.1" y1="2079.2" x2="155.4" y2="2079.2"/>
		<polygon class="st10" points="28.5,2082.3 29.1,2081.8 26.4,2079.2 29.1,2076.7 28.5,2076.2 25.2,2079.2 		"/>
		<polygon class="st10" points="152.9,2082.3 152.4,2081.8 155.1,2079.2 152.4,2076.7 152.9,2076.2 156.2,2079.2 		"/>
	</g>
	<line class="st9" x1="25.2" y1="2103.1" x2="25.2" y2="2055.4"/>
</g>
<g>
	<path class="st0" d="M818.9,2120.9c-1.5,0-2.8-0.6-3.7-1.9c-0.9-1.3-1.4-3-1.4-5.4c0-1.6,0.2-3,0.5-4.1c0.3-1.1,0.7-2,1.2-2.7
		s1.1-1.2,1.8-1.5s1.4-0.5,2.1-0.5s1.3,0.1,1.9,0.4c0.5,0.3,1,0.6,1.4,1.1l-0.7,0.7c-0.3-0.4-0.7-0.7-1.2-0.9s-0.9-0.3-1.4-0.3
		c-0.8,0-1.6,0.2-2.3,0.7s-1.2,1.3-1.7,2.4s-0.6,2.6-0.6,4.5c0.5-0.7,1.1-1.2,1.8-1.6c0.7-0.4,1.4-0.6,2.1-0.6
		c1.3,0,2.4,0.4,3.1,1.2s1.1,2,1.1,3.5c0,0.9-0.2,1.8-0.6,2.5c-0.4,0.7-0.9,1.3-1.5,1.7C820.3,2120.7,819.6,2120.9,818.9,2120.9
		L818.9,2120.9z M818.7,2112.2c-0.5,0-1.1,0.2-1.8,0.5c-0.7,0.3-1.3,0.9-1.9,1.8c0.1,1.6,0.5,2.9,1.1,3.9c0.6,1,1.6,1.5,2.8,1.5
		c0.6,0,1.1-0.2,1.6-0.5c0.5-0.3,0.8-0.8,1.1-1.4c0.3-0.6,0.4-1.2,0.4-2c0-1.1-0.3-2-0.8-2.8S819.8,2112.2,818.7,2112.2
		L818.7,2112.2z"/>
	<path class="st0" d="M829.7,2120.9c-0.8,0-1.5-0.1-2.1-0.3c-0.6-0.2-1.1-0.5-1.6-0.8s-0.8-0.7-1.2-1l0.6-0.7c0.5,0.5,1,0.9,1.7,1.4
		s1.5,0.6,2.6,0.6s1.9-0.3,2.6-0.9c0.7-0.6,1-1.4,1-2.5s-0.4-1.9-1.2-2.6c-0.8-0.7-2.2-1-4.1-1v-0.9c1.2,0,2.1-0.1,2.8-0.4
		s1.2-0.7,1.5-1.2s0.5-1.1,0.5-1.7c0-0.9-0.3-1.6-0.8-2.1s-1.3-0.8-2.3-0.8c-0.7,0-1.4,0.2-2,0.5c-0.6,0.3-1.1,0.7-1.6,1.2l-0.6-0.7
		c0.5-0.5,1.1-0.9,1.8-1.3s1.5-0.6,2.3-0.6c0.8,0,1.5,0.1,2.2,0.4s1.1,0.7,1.5,1.3s0.5,1.2,0.5,2c0,1-0.3,1.8-0.8,2.4
		c-0.5,0.6-1.2,1.1-2.1,1.4v0.1c0.6,0.1,1.2,0.4,1.7,0.7c0.5,0.4,0.9,0.8,1.3,1.4s0.5,1.2,0.5,1.9c0,0.9-0.2,1.6-0.6,2.3
		s-1,1.2-1.7,1.5S830.5,2120.9,829.7,2120.9L829.7,2120.9z"/>
	<path class="st0" d="M842.6,2125.8v-16.7h0.9l0.1,1.4h0.1c0.6-0.4,1.2-0.9,1.8-1.2c0.7-0.4,1.4-0.5,2.1-0.5c1.5,0,2.7,0.5,3.5,1.6
		c0.8,1.1,1.2,2.5,1.2,4.3c0,1.3-0.2,2.4-0.7,3.3s-1.1,1.6-1.9,2.1c-0.8,0.5-1.6,0.7-2.5,0.7c-0.5,0-1.1-0.1-1.7-0.4s-1.2-0.6-1.8-1
		v6.3L842.6,2125.8L842.6,2125.8z M847.1,2119.9c0.8,0,1.5-0.2,2.1-0.7c0.6-0.4,1.1-1.1,1.4-1.9c0.3-0.8,0.5-1.7,0.5-2.8
		c0-0.9-0.1-1.8-0.4-2.5s-0.6-1.3-1.2-1.8c-0.5-0.4-1.2-0.6-2.1-0.6c-0.6,0-1.2,0.2-1.8,0.5c-0.6,0.3-1.3,0.8-2,1.4v6.8
		c0.7,0.5,1.3,0.9,1.9,1.1C846.1,2119.8,846.6,2119.9,847.1,2119.9L847.1,2119.9z"/>
	<path class="st0" d="M853.5,2120.6l3.9-6l-3.6-5.5h1.2l1.9,2.9c0.2,0.3,0.4,0.6,0.6,0.9l0.6,1h0.1c0.2-0.3,0.4-0.6,0.6-1
		c0.2-0.3,0.4-0.6,0.6-0.9l1.8-2.9h1.1l-3.6,5.6l3.9,5.9h-1.2l-2-3.1c-0.2-0.4-0.4-0.7-0.7-1.1s-0.5-0.7-0.7-1h-0.1
		c-0.2,0.3-0.4,0.7-0.7,1s-0.4,0.7-0.7,1.1l-2,3.1H853.5L853.5,2120.6z"/>
</g>
<g>
	<path class="st0" d="M774.9,2153.1v-0.9h3.6v-12.7h-2.7v-0.7c0.6-0.1,1.2-0.2,1.7-0.4s0.9-0.3,1.3-0.6h0.9v14.4h3.3v0.9H774.9
		L774.9,2153.1z"/>
	<path class="st0" d="M789.9,2153.4c-0.8,0-1.5-0.1-2.1-0.3c-0.6-0.2-1.1-0.5-1.6-0.8s-0.8-0.7-1.2-1l0.6-0.7c0.5,0.5,1,0.9,1.7,1.4
		s1.5,0.6,2.6,0.6s1.9-0.3,2.6-0.9s1-1.4,1-2.5s-0.4-1.9-1.2-2.6c-0.8-0.7-2.2-1-4.1-1v-0.9c1.2,0,2.1-0.1,2.8-0.4
		c0.7-0.3,1.2-0.7,1.5-1.2s0.5-1.1,0.5-1.7c0-0.9-0.3-1.6-0.8-2.1s-1.3-0.8-2.3-0.8c-0.7,0-1.4,0.2-2,0.5c-0.6,0.3-1.1,0.7-1.6,1.2
		l-0.6-0.7c0.5-0.5,1.1-0.9,1.8-1.3s1.5-0.6,2.3-0.6c0.8,0,1.5,0.1,2.2,0.4s1.1,0.7,1.5,1.3s0.5,1.2,0.5,2c0,1-0.3,1.8-0.8,2.4
		c-0.5,0.6-1.2,1.1-2.1,1.4v0.1c0.6,0.1,1.2,0.4,1.7,0.7s0.9,0.8,1.3,1.4s0.5,1.2,0.5,1.9c0,0.9-0.2,1.6-0.6,2.3
		c-0.4,0.7-1,1.2-1.7,1.5S790.8,2153.4,789.9,2153.4L789.9,2153.4z"/>
	<path class="st0" d="M797.8,2153.1v-0.9h3.6v-12.7h-2.7v-0.7c0.6-0.1,1.2-0.2,1.7-0.4s0.9-0.3,1.3-0.6h0.9v14.4h3.3v0.9H797.8
		L797.8,2153.1z"/>
	<path class="st0" d="M814.3,2158.3v-16.7h0.9l0.1,1.4h0.1c0.6-0.4,1.2-0.9,1.8-1.2s1.4-0.5,2.1-0.5c1.5,0,2.7,0.5,3.5,1.6
		c0.8,1.1,1.2,2.5,1.2,4.3c0,1.3-0.2,2.4-0.7,3.3s-1.1,1.6-1.9,2.1c-0.8,0.5-1.6,0.7-2.5,0.7c-0.5,0-1.1-0.1-1.7-0.4s-1.2-0.6-1.8-1
		v6.3L814.3,2158.3L814.3,2158.3z M818.8,2152.5c0.8,0,1.5-0.2,2.1-0.7s1.1-1.1,1.4-1.9c0.3-0.8,0.5-1.7,0.5-2.8
		c0-0.9-0.1-1.8-0.4-2.5s-0.6-1.3-1.2-1.8c-0.5-0.4-1.2-0.6-2.1-0.6c-0.6,0-1.2,0.2-1.8,0.5s-1.3,0.8-2,1.4v6.8
		c0.7,0.5,1.3,0.9,1.9,1.1S818.4,2152.5,818.8,2152.5L818.8,2152.5z"/>
	<path class="st0" d="M825.2,2153.1l3.9-6l-3.6-5.5h1.2l1.9,2.9c0.2,0.3,0.4,0.6,0.6,0.9c0.2,0.3,0.4,0.6,0.6,1h0.1
		c0.2-0.3,0.4-0.6,0.6-1c0.2-0.3,0.4-0.6,0.6-0.9l1.8-2.9h1.1l-3.6,5.6l3.9,5.9h-1.2l-2-3.1c-0.2-0.4-0.4-0.7-0.7-1.1
		s-0.5-0.7-0.7-1h-0.1c-0.2,0.3-0.4,0.7-0.7,1s-0.4,0.7-0.7,1.1l-2,3.1H825.2L825.2,2153.1z"/>
</g>
<g>
	<path class="st0" d="M59.4,2153.1v-0.9H63v-12.7h-2.7v-0.7c0.6-0.1,1.2-0.2,1.7-0.4s0.9-0.3,1.3-0.6H64v14.4h3.3v0.9H59.4
		L59.4,2153.1z"/>
	<path class="st0" d="M74.4,2153.4c-0.8,0-1.5-0.1-2.1-0.3c-0.6-0.2-1.1-0.5-1.6-0.8s-0.8-0.7-1.2-1l0.6-0.7c0.5,0.5,1,0.9,1.7,1.4
		s1.5,0.6,2.6,0.6s1.9-0.3,2.6-0.9s1-1.4,1-2.5s-0.4-1.9-1.2-2.6c-0.8-0.7-2.2-1-4.1-1v-0.9c1.2,0,2.1-0.1,2.8-0.4
		c0.7-0.3,1.2-0.7,1.5-1.2s0.5-1.1,0.5-1.7c0-0.9-0.3-1.6-0.8-2.1s-1.3-0.8-2.3-0.8c-0.7,0-1.4,0.2-2,0.5s-1.1,0.7-1.6,1.2l-0.6-0.7
		c0.5-0.5,1.1-0.9,1.8-1.3s1.5-0.6,2.3-0.6c0.8,0,1.5,0.1,2.2,0.4s1.1,0.7,1.5,1.3s0.6,1.2,0.6,2c0,1-0.3,1.8-0.8,2.4
		c-0.6,0.6-1.2,1.1-2.1,1.4v0.1c0.6,0.1,1.2,0.4,1.7,0.7s0.9,0.8,1.3,1.4s0.5,1.2,0.5,1.9c0,0.9-0.2,1.6-0.6,2.3
		c-0.4,0.7-1,1.2-1.7,1.5S75.3,2153.4,74.4,2153.4L74.4,2153.4z"/>
	<path class="st0" d="M82.3,2153.1v-0.9h3.6v-12.7h-2.7v-0.7c0.6-0.1,1.2-0.2,1.7-0.4s0.9-0.3,1.3-0.6H87v14.4h3.3v0.9H82.3
		L82.3,2153.1z"/>
	<path class="st0" d="M98.8,2158.3v-16.7h0.9l0.1,1.4h0.1c0.6-0.4,1.2-0.9,1.8-1.2s1.4-0.5,2.1-0.5c1.5,0,2.7,0.5,3.5,1.6
		c0.8,1.1,1.2,2.5,1.2,4.3c0,1.3-0.2,2.4-0.7,3.3s-1.1,1.6-1.9,2.1c-0.8,0.5-1.6,0.7-2.5,0.7c-0.5,0-1.1-0.1-1.7-0.4s-1.2-0.6-1.8-1
		v6.3L98.8,2158.3L98.8,2158.3z M103.3,2152.5c0.8,0,1.5-0.2,2.1-0.7s1.1-1.1,1.4-1.9c0.3-0.8,0.5-1.7,0.5-2.8
		c0-0.9-0.1-1.8-0.4-2.5s-0.6-1.3-1.2-1.8c-0.5-0.4-1.2-0.6-2.1-0.6c-0.6,0-1.2,0.2-1.8,0.5s-1.3,0.8-2,1.4v6.8
		c0.7,0.5,1.3,0.9,1.9,1.1S102.9,2152.5,103.3,2152.5L103.3,2152.5z"/>
	<path class="st0" d="M109.7,2153.1l3.9-6l-3.6-5.5h1.2l1.9,2.9c0.2,0.3,0.4,0.6,0.6,0.9c0.2,0.3,0.4,0.6,0.6,1h0.1
		c0.2-0.3,0.4-0.6,0.6-1c0.2-0.3,0.4-0.6,0.6-0.9l1.8-2.9h1.1l-3.6,5.6l3.9,5.9h-1.2l-2-3.1c-0.2-0.4-0.4-0.7-0.7-1.1
		s-0.5-0.7-0.7-1h-0.1c-0.2,0.3-0.4,0.7-0.7,1s-0.4,0.7-0.7,1.1l-2,3.1H109.7L109.7,2153.1z"/>
</g>
<g>
	<path class="st0" d="M38.8,2120.9c-1.5,0-2.8-0.6-3.7-1.9c-0.9-1.3-1.4-3-1.4-5.4c0-1.6,0.2-3,0.5-4.1c0.3-1.1,0.7-2,1.2-2.7
		s1.1-1.2,1.8-1.5s1.4-0.5,2.1-0.5s1.3,0.1,1.9,0.4s1,0.6,1.4,1.1l-0.7,0.7c-0.3-0.4-0.7-0.7-1.2-0.9s-0.9-0.3-1.4-0.3
		c-0.8,0-1.6,0.2-2.3,0.7s-1.2,1.3-1.7,2.4s-0.6,2.6-0.6,4.5c0.5-0.7,1.1-1.2,1.8-1.6c0.7-0.4,1.4-0.6,2.1-0.6
		c1.3,0,2.4,0.4,3.1,1.2s1.1,2,1.1,3.5c0,0.9-0.2,1.8-0.6,2.5c-0.4,0.7-0.9,1.3-1.5,1.7C40.2,2120.7,39.5,2120.9,38.8,2120.9
		L38.8,2120.9z M38.6,2112.2c-0.5,0-1.1,0.2-1.8,0.5c-0.7,0.3-1.3,0.9-1.9,1.8c0.1,1.6,0.5,2.9,1.1,3.9s1.6,1.5,2.8,1.5
		c0.6,0,1.1-0.2,1.6-0.5c0.5-0.3,0.8-0.8,1.1-1.4c0.3-0.6,0.4-1.2,0.4-2c0-1.1-0.3-2-0.8-2.8S39.7,2112.2,38.6,2112.2L38.6,2112.2z"
		/>
	<path class="st0" d="M49.6,2120.9c-0.8,0-1.5-0.1-2.1-0.3c-0.6-0.2-1.1-0.5-1.6-0.8s-0.8-0.7-1.2-1l0.6-0.7c0.5,0.5,1,0.9,1.7,1.4
		s1.5,0.6,2.6,0.6s1.9-0.3,2.6-0.9c0.7-0.6,1-1.4,1-2.5s-0.4-1.9-1.2-2.6c-0.8-0.7-2.2-1-4.1-1v-0.9c1.2,0,2.1-0.1,2.8-0.4
		s1.2-0.7,1.5-1.2s0.5-1.1,0.5-1.7c0-0.9-0.3-1.6-0.8-2.1s-1.3-0.8-2.3-0.8c-0.7,0-1.4,0.2-2,0.5s-1.1,0.7-1.6,1.2l-0.6-0.7
		c0.5-0.5,1.1-0.9,1.8-1.3s1.5-0.6,2.3-0.6c0.8,0,1.5,0.1,2.2,0.4s1.1,0.7,1.5,1.3s0.5,1.2,0.5,2c0,1-0.3,1.8-0.8,2.4
		c-0.5,0.6-1.2,1.1-2.1,1.4v0.1c0.6,0.1,1.2,0.4,1.7,0.7c0.5,0.4,0.9,0.8,1.3,1.4s0.5,1.2,0.5,1.9c0,0.9-0.2,1.6-0.6,2.3
		s-1,1.2-1.7,1.5S50.4,2120.9,49.6,2120.9L49.6,2120.9z"/>
	<path class="st0" d="M62.5,2125.8v-16.7h0.9l0.1,1.4h0.1c0.6-0.4,1.2-0.9,1.9-1.2c0.7-0.4,1.4-0.5,2.1-0.5c1.5,0,2.7,0.5,3.5,1.6
		c0.8,1.1,1.2,2.5,1.2,4.3c0,1.3-0.2,2.4-0.7,3.3s-1.1,1.6-1.9,2.1c-0.8,0.5-1.6,0.7-2.5,0.7c-0.5,0-1.1-0.1-1.7-0.4s-1.2-0.6-1.8-1
		v6.3L62.5,2125.8L62.5,2125.8z M67,2119.9c0.8,0,1.5-0.2,2.1-0.7s1.1-1.1,1.4-1.9c0.3-0.8,0.5-1.7,0.5-2.8c0-0.9-0.1-1.8-0.4-2.5
		s-0.6-1.3-1.2-1.8c-0.5-0.4-1.2-0.6-2.1-0.6c-0.6,0-1.2,0.2-1.8,0.5c-0.6,0.3-1.3,0.8-2,1.4v6.8c0.7,0.5,1.3,0.9,1.9,1.1
		C66,2119.8,66.5,2119.9,67,2119.9L67,2119.9z"/>
	<path class="st0" d="M73.4,2120.6l3.9-6l-3.6-5.5h1.2l1.9,2.9c0.2,0.3,0.4,0.6,0.6,0.9l0.6,1h0.1c0.2-0.3,0.4-0.6,0.6-1
		c0.2-0.3,0.4-0.6,0.6-0.9l1.8-2.9h1.1l-3.6,5.6l3.9,5.9h-1.2l-2-3.1c-0.2-0.4-0.4-0.7-0.7-1.1s-0.5-0.7-0.7-1h-0.1
		c-0.2,0.3-0.4,0.7-0.7,1s-0.4,0.7-0.7,1.1l-2,3.1H73.4L73.4,2120.6z"/>
</g>
<g>
	<line class="st9" x1="415.2" y1="869.2" x2="415.2" y2="916.9"/>
	<g>
		<line class="st9" x1="26.1" y1="893.1" x2="414.4" y2="893.1"/>
		<polygon class="st10" points="28.5,896.2 29.1,895.6 26.4,893.1 29.1,890.6 28.5,890 25.2,893.1 		"/>
		<polygon class="st10" points="412,896.2 411.4,895.6 414.1,893.1 411.4,890.6 412,890 415.2,893.1 		"/>
	</g>
	<line class="st9" x1="25.2" y1="916.9" x2="25.2" y2="869.2"/>
</g>
<g>
	<path class="st0" d="M194.9,934.7c-0.8,0-1.5-0.1-2.1-0.3c-0.6-0.2-1.1-0.5-1.6-0.8s-0.8-0.7-1.2-1l0.6-0.7c0.5,0.5,1,1,1.7,1.4
		s1.5,0.6,2.6,0.6s1.9-0.3,2.6-0.9c0.7-0.6,1-1.4,1-2.5s-0.4-1.9-1.2-2.6c-0.8-0.7-2.2-1-4.1-1v-0.9c1.2,0,2.1-0.2,2.8-0.4
		s1.2-0.7,1.5-1.2s0.5-1.1,0.5-1.7c0-0.9-0.3-1.6-0.8-2.1s-1.3-0.8-2.3-0.8c-0.7,0-1.4,0.2-2,0.5s-1.1,0.7-1.6,1.2l-0.6-0.7
		c0.5-0.5,1.1-1,1.8-1.3s1.5-0.5,2.3-0.5c0.8,0,1.5,0.1,2.1,0.4c0.6,0.3,1.1,0.7,1.5,1.3s0.6,1.2,0.6,2c0,1-0.3,1.8-0.8,2.4
		s-1.2,1.1-2.1,1.4v0.1c0.6,0.1,1.2,0.4,1.7,0.7s0.9,0.8,1.3,1.4s0.5,1.2,0.5,1.9c0,0.9-0.2,1.7-0.6,2.3s-1,1.2-1.7,1.5
		C196.6,934.6,195.8,934.7,194.9,934.7L194.9,934.7z"/>
	<path class="st0" d="M205.4,934.7c-0.7,0-1.3-0.1-1.9-0.4s-1-0.6-1.4-1.1l0.6-0.7c0.3,0.4,0.7,0.7,1.2,1c0.5,0.2,0.9,0.3,1.4,0.3
		c0.8,0,1.6-0.2,2.3-0.7c0.7-0.5,1.2-1.3,1.7-2.4c0.4-1.1,0.6-2.6,0.6-4.5c-0.5,0.6-1.1,1.2-1.8,1.5c-0.7,0.4-1.4,0.6-2.1,0.6
		c-1.3,0-2.4-0.4-3.1-1.2s-1.1-2-1.1-3.5c0-0.9,0.2-1.8,0.6-2.5c0.4-0.7,0.9-1.3,1.5-1.7s1.3-0.6,2.1-0.6c1.5,0,2.7,0.6,3.6,1.9
		c0.9,1.2,1.4,3,1.4,5.4c0,2.1-0.3,3.8-0.8,5.1s-1.2,2.2-2.1,2.7C207.4,934.5,206.4,934.7,205.4,934.7L205.4,934.7z M202.9,923.6
		c0,1.1,0.3,2,0.8,2.8c0.5,0.7,1.4,1.1,2.5,1.1c0.6,0,1.2-0.2,1.8-0.5s1.3-1,1.9-1.8c-0.1-1.6-0.5-2.9-1.1-3.9s-1.6-1.5-2.8-1.5
		c-0.6,0-1.1,0.2-1.6,0.5c-0.5,0.3-0.8,0.8-1.1,1.4C203,922.2,202.9,922.8,202.9,923.6L202.9,923.6z"/>
	<path class="st0" d="M218.1,934.7c-1.5,0-2.6-0.7-3.4-2.1s-1.2-3.4-1.2-5.9s0.4-4.5,1.2-5.9s1.9-2,3.4-2s2.6,0.7,3.4,2
		c0.8,1.4,1.2,3.3,1.2,5.9s-0.4,4.5-1.2,5.9S219.6,934.7,218.1,934.7z M218.1,933.8c1.1,0,1.9-0.6,2.6-1.8c0.6-1.2,0.9-3,0.9-5.3
		s-0.3-4.1-0.9-5.2c-0.6-1.2-1.5-1.7-2.6-1.7s-1.9,0.6-2.5,1.7s-1,2.9-1,5.2s0.3,4.1,1,5.3S217,933.8,218.1,933.8z"/>
	<path class="st0" d="M230.8,939.6v-16.7h0.9l0.1,1.4h0.1c0.6-0.5,1.2-0.8,1.9-1.2c0.7-0.3,1.4-0.5,2.1-0.5c1.5,0,2.7,0.5,3.5,1.6
		c0.8,1.1,1.1,2.5,1.1,4.3c0,1.3-0.2,2.4-0.7,3.3s-1.1,1.6-1.9,2.1s-1.6,0.7-2.5,0.7c-0.5,0-1.1-0.1-1.7-0.4s-1.2-0.6-1.8-1v6.3
		L230.8,939.6L230.8,939.6z M235.3,933.8c0.8,0,1.5-0.2,2.1-0.7s1.1-1.1,1.4-1.9c0.3-0.8,0.5-1.7,0.5-2.8c0-0.9-0.1-1.8-0.4-2.5
		c-0.2-0.7-0.6-1.3-1.2-1.8c-0.5-0.4-1.2-0.7-2.1-0.7c-0.6,0-1.2,0.2-1.8,0.5c-0.6,0.3-1.3,0.8-2,1.4v6.8c0.7,0.5,1.3,0.9,1.9,1.2
		C234.3,933.7,234.9,933.8,235.3,933.8L235.3,933.8z"/>
	<path class="st0" d="M241.7,934.4l3.9-6l-3.6-5.5h1.2l1.9,2.9c0.2,0.3,0.4,0.6,0.6,0.9l0.6,1h0.1c0.2-0.3,0.4-0.6,0.6-1
		c0.2-0.3,0.4-0.6,0.6-0.9l1.8-2.9h1.1l-3.6,5.6l3.9,5.9h-1.2l-2-3.1c-0.2-0.4-0.4-0.7-0.7-1.1c-0.2-0.3-0.5-0.7-0.7-1h-0.1
		c-0.2,0.3-0.4,0.7-0.7,1c-0.2,0.3-0.4,0.7-0.7,1.1l-2,3.1H241.7L241.7,934.4z"/>
</g>
<g>
	<line class="st9" x1="962.5" y1="25.2" x2="1010.1" y2="25.2"/>
	<g>
		<line class="st9" x1="986.3" y1="71.4" x2="986.3" y2="26.1"/>
		<polygon class="st10" points="989.4,68.9 988.8,68.4 986.3,71.2 983.8,68.4 983.2,68.9 986.3,72.2 		"/>
		<polygon class="st10" points="989.4,28.5 988.8,29.1 986.3,26.4 983.8,29.1 983.2,28.5 986.3,25.2 		"/>
	</g>
	<line class="st9" x1="1010.1" y1="72.2" x2="962.5" y2="72.2"/>
</g>
<g>
	<path class="st0" d="M1025.2,56.7v-4.6h-7.1v-0.6l7.1-10.1h1v9.8h2.3v0.9h-2.3v4.6H1025.2L1025.2,56.7z M1019.4,51.2h5.8v-5.6
		c0-0.3,0-0.8,0-1.3c0-0.5,0-1,0.1-1.3h-0.1c-0.2,0.3-0.4,0.6-0.6,0.9c-0.2,0.3-0.4,0.6-0.7,1L1019.4,51.2L1019.4,51.2z"/>
	<path class="st0" d="M1033.7,56.7c0.1-2.1,0.3-3.9,0.6-5.5s0.8-3.2,1.5-4.6s1.5-2.8,2.5-4.3h-8.1v-0.9h9.4V42
		c-0.9,1.2-1.7,2.4-2.3,3.5s-1.1,2.3-1.4,3.4c-0.3,1.2-0.6,2.4-0.8,3.6s-0.3,2.7-0.3,4.2L1033.7,56.7L1033.7,56.7z"/>
	<path class="st0" d="M1047.7,61.9V45.2h0.9l0.1,1.4h0.1c0.6-0.5,1.2-0.8,1.8-1.2c0.7-0.3,1.4-0.5,2.1-0.5c1.5,0,2.7,0.5,3.5,1.6
		c0.8,1.1,1.2,2.5,1.2,4.3c0,1.3-0.2,2.4-0.7,3.3s-1.1,1.6-1.9,2.1s-1.6,0.7-2.5,0.7c-0.5,0-1.1-0.1-1.7-0.4s-1.2-0.6-1.8-1v6.3
		L1047.7,61.9L1047.7,61.9z M1052.2,56c0.8,0,1.5-0.2,2.1-0.7c0.6-0.5,1.1-1.1,1.4-1.9c0.3-0.8,0.5-1.7,0.5-2.8
		c0-0.9-0.1-1.8-0.4-2.5c-0.2-0.7-0.6-1.3-1.2-1.8c-0.5-0.4-1.2-0.7-2.1-0.7c-0.6,0-1.2,0.2-1.8,0.5s-1.3,0.8-2,1.4v6.8
		c0.7,0.5,1.3,0.9,1.9,1.2S1051.8,56,1052.2,56L1052.2,56z"/>
	<path class="st0" d="M1058.6,56.7l3.9-6l-3.6-5.5h1.2l1.9,2.9c0.2,0.3,0.4,0.6,0.6,0.9s0.4,0.6,0.6,1h0.1c0.2-0.3,0.4-0.6,0.6-1
		c0.2-0.3,0.4-0.6,0.6-0.9l1.8-2.9h1.1l-3.6,5.6l3.9,5.9h-1.2l-2-3.1c-0.2-0.4-0.4-0.7-0.7-1.1c-0.2-0.3-0.5-0.7-0.7-1h-0.1
		c-0.2,0.3-0.4,0.7-0.7,1c-0.2,0.3-0.4,0.7-0.7,1.1l-2,3.1H1058.6L1058.6,56.7z"/>
</g>
<g>
	<line class="st9" x1="415.2" y1="25.2" x2="462.9" y2="25.2"/>
	<g>
		<line class="st9" x1="439.1" y1="868.4" x2="439.1" y2="26.1"/>
		<polygon class="st10" points="442.1,866 441.6,865.4 439.1,868.2 436.6,865.4 436,866 439.1,869.2 		"/>
		<polygon class="st10" points="442.1,28.5 441.6,29.1 439.1,26.4 436.6,29.1 436,28.5 439.1,25.2 		"/>
	</g>
	<line class="st9" x1="462.9" y1="869.2" x2="415.2" y2="869.2"/>
</g>
<g>
	<path class="st0" d="M470.6,453.6c-0.9,0-1.8-0.2-2.5-0.5s-1.3-0.9-1.7-1.5c-0.4-0.6-0.6-1.4-0.6-2.2c0-0.7,0.2-1.3,0.5-1.9
		s0.7-1,1.2-1.5c0.5-0.4,1-0.7,1.4-1v-0.1c-0.6-0.4-1.1-0.8-1.5-1.4s-0.7-1.3-0.7-2.1c0-0.7,0.2-1.4,0.5-1.9c0.4-0.6,0.8-1,1.5-1.3
		c0.6-0.3,1.3-0.5,2-0.5c1.3,0,2.3,0.4,3.1,1.1s1.1,1.7,1.1,2.9c0,0.6-0.1,1.1-0.4,1.6s-0.5,1-0.9,1.3s-0.7,0.7-1,1v0.1
		c0.5,0.3,0.9,0.6,1.3,0.9c0.4,0.3,0.7,0.8,1,1.2c0.3,0.5,0.4,1.1,0.4,1.8c0,0.7-0.2,1.4-0.6,2c-0.4,0.6-0.9,1.1-1.6,1.5
		C472.4,453.4,471.6,453.6,470.6,453.6L470.6,453.6z M470.6,452.7c1.1,0,2-0.3,2.6-0.9c0.6-0.6,1-1.4,1-2.2c0-0.8-0.2-1.4-0.7-1.9
		s-1-0.9-1.7-1.2s-1.5-0.7-2.3-1c-0.8,0.5-1.4,1-1.9,1.6s-0.8,1.4-0.8,2.2c0,0.6,0.2,1.2,0.5,1.7s0.8,0.9,1.4,1.2
		S469.9,452.7,470.6,452.7z M471.7,445.2c0.7-0.5,1.2-1.1,1.5-1.7s0.5-1.2,0.5-1.9c0-0.9-0.3-1.6-0.8-2.2c-0.5-0.6-1.3-0.9-2.3-0.9
		c-0.9,0-1.5,0.3-2.1,0.8c-0.6,0.5-0.8,1.2-0.8,2c0,0.7,0.2,1.3,0.6,1.8s0.9,0.9,1.5,1.2S471.1,444.9,471.7,445.2L471.7,445.2z"/>
	<path class="st0" d="M483.7,453.3v-4.6h-7.1v-0.6l7.1-10.1h1v9.8h2.3v0.9h-2.3v4.6H483.7z M477.9,447.8h5.8v-5.6c0-0.4,0-0.8,0-1.3
		c0-0.5,0-1,0.1-1.3h-0.1c-0.2,0.3-0.4,0.6-0.6,0.9c-0.2,0.3-0.4,0.6-0.6,1L477.9,447.8z"/>
	<path class="st0" d="M495.2,453.3v-4.6h-7.1v-0.6l7.1-10.1h1v9.8h2.3v0.9h-2.3v4.6H495.2z M489.4,447.8h5.8v-5.6c0-0.4,0-0.8,0-1.3
		c0-0.5,0-1,0.1-1.3h-0.1c-0.2,0.3-0.4,0.6-0.6,0.9c-0.2,0.3-0.4,0.6-0.6,1L489.4,447.8z"/>
	<path class="st0" d="M506.3,458.5v-16.7h0.9l0.1,1.4h0.1c0.6-0.5,1.2-0.9,1.9-1.2s1.4-0.5,2.1-0.5c1.5,0,2.7,0.5,3.5,1.6
		c0.8,1.1,1.2,2.5,1.2,4.3c0,1.3-0.2,2.4-0.7,3.3s-1.1,1.6-1.9,2.1c-0.8,0.5-1.6,0.7-2.5,0.7c-0.5,0-1.1-0.1-1.7-0.4s-1.2-0.6-1.8-1
		v6.3L506.3,458.5L506.3,458.5z M510.7,452.6c0.8,0,1.5-0.2,2.1-0.7c0.6-0.5,1.1-1.1,1.4-1.9c0.3-0.8,0.5-1.7,0.5-2.8
		c0-0.9-0.1-1.8-0.4-2.5s-0.6-1.3-1.2-1.8c-0.5-0.4-1.2-0.6-2.1-0.6c-0.6,0-1.2,0.2-1.8,0.5c-0.6,0.3-1.3,0.8-2,1.4v6.8
		c0.7,0.5,1.3,0.9,1.9,1.1S510.3,452.6,510.7,452.6L510.7,452.6z"/>
	<path class="st0" d="M517.2,453.3l3.9-6l-3.6-5.5h1.2l1.9,2.9c0.2,0.3,0.4,0.6,0.6,0.9l0.6,1h0.1c0.2-0.3,0.4-0.6,0.6-1
		c0.2-0.3,0.4-0.6,0.6-0.9l1.8-2.9h1.1l-3.6,5.6l3.9,5.9h-1.2l-2-3.1c-0.2-0.4-0.4-0.7-0.7-1.1c-0.2-0.4-0.5-0.7-0.7-1h-0.1
		c-0.2,0.3-0.4,0.7-0.7,1s-0.4,0.7-0.7,1.1l-2,3.1H517.2L517.2,453.3z"/>
</g>
<g>
	<line class="st9" x1="962.5" y1="835.2" x2="1010.1" y2="835.2"/>
	<g>
		<line class="st9" x1="986.3" y1="868.4" x2="986.3" y2="836.1"/>
		<polygon class="st10" points="989.4,866 988.8,865.4 986.3,868.2 983.8,865.4 983.2,866 986.3,869.2 		"/>
		<polygon class="st10" points="989.4,838.5 988.8,839.1 986.3,836.3 983.8,839.1 983.2,838.5 986.3,835.2 		"/>
	</g>
	<line class="st9" x1="1010.1" y1="869.2" x2="962.5" y2="869.2"/>
</g>
<g>
	<line class="st9" x1="962.5" y1="536.2" x2="1010.1" y2="536.2"/>
	<g>
		<line class="st9" x1="986.3" y1="868.4" x2="986.3" y2="537.1"/>
		<polygon class="st10" points="989.4,866 988.8,865.4 986.3,868.2 983.8,865.4 983.2,866 986.3,869.2 		"/>
		<polygon class="st10" points="989.4,539.5 988.8,540.1 986.3,537.3 983.8,540.1 983.2,539.5 986.3,536.2 		"/>
	</g>
	<line class="st9" x1="1010.1" y1="869.2" x2="962.5" y2="869.2"/>
</g>
<g>
	<path class="st0" d="M1023.3,858.6c-0.8,0-1.5-0.1-2.1-0.3c-0.6-0.2-1.1-0.5-1.6-0.8s-0.8-0.7-1.2-1l0.6-0.7c0.5,0.5,1,1,1.7,1.4
		s1.5,0.6,2.6,0.6s1.9-0.3,2.6-0.9c0.7-0.6,1-1.4,1-2.5s-0.4-1.9-1.2-2.6c-0.8-0.7-2.2-1-4.1-1v-0.9c1.2,0,2.1-0.2,2.8-0.4
		s1.2-0.7,1.5-1.2s0.5-1.1,0.5-1.7c0-0.9-0.3-1.6-0.8-2.1c-0.6-0.5-1.3-0.8-2.3-0.8c-0.7,0-1.4,0.2-2,0.5c-0.6,0.3-1.1,0.7-1.6,1.2
		l-0.6-0.7c0.5-0.5,1.1-1,1.8-1.3s1.5-0.5,2.3-0.5c0.8,0,1.5,0.1,2.2,0.4s1.1,0.7,1.5,1.3s0.6,1.2,0.6,2c0,1-0.3,1.8-0.8,2.4
		c-0.6,0.6-1.2,1.1-2.1,1.4v0.1c0.6,0.1,1.2,0.4,1.7,0.7s0.9,0.8,1.3,1.4s0.5,1.2,0.5,1.9c0,0.9-0.2,1.7-0.6,2.3s-1,1.2-1.7,1.5
		C1025,858.4,1024.2,858.6,1023.3,858.6L1023.3,858.6z"/>
	<path class="st0" d="M1036.7,858.3v-4.6h-7.1v-0.6l7.1-10.1h1v9.8h2.3v0.9h-2.3v4.6H1036.7L1036.7,858.3z M1030.9,852.8h5.8v-5.6
		c0-0.3,0-0.8,0-1.3c0-0.5,0-1,0.1-1.3h-0.1c-0.2,0.3-0.4,0.6-0.6,0.9c-0.2,0.3-0.4,0.6-0.7,1L1030.9,852.8L1030.9,852.8z"/>
	<path class="st0" d="M1047.7,863.5v-16.7h0.9l0.1,1.4h0.1c0.6-0.5,1.2-0.8,1.8-1.2c0.7-0.3,1.4-0.5,2.1-0.5c1.5,0,2.7,0.5,3.5,1.6
		c0.8,1.1,1.2,2.5,1.2,4.3c0,1.3-0.2,2.4-0.7,3.3s-1.1,1.6-1.9,2.1s-1.6,0.7-2.5,0.7c-0.5,0-1.1-0.1-1.7-0.4s-1.2-0.6-1.8-1v6.3
		L1047.7,863.5L1047.7,863.5z M1052.2,857.6c0.8,0,1.5-0.2,2.1-0.7s1.1-1.1,1.4-1.9c0.3-0.8,0.5-1.7,0.5-2.8c0-0.9-0.1-1.8-0.4-2.5
		c-0.2-0.7-0.6-1.3-1.2-1.8c-0.5-0.4-1.2-0.7-2.1-0.7c-0.6,0-1.2,0.2-1.8,0.5c-0.6,0.3-1.3,0.8-2,1.4v6.8c0.7,0.5,1.3,0.9,1.9,1.2
		C1051.2,857.5,1051.8,857.6,1052.2,857.6L1052.2,857.6z"/>
	<path class="st0" d="M1058.6,858.3l3.9-6l-3.6-5.5h1.2l1.9,2.9c0.2,0.3,0.4,0.6,0.6,0.9l0.6,1h0.1c0.2-0.3,0.4-0.6,0.6-1
		c0.2-0.3,0.4-0.6,0.6-0.9l1.8-2.9h1.1l-3.6,5.6l3.9,5.9h-1.2l-2-3.1c-0.2-0.4-0.4-0.7-0.7-1.1c-0.2-0.3-0.5-0.7-0.7-1h-0.1
		c-0.2,0.3-0.4,0.7-0.7,1c-0.2,0.3-0.4,0.7-0.7,1.1l-2,3.1H1058.6L1058.6,858.3z"/>
</g>
<g>
	<path class="st0" d="M1017.6,709.1c-0.8,0-1.5-0.1-2.1-0.3c-0.6-0.2-1.1-0.5-1.6-0.8s-0.8-0.7-1.2-1l0.6-0.7c0.5,0.5,1,1,1.7,1.4
		s1.5,0.6,2.6,0.6s1.9-0.3,2.6-0.9c0.7-0.6,1-1.4,1-2.5s-0.4-1.9-1.2-2.6c-0.8-0.7-2.2-1-4.1-1v-0.9c1.2,0,2.1-0.2,2.8-0.4
		s1.2-0.7,1.5-1.2s0.5-1.1,0.5-1.7c0-0.9-0.3-1.6-0.8-2.1s-1.3-0.8-2.3-0.8c-0.7,0-1.4,0.2-2,0.5c-0.6,0.3-1.1,0.7-1.6,1.2l-0.6-0.7
		c0.5-0.5,1.1-1,1.8-1.3s1.5-0.5,2.3-0.5c0.8,0,1.5,0.1,2.2,0.4s1.1,0.7,1.5,1.3s0.5,1.2,0.5,2c0,1-0.3,1.8-0.8,2.4
		s-1.2,1.1-2.1,1.4v0.1c0.6,0.1,1.2,0.4,1.7,0.7s0.9,0.8,1.3,1.4s0.5,1.2,0.5,1.9c0,0.9-0.2,1.7-0.6,2.3s-1,1.2-1.7,1.5
		C1019.2,708.9,1018.4,709.1,1017.6,709.1L1017.6,709.1z"/>
	<path class="st0" d="M1029.1,709.1c-0.8,0-1.5-0.1-2.1-0.3c-0.6-0.2-1.1-0.5-1.6-0.8s-0.8-0.7-1.2-1l0.6-0.7c0.5,0.5,1,1,1.7,1.4
		s1.5,0.6,2.6,0.6s1.9-0.3,2.6-0.9c0.7-0.6,1-1.4,1-2.5s-0.4-1.9-1.2-2.6c-0.8-0.7-2.2-1-4.1-1v-0.9c1.2,0,2.1-0.2,2.8-0.4
		s1.2-0.7,1.5-1.2s0.5-1.1,0.5-1.7c0-0.9-0.3-1.6-0.8-2.1c-0.6-0.5-1.3-0.8-2.3-0.8c-0.7,0-1.4,0.2-2,0.5s-1.1,0.7-1.6,1.2l-0.6-0.7
		c0.5-0.5,1.1-1,1.8-1.3s1.5-0.5,2.3-0.5c0.8,0,1.5,0.1,2.2,0.4s1.1,0.7,1.5,1.3s0.6,1.2,0.6,2c0,1-0.3,1.8-0.8,2.4
		c-0.6,0.6-1.2,1.1-2.1,1.4v0.1c0.6,0.1,1.2,0.4,1.7,0.7s0.9,0.8,1.3,1.4s0.5,1.2,0.5,1.9c0,0.9-0.2,1.7-0.6,2.3s-1,1.2-1.7,1.5
		C1030.7,708.9,1029.9,709.1,1029.1,709.1L1029.1,709.1z"/>
	<path class="st0" d="M1040.6,709.1c-0.8,0-1.5-0.1-2.1-0.3c-0.6-0.2-1.1-0.5-1.6-0.8s-0.8-0.7-1.2-1l0.6-0.7c0.5,0.5,1,1,1.7,1.4
		s1.5,0.6,2.6,0.6s1.9-0.3,2.6-0.9c0.7-0.6,1-1.4,1-2.5s-0.4-1.9-1.2-2.6c-0.8-0.7-2.2-1-4.1-1v-0.9c1.2,0,2.1-0.2,2.8-0.4
		s1.2-0.7,1.5-1.2s0.5-1.1,0.5-1.7c0-0.9-0.3-1.6-0.8-2.1c-0.6-0.5-1.3-0.8-2.3-0.8c-0.7,0-1.4,0.2-2,0.5s-1.1,0.7-1.6,1.2l-0.6-0.7
		c0.5-0.5,1.1-1,1.8-1.3s1.5-0.5,2.3-0.5c0.8,0,1.5,0.1,2.2,0.4s1.1,0.7,1.5,1.3s0.6,1.2,0.6,2c0,1-0.3,1.8-0.8,2.4
		c-0.6,0.6-1.2,1.1-2.1,1.4v0.1c0.6,0.1,1.2,0.4,1.7,0.7s0.9,0.8,1.3,1.4s0.5,1.2,0.5,1.9c0,0.9-0.2,1.7-0.6,2.3s-1,1.2-1.7,1.5
		C1042.2,708.9,1041.4,709.1,1040.6,709.1L1040.6,709.1z"/>
	<path class="st0" d="M1053.5,714v-16.7h0.9l0.1,1.4h0.1c0.6-0.5,1.2-0.8,1.8-1.2c0.7-0.3,1.4-0.5,2.1-0.5c1.5,0,2.7,0.5,3.5,1.6
		c0.8,1.1,1.2,2.5,1.2,4.3c0,1.3-0.2,2.4-0.7,3.3s-1.1,1.6-1.9,2.1s-1.6,0.7-2.5,0.7c-0.5,0-1.1-0.1-1.7-0.4s-1.2-0.6-1.8-1v6.3
		L1053.5,714L1053.5,714z M1057.9,708.1c0.8,0,1.5-0.2,2.1-0.7s1.1-1.1,1.4-1.9c0.3-0.8,0.5-1.7,0.5-2.8c0-0.9-0.1-1.8-0.4-2.5
		c-0.2-0.7-0.6-1.3-1.2-1.8c-0.5-0.4-1.2-0.7-2.1-0.7c-0.6,0-1.2,0.2-1.8,0.5c-0.6,0.3-1.3,0.8-2,1.4v6.8c0.7,0.5,1.3,0.9,1.9,1.2
		C1057,708,1057.5,708.1,1057.9,708.1L1057.9,708.1z"/>
	<path class="st0" d="M1064.4,708.8l3.9-6l-3.6-5.5h1.2l1.9,2.9c0.2,0.3,0.4,0.6,0.6,0.9l0.6,1h0.1c0.2-0.3,0.4-0.6,0.6-1
		c0.2-0.3,0.4-0.6,0.6-0.9l1.8-2.9h1.1l-3.6,5.6l3.9,5.9h-1.2l-2-3.1c-0.2-0.4-0.4-0.7-0.7-1.1c-0.2-0.3-0.5-0.7-0.7-1h-0.1
		c-0.2,0.3-0.4,0.7-0.7,1c-0.2,0.3-0.4,0.7-0.7,1.1l-2,3.1H1064.4L1064.4,708.8z"/>
</g>
<g>
	<line class="st9" x1="869.2" y1="1178" x2="916.9" y2="1178"/>
	<g>
		<line class="st9" x1="893.1" y1="1221.2" x2="893.1" y2="1178.8"/>
		<polygon class="st10" points="896.2,1218.7 895.6,1218.2 893.1,1220.9 890.6,1218.2 890,1218.7 893.1,1222 		"/>
		<polygon class="st10" points="896.2,1181.3 895.6,1181.8 893.1,1179.1 890.6,1181.8 890,1181.3 893.1,1178 		"/>
	</g>
	<line class="st9" x1="916.9" y1="1222" x2="869.2" y2="1222"/>
</g>
<g>
	<path class="st0" d="M932,1206v-4.6h-7.1v-0.6l7.1-10.1h1v9.8h2.3v0.9H933v4.6H932z M926.2,1200.5h5.8v-5.6c0-0.3,0-0.8,0-1.3
		c0-0.5,0-1,0.1-1.3H932c-0.2,0.3-0.4,0.6-0.6,0.9c-0.2,0.3-0.4,0.6-0.7,1L926.2,1200.5z"/>
	<path class="st0" d="M943.5,1206v-4.6h-7.1v-0.6l7.1-10.1h1v9.8h2.3v0.9h-2.3v4.6H943.5z M937.7,1200.5h5.8v-5.6c0-0.3,0-0.8,0-1.3
		c0-0.5,0-1,0.1-1.3h-0.1c-0.2,0.3-0.4,0.6-0.6,0.9c-0.2,0.3-0.4,0.6-0.7,1L937.7,1200.5z"/>
	<path class="st0" d="M954.5,1211.2v-16.7h0.9l0.1,1.4h0.1c0.6-0.4,1.2-0.8,1.8-1.2s1.4-0.5,2.1-0.5c1.5,0,2.7,0.5,3.5,1.6
		c0.8,1.1,1.2,2.5,1.2,4.3c0,1.3-0.2,2.4-0.7,3.3s-1.1,1.6-1.9,2.1c-0.8,0.5-1.6,0.7-2.5,0.7c-0.5,0-1.1-0.1-1.7-0.4s-1.2-0.6-1.8-1
		v6.3L954.5,1211.2L954.5,1211.2z M959,1205.3c0.8,0,1.5-0.2,2.1-0.7c0.6-0.4,1.1-1.1,1.4-1.9c0.3-0.8,0.5-1.7,0.5-2.8
		c0-0.9-0.1-1.8-0.4-2.5s-0.6-1.3-1.2-1.8c-0.5-0.4-1.2-0.7-2.1-0.7c-0.6,0-1.2,0.2-1.8,0.5c-0.6,0.3-1.3,0.8-2,1.4v6.8
		c0.7,0.5,1.3,0.9,1.9,1.2C958,1205.2,958.5,1205.3,959,1205.3L959,1205.3z"/>
	<path class="st0" d="M965.4,1206l3.9-6l-3.6-5.5h1.2l1.9,2.9c0.2,0.3,0.4,0.6,0.6,0.9l0.6,1h0.1c0.2-0.3,0.4-0.6,0.6-1
		c0.2-0.3,0.4-0.6,0.6-0.9l1.8-2.9h1.1l-3.6,5.6l3.9,5.9h-1.2l-2-3.1c-0.2-0.4-0.4-0.7-0.7-1.1s-0.5-0.7-0.7-1h-0.1
		c-0.2,0.3-0.4,0.7-0.7,1s-0.4,0.7-0.7,1.1l-2,3.1H965.4L965.4,1206z"/>
</g>
<g>
	<path class="st0" d="M1331.7,2107.8V2092h1.1v8.8h0.1l7.7-8.8h1.3l-5,5.9l5.7,10h-1.3l-5.2-9.1l-3.2,3.7v5.4L1331.7,2107.8
		L1331.7,2107.8z"/>
	<path class="st0" d="M1349.4,2108.1c-1,0-1.9-0.2-2.7-0.7s-1.4-1.2-1.9-2.1c-0.5-0.9-0.7-2-0.7-3.2s0.2-2.4,0.7-3.2
		s1.1-1.6,1.9-2.1s1.6-0.7,2.4-0.7c1.4,0,2.5,0.5,3.2,1.4s1.2,2.2,1.2,3.9c0,0.1,0,0.3,0,0.4s0,0.3-0.1,0.4h-8.3
		c0,1,0.2,1.8,0.6,2.6c0.4,0.8,0.9,1.3,1.5,1.8c0.7,0.4,1.4,0.6,2.3,0.6c0.6,0,1.2-0.1,1.7-0.3s1-0.4,1.4-0.7l0.4,0.8
		c-0.4,0.3-0.9,0.5-1.5,0.8S1350.2,2108.1,1349.4,2108.1L1349.4,2108.1z M1345.1,2101.3h7.3c0-1.5-0.3-2.6-0.9-3.3s-1.4-1.1-2.5-1.1
		c-0.7,0-1.3,0.2-1.8,0.5s-1,0.9-1.4,1.5C1345.4,2099.6,1345.2,2100.4,1345.1,2101.3L1345.1,2101.3z"/>
	<path class="st0" d="M1356.4,2113.1c-0.4,0-0.8-0.1-1.2-0.2l0.2-0.9c0.1,0.1,0.3,0.1,0.4,0.1s0.3,0.1,0.5,0.1
		c0.7,0,1.3-0.3,1.8-0.9c0.5-0.6,0.9-1.3,1.2-2.2l0.3-1l-4.7-11.7h1.2l2.8,7.2c0.2,0.5,0.4,1,0.6,1.6c0.2,0.6,0.4,1.1,0.7,1.6h0.1
		c0.2-0.5,0.4-1.1,0.5-1.6c0.2-0.6,0.4-1.1,0.5-1.6l2.5-7.2h1.1l-4.6,13c-0.2,0.6-0.5,1.2-0.8,1.8c-0.3,0.6-0.8,1.1-1.3,1.4
		C1357.7,2112.9,1357.1,2113.1,1356.4,2113.1L1356.4,2113.1z"/>
	<path class="st0" d="M1371.8,2108.1c-0.5,0-1.1-0.1-1.7-0.4c-0.6-0.3-1.2-0.6-1.7-1.1h-0.1l-0.1,1.2h-0.9v-17.3h1.1v5l-0.1,2.3
		c0.6-0.5,1.2-0.9,1.9-1.3s1.4-0.5,2.1-0.5c1.5,0,2.7,0.5,3.5,1.6c0.8,1.1,1.2,2.5,1.2,4.3c0,1.3-0.2,2.4-0.7,3.3s-1.1,1.6-1.9,2.1
		S1372.8,2108.1,1371.8,2108.1z M1371.8,2107.2c0.8,0,1.5-0.2,2.1-0.7s1.1-1.1,1.4-1.9c0.3-0.8,0.5-1.7,0.5-2.8
		c0-0.9-0.1-1.8-0.4-2.5s-0.6-1.3-1.2-1.8c-0.5-0.4-1.2-0.6-2.1-0.6c-0.6,0-1.2,0.2-1.8,0.5s-1.3,0.8-2,1.4v6.8
		c0.6,0.5,1.3,0.9,1.8,1.1S1371.4,2107.2,1371.8,2107.2L1371.8,2107.2z"/>
	<path class="st0" d="M1384.6,2108.1c-0.9,0-1.8-0.2-2.5-0.7s-1.4-1.2-1.9-2.1c-0.5-0.9-0.7-2-0.7-3.2s0.2-2.4,0.7-3.3
		c0.5-0.9,1.1-1.6,1.9-2.1c0.8-0.5,1.6-0.7,2.5-0.7s1.8,0.2,2.6,0.7c0.8,0.5,1.4,1.2,1.9,2.1c0.5,0.9,0.7,2,0.7,3.3
		s-0.2,2.4-0.7,3.2s-1.1,1.6-1.9,2.1S1385.5,2108.1,1384.6,2108.1z M1384.6,2107.2c0.8,0,1.5-0.2,2.1-0.6s1.1-1,1.4-1.8
		s0.5-1.6,0.5-2.6s-0.2-1.9-0.5-2.7s-0.8-1.4-1.4-1.8s-1.3-0.6-2.1-0.6s-1.5,0.2-2.1,0.6s-1.1,1-1.4,1.8s-0.5,1.7-0.5,2.7
		s0.2,1.9,0.5,2.6s0.8,1.4,1.4,1.8C1383.1,2107,1383.8,2107.2,1384.6,2107.2z"/>
	<path class="st0" d="M1395.3,2108.1c-0.9,0-1.7-0.3-2.3-0.8s-1-1.3-1-2.4c0-1.3,0.6-2.2,1.8-2.9c1.2-0.7,3.1-1.1,5.6-1.4
		c0-0.6-0.1-1.2-0.2-1.7c-0.1-0.6-0.4-1-0.8-1.4c-0.4-0.4-1-0.6-1.7-0.6s-1.5,0.1-2.1,0.5c-0.6,0.3-1.2,0.6-1.6,0.9l-0.5-0.8
		c0.3-0.2,0.6-0.4,1.1-0.6s0.9-0.4,1.5-0.6c0.6-0.2,1.1-0.2,1.8-0.2c0.9,0,1.6,0.2,2.2,0.6c0.5,0.4,0.9,0.9,1.1,1.6
		c0.2,0.7,0.3,1.4,0.3,2.2v7.4h-0.9l-0.1-1.5h-0.1c-0.6,0.5-1.2,0.9-1.9,1.2C1396.8,2107.9,1396.1,2108.1,1395.3,2108.1
		L1395.3,2108.1z M1395.5,2107.2c0.7,0,1.3-0.2,1.9-0.5s1.3-0.8,2-1.4v-3.9c-1.6,0.2-2.8,0.4-3.8,0.7s-1.6,0.7-2,1.1s-0.6,1-0.6,1.6
		c0,0.8,0.2,1.4,0.7,1.8C1394.3,2107,1394.9,2107.2,1395.5,2107.2L1395.5,2107.2z"/>
	<path class="st0" d="M1404.6,2107.8v-11.5h0.9l0.1,2.1h0.1c0.4-0.7,0.8-1.3,1.4-1.7s1.2-0.7,1.9-0.7c0.2,0,0.4,0,0.6,0.1
		c0.2,0,0.4,0.1,0.6,0.2l-0.2,1c-0.2-0.1-0.4-0.1-0.5-0.2c-0.1,0-0.3,0-0.6,0c-0.5,0-1.1,0.2-1.6,0.7s-1.1,1.2-1.5,2.3v7.9H1404.6
		L1404.6,2107.8z"/>
	<path class="st0" d="M1415.8,2108.1c-1.5,0-2.6-0.5-3.5-1.6s-1.3-2.5-1.3-4.5c0-1.2,0.2-2.3,0.7-3.2c0.5-0.9,1.1-1.6,1.9-2.1
		c0.8-0.5,1.6-0.7,2.5-0.7c0.7,0,1.3,0.1,1.8,0.4s1.1,0.6,1.6,1l-0.1-2.1v-4.8h1.1v17.3h-0.9l-0.1-1.5h-0.1c-0.5,0.5-1,0.9-1.6,1.2
		S1416.6,2108.1,1415.8,2108.1L1415.8,2108.1z M1415.9,2107.2c0.6,0,1.2-0.2,1.8-0.5s1.2-0.8,1.8-1.4v-6.8c-0.6-0.5-1.2-0.9-1.7-1.1
		c-0.5-0.2-1.1-0.3-1.6-0.3c-0.8,0-1.5,0.2-2.1,0.7c-0.6,0.5-1.1,1.1-1.4,1.8s-0.5,1.6-0.5,2.6c0,1.5,0.3,2.8,1,3.7
		C1413.8,2106.7,1414.7,2107.2,1415.9,2107.2L1415.9,2107.2z"/>
	<path class="st0" d="M1431.2,2108.1c-0.9,0-1.4-0.6-1.4-1.8v-15.7h1.1v15.9c0,0.5,0.2,0.7,0.5,0.7c0.1,0,0.1,0,0.2,0
		c0.1,0,0.2,0,0.3,0l0.2,0.9c-0.1,0-0.2,0.1-0.3,0.1C1431.6,2108.1,1431.4,2108.1,1431.2,2108.1L1431.2,2108.1z"/>
	<path class="st0" d="M1438,2108.1c-0.9,0-1.7-0.3-2.3-0.8s-1-1.3-1-2.4c0-1.3,0.6-2.2,1.8-2.9c1.2-0.7,3.1-1.1,5.6-1.4
		c0-0.6-0.1-1.2-0.2-1.7c-0.1-0.6-0.4-1-0.8-1.4c-0.4-0.4-1-0.6-1.7-0.6s-1.5,0.1-2.1,0.5c-0.6,0.3-1.2,0.6-1.6,0.9l-0.5-0.8
		c0.3-0.2,0.6-0.4,1.1-0.6s0.9-0.4,1.5-0.6c0.6-0.2,1.1-0.2,1.8-0.2c0.9,0,1.6,0.2,2.2,0.6c0.5,0.4,0.9,0.9,1.1,1.6
		c0.2,0.7,0.3,1.4,0.3,2.2v7.4h-0.9l-0.1-1.5h-0.1c-0.6,0.5-1.2,0.9-1.9,1.2C1439.5,2107.9,1438.8,2108.1,1438,2108.1L1438,2108.1z
		 M1438.2,2107.2c0.7,0,1.3-0.2,1.9-0.5s1.3-0.8,2-1.4v-3.9c-1.6,0.2-2.8,0.4-3.8,0.7s-1.6,0.7-2,1.1s-0.6,1-0.6,1.6
		c0,0.8,0.2,1.4,0.7,1.8C1437,2107,1437.6,2107.2,1438.2,2107.2L1438.2,2107.2z"/>
	<path class="st0" d="M1446.8,2113.1c-0.4,0-0.8-0.1-1.2-0.2l0.2-0.9c0.1,0.1,0.3,0.1,0.4,0.1s0.3,0.1,0.5,0.1
		c0.7,0,1.3-0.3,1.8-0.9c0.5-0.6,0.9-1.3,1.2-2.2l0.3-1l-4.7-11.7h1.2l2.8,7.2c0.2,0.5,0.4,1,0.6,1.6c0.2,0.6,0.4,1.1,0.7,1.6h0.1
		c0.2-0.5,0.4-1.1,0.5-1.6c0.2-0.6,0.4-1.1,0.5-1.6l2.5-7.2h1.1l-4.6,13c-0.2,0.6-0.5,1.2-0.8,1.8c-0.3,0.6-0.8,1.1-1.3,1.4
		C1448.1,2112.9,1447.5,2113.1,1446.8,2113.1L1446.8,2113.1z"/>
	<path class="st0" d="M1462,2108.1c-0.9,0-1.8-0.2-2.5-0.7s-1.4-1.2-1.9-2.1c-0.5-0.9-0.7-2-0.7-3.2s0.2-2.4,0.7-3.3
		c0.5-0.9,1.1-1.6,1.9-2.1c0.8-0.5,1.6-0.7,2.5-0.7s1.8,0.2,2.6,0.7c0.8,0.5,1.4,1.2,1.9,2.1c0.5,0.9,0.7,2,0.7,3.3
		s-0.2,2.4-0.7,3.2s-1.1,1.6-1.9,2.1S1462.9,2108.1,1462,2108.1z M1462,2107.2c0.8,0,1.5-0.2,2.1-0.6s1.1-1,1.4-1.8s0.5-1.6,0.5-2.6
		s-0.2-1.9-0.5-2.7s-0.8-1.4-1.4-1.8s-1.3-0.6-2.1-0.6s-1.5,0.2-2.1,0.6s-1.1,1-1.4,1.8s-0.5,1.7-0.5,2.7s0.2,1.9,0.5,2.6
		s0.8,1.4,1.4,1.8C1460.5,2107,1461.2,2107.2,1462,2107.2z"/>
	<path class="st0" d="M1473.9,2108.1c-1.2,0-2.1-0.4-2.6-1.1s-0.8-1.8-0.8-3.3v-7.4h1.1v7.2c0,1.2,0.2,2.1,0.6,2.7s1.1,0.9,2,0.9
		c0.7,0,1.3-0.2,1.9-0.6c0.6-0.4,1.2-1,1.8-1.8v-8.5h1.1v11.5h-0.9l-0.1-1.9h-0.1c-0.6,0.7-1.2,1.2-1.8,1.6
		C1475.4,2107.9,1474.7,2108.1,1473.9,2108.1L1473.9,2108.1z"/>
	<path class="st0" d="M1486.4,2108.1c-1.1,0-1.9-0.3-2.3-1s-0.6-1.5-0.6-2.5v-7.4h-1.8v-0.8l1.8-0.1l0.1-3.3h0.9v3.3h3.3v0.9h-3.3
		v7.5c0,0.7,0.1,1.3,0.4,1.8c0.3,0.4,0.8,0.7,1.6,0.7c0.2,0,0.5,0,0.7-0.1s0.5-0.2,0.7-0.2l0.3,0.9c-0.3,0.1-0.7,0.2-1,0.3
		S1486.7,2108.1,1486.4,2108.1L1486.4,2108.1z"/>
</g>
<g>
	<path class="st0" d="M1331.7,2026.4v-15.8h1.6l3.3,9.3c0.2,0.6,0.4,1.2,0.6,1.7c0.2,0.6,0.4,1.2,0.6,1.8h0.1
		c0.2-0.6,0.4-1.2,0.6-1.8s0.4-1.2,0.6-1.7l3.3-9.3h1.6v15.8h-1.1V2016c0-0.7,0-1.4,0.1-2.1c0-0.8,0.1-1.5,0.1-2.1h-0.1l-1.2,3.5
		l-3.4,9.4h-1l-3.4-9.4l-1.2-3.5h-0.1c0,0.7,0.1,1.4,0.1,2.1c0,0.8,0.1,1.5,0.1,2.1v10.4H1331.7L1331.7,2026.4z"/>
	<path class="st0" d="M1351.1,2026.7c-0.9,0-1.7-0.3-2.3-0.8s-1-1.3-1-2.4c0-1.3,0.6-2.2,1.8-2.9c1.2-0.7,3.1-1.1,5.6-1.4
		c0-0.6-0.1-1.2-0.2-1.7c-0.1-0.6-0.4-1-0.8-1.4s-1-0.6-1.7-0.6s-1.5,0.2-2.1,0.5c-0.6,0.3-1.2,0.6-1.6,0.9l-0.5-0.8
		c0.3-0.2,0.6-0.4,1.1-0.6c0.4-0.2,0.9-0.4,1.5-0.6c0.6-0.2,1.1-0.2,1.8-0.2c0.9,0,1.6,0.2,2.2,0.6s0.9,0.9,1.1,1.6
		c0.2,0.7,0.3,1.4,0.3,2.2v7.4h-0.9l-0.1-1.5h-0.1c-0.6,0.5-1.2,0.9-1.9,1.2C1352.6,2026.6,1351.8,2026.7,1351.1,2026.7
		L1351.1,2026.7z M1351.3,2025.8c0.7,0,1.3-0.2,1.9-0.5s1.3-0.8,2-1.4v-3.9c-1.6,0.2-2.8,0.4-3.8,0.7s-1.6,0.7-2,1.1s-0.6,1-0.6,1.6
		c0,0.8,0.2,1.4,0.7,1.8C1350,2025.6,1350.6,2025.8,1351.3,2025.8L1351.3,2025.8z"/>
	<path class="st0" d="M1360.3,2026.4v-11.5h0.9l0.1,2.1h0.1c0.4-0.7,0.8-1.3,1.4-1.7s1.2-0.7,1.9-0.7c0.2,0,0.4,0,0.6,0.1
		c0.2,0,0.4,0.1,0.6,0.2l-0.2,1c-0.2-0.1-0.4-0.1-0.5-0.2c-0.1,0-0.3,0-0.6,0c-0.5,0-1.1,0.2-1.6,0.7c-0.6,0.4-1.1,1.2-1.5,2.3v7.8
		L1360.3,2026.4L1360.3,2026.4z"/>
	<path class="st0" d="M1371.5,2032c-1.5,0-2.6-0.3-3.5-0.9c-0.8-0.6-1.3-1.3-1.3-2.3c0-0.5,0.2-1,0.5-1.5c0.3-0.5,0.7-0.9,1.2-1.3
		v-0.1c-0.3-0.2-0.5-0.4-0.7-0.7c-0.2-0.3-0.3-0.7-0.3-1.1c0-0.5,0.1-0.9,0.4-1.3c0.3-0.4,0.6-0.6,0.8-0.8v-0.1
		c-0.3-0.3-0.7-0.8-1-1.3c-0.3-0.6-0.5-1.2-0.5-1.9c0-0.8,0.2-1.5,0.5-2.1s0.8-1.1,1.5-1.4c0.6-0.3,1.3-0.5,2.1-0.5
		c0.3,0,0.6,0,0.9,0.1c0.3,0.1,0.5,0.1,0.7,0.2h3.9v0.9h-2.7c0.4,0.3,0.7,0.7,0.9,1.2s0.4,1.1,0.4,1.7c0,0.8-0.2,1.5-0.5,2.1
		s-0.8,1.1-1.4,1.4s-1.3,0.5-2,0.5c-0.3,0-0.7,0-1-0.1c-0.3-0.1-0.7-0.2-0.9-0.4c-0.3,0.2-0.5,0.4-0.7,0.7s-0.3,0.6-0.3,1
		c0,0.4,0.2,0.8,0.5,1.1c0.3,0.3,0.9,0.4,1.8,0.4h2.5c1.3,0,2.2,0.2,2.9,0.6s0.9,1.1,0.9,2c0,0.7-0.2,1.3-0.7,1.9s-1.1,1.1-1.9,1.4
		C1373.5,2031.8,1372.5,2032,1371.5,2032L1371.5,2032z M1371.6,2031.1c0.9,0,1.6-0.1,2.2-0.4s1.1-0.7,1.5-1.1
		c0.3-0.4,0.5-0.9,0.5-1.4c0-0.6-0.2-1.1-0.7-1.4s-1.1-0.4-2-0.4h-2.5c-0.1,0-0.3,0-0.6-0.1c-0.3,0-0.6-0.1-0.9-0.1
		c-0.5,0.3-0.9,0.7-1.2,1.2s-0.4,0.8-0.4,1.3c0,0.7,0.3,1.3,1,1.8S1370.4,2031.1,1371.6,2031.1L1371.6,2031.1z M1371.3,2021.9
		c0.5,0,1-0.1,1.5-0.4s0.8-0.7,1.1-1.1s0.4-1.1,0.4-1.7c0-1-0.3-1.8-0.9-2.3s-1.3-0.9-2.1-0.9s-1.5,0.3-2.1,0.8s-0.9,1.3-0.9,2.3
		c0,0.6,0.1,1.2,0.4,1.7s0.7,0.9,1.1,1.1S1370.8,2021.9,1371.3,2021.9z"/>
	<path class="st0" d="M1379.9,2012.1c-0.3,0-0.5-0.1-0.7-0.3c-0.2-0.2-0.3-0.4-0.3-0.7c0-0.3,0.1-0.5,0.3-0.7s0.4-0.3,0.7-0.3
		c0.3,0,0.5,0.1,0.7,0.3c0.2,0.2,0.2,0.4,0.2,0.7c0,0.3-0.1,0.5-0.2,0.7C1380.4,2012.1,1380.2,2012.1,1379.9,2012.1z M1379.4,2026.4
		v-11.5h1.1v11.5H1379.4z"/>
	<path class="st0" d="M1384.9,2026.4v-11.5h0.9l0.1,1.8h0.1c0.6-0.6,1.2-1.1,1.8-1.5c0.6-0.4,1.3-0.6,2.1-0.6c1.2,0,2.1,0.4,2.6,1.1
		c0.6,0.7,0.8,1.8,0.8,3.3v7.4h-1.1v-7.2c0-1.2-0.2-2.1-0.6-2.7s-1.1-0.9-2-0.9c-0.7,0-1.3,0.2-1.9,0.5c-0.6,0.4-1.2,0.9-1.9,1.6
		v8.7L1384.9,2026.4L1384.9,2026.4z"/>
</g>
<g>
	<path class="st0" d="M1335.9,1945.3c-1.2,0-2.2-0.2-3.1-0.7s-1.7-1-2.3-1.7l0.7-0.8c0.6,0.6,1.3,1.2,2.1,1.6s1.7,0.6,2.6,0.6
		c1.2,0,2.2-0.3,2.9-0.9s1.1-1.3,1.1-2.3c0-0.7-0.1-1.2-0.4-1.6s-0.6-0.7-1-1c-0.4-0.3-0.9-0.5-1.4-0.7l-2.4-1.1
		c-0.4-0.2-0.9-0.5-1.4-0.8c-0.5-0.3-0.9-0.7-1.3-1.2s-0.5-1.2-0.5-1.9s0.2-1.4,0.6-2c0.4-0.6,0.9-1,1.6-1.4
		c0.7-0.3,1.5-0.5,2.4-0.5c0.9,0,1.8,0.2,2.5,0.6c0.8,0.4,1.4,0.8,1.8,1.3l-0.6,0.7c-0.5-0.5-1-0.9-1.6-1.2
		c-0.6-0.3-1.3-0.4-2.1-0.4c-1,0-1.9,0.3-2.5,0.8s-1,1.2-1,2.1c0,0.6,0.2,1.1,0.4,1.5c0.3,0.4,0.7,0.7,1.1,0.9
		c0.4,0.2,0.8,0.4,1.2,0.6l2.4,1.1c0.6,0.3,1.1,0.6,1.6,0.9s0.9,0.8,1.2,1.3c0.3,0.5,0.5,1.2,0.5,2s-0.2,1.5-0.6,2.2
		c-0.4,0.7-1,1.2-1.8,1.5C1337.8,1945.2,1336.9,1945.4,1335.9,1945.3L1335.9,1945.3z"/>
	<path class="st0" d="M1346.6,1945.3c-0.9,0-1.7-0.3-2.3-0.8s-1-1.3-1-2.4c0-1.3,0.6-2.2,1.8-2.9c1.2-0.7,3.1-1.1,5.6-1.4
		c0-0.6-0.1-1.2-0.2-1.7c-0.1-0.6-0.4-1-0.8-1.4s-1-0.6-1.7-0.6s-1.5,0.2-2.1,0.5c-0.6,0.3-1.2,0.6-1.6,0.9l-0.5-0.8
		c0.3-0.2,0.6-0.4,1.1-0.6s0.9-0.4,1.5-0.6c0.6-0.2,1.1-0.2,1.8-0.2c0.9,0,1.6,0.2,2.2,0.6s0.9,0.9,1.1,1.6c0.2,0.7,0.3,1.4,0.3,2.2
		v7.4h-0.9l-0.1-1.5h-0.1c-0.6,0.5-1.2,0.9-1.9,1.2C1348.1,1945.2,1347.4,1945.3,1346.6,1945.3L1346.6,1945.3z M1346.8,1944.4
		c0.7,0,1.3-0.2,1.9-0.5s1.3-0.8,2-1.4v-3.9c-1.6,0.2-2.8,0.4-3.8,0.7s-1.6,0.7-2,1.1s-0.6,1-0.6,1.6c0,0.8,0.2,1.4,0.7,1.8
		C1345.6,1944.3,1346.2,1944.4,1346.8,1944.4L1346.8,1944.4z"/>
	<path class="st0" d="M1356.1,1945.1v-10.6h-1.6v-0.8l1.6-0.1v-2.6c0-1.1,0.2-2,0.7-2.6s1.2-0.9,2.1-0.9c0.6,0,1.1,0.1,1.7,0.4
		l-0.3,0.9c-0.2-0.1-0.5-0.2-0.7-0.3c-0.2-0.1-0.5-0.1-0.7-0.1c-0.6,0-1.1,0.2-1.4,0.7c-0.3,0.4-0.4,1.1-0.4,1.9v2.5h2.7v0.9h-2.7
		v10.6L1356.1,1945.1L1356.1,1945.1z"/>
	<path class="st0" d="M1366.3,1945.3c-1,0-1.9-0.2-2.7-0.7s-1.4-1.2-1.9-2.1c-0.5-0.9-0.7-2-0.7-3.2s0.2-2.3,0.7-3.2
		s1.1-1.6,1.9-2.1s1.6-0.7,2.4-0.7c1.4,0,2.5,0.5,3.2,1.4s1.2,2.2,1.2,3.9c0,0.1,0,0.3,0,0.4s0,0.3-0.1,0.4h-8.3
		c0,1,0.2,1.8,0.6,2.6c0.4,0.8,0.9,1.3,1.5,1.8c0.7,0.4,1.4,0.7,2.3,0.7c0.6,0,1.2-0.1,1.7-0.3s1-0.4,1.4-0.7l0.4,0.8
		c-0.4,0.3-0.9,0.5-1.5,0.8S1367.2,1945.4,1366.3,1945.3L1366.3,1945.3z M1362.1,1938.6h7.3c0-1.5-0.3-2.6-0.9-3.3s-1.4-1.1-2.5-1.1
		c-0.7,0-1.3,0.2-1.8,0.5s-1,0.9-1.4,1.5C1362.4,1936.9,1362.1,1937.7,1362.1,1938.6L1362.1,1938.6z"/>
	<path class="st0" d="M1380.9,1945.3c-0.9,0-1.7-0.3-2.3-0.8s-1-1.3-1-2.4c0-1.3,0.6-2.2,1.8-2.9c1.2-0.7,3.1-1.1,5.6-1.4
		c0-0.6-0.1-1.2-0.2-1.7c-0.1-0.6-0.4-1-0.8-1.4s-1-0.6-1.7-0.6s-1.5,0.2-2.1,0.5c-0.6,0.3-1.2,0.6-1.6,0.9l-0.5-0.8
		c0.3-0.2,0.6-0.4,1.1-0.6s0.9-0.4,1.5-0.6c0.6-0.2,1.1-0.2,1.8-0.2c0.9,0,1.6,0.2,2.2,0.6s0.9,0.9,1.1,1.6c0.2,0.7,0.3,1.4,0.3,2.2
		v7.4h-0.9l-0.1-1.5h-0.1c-0.6,0.5-1.2,0.9-1.9,1.2C1382.4,1945.2,1381.7,1945.3,1380.9,1945.3L1380.9,1945.3z M1381.1,1944.4
		c0.7,0,1.3-0.2,1.9-0.5s1.3-0.8,2-1.4v-3.9c-1.6,0.2-2.8,0.4-3.8,0.7s-1.6,0.7-2,1.1s-0.6,1-0.6,1.6c0,0.8,0.2,1.4,0.7,1.8
		C1379.8,1944.3,1380.4,1944.4,1381.1,1944.4L1381.1,1944.4z"/>
	<path class="st0" d="M1390.1,1945.1v-11.5h0.9l0.1,2.1h0.1c0.4-0.7,0.8-1.3,1.4-1.7s1.2-0.7,1.9-0.7c0.2,0,0.4,0,0.6,0.1
		c0.2,0,0.4,0.1,0.6,0.2l-0.2,1c-0.2-0.1-0.4-0.1-0.5-0.2c-0.1,0-0.3,0-0.6,0c-0.5,0-1.1,0.2-1.6,0.7c-0.6,0.4-1.1,1.2-1.5,2.3v7.8
		L1390.1,1945.1L1390.1,1945.1z"/>
	<path class="st0" d="M1401.9,1945.3c-1,0-1.9-0.2-2.7-0.7s-1.4-1.2-1.9-2.1c-0.5-0.9-0.7-2-0.7-3.2s0.2-2.3,0.7-3.2
		s1.1-1.6,1.9-2.1s1.6-0.7,2.4-0.7c1.4,0,2.5,0.5,3.2,1.4s1.2,2.2,1.2,3.9c0,0.1,0,0.3,0,0.4s0,0.3-0.1,0.4h-8.3
		c0,1,0.2,1.8,0.6,2.6c0.4,0.8,0.9,1.3,1.5,1.8c0.7,0.4,1.4,0.7,2.3,0.7c0.6,0,1.2-0.1,1.7-0.3s1-0.4,1.4-0.7l0.4,0.8
		c-0.4,0.3-0.9,0.5-1.5,0.8S1402.7,1945.4,1401.9,1945.3L1401.9,1945.3z M1397.6,1938.6h7.3c0-1.5-0.3-2.6-0.9-3.3s-1.4-1.1-2.5-1.1
		c-0.7,0-1.3,0.2-1.8,0.5s-1,0.9-1.4,1.5C1397.9,1936.9,1397.7,1937.7,1397.6,1938.6L1397.6,1938.6z"/>
	<path class="st0" d="M1411.3,1945.3c-0.9,0-1.7-0.3-2.3-0.8s-1-1.3-1-2.4c0-1.3,0.6-2.2,1.8-2.9c1.2-0.7,3.1-1.1,5.6-1.4
		c0-0.6-0.1-1.2-0.2-1.7c-0.1-0.6-0.4-1-0.8-1.4s-1-0.6-1.7-0.6s-1.5,0.2-2.1,0.5c-0.6,0.3-1.2,0.6-1.6,0.9l-0.5-0.8
		c0.3-0.2,0.6-0.4,1.1-0.6s0.9-0.4,1.5-0.6c0.6-0.2,1.1-0.2,1.8-0.2c0.9,0,1.6,0.2,2.2,0.6s0.9,0.9,1.1,1.6c0.2,0.7,0.3,1.4,0.3,2.2
		v7.4h-0.9l-0.1-1.5h-0.1c-0.6,0.5-1.2,0.9-1.9,1.2C1412.8,1945.2,1412,1945.3,1411.3,1945.3L1411.3,1945.3z M1411.4,1944.4
		c0.7,0,1.3-0.2,1.9-0.5s1.3-0.8,2-1.4v-3.9c-1.6,0.2-2.8,0.4-3.8,0.7s-1.6,0.7-2,1.1s-0.6,1-0.6,1.6c0,0.8,0.2,1.4,0.7,1.8
		C1410.2,1944.3,1410.8,1944.4,1411.4,1944.4L1411.4,1944.4z"/>
</g>
<g>
	<line class="st9" x1="869.2" y1="1498" x2="916.9" y2="1498"/>
	<g>
		<line class="st9" x1="893.1" y1="1567.2" x2="893.1" y2="1498.8"/>
		<polygon class="st10" points="896.2,1564.7 895.6,1564.2 893.1,1566.9 890.6,1564.2 890,1564.7 893.1,1568 		"/>
		<polygon class="st10" points="896.2,1501.3 895.6,1501.8 893.1,1499.1 890.6,1501.8 890,1501.3 893.1,1498 		"/>
	</g>
	<line class="st9" x1="916.9" y1="1568" x2="869.2" y2="1568"/>
</g>
<g>
	<path class="st0" d="M929,1539c0.1-2.1,0.3-3.9,0.6-5.5c0.3-1.6,0.8-3.2,1.5-4.6s1.5-2.8,2.5-4.3h-8.1v-0.9h9.4v0.6
		c-0.9,1.2-1.7,2.4-2.3,3.5c-0.6,1.1-1.1,2.3-1.4,3.4s-0.6,2.4-0.8,3.6c-0.2,1.3-0.3,2.7-0.3,4.2L929,1539L929,1539z"/>
	<path class="st0" d="M941.8,1539.3c-1.5,0-2.6-0.7-3.4-2.1s-1.2-3.4-1.2-5.9s0.4-4.5,1.2-5.9s1.9-2,3.4-2s2.6,0.7,3.4,2
		c0.8,1.4,1.2,3.3,1.2,5.9s-0.4,4.5-1.2,5.9S943.2,1539.3,941.8,1539.3z M941.8,1538.4c1.1,0,1.9-0.6,2.6-1.8c0.6-1.2,1-3,1-5.3
		s-0.3-4.1-1-5.2s-1.5-1.7-2.6-1.7s-1.9,0.6-2.5,1.7c-0.6,1.2-1,2.9-1,5.2s0.3,4.1,1,5.3C939.9,1537.8,940.7,1538.4,941.8,1538.4z"
		/>
	<path class="st0" d="M954.5,1544.2v-16.7h0.9l0.1,1.4h0.1c0.6-0.4,1.2-0.8,1.8-1.2s1.4-0.5,2.1-0.5c1.5,0,2.7,0.5,3.5,1.6
		c0.8,1.1,1.2,2.5,1.2,4.3c0,1.3-0.2,2.4-0.7,3.3s-1.1,1.6-1.9,2.1c-0.8,0.5-1.6,0.7-2.5,0.7c-0.5,0-1.1-0.1-1.7-0.4s-1.2-0.6-1.8-1
		v6.3L954.5,1544.2L954.5,1544.2z M959,1538.3c0.8,0,1.5-0.2,2.1-0.7s1.1-1.1,1.4-1.9c0.3-0.8,0.5-1.7,0.5-2.8
		c0-0.9-0.1-1.8-0.4-2.5s-0.6-1.3-1.2-1.8c-0.5-0.4-1.2-0.7-2.1-0.7c-0.6,0-1.2,0.2-1.8,0.5s-1.3,0.8-2,1.4v6.8
		c0.7,0.5,1.3,0.9,1.9,1.2S958.5,1538.3,959,1538.3L959,1538.3z"/>
	<path class="st0" d="M965.4,1539l3.9-6l-3.6-5.5h1.2l1.9,2.9c0.2,0.3,0.4,0.6,0.6,0.9c0.2,0.3,0.4,0.6,0.6,1h0.1
		c0.2-0.3,0.4-0.6,0.6-1c0.2-0.3,0.4-0.6,0.6-0.9l1.8-2.9h1.1l-3.6,5.6l3.9,5.9h-1.2l-2-3.1c-0.2-0.4-0.4-0.7-0.7-1.1
		s-0.5-0.7-0.7-1h-0.1c-0.2,0.3-0.4,0.7-0.7,1s-0.4,0.7-0.7,1.1l-2,3.1H965.4L965.4,1539z"/>
</g>
<g>
	<line class="st9" x1="2095.5" y1="1222" x2="2143.2" y2="1222"/>
	<g>
		<line class="st9" x1="2119.4" y1="1497.2" x2="2119.4" y2="1222.8"/>
		<polygon class="st10" points="2122.4,1494.7 2121.9,1494.2 2119.4,1496.9 2116.8,1494.2 2116.3,1494.7 2119.4,1498 		"/>
		<polygon class="st10" points="2122.4,1225.3 2121.9,1225.8 2119.4,1223.1 2116.8,1225.8 2116.3,1225.3 2119.4,1222 		"/>
	</g>
	<line class="st9" x1="2143.2" y1="1498" x2="2095.5" y2="1498"/>
</g>
<g>
	<path class="st0" d="M2155.3,1366c0.1-2.1,0.3-3.9,0.6-5.5c0.3-1.6,0.8-3.2,1.5-4.6s1.5-2.8,2.5-4.3h-8.1v-0.9h9.4v0.6
		c-0.9,1.2-1.7,2.4-2.3,3.5s-1.1,2.3-1.4,3.4c-0.4,1.2-0.6,2.4-0.8,3.6s-0.3,2.7-0.4,4.2L2155.3,1366L2155.3,1366z"/>
	<path class="st0" d="M2168,1366.3c-1.5,0-2.6-0.7-3.4-2.1c-0.8-1.4-1.2-3.4-1.2-5.9s0.4-4.5,1.2-5.9s1.9-2,3.4-2s2.6,0.7,3.4,2
		c0.8,1.4,1.2,3.3,1.2,5.9s-0.4,4.5-1.2,5.9S2169.5,1366.3,2168,1366.3z M2168,1365.4c1.1,0,1.9-0.6,2.6-1.8c0.6-1.2,0.9-3,0.9-5.3
		s-0.3-4.1-0.9-5.2s-1.5-1.7-2.6-1.7s-1.9,0.6-2.5,1.7c-0.6,1.2-1,2.9-1,5.2s0.3,4.1,1,5.3C2166.1,1364.8,2167,1365.4,2168,1365.4z"
		/>
	<path class="st0" d="M2180.8,1371.2v-16.7h0.9l0.1,1.4h0.1c0.6-0.4,1.2-0.8,1.9-1.2s1.4-0.5,2.1-0.5c1.5,0,2.7,0.5,3.5,1.6
		c0.8,1.1,1.1,2.5,1.1,4.3c0,1.3-0.2,2.4-0.7,3.3s-1.1,1.6-1.9,2.1c-0.8,0.5-1.6,0.7-2.5,0.7c-0.5,0-1.1-0.1-1.7-0.4s-1.2-0.6-1.8-1
		v6.3L2180.8,1371.2L2180.8,1371.2z M2185.2,1365.3c0.8,0,1.5-0.2,2.1-0.7s1.1-1.1,1.4-1.9c0.3-0.8,0.5-1.7,0.5-2.8
		c0-0.9-0.1-1.8-0.4-2.5s-0.6-1.3-1.2-1.8c-0.5-0.4-1.2-0.7-2.1-0.7c-0.6,0-1.2,0.2-1.8,0.5c-0.6,0.3-1.3,0.8-2,1.4v6.8
		c0.7,0.5,1.3,0.9,1.9,1.2S2184.8,1365.3,2185.2,1365.3L2185.2,1365.3z"/>
	<path class="st0" d="M2191.7,1366l3.9-6l-3.6-5.5h1.2l1.9,2.9c0.2,0.3,0.4,0.6,0.6,0.9s0.4,0.6,0.6,1h0.1c0.2-0.3,0.4-0.6,0.6-1
		c0.2-0.3,0.4-0.6,0.6-0.9l1.8-2.9h1.1l-3.6,5.6l3.9,5.9h-1.2l-2-3.1c-0.2-0.4-0.4-0.7-0.7-1.1s-0.5-0.7-0.7-1h-0.1
		c-0.2,0.3-0.4,0.7-0.7,1s-0.4,0.7-0.7,1.1l-2,3.1H2191.7L2191.7,1366z"/>
</g>
<g>
	<line class="st9" x1="2095.5" y1="168.2" x2="2143.2" y2="168.2"/>
	<g>
		<line class="st9" x1="2119.4" y1="828.7" x2="2119.4" y2="169.1"/>
		<polygon class="st10" points="2122.4,826.2 2121.9,825.7 2119.4,828.4 2116.9,825.7 2116.3,826.2 2119.4,829.5 		"/>
		<polygon class="st10" points="2122.4,171.6 2121.9,172.1 2119.4,169.4 2116.9,172.1 2116.3,171.6 2119.4,168.2 		"/>
	</g>
	<line class="st9" x1="2143.2" y1="829.5" x2="2095.5" y2="829.5"/>
</g>
<g>
	<line class="st9" x1="1688.8" y1="72.2" x2="1736.5" y2="72.2"/>
	<g>
		<line class="st9" x1="1712.7" y1="535.4" x2="1712.7" y2="73.1"/>
		<polygon class="st10" points="1715.8,533 1715.2,532.4 1712.7,535.2 1710.2,532.4 1709.6,533 1712.7,536.2 		"/>
		<polygon class="st10" points="1715.8,75.6 1715.2,76.1 1712.7,73.3 1710.2,76.1 1709.6,75.6 1712.7,72.2 		"/>
	</g>
	<line class="st9" x1="1736.5" y1="536.2" x2="1688.8" y2="536.2"/>
</g>
<g>
	<path class="st0" d="M2151.3,505.2c-1.5,0-2.8-0.6-3.7-1.9c-0.9-1.3-1.4-3-1.4-5.4c0-1.6,0.1-3,0.5-4.1c0.3-1.1,0.7-2,1.2-2.7
		s1.1-1.2,1.8-1.5c0.7-0.3,1.4-0.5,2.1-0.5s1.3,0.1,1.9,0.4s1,0.6,1.4,1.1l-0.6,0.7c-0.3-0.4-0.7-0.7-1.2-1s-0.9-0.3-1.4-0.3
		c-0.8,0-1.6,0.2-2.3,0.7s-1.2,1.3-1.7,2.4s-0.6,2.6-0.6,4.5c0.5-0.7,1.1-1.2,1.8-1.6c0.7-0.4,1.4-0.6,2.1-0.6
		c1.3,0,2.4,0.4,3.1,1.2s1.1,2,1.1,3.5c0,0.9-0.2,1.8-0.6,2.5c-0.4,0.7-0.9,1.3-1.5,1.7C2152.7,505,2152,505.2,2151.3,505.2
		L2151.3,505.2z M2151.1,496.6c-0.5,0-1.1,0.2-1.8,0.5c-0.7,0.3-1.3,0.9-1.9,1.8c0.1,1.6,0.5,2.9,1.1,3.9c0.6,1,1.6,1.5,2.8,1.5
		c0.6,0,1.1-0.2,1.6-0.5c0.5-0.3,0.8-0.8,1.1-1.4c0.3-0.6,0.4-1.2,0.4-2c0-1.1-0.3-2-0.8-2.8S2152.3,496.6,2151.1,496.6
		L2151.1,496.6z"/>
	<path class="st0" d="M2162.8,505.2c-1.5,0-2.8-0.6-3.7-1.9c-0.9-1.3-1.4-3-1.4-5.4c0-1.6,0.1-3,0.5-4.1c0.3-1.1,0.7-2,1.2-2.7
		s1.1-1.2,1.8-1.5c0.7-0.3,1.4-0.5,2.1-0.5s1.3,0.1,1.9,0.4s1,0.6,1.4,1.1l-0.6,0.7c-0.3-0.4-0.7-0.7-1.2-1s-0.9-0.3-1.4-0.3
		c-0.8,0-1.6,0.2-2.3,0.7s-1.2,1.3-1.7,2.4s-0.6,2.6-0.6,4.5c0.5-0.7,1.1-1.2,1.8-1.6c0.7-0.4,1.4-0.6,2.1-0.6
		c1.3,0,2.4,0.4,3.1,1.2s1.1,2,1.1,3.5c0,0.9-0.2,1.8-0.6,2.5c-0.4,0.7-0.9,1.3-1.5,1.7C2164.2,505,2163.5,505.2,2162.8,505.2
		L2162.8,505.2z M2162.6,496.6c-0.5,0-1.1,0.2-1.8,0.5c-0.7,0.3-1.3,0.9-1.9,1.8c0.1,1.6,0.5,2.9,1.1,3.9c0.6,1,1.6,1.5,2.8,1.5
		c0.6,0,1.1-0.2,1.6-0.5c0.5-0.3,0.8-0.8,1.1-1.4c0.3-0.6,0.4-1.2,0.4-2c0-1.1-0.3-2-0.8-2.8S2163.8,496.6,2162.6,496.6
		L2162.6,496.6z"/>
	<path class="st0" d="M2170,504.9V504h3.6v-12.7h-2.7v-0.7c0.6-0.1,1.2-0.2,1.7-0.4s0.9-0.3,1.3-0.5h0.9V504h3.3v0.9H2170
		L2170,504.9z"/>
	<path class="st0" d="M2186.5,510.1v-16.7h0.9l0.1,1.4h0.1c0.6-0.5,1.2-0.9,1.9-1.2c0.7-0.4,1.4-0.5,2.1-0.5c1.5,0,2.7,0.5,3.5,1.6
		c0.8,1.1,1.1,2.5,1.1,4.3c0,1.3-0.2,2.4-0.7,3.3s-1.1,1.6-1.9,2.1s-1.6,0.7-2.5,0.7c-0.5,0-1.1-0.1-1.7-0.4s-1.2-0.6-1.8-1v6.3
		L2186.5,510.1L2186.5,510.1z M2191,504.3c0.8,0,1.5-0.2,2.1-0.7s1.1-1.1,1.4-1.9c0.3-0.8,0.5-1.7,0.5-2.8c0-0.9-0.1-1.8-0.4-2.5
		s-0.6-1.3-1.2-1.8c-0.5-0.4-1.2-0.6-2.1-0.6c-0.6,0-1.2,0.2-1.8,0.5c-0.6,0.3-1.3,0.8-2,1.4v6.8c0.7,0.5,1.3,0.9,1.9,1.1
		S2190.6,504.3,2191,504.3L2191,504.3z"/>
	<path class="st0" d="M2197.4,504.9l3.9-6l-3.6-5.5h1.2l1.9,2.9c0.2,0.3,0.4,0.6,0.6,0.9l0.6,1h0.1c0.2-0.3,0.4-0.6,0.6-1
		c0.2-0.3,0.4-0.6,0.6-0.9l1.8-2.9h1.1l-3.6,5.6l3.9,5.9h-1.2l-2-3.1c-0.2-0.4-0.4-0.7-0.7-1.1c-0.2-0.4-0.5-0.7-0.7-1h-0.1
		c-0.2,0.3-0.4,0.7-0.7,1s-0.4,0.7-0.7,1.1l-2,3.1H2197.4L2197.4,504.9z"/>
</g>
<g>
	<path class="st0" d="M1631.8,310.3v-4.6h-7.1v-0.6l7.1-10.1h1v9.8h2.3v0.9h-2.3v4.6H1631.8L1631.8,310.3z M1626,304.8h5.8v-5.6
		c0-0.4,0-0.8,0-1.3c0-0.5,0-1,0.1-1.3h-0.1c-0.2,0.3-0.4,0.6-0.6,0.9s-0.4,0.6-0.7,1L1626,304.8L1626,304.8z"/>
	<path class="st0" d="M1642.1,310.6c-1.5,0-2.8-0.6-3.7-1.9c-0.9-1.3-1.4-3-1.4-5.4c0-1.6,0.2-3,0.5-4.1c0.3-1.1,0.7-2,1.2-2.7
		s1.1-1.2,1.8-1.5s1.4-0.5,2.1-0.5s1.3,0.1,1.9,0.4s1,0.6,1.4,1.1l-0.7,0.7c-0.3-0.4-0.7-0.7-1.2-1c-0.4-0.2-0.9-0.3-1.4-0.3
		c-0.8,0-1.6,0.2-2.3,0.7s-1.2,1.3-1.7,2.4c-0.4,1.1-0.6,2.6-0.6,4.5c0.5-0.7,1.1-1.2,1.8-1.6s1.4-0.6,2.1-0.6
		c1.3,0,2.4,0.4,3.1,1.2s1.1,2,1.1,3.5c0,0.9-0.2,1.8-0.6,2.5c-0.4,0.7-0.9,1.3-1.5,1.7C1643.5,310.4,1642.8,310.6,1642.1,310.6
		L1642.1,310.6z M1641.9,301.9c-0.5,0-1.1,0.2-1.8,0.5c-0.7,0.3-1.3,0.9-1.9,1.8c0.1,1.6,0.5,2.9,1.1,3.9s1.6,1.5,2.8,1.5
		c0.6,0,1.1-0.2,1.6-0.5s0.8-0.8,1.1-1.4c0.3-0.6,0.4-1.2,0.4-2c0-1.1-0.3-2-0.8-2.8S1643,301.9,1641.9,301.9L1641.9,301.9z"/>
	<path class="st0" d="M1654.8,310.3v-4.6h-7.1v-0.6l7.1-10.1h1v9.8h2.3v0.9h-2.3v4.6H1654.8L1654.8,310.3z M1649,304.8h5.8v-5.6
		c0-0.4,0-0.8,0-1.3c0-0.5,0-1,0.1-1.3h-0.1c-0.2,0.3-0.4,0.6-0.6,0.9s-0.4,0.6-0.7,1L1649,304.8L1649,304.8z"/>
	<path class="st0" d="M1665.8,315.5v-16.7h0.9l0.1,1.4h0.1c0.6-0.5,1.2-0.9,1.8-1.2c0.7-0.4,1.4-0.5,2.1-0.5c1.5,0,2.7,0.5,3.5,1.6
		c0.8,1.1,1.2,2.5,1.2,4.3c0,1.3-0.2,2.4-0.7,3.3s-1.1,1.6-1.9,2.1s-1.6,0.7-2.5,0.7c-0.5,0-1.1-0.1-1.7-0.4s-1.2-0.6-1.8-1v6.3
		L1665.8,315.5L1665.8,315.5z M1670.3,309.6c0.8,0,1.5-0.2,2.1-0.7s1.1-1.1,1.4-1.9c0.3-0.8,0.5-1.7,0.5-2.8c0-0.9-0.1-1.8-0.4-2.5
		s-0.6-1.3-1.2-1.8c-0.5-0.4-1.2-0.6-2.1-0.6c-0.6,0-1.2,0.2-1.8,0.5c-0.6,0.3-1.3,0.8-2,1.4v6.8c0.7,0.5,1.3,0.9,1.9,1.1
		S1669.8,309.6,1670.3,309.6L1670.3,309.6z"/>
	<path class="st0" d="M1676.7,310.3l3.9-6l-3.6-5.5h1.2l1.9,2.9c0.2,0.3,0.4,0.6,0.6,0.9s0.4,0.6,0.6,1h0.1c0.2-0.3,0.4-0.6,0.6-1
		c0.2-0.3,0.4-0.6,0.6-0.9l1.8-2.9h1.1l-3.6,5.6l3.9,5.9h-1.2l-2-3.1c-0.2-0.4-0.4-0.7-0.7-1.1c-0.2-0.4-0.5-0.7-0.7-1h-0.1
		c-0.2,0.3-0.4,0.7-0.7,1s-0.4,0.7-0.7,1.1l-2,3.1H1676.7L1676.7,310.3z"/>
</g>
<g>
	<line class="st9" x1="2095.5" y1="1708.4" x2="2143.2" y2="1708.4"/>
	<g>
		<line class="st9" x1="2119.4" y1="1836.6" x2="2119.4" y2="1709.2"/>
		<polygon class="st10" points="2122.4,1834.1 2121.9,1833.6 2119.4,1836.3 2116.8,1833.6 2116.3,1834.1 2119.4,1837.4 		"/>
		<polygon class="st10" points="2122.4,1711.7 2121.9,1712.2 2119.4,1709.5 2116.8,1712.2 2116.3,1711.7 2119.4,1708.4 		"/>
	</g>
	<line class="st9" x1="2143.2" y1="1837.4" x2="2095.5" y2="1837.4"/>
</g>
<g>
	<path class="st0" d="M2155.3,1778.9c0.1-2.1,0.3-3.9,0.6-5.5c0.3-1.6,0.8-3.2,1.5-4.6s1.5-2.8,2.5-4.3h-8.1v-0.9h9.4v0.6
		c-0.9,1.2-1.7,2.4-2.3,3.5s-1.1,2.3-1.4,3.4c-0.4,1.2-0.6,2.4-0.8,3.6s-0.3,2.7-0.4,4.2L2155.3,1778.9L2155.3,1778.9z"/>
	<path class="st0" d="M2168,1779.2c-1.5,0-2.6-0.7-3.4-2.1c-0.8-1.4-1.2-3.4-1.2-5.9s0.4-4.5,1.2-5.9s1.9-2,3.4-2s2.6,0.7,3.4,2
		c0.8,1.4,1.2,3.3,1.2,5.9s-0.4,4.5-1.2,5.9S2169.5,1779.2,2168,1779.2z M2168,1778.3c1.1,0,1.9-0.6,2.6-1.8c0.6-1.2,0.9-3,0.9-5.3
		s-0.3-4.1-0.9-5.2s-1.5-1.7-2.6-1.7s-1.9,0.6-2.5,1.7c-0.6,1.2-1,2.9-1,5.2s0.3,4.1,1,5.3C2166.1,1777.7,2167,1778.3,2168,1778.3z"
		/>
	<path class="st0" d="M2180.8,1784.1v-16.7h0.9l0.1,1.4h0.1c0.6-0.4,1.2-0.8,1.9-1.2s1.4-0.5,2.1-0.5c1.5,0,2.7,0.5,3.5,1.6
		c0.8,1.1,1.1,2.5,1.1,4.3c0,1.3-0.2,2.4-0.7,3.3s-1.1,1.6-1.9,2.1c-0.8,0.5-1.6,0.7-2.5,0.7c-0.5,0-1.1-0.1-1.7-0.4s-1.2-0.6-1.8-1
		v6.3L2180.8,1784.1L2180.8,1784.1z M2185.2,1778.3c0.8,0,1.5-0.2,2.1-0.7s1.1-1.1,1.4-1.9c0.3-0.8,0.5-1.7,0.5-2.8
		c0-0.9-0.1-1.8-0.4-2.5s-0.6-1.3-1.2-1.8c-0.5-0.4-1.2-0.7-2.1-0.7c-0.6,0-1.2,0.2-1.8,0.5c-0.6,0.3-1.3,0.8-2,1.4v6.8
		c0.7,0.5,1.3,0.9,1.9,1.2S2184.8,1778.3,2185.2,1778.3L2185.2,1778.3z"/>
	<path class="st0" d="M2191.7,1778.9l3.9-6l-3.6-5.5h1.2l1.9,2.9c0.2,0.3,0.4,0.6,0.6,0.9s0.4,0.6,0.6,1h0.1c0.2-0.3,0.4-0.6,0.6-1
		c0.2-0.3,0.4-0.6,0.6-0.9l1.8-2.9h1.1l-3.6,5.6l3.9,5.9h-1.2l-2-3.1c-0.2-0.4-0.4-0.7-0.7-1.1s-0.5-0.7-0.7-1h-0.1
		c-0.2,0.3-0.4,0.7-0.7,1s-0.4,0.7-0.7,1.1l-2,3.1H2191.7L2191.7,1778.9z"/>
</g>
<g>
	<line class="st9" x1="869.3" y1="1837.4" x2="916.9" y2="1837.4"/>
	<g>
		<line class="st9" x1="893.1" y1="2054.6" x2="893.1" y2="1838.2"/>
		<polygon class="st10" points="896.2,2052.1 895.6,2051.6 893.1,2054.3 890.6,2051.6 890,2052.1 893.1,2055.4 		"/>
		<polygon class="st10" points="896.2,1840.7 895.6,1841.2 893.1,1838.5 890.6,1841.2 890,1840.7 893.1,1837.4 		"/>
	</g>
	<line class="st9" x1="916.9" y1="2055.4" x2="869.3" y2="2055.4"/>
</g>
<g>
	<path class="st0" d="M919.8,1952.4v-0.7c1.7-1.7,3.1-3.2,4.2-4.4c1.1-1.3,2-2.4,2.5-3.4s0.8-1.9,0.8-2.8c0-1-0.3-1.8-0.8-2.4
		c-0.5-0.7-1.4-1-2.5-1c-0.7,0-1.3,0.2-2,0.6c-0.6,0.4-1.2,0.9-1.6,1.4l-0.7-0.7c0.6-0.6,1.2-1.2,1.9-1.6c0.7-0.4,1.5-0.7,2.5-0.7
		c1.4,0,2.4,0.4,3.2,1.2s1.1,1.8,1.1,3.1c0,1-0.3,2-0.9,3.1c-0.6,1-1.4,2.2-2.5,3.4s-2.3,2.6-3.7,4.1c0.4,0,0.8-0.1,1.3-0.1
		c0.4,0,0.9,0,1.3,0h5.2v1L919.8,1952.4L919.8,1952.4z"/>
	<path class="st0" d="M931.2,1952.4v-0.7c1.7-1.7,3.1-3.2,4.2-4.4c1.1-1.3,2-2.4,2.5-3.4s0.8-1.9,0.8-2.8c0-1-0.3-1.8-0.8-2.4
		c-0.5-0.7-1.4-1-2.5-1c-0.7,0-1.3,0.2-2,0.6c-0.6,0.4-1.2,0.9-1.6,1.4l-0.7-0.7c0.6-0.6,1.2-1.2,1.9-1.6c0.7-0.4,1.5-0.7,2.5-0.7
		c1.4,0,2.4,0.4,3.2,1.2s1.1,1.8,1.1,3.1c0,1-0.3,2-0.9,3.1c-0.6,1-1.4,2.2-2.5,3.4s-2.3,2.6-3.7,4.1c0.4,0,0.8-0.1,1.3-0.1
		c0.4,0,0.9,0,1.3,0h5.2v1L931.2,1952.4L931.2,1952.4z"/>
	<path class="st0" d="M947.5,1952.7c-1.5,0-2.6-0.7-3.4-2.1s-1.2-3.4-1.2-5.9s0.4-4.5,1.2-5.9s1.9-2,3.4-2s2.6,0.7,3.4,2
		c0.8,1.4,1.2,3.3,1.2,5.9s-0.4,4.5-1.2,5.9S949,1952.7,947.5,1952.7z M947.5,1951.8c1.1,0,1.9-0.6,2.6-1.8c0.6-1.2,1-3,1-5.3
		s-0.3-4.1-1-5.2s-1.5-1.7-2.6-1.7s-1.9,0.6-2.5,1.7c-0.6,1.2-1,2.9-1,5.2s0.3,4.1,1,5.3C945.6,1951.2,946.5,1951.8,947.5,1951.8z"
		/>
	<path class="st0" d="M960.3,1957.6v-16.7h0.9l0.1,1.4h0.1c0.6-0.4,1.2-0.8,1.8-1.2s1.4-0.5,2.1-0.5c1.5,0,2.7,0.5,3.5,1.6
		c0.8,1.1,1.2,2.5,1.2,4.3c0,1.3-0.2,2.4-0.7,3.3s-1.1,1.6-1.9,2.1c-0.8,0.5-1.6,0.7-2.5,0.7c-0.5,0-1.1-0.1-1.7-0.4s-1.2-0.6-1.8-1
		v6.3L960.3,1957.6L960.3,1957.6z M964.7,1951.8c0.8,0,1.5-0.2,2.1-0.7s1.1-1.1,1.4-1.9c0.3-0.8,0.5-1.7,0.5-2.8
		c0-0.9-0.1-1.8-0.4-2.5s-0.6-1.3-1.2-1.8c-0.5-0.4-1.2-0.7-2.1-0.7c-0.6,0-1.2,0.2-1.8,0.5c-0.6,0.3-1.3,0.8-2,1.4v6.8
		c0.7,0.5,1.3,0.9,1.9,1.2S964.3,1951.8,964.7,1951.8L964.7,1951.8z"/>
	<path class="st0" d="M971.2,1952.4l3.9-6l-3.6-5.5h1.2l1.9,2.9c0.2,0.3,0.4,0.6,0.6,0.9s0.4,0.6,0.6,1h0.1c0.2-0.3,0.4-0.6,0.6-1
		c0.2-0.3,0.4-0.6,0.6-0.9l1.8-2.9h1.1l-3.6,5.6l3.9,5.9h-1.2l-2-3.1c-0.2-0.4-0.4-0.7-0.7-1.1s-0.5-0.7-0.7-1h-0.1
		c-0.2,0.3-0.4,0.7-0.7,1s-0.4,0.7-0.7,1.1l-2,3.1H971.2L971.2,1952.4z"/>
</g>
<rect x="1251.5" y="1222" class="st11" width="844" height="276"/>
<rect x="1736.5" y="168.2" class="st11" width="359" height="661.3"/>
<rect x="1736.5" y="72.2" class="st11" width="359" height="464"/>
<rect x="1251.5" y="1708.4" class="st11" width="844" height="128.9"/>
<rect x="1251.5" y="1911.5" class="st11" width="55" height="55"/>
<rect x="1251.5" y="1992.9" class="st8" width="55" height="55"/>
<rect x="1251.5" y="2074.3" class="st1" width="55" height="55"/>
</svg>
